M48
; DRILL file {KiCad 5.1.12-84ad8e8a86~92~ubuntu20.04.1} date Tue Mar  1 23:05:34 2022
; FORMAT={-:-/ absolute / metric / decimal}
; #@! TF.CreationDate,2022-03-01T23:05:34-06:00
; #@! TF.GenerationSoftware,Kicad,Pcbnew,5.1.12-84ad8e8a86~92~ubuntu20.04.1
FMAT,2
METRIC
T1C0.400
T2C0.900
T3C2.200
T4C2.250
%
G90
G05
T1
X140.8Y-97.0
X142.7Y-93.1
X144.4Y-83.4
X145.2Y-71.1
X145.2Y-75.8
X145.8Y-93.1
X146.129Y-85.771
X146.871Y-85.029
X147.4Y-97.0
X148.0Y-82.1
X148.1Y-71.1
X149.5Y-82.1
X150.8Y-85.3
X151.586Y-81.925
X152.846Y-82.455
X155.3Y-71.1
X157.3Y-71.1
X157.3Y-74.9
T2
X148.1Y-76.4
X148.1Y-78.9
X150.2Y-76.4
X150.2Y-78.9
X152.4Y-78.9
X152.8Y-76.4
X154.9Y-76.4
X154.9Y-78.9
T3
X141.892Y-78.203
X156.392Y-83.233
T4
X151.5Y-72.6
T0
M30
