%TF.GenerationSoftware,KiCad,Pcbnew,5.1.12-84ad8e8a86~92~ubuntu20.04.1*%
%TF.CreationDate,2022-03-01T23:05:29-06:00*%
%TF.ProjectId,portboard_dt,706f7274-626f-4617-9264-5f64742e6b69,rev?*%
%TF.SameCoordinates,Original*%
%TF.FileFunction,Legend,Top*%
%TF.FilePolarity,Positive*%
%FSLAX46Y46*%
G04 Gerber Fmt 4.6, Leading zero omitted, Abs format (unit mm)*
G04 Created by KiCad (PCBNEW 5.1.12-84ad8e8a86~92~ubuntu20.04.1) date 2022-03-01 23:05:29*
%MOMM*%
%LPD*%
G01*
G04 APERTURE LIST*
%ADD10C,0.150000*%
%ADD11C,0.125000*%
%ADD12C,0.127000*%
%ADD13C,0.120000*%
%ADD14C,0.065024*%
G04 APERTURE END LIST*
D10*
X136676190Y-84697619D02*
X136676190Y-84121428D01*
X136623809Y-84016666D01*
X136519047Y-83964285D01*
X136309523Y-83964285D01*
X136204761Y-84016666D01*
X136676190Y-84645238D02*
X136571428Y-84697619D01*
X136309523Y-84697619D01*
X136204761Y-84645238D01*
X136152380Y-84540476D01*
X136152380Y-84435714D01*
X136204761Y-84330952D01*
X136309523Y-84278571D01*
X136571428Y-84278571D01*
X136676190Y-84226190D01*
X137200000Y-84697619D02*
X137200000Y-83964285D01*
X137200000Y-84173809D02*
X137252380Y-84069047D01*
X137304761Y-84016666D01*
X137409523Y-83964285D01*
X137514285Y-83964285D01*
X137880952Y-84697619D02*
X137880952Y-83964285D01*
X137880952Y-84173809D02*
X137933333Y-84069047D01*
X137985714Y-84016666D01*
X138090476Y-83964285D01*
X138195238Y-83964285D01*
X138980952Y-84645238D02*
X138876190Y-84697619D01*
X138666666Y-84697619D01*
X138561904Y-84645238D01*
X138509523Y-84540476D01*
X138509523Y-84121428D01*
X138561904Y-84016666D01*
X138666666Y-83964285D01*
X138876190Y-83964285D01*
X138980952Y-84016666D01*
X139033333Y-84121428D01*
X139033333Y-84226190D01*
X138509523Y-84330952D01*
X139452380Y-84645238D02*
X139557142Y-84697619D01*
X139766666Y-84697619D01*
X139871428Y-84645238D01*
X139923809Y-84540476D01*
X139923809Y-84488095D01*
X139871428Y-84383333D01*
X139766666Y-84330952D01*
X139609523Y-84330952D01*
X139504761Y-84278571D01*
X139452380Y-84173809D01*
X139452380Y-84121428D01*
X139504761Y-84016666D01*
X139609523Y-83964285D01*
X139766666Y-83964285D01*
X139871428Y-84016666D01*
X140238095Y-83964285D02*
X140657142Y-83964285D01*
X140395238Y-83597619D02*
X140395238Y-84540476D01*
X140447619Y-84645238D01*
X140552380Y-84697619D01*
X140657142Y-84697619D01*
X141442857Y-84645238D02*
X141338095Y-84697619D01*
X141128571Y-84697619D01*
X141023809Y-84645238D01*
X140971428Y-84540476D01*
X140971428Y-84121428D01*
X141023809Y-84016666D01*
X141128571Y-83964285D01*
X141338095Y-83964285D01*
X141442857Y-84016666D01*
X141495238Y-84121428D01*
X141495238Y-84226190D01*
X140971428Y-84330952D01*
X142438095Y-84697619D02*
X142438095Y-83597619D01*
X142438095Y-84645238D02*
X142333333Y-84697619D01*
X142123809Y-84697619D01*
X142019047Y-84645238D01*
X141966666Y-84592857D01*
X141914285Y-84488095D01*
X141914285Y-84173809D01*
X141966666Y-84069047D01*
X142019047Y-84016666D01*
X142123809Y-83964285D01*
X142333333Y-83964285D01*
X142438095Y-84016666D01*
X143119047Y-84697619D02*
X143014285Y-84645238D01*
X142961904Y-84540476D01*
X142961904Y-83597619D01*
X143538095Y-84697619D02*
X143538095Y-83964285D01*
X143538095Y-83597619D02*
X143485714Y-83650000D01*
X143538095Y-83702380D01*
X143590476Y-83650000D01*
X143538095Y-83597619D01*
X143538095Y-83702380D01*
X144533333Y-83964285D02*
X144533333Y-84854761D01*
X144480952Y-84959523D01*
X144428571Y-85011904D01*
X144323809Y-85064285D01*
X144166666Y-85064285D01*
X144061904Y-85011904D01*
X144533333Y-84645238D02*
X144428571Y-84697619D01*
X144219047Y-84697619D01*
X144114285Y-84645238D01*
X144061904Y-84592857D01*
X144009523Y-84488095D01*
X144009523Y-84173809D01*
X144061904Y-84069047D01*
X144114285Y-84016666D01*
X144219047Y-83964285D01*
X144428571Y-83964285D01*
X144533333Y-84016666D01*
X145057142Y-84697619D02*
X145057142Y-83597619D01*
X145528571Y-84697619D02*
X145528571Y-84121428D01*
X145476190Y-84016666D01*
X145371428Y-83964285D01*
X145214285Y-83964285D01*
X145109523Y-84016666D01*
X145057142Y-84069047D01*
X145895238Y-83964285D02*
X146314285Y-83964285D01*
X146052380Y-83597619D02*
X146052380Y-84540476D01*
X146104761Y-84645238D01*
X146209523Y-84697619D01*
X146314285Y-84697619D01*
X146680952Y-83964285D02*
X146680952Y-84697619D01*
X146680952Y-84069047D02*
X146733333Y-84016666D01*
X146838095Y-83964285D01*
X146995238Y-83964285D01*
X147100000Y-84016666D01*
X147152380Y-84121428D01*
X147152380Y-84697619D01*
X147676190Y-84697619D02*
X147676190Y-83964285D01*
X147676190Y-83597619D02*
X147623809Y-83650000D01*
X147676190Y-83702380D01*
X147728571Y-83650000D01*
X147676190Y-83597619D01*
X147676190Y-83702380D01*
X148200000Y-83964285D02*
X148200000Y-84697619D01*
X148200000Y-84069047D02*
X148252380Y-84016666D01*
X148357142Y-83964285D01*
X148514285Y-83964285D01*
X148619047Y-84016666D01*
X148671428Y-84121428D01*
X148671428Y-84697619D01*
X149666666Y-83964285D02*
X149666666Y-84854761D01*
X149614285Y-84959523D01*
X149561904Y-85011904D01*
X149457142Y-85064285D01*
X149300000Y-85064285D01*
X149195238Y-85011904D01*
X149666666Y-84645238D02*
X149561904Y-84697619D01*
X149352380Y-84697619D01*
X149247619Y-84645238D01*
X149195238Y-84592857D01*
X149142857Y-84488095D01*
X149142857Y-84173809D01*
X149195238Y-84069047D01*
X149247619Y-84016666D01*
X149352380Y-83964285D01*
X149561904Y-83964285D01*
X149666666Y-84016666D01*
X150190476Y-84592857D02*
X150242857Y-84645238D01*
X150190476Y-84697619D01*
X150138095Y-84645238D01*
X150190476Y-84592857D01*
X150190476Y-84697619D01*
X151185714Y-84645238D02*
X151080952Y-84697619D01*
X150871428Y-84697619D01*
X150766666Y-84645238D01*
X150714285Y-84592857D01*
X150661904Y-84488095D01*
X150661904Y-84173809D01*
X150714285Y-84069047D01*
X150766666Y-84016666D01*
X150871428Y-83964285D01*
X151080952Y-83964285D01*
X151185714Y-84016666D01*
X151814285Y-84697619D02*
X151709523Y-84645238D01*
X151657142Y-84592857D01*
X151604761Y-84488095D01*
X151604761Y-84173809D01*
X151657142Y-84069047D01*
X151709523Y-84016666D01*
X151814285Y-83964285D01*
X151971428Y-83964285D01*
X152076190Y-84016666D01*
X152128571Y-84069047D01*
X152180952Y-84173809D01*
X152180952Y-84488095D01*
X152128571Y-84592857D01*
X152076190Y-84645238D01*
X151971428Y-84697619D01*
X151814285Y-84697619D01*
X152652380Y-84697619D02*
X152652380Y-83964285D01*
X152652380Y-84069047D02*
X152704761Y-84016666D01*
X152809523Y-83964285D01*
X152966666Y-83964285D01*
X153071428Y-84016666D01*
X153123809Y-84121428D01*
X153123809Y-84697619D01*
X153123809Y-84121428D02*
X153176190Y-84016666D01*
X153280952Y-83964285D01*
X153438095Y-83964285D01*
X153542857Y-84016666D01*
X153595238Y-84121428D01*
X153595238Y-84697619D01*
D11*
X136690773Y-87383333D02*
X137214583Y-87383333D01*
X136586011Y-87697619D02*
X136952678Y-86597619D01*
X137319345Y-87697619D01*
X138209821Y-87697619D02*
X137686011Y-87697619D01*
X137686011Y-86597619D01*
X139152678Y-87697619D02*
X138524107Y-87697619D01*
X138838392Y-87697619D02*
X138838392Y-86597619D01*
X138733630Y-86754761D01*
X138628869Y-86859523D01*
X138524107Y-86911904D01*
X139833630Y-86597619D02*
X139938392Y-86597619D01*
X140043154Y-86650000D01*
X140095535Y-86702380D01*
X140147916Y-86807142D01*
X140200297Y-87016666D01*
X140200297Y-87278571D01*
X140147916Y-87488095D01*
X140095535Y-87592857D01*
X140043154Y-87645238D01*
X139938392Y-87697619D01*
X139833630Y-87697619D01*
X139728869Y-87645238D01*
X139676488Y-87592857D01*
X139624107Y-87488095D01*
X139571726Y-87278571D01*
X139571726Y-87016666D01*
X139624107Y-86807142D01*
X139676488Y-86702380D01*
X139728869Y-86650000D01*
X139833630Y-86597619D01*
X140619345Y-86702380D02*
X140671726Y-86650000D01*
X140776488Y-86597619D01*
X141038392Y-86597619D01*
X141143154Y-86650000D01*
X141195535Y-86702380D01*
X141247916Y-86807142D01*
X141247916Y-86911904D01*
X141195535Y-87069047D01*
X140566964Y-87697619D01*
X141247916Y-87697619D01*
X141876488Y-87069047D02*
X141771726Y-87016666D01*
X141719345Y-86964285D01*
X141666964Y-86859523D01*
X141666964Y-86807142D01*
X141719345Y-86702380D01*
X141771726Y-86650000D01*
X141876488Y-86597619D01*
X142086011Y-86597619D01*
X142190773Y-86650000D01*
X142243154Y-86702380D01*
X142295535Y-86807142D01*
X142295535Y-86859523D01*
X142243154Y-86964285D01*
X142190773Y-87016666D01*
X142086011Y-87069047D01*
X141876488Y-87069047D01*
X141771726Y-87121428D01*
X141719345Y-87173809D01*
X141666964Y-87278571D01*
X141666964Y-87488095D01*
X141719345Y-87592857D01*
X141771726Y-87645238D01*
X141876488Y-87697619D01*
X142086011Y-87697619D01*
X142190773Y-87645238D01*
X142243154Y-87592857D01*
X142295535Y-87488095D01*
X142295535Y-87278571D01*
X142243154Y-87173809D01*
X142190773Y-87121428D01*
X142086011Y-87069047D01*
X144233630Y-87697619D02*
X143866964Y-87173809D01*
X143605059Y-87697619D02*
X143605059Y-86597619D01*
X144024107Y-86597619D01*
X144128869Y-86650000D01*
X144181250Y-86702380D01*
X144233630Y-86807142D01*
X144233630Y-86964285D01*
X144181250Y-87069047D01*
X144128869Y-87121428D01*
X144024107Y-87173809D01*
X143605059Y-87173809D01*
X145124107Y-87645238D02*
X145019345Y-87697619D01*
X144809821Y-87697619D01*
X144705059Y-87645238D01*
X144652678Y-87540476D01*
X144652678Y-87121428D01*
X144705059Y-87016666D01*
X144809821Y-86964285D01*
X145019345Y-86964285D01*
X145124107Y-87016666D01*
X145176488Y-87121428D01*
X145176488Y-87226190D01*
X144652678Y-87330952D01*
X145543154Y-86964285D02*
X145805059Y-87697619D01*
X146066964Y-86964285D01*
X147271726Y-87383333D02*
X147795535Y-87383333D01*
X147166964Y-87697619D02*
X147533630Y-86597619D01*
X147900297Y-87697619D01*
X149052678Y-86702380D02*
X149105059Y-86650000D01*
X149209821Y-86597619D01*
X149471726Y-86597619D01*
X149576488Y-86650000D01*
X149628869Y-86702380D01*
X149681250Y-86807142D01*
X149681250Y-86911904D01*
X149628869Y-87069047D01*
X149000297Y-87697619D01*
X149681250Y-87697619D01*
X150152678Y-87278571D02*
X150990773Y-87278571D01*
X151462202Y-86702380D02*
X151514583Y-86650000D01*
X151619345Y-86597619D01*
X151881250Y-86597619D01*
X151986011Y-86650000D01*
X152038392Y-86702380D01*
X152090773Y-86807142D01*
X152090773Y-86911904D01*
X152038392Y-87069047D01*
X151409821Y-87697619D01*
X152090773Y-87697619D01*
X152771726Y-86597619D02*
X152876488Y-86597619D01*
X152981250Y-86650000D01*
X153033630Y-86702380D01*
X153086011Y-86807142D01*
X153138392Y-87016666D01*
X153138392Y-87278571D01*
X153086011Y-87488095D01*
X153033630Y-87592857D01*
X152981250Y-87645238D01*
X152876488Y-87697619D01*
X152771726Y-87697619D01*
X152666964Y-87645238D01*
X152614583Y-87592857D01*
X152562202Y-87488095D01*
X152509821Y-87278571D01*
X152509821Y-87016666D01*
X152562202Y-86807142D01*
X152614583Y-86702380D01*
X152666964Y-86650000D01*
X152771726Y-86597619D01*
X153557440Y-86702380D02*
X153609821Y-86650000D01*
X153714583Y-86597619D01*
X153976488Y-86597619D01*
X154081250Y-86650000D01*
X154133630Y-86702380D01*
X154186011Y-86807142D01*
X154186011Y-86911904D01*
X154133630Y-87069047D01*
X153505059Y-87697619D01*
X154186011Y-87697619D01*
X154605059Y-86702380D02*
X154657440Y-86650000D01*
X154762202Y-86597619D01*
X155024107Y-86597619D01*
X155128869Y-86650000D01*
X155181250Y-86702380D01*
X155233630Y-86807142D01*
X155233630Y-86911904D01*
X155181250Y-87069047D01*
X154552678Y-87697619D01*
X155233630Y-87697619D01*
D12*
%TO.C,J2*%
X144800028Y-74349909D02*
X144550028Y-74349909D01*
X144800028Y-72349909D02*
X144800028Y-74349909D01*
X144500028Y-72349909D02*
X144800028Y-72349909D01*
X158200028Y-74349909D02*
X158500028Y-74349909D01*
X158200028Y-72349909D02*
X158200028Y-74349909D01*
X158500028Y-72349909D02*
X158200028Y-72349909D01*
X158500028Y-72349909D02*
X158500028Y-67899909D01*
X158500028Y-74349909D02*
X158500028Y-72349909D01*
X158500028Y-80799909D02*
X158500028Y-74349909D01*
X144500028Y-80799909D02*
X158500028Y-80799909D01*
X144500028Y-72349909D02*
X144500028Y-80799909D01*
X144500028Y-67899909D02*
X144500028Y-72349909D01*
X158500028Y-67899909D02*
X144500028Y-67899909D01*
D13*
%TO.C,J1*%
X141177400Y-90222400D02*
X141177400Y-89022400D01*
X148987400Y-96022400D02*
X148987400Y-94282400D01*
X139687400Y-96022400D02*
X148987400Y-96022400D01*
X139687400Y-94282400D02*
X139687400Y-96022400D01*
X148987400Y-90222400D02*
X148987400Y-91562400D01*
X147497400Y-90222400D02*
X148987400Y-90222400D01*
X139687400Y-90222400D02*
X139687400Y-91562400D01*
X141177400Y-90222400D02*
X139687400Y-90222400D01*
%TO.C,J2*%
D10*
X142921309Y-73352380D02*
X142921309Y-74066666D01*
X142873690Y-74209523D01*
X142778452Y-74304761D01*
X142635595Y-74352380D01*
X142540357Y-74352380D01*
X143349880Y-73447619D02*
X143397500Y-73400000D01*
X143492738Y-73352380D01*
X143730833Y-73352380D01*
X143826071Y-73400000D01*
X143873690Y-73447619D01*
X143921309Y-73542857D01*
X143921309Y-73638095D01*
X143873690Y-73780952D01*
X143302261Y-74352380D01*
X143921309Y-74352380D01*
D14*
X149265145Y-79779366D02*
X149265145Y-80294139D01*
X149081297Y-79485209D02*
X148897450Y-80036752D01*
X149375453Y-80036752D01*
X149265145Y-79779366D02*
X149265145Y-80294139D01*
X149081297Y-79485209D02*
X148897450Y-80036752D01*
X149375453Y-80036752D01*
X153166680Y-79521979D02*
X153681453Y-79521979D01*
X153350528Y-80294139D01*
X153166680Y-79521979D02*
X153681453Y-79521979D01*
X153350528Y-80294139D01*
X152869450Y-74564518D02*
X152906219Y-74527749D01*
X152979758Y-74490979D01*
X153163606Y-74490979D01*
X153237145Y-74527749D01*
X153273914Y-74564518D01*
X153310684Y-74638057D01*
X153310684Y-74711596D01*
X153273914Y-74821905D01*
X152832680Y-75263139D01*
X153310684Y-75263139D01*
X156607914Y-75854979D02*
X156240219Y-75854979D01*
X156203450Y-76222674D01*
X156240219Y-76185905D01*
X156313758Y-76149135D01*
X156497606Y-76149135D01*
X156571145Y-76185905D01*
X156607914Y-76222674D01*
X156644684Y-76296213D01*
X156644684Y-76480061D01*
X156607914Y-76553600D01*
X156571145Y-76590369D01*
X156497606Y-76627139D01*
X156313758Y-76627139D01*
X156240219Y-76590369D01*
X156203450Y-76553600D01*
X146665145Y-78521979D02*
X146518067Y-78521979D01*
X146444528Y-78558749D01*
X146407758Y-78595518D01*
X146334219Y-78705827D01*
X146297450Y-78852905D01*
X146297450Y-79147061D01*
X146334219Y-79220600D01*
X146370989Y-79257369D01*
X146444528Y-79294139D01*
X146591606Y-79294139D01*
X146665145Y-79257369D01*
X146701914Y-79220600D01*
X146738684Y-79147061D01*
X146738684Y-78963213D01*
X146701914Y-78889674D01*
X146665145Y-78852905D01*
X146591606Y-78816135D01*
X146444528Y-78816135D01*
X146370989Y-78852905D01*
X146334219Y-78889674D01*
X146297450Y-78963213D01*
X150110684Y-75263139D02*
X149669450Y-75263139D01*
X149890067Y-75263139D02*
X149890067Y-74490979D01*
X149816528Y-74601288D01*
X149742989Y-74674827D01*
X149669450Y-74711596D01*
X146387680Y-75854979D02*
X146865684Y-75854979D01*
X146608297Y-76149135D01*
X146718606Y-76149135D01*
X146792145Y-76185905D01*
X146828914Y-76222674D01*
X146865684Y-76296213D01*
X146865684Y-76480061D01*
X146828914Y-76553600D01*
X146792145Y-76590369D01*
X146718606Y-76627139D01*
X146497989Y-76627139D01*
X146424450Y-76590369D01*
X146387680Y-76553600D01*
X156350528Y-78852905D02*
X156276989Y-78816135D01*
X156240219Y-78779366D01*
X156203450Y-78705827D01*
X156203450Y-78669057D01*
X156240219Y-78595518D01*
X156276989Y-78558749D01*
X156350528Y-78521979D01*
X156497606Y-78521979D01*
X156571145Y-78558749D01*
X156607914Y-78595518D01*
X156644684Y-78669057D01*
X156644684Y-78705827D01*
X156607914Y-78779366D01*
X156571145Y-78816135D01*
X156497606Y-78852905D01*
X156350528Y-78852905D01*
X156276989Y-78889674D01*
X156240219Y-78926444D01*
X156203450Y-78999983D01*
X156203450Y-79147061D01*
X156240219Y-79220600D01*
X156276989Y-79257369D01*
X156350528Y-79294139D01*
X156497606Y-79294139D01*
X156571145Y-79257369D01*
X156607914Y-79220600D01*
X156644684Y-79147061D01*
X156644684Y-78999983D01*
X156607914Y-78926444D01*
X156571145Y-78889674D01*
X156497606Y-78852905D01*
X156350528Y-78852905D02*
X156276989Y-78816135D01*
X156240219Y-78779366D01*
X156203450Y-78705827D01*
X156203450Y-78669057D01*
X156240219Y-78595518D01*
X156276989Y-78558749D01*
X156350528Y-78521979D01*
X156497606Y-78521979D01*
X156571145Y-78558749D01*
X156607914Y-78595518D01*
X156644684Y-78669057D01*
X156644684Y-78705827D01*
X156607914Y-78779366D01*
X156571145Y-78816135D01*
X156497606Y-78852905D01*
X156350528Y-78852905D01*
X156276989Y-78889674D01*
X156240219Y-78926444D01*
X156203450Y-78999983D01*
X156203450Y-79147061D01*
X156240219Y-79220600D01*
X156276989Y-79257369D01*
X156350528Y-79294139D01*
X156497606Y-79294139D01*
X156571145Y-79257369D01*
X156607914Y-79220600D01*
X156644684Y-79147061D01*
X156644684Y-78999983D01*
X156607914Y-78926444D01*
X156571145Y-78889674D01*
X156497606Y-78852905D01*
X146665145Y-78521979D02*
X146518067Y-78521979D01*
X146444528Y-78558749D01*
X146407758Y-78595518D01*
X146334219Y-78705827D01*
X146297450Y-78852905D01*
X146297450Y-79147061D01*
X146334219Y-79220600D01*
X146370989Y-79257369D01*
X146444528Y-79294139D01*
X146591606Y-79294139D01*
X146665145Y-79257369D01*
X146701914Y-79220600D01*
X146738684Y-79147061D01*
X146738684Y-78963213D01*
X146701914Y-78889674D01*
X146665145Y-78852905D01*
X146591606Y-78816135D01*
X146444528Y-78816135D01*
X146370989Y-78852905D01*
X146334219Y-78889674D01*
X146297450Y-78963213D01*
X156607914Y-75854979D02*
X156240219Y-75854979D01*
X156203450Y-76222674D01*
X156240219Y-76185905D01*
X156313758Y-76149135D01*
X156497606Y-76149135D01*
X156571145Y-76185905D01*
X156607914Y-76222674D01*
X156644684Y-76296213D01*
X156644684Y-76480061D01*
X156607914Y-76553600D01*
X156571145Y-76590369D01*
X156497606Y-76627139D01*
X156313758Y-76627139D01*
X156240219Y-76590369D01*
X156203450Y-76553600D01*
X146387680Y-75854979D02*
X146865684Y-75854979D01*
X146608297Y-76149135D01*
X146718606Y-76149135D01*
X146792145Y-76185905D01*
X146828914Y-76222674D01*
X146865684Y-76296213D01*
X146865684Y-76480061D01*
X146828914Y-76553600D01*
X146792145Y-76590369D01*
X146718606Y-76627139D01*
X146497989Y-76627139D01*
X146424450Y-76590369D01*
X146387680Y-76553600D01*
X152869450Y-74564518D02*
X152906219Y-74527749D01*
X152979758Y-74490979D01*
X153163606Y-74490979D01*
X153237145Y-74527749D01*
X153273914Y-74564518D01*
X153310684Y-74638057D01*
X153310684Y-74711596D01*
X153273914Y-74821905D01*
X152832680Y-75263139D01*
X153310684Y-75263139D01*
X150110684Y-75263139D02*
X149669450Y-75263139D01*
X149890067Y-75263139D02*
X149890067Y-74490979D01*
X149816528Y-74601288D01*
X149742989Y-74674827D01*
X149669450Y-74711596D01*
%TO.C,J1*%
D10*
X151166866Y-91914580D02*
X151166866Y-92628866D01*
X151119247Y-92771723D01*
X151024009Y-92866961D01*
X150881152Y-92914580D01*
X150785914Y-92914580D01*
X152166866Y-92914580D02*
X151595438Y-92914580D01*
X151881152Y-92914580D02*
X151881152Y-91914580D01*
X151785914Y-92057438D01*
X151690676Y-92152676D01*
X151595438Y-92200295D01*
%TD*%
M02*
