M48
; DRILL file {KiCad 5.1.10-88a1d61d58~89~ubuntu20.04.1} date Wed Oct  6 22:55:09 2021
; FORMAT={-:-/ absolute / metric / decimal}
; #@! TF.CreationDate,2021-10-06T22:55:09-05:00
; #@! TF.GenerationSoftware,Kicad,Pcbnew,5.1.10-88a1d61d58~89~ubuntu20.04.1
FMAT,2
METRIC
T1C0.900
T2C1.000
T3C2.250
T4C3.200
%
G90
G05
T1
X63.529Y-38.553
X63.529Y-41.053
X65.629Y-38.553
X65.629Y-41.053
X67.829Y-41.053
X68.229Y-38.553
X70.329Y-38.553
X70.329Y-41.053
T2
X61.849Y-46.228
X61.849Y-48.768
X64.389Y-46.228
X64.389Y-48.768
X66.929Y-46.228
X66.929Y-48.768
X69.469Y-46.228
X69.469Y-48.768
X72.009Y-46.228
X72.009Y-48.768
T3
X60.179Y-35.553
X66.929Y-34.753
X73.679Y-35.553
T4
X56.134Y-39.624
X77.724Y-39.624
T0
M30
