%TF.GenerationSoftware,KiCad,Pcbnew,5.1.10-88a1d61d58~89~ubuntu20.04.1*%
%TF.CreationDate,2021-10-06T22:55:05-05:00*%
%TF.ProjectId,portboard_ribbon,706f7274-626f-4617-9264-5f726962626f,rev?*%
%TF.SameCoordinates,Original*%
%TF.FileFunction,Copper,L2,Bot*%
%TF.FilePolarity,Positive*%
%FSLAX46Y46*%
G04 Gerber Fmt 4.6, Leading zero omitted, Abs format (unit mm)*
G04 Created by KiCad (PCBNEW 5.1.10-88a1d61d58~89~ubuntu20.04.1) date 2021-10-06 22:55:05*
%MOMM*%
%LPD*%
G01*
G04 APERTURE LIST*
%TA.AperFunction,ComponentPad*%
%ADD10C,1.422400*%
%TD*%
%TA.AperFunction,ComponentPad*%
%ADD11R,1.422400X1.422400*%
%TD*%
%TA.AperFunction,ComponentPad*%
%ADD12C,3.500000*%
%TD*%
%TA.AperFunction,ComponentPad*%
%ADD13O,1.700000X1.700000*%
%TD*%
%TA.AperFunction,ComponentPad*%
%ADD14R,1.700000X1.700000*%
%TD*%
%TA.AperFunction,ComponentPad*%
%ADD15C,6.400000*%
%TD*%
%TA.AperFunction,Conductor*%
%ADD16C,0.250000*%
%TD*%
%TA.AperFunction,Conductor*%
%ADD17C,0.254000*%
%TD*%
%TA.AperFunction,Conductor*%
%ADD18C,0.150000*%
%TD*%
G04 APERTURE END LIST*
D10*
%TO.P,J2,7*%
%TO.N,/GPi*%
X67829000Y-41053000D03*
%TO.P,J2,4*%
%TO.N,GND*%
X65629000Y-41053000D03*
%TO.P,J2,6*%
%TO.N,/TXD+*%
X63529000Y-41053000D03*
%TO.P,J2,8*%
%TO.N,/RXD+*%
X70329000Y-41053000D03*
%TO.P,J2,5*%
%TO.N,/RXD-*%
X70329000Y-38553000D03*
%TO.P,J2,3*%
%TO.N,/TXD-*%
X63529000Y-38553000D03*
D11*
%TO.P,J2,1*%
%TO.N,/HSKo*%
X65629000Y-38553000D03*
D10*
%TO.P,J2,2*%
%TO.N,/HSKi*%
X68229000Y-38553000D03*
D12*
%TO.P,J2,SH2*%
%TO.N,N/C*%
X66929000Y-34753000D03*
%TO.P,J2,SH3*%
X60179000Y-35553000D03*
%TO.P,J2,SH1*%
X73679000Y-35553000D03*
%TD*%
D13*
%TO.P,J1,10*%
%TO.N,+5V*%
X72009000Y-46228000D03*
%TO.P,J1,9*%
%TO.N,/GPi*%
X72009000Y-48768000D03*
%TO.P,J1,8*%
%TO.N,/HSKo*%
X69469000Y-46228000D03*
%TO.P,J1,7*%
%TO.N,/HSKi*%
X69469000Y-48768000D03*
%TO.P,J1,6*%
%TO.N,/RXD-*%
X66929000Y-46228000D03*
%TO.P,J1,5*%
%TO.N,/RXD+*%
X66929000Y-48768000D03*
%TO.P,J1,4*%
%TO.N,/TXD-*%
X64389000Y-46228000D03*
%TO.P,J1,3*%
%TO.N,/TXD+*%
X64389000Y-48768000D03*
%TO.P,J1,2*%
%TO.N,GND*%
X61849000Y-46228000D03*
D14*
%TO.P,J1,1*%
X61849000Y-48768000D03*
%TD*%
D15*
%TO.P,H2,1*%
%TO.N,N/C*%
X77724000Y-39624000D03*
%TD*%
%TO.P,H1,1*%
%TO.N,N/C*%
X56134000Y-39624000D03*
%TD*%
D16*
%TO.N,/HSKo*%
X66844000Y-37338000D02*
X65629000Y-38553000D01*
X70993000Y-37338000D02*
X66844000Y-37338000D01*
X71501000Y-37846000D02*
X70993000Y-37338000D01*
X71501000Y-44196000D02*
X71501000Y-37846000D01*
X69469000Y-46228000D02*
X71501000Y-44196000D01*
%TO.N,/RXD+*%
X69342000Y-42040000D02*
X70329000Y-41053000D01*
X68104001Y-45052999D02*
X69342000Y-43815000D01*
X69342000Y-43815000D02*
X69342000Y-42040000D01*
X68104001Y-47592999D02*
X68104001Y-45052999D01*
X66929000Y-48768000D02*
X68104001Y-47592999D01*
%TO.N,/TXD-*%
X62992000Y-39090000D02*
X63529000Y-38553000D01*
X62492799Y-40555623D02*
X62992000Y-40056422D01*
X62492799Y-41550377D02*
X62492799Y-40555623D01*
X62992000Y-44704000D02*
X62992000Y-42049578D01*
X62992000Y-42049578D02*
X62492799Y-41550377D01*
X64389000Y-46101000D02*
X62992000Y-44704000D01*
X62992000Y-40056422D02*
X62992000Y-39090000D01*
X64389000Y-46228000D02*
X64389000Y-46101000D01*
%TO.N,GND*%
X61849000Y-46228000D02*
X61849000Y-48768000D01*
X65151000Y-50292000D02*
X65629000Y-49814000D01*
X65629000Y-49814000D02*
X65629000Y-41053000D01*
X62611000Y-50292000D02*
X65151000Y-50292000D01*
X61849000Y-49530000D02*
X62611000Y-50292000D01*
X61849000Y-48768000D02*
X61849000Y-49530000D01*
X64565201Y-37288799D02*
X64487402Y-37211000D01*
X64565201Y-39890799D02*
X64565201Y-37288799D01*
X61849000Y-38100000D02*
X61849000Y-46228000D01*
X62738000Y-37211000D02*
X61849000Y-38100000D01*
X64487402Y-37211000D02*
X62738000Y-37211000D01*
X64516000Y-39940000D02*
X64565201Y-39890799D01*
X65629000Y-41053000D02*
X64516000Y-39940000D01*
%TD*%
D17*
%TO.N,GND*%
X75032001Y-33588631D02*
X74808721Y-33439440D01*
X74374679Y-33259654D01*
X73913902Y-33168000D01*
X73444098Y-33168000D01*
X72983321Y-33259654D01*
X72549279Y-33439440D01*
X72158651Y-33700450D01*
X71826450Y-34032651D01*
X71565440Y-34423279D01*
X71385654Y-34857321D01*
X71294000Y-35318098D01*
X71294000Y-35787902D01*
X71385654Y-36248679D01*
X71565440Y-36682721D01*
X71826450Y-37073349D01*
X72158651Y-37405550D01*
X72549279Y-37666560D01*
X72983321Y-37846346D01*
X73444098Y-37938000D01*
X73913902Y-37938000D01*
X74303489Y-37860507D01*
X74036377Y-38505372D01*
X73889000Y-39246285D01*
X73889000Y-40001715D01*
X74036377Y-40742628D01*
X74325467Y-41440554D01*
X74745161Y-42068670D01*
X75279330Y-42602839D01*
X75464384Y-42726488D01*
X75394575Y-42811550D01*
X75333290Y-42926207D01*
X75295550Y-43050617D01*
X75282807Y-43180000D01*
X75286000Y-43212418D01*
X75286001Y-50902000D01*
X58826000Y-50902000D01*
X58826000Y-49618000D01*
X60360928Y-49618000D01*
X60373188Y-49742482D01*
X60409498Y-49862180D01*
X60468463Y-49972494D01*
X60547815Y-50069185D01*
X60644506Y-50148537D01*
X60754820Y-50207502D01*
X60874518Y-50243812D01*
X60999000Y-50256072D01*
X61563250Y-50253000D01*
X61722000Y-50094250D01*
X61722000Y-48895000D01*
X60522750Y-48895000D01*
X60364000Y-49053750D01*
X60360928Y-49618000D01*
X58826000Y-49618000D01*
X58826000Y-47918000D01*
X60360928Y-47918000D01*
X60364000Y-48482250D01*
X60522750Y-48641000D01*
X61722000Y-48641000D01*
X61722000Y-46355000D01*
X60528186Y-46355000D01*
X60407519Y-46584891D01*
X60504843Y-46859252D01*
X60653822Y-47109355D01*
X60830626Y-47305502D01*
X60754820Y-47328498D01*
X60644506Y-47387463D01*
X60547815Y-47466815D01*
X60468463Y-47563506D01*
X60409498Y-47673820D01*
X60373188Y-47793518D01*
X60360928Y-47918000D01*
X58826000Y-47918000D01*
X58826000Y-45871109D01*
X60407519Y-45871109D01*
X60528186Y-46101000D01*
X61722000Y-46101000D01*
X61722000Y-44907845D01*
X61492110Y-44786524D01*
X61344901Y-44831175D01*
X61082080Y-44956359D01*
X60848731Y-45130412D01*
X60653822Y-45346645D01*
X60504843Y-45596748D01*
X60407519Y-45871109D01*
X58826000Y-45871109D01*
X58826000Y-43212418D01*
X58829193Y-43180000D01*
X58816450Y-43050617D01*
X58778710Y-42926207D01*
X58717425Y-42811550D01*
X58634948Y-42711052D01*
X58537010Y-42630676D01*
X58578670Y-42602839D01*
X59112839Y-42068670D01*
X59532533Y-41440554D01*
X59821623Y-40742628D01*
X59858820Y-40555623D01*
X61729123Y-40555623D01*
X61732800Y-40592955D01*
X61732799Y-41513054D01*
X61729123Y-41550377D01*
X61732799Y-41587699D01*
X61732799Y-41587709D01*
X61743796Y-41699362D01*
X61775133Y-41802668D01*
X61787253Y-41842623D01*
X61857825Y-41974653D01*
X61864079Y-41982273D01*
X61952798Y-42090378D01*
X61981802Y-42114181D01*
X62232001Y-42364380D01*
X62232000Y-44666677D01*
X62228324Y-44704000D01*
X62232000Y-44741322D01*
X62232000Y-44741332D01*
X62237392Y-44796079D01*
X62205890Y-44786524D01*
X61976000Y-44907845D01*
X61976000Y-46101000D01*
X61996000Y-46101000D01*
X61996000Y-46355000D01*
X61976000Y-46355000D01*
X61976000Y-48641000D01*
X61996000Y-48641000D01*
X61996000Y-48895000D01*
X61976000Y-48895000D01*
X61976000Y-50094250D01*
X62134750Y-50253000D01*
X62699000Y-50256072D01*
X62823482Y-50243812D01*
X62943180Y-50207502D01*
X63053494Y-50148537D01*
X63150185Y-50069185D01*
X63229537Y-49972494D01*
X63288502Y-49862180D01*
X63310513Y-49789620D01*
X63442368Y-49921475D01*
X63685589Y-50083990D01*
X63955842Y-50195932D01*
X64242740Y-50253000D01*
X64535260Y-50253000D01*
X64822158Y-50195932D01*
X65092411Y-50083990D01*
X65335632Y-49921475D01*
X65542475Y-49714632D01*
X65659000Y-49540240D01*
X65775525Y-49714632D01*
X65982368Y-49921475D01*
X66225589Y-50083990D01*
X66495842Y-50195932D01*
X66782740Y-50253000D01*
X67075260Y-50253000D01*
X67362158Y-50195932D01*
X67632411Y-50083990D01*
X67875632Y-49921475D01*
X68082475Y-49714632D01*
X68199000Y-49540240D01*
X68315525Y-49714632D01*
X68522368Y-49921475D01*
X68765589Y-50083990D01*
X69035842Y-50195932D01*
X69322740Y-50253000D01*
X69615260Y-50253000D01*
X69902158Y-50195932D01*
X70172411Y-50083990D01*
X70415632Y-49921475D01*
X70622475Y-49714632D01*
X70739000Y-49540240D01*
X70855525Y-49714632D01*
X71062368Y-49921475D01*
X71305589Y-50083990D01*
X71575842Y-50195932D01*
X71862740Y-50253000D01*
X72155260Y-50253000D01*
X72442158Y-50195932D01*
X72712411Y-50083990D01*
X72955632Y-49921475D01*
X73162475Y-49714632D01*
X73324990Y-49471411D01*
X73436932Y-49201158D01*
X73494000Y-48914260D01*
X73494000Y-48621740D01*
X73436932Y-48334842D01*
X73324990Y-48064589D01*
X73162475Y-47821368D01*
X72955632Y-47614525D01*
X72781240Y-47498000D01*
X72955632Y-47381475D01*
X73162475Y-47174632D01*
X73324990Y-46931411D01*
X73436932Y-46661158D01*
X73494000Y-46374260D01*
X73494000Y-46081740D01*
X73436932Y-45794842D01*
X73324990Y-45524589D01*
X73162475Y-45281368D01*
X72955632Y-45074525D01*
X72712411Y-44912010D01*
X72442158Y-44800068D01*
X72155260Y-44743000D01*
X72032473Y-44743000D01*
X72041001Y-44736001D01*
X72129042Y-44628723D01*
X72135974Y-44620277D01*
X72206546Y-44488247D01*
X72229749Y-44411754D01*
X72250003Y-44344986D01*
X72261000Y-44233333D01*
X72261000Y-44233323D01*
X72264676Y-44196000D01*
X72261000Y-44158677D01*
X72261000Y-37883322D01*
X72264676Y-37845999D01*
X72261000Y-37808676D01*
X72261000Y-37808667D01*
X72250003Y-37697014D01*
X72206546Y-37553753D01*
X72135974Y-37421724D01*
X72041001Y-37305999D01*
X72012002Y-37282200D01*
X71556803Y-36827002D01*
X71533001Y-36797999D01*
X71417276Y-36703026D01*
X71285247Y-36632454D01*
X71141986Y-36588997D01*
X71030333Y-36578000D01*
X71030322Y-36578000D01*
X70993000Y-36574324D01*
X70955678Y-36578000D01*
X68476899Y-36578000D01*
X68781550Y-36273349D01*
X69042560Y-35882721D01*
X69222346Y-35448679D01*
X69314000Y-34987902D01*
X69314000Y-34518098D01*
X69222346Y-34057321D01*
X69042560Y-33623279D01*
X68781550Y-33232651D01*
X68449349Y-32900450D01*
X68058721Y-32639440D01*
X67624679Y-32459654D01*
X67163902Y-32368000D01*
X66694098Y-32368000D01*
X66233321Y-32459654D01*
X65799279Y-32639440D01*
X65408651Y-32900450D01*
X65076450Y-33232651D01*
X64815440Y-33623279D01*
X64635654Y-34057321D01*
X64544000Y-34518098D01*
X64544000Y-34987902D01*
X64635654Y-35448679D01*
X64815440Y-35882721D01*
X65076450Y-36273349D01*
X65408651Y-36605550D01*
X65799279Y-36866560D01*
X66111367Y-36995831D01*
X65903470Y-37203728D01*
X64917800Y-37203728D01*
X64793318Y-37215988D01*
X64673620Y-37252298D01*
X64563306Y-37311263D01*
X64466615Y-37390615D01*
X64387263Y-37487306D01*
X64379344Y-37502120D01*
X64166665Y-37360013D01*
X63921672Y-37258533D01*
X63661589Y-37206800D01*
X63396411Y-37206800D01*
X63136328Y-37258533D01*
X62891335Y-37360013D01*
X62670847Y-37507338D01*
X62483338Y-37694847D01*
X62336013Y-37915335D01*
X62234533Y-38160328D01*
X62182800Y-38420411D01*
X62182800Y-38685589D01*
X62234533Y-38945672D01*
X62241001Y-38961288D01*
X62232001Y-39052667D01*
X62228324Y-39090000D01*
X62232001Y-39127332D01*
X62232000Y-39741621D01*
X61981797Y-39991824D01*
X61952799Y-40015622D01*
X61929001Y-40044620D01*
X61929000Y-40044621D01*
X61857825Y-40131347D01*
X61787253Y-40263377D01*
X61743797Y-40406638D01*
X61729123Y-40555623D01*
X59858820Y-40555623D01*
X59969000Y-40001715D01*
X59969000Y-39246285D01*
X59821623Y-38505372D01*
X59554511Y-37860507D01*
X59944098Y-37938000D01*
X60413902Y-37938000D01*
X60874679Y-37846346D01*
X61308721Y-37666560D01*
X61699349Y-37405550D01*
X62031550Y-37073349D01*
X62292560Y-36682721D01*
X62472346Y-36248679D01*
X62564000Y-35787902D01*
X62564000Y-35318098D01*
X62472346Y-34857321D01*
X62292560Y-34423279D01*
X62031550Y-34032651D01*
X61699349Y-33700450D01*
X61308721Y-33439440D01*
X60874679Y-33259654D01*
X60413902Y-33168000D01*
X59944098Y-33168000D01*
X59483321Y-33259654D01*
X59049279Y-33439440D01*
X58826000Y-33588631D01*
X58826000Y-30759000D01*
X75032000Y-30759000D01*
X75032001Y-33588631D01*
%TA.AperFunction,Conductor*%
D18*
G36*
X75032001Y-33588631D02*
G01*
X74808721Y-33439440D01*
X74374679Y-33259654D01*
X73913902Y-33168000D01*
X73444098Y-33168000D01*
X72983321Y-33259654D01*
X72549279Y-33439440D01*
X72158651Y-33700450D01*
X71826450Y-34032651D01*
X71565440Y-34423279D01*
X71385654Y-34857321D01*
X71294000Y-35318098D01*
X71294000Y-35787902D01*
X71385654Y-36248679D01*
X71565440Y-36682721D01*
X71826450Y-37073349D01*
X72158651Y-37405550D01*
X72549279Y-37666560D01*
X72983321Y-37846346D01*
X73444098Y-37938000D01*
X73913902Y-37938000D01*
X74303489Y-37860507D01*
X74036377Y-38505372D01*
X73889000Y-39246285D01*
X73889000Y-40001715D01*
X74036377Y-40742628D01*
X74325467Y-41440554D01*
X74745161Y-42068670D01*
X75279330Y-42602839D01*
X75464384Y-42726488D01*
X75394575Y-42811550D01*
X75333290Y-42926207D01*
X75295550Y-43050617D01*
X75282807Y-43180000D01*
X75286000Y-43212418D01*
X75286001Y-50902000D01*
X58826000Y-50902000D01*
X58826000Y-49618000D01*
X60360928Y-49618000D01*
X60373188Y-49742482D01*
X60409498Y-49862180D01*
X60468463Y-49972494D01*
X60547815Y-50069185D01*
X60644506Y-50148537D01*
X60754820Y-50207502D01*
X60874518Y-50243812D01*
X60999000Y-50256072D01*
X61563250Y-50253000D01*
X61722000Y-50094250D01*
X61722000Y-48895000D01*
X60522750Y-48895000D01*
X60364000Y-49053750D01*
X60360928Y-49618000D01*
X58826000Y-49618000D01*
X58826000Y-47918000D01*
X60360928Y-47918000D01*
X60364000Y-48482250D01*
X60522750Y-48641000D01*
X61722000Y-48641000D01*
X61722000Y-46355000D01*
X60528186Y-46355000D01*
X60407519Y-46584891D01*
X60504843Y-46859252D01*
X60653822Y-47109355D01*
X60830626Y-47305502D01*
X60754820Y-47328498D01*
X60644506Y-47387463D01*
X60547815Y-47466815D01*
X60468463Y-47563506D01*
X60409498Y-47673820D01*
X60373188Y-47793518D01*
X60360928Y-47918000D01*
X58826000Y-47918000D01*
X58826000Y-45871109D01*
X60407519Y-45871109D01*
X60528186Y-46101000D01*
X61722000Y-46101000D01*
X61722000Y-44907845D01*
X61492110Y-44786524D01*
X61344901Y-44831175D01*
X61082080Y-44956359D01*
X60848731Y-45130412D01*
X60653822Y-45346645D01*
X60504843Y-45596748D01*
X60407519Y-45871109D01*
X58826000Y-45871109D01*
X58826000Y-43212418D01*
X58829193Y-43180000D01*
X58816450Y-43050617D01*
X58778710Y-42926207D01*
X58717425Y-42811550D01*
X58634948Y-42711052D01*
X58537010Y-42630676D01*
X58578670Y-42602839D01*
X59112839Y-42068670D01*
X59532533Y-41440554D01*
X59821623Y-40742628D01*
X59858820Y-40555623D01*
X61729123Y-40555623D01*
X61732800Y-40592955D01*
X61732799Y-41513054D01*
X61729123Y-41550377D01*
X61732799Y-41587699D01*
X61732799Y-41587709D01*
X61743796Y-41699362D01*
X61775133Y-41802668D01*
X61787253Y-41842623D01*
X61857825Y-41974653D01*
X61864079Y-41982273D01*
X61952798Y-42090378D01*
X61981802Y-42114181D01*
X62232001Y-42364380D01*
X62232000Y-44666677D01*
X62228324Y-44704000D01*
X62232000Y-44741322D01*
X62232000Y-44741332D01*
X62237392Y-44796079D01*
X62205890Y-44786524D01*
X61976000Y-44907845D01*
X61976000Y-46101000D01*
X61996000Y-46101000D01*
X61996000Y-46355000D01*
X61976000Y-46355000D01*
X61976000Y-48641000D01*
X61996000Y-48641000D01*
X61996000Y-48895000D01*
X61976000Y-48895000D01*
X61976000Y-50094250D01*
X62134750Y-50253000D01*
X62699000Y-50256072D01*
X62823482Y-50243812D01*
X62943180Y-50207502D01*
X63053494Y-50148537D01*
X63150185Y-50069185D01*
X63229537Y-49972494D01*
X63288502Y-49862180D01*
X63310513Y-49789620D01*
X63442368Y-49921475D01*
X63685589Y-50083990D01*
X63955842Y-50195932D01*
X64242740Y-50253000D01*
X64535260Y-50253000D01*
X64822158Y-50195932D01*
X65092411Y-50083990D01*
X65335632Y-49921475D01*
X65542475Y-49714632D01*
X65659000Y-49540240D01*
X65775525Y-49714632D01*
X65982368Y-49921475D01*
X66225589Y-50083990D01*
X66495842Y-50195932D01*
X66782740Y-50253000D01*
X67075260Y-50253000D01*
X67362158Y-50195932D01*
X67632411Y-50083990D01*
X67875632Y-49921475D01*
X68082475Y-49714632D01*
X68199000Y-49540240D01*
X68315525Y-49714632D01*
X68522368Y-49921475D01*
X68765589Y-50083990D01*
X69035842Y-50195932D01*
X69322740Y-50253000D01*
X69615260Y-50253000D01*
X69902158Y-50195932D01*
X70172411Y-50083990D01*
X70415632Y-49921475D01*
X70622475Y-49714632D01*
X70739000Y-49540240D01*
X70855525Y-49714632D01*
X71062368Y-49921475D01*
X71305589Y-50083990D01*
X71575842Y-50195932D01*
X71862740Y-50253000D01*
X72155260Y-50253000D01*
X72442158Y-50195932D01*
X72712411Y-50083990D01*
X72955632Y-49921475D01*
X73162475Y-49714632D01*
X73324990Y-49471411D01*
X73436932Y-49201158D01*
X73494000Y-48914260D01*
X73494000Y-48621740D01*
X73436932Y-48334842D01*
X73324990Y-48064589D01*
X73162475Y-47821368D01*
X72955632Y-47614525D01*
X72781240Y-47498000D01*
X72955632Y-47381475D01*
X73162475Y-47174632D01*
X73324990Y-46931411D01*
X73436932Y-46661158D01*
X73494000Y-46374260D01*
X73494000Y-46081740D01*
X73436932Y-45794842D01*
X73324990Y-45524589D01*
X73162475Y-45281368D01*
X72955632Y-45074525D01*
X72712411Y-44912010D01*
X72442158Y-44800068D01*
X72155260Y-44743000D01*
X72032473Y-44743000D01*
X72041001Y-44736001D01*
X72129042Y-44628723D01*
X72135974Y-44620277D01*
X72206546Y-44488247D01*
X72229749Y-44411754D01*
X72250003Y-44344986D01*
X72261000Y-44233333D01*
X72261000Y-44233323D01*
X72264676Y-44196000D01*
X72261000Y-44158677D01*
X72261000Y-37883322D01*
X72264676Y-37845999D01*
X72261000Y-37808676D01*
X72261000Y-37808667D01*
X72250003Y-37697014D01*
X72206546Y-37553753D01*
X72135974Y-37421724D01*
X72041001Y-37305999D01*
X72012002Y-37282200D01*
X71556803Y-36827002D01*
X71533001Y-36797999D01*
X71417276Y-36703026D01*
X71285247Y-36632454D01*
X71141986Y-36588997D01*
X71030333Y-36578000D01*
X71030322Y-36578000D01*
X70993000Y-36574324D01*
X70955678Y-36578000D01*
X68476899Y-36578000D01*
X68781550Y-36273349D01*
X69042560Y-35882721D01*
X69222346Y-35448679D01*
X69314000Y-34987902D01*
X69314000Y-34518098D01*
X69222346Y-34057321D01*
X69042560Y-33623279D01*
X68781550Y-33232651D01*
X68449349Y-32900450D01*
X68058721Y-32639440D01*
X67624679Y-32459654D01*
X67163902Y-32368000D01*
X66694098Y-32368000D01*
X66233321Y-32459654D01*
X65799279Y-32639440D01*
X65408651Y-32900450D01*
X65076450Y-33232651D01*
X64815440Y-33623279D01*
X64635654Y-34057321D01*
X64544000Y-34518098D01*
X64544000Y-34987902D01*
X64635654Y-35448679D01*
X64815440Y-35882721D01*
X65076450Y-36273349D01*
X65408651Y-36605550D01*
X65799279Y-36866560D01*
X66111367Y-36995831D01*
X65903470Y-37203728D01*
X64917800Y-37203728D01*
X64793318Y-37215988D01*
X64673620Y-37252298D01*
X64563306Y-37311263D01*
X64466615Y-37390615D01*
X64387263Y-37487306D01*
X64379344Y-37502120D01*
X64166665Y-37360013D01*
X63921672Y-37258533D01*
X63661589Y-37206800D01*
X63396411Y-37206800D01*
X63136328Y-37258533D01*
X62891335Y-37360013D01*
X62670847Y-37507338D01*
X62483338Y-37694847D01*
X62336013Y-37915335D01*
X62234533Y-38160328D01*
X62182800Y-38420411D01*
X62182800Y-38685589D01*
X62234533Y-38945672D01*
X62241001Y-38961288D01*
X62232001Y-39052667D01*
X62228324Y-39090000D01*
X62232001Y-39127332D01*
X62232000Y-39741621D01*
X61981797Y-39991824D01*
X61952799Y-40015622D01*
X61929001Y-40044620D01*
X61929000Y-40044621D01*
X61857825Y-40131347D01*
X61787253Y-40263377D01*
X61743797Y-40406638D01*
X61729123Y-40555623D01*
X59858820Y-40555623D01*
X59969000Y-40001715D01*
X59969000Y-39246285D01*
X59821623Y-38505372D01*
X59554511Y-37860507D01*
X59944098Y-37938000D01*
X60413902Y-37938000D01*
X60874679Y-37846346D01*
X61308721Y-37666560D01*
X61699349Y-37405550D01*
X62031550Y-37073349D01*
X62292560Y-36682721D01*
X62472346Y-36248679D01*
X62564000Y-35787902D01*
X62564000Y-35318098D01*
X62472346Y-34857321D01*
X62292560Y-34423279D01*
X62031550Y-34032651D01*
X61699349Y-33700450D01*
X61308721Y-33439440D01*
X60874679Y-33259654D01*
X60413902Y-33168000D01*
X59944098Y-33168000D01*
X59483321Y-33259654D01*
X59049279Y-33439440D01*
X58826000Y-33588631D01*
X58826000Y-30759000D01*
X75032000Y-30759000D01*
X75032001Y-33588631D01*
G37*
%TD.AperFunction*%
D17*
X67036013Y-39190665D02*
X67183338Y-39411153D01*
X67370847Y-39598662D01*
X67570246Y-39731896D01*
X67436328Y-39758533D01*
X67191335Y-39860013D01*
X66970847Y-40007338D01*
X66783338Y-40194847D01*
X66688348Y-40337009D01*
X66558273Y-40303332D01*
X65808605Y-41053000D01*
X66558273Y-41802668D01*
X66688348Y-41768991D01*
X66783338Y-41911153D01*
X66970847Y-42098662D01*
X67191335Y-42245987D01*
X67436328Y-42347467D01*
X67696411Y-42399200D01*
X67961589Y-42399200D01*
X68221672Y-42347467D01*
X68466665Y-42245987D01*
X68582001Y-42168922D01*
X68582000Y-43500198D01*
X67592999Y-44489200D01*
X67564001Y-44512998D01*
X67540203Y-44541996D01*
X67540202Y-44541997D01*
X67469027Y-44628723D01*
X67398455Y-44760753D01*
X67383809Y-44809036D01*
X67362158Y-44800068D01*
X67075260Y-44743000D01*
X66782740Y-44743000D01*
X66495842Y-44800068D01*
X66225589Y-44912010D01*
X65982368Y-45074525D01*
X65775525Y-45281368D01*
X65659000Y-45455760D01*
X65542475Y-45281368D01*
X65335632Y-45074525D01*
X65092411Y-44912010D01*
X64822158Y-44800068D01*
X64535260Y-44743000D01*
X64242740Y-44743000D01*
X64128521Y-44765720D01*
X63752000Y-44389199D01*
X63752000Y-42381216D01*
X63921672Y-42347467D01*
X64166665Y-42245987D01*
X64387153Y-42098662D01*
X64503542Y-41982273D01*
X64879332Y-41982273D01*
X64940152Y-42217183D01*
X65180509Y-42329202D01*
X65438102Y-42392176D01*
X65703030Y-42403687D01*
X65965113Y-42363291D01*
X66214280Y-42272542D01*
X66317848Y-42217183D01*
X66378668Y-41982273D01*
X65629000Y-41232605D01*
X64879332Y-41982273D01*
X64503542Y-41982273D01*
X64574662Y-41911153D01*
X64654903Y-41791063D01*
X64699727Y-41802668D01*
X65449395Y-41053000D01*
X64699727Y-40303332D01*
X64654903Y-40314937D01*
X64574662Y-40194847D01*
X64387153Y-40007338D01*
X64166665Y-39860013D01*
X64029024Y-39803000D01*
X64166665Y-39745987D01*
X64379344Y-39603880D01*
X64387263Y-39618694D01*
X64466615Y-39715385D01*
X64563306Y-39794737D01*
X64673620Y-39853702D01*
X64793318Y-39890012D01*
X64917800Y-39902272D01*
X64936668Y-39902272D01*
X64879332Y-40123727D01*
X65629000Y-40873395D01*
X66378668Y-40123727D01*
X66321332Y-39902272D01*
X66340200Y-39902272D01*
X66464682Y-39890012D01*
X66584380Y-39853702D01*
X66694694Y-39794737D01*
X66791385Y-39715385D01*
X66870737Y-39618694D01*
X66929702Y-39508380D01*
X66966012Y-39388682D01*
X66978272Y-39264200D01*
X66978272Y-39051267D01*
X67036013Y-39190665D01*
%TA.AperFunction,Conductor*%
D18*
G36*
X67036013Y-39190665D02*
G01*
X67183338Y-39411153D01*
X67370847Y-39598662D01*
X67570246Y-39731896D01*
X67436328Y-39758533D01*
X67191335Y-39860013D01*
X66970847Y-40007338D01*
X66783338Y-40194847D01*
X66688348Y-40337009D01*
X66558273Y-40303332D01*
X65808605Y-41053000D01*
X66558273Y-41802668D01*
X66688348Y-41768991D01*
X66783338Y-41911153D01*
X66970847Y-42098662D01*
X67191335Y-42245987D01*
X67436328Y-42347467D01*
X67696411Y-42399200D01*
X67961589Y-42399200D01*
X68221672Y-42347467D01*
X68466665Y-42245987D01*
X68582001Y-42168922D01*
X68582000Y-43500198D01*
X67592999Y-44489200D01*
X67564001Y-44512998D01*
X67540203Y-44541996D01*
X67540202Y-44541997D01*
X67469027Y-44628723D01*
X67398455Y-44760753D01*
X67383809Y-44809036D01*
X67362158Y-44800068D01*
X67075260Y-44743000D01*
X66782740Y-44743000D01*
X66495842Y-44800068D01*
X66225589Y-44912010D01*
X65982368Y-45074525D01*
X65775525Y-45281368D01*
X65659000Y-45455760D01*
X65542475Y-45281368D01*
X65335632Y-45074525D01*
X65092411Y-44912010D01*
X64822158Y-44800068D01*
X64535260Y-44743000D01*
X64242740Y-44743000D01*
X64128521Y-44765720D01*
X63752000Y-44389199D01*
X63752000Y-42381216D01*
X63921672Y-42347467D01*
X64166665Y-42245987D01*
X64387153Y-42098662D01*
X64503542Y-41982273D01*
X64879332Y-41982273D01*
X64940152Y-42217183D01*
X65180509Y-42329202D01*
X65438102Y-42392176D01*
X65703030Y-42403687D01*
X65965113Y-42363291D01*
X66214280Y-42272542D01*
X66317848Y-42217183D01*
X66378668Y-41982273D01*
X65629000Y-41232605D01*
X64879332Y-41982273D01*
X64503542Y-41982273D01*
X64574662Y-41911153D01*
X64654903Y-41791063D01*
X64699727Y-41802668D01*
X65449395Y-41053000D01*
X64699727Y-40303332D01*
X64654903Y-40314937D01*
X64574662Y-40194847D01*
X64387153Y-40007338D01*
X64166665Y-39860013D01*
X64029024Y-39803000D01*
X64166665Y-39745987D01*
X64379344Y-39603880D01*
X64387263Y-39618694D01*
X64466615Y-39715385D01*
X64563306Y-39794737D01*
X64673620Y-39853702D01*
X64793318Y-39890012D01*
X64917800Y-39902272D01*
X64936668Y-39902272D01*
X64879332Y-40123727D01*
X65629000Y-40873395D01*
X66378668Y-40123727D01*
X66321332Y-39902272D01*
X66340200Y-39902272D01*
X66464682Y-39890012D01*
X66584380Y-39853702D01*
X66694694Y-39794737D01*
X66791385Y-39715385D01*
X66870737Y-39618694D01*
X66929702Y-39508380D01*
X66966012Y-39388682D01*
X66978272Y-39264200D01*
X66978272Y-39051267D01*
X67036013Y-39190665D01*
G37*
%TD.AperFunction*%
%TD*%
M02*
