%TF.GenerationSoftware,KiCad,Pcbnew,5.1.12-84ad8e8a86~92~ubuntu20.04.1*%
%TF.CreationDate,2021-12-06T23:40:28-06:00*%
%TF.ProjectId,portboard_dt,706f7274-626f-4617-9264-5f64742e6b69,rev?*%
%TF.SameCoordinates,Original*%
%TF.FileFunction,Copper,L2,Bot*%
%TF.FilePolarity,Positive*%
%FSLAX46Y46*%
G04 Gerber Fmt 4.6, Leading zero omitted, Abs format (unit mm)*
G04 Created by KiCad (PCBNEW 5.1.12-84ad8e8a86~92~ubuntu20.04.1) date 2021-12-06 23:40:28*
%MOMM*%
%LPD*%
G01*
G04 APERTURE LIST*
%TA.AperFunction,ComponentPad*%
%ADD10C,3.500000*%
%TD*%
%TA.AperFunction,ComponentPad*%
%ADD11C,1.422400*%
%TD*%
%TA.AperFunction,ComponentPad*%
%ADD12R,1.422400X1.422400*%
%TD*%
%TA.AperFunction,ComponentPad*%
%ADD13C,4.400000*%
%TD*%
%TA.AperFunction,ViaPad*%
%ADD14C,0.800000*%
%TD*%
%TA.AperFunction,Conductor*%
%ADD15C,0.250000*%
%TD*%
%TA.AperFunction,Conductor*%
%ADD16C,0.200000*%
%TD*%
%TA.AperFunction,Conductor*%
%ADD17C,0.254000*%
%TD*%
%TA.AperFunction,Conductor*%
%ADD18C,0.150000*%
%TD*%
G04 APERTURE END LIST*
D10*
%TO.P,J2,SH2*%
%TO.N,N/C*%
X115874800Y-70104000D03*
D11*
%TO.P,J2,2*%
%TO.N,/HSKi*%
X117174800Y-73904000D03*
D12*
%TO.P,J2,1*%
%TO.N,/HSKo*%
X114574800Y-73904000D03*
D11*
%TO.P,J2,3*%
%TO.N,/TXD-*%
X112474800Y-73904000D03*
%TO.P,J2,5*%
%TO.N,/RXD-*%
X119274800Y-73904000D03*
%TO.P,J2,8*%
%TO.N,/RXD+*%
X119274800Y-76404000D03*
%TO.P,J2,6*%
%TO.N,/TXD+*%
X112474800Y-76404000D03*
%TO.P,J2,4*%
%TO.N,GND*%
X114574800Y-76404000D03*
%TO.P,J2,7*%
%TO.N,/GPi*%
X116774800Y-76404000D03*
%TD*%
D13*
%TO.P,H2,1*%
%TO.N,N/C*%
X121477900Y-82261400D03*
%TD*%
%TO.P,H1,1*%
%TO.N,N/C*%
X106977920Y-78501400D03*
%TD*%
D14*
%TO.N,GND*%
X110337600Y-92684600D03*
X106883200Y-92710000D03*
X108127800Y-91211400D03*
%TO.N,/HSKo*%
X115214400Y-84988400D03*
%TO.N,/HSKi*%
X117246400Y-81254600D03*
%TO.N,/TXD-*%
X108839000Y-85174600D03*
%TO.N,/TXD+*%
X108839000Y-86224600D03*
%TO.N,/GPi*%
X115798600Y-80594200D03*
%TD*%
D15*
%TO.N,GND*%
X114574800Y-76404000D02*
X112903000Y-78075800D01*
X112903000Y-78075800D02*
X112903000Y-89077800D01*
X110337600Y-91643200D02*
X110337600Y-92684600D01*
X112903000Y-89077800D02*
X110337600Y-91643200D01*
X106883200Y-92456000D02*
X108127800Y-91211400D01*
X106883200Y-92710000D02*
X106883200Y-92456000D01*
%TO.N,/HSKo*%
X114477800Y-79019400D02*
X115671600Y-77825600D01*
X114477800Y-81305400D02*
X114477800Y-79019400D01*
X115214400Y-82042000D02*
X114477800Y-81305400D01*
X115671600Y-75000800D02*
X114574800Y-73904000D01*
X115671600Y-77825600D02*
X115671600Y-75000800D01*
X115214400Y-84988400D02*
X115214400Y-82042000D01*
%TO.N,/HSKi*%
X118008400Y-74737600D02*
X117174800Y-73904000D01*
X118008400Y-80492600D02*
X118008400Y-74737600D01*
X117246400Y-81254600D02*
X118008400Y-80492600D01*
D16*
%TO.N,/TXD-*%
X109139000Y-85474600D02*
X108839000Y-85174600D01*
X109457000Y-85474600D02*
X109139000Y-85474600D01*
X110773000Y-84158600D02*
X109457000Y-85474600D01*
X109884000Y-75751200D02*
X109884000Y-77436200D01*
X110773000Y-78325200D02*
X110773000Y-84158600D01*
X109884000Y-77436200D02*
X110773000Y-78325200D01*
X112474800Y-73904000D02*
X111449800Y-74929000D01*
X111449800Y-74929000D02*
X110706200Y-74929000D01*
X110706200Y-74929000D02*
X109884000Y-75751200D01*
%TO.N,/TXD+*%
X112474800Y-76404000D02*
X111449800Y-75379000D01*
X111223000Y-78138800D02*
X111223000Y-84345000D01*
X111449800Y-75379000D02*
X110892600Y-75379000D01*
X109139000Y-85924600D02*
X108839000Y-86224600D01*
X110892600Y-75379000D02*
X110334000Y-75937600D01*
X110334000Y-75937600D02*
X110334000Y-77249800D01*
X111223000Y-84345000D02*
X109643400Y-85924600D01*
X110334000Y-77249800D02*
X111223000Y-78138800D01*
X109643400Y-85924600D02*
X109139000Y-85924600D01*
D15*
%TO.N,/GPi*%
X116774800Y-77865400D02*
X116774800Y-76404000D01*
X115798600Y-78841600D02*
X116774800Y-77865400D01*
X115798600Y-80594200D02*
X115798600Y-78841600D01*
%TD*%
D17*
%TO.N,GND*%
X114745079Y-67990440D02*
X114354451Y-68251450D01*
X114022250Y-68583651D01*
X113761240Y-68974279D01*
X113581454Y-69408321D01*
X113489800Y-69869098D01*
X113489800Y-70338902D01*
X113581454Y-70799679D01*
X113761240Y-71233721D01*
X114022250Y-71624349D01*
X114354451Y-71956550D01*
X114745079Y-72217560D01*
X115179121Y-72397346D01*
X115639898Y-72489000D01*
X116109702Y-72489000D01*
X116570479Y-72397346D01*
X117004521Y-72217560D01*
X117395149Y-71956550D01*
X117727350Y-71624349D01*
X117988360Y-71233721D01*
X118168146Y-70799679D01*
X118259800Y-70338902D01*
X118259800Y-69869098D01*
X118168146Y-69408321D01*
X117988360Y-68974279D01*
X117727350Y-68583651D01*
X117395149Y-68251450D01*
X117004521Y-67990440D01*
X116632635Y-67836400D01*
X123292900Y-67836400D01*
X123292901Y-80067106D01*
X123285107Y-80059312D01*
X122820776Y-79749056D01*
X122304839Y-79535348D01*
X121757123Y-79426400D01*
X121198677Y-79426400D01*
X120650961Y-79535348D01*
X120135024Y-79749056D01*
X119670693Y-80059312D01*
X119275812Y-80454193D01*
X118965556Y-80918524D01*
X118751848Y-81434461D01*
X118642900Y-81982177D01*
X118642900Y-82540623D01*
X118751848Y-83088339D01*
X118965556Y-83604276D01*
X119275812Y-84068607D01*
X119670693Y-84463488D01*
X120135024Y-84773744D01*
X120650961Y-84987452D01*
X121198677Y-85096400D01*
X121757123Y-85096400D01*
X122251615Y-84998039D01*
X113245648Y-97716410D01*
X103881572Y-97716410D01*
X97712152Y-87918625D01*
X103118712Y-78222177D01*
X104142920Y-78222177D01*
X104142920Y-78780623D01*
X104251868Y-79328339D01*
X104465576Y-79844276D01*
X104775832Y-80308607D01*
X105170713Y-80703488D01*
X105635044Y-81013744D01*
X106150981Y-81227452D01*
X106698697Y-81336400D01*
X107257143Y-81336400D01*
X107804859Y-81227452D01*
X108320796Y-81013744D01*
X108785127Y-80703488D01*
X109180008Y-80308607D01*
X109490264Y-79844276D01*
X109703972Y-79328339D01*
X109812920Y-78780623D01*
X109812920Y-78404567D01*
X110038000Y-78629647D01*
X110038001Y-83854152D01*
X109510132Y-84382021D01*
X109498774Y-84370663D01*
X109329256Y-84257395D01*
X109140898Y-84179374D01*
X108940939Y-84139600D01*
X108737061Y-84139600D01*
X108537102Y-84179374D01*
X108348744Y-84257395D01*
X108179226Y-84370663D01*
X108035063Y-84514826D01*
X107921795Y-84684344D01*
X107843774Y-84872702D01*
X107804000Y-85072661D01*
X107804000Y-85276539D01*
X107843774Y-85476498D01*
X107921795Y-85664856D01*
X107945010Y-85699600D01*
X107921795Y-85734344D01*
X107843774Y-85922702D01*
X107804000Y-86122661D01*
X107804000Y-86326539D01*
X107843774Y-86526498D01*
X107921795Y-86714856D01*
X108035063Y-86884374D01*
X108179226Y-87028537D01*
X108348744Y-87141805D01*
X108537102Y-87219826D01*
X108737061Y-87259600D01*
X108940939Y-87259600D01*
X109140898Y-87219826D01*
X109329256Y-87141805D01*
X109498774Y-87028537D01*
X109642937Y-86884374D01*
X109756205Y-86714856D01*
X109783329Y-86649374D01*
X109787485Y-86648965D01*
X109926033Y-86606937D01*
X110053720Y-86538687D01*
X110165638Y-86446838D01*
X110188658Y-86418788D01*
X111717193Y-84890254D01*
X111745238Y-84867238D01*
X111837087Y-84755320D01*
X111839805Y-84750235D01*
X111905337Y-84627634D01*
X111947365Y-84489085D01*
X111961556Y-84345000D01*
X111958000Y-84308895D01*
X111958000Y-78174905D01*
X111961556Y-78138800D01*
X111947365Y-77994715D01*
X111941131Y-77974165D01*
X111905337Y-77856167D01*
X111837087Y-77728480D01*
X111780984Y-77660119D01*
X111768253Y-77644606D01*
X111768250Y-77644603D01*
X111745237Y-77616562D01*
X111717197Y-77593550D01*
X111069000Y-76945354D01*
X111069000Y-76242046D01*
X111150690Y-76160357D01*
X111128600Y-76271411D01*
X111128600Y-76536589D01*
X111180333Y-76796672D01*
X111281813Y-77041665D01*
X111429138Y-77262153D01*
X111616647Y-77449662D01*
X111837135Y-77596987D01*
X112082128Y-77698467D01*
X112342211Y-77750200D01*
X112607389Y-77750200D01*
X112867472Y-77698467D01*
X113112465Y-77596987D01*
X113332953Y-77449662D01*
X113520462Y-77262153D01*
X113600703Y-77142063D01*
X113645527Y-77153668D01*
X114395195Y-76404000D01*
X113645527Y-75654332D01*
X113600703Y-75665937D01*
X113520462Y-75545847D01*
X113332953Y-75358338D01*
X113112465Y-75211013D01*
X112974824Y-75154000D01*
X113112465Y-75096987D01*
X113325144Y-74954880D01*
X113333063Y-74969694D01*
X113412415Y-75066385D01*
X113509106Y-75145737D01*
X113619420Y-75204702D01*
X113739118Y-75241012D01*
X113863600Y-75253272D01*
X113882468Y-75253272D01*
X113825132Y-75474727D01*
X114574800Y-76224395D01*
X114588943Y-76210253D01*
X114768548Y-76389858D01*
X114754405Y-76404000D01*
X114768548Y-76418143D01*
X114588943Y-76597748D01*
X114574800Y-76583605D01*
X113825132Y-77333273D01*
X113885952Y-77568183D01*
X114126309Y-77680202D01*
X114383902Y-77743176D01*
X114648830Y-77754687D01*
X114671152Y-77751246D01*
X113966798Y-78455601D01*
X113937800Y-78479399D01*
X113914002Y-78508397D01*
X113914001Y-78508398D01*
X113842826Y-78595124D01*
X113772254Y-78727154D01*
X113764449Y-78752886D01*
X113737539Y-78841600D01*
X113728798Y-78870415D01*
X113714124Y-79019400D01*
X113717801Y-79056732D01*
X113717800Y-81268077D01*
X113714124Y-81305400D01*
X113717800Y-81342722D01*
X113717800Y-81342732D01*
X113728797Y-81454385D01*
X113759772Y-81556498D01*
X113772254Y-81597646D01*
X113842826Y-81729676D01*
X113859303Y-81749753D01*
X113937799Y-81845401D01*
X113966802Y-81869203D01*
X114454401Y-82356803D01*
X114454400Y-84284689D01*
X114410463Y-84328626D01*
X114297195Y-84498144D01*
X114219174Y-84686502D01*
X114179400Y-84886461D01*
X114179400Y-85090339D01*
X114219174Y-85290298D01*
X114297195Y-85478656D01*
X114410463Y-85648174D01*
X114554626Y-85792337D01*
X114724144Y-85905605D01*
X114912502Y-85983626D01*
X115112461Y-86023400D01*
X115316339Y-86023400D01*
X115516298Y-85983626D01*
X115704656Y-85905605D01*
X115874174Y-85792337D01*
X116018337Y-85648174D01*
X116131605Y-85478656D01*
X116209626Y-85290298D01*
X116249400Y-85090339D01*
X116249400Y-84886461D01*
X116209626Y-84686502D01*
X116131605Y-84498144D01*
X116018337Y-84328626D01*
X115974400Y-84284689D01*
X115974400Y-82079325D01*
X115978076Y-82042000D01*
X115974400Y-82004675D01*
X115974400Y-82004667D01*
X115963403Y-81893014D01*
X115919946Y-81749753D01*
X115855508Y-81629200D01*
X115900539Y-81629200D01*
X116100498Y-81589426D01*
X116245756Y-81529258D01*
X116251174Y-81556498D01*
X116329195Y-81744856D01*
X116442463Y-81914374D01*
X116586626Y-82058537D01*
X116756144Y-82171805D01*
X116944502Y-82249826D01*
X117144461Y-82289600D01*
X117348339Y-82289600D01*
X117548298Y-82249826D01*
X117736656Y-82171805D01*
X117906174Y-82058537D01*
X118050337Y-81914374D01*
X118163605Y-81744856D01*
X118241626Y-81556498D01*
X118281400Y-81356539D01*
X118281400Y-81294402D01*
X118519404Y-81056398D01*
X118548401Y-81032601D01*
X118643374Y-80916876D01*
X118713946Y-80784847D01*
X118757403Y-80641586D01*
X118768400Y-80529933D01*
X118768400Y-80529925D01*
X118772076Y-80492600D01*
X118768400Y-80455275D01*
X118768400Y-77651359D01*
X118882128Y-77698467D01*
X119142211Y-77750200D01*
X119407389Y-77750200D01*
X119667472Y-77698467D01*
X119912465Y-77596987D01*
X120132953Y-77449662D01*
X120320462Y-77262153D01*
X120467787Y-77041665D01*
X120569267Y-76796672D01*
X120621000Y-76536589D01*
X120621000Y-76271411D01*
X120569267Y-76011328D01*
X120467787Y-75766335D01*
X120320462Y-75545847D01*
X120132953Y-75358338D01*
X119912465Y-75211013D01*
X119774824Y-75154000D01*
X119912465Y-75096987D01*
X120132953Y-74949662D01*
X120320462Y-74762153D01*
X120467787Y-74541665D01*
X120569267Y-74296672D01*
X120621000Y-74036589D01*
X120621000Y-73771411D01*
X120569267Y-73511328D01*
X120467787Y-73266335D01*
X120320462Y-73045847D01*
X120132953Y-72858338D01*
X119912465Y-72711013D01*
X119667472Y-72609533D01*
X119407389Y-72557800D01*
X119142211Y-72557800D01*
X118882128Y-72609533D01*
X118637135Y-72711013D01*
X118416647Y-72858338D01*
X118229138Y-73045847D01*
X118224800Y-73052339D01*
X118220462Y-73045847D01*
X118032953Y-72858338D01*
X117812465Y-72711013D01*
X117567472Y-72609533D01*
X117307389Y-72557800D01*
X117042211Y-72557800D01*
X116782128Y-72609533D01*
X116537135Y-72711013D01*
X116316647Y-72858338D01*
X116129138Y-73045847D01*
X115981813Y-73266335D01*
X115924072Y-73405733D01*
X115924072Y-73192800D01*
X115911812Y-73068318D01*
X115875502Y-72948620D01*
X115816537Y-72838306D01*
X115737185Y-72741615D01*
X115640494Y-72662263D01*
X115530180Y-72603298D01*
X115410482Y-72566988D01*
X115286000Y-72554728D01*
X113863600Y-72554728D01*
X113739118Y-72566988D01*
X113619420Y-72603298D01*
X113509106Y-72662263D01*
X113412415Y-72741615D01*
X113333063Y-72838306D01*
X113325144Y-72853120D01*
X113112465Y-72711013D01*
X112867472Y-72609533D01*
X112607389Y-72557800D01*
X112342211Y-72557800D01*
X112082128Y-72609533D01*
X111837135Y-72711013D01*
X111616647Y-72858338D01*
X111429138Y-73045847D01*
X111281813Y-73266335D01*
X111180333Y-73511328D01*
X111128600Y-73771411D01*
X111128600Y-74036589D01*
X111157495Y-74181858D01*
X111145354Y-74194000D01*
X110742294Y-74194000D01*
X110706199Y-74190445D01*
X110670104Y-74194000D01*
X110670095Y-74194000D01*
X110562115Y-74204635D01*
X110423567Y-74246663D01*
X110295880Y-74314913D01*
X110183962Y-74406762D01*
X110160946Y-74434807D01*
X109389808Y-75205946D01*
X109361762Y-75228963D01*
X109269913Y-75340881D01*
X109201663Y-75468568D01*
X109183853Y-75527280D01*
X109159635Y-75607115D01*
X109145444Y-75751200D01*
X109149000Y-75787305D01*
X109149001Y-76663186D01*
X108785127Y-76299312D01*
X108320796Y-75989056D01*
X107804859Y-75775348D01*
X107257143Y-75666400D01*
X106698697Y-75666400D01*
X106150981Y-75775348D01*
X105635044Y-75989056D01*
X105170713Y-76299312D01*
X104775832Y-76694193D01*
X104465576Y-77158524D01*
X104251868Y-77674461D01*
X104142920Y-78222177D01*
X103118712Y-78222177D01*
X108909631Y-67836400D01*
X115116965Y-67836400D01*
X114745079Y-67990440D01*
%TA.AperFunction,Conductor*%
D18*
G36*
X114745079Y-67990440D02*
G01*
X114354451Y-68251450D01*
X114022250Y-68583651D01*
X113761240Y-68974279D01*
X113581454Y-69408321D01*
X113489800Y-69869098D01*
X113489800Y-70338902D01*
X113581454Y-70799679D01*
X113761240Y-71233721D01*
X114022250Y-71624349D01*
X114354451Y-71956550D01*
X114745079Y-72217560D01*
X115179121Y-72397346D01*
X115639898Y-72489000D01*
X116109702Y-72489000D01*
X116570479Y-72397346D01*
X117004521Y-72217560D01*
X117395149Y-71956550D01*
X117727350Y-71624349D01*
X117988360Y-71233721D01*
X118168146Y-70799679D01*
X118259800Y-70338902D01*
X118259800Y-69869098D01*
X118168146Y-69408321D01*
X117988360Y-68974279D01*
X117727350Y-68583651D01*
X117395149Y-68251450D01*
X117004521Y-67990440D01*
X116632635Y-67836400D01*
X123292900Y-67836400D01*
X123292901Y-80067106D01*
X123285107Y-80059312D01*
X122820776Y-79749056D01*
X122304839Y-79535348D01*
X121757123Y-79426400D01*
X121198677Y-79426400D01*
X120650961Y-79535348D01*
X120135024Y-79749056D01*
X119670693Y-80059312D01*
X119275812Y-80454193D01*
X118965556Y-80918524D01*
X118751848Y-81434461D01*
X118642900Y-81982177D01*
X118642900Y-82540623D01*
X118751848Y-83088339D01*
X118965556Y-83604276D01*
X119275812Y-84068607D01*
X119670693Y-84463488D01*
X120135024Y-84773744D01*
X120650961Y-84987452D01*
X121198677Y-85096400D01*
X121757123Y-85096400D01*
X122251615Y-84998039D01*
X113245648Y-97716410D01*
X103881572Y-97716410D01*
X97712152Y-87918625D01*
X103118712Y-78222177D01*
X104142920Y-78222177D01*
X104142920Y-78780623D01*
X104251868Y-79328339D01*
X104465576Y-79844276D01*
X104775832Y-80308607D01*
X105170713Y-80703488D01*
X105635044Y-81013744D01*
X106150981Y-81227452D01*
X106698697Y-81336400D01*
X107257143Y-81336400D01*
X107804859Y-81227452D01*
X108320796Y-81013744D01*
X108785127Y-80703488D01*
X109180008Y-80308607D01*
X109490264Y-79844276D01*
X109703972Y-79328339D01*
X109812920Y-78780623D01*
X109812920Y-78404567D01*
X110038000Y-78629647D01*
X110038001Y-83854152D01*
X109510132Y-84382021D01*
X109498774Y-84370663D01*
X109329256Y-84257395D01*
X109140898Y-84179374D01*
X108940939Y-84139600D01*
X108737061Y-84139600D01*
X108537102Y-84179374D01*
X108348744Y-84257395D01*
X108179226Y-84370663D01*
X108035063Y-84514826D01*
X107921795Y-84684344D01*
X107843774Y-84872702D01*
X107804000Y-85072661D01*
X107804000Y-85276539D01*
X107843774Y-85476498D01*
X107921795Y-85664856D01*
X107945010Y-85699600D01*
X107921795Y-85734344D01*
X107843774Y-85922702D01*
X107804000Y-86122661D01*
X107804000Y-86326539D01*
X107843774Y-86526498D01*
X107921795Y-86714856D01*
X108035063Y-86884374D01*
X108179226Y-87028537D01*
X108348744Y-87141805D01*
X108537102Y-87219826D01*
X108737061Y-87259600D01*
X108940939Y-87259600D01*
X109140898Y-87219826D01*
X109329256Y-87141805D01*
X109498774Y-87028537D01*
X109642937Y-86884374D01*
X109756205Y-86714856D01*
X109783329Y-86649374D01*
X109787485Y-86648965D01*
X109926033Y-86606937D01*
X110053720Y-86538687D01*
X110165638Y-86446838D01*
X110188658Y-86418788D01*
X111717193Y-84890254D01*
X111745238Y-84867238D01*
X111837087Y-84755320D01*
X111839805Y-84750235D01*
X111905337Y-84627634D01*
X111947365Y-84489085D01*
X111961556Y-84345000D01*
X111958000Y-84308895D01*
X111958000Y-78174905D01*
X111961556Y-78138800D01*
X111947365Y-77994715D01*
X111941131Y-77974165D01*
X111905337Y-77856167D01*
X111837087Y-77728480D01*
X111780984Y-77660119D01*
X111768253Y-77644606D01*
X111768250Y-77644603D01*
X111745237Y-77616562D01*
X111717197Y-77593550D01*
X111069000Y-76945354D01*
X111069000Y-76242046D01*
X111150690Y-76160357D01*
X111128600Y-76271411D01*
X111128600Y-76536589D01*
X111180333Y-76796672D01*
X111281813Y-77041665D01*
X111429138Y-77262153D01*
X111616647Y-77449662D01*
X111837135Y-77596987D01*
X112082128Y-77698467D01*
X112342211Y-77750200D01*
X112607389Y-77750200D01*
X112867472Y-77698467D01*
X113112465Y-77596987D01*
X113332953Y-77449662D01*
X113520462Y-77262153D01*
X113600703Y-77142063D01*
X113645527Y-77153668D01*
X114395195Y-76404000D01*
X113645527Y-75654332D01*
X113600703Y-75665937D01*
X113520462Y-75545847D01*
X113332953Y-75358338D01*
X113112465Y-75211013D01*
X112974824Y-75154000D01*
X113112465Y-75096987D01*
X113325144Y-74954880D01*
X113333063Y-74969694D01*
X113412415Y-75066385D01*
X113509106Y-75145737D01*
X113619420Y-75204702D01*
X113739118Y-75241012D01*
X113863600Y-75253272D01*
X113882468Y-75253272D01*
X113825132Y-75474727D01*
X114574800Y-76224395D01*
X114588943Y-76210253D01*
X114768548Y-76389858D01*
X114754405Y-76404000D01*
X114768548Y-76418143D01*
X114588943Y-76597748D01*
X114574800Y-76583605D01*
X113825132Y-77333273D01*
X113885952Y-77568183D01*
X114126309Y-77680202D01*
X114383902Y-77743176D01*
X114648830Y-77754687D01*
X114671152Y-77751246D01*
X113966798Y-78455601D01*
X113937800Y-78479399D01*
X113914002Y-78508397D01*
X113914001Y-78508398D01*
X113842826Y-78595124D01*
X113772254Y-78727154D01*
X113764449Y-78752886D01*
X113737539Y-78841600D01*
X113728798Y-78870415D01*
X113714124Y-79019400D01*
X113717801Y-79056732D01*
X113717800Y-81268077D01*
X113714124Y-81305400D01*
X113717800Y-81342722D01*
X113717800Y-81342732D01*
X113728797Y-81454385D01*
X113759772Y-81556498D01*
X113772254Y-81597646D01*
X113842826Y-81729676D01*
X113859303Y-81749753D01*
X113937799Y-81845401D01*
X113966802Y-81869203D01*
X114454401Y-82356803D01*
X114454400Y-84284689D01*
X114410463Y-84328626D01*
X114297195Y-84498144D01*
X114219174Y-84686502D01*
X114179400Y-84886461D01*
X114179400Y-85090339D01*
X114219174Y-85290298D01*
X114297195Y-85478656D01*
X114410463Y-85648174D01*
X114554626Y-85792337D01*
X114724144Y-85905605D01*
X114912502Y-85983626D01*
X115112461Y-86023400D01*
X115316339Y-86023400D01*
X115516298Y-85983626D01*
X115704656Y-85905605D01*
X115874174Y-85792337D01*
X116018337Y-85648174D01*
X116131605Y-85478656D01*
X116209626Y-85290298D01*
X116249400Y-85090339D01*
X116249400Y-84886461D01*
X116209626Y-84686502D01*
X116131605Y-84498144D01*
X116018337Y-84328626D01*
X115974400Y-84284689D01*
X115974400Y-82079325D01*
X115978076Y-82042000D01*
X115974400Y-82004675D01*
X115974400Y-82004667D01*
X115963403Y-81893014D01*
X115919946Y-81749753D01*
X115855508Y-81629200D01*
X115900539Y-81629200D01*
X116100498Y-81589426D01*
X116245756Y-81529258D01*
X116251174Y-81556498D01*
X116329195Y-81744856D01*
X116442463Y-81914374D01*
X116586626Y-82058537D01*
X116756144Y-82171805D01*
X116944502Y-82249826D01*
X117144461Y-82289600D01*
X117348339Y-82289600D01*
X117548298Y-82249826D01*
X117736656Y-82171805D01*
X117906174Y-82058537D01*
X118050337Y-81914374D01*
X118163605Y-81744856D01*
X118241626Y-81556498D01*
X118281400Y-81356539D01*
X118281400Y-81294402D01*
X118519404Y-81056398D01*
X118548401Y-81032601D01*
X118643374Y-80916876D01*
X118713946Y-80784847D01*
X118757403Y-80641586D01*
X118768400Y-80529933D01*
X118768400Y-80529925D01*
X118772076Y-80492600D01*
X118768400Y-80455275D01*
X118768400Y-77651359D01*
X118882128Y-77698467D01*
X119142211Y-77750200D01*
X119407389Y-77750200D01*
X119667472Y-77698467D01*
X119912465Y-77596987D01*
X120132953Y-77449662D01*
X120320462Y-77262153D01*
X120467787Y-77041665D01*
X120569267Y-76796672D01*
X120621000Y-76536589D01*
X120621000Y-76271411D01*
X120569267Y-76011328D01*
X120467787Y-75766335D01*
X120320462Y-75545847D01*
X120132953Y-75358338D01*
X119912465Y-75211013D01*
X119774824Y-75154000D01*
X119912465Y-75096987D01*
X120132953Y-74949662D01*
X120320462Y-74762153D01*
X120467787Y-74541665D01*
X120569267Y-74296672D01*
X120621000Y-74036589D01*
X120621000Y-73771411D01*
X120569267Y-73511328D01*
X120467787Y-73266335D01*
X120320462Y-73045847D01*
X120132953Y-72858338D01*
X119912465Y-72711013D01*
X119667472Y-72609533D01*
X119407389Y-72557800D01*
X119142211Y-72557800D01*
X118882128Y-72609533D01*
X118637135Y-72711013D01*
X118416647Y-72858338D01*
X118229138Y-73045847D01*
X118224800Y-73052339D01*
X118220462Y-73045847D01*
X118032953Y-72858338D01*
X117812465Y-72711013D01*
X117567472Y-72609533D01*
X117307389Y-72557800D01*
X117042211Y-72557800D01*
X116782128Y-72609533D01*
X116537135Y-72711013D01*
X116316647Y-72858338D01*
X116129138Y-73045847D01*
X115981813Y-73266335D01*
X115924072Y-73405733D01*
X115924072Y-73192800D01*
X115911812Y-73068318D01*
X115875502Y-72948620D01*
X115816537Y-72838306D01*
X115737185Y-72741615D01*
X115640494Y-72662263D01*
X115530180Y-72603298D01*
X115410482Y-72566988D01*
X115286000Y-72554728D01*
X113863600Y-72554728D01*
X113739118Y-72566988D01*
X113619420Y-72603298D01*
X113509106Y-72662263D01*
X113412415Y-72741615D01*
X113333063Y-72838306D01*
X113325144Y-72853120D01*
X113112465Y-72711013D01*
X112867472Y-72609533D01*
X112607389Y-72557800D01*
X112342211Y-72557800D01*
X112082128Y-72609533D01*
X111837135Y-72711013D01*
X111616647Y-72858338D01*
X111429138Y-73045847D01*
X111281813Y-73266335D01*
X111180333Y-73511328D01*
X111128600Y-73771411D01*
X111128600Y-74036589D01*
X111157495Y-74181858D01*
X111145354Y-74194000D01*
X110742294Y-74194000D01*
X110706199Y-74190445D01*
X110670104Y-74194000D01*
X110670095Y-74194000D01*
X110562115Y-74204635D01*
X110423567Y-74246663D01*
X110295880Y-74314913D01*
X110183962Y-74406762D01*
X110160946Y-74434807D01*
X109389808Y-75205946D01*
X109361762Y-75228963D01*
X109269913Y-75340881D01*
X109201663Y-75468568D01*
X109183853Y-75527280D01*
X109159635Y-75607115D01*
X109145444Y-75751200D01*
X109149000Y-75787305D01*
X109149001Y-76663186D01*
X108785127Y-76299312D01*
X108320796Y-75989056D01*
X107804859Y-75775348D01*
X107257143Y-75666400D01*
X106698697Y-75666400D01*
X106150981Y-75775348D01*
X105635044Y-75989056D01*
X105170713Y-76299312D01*
X104775832Y-76694193D01*
X104465576Y-77158524D01*
X104251868Y-77674461D01*
X104142920Y-78222177D01*
X103118712Y-78222177D01*
X108909631Y-67836400D01*
X115116965Y-67836400D01*
X114745079Y-67990440D01*
G37*
%TD.AperFunction*%
%TD*%
M02*
