<?xml version="1.0" encoding="UTF-8" standalone="no"?>
<!-- Created with Inkscape (http://www.inkscape.org/) -->

<svg
   xmlns:dc="http://purl.org/dc/elements/1.1/"
   xmlns:cc="http://creativecommons.org/ns#"
   xmlns:rdf="http://www.w3.org/1999/02/22-rdf-syntax-ns#"
   xmlns:svg="http://www.w3.org/2000/svg"
   xmlns="http://www.w3.org/2000/svg"
   xmlns:sodipodi="http://sodipodi.sourceforge.net/DTD/sodipodi-0.dtd"
   xmlns:inkscape="http://www.inkscape.org/namespaces/inkscape"
   width="210mm"
   height="297mm"
   viewBox="0 0 210 297"
   version="1.1"
   id="svg8"
   inkscape:version="0.92.5 (2060ec1f9f, 2020-04-08)"
   sodipodi:docname="Logo.svg">
  <defs
     id="defs2" />
  <sodipodi:namedview
     id="base"
     pagecolor="#ffffff"
     bordercolor="#666666"
     borderopacity="1.0"
     inkscape:pageopacity="0.0"
     inkscape:pageshadow="2"
     inkscape:zoom="6.7661291"
     inkscape:cx="364.98227"
     inkscape:cy="576.66529"
     inkscape:document-units="mm"
     inkscape:current-layer="layer1"
     showgrid="false"
     inkscape:snap-object-midpoints="true"
     inkscape:snap-bbox="true"
     inkscape:object-paths="true"
     inkscape:snap-intersection-paths="true"
     inkscape:snap-smooth-nodes="true"
     inkscape:snap-center="true"
     inkscape:snap-nodes="true"
     inkscape:window-width="2560"
     inkscape:window-height="1027"
     inkscape:window-x="1920"
     inkscape:window-y="0"
     inkscape:window-maximized="1"
     inkscape:object-nodes="true"
     showguides="true"
     inkscape:guide-bbox="true" />
  <metadata
     id="metadata5">
    <rdf:RDF>
      <cc:Work
         rdf:about="">
        <dc:format>image/svg+xml</dc:format>
        <dc:type
           rdf:resource="http://purl.org/dc/dcmitype/StillImage" />
        <dc:title></dc:title>
      </cc:Work>
    </rdf:RDF>
  </metadata>
  <g
     inkscape:groupmode="layer"
     id="layer2"
     inkscape:label="Circle"
     style="display:none">
    <circle
       style="fill:#ffffff;stroke:#0a0a0a;stroke-width:0.3968676;stroke-linecap:square"
       id="path3110"
       cx="91.068634"
       cy="149.47118"
       r="5.9254813" />
    <ellipse
       cy="156.93983"
       cx="122.35613"
       id="circle952"
       style="fill:#ffffff;stroke:#0a0a0a;stroke-width:0.34278953;stroke-linecap:square"
       rx="4.4206638"
       ry="5.9254813" />
  </g>
  <g
     inkscape:label="Layer 1"
     inkscape:groupmode="layer"
     id="layer1">
    <g
       id="g1653"
       transform="translate(0.02042111,-0.00449971)"
       inkscape:export-xdpi="1429.02"
       inkscape:export-ydpi="1429.02">
      <path
         inkscape:export-ydpi="1429.02"
         inkscape:export-xdpi="1429.02"
         d="m 89.880028,144.35193 c -2.329524,0.54044 -4.067969,2.62385 -4.067969,5.1181 0,0.99322 0.273923,1.9195 0.752422,2.71198 h 1.661901 v 1.71154 c 0.820314,0.52877 1.795727,0.83508 2.844271,0.83508 1.048543,0 2.024088,-0.31473 2.84427,-0.84336 v -1.70326 h 1.653646 c 0.478896,-0.79163 0.762,-1.71794 0.762,-2.71118 0,-2.49423 -1.738312,-4.57756 -4.069292,-5.1181 v 0.95086 h -2.381249 v -0.95086 z"
         inkscape:connector-curvature="0"
         style="fill:#ffffff;stroke:#000000;stroke-width:0.1984375;stroke-linecap:square"
         id="path3112" />
      <circle
         inkscape:export-ydpi="1429.02"
         inkscape:export-xdpi="1429.02"
         style="fill:#000000;stroke:none;stroke-width:0.19844396;stroke-linecap:square"
         id="path3911"
         cx="88.396767"
         cy="147.23271"
         r="0.71459585" />
      <circle
         inkscape:export-ydpi="1429.02"
         inkscape:export-xdpi="1429.02"
         style="fill:#000000;stroke:none;stroke-width:0.19844396;stroke-linecap:square"
         id="path3913"
         cx="93.769661"
         cy="147.23271"
         r="0.71459585" />
      <circle
         inkscape:export-ydpi="1429.02"
         inkscape:export-xdpi="1429.02"
         style="fill:#000000;stroke:none;stroke-width:0.19844396;stroke-linecap:square"
         id="path3915"
         cx="87.64006"
         cy="149.89496"
         r="0.71459585" />
      <circle
         inkscape:export-ydpi="1429.02"
         inkscape:export-xdpi="1429.02"
         style="fill:#000000;stroke:none;stroke-width:0.19844396;stroke-linecap:square"
         id="path3917"
         cx="94.509964"
         cy="149.89496"
         r="0.71459585" />
      <circle
         inkscape:export-ydpi="1429.02"
         inkscape:export-xdpi="1429.02"
         style="fill:#000000;stroke:none;stroke-width:0.19844396;stroke-linecap:square"
         id="path3919"
         cx="89.731064"
         cy="152.55693"
         r="0.71459585" />
      <circle
         inkscape:export-ydpi="1429.02"
         inkscape:export-xdpi="1429.02"
         style="fill:#000000;stroke:none;stroke-width:0.19844396;stroke-linecap:square"
         id="path3921"
         cx="92.435104"
         cy="152.55693"
         r="0.71459585" />
      <circle
         inkscape:export-ydpi="1429.02"
         inkscape:export-xdpi="1429.02"
         r="0.71459585"
         cy="147.23271"
         cx="91.083221"
         id="circle898"
         style="fill:#000000;stroke:none;stroke-width:0.19844396;stroke-linecap:square" />
      <circle
         inkscape:export-ydpi="1429.02"
         inkscape:export-xdpi="1429.02"
         r="0.71459585"
         cy="149.89496"
         cx="91.823524"
         id="circle900"
         style="fill:#000000;stroke:none;stroke-width:0.19844396;stroke-linecap:square" />
    </g>
  </g>
  <g
     inkscape:groupmode="layer"
     id="layer3"
     inkscape:label="Layer 2"
     style="display:none">
    <path
       id="circle954"
       style="display:inline;fill:none;stroke:#000000;stroke-width:0.48439467;stroke-linecap:square"
       d="m 90.371926,155.39669 c 2.069188,0.008 4.148823,-0.78575 5.61638,-2.25856 1.725863,-1.66582 2.438497,-4.31951 1.657143,-6.60405 -0.893611,-2.76954 -3.649975,-4.66136 -6.49775,-4.88936 -2.964057,-0.3088 -6.131688,1.13312 -7.574586,3.79436 -1.216677,2.14364 -0.890046,5.39753 0.612435,7.34509 h -1.636924 l 2.621716,2.62171 2.621716,-2.62171 h -1.636924 c -0.106485,-0.15762 -0.205585,-0.32063 -0.296805,-0.48855 -0.09122,-0.16792 -0.174559,-0.34075 -0.24952,-0.51798 -0.07496,-0.17722 -0.141545,-0.35886 -0.199256,-0.5444 -0.05771,-0.18555 -0.106547,-0.375 -0.146013,-0.56787 -0.03947,-0.19287 -0.06956,-0.38915 -0.08979,-0.58834 -0.02023,-0.1992 -0.03059,-0.40132 -0.03059,-0.60585 0,-0.20453 0.01036,-0.40665 0.03059,-0.60585 0.02023,-0.19919 0.05033,-0.39547 0.08979,-0.58834 0.03947,-0.19287 0.0883,-0.38232 0.146013,-0.56787 0.05771,-0.18554 0.124294,-0.36718 0.199255,-0.54441 0.07496,-0.17723 0.1583,-0.35005 0.24952,-0.51797 0.09122,-0.16792 0.19032,-0.33094 0.296805,-0.48856 0.106485,-0.15762 0.220355,-0.30984 0.341113,-0.45616 0.120757,-0.14633 0.248403,-0.28676 0.382441,-0.42079 0.134038,-0.13404 0.274467,-0.26169 0.420792,-0.38245 0.146325,-0.12075 0.298545,-0.23462 0.456163,-0.34111 0.157619,-0.10648 0.320637,-0.20559 0.488557,-0.2968 0.167921,-0.0912 0.340743,-0.17456 0.517972,-0.24953 0.177229,-0.075 0.358864,-0.14154 0.544409,-0.19925 0.185544,-0.0577 0.374998,-0.10655 0.567866,-0.14601 0.192867,-0.0395 0.389148,-0.0696 0.588345,-0.0898 0.199198,-0.0202 0.401312,-0.0306 0.605847,-0.0306 0.204535,0 0.406649,0.0104 0.605847,0.0306 0.199197,0.0202 0.395478,0.0503 0.588345,0.0898 0.192868,0.0395 0.382322,0.0883 0.567866,0.14602 0.185545,0.0577 0.36718,0.12429 0.544409,0.19925 0.177229,0.075 0.350051,0.15831 0.517972,0.24952 0.16792,0.0912 0.330938,0.19033 0.488557,0.29681 0.157618,0.10649 0.309838,0.22036 0.456163,0.34111 0.146325,0.12076 0.286754,0.24841 0.420792,0.38245 0.134038,0.13403 0.261684,0.27446 0.382441,0.42079 0.120758,0.14632 0.234628,0.29854 0.341113,0.45616 0.106485,0.15762 0.205586,0.32064 0.296805,0.48856 0.09122,0.16792 0.174559,0.34074 0.24952,0.51797 0.07496,0.17723 0.141545,0.35887 0.199255,0.54441 0.05771,0.18555 0.106547,0.375 0.146013,0.56787 0.03947,0.19287 0.06956,0.38915 0.08979,0.58834 0.02023,0.1992 0.03059,0.40132 0.03059,0.60585 0,0.20453 -0.01036,0.40665 -0.03059,0.60585 -0.02023,0.19919 -0.05033,0.39547 -0.08979,0.58834 -0.03947,0.19287 -0.0883,0.38232 -0.146013,0.56787 -0.05771,0.18554 -0.124295,0.36718 -0.199256,0.5444 -0.07496,0.17723 -0.1583,0.35006 -0.24952,0.51798 -0.09122,0.16792 -0.19032,0.33093 -0.296806,0.48855 -0.106485,0.15762 -0.220354,0.30984 -0.341112,0.45617 -0.120758,0.14632 -0.248404,0.28675 -0.382442,0.42079 -0.134037,0.13403 -0.274467,0.26168 -0.420791,0.38244 -0.146325,0.12076 -0.298545,0.23463 -0.456164,0.34111 -0.157618,0.10649 -0.320636,0.20559 -0.488556,0.29681 -0.16792,0.0912 -0.340743,0.17455 -0.517972,0.24952 -0.177228,0.075 -0.358863,0.14154 -0.544407,0.19925 -0.185545,0.0577 -0.374999,0.10655 -0.567866,0.14602 -0.192867,0.0395 -0.389148,0.0696 -0.588345,0.0898 -0.199197,0.0202 -0.401311,0.0306 -0.605846,0.0306"
       inkscape:connector-curvature="0"
       sodipodi:nodetypes="ccccccccccsccccsccscssccccccccsssccccccccscccccsccscscccccccccsc" />
  </g>
  <g
     inkscape:groupmode="layer"
     id="layer4"
     inkscape:label="Layer 3"
     style="display:none">
    <path
       style="display:inline;fill:none;stroke:#000000;stroke-width:1.80422652;stroke-linecap:square;stroke-miterlimit:4;stroke-dasharray:none"
       d="m 98.210191,149.47118 c 0,0.98605 -0.199837,1.92541 -0.56122,2.77981 -0.361383,0.85441 -0.884311,1.62385 -1.530495,2.27004 -0.646183,0.64618 -1.415622,1.1691 -2.270027,1.53049 -0.854403,0.36138 -1.793772,0.56122 -2.779815,0.56122 -0.986043,0 -1.925412,-0.19984 -2.779815,-0.56122 -0.854405,-0.36139 -1.623844,-0.88431 -2.270027,-1.53049 -0.646184,-0.64619 -1.169112,-1.41563 -1.530495,-2.27004 -0.361383,-0.8544 -0.56122,-1.79376 -0.56122,-2.77981 -10e-7,-0.98604 0.199835,-1.92541 0.561216,-2.77982 0.361382,-0.8544 0.88431,-1.62384 1.530494,-2.27002 0.646184,-0.6462 1.415624,-1.16912 2.270028,-1.53051 0.854406,-0.36138 1.793775,-0.56122 2.779819,-0.56122 0.986044,0 1.925413,0.19984 2.779819,0.56122 0.854404,0.36139 1.623844,0.88431 2.270028,1.53051 0.646184,0.64618 1.169112,1.41562 1.530494,2.27002 0.361381,0.85441 0.561217,1.79378 0.561216,2.77982 z"
       id="circle984"
       inkscape:connector-curvature="0"
       sodipodi:nodetypes="cssssssscsssssssc" />
    <g
       id="g1582"
       transform="translate(15.812776,1.673287)">
      <path
         transform="scale(0.26458333)"
         id="path1556"
         d="m 292.55884,569.67762 -27.57114,15.9203 27.5714,15.91436 z"
         style="color:#000000;font-style:normal;font-variant:normal;font-weight:normal;font-stretch:normal;font-size:medium;line-height:normal;font-family:sans-serif;font-variant-ligatures:normal;font-variant-position:normal;font-variant-caps:normal;font-variant-numeric:normal;font-variant-alternates:normal;font-feature-settings:normal;text-indent:0;text-align:start;text-decoration:none;text-decoration-line:none;text-decoration-style:solid;text-decoration-color:#000000;letter-spacing:normal;word-spacing:normal;text-transform:none;writing-mode:lr-tb;direction:ltr;text-orientation:mixed;dominant-baseline:auto;baseline-shift:baseline;text-anchor:start;white-space:normal;shape-padding:0;clip-rule:nonzero;display:inline;overflow:visible;visibility:visible;opacity:1;isolation:auto;mix-blend-mode:normal;color-interpolation:sRGB;color-interpolation-filters:linearRGB;solid-color:#000000;solid-opacity:1;vector-effect:none;fill:#ffffff;fill-opacity:1;fill-rule:nonzero;stroke:none;stroke-width:5.65795279;stroke-linecap:butt;stroke-linejoin:miter;stroke-miterlimit:4;stroke-dasharray:none;stroke-dashoffset:0;stroke-opacity:1;color-rendering:auto;image-rendering:auto;shape-rendering:auto;text-rendering:auto;enable-background:accumulate"
         inkscape:connector-curvature="0" />
      <path
         sodipodi:nodetypes="ccccccc"
         inkscape:connector-curvature="0"
         d="m 73.105467,154.93945 4.300783,-2.48242 v 0 0 4.96485 0 z"
         style="color:#000000;font-style:normal;font-variant:normal;font-weight:normal;font-stretch:normal;font-size:medium;line-height:normal;font-family:sans-serif;font-variant-ligatures:normal;font-variant-position:normal;font-variant-caps:normal;font-variant-numeric:normal;font-variant-alternates:normal;font-feature-settings:normal;text-indent:0;text-align:start;text-decoration:none;text-decoration-line:none;text-decoration-style:solid;text-decoration-color:#000000;letter-spacing:normal;word-spacing:normal;text-transform:none;writing-mode:lr-tb;direction:ltr;text-orientation:mixed;dominant-baseline:auto;baseline-shift:baseline;text-anchor:start;white-space:normal;shape-padding:0;clip-rule:nonzero;display:inline;overflow:visible;visibility:visible;opacity:1;isolation:auto;mix-blend-mode:normal;color-interpolation:sRGB;color-interpolation-filters:linearRGB;solid-color:#000000;solid-opacity:1;vector-effect:none;fill:#000000;fill-opacity:1;fill-rule:nonzero;stroke:none;stroke-width:1.49699998;stroke-linecap:butt;stroke-linejoin:miter;stroke-miterlimit:4;stroke-dasharray:none;stroke-dashoffset:0;stroke-opacity:1;color-rendering:auto;image-rendering:auto;shape-rendering:auto;text-rendering:auto;enable-background:accumulate"
         id="path1573" />
    </g>
  </g>
  <g
     inkscape:groupmode="layer"
     id="layer5"
     inkscape:label="Layer 4"
     style="display:none">
    <g
       style="display:inline"
       transform="matrix(-0.0653351,-0.0653351,0.0653351,-0.0653351,68.179604,191.56569)"
       id="layer1-3"
       inkscape:label="Layer 1">
      <path
         transform="matrix(-0.80281359,0.59623011,0.59623011,0.80281359,0,0)"
         d="m 516.90479,309.836 a 121.6008,121.6008 0 0 1 -60.80041,105.30938 121.6008,121.6008 0 0 1 -121.6008,0 121.6008,121.6008 0 0 1 -60.80039,-105.30939 l 121.6008,1e-5 z"
         sodipodi:end="3.1415927"
         sodipodi:start="0"
         sodipodi:ry="121.6008"
         sodipodi:rx="121.6008"
         sodipodi:cy="309.836"
         sodipodi:cx="395.30399"
         sodipodi:type="arc"
         id="path3358"
         style="display:none;opacity:1;fill:none;fill-opacity:1;stroke:#000000;stroke-width:1.87078154;stroke-linecap:round" />
      <g
         transform="matrix(1.0004762,0,0,1,282.12948,0)"
         id="g3379"
         style="fill:#000080">
        <path
           id="path3381"
           d="m -133,365.36133 a 125,125 0 0 0 -115.91406,78.38281 l 45.39062,-26.35156 7.86914,31.85156 A 75,75 0 0 1 -133,415.36133 a 75,75 0 0 1 75,75 75,75 0 0 1 -75,75 75,75 0 0 1 -74.9707,-74.16406 l -48.39844,-20.53711 A 125,125 0 0 0 -258,490.36133 a 125,125 0 0 0 125,125 125,125 0 0 0 125,-125 125,125 0 0 0 -125,-125 z"
           style="opacity:1;fill:#000080;fill-opacity:1;stroke:none;stroke-width:2;stroke-linecap:round"
           inkscape:connector-curvature="0" />
        <path
           style="fill:#000080;fill-rule:evenodd;stroke:none;stroke-width:6.27689838;stroke-linecap:butt;stroke-linejoin:miter;stroke-opacity:1"
           d="m -207.42996,427.07126 -64.44437,37.41382 82.3172,34.92863 z"
           id="path3383"
           inkscape:connector-curvature="0" />
      </g>
    </g>
  </g>
  <g
     inkscape:groupmode="layer"
     id="layer6"
     inkscape:label="Layer 5">
    <g
       id="g1628"
       transform="matrix(0.0142919,0.01360724,0.01360724,-0.0142919,75.989558,150.77138)"
       style="fill:#000000"
       inkscape:export-xdpi="1429.02"
       inkscape:export-ydpi="1429.02"
       inkscape:transform-center-x="-3.3201804"
       inkscape:transform-center-y="-8.1208642">
      <path
         id="path1626"
         d="m 789,217 -50,64 C 845,364 899,498 878,631 846,833 656,971 455,939 253,907 115,717 147,516 162,418 215,332 295,274 365,223 448,199 533,204 h -1 l -70,73 52,49 159,-167 v 0 L 506,0 l -49,52 75,71 v 0 C 430,118 330,148 246,209 149,280 85,384 66,503 c -39,245 130,477 375,515 24,4 47,6 70,6 218,0 410,-159 445,-381 C 982,481 917,318 787,217 Z"
         inkscape:connector-curvature="0"
         style="fill:#000000" />
    </g>
  </g>
</svg>
