%TF.GenerationSoftware,KiCad,Pcbnew,5.1.10-88a1d61d58~89~ubuntu20.04.1*%
%TF.CreationDate,2021-10-06T22:51:07-05:00*%
%TF.ProjectId,portboard_ffc,706f7274-626f-4617-9264-5f6666632e6b,rev?*%
%TF.SameCoordinates,Original*%
%TF.FileFunction,Copper,L2,Bot*%
%TF.FilePolarity,Positive*%
%FSLAX46Y46*%
G04 Gerber Fmt 4.6, Leading zero omitted, Abs format (unit mm)*
G04 Created by KiCad (PCBNEW 5.1.10-88a1d61d58~89~ubuntu20.04.1) date 2021-10-06 22:51:07*
%MOMM*%
%LPD*%
G01*
G04 APERTURE LIST*
%TA.AperFunction,ComponentPad*%
%ADD10C,1.422400*%
%TD*%
%TA.AperFunction,ComponentPad*%
%ADD11R,1.422400X1.422400*%
%TD*%
%TA.AperFunction,ComponentPad*%
%ADD12C,3.500000*%
%TD*%
%TA.AperFunction,ComponentPad*%
%ADD13C,6.400000*%
%TD*%
%TA.AperFunction,ViaPad*%
%ADD14C,0.800000*%
%TD*%
%TA.AperFunction,Conductor*%
%ADD15C,0.250000*%
%TD*%
%TA.AperFunction,Conductor*%
%ADD16C,0.254000*%
%TD*%
%TA.AperFunction,Conductor*%
%ADD17C,0.150000*%
%TD*%
G04 APERTURE END LIST*
D10*
%TO.P,J2,7*%
%TO.N,/GPi*%
X67829000Y-41053000D03*
%TO.P,J2,4*%
%TO.N,GND*%
X65629000Y-41053000D03*
%TO.P,J2,6*%
%TO.N,/TXD+*%
X63529000Y-41053000D03*
%TO.P,J2,8*%
%TO.N,/RXD+*%
X70329000Y-41053000D03*
%TO.P,J2,5*%
%TO.N,/RXD-*%
X70329000Y-38553000D03*
%TO.P,J2,3*%
%TO.N,/TXD-*%
X63529000Y-38553000D03*
D11*
%TO.P,J2,1*%
%TO.N,/HSKo*%
X65629000Y-38553000D03*
D10*
%TO.P,J2,2*%
%TO.N,/HSKi*%
X68229000Y-38553000D03*
D12*
%TO.P,J2,SH2*%
%TO.N,N/C*%
X66929000Y-34753000D03*
%TO.P,J2,SH3*%
X60179000Y-35553000D03*
%TO.P,J2,SH1*%
X73679000Y-35553000D03*
%TD*%
D13*
%TO.P,H2,1*%
%TO.N,N/C*%
X77724000Y-39624000D03*
%TD*%
%TO.P,H1,1*%
%TO.N,N/C*%
X56134000Y-39624000D03*
%TD*%
D14*
%TO.N,/GPi*%
X65468500Y-46672500D03*
%TO.N,/HSKo*%
X68770500Y-46355000D03*
%TO.N,/HSKi*%
X66992500Y-49339500D03*
%TO.N,/TXD-*%
X67183000Y-48069500D03*
%TO.N,/TXD+*%
X66548000Y-47117000D03*
%TD*%
D15*
%TO.N,/GPi*%
X67829000Y-44312000D02*
X67829000Y-41053000D01*
X65468500Y-46672500D02*
X67829000Y-44312000D01*
%TO.N,/HSKo*%
X68389500Y-39751000D02*
X66827000Y-39751000D01*
X69170499Y-40531999D02*
X68389500Y-39751000D01*
X66827000Y-39751000D02*
X65629000Y-38553000D01*
X69170499Y-45955001D02*
X69170499Y-40531999D01*
X68770500Y-46355000D02*
X69170499Y-45955001D01*
%TO.N,/HSKi*%
X66992500Y-49339500D02*
X69088000Y-47244000D01*
X69088000Y-47244000D02*
X69659500Y-47244000D01*
X69659500Y-47244000D02*
X72326500Y-44577000D01*
X72326500Y-44577000D02*
X72326500Y-38036500D01*
X72326500Y-38036500D02*
X71310500Y-37020500D01*
X69761500Y-37020500D02*
X68229000Y-38553000D01*
X71310500Y-37020500D02*
X69761500Y-37020500D01*
%TO.N,/TXD-*%
X67183000Y-48069500D02*
X63119000Y-48069500D01*
X62492799Y-39589201D02*
X63529000Y-38553000D01*
X62492799Y-47443299D02*
X62492799Y-39589201D01*
X63119000Y-48069500D02*
X62492799Y-47443299D01*
%TO.N,/TXD+*%
X66548000Y-47117000D02*
X66236011Y-47428989D01*
X63529000Y-47019000D02*
X63529000Y-41053000D01*
X66236011Y-47428989D02*
X63938989Y-47428989D01*
X63938989Y-47428989D02*
X63529000Y-47019000D01*
%TD*%
D16*
%TO.N,GND*%
X64387263Y-39618694D02*
X64466615Y-39715385D01*
X64563306Y-39794737D01*
X64673620Y-39853702D01*
X64793318Y-39890012D01*
X64917800Y-39902272D01*
X64936668Y-39902272D01*
X64879332Y-40123727D01*
X65629000Y-40873395D01*
X65643143Y-40859253D01*
X65822748Y-41038858D01*
X65808605Y-41053000D01*
X66558273Y-41802668D01*
X66688348Y-41768991D01*
X66783338Y-41911153D01*
X66970847Y-42098662D01*
X67069001Y-42164246D01*
X67069000Y-43997198D01*
X65428699Y-45637500D01*
X65366561Y-45637500D01*
X65166602Y-45677274D01*
X64978244Y-45755295D01*
X64808726Y-45868563D01*
X64664563Y-46012726D01*
X64551295Y-46182244D01*
X64473274Y-46370602D01*
X64433500Y-46570561D01*
X64433500Y-46668989D01*
X64289000Y-46668989D01*
X64289000Y-42164246D01*
X64387153Y-42098662D01*
X64503542Y-41982273D01*
X64879332Y-41982273D01*
X64940152Y-42217183D01*
X65180509Y-42329202D01*
X65438102Y-42392176D01*
X65703030Y-42403687D01*
X65965113Y-42363291D01*
X66214280Y-42272542D01*
X66317848Y-42217183D01*
X66378668Y-41982273D01*
X65629000Y-41232605D01*
X64879332Y-41982273D01*
X64503542Y-41982273D01*
X64574662Y-41911153D01*
X64654903Y-41791063D01*
X64699727Y-41802668D01*
X65449395Y-41053000D01*
X64699727Y-40303332D01*
X64654903Y-40314937D01*
X64574662Y-40194847D01*
X64387153Y-40007338D01*
X64166665Y-39860013D01*
X64029024Y-39803000D01*
X64166665Y-39745987D01*
X64379344Y-39603880D01*
X64387263Y-39618694D01*
%TA.AperFunction,Conductor*%
D17*
G36*
X64387263Y-39618694D02*
G01*
X64466615Y-39715385D01*
X64563306Y-39794737D01*
X64673620Y-39853702D01*
X64793318Y-39890012D01*
X64917800Y-39902272D01*
X64936668Y-39902272D01*
X64879332Y-40123727D01*
X65629000Y-40873395D01*
X65643143Y-40859253D01*
X65822748Y-41038858D01*
X65808605Y-41053000D01*
X66558273Y-41802668D01*
X66688348Y-41768991D01*
X66783338Y-41911153D01*
X66970847Y-42098662D01*
X67069001Y-42164246D01*
X67069000Y-43997198D01*
X65428699Y-45637500D01*
X65366561Y-45637500D01*
X65166602Y-45677274D01*
X64978244Y-45755295D01*
X64808726Y-45868563D01*
X64664563Y-46012726D01*
X64551295Y-46182244D01*
X64473274Y-46370602D01*
X64433500Y-46570561D01*
X64433500Y-46668989D01*
X64289000Y-46668989D01*
X64289000Y-42164246D01*
X64387153Y-42098662D01*
X64503542Y-41982273D01*
X64879332Y-41982273D01*
X64940152Y-42217183D01*
X65180509Y-42329202D01*
X65438102Y-42392176D01*
X65703030Y-42403687D01*
X65965113Y-42363291D01*
X66214280Y-42272542D01*
X66317848Y-42217183D01*
X66378668Y-41982273D01*
X65629000Y-41232605D01*
X64879332Y-41982273D01*
X64503542Y-41982273D01*
X64574662Y-41911153D01*
X64654903Y-41791063D01*
X64699727Y-41802668D01*
X65449395Y-41053000D01*
X64699727Y-40303332D01*
X64654903Y-40314937D01*
X64574662Y-40194847D01*
X64387153Y-40007338D01*
X64166665Y-39860013D01*
X64029024Y-39803000D01*
X64166665Y-39745987D01*
X64379344Y-39603880D01*
X64387263Y-39618694D01*
G37*
%TD.AperFunction*%
%TD*%
M02*
