%TF.GenerationSoftware,KiCad,Pcbnew,5.1.12-84ad8e8a86~92~ubuntu20.04.1*%
%TF.CreationDate,2021-12-07T00:08:57-06:00*%
%TF.ProjectId,portboard_ribbon,706f7274-626f-4617-9264-5f726962626f,rev?*%
%TF.SameCoordinates,Original*%
%TF.FileFunction,Copper,L2,Bot*%
%TF.FilePolarity,Positive*%
%FSLAX46Y46*%
G04 Gerber Fmt 4.6, Leading zero omitted, Abs format (unit mm)*
G04 Created by KiCad (PCBNEW 5.1.12-84ad8e8a86~92~ubuntu20.04.1) date 2021-12-07 00:08:57*
%MOMM*%
%LPD*%
G01*
G04 APERTURE LIST*
%TA.AperFunction,ComponentPad*%
%ADD10C,1.422400*%
%TD*%
%TA.AperFunction,ComponentPad*%
%ADD11R,1.422400X1.422400*%
%TD*%
%TA.AperFunction,ComponentPad*%
%ADD12C,3.500000*%
%TD*%
%TA.AperFunction,ComponentPad*%
%ADD13O,1.700000X1.700000*%
%TD*%
%TA.AperFunction,ComponentPad*%
%ADD14R,1.700000X1.700000*%
%TD*%
%TA.AperFunction,ComponentPad*%
%ADD15C,6.400000*%
%TD*%
%TA.AperFunction,Conductor*%
%ADD16C,0.250000*%
%TD*%
G04 APERTURE END LIST*
D10*
%TO.P,J2,7*%
%TO.N,/GPi*%
X67829000Y-41053000D03*
%TO.P,J2,4*%
%TO.N,GND*%
X65629000Y-41053000D03*
%TO.P,J2,6*%
%TO.N,/TXD+*%
X63529000Y-41053000D03*
%TO.P,J2,8*%
%TO.N,/RXD+*%
X70329000Y-41053000D03*
%TO.P,J2,5*%
%TO.N,/RXD-*%
X70329000Y-38553000D03*
%TO.P,J2,3*%
%TO.N,/TXD-*%
X63529000Y-38553000D03*
D11*
%TO.P,J2,1*%
%TO.N,/HSKo*%
X65629000Y-38553000D03*
D10*
%TO.P,J2,2*%
%TO.N,/HSKi*%
X68229000Y-38553000D03*
D12*
%TO.P,J2,SH2*%
%TO.N,N/C*%
X66929000Y-34753000D03*
%TO.P,J2,SH3*%
X60179000Y-35553000D03*
%TO.P,J2,SH1*%
X73679000Y-35553000D03*
%TD*%
D13*
%TO.P,J1,10*%
%TO.N,/GPi*%
X72009000Y-46228000D03*
%TO.P,J1,9*%
%TO.N,+5V*%
X72009000Y-48768000D03*
%TO.P,J1,8*%
%TO.N,/HSKi*%
X69469000Y-46228000D03*
%TO.P,J1,7*%
%TO.N,/HSKo*%
X69469000Y-48768000D03*
%TO.P,J1,6*%
%TO.N,/RXD+*%
X66929000Y-46228000D03*
%TO.P,J1,5*%
%TO.N,/RXD-*%
X66929000Y-48768000D03*
%TO.P,J1,4*%
%TO.N,/TXD+*%
X64389000Y-46228000D03*
%TO.P,J1,3*%
%TO.N,/TXD-*%
X64389000Y-48768000D03*
%TO.P,J1,2*%
%TO.N,GND*%
X61849000Y-46228000D03*
D14*
%TO.P,J1,1*%
X61849000Y-48768000D03*
%TD*%
D15*
%TO.P,H2,1*%
%TO.N,N/C*%
X77724000Y-39624000D03*
%TD*%
%TO.P,H1,1*%
%TO.N,N/C*%
X56134000Y-39624000D03*
%TD*%
D16*
%TO.N,/GPi*%
X67829000Y-40016000D02*
X66992500Y-39179500D01*
X72858999Y-38187999D02*
X72858999Y-45378001D01*
X66992500Y-37909500D02*
X68141011Y-36760989D01*
X68141011Y-36760989D02*
X71431989Y-36760989D01*
X71431989Y-36760989D02*
X72858999Y-38187999D01*
X67829000Y-41053000D02*
X67829000Y-40016000D01*
X66992500Y-39179500D02*
X66992500Y-37909500D01*
X72858999Y-45378001D02*
X72009000Y-46228000D01*
%TO.N,/HSKo*%
X65629000Y-38832000D02*
X65629000Y-38553000D01*
X66738500Y-39941500D02*
X65629000Y-38832000D01*
X66738500Y-42550789D02*
X66738500Y-39941500D01*
X66294000Y-50165000D02*
X65659000Y-49530000D01*
X65659000Y-43630289D02*
X66738500Y-42550789D01*
X68072000Y-50165000D02*
X66294000Y-50165000D01*
X65659000Y-49530000D02*
X65659000Y-43630289D01*
X69469000Y-48768000D02*
X68072000Y-50165000D01*
%TO.N,/HSKi*%
X70993000Y-37211000D02*
X69571000Y-37211000D01*
X72263000Y-43434000D02*
X72263000Y-38481000D01*
X69571000Y-37211000D02*
X68229000Y-38553000D01*
X72263000Y-38481000D02*
X70993000Y-37211000D01*
X69469000Y-46228000D02*
X72263000Y-43434000D01*
%TO.N,/RXD-*%
X68199000Y-47498000D02*
X66929000Y-48768000D01*
X68199000Y-45021500D02*
X68199000Y-47498000D01*
X71564500Y-41656000D02*
X68199000Y-45021500D01*
X71564500Y-39788500D02*
X71564500Y-41656000D01*
X70329000Y-38553000D02*
X71564500Y-39788500D01*
%TO.N,/RXD+*%
X66929000Y-44450000D02*
X66929000Y-46228000D01*
X70326000Y-41053000D02*
X66929000Y-44450000D01*
X70329000Y-41053000D02*
X70326000Y-41053000D01*
%TO.N,/TXD-*%
X61976000Y-40106000D02*
X63529000Y-38553000D01*
X61976000Y-42672000D02*
X61976000Y-40106000D01*
X63078989Y-43774989D02*
X61976000Y-42672000D01*
X63078989Y-47457989D02*
X63078989Y-43774989D01*
X64389000Y-48768000D02*
X63078989Y-47457989D01*
%TO.N,/TXD+*%
X64389000Y-43434000D02*
X64389000Y-46228000D01*
X63529000Y-42574000D02*
X64389000Y-43434000D01*
X63529000Y-41053000D02*
X63529000Y-42574000D01*
%TD*%
M02*
