M48
; DRILL file {KiCad 5.1.12-84ad8e8a86~92~ubuntu20.04.1} date Tue 07 Dec 2021 12:39:59 AM CST
; FORMAT={-:-/ absolute / metric / decimal}
; #@! TF.CreationDate,2021-12-07T00:39:59-06:00
; #@! TF.GenerationSoftware,Kicad,Pcbnew,5.1.12-84ad8e8a86~92~ubuntu20.04.1
FMAT,2
METRIC
T1C0.400
T2C0.800
T3C0.900
T4C0.920
T5C1.000
T6C1.300
T7C2.250
T8C2.300
T9C3.200
T10C0.700
T11C0.900
%
G90
G05
T1
X51.303Y-125.471
X51.308Y-128.524
X51.308Y-117.856
X51.308Y-127.0
X51.308Y-111.76
X51.308Y-108.712
X51.308Y-110.236
X51.308Y-115.57
X51.308Y-119.38
X51.308Y-120.904
X51.308Y-122.428
X51.308Y-123.952
X51.308Y-130.048
X51.308Y-131.572
X51.308Y-133.096
X51.308Y-113.284
X51.373Y-114.572
X52.984Y-146.202
X56.693Y-105.105
X57.15Y-122.301
X57.15Y-127.0
X57.15Y-133.985
X57.658Y-101.498
X58.014Y-124.189
X58.014Y-125.239
X58.928Y-120.142
X58.991Y-150.978
X59.182Y-148.463
X60.198Y-118.491
X60.325Y-127.889
X60.325Y-132.969
X60.401Y-140.157
X60.706Y-107.95
X60.706Y-111.76
X60.706Y-116.332
X61.214Y-118.491
X61.265Y-145.745
X62.233Y-137.48
X63.246Y-105.029
X64.401Y-150.497
X64.516Y-136.017
X64.643Y-137.096
X64.643Y-149.352
X66.802Y-124.714
X66.802Y-129.032
X66.802Y-130.81
X66.934Y-126.106
X67.056Y-123.19
X67.056Y-127.508
X67.094Y-145.148
X67.122Y-112.087
X67.818Y-121.92
X68.004Y-133.604
X68.09Y-120.269
X68.499Y-142.219
X69.027Y-109.41
X69.037Y-112.126
X69.051Y-118.618
X69.054Y-133.604
X69.088Y-110.998
X69.088Y-114.046
X69.088Y-117.0
X69.088Y-121.666
X69.093Y-107.955
X69.178Y-115.458
X69.186Y-120.086
X69.374Y-137.287
X69.995Y-149.452
X70.155Y-132.893
X70.182Y-105.082
X70.375Y-137.287
X71.085Y-148.99
X71.374Y-123.126
X71.564Y-127.698
X72.275Y-126.53
X72.668Y-148.5
X72.767Y-141.411
X73.723Y-112.459
X73.832Y-115.58
X73.914Y-106.553
X74.871Y-118.956
X74.9Y-119.956
X74.92Y-120.956
X74.993Y-113.983
X75.083Y-111.003
X75.243Y-122.516
X75.246Y-117.507
X75.489Y-131.47
X75.686Y-140.683
X75.692Y-108.966
X76.708Y-140.106
X77.216Y-148.844
X78.359Y-103.251
X78.602Y-128.816
X78.644Y-116.122
X78.669Y-126.909
X78.689Y-125.273
X78.803Y-104.902
X78.811Y-117.41
X78.84Y-111.724
X78.935Y-127.873
X79.515Y-119.314
X80.352Y-111.683
X80.692Y-127.997
X80.843Y-120.642
X81.394Y-128.709
X81.471Y-111.76
X81.661Y-150.114
X81.696Y-110.382
X81.858Y-121.058
X82.398Y-128.815
X82.426Y-104.812
X82.503Y-111.662
X82.857Y-121.119
X83.072Y-139.223
X83.874Y-128.815
X83.891Y-121.028
X84.174Y-124.499
X84.201Y-127.762
X84.34Y-139.673
X84.891Y-121.056
X86.36Y-139.954
X87.122Y-103.505
X88.189Y-118.821
X88.392Y-103.327
X88.392Y-115.367
X88.505Y-119.821
X88.646Y-148.844
X88.781Y-106.688
X88.973Y-128.783
X88.983Y-129.813
X89.027Y-127.254
X89.103Y-133.452
X89.154Y-104.394
X89.306Y-141.275
X90.373Y-141.275
X90.667Y-111.035
X91.363Y-124.038
X91.549Y-123.056
X91.567Y-133.35
X91.745Y-113.894
X91.745Y-116.332
X92.05Y-119.532
X92.202Y-126.035
X93.661Y-124.708
X93.98Y-110.236
X94.234Y-130.112
X94.665Y-139.874
X94.742Y-125.158
X95.504Y-116.891
X96.52Y-142.367
X96.825Y-120.853
X97.536Y-113.284
X98.806Y-142.24
X99.187Y-123.571
X99.187Y-127.381
X99.187Y-129.159
X99.187Y-131.064
X99.187Y-132.969
X99.187Y-134.874
X99.187Y-136.779
X99.187Y-138.684
X100.127Y-122.377
X101.727Y-120.84
X102.749Y-119.882
X103.124Y-146.66
X103.251Y-123.571
X103.251Y-125.095
X103.505Y-118.237
X106.426Y-122.377
X107.95Y-118.237
X108.204Y-149.542
X108.458Y-148.399
X110.617Y-142.494
X111.125Y-122.174
X113.093Y-145.732
X113.538Y-122.555
X113.538Y-140.843
X114.236Y-146.585
X115.57Y-112.268
X116.459Y-126.111
X118.923Y-120.904
X119.634Y-104.902
X119.888Y-149.606
T2
X72.263Y-137.668
X72.263Y-145.288
X74.803Y-137.668
X74.803Y-145.288
X77.343Y-137.668
X77.343Y-145.288
X79.883Y-137.668
X79.883Y-145.288
X82.423Y-137.668
X82.423Y-145.288
X84.963Y-137.668
X84.963Y-145.288
X87.503Y-137.668
X87.503Y-145.288
X90.043Y-137.668
X90.043Y-145.288
X92.583Y-137.668
X92.583Y-145.288
T3
X114.096Y-131.4
X114.096Y-133.9
X114.096Y-136.1
X114.096Y-138.2
X116.596Y-131.4
X116.596Y-133.5
X116.596Y-136.1
X116.596Y-138.2
T4
X101.585Y-106.088
X104.085Y-106.088
X106.085Y-106.088
X108.585Y-106.088
T5
X98.552Y-116.078
X101.092Y-116.078
X103.632Y-116.078
X106.172Y-116.078
X106.934Y-129.222
X106.934Y-131.762
X106.934Y-134.302
X106.934Y-136.843
X106.934Y-139.382
X108.712Y-116.078
X109.474Y-129.222
X109.474Y-131.762
X109.474Y-134.302
X109.474Y-136.843
X109.474Y-139.382
T7
X119.596Y-128.0
X119.596Y-141.55
X120.396Y-134.8
T8
X98.515Y-103.378
X111.655Y-103.378
T9
X52.59Y-102.605
X94.365Y-150.295
X121.815Y-113.82
T10
X60.74Y-120.42
T11
X60.74Y-105.05
T6
G00X98.515Y-107.188
M15
G01X98.515Y-106.188
M16
G05
G00X105.585Y-110.868
M15
G01X104.585Y-110.868
M16
G05
G00X111.655Y-106.188
M15
G01X111.655Y-107.188
M16
G05
T0
M30
