%TF.GenerationSoftware,KiCad,Pcbnew,5.1.12-84ad8e8a86~92~ubuntu20.04.1*%
%TF.CreationDate,2021-12-07T00:39:57-06:00*%
%TF.ProjectId,serial_rewind_d2,73657269-616c-45f7-9265-77696e645f64,rev?*%
%TF.SameCoordinates,Original*%
%TF.FileFunction,Soldermask,Bot*%
%TF.FilePolarity,Negative*%
%FSLAX46Y46*%
G04 Gerber Fmt 4.6, Leading zero omitted, Abs format (unit mm)*
G04 Created by KiCad (PCBNEW 5.1.12-84ad8e8a86~92~ubuntu20.04.1) date 2021-12-07 00:39:57*
%MOMM*%
%LPD*%
G01*
G04 APERTURE LIST*
%ADD10O,1.600000X1.600000*%
%ADD11R,1.600000X1.600000*%
%ADD12O,1.700000X1.700000*%
%ADD13R,1.700000X1.700000*%
%ADD14C,2.000000*%
%ADD15R,2.500000X0.350000*%
%ADD16R,2.000000X2.500000*%
%ADD17C,6.400000*%
%ADD18C,3.601600*%
%ADD19C,1.524000*%
%ADD20C,3.500000*%
%ADD21R,1.524000X1.524000*%
%ADD22O,2.300000X3.300000*%
%ADD23O,2.900000X1.900000*%
G04 APERTURE END LIST*
%TO.C,U5*%
G36*
G01*
X76074500Y-129487000D02*
X76074500Y-129212000D01*
G75*
G02*
X76212000Y-129074500I137500J0D01*
G01*
X77937000Y-129074500D01*
G75*
G02*
X78074500Y-129212000I0J-137500D01*
G01*
X78074500Y-129487000D01*
G75*
G02*
X77937000Y-129624500I-137500J0D01*
G01*
X76212000Y-129624500D01*
G75*
G02*
X76074500Y-129487000I0J137500D01*
G01*
G37*
G36*
G01*
X76074500Y-128217000D02*
X76074500Y-127942000D01*
G75*
G02*
X76212000Y-127804500I137500J0D01*
G01*
X77937000Y-127804500D01*
G75*
G02*
X78074500Y-127942000I0J-137500D01*
G01*
X78074500Y-128217000D01*
G75*
G02*
X77937000Y-128354500I-137500J0D01*
G01*
X76212000Y-128354500D01*
G75*
G02*
X76074500Y-128217000I0J137500D01*
G01*
G37*
G36*
G01*
X76074500Y-126947000D02*
X76074500Y-126672000D01*
G75*
G02*
X76212000Y-126534500I137500J0D01*
G01*
X77937000Y-126534500D01*
G75*
G02*
X78074500Y-126672000I0J-137500D01*
G01*
X78074500Y-126947000D01*
G75*
G02*
X77937000Y-127084500I-137500J0D01*
G01*
X76212000Y-127084500D01*
G75*
G02*
X76074500Y-126947000I0J137500D01*
G01*
G37*
G36*
G01*
X76074500Y-125677000D02*
X76074500Y-125402000D01*
G75*
G02*
X76212000Y-125264500I137500J0D01*
G01*
X77937000Y-125264500D01*
G75*
G02*
X78074500Y-125402000I0J-137500D01*
G01*
X78074500Y-125677000D01*
G75*
G02*
X77937000Y-125814500I-137500J0D01*
G01*
X76212000Y-125814500D01*
G75*
G02*
X76074500Y-125677000I0J137500D01*
G01*
G37*
G36*
G01*
X76074500Y-124407000D02*
X76074500Y-124132000D01*
G75*
G02*
X76212000Y-123994500I137500J0D01*
G01*
X77937000Y-123994500D01*
G75*
G02*
X78074500Y-124132000I0J-137500D01*
G01*
X78074500Y-124407000D01*
G75*
G02*
X77937000Y-124544500I-137500J0D01*
G01*
X76212000Y-124544500D01*
G75*
G02*
X76074500Y-124407000I0J137500D01*
G01*
G37*
G36*
G01*
X76074500Y-123137000D02*
X76074500Y-122862000D01*
G75*
G02*
X76212000Y-122724500I137500J0D01*
G01*
X77937000Y-122724500D01*
G75*
G02*
X78074500Y-122862000I0J-137500D01*
G01*
X78074500Y-123137000D01*
G75*
G02*
X77937000Y-123274500I-137500J0D01*
G01*
X76212000Y-123274500D01*
G75*
G02*
X76074500Y-123137000I0J137500D01*
G01*
G37*
G36*
G01*
X76074500Y-121867000D02*
X76074500Y-121592000D01*
G75*
G02*
X76212000Y-121454500I137500J0D01*
G01*
X77937000Y-121454500D01*
G75*
G02*
X78074500Y-121592000I0J-137500D01*
G01*
X78074500Y-121867000D01*
G75*
G02*
X77937000Y-122004500I-137500J0D01*
G01*
X76212000Y-122004500D01*
G75*
G02*
X76074500Y-121867000I0J137500D01*
G01*
G37*
G36*
G01*
X76074500Y-120597000D02*
X76074500Y-120322000D01*
G75*
G02*
X76212000Y-120184500I137500J0D01*
G01*
X77937000Y-120184500D01*
G75*
G02*
X78074500Y-120322000I0J-137500D01*
G01*
X78074500Y-120597000D01*
G75*
G02*
X77937000Y-120734500I-137500J0D01*
G01*
X76212000Y-120734500D01*
G75*
G02*
X76074500Y-120597000I0J137500D01*
G01*
G37*
G36*
G01*
X76074500Y-119327000D02*
X76074500Y-119052000D01*
G75*
G02*
X76212000Y-118914500I137500J0D01*
G01*
X77937000Y-118914500D01*
G75*
G02*
X78074500Y-119052000I0J-137500D01*
G01*
X78074500Y-119327000D01*
G75*
G02*
X77937000Y-119464500I-137500J0D01*
G01*
X76212000Y-119464500D01*
G75*
G02*
X76074500Y-119327000I0J137500D01*
G01*
G37*
G36*
G01*
X76074500Y-118057000D02*
X76074500Y-117782000D01*
G75*
G02*
X76212000Y-117644500I137500J0D01*
G01*
X77937000Y-117644500D01*
G75*
G02*
X78074500Y-117782000I0J-137500D01*
G01*
X78074500Y-118057000D01*
G75*
G02*
X77937000Y-118194500I-137500J0D01*
G01*
X76212000Y-118194500D01*
G75*
G02*
X76074500Y-118057000I0J137500D01*
G01*
G37*
G36*
G01*
X76074500Y-116787000D02*
X76074500Y-116512000D01*
G75*
G02*
X76212000Y-116374500I137500J0D01*
G01*
X77937000Y-116374500D01*
G75*
G02*
X78074500Y-116512000I0J-137500D01*
G01*
X78074500Y-116787000D01*
G75*
G02*
X77937000Y-116924500I-137500J0D01*
G01*
X76212000Y-116924500D01*
G75*
G02*
X76074500Y-116787000I0J137500D01*
G01*
G37*
G36*
G01*
X76074500Y-115517000D02*
X76074500Y-115242000D01*
G75*
G02*
X76212000Y-115104500I137500J0D01*
G01*
X77937000Y-115104500D01*
G75*
G02*
X78074500Y-115242000I0J-137500D01*
G01*
X78074500Y-115517000D01*
G75*
G02*
X77937000Y-115654500I-137500J0D01*
G01*
X76212000Y-115654500D01*
G75*
G02*
X76074500Y-115517000I0J137500D01*
G01*
G37*
G36*
G01*
X85374500Y-115517000D02*
X85374500Y-115242000D01*
G75*
G02*
X85512000Y-115104500I137500J0D01*
G01*
X87237000Y-115104500D01*
G75*
G02*
X87374500Y-115242000I0J-137500D01*
G01*
X87374500Y-115517000D01*
G75*
G02*
X87237000Y-115654500I-137500J0D01*
G01*
X85512000Y-115654500D01*
G75*
G02*
X85374500Y-115517000I0J137500D01*
G01*
G37*
G36*
G01*
X85374500Y-116787000D02*
X85374500Y-116512000D01*
G75*
G02*
X85512000Y-116374500I137500J0D01*
G01*
X87237000Y-116374500D01*
G75*
G02*
X87374500Y-116512000I0J-137500D01*
G01*
X87374500Y-116787000D01*
G75*
G02*
X87237000Y-116924500I-137500J0D01*
G01*
X85512000Y-116924500D01*
G75*
G02*
X85374500Y-116787000I0J137500D01*
G01*
G37*
G36*
G01*
X85374500Y-118057000D02*
X85374500Y-117782000D01*
G75*
G02*
X85512000Y-117644500I137500J0D01*
G01*
X87237000Y-117644500D01*
G75*
G02*
X87374500Y-117782000I0J-137500D01*
G01*
X87374500Y-118057000D01*
G75*
G02*
X87237000Y-118194500I-137500J0D01*
G01*
X85512000Y-118194500D01*
G75*
G02*
X85374500Y-118057000I0J137500D01*
G01*
G37*
G36*
G01*
X85374500Y-119327000D02*
X85374500Y-119052000D01*
G75*
G02*
X85512000Y-118914500I137500J0D01*
G01*
X87237000Y-118914500D01*
G75*
G02*
X87374500Y-119052000I0J-137500D01*
G01*
X87374500Y-119327000D01*
G75*
G02*
X87237000Y-119464500I-137500J0D01*
G01*
X85512000Y-119464500D01*
G75*
G02*
X85374500Y-119327000I0J137500D01*
G01*
G37*
G36*
G01*
X85374500Y-120597000D02*
X85374500Y-120322000D01*
G75*
G02*
X85512000Y-120184500I137500J0D01*
G01*
X87237000Y-120184500D01*
G75*
G02*
X87374500Y-120322000I0J-137500D01*
G01*
X87374500Y-120597000D01*
G75*
G02*
X87237000Y-120734500I-137500J0D01*
G01*
X85512000Y-120734500D01*
G75*
G02*
X85374500Y-120597000I0J137500D01*
G01*
G37*
G36*
G01*
X85374500Y-121867000D02*
X85374500Y-121592000D01*
G75*
G02*
X85512000Y-121454500I137500J0D01*
G01*
X87237000Y-121454500D01*
G75*
G02*
X87374500Y-121592000I0J-137500D01*
G01*
X87374500Y-121867000D01*
G75*
G02*
X87237000Y-122004500I-137500J0D01*
G01*
X85512000Y-122004500D01*
G75*
G02*
X85374500Y-121867000I0J137500D01*
G01*
G37*
G36*
G01*
X85374500Y-123137000D02*
X85374500Y-122862000D01*
G75*
G02*
X85512000Y-122724500I137500J0D01*
G01*
X87237000Y-122724500D01*
G75*
G02*
X87374500Y-122862000I0J-137500D01*
G01*
X87374500Y-123137000D01*
G75*
G02*
X87237000Y-123274500I-137500J0D01*
G01*
X85512000Y-123274500D01*
G75*
G02*
X85374500Y-123137000I0J137500D01*
G01*
G37*
G36*
G01*
X85374500Y-124407000D02*
X85374500Y-124132000D01*
G75*
G02*
X85512000Y-123994500I137500J0D01*
G01*
X87237000Y-123994500D01*
G75*
G02*
X87374500Y-124132000I0J-137500D01*
G01*
X87374500Y-124407000D01*
G75*
G02*
X87237000Y-124544500I-137500J0D01*
G01*
X85512000Y-124544500D01*
G75*
G02*
X85374500Y-124407000I0J137500D01*
G01*
G37*
G36*
G01*
X85374500Y-125677000D02*
X85374500Y-125402000D01*
G75*
G02*
X85512000Y-125264500I137500J0D01*
G01*
X87237000Y-125264500D01*
G75*
G02*
X87374500Y-125402000I0J-137500D01*
G01*
X87374500Y-125677000D01*
G75*
G02*
X87237000Y-125814500I-137500J0D01*
G01*
X85512000Y-125814500D01*
G75*
G02*
X85374500Y-125677000I0J137500D01*
G01*
G37*
G36*
G01*
X85374500Y-126947000D02*
X85374500Y-126672000D01*
G75*
G02*
X85512000Y-126534500I137500J0D01*
G01*
X87237000Y-126534500D01*
G75*
G02*
X87374500Y-126672000I0J-137500D01*
G01*
X87374500Y-126947000D01*
G75*
G02*
X87237000Y-127084500I-137500J0D01*
G01*
X85512000Y-127084500D01*
G75*
G02*
X85374500Y-126947000I0J137500D01*
G01*
G37*
G36*
G01*
X85374500Y-128217000D02*
X85374500Y-127942000D01*
G75*
G02*
X85512000Y-127804500I137500J0D01*
G01*
X87237000Y-127804500D01*
G75*
G02*
X87374500Y-127942000I0J-137500D01*
G01*
X87374500Y-128217000D01*
G75*
G02*
X87237000Y-128354500I-137500J0D01*
G01*
X85512000Y-128354500D01*
G75*
G02*
X85374500Y-128217000I0J137500D01*
G01*
G37*
G36*
G01*
X85374500Y-129487000D02*
X85374500Y-129212000D01*
G75*
G02*
X85512000Y-129074500I137500J0D01*
G01*
X87237000Y-129074500D01*
G75*
G02*
X87374500Y-129212000I0J-137500D01*
G01*
X87374500Y-129487000D01*
G75*
G02*
X87237000Y-129624500I-137500J0D01*
G01*
X85512000Y-129624500D01*
G75*
G02*
X85374500Y-129487000I0J137500D01*
G01*
G37*
%TD*%
D10*
%TO.C,U7*%
X72263000Y-137668000D03*
X92583000Y-145288000D03*
X74803000Y-137668000D03*
X90043000Y-145288000D03*
X77343000Y-137668000D03*
X87503000Y-145288000D03*
X79883000Y-137668000D03*
X84963000Y-145288000D03*
X82423000Y-137668000D03*
X82423000Y-145288000D03*
X84963000Y-137668000D03*
X79883000Y-145288000D03*
X87503000Y-137668000D03*
X77343000Y-145288000D03*
X90043000Y-137668000D03*
X74803000Y-145288000D03*
X92583000Y-137668000D03*
D11*
X72263000Y-145288000D03*
%TD*%
D12*
%TO.C,J4*%
X109474000Y-139382500D03*
X106934000Y-139382500D03*
X109474000Y-136842500D03*
X106934000Y-136842500D03*
X109474000Y-134302500D03*
X106934000Y-134302500D03*
X109474000Y-131762500D03*
X106934000Y-131762500D03*
X109474000Y-129222500D03*
D13*
X106934000Y-129222500D03*
%TD*%
D14*
%TO.C,FID6*%
X122428000Y-101854000D03*
%TD*%
%TO.C,FID4*%
X52324000Y-149225000D03*
%TD*%
%TO.C,FID2*%
X122428000Y-151384000D03*
%TD*%
D15*
%TO.C,J1*%
X63090000Y-106703000D03*
X58390000Y-106703000D03*
X63090000Y-107338000D03*
X58390000Y-107338000D03*
X63090000Y-107973000D03*
X58390000Y-107973000D03*
X63090000Y-108608000D03*
X58390000Y-108608000D03*
X63090000Y-109243000D03*
X58390000Y-109243000D03*
X63090000Y-109878000D03*
X58390000Y-109878000D03*
X63090000Y-110513000D03*
X58390000Y-110513000D03*
X63090000Y-111148000D03*
X58390000Y-111148000D03*
X63090000Y-111783000D03*
X58390000Y-111783000D03*
X63090000Y-112418000D03*
X58390000Y-112418000D03*
X63090000Y-113053000D03*
X58390000Y-113053000D03*
X63090000Y-113688000D03*
X58390000Y-113688000D03*
X63090000Y-114323000D03*
X58390000Y-114323000D03*
X63090000Y-114958000D03*
X58390000Y-114958000D03*
X63090000Y-115593000D03*
X58390000Y-115593000D03*
X63090000Y-116228000D03*
X58390000Y-116228000D03*
X63090000Y-116863000D03*
X58390000Y-116863000D03*
X63090000Y-117498000D03*
X58390000Y-117498000D03*
X63090000Y-118133000D03*
X58390000Y-118133000D03*
X63090000Y-118768000D03*
X58390000Y-118768000D03*
D16*
X60740000Y-103000000D03*
X60740000Y-122470000D03*
%TD*%
D13*
%TO.C,J6*%
X108712000Y-116078000D03*
D12*
X106172000Y-116078000D03*
X103632000Y-116078000D03*
X101092000Y-116078000D03*
X98552000Y-116078000D03*
%TD*%
D17*
%TO.C,H1*%
X52590000Y-102605000D03*
%TD*%
%TO.C,H2*%
X94365000Y-150295000D03*
%TD*%
%TO.C,H3*%
X121815000Y-113820000D03*
%TD*%
D18*
%TO.C,J5*%
X119596000Y-128000000D03*
X119596000Y-141550000D03*
X120396000Y-134800000D03*
D19*
X116596000Y-133500000D03*
G36*
G01*
X117307200Y-136862000D02*
X115884800Y-136862000D01*
G75*
G02*
X115834000Y-136811200I0J50800D01*
G01*
X115834000Y-135388800D01*
G75*
G02*
X115884800Y-135338000I50800J0D01*
G01*
X117307200Y-135338000D01*
G75*
G02*
X117358000Y-135388800I0J-50800D01*
G01*
X117358000Y-136811200D01*
G75*
G02*
X117307200Y-136862000I-50800J0D01*
G01*
G37*
X116596000Y-138200000D03*
X116596000Y-131400000D03*
X114096000Y-131400000D03*
X114096000Y-138200000D03*
X114096000Y-136100000D03*
X114096000Y-133900000D03*
%TD*%
D20*
%TO.C,J2*%
X98515000Y-103378000D03*
X111655000Y-103378000D03*
D21*
X108585000Y-106088000D03*
D19*
X106085000Y-106088000D03*
X104085000Y-106088000D03*
X101585000Y-106088000D03*
D22*
X111655000Y-106688000D03*
X98515000Y-106688000D03*
D23*
X105085000Y-110868000D03*
%TD*%
M02*
