M48
; DRILL file {KiCad 5.1.10-88a1d61d58~89~ubuntu20.04.1} date Wed Oct  6 22:40:26 2021
; FORMAT={-:-/ absolute / metric / decimal}
; #@! TF.CreationDate,2021-10-06T22:40:26-05:00
; #@! TF.GenerationSoftware,Kicad,Pcbnew,5.1.10-88a1d61d58~89~ubuntu20.04.1
FMAT,2
METRIC
T1C0.400
T2C0.900
T3C0.920
T4C1.000
T5C1.300
T6C2.250
T7C2.300
T8C3.200
T9C0.700
T10C0.900
%
G90
G05
T1
X51.303Y-125.471
X51.308Y-128.524
X51.308Y-117.856
X51.308Y-127.0
X51.308Y-111.76
X51.308Y-108.712
X51.308Y-110.236
X51.308Y-115.57
X51.308Y-119.38
X51.308Y-120.904
X51.308Y-122.428
X51.308Y-123.952
X51.308Y-130.048
X51.308Y-131.572
X51.308Y-133.096
X51.308Y-113.284
X51.373Y-114.572
X52.705Y-138.43
X53.383Y-144.442
X57.15Y-122.301
X57.15Y-127.0
X57.15Y-133.985
X58.039Y-124.189
X58.039Y-125.239
X58.864Y-149.923
X58.928Y-120.142
X60.198Y-118.491
X60.642Y-149.796
X60.706Y-107.95
X60.706Y-111.76
X60.706Y-116.332
X61.214Y-118.491
X63.246Y-105.029
X64.516Y-136.017
X64.643Y-137.16
X64.686Y-148.928
X64.686Y-149.903
X66.04Y-143.256
X66.802Y-124.714
X66.802Y-129.032
X66.802Y-130.81
X66.934Y-126.106
X67.056Y-123.19
X67.056Y-127.508
X67.183Y-138.43
X67.365Y-111.799
X67.818Y-121.92
X68.09Y-120.269
X68.834Y-133.46
X68.834Y-134.51
X69.025Y-109.41
X69.037Y-112.126
X69.051Y-118.618
X69.088Y-110.998
X69.088Y-114.046
X69.088Y-117.0
X69.088Y-121.666
X69.093Y-107.955
X69.178Y-115.458
X69.186Y-120.086
X70.182Y-105.489
X70.472Y-138.367
X70.929Y-141.351
X71.247Y-144.018
X72.733Y-126.38
X73.66Y-116.967
X73.724Y-112.459
X73.75Y-133.575
X74.024Y-144.653
X74.385Y-120.826
X74.385Y-125.369
X74.676Y-134.747
X74.993Y-113.983
X75.074Y-144.653
X75.083Y-111.003
X75.51Y-135.584
X75.692Y-108.966
X76.798Y-125.349
X76.798Y-126.746
X77.216Y-148.844
X78.232Y-121.158
X78.359Y-103.251
X78.766Y-124.434
X78.867Y-111.723
X79.121Y-142.277
X79.502Y-121.031
X80.137Y-115.316
X80.2Y-139.129
X80.264Y-141.097
X80.518Y-136.906
X81.153Y-135.763
X81.332Y-133.668
X81.332Y-134.7
X81.788Y-115.189
X81.788Y-148.844
X81.973Y-124.38
X82.042Y-110.998
X82.042Y-131.318
X82.187Y-121.092
X82.55Y-104.902
X82.931Y-114.972
X82.931Y-143.637
X83.185Y-121.031
X84.328Y-121.031
X84.582Y-134.134
X84.884Y-124.273
X85.572Y-121.031
X85.582Y-116.792
X87.122Y-103.505
X88.646Y-148.844
X88.781Y-106.688
X88.833Y-116.078
X89.752Y-127.254
X89.789Y-118.237
X89.789Y-119.253
X90.17Y-125.539
X90.424Y-111.379
X91.186Y-121.158
X91.567Y-133.35
X91.821Y-139.446
X91.948Y-112.522
X92.146Y-140.391
X92.964Y-118.237
X93.535Y-123.19
X93.594Y-135.282
X93.726Y-125.222
X93.789Y-139.954
X93.98Y-110.236
X94.139Y-133.54
X94.234Y-129.921
X94.361Y-132.207
X94.985Y-126.061
X95.504Y-118.11
X96.52Y-142.367
X97.536Y-113.284
X98.806Y-142.24
X99.187Y-123.571
X99.187Y-127.381
X99.187Y-129.159
X99.187Y-131.064
X99.187Y-132.969
X99.187Y-134.874
X99.187Y-136.779
X99.187Y-138.684
X101.727Y-120.84
X102.749Y-119.882
X104.648Y-145.796
X108.788Y-148.946
X110.515Y-144.475
X113.538Y-140.97
X115.316Y-117.856
X115.57Y-112.268
X116.078Y-140.462
X116.166Y-148.795
X119.634Y-104.902
X119.888Y-149.606
X120.206Y-138.493
X123.063Y-130.366
T2
X114.096Y-131.4
X114.096Y-133.5
X114.096Y-135.7
X114.096Y-138.2
X116.596Y-131.4
X116.596Y-133.5
X116.596Y-136.1
X116.596Y-138.2
T3
X101.585Y-106.088
X104.085Y-106.088
X106.085Y-106.088
X108.585Y-106.088
T4
X98.552Y-116.078
X101.092Y-116.078
X103.632Y-116.078
X106.172Y-116.078
X106.934Y-129.222
X106.934Y-131.762
X106.934Y-134.302
X106.934Y-136.843
X106.934Y-139.382
X108.712Y-116.078
X109.474Y-129.222
X109.474Y-131.762
X109.474Y-134.302
X109.474Y-136.843
X109.474Y-139.382
T6
X119.596Y-128.05
X119.596Y-141.6
X120.396Y-134.8
T7
X98.515Y-103.378
X111.655Y-103.378
T8
X52.59Y-102.605
X94.365Y-150.295
X121.815Y-113.82
T9
X60.74Y-120.42
T10
X60.74Y-105.05
T5
G00X98.515Y-107.188
M15
G01X98.515Y-106.188
M16
G05
G00X105.585Y-110.868
M15
G01X104.585Y-110.868
M16
G05
G00X111.655Y-106.188
M15
G01X111.655Y-107.188
M16
G05
T0
M30
