%TF.GenerationSoftware,KiCad,Pcbnew,5.1.10-88a1d61d58~89~ubuntu20.04.1*%
%TF.CreationDate,2021-10-06T22:40:20-05:00*%
%TF.ProjectId,serial_rewind_d2,73657269-616c-45f7-9265-77696e645f64,rev?*%
%TF.SameCoordinates,Original*%
%TF.FileFunction,Copper,L2,Bot*%
%TF.FilePolarity,Positive*%
%FSLAX46Y46*%
G04 Gerber Fmt 4.6, Leading zero omitted, Abs format (unit mm)*
G04 Created by KiCad (PCBNEW 5.1.10-88a1d61d58~89~ubuntu20.04.1) date 2021-10-06 22:40:20*
%MOMM*%
%LPD*%
G01*
G04 APERTURE LIST*
%TA.AperFunction,NonConductor*%
%ADD10C,0.300000*%
%TD*%
%TA.AperFunction,SMDPad,CuDef*%
%ADD11C,1.000000*%
%TD*%
%TA.AperFunction,SMDPad,CuDef*%
%ADD12R,2.500000X0.350000*%
%TD*%
%TA.AperFunction,SMDPad,CuDef*%
%ADD13R,2.000000X2.500000*%
%TD*%
%TA.AperFunction,ComponentPad*%
%ADD14R,1.700000X1.700000*%
%TD*%
%TA.AperFunction,ComponentPad*%
%ADD15O,1.700000X1.700000*%
%TD*%
%TA.AperFunction,ComponentPad*%
%ADD16C,6.400000*%
%TD*%
%TA.AperFunction,ComponentPad*%
%ADD17C,3.500000*%
%TD*%
%TA.AperFunction,ComponentPad*%
%ADD18C,1.422400*%
%TD*%
%TA.AperFunction,ComponentPad*%
%ADD19R,1.422400X1.422400*%
%TD*%
%TA.AperFunction,ComponentPad*%
%ADD20R,1.524000X1.524000*%
%TD*%
%TA.AperFunction,ComponentPad*%
%ADD21C,1.524000*%
%TD*%
%TA.AperFunction,ComponentPad*%
%ADD22O,2.300000X3.300000*%
%TD*%
%TA.AperFunction,ComponentPad*%
%ADD23O,2.900000X1.900000*%
%TD*%
%TA.AperFunction,ViaPad*%
%ADD24C,0.800000*%
%TD*%
%TA.AperFunction,Conductor*%
%ADD25C,0.500000*%
%TD*%
%TA.AperFunction,Conductor*%
%ADD26C,0.250000*%
%TD*%
%TA.AperFunction,Conductor*%
%ADD27C,1.000000*%
%TD*%
%TA.AperFunction,Conductor*%
%ADD28C,0.200000*%
%TD*%
%TA.AperFunction,Conductor*%
%ADD29C,0.254000*%
%TD*%
%TA.AperFunction,Conductor*%
%ADD30C,0.150000*%
%TD*%
G04 APERTURE END LIST*
D10*
X53288285Y-151324571D02*
X53288285Y-152396000D01*
X53359714Y-152610285D01*
X53502571Y-152753142D01*
X53716857Y-152824571D01*
X53859714Y-152824571D01*
X52145428Y-151324571D02*
X52145428Y-152396000D01*
X52216857Y-152610285D01*
X52359714Y-152753142D01*
X52574000Y-152824571D01*
X52716857Y-152824571D01*
X50716857Y-152824571D02*
X51431142Y-152824571D01*
X51431142Y-151324571D01*
D11*
%TO.P,FID6,*%
%TO.N,*%
X122428000Y-102108000D03*
%TD*%
%TO.P,FID4,*%
%TO.N,*%
X56388000Y-150876000D03*
%TD*%
%TO.P,FID2,*%
%TO.N,*%
X122428000Y-151384000D03*
%TD*%
D12*
%TO.P,J1,1*%
%TO.N,Net-(J1-Pad1)*%
X63090000Y-106703000D03*
%TO.P,J1,2*%
X58390000Y-106703000D03*
%TO.P,J1,3*%
X63090000Y-107338000D03*
%TO.P,J1,4*%
%TO.N,Net-(J1-Pad4)*%
X58390000Y-107338000D03*
%TO.P,J1,5*%
%TO.N,Net-(J1-Pad5)*%
X63090000Y-107973000D03*
%TO.P,J1,6*%
%TO.N,Net-(J1-Pad6)*%
X58390000Y-107973000D03*
%TO.P,J1,7*%
%TO.N,Net-(J1-Pad7)*%
X63090000Y-108608000D03*
%TO.P,J1,8*%
%TO.N,Net-(J1-Pad8)*%
X58390000Y-108608000D03*
%TO.P,J1,9*%
%TO.N,Net-(J1-Pad9)*%
X63090000Y-109243000D03*
%TO.P,J1,10*%
%TO.N,Net-(J1-Pad10)*%
X58390000Y-109243000D03*
%TO.P,J1,11*%
%TO.N,Net-(J1-Pad11)*%
X63090000Y-109878000D03*
%TO.P,J1,12*%
%TO.N,Net-(J1-Pad12)*%
X58390000Y-109878000D03*
%TO.P,J1,13*%
%TO.N,Net-(J1-Pad13)*%
X63090000Y-110513000D03*
%TO.P,J1,14*%
%TO.N,Net-(J1-Pad14)*%
X58390000Y-110513000D03*
%TO.P,J1,15*%
%TO.N,Net-(J1-Pad15)*%
X63090000Y-111148000D03*
%TO.P,J1,16*%
%TO.N,Net-(J1-Pad16)*%
X58390000Y-111148000D03*
%TO.P,J1,17*%
%TO.N,Net-(J1-Pad17)*%
X63090000Y-111783000D03*
%TO.P,J1,18*%
%TO.N,Net-(J1-Pad18)*%
X58390000Y-111783000D03*
%TO.P,J1,19*%
%TO.N,Net-(J1-Pad19)*%
X63090000Y-112418000D03*
%TO.P,J1,20*%
%TO.N,Net-(J1-Pad20)*%
X58390000Y-112418000D03*
%TO.P,J1,21*%
%TO.N,Net-(J1-Pad21)*%
X63090000Y-113053000D03*
%TO.P,J1,22*%
%TO.N,Net-(J1-Pad22)*%
X58390000Y-113053000D03*
%TO.P,J1,23*%
%TO.N,Net-(J1-Pad23)*%
X63090000Y-113688000D03*
%TO.P,J1,24*%
%TO.N,Net-(J1-Pad24)*%
X58390000Y-113688000D03*
%TO.P,J1,25*%
%TO.N,Net-(J1-Pad25)*%
X63090000Y-114323000D03*
%TO.P,J1,26*%
%TO.N,Net-(J1-Pad26)*%
X58390000Y-114323000D03*
%TO.P,J1,27*%
%TO.N,Net-(J1-Pad27)*%
X63090000Y-114958000D03*
%TO.P,J1,28*%
%TO.N,Net-(J1-Pad28)*%
X58390000Y-114958000D03*
%TO.P,J1,29*%
%TO.N,Net-(J1-Pad29)*%
X63090000Y-115593000D03*
%TO.P,J1,30*%
%TO.N,Net-(J1-Pad30)*%
X58390000Y-115593000D03*
%TO.P,J1,31*%
%TO.N,Net-(J1-Pad31)*%
X63090000Y-116228000D03*
%TO.P,J1,32*%
%TO.N,Net-(J1-Pad32)*%
X58390000Y-116228000D03*
%TO.P,J1,33*%
%TO.N,Net-(J1-Pad33)*%
X63090000Y-116863000D03*
%TO.P,J1,34*%
%TO.N,Net-(J1-Pad34)*%
X58390000Y-116863000D03*
%TO.P,J1,35*%
%TO.N,Net-(J1-Pad35)*%
X63090000Y-117498000D03*
%TO.P,J1,36*%
%TO.N,Net-(J1-Pad36)*%
X58390000Y-117498000D03*
%TO.P,J1,37*%
%TO.N,+5V*%
X63090000Y-118133000D03*
%TO.P,J1,38*%
X58390000Y-118133000D03*
%TO.P,J1,39*%
X63090000Y-118768000D03*
%TO.P,J1,40*%
X58390000Y-118768000D03*
D13*
%TO.P,J1,MP1*%
%TO.N,N/C*%
X60740000Y-103000000D03*
%TO.P,J1,MP2*%
X60740000Y-122470000D03*
%TD*%
D14*
%TO.P,J4,1*%
%TO.N,GND*%
X109474000Y-129222500D03*
D15*
%TO.P,J4,2*%
X106934000Y-129222500D03*
%TO.P,J4,3*%
%TO.N,/TXD+*%
X109474000Y-131762500D03*
%TO.P,J4,4*%
%TO.N,/TXD-*%
X106934000Y-131762500D03*
%TO.P,J4,5*%
%TO.N,/RXD+*%
X109474000Y-134302500D03*
%TO.P,J4,6*%
%TO.N,/RXD-*%
X106934000Y-134302500D03*
%TO.P,J4,7*%
%TO.N,/HSKi*%
X109474000Y-136842500D03*
%TO.P,J4,8*%
%TO.N,/HSKo*%
X106934000Y-136842500D03*
%TO.P,J4,9*%
%TO.N,/GPi*%
X109474000Y-139382500D03*
%TO.P,J4,10*%
%TO.N,+5VL*%
X106934000Y-139382500D03*
%TD*%
D14*
%TO.P,J6,1*%
%TO.N,VBUS*%
X108712000Y-116078000D03*
D15*
%TO.P,J6,2*%
%TO.N,/USB-*%
X106172000Y-116078000D03*
%TO.P,J6,3*%
%TO.N,/USB+*%
X103632000Y-116078000D03*
%TO.P,J6,4*%
%TO.N,GND*%
X101092000Y-116078000D03*
%TO.P,J6,5*%
%TO.N,Net-(J6-Pad5)*%
X98552000Y-116078000D03*
%TD*%
%TO.P,U1,1*%
%TO.N,~COMM_TXD*%
%TA.AperFunction,SMDPad,CuDef*%
G36*
G01*
X88351500Y-129563500D02*
X88051500Y-129563500D01*
G75*
G02*
X87901500Y-129413500I0J150000D01*
G01*
X87901500Y-127663500D01*
G75*
G02*
X88051500Y-127513500I150000J0D01*
G01*
X88351500Y-127513500D01*
G75*
G02*
X88501500Y-127663500I0J-150000D01*
G01*
X88501500Y-129413500D01*
G75*
G02*
X88351500Y-129563500I-150000J0D01*
G01*
G37*
%TD.AperFunction*%
%TO.P,U1,2*%
%TO.N,~COMM_DTR*%
%TA.AperFunction,SMDPad,CuDef*%
G36*
G01*
X87081500Y-129563500D02*
X86781500Y-129563500D01*
G75*
G02*
X86631500Y-129413500I0J150000D01*
G01*
X86631500Y-127663500D01*
G75*
G02*
X86781500Y-127513500I150000J0D01*
G01*
X87081500Y-127513500D01*
G75*
G02*
X87231500Y-127663500I0J-150000D01*
G01*
X87231500Y-129413500D01*
G75*
G02*
X87081500Y-129563500I-150000J0D01*
G01*
G37*
%TD.AperFunction*%
%TO.P,U1,3*%
%TO.N,~COMM_RTS*%
%TA.AperFunction,SMDPad,CuDef*%
G36*
G01*
X85811500Y-129563500D02*
X85511500Y-129563500D01*
G75*
G02*
X85361500Y-129413500I0J150000D01*
G01*
X85361500Y-127663500D01*
G75*
G02*
X85511500Y-127513500I150000J0D01*
G01*
X85811500Y-127513500D01*
G75*
G02*
X85961500Y-127663500I0J-150000D01*
G01*
X85961500Y-129413500D01*
G75*
G02*
X85811500Y-129563500I-150000J0D01*
G01*
G37*
%TD.AperFunction*%
%TO.P,U1,4*%
%TO.N,COMM_SHDN*%
%TA.AperFunction,SMDPad,CuDef*%
G36*
G01*
X84541500Y-129563500D02*
X84241500Y-129563500D01*
G75*
G02*
X84091500Y-129413500I0J150000D01*
G01*
X84091500Y-127663500D01*
G75*
G02*
X84241500Y-127513500I150000J0D01*
G01*
X84541500Y-127513500D01*
G75*
G02*
X84691500Y-127663500I0J-150000D01*
G01*
X84691500Y-129413500D01*
G75*
G02*
X84541500Y-129563500I-150000J0D01*
G01*
G37*
%TD.AperFunction*%
%TO.P,U1,5*%
%TO.N,Net-(R44-Pad1)*%
%TA.AperFunction,SMDPad,CuDef*%
G36*
G01*
X83271500Y-129563500D02*
X82971500Y-129563500D01*
G75*
G02*
X82821500Y-129413500I0J150000D01*
G01*
X82821500Y-127663500D01*
G75*
G02*
X82971500Y-127513500I150000J0D01*
G01*
X83271500Y-127513500D01*
G75*
G02*
X83421500Y-127663500I0J-150000D01*
G01*
X83421500Y-129413500D01*
G75*
G02*
X83271500Y-129563500I-150000J0D01*
G01*
G37*
%TD.AperFunction*%
%TO.P,U1,6*%
%TO.N,~COMM_GPIO_L*%
%TA.AperFunction,SMDPad,CuDef*%
G36*
G01*
X82001500Y-129563500D02*
X81701500Y-129563500D01*
G75*
G02*
X81551500Y-129413500I0J150000D01*
G01*
X81551500Y-127663500D01*
G75*
G02*
X81701500Y-127513500I150000J0D01*
G01*
X82001500Y-127513500D01*
G75*
G02*
X82151500Y-127663500I0J-150000D01*
G01*
X82151500Y-129413500D01*
G75*
G02*
X82001500Y-129563500I-150000J0D01*
G01*
G37*
%TD.AperFunction*%
%TO.P,U1,7*%
%TO.N,COMM_TRXC*%
%TA.AperFunction,SMDPad,CuDef*%
G36*
G01*
X80731500Y-129563500D02*
X80431500Y-129563500D01*
G75*
G02*
X80281500Y-129413500I0J150000D01*
G01*
X80281500Y-127663500D01*
G75*
G02*
X80431500Y-127513500I150000J0D01*
G01*
X80731500Y-127513500D01*
G75*
G02*
X80881500Y-127663500I0J-150000D01*
G01*
X80881500Y-129413500D01*
G75*
G02*
X80731500Y-129563500I-150000J0D01*
G01*
G37*
%TD.AperFunction*%
%TO.P,U1,8*%
%TO.N,COMM_RXD*%
%TA.AperFunction,SMDPad,CuDef*%
G36*
G01*
X79461500Y-129563500D02*
X79161500Y-129563500D01*
G75*
G02*
X79011500Y-129413500I0J150000D01*
G01*
X79011500Y-127663500D01*
G75*
G02*
X79161500Y-127513500I150000J0D01*
G01*
X79461500Y-127513500D01*
G75*
G02*
X79611500Y-127663500I0J-150000D01*
G01*
X79611500Y-129413500D01*
G75*
G02*
X79461500Y-129563500I-150000J0D01*
G01*
G37*
%TD.AperFunction*%
%TO.P,U1,9*%
%TO.N,GND*%
%TA.AperFunction,SMDPad,CuDef*%
G36*
G01*
X78191500Y-129563500D02*
X77891500Y-129563500D01*
G75*
G02*
X77741500Y-129413500I0J150000D01*
G01*
X77741500Y-127663500D01*
G75*
G02*
X77891500Y-127513500I150000J0D01*
G01*
X78191500Y-127513500D01*
G75*
G02*
X78341500Y-127663500I0J-150000D01*
G01*
X78341500Y-129413500D01*
G75*
G02*
X78191500Y-129563500I-150000J0D01*
G01*
G37*
%TD.AperFunction*%
%TO.P,U1,10*%
%TO.N,PHY_RXD+*%
%TA.AperFunction,SMDPad,CuDef*%
G36*
G01*
X78191500Y-120263500D02*
X77891500Y-120263500D01*
G75*
G02*
X77741500Y-120113500I0J150000D01*
G01*
X77741500Y-118363500D01*
G75*
G02*
X77891500Y-118213500I150000J0D01*
G01*
X78191500Y-118213500D01*
G75*
G02*
X78341500Y-118363500I0J-150000D01*
G01*
X78341500Y-120113500D01*
G75*
G02*
X78191500Y-120263500I-150000J0D01*
G01*
G37*
%TD.AperFunction*%
%TO.P,U1,11*%
%TO.N,PHY_RXD-*%
%TA.AperFunction,SMDPad,CuDef*%
G36*
G01*
X79461500Y-120263500D02*
X79161500Y-120263500D01*
G75*
G02*
X79011500Y-120113500I0J150000D01*
G01*
X79011500Y-118363500D01*
G75*
G02*
X79161500Y-118213500I150000J0D01*
G01*
X79461500Y-118213500D01*
G75*
G02*
X79611500Y-118363500I0J-150000D01*
G01*
X79611500Y-120113500D01*
G75*
G02*
X79461500Y-120263500I-150000J0D01*
G01*
G37*
%TD.AperFunction*%
%TO.P,U1,12*%
%TO.N,PHY_HSKi*%
%TA.AperFunction,SMDPad,CuDef*%
G36*
G01*
X80731500Y-120263500D02*
X80431500Y-120263500D01*
G75*
G02*
X80281500Y-120113500I0J150000D01*
G01*
X80281500Y-118363500D01*
G75*
G02*
X80431500Y-118213500I150000J0D01*
G01*
X80731500Y-118213500D01*
G75*
G02*
X80881500Y-118363500I0J-150000D01*
G01*
X80881500Y-120113500D01*
G75*
G02*
X80731500Y-120263500I-150000J0D01*
G01*
G37*
%TD.AperFunction*%
%TO.P,U1,13*%
%TO.N,PHY_GPi*%
%TA.AperFunction,SMDPad,CuDef*%
G36*
G01*
X82001500Y-120263500D02*
X81701500Y-120263500D01*
G75*
G02*
X81551500Y-120113500I0J150000D01*
G01*
X81551500Y-118363500D01*
G75*
G02*
X81701500Y-118213500I150000J0D01*
G01*
X82001500Y-118213500D01*
G75*
G02*
X82151500Y-118363500I0J-150000D01*
G01*
X82151500Y-120113500D01*
G75*
G02*
X82001500Y-120263500I-150000J0D01*
G01*
G37*
%TD.AperFunction*%
%TO.P,U1,14*%
%TO.N,-5V*%
%TA.AperFunction,SMDPad,CuDef*%
G36*
G01*
X83271500Y-120263500D02*
X82971500Y-120263500D01*
G75*
G02*
X82821500Y-120113500I0J150000D01*
G01*
X82821500Y-118363500D01*
G75*
G02*
X82971500Y-118213500I150000J0D01*
G01*
X83271500Y-118213500D01*
G75*
G02*
X83421500Y-118363500I0J-150000D01*
G01*
X83421500Y-120113500D01*
G75*
G02*
X83271500Y-120263500I-150000J0D01*
G01*
G37*
%TD.AperFunction*%
%TO.P,U1,15*%
%TO.N,PHY_HSKo*%
%TA.AperFunction,SMDPad,CuDef*%
G36*
G01*
X84541500Y-120263500D02*
X84241500Y-120263500D01*
G75*
G02*
X84091500Y-120113500I0J150000D01*
G01*
X84091500Y-118363500D01*
G75*
G02*
X84241500Y-118213500I150000J0D01*
G01*
X84541500Y-118213500D01*
G75*
G02*
X84691500Y-118363500I0J-150000D01*
G01*
X84691500Y-120113500D01*
G75*
G02*
X84541500Y-120263500I-150000J0D01*
G01*
G37*
%TD.AperFunction*%
%TO.P,U1,16*%
%TO.N,PHY_TXD+*%
%TA.AperFunction,SMDPad,CuDef*%
G36*
G01*
X85811500Y-120263500D02*
X85511500Y-120263500D01*
G75*
G02*
X85361500Y-120113500I0J150000D01*
G01*
X85361500Y-118363500D01*
G75*
G02*
X85511500Y-118213500I150000J0D01*
G01*
X85811500Y-118213500D01*
G75*
G02*
X85961500Y-118363500I0J-150000D01*
G01*
X85961500Y-120113500D01*
G75*
G02*
X85811500Y-120263500I-150000J0D01*
G01*
G37*
%TD.AperFunction*%
%TO.P,U1,17*%
%TO.N,PHY_TXD-*%
%TA.AperFunction,SMDPad,CuDef*%
G36*
G01*
X87081500Y-120263500D02*
X86781500Y-120263500D01*
G75*
G02*
X86631500Y-120113500I0J150000D01*
G01*
X86631500Y-118363500D01*
G75*
G02*
X86781500Y-118213500I150000J0D01*
G01*
X87081500Y-118213500D01*
G75*
G02*
X87231500Y-118363500I0J-150000D01*
G01*
X87231500Y-120113500D01*
G75*
G02*
X87081500Y-120263500I-150000J0D01*
G01*
G37*
%TD.AperFunction*%
%TO.P,U1,18*%
%TO.N,+5V*%
%TA.AperFunction,SMDPad,CuDef*%
G36*
G01*
X88351500Y-120263500D02*
X88051500Y-120263500D01*
G75*
G02*
X87901500Y-120113500I0J150000D01*
G01*
X87901500Y-118363500D01*
G75*
G02*
X88051500Y-118213500I150000J0D01*
G01*
X88351500Y-118213500D01*
G75*
G02*
X88501500Y-118363500I0J-150000D01*
G01*
X88501500Y-120113500D01*
G75*
G02*
X88351500Y-120263500I-150000J0D01*
G01*
G37*
%TD.AperFunction*%
%TD*%
D16*
%TO.P,H1,1*%
%TO.N,N/C*%
X52590000Y-102605000D03*
%TD*%
%TO.P,H2,1*%
%TO.N,N/C*%
X94365000Y-150295000D03*
%TD*%
%TO.P,H3,1*%
%TO.N,N/C*%
X121815000Y-113820000D03*
%TD*%
D17*
%TO.P,J5,SH1*%
%TO.N,N/C*%
X119596000Y-141600000D03*
%TO.P,J5,SH3*%
X119596000Y-128050000D03*
%TO.P,J5,SH2*%
X120396000Y-134800000D03*
D18*
%TO.P,J5,2*%
%TO.N,/HSKi*%
X116596000Y-136100000D03*
D19*
%TO.P,J5,1*%
%TO.N,/HSKo*%
X116596000Y-133500000D03*
D18*
%TO.P,J5,3*%
%TO.N,/TXD-*%
X116596000Y-131400000D03*
%TO.P,J5,5*%
%TO.N,/RXD-*%
X116596000Y-138200000D03*
%TO.P,J5,8*%
%TO.N,/RXD+*%
X114096000Y-138200000D03*
%TO.P,J5,6*%
%TO.N,/TXD+*%
X114096000Y-131400000D03*
%TO.P,J5,4*%
%TO.N,GND*%
X114096000Y-133500000D03*
%TO.P,J5,7*%
%TO.N,/GPi*%
X114096000Y-135700000D03*
%TD*%
D17*
%TO.P,J2,5*%
%TO.N,GND*%
X98515000Y-103378000D03*
X111655000Y-103378000D03*
D20*
%TO.P,J2,1*%
%TO.N,VBUS*%
X108585000Y-106088000D03*
D21*
%TO.P,J2,2*%
%TO.N,/USB-*%
X106085000Y-106088000D03*
%TO.P,J2,3*%
%TO.N,/USB+*%
X104085000Y-106088000D03*
%TO.P,J2,4*%
%TO.N,GND*%
X101585000Y-106088000D03*
D22*
%TO.P,J2,5*%
X111655000Y-106688000D03*
X98515000Y-106688000D03*
D23*
X105085000Y-110868000D03*
%TD*%
D24*
%TO.N,GND*%
X60706000Y-111760000D03*
X60706000Y-116332000D03*
X57150000Y-122301000D03*
X57150000Y-127000000D03*
X58928000Y-120142000D03*
X73660000Y-116967000D03*
X73723500Y-112458500D03*
X60706000Y-107950000D03*
X91567000Y-133350000D03*
X82931000Y-143637000D03*
X71247000Y-144018000D03*
X76798010Y-126746000D03*
X89752010Y-127254000D03*
X99187000Y-127381000D03*
X99187000Y-129159000D03*
X99187000Y-131064000D03*
X99187000Y-132969000D03*
X99187000Y-134874000D03*
X99187000Y-136779000D03*
X99187000Y-138684000D03*
X99187000Y-123571000D03*
X110515400Y-144475200D03*
X66040000Y-143256000D03*
X53383000Y-144442000D03*
X52705000Y-138430000D03*
X57150000Y-133985000D03*
X77216000Y-148844000D03*
X81788000Y-148844000D03*
X88646000Y-148844000D03*
X113538000Y-140970000D03*
X119634000Y-104902000D03*
X115570000Y-112268000D03*
X87122000Y-103505000D03*
X88781000Y-106688000D03*
X80137000Y-115316000D03*
X91186000Y-121158000D03*
X91948000Y-112522000D03*
X92964000Y-118237000D03*
X93980000Y-110236000D03*
X97536000Y-113284000D03*
X104648000Y-145796000D03*
X58864500Y-149923500D03*
X60642500Y-149796500D03*
X115316000Y-117856000D03*
X119888000Y-149606000D03*
X120205500Y-138493500D03*
X70472300Y-138366500D03*
X70182500Y-105488500D03*
X75082968Y-111003032D03*
X93535500Y-123190000D03*
%TO.N,+5V*%
X89789000Y-119253000D03*
X98806000Y-142240000D03*
X96520000Y-142367000D03*
X64686006Y-149903000D03*
X64643000Y-137160000D03*
X64686006Y-148927994D03*
X64516000Y-136017000D03*
X60198000Y-118491000D03*
X61214000Y-118491000D03*
X89789000Y-118237000D03*
X95504000Y-118110000D03*
X101727000Y-120840500D03*
X102749350Y-119881650D03*
X82550000Y-104902000D03*
X78359000Y-103251000D03*
%TO.N,/HSKo*%
X108788200Y-148945600D03*
%TO.N,/HSKi*%
X116166273Y-148795010D03*
%TO.N,/RXD+*%
X116078000Y-140462000D03*
%TO.N,/TXD-*%
X123063000Y-130365504D03*
%TO.N,/USB-*%
X58039000Y-125239000D03*
X74024000Y-144653000D03*
X68834000Y-134510000D03*
%TO.N,/USB+*%
X58039000Y-124189000D03*
X75074000Y-144653000D03*
X68834000Y-133460000D03*
%TO.N,Net-(J1-Pad19)*%
X69051010Y-118618000D03*
%TO.N,Net-(J1-Pad27)*%
X66802000Y-124714000D03*
%TO.N,Net-(J1-Pad35)*%
X66802000Y-130810000D03*
%TO.N,Net-(J1-Pad9)*%
X69088000Y-110998000D03*
%TO.N,Net-(J1-Pad15)*%
X69178155Y-115458134D03*
%TO.N,Net-(J1-Pad23)*%
X69088000Y-121666000D03*
%TO.N,-10V*%
X72732845Y-126380262D03*
X67183000Y-138430000D03*
%TO.N,Net-(J1-Pad29)*%
X66933660Y-126106340D03*
%TO.N,Net-(J1-Pad7)*%
X69024504Y-109410500D03*
%TO.N,Net-(J1-Pad13)*%
X69088000Y-114046000D03*
%TO.N,Net-(J1-Pad21)*%
X69186280Y-120085874D03*
%TO.N,Net-(J1-Pad5)*%
X69092660Y-107954660D03*
%TO.N,Net-(J1-Pad33)*%
X66802000Y-129032000D03*
%TO.N,Net-(J1-Pad11)*%
X69036931Y-112125814D03*
%TO.N,Net-(J1-Pad17)*%
X69088000Y-117000244D03*
%TO.N,Net-(J1-Pad25)*%
X67818000Y-121920000D03*
%TO.N,Net-(J1-Pad31)*%
X67056000Y-127508000D03*
%TO.N,Net-(J1-Pad8)*%
X51307994Y-111760000D03*
%TO.N,Net-(J1-Pad14)*%
X51308000Y-115570000D03*
%TO.N,Net-(J1-Pad22)*%
X51308000Y-122428000D03*
%TO.N,Net-(J1-Pad28)*%
X51307990Y-127000000D03*
%TO.N,Net-(J1-Pad4)*%
X51307996Y-108712000D03*
%TO.N,Net-(J1-Pad12)*%
X51373456Y-114572132D03*
%TO.N,Net-(J1-Pad20)*%
X51308000Y-120904000D03*
%TO.N,Net-(J1-Pad30)*%
X51307986Y-128524000D03*
%TO.N,Net-(J1-Pad36)*%
X51308000Y-133095994D03*
%TO.N,Net-(J1-Pad6)*%
X51308000Y-110236000D03*
%TO.N,Net-(J1-Pad16)*%
X51307990Y-117856000D03*
%TO.N,Net-(J1-Pad24)*%
X51308000Y-123952000D03*
%TO.N,Net-(J1-Pad32)*%
X51308000Y-130048000D03*
%TO.N,Net-(J1-Pad10)*%
X51308008Y-113284000D03*
%TO.N,Net-(J1-Pad18)*%
X51308000Y-119380000D03*
%TO.N,Net-(J1-Pad26)*%
X51303340Y-125471340D03*
%TO.N,Net-(J1-Pad34)*%
X51308000Y-131572012D03*
%TO.N,-5V*%
X84582000Y-134134040D03*
X85582248Y-116791954D03*
X70929500Y-141351000D03*
X90169996Y-125539500D03*
%TO.N,~COMM_DTR*%
X82042000Y-110998000D03*
X90424000Y-111379000D03*
X74676000Y-134747000D03*
X81331945Y-134699546D03*
X88832695Y-116078000D03*
%TO.N,COMM_SHDN*%
X84328006Y-121031000D03*
X80518000Y-136906000D03*
%TO.N,COMM_TRXC*%
X80264000Y-141097000D03*
X81973443Y-124379711D03*
%TO.N,~COMM_TXD*%
X74993500Y-113982500D03*
X73750120Y-133574558D03*
X81331945Y-133668033D03*
X75692000Y-108965996D03*
%TO.N,~COMM_GPIO_L*%
X84884457Y-124272812D03*
X67056000Y-123190000D03*
X74385010Y-125368555D03*
X76798010Y-125349000D03*
X80200498Y-139128500D03*
%TO.N,~COMM_RTS*%
X78867000Y-111723010D03*
X81153000Y-135763000D03*
X75510142Y-135584160D03*
X67365067Y-111798578D03*
%TO.N,COMM_RXD*%
X78766000Y-124434000D03*
X68090077Y-120268991D03*
X74385010Y-120825987D03*
X79121000Y-142276990D03*
%TO.N,Net-(R44-Pad1)*%
X82042000Y-131318000D03*
%TO.N,PHY_RXD+*%
X78232000Y-121158000D03*
X93789500Y-139954000D03*
X94361000Y-132207000D03*
%TO.N,PHY_RXD-*%
X79502000Y-121031000D03*
X92145597Y-140391403D03*
X94139020Y-133540500D03*
%TO.N,PHY_HSKi*%
X82186843Y-121091871D03*
X93594065Y-135282086D03*
X91820858Y-139445586D03*
%TO.N,PHY_GPi*%
X83185000Y-121031000D03*
%TO.N,PHY_HSKo*%
X85571962Y-121031000D03*
%TO.N,PHY_TXD+*%
X94234000Y-129921000D03*
X94984570Y-126060863D03*
X81788000Y-115189000D03*
%TO.N,PHY_TXD-*%
X82931000Y-114971990D03*
X93726000Y-125222000D03*
%TO.N,Net-(J1-Pad1)*%
X63246000Y-105028996D03*
%TD*%
D25*
%TO.N,GND*%
X105085000Y-110868000D02*
X102867000Y-110868000D01*
X101585000Y-109586000D02*
X101585000Y-106088000D01*
X102867000Y-110868000D02*
X101585000Y-109586000D01*
X105085000Y-110868000D02*
X110239000Y-110868000D01*
X111655000Y-109452000D02*
X111655000Y-106688000D01*
X110239000Y-110868000D02*
X111655000Y-109452000D01*
X101092000Y-112643000D02*
X102867000Y-110868000D01*
X101092000Y-116078000D02*
X101092000Y-112643000D01*
X60706000Y-116332000D02*
X60706000Y-111760000D01*
X57150000Y-122301000D02*
X57150000Y-127000000D01*
X57150000Y-121920000D02*
X58928000Y-120142000D01*
X57150000Y-122301000D02*
X57150000Y-121920000D01*
X73660000Y-116967000D02*
X73660000Y-112522000D01*
D26*
X73660000Y-112522000D02*
X73723500Y-112458500D01*
D25*
X60706000Y-111760000D02*
X60706000Y-107950000D01*
X71247000Y-144018000D02*
X72644000Y-144018000D01*
X72644000Y-144018000D02*
X73025000Y-143637000D01*
X73025000Y-143637000D02*
X82931000Y-143637000D01*
X91567000Y-133350000D02*
X91567000Y-129068990D01*
D27*
X99187000Y-138684000D02*
X99187000Y-136779000D01*
X99187000Y-136779000D02*
X99187000Y-134874000D01*
X99187000Y-134874000D02*
X99187000Y-132969000D01*
X99187000Y-132969000D02*
X99187000Y-131064000D01*
X99187000Y-131064000D02*
X99187000Y-129159000D01*
X99187000Y-129159000D02*
X99187000Y-127381000D01*
X99187000Y-127381000D02*
X99187000Y-123571000D01*
D25*
X90596005Y-128097995D02*
X89752010Y-127254000D01*
X91567000Y-129068990D02*
X90596005Y-128097995D01*
D26*
X66040000Y-143256000D02*
X66040000Y-144780000D01*
X66040000Y-144780000D02*
X70104000Y-148844000D01*
X70104000Y-148844000D02*
X77216000Y-148844000D01*
X81788000Y-148844000D02*
X88646000Y-148844000D01*
X110515400Y-144475200D02*
X110515400Y-143484600D01*
X113030000Y-140970000D02*
X113538000Y-140970000D01*
X110515400Y-143484600D02*
X113030000Y-140970000D01*
D25*
X111655000Y-103378000D02*
X118364000Y-103378000D01*
X119634000Y-104648000D02*
X119634000Y-104902000D01*
X118364000Y-103378000D02*
X119634000Y-104648000D01*
D26*
X87630000Y-116586000D02*
X87884000Y-116840000D01*
X87630000Y-113538000D02*
X87630000Y-116586000D01*
X81915000Y-113538000D02*
X87630000Y-113538000D01*
X80137000Y-115316000D02*
X81915000Y-113538000D01*
X88392000Y-117348000D02*
X87884000Y-116840000D01*
X88900000Y-117348000D02*
X88392000Y-117348000D01*
X90170000Y-116078000D02*
X88900000Y-117348000D01*
X90170000Y-114300000D02*
X90170000Y-116078000D01*
X91948000Y-112522000D02*
X90170000Y-114300000D01*
X97028000Y-113284000D02*
X97536000Y-113284000D01*
X93980000Y-110236000D02*
X97028000Y-113284000D01*
X104648000Y-149352000D02*
X104648000Y-145796000D01*
X106934000Y-151638000D02*
X104648000Y-149352000D01*
X110515400Y-150342600D02*
X109220000Y-151638000D01*
X110515400Y-144475200D02*
X110515400Y-150342600D01*
X109220000Y-151638000D02*
X106934000Y-151638000D01*
D25*
X91567000Y-133350000D02*
X91567000Y-135001000D01*
X91567000Y-135001000D02*
X82931000Y-143637000D01*
D26*
X93562010Y-131064000D02*
X90596005Y-128097995D01*
X99187000Y-131064000D02*
X93562010Y-131064000D01*
D25*
X76798010Y-128487010D02*
X76798010Y-126746000D01*
X76849500Y-128538500D02*
X76798010Y-128487010D01*
X78041500Y-128538500D02*
X76849500Y-128538500D01*
X115570000Y-117602000D02*
X115316000Y-117856000D01*
X115570000Y-112268000D02*
X115570000Y-117602000D01*
D26*
X110515400Y-144475200D02*
X110515400Y-147599400D01*
X110515400Y-147599400D02*
X112522000Y-149606000D01*
X112522000Y-149606000D02*
X119888000Y-149606000D01*
D25*
X112268000Y-129730500D02*
X111760000Y-129222500D01*
X112268000Y-132842000D02*
X112268000Y-129730500D01*
X112903000Y-133477000D02*
X112268000Y-132842000D01*
X114073000Y-133477000D02*
X112903000Y-133477000D01*
X111760000Y-129222500D02*
X106934000Y-129222500D01*
X114096000Y-133500000D02*
X114073000Y-133477000D01*
D26*
X114744500Y-129730500D02*
X112268000Y-129730500D01*
X115379500Y-130365500D02*
X114744500Y-129730500D01*
X115379500Y-132216500D02*
X115379500Y-130365500D01*
X114096000Y-133500000D02*
X115379500Y-132216500D01*
D27*
X71247000Y-144018000D02*
X70116700Y-144018000D01*
X70116700Y-144018000D02*
X68681600Y-142582900D01*
X68681600Y-140157200D02*
X70472300Y-138366500D01*
X68681600Y-142582900D02*
X68681600Y-140157200D01*
D25*
X70182500Y-105488500D02*
X75082968Y-110388968D01*
X75082968Y-110388968D02*
X75082968Y-111003032D01*
D26*
X93218000Y-123190000D02*
X93535500Y-123190000D01*
X91186000Y-121158000D02*
X93218000Y-123190000D01*
%TO.N,+5V*%
X88216000Y-119253000D02*
X88201500Y-119238500D01*
D25*
X89789000Y-119253000D02*
X88216000Y-119253000D01*
D27*
X101346000Y-139700000D02*
X101346000Y-121285000D01*
X98806000Y-142240000D02*
X101346000Y-139700000D01*
D25*
X89789000Y-119253000D02*
X91821000Y-119253000D01*
X91821000Y-119253000D02*
X93853000Y-121285000D01*
D27*
X98679000Y-142367000D02*
X96520000Y-142367000D01*
X98806000Y-142240000D02*
X98679000Y-142367000D01*
D25*
X64643000Y-149859994D02*
X64686006Y-149903000D01*
D27*
X64686006Y-137203006D02*
X64643000Y-137160000D01*
X64686006Y-149903000D02*
X64686006Y-137203006D01*
X64643000Y-136144000D02*
X64516000Y-136017000D01*
X64643000Y-137160000D02*
X64643000Y-136144000D01*
D26*
X60175000Y-118768000D02*
X60810000Y-118768000D01*
X58390000Y-118133000D02*
X60175000Y-118133000D01*
X58390000Y-118768000D02*
X60175000Y-118768000D01*
X60175000Y-118133000D02*
X60729000Y-118133000D01*
X61191000Y-118179000D02*
X61237000Y-118133000D01*
X61237000Y-118133000D02*
X63090000Y-118133000D01*
X60729000Y-118133000D02*
X61237000Y-118133000D01*
X60810000Y-118768000D02*
X61191000Y-118768000D01*
X61191000Y-118768000D02*
X63090000Y-118768000D01*
X60198000Y-118491000D02*
X60175000Y-118768000D01*
X60175000Y-118468000D02*
X60198000Y-118491000D01*
X60175000Y-118133000D02*
X60175000Y-118468000D01*
X61214000Y-118491000D02*
X61191000Y-118179000D01*
X61191000Y-118468000D02*
X61214000Y-118491000D01*
X61191000Y-118768000D02*
X61191000Y-118468000D01*
D25*
X93853000Y-121285000D02*
X95377000Y-121285000D01*
X95377000Y-121285000D02*
X101346000Y-121285000D01*
D26*
X95377000Y-118237000D02*
X95504000Y-118110000D01*
X95377000Y-121285000D02*
X95377000Y-118237000D01*
D27*
X101346000Y-121285000D02*
X102749350Y-119881650D01*
D26*
X80899000Y-103251000D02*
X78359000Y-103251000D01*
X82550000Y-104902000D02*
X80899000Y-103251000D01*
%TO.N,/GPi*%
X108795250Y-135667499D02*
X108204000Y-136258749D01*
X108204000Y-136258749D02*
X108204000Y-138112500D01*
X114096000Y-135700000D02*
X114063499Y-135667499D01*
X108204000Y-138112500D02*
X109474000Y-139382500D01*
X114063499Y-135667499D02*
X108795250Y-135667499D01*
%TO.N,/HSKo*%
X108204000Y-135572500D02*
X106934000Y-136842500D01*
X108204000Y-133604000D02*
X108204000Y-135572500D01*
X110934500Y-133032500D02*
X108775500Y-133032500D01*
X108775500Y-133032500D02*
X108204000Y-133604000D01*
X112565799Y-134663799D02*
X110934500Y-133032500D01*
X115432201Y-134663799D02*
X112565799Y-134663799D01*
X116596000Y-133500000D02*
X115432201Y-134663799D01*
X106934000Y-136842500D02*
X106934000Y-137478910D01*
X108204000Y-138748910D02*
X108204000Y-148361400D01*
X106934000Y-137478910D02*
X108204000Y-138748910D01*
X108204000Y-148361400D02*
X108788200Y-148945600D01*
%TO.N,/HSKi*%
X115853500Y-136842500D02*
X116596000Y-136100000D01*
X110109000Y-136842500D02*
X115853500Y-136842500D01*
X117919500Y-138874500D02*
X117348000Y-139446000D01*
X116596000Y-136100000D02*
X117919500Y-137423500D01*
X117919500Y-137423500D02*
X117919500Y-138874500D01*
X117348000Y-139446000D02*
X117348000Y-147613283D01*
X117348000Y-147613283D02*
X116166273Y-148795010D01*
%TO.N,/RXD+*%
X114096000Y-138480000D02*
X114096000Y-138200000D01*
X116078000Y-140462000D02*
X114096000Y-138480000D01*
%TO.N,/TXD-*%
X116596000Y-131400000D02*
X122028504Y-131400000D01*
X122028504Y-131400000D02*
X123063000Y-130365504D01*
D28*
%TO.N,/USB-*%
X58039000Y-125239000D02*
X58339000Y-124939000D01*
X61755800Y-124939000D02*
X63148000Y-126331200D01*
X63148000Y-126331200D02*
X63148000Y-130649200D01*
X66708800Y-134210000D02*
X68534000Y-134210000D01*
X68534000Y-134210000D02*
X68834000Y-134510000D01*
X58339000Y-124939000D02*
X61755800Y-124939000D01*
X63148000Y-130649200D02*
X66708800Y-134210000D01*
X75900000Y-146529000D02*
X74024000Y-144653000D01*
X99038900Y-145373300D02*
X92244400Y-145373300D01*
X92244400Y-145373300D02*
X91088700Y-146529000D01*
X104085600Y-140326600D02*
X99038900Y-145373300D01*
X91088700Y-146529000D02*
X75900000Y-146529000D01*
X104085600Y-123651500D02*
X104085600Y-140326600D01*
X106172000Y-116078000D02*
X105127000Y-117123000D01*
X105127000Y-117123000D02*
X105127000Y-122610100D01*
X105127000Y-122610100D02*
X104085600Y-123651500D01*
%TO.N,/USB+*%
X61942200Y-124489000D02*
X63598000Y-126144800D01*
X68534000Y-133760000D02*
X68834000Y-133460000D01*
X58339000Y-124489000D02*
X61942200Y-124489000D01*
X66895200Y-133760000D02*
X68534000Y-133760000D01*
X63598000Y-130462800D02*
X66895200Y-133760000D01*
X63598000Y-126144800D02*
X63598000Y-130462800D01*
X58039000Y-124189000D02*
X58339000Y-124489000D01*
X103632000Y-116078000D02*
X104677000Y-117123000D01*
X104677000Y-122423700D02*
X103635600Y-123465100D01*
X103635600Y-123465100D02*
X103635600Y-140140200D01*
X103635600Y-140140200D02*
X98852500Y-144923300D01*
X92058000Y-144923300D02*
X90902300Y-146079000D01*
X90902300Y-146079000D02*
X76086397Y-146079000D01*
X98852500Y-144923300D02*
X92058000Y-144923300D01*
X76086397Y-146079000D02*
X75074000Y-145066603D01*
X75074000Y-145066603D02*
X75074000Y-144653000D01*
X104677000Y-117123000D02*
X104677000Y-122423700D01*
D26*
%TO.N,Net-(J1-Pad19)*%
X68362999Y-117929989D02*
X69051010Y-118618000D01*
X63090000Y-112418000D02*
X64476290Y-112418000D01*
X64476290Y-112418000D02*
X68362999Y-116304709D01*
X68362999Y-116304709D02*
X68362999Y-117929989D01*
%TO.N,Net-(J1-Pad27)*%
X66330999Y-122841999D02*
X66330999Y-124242999D01*
X64470646Y-114958000D02*
X66465045Y-116952399D01*
X66465045Y-122707953D02*
X66330999Y-122841999D01*
X66330999Y-124242999D02*
X66802000Y-124714000D01*
X63090000Y-114958000D02*
X64470646Y-114958000D01*
X66465045Y-116952399D02*
X66465045Y-122707953D01*
%TO.N,Net-(J1-Pad35)*%
X64530955Y-128538955D02*
X66802000Y-130810000D01*
X64465002Y-117498000D02*
X64665001Y-117697999D01*
X64665001Y-117697999D02*
X64665001Y-121962353D01*
X64530955Y-122096399D02*
X64530955Y-128538955D01*
X63090000Y-117498000D02*
X64465002Y-117498000D01*
X64665001Y-121962353D02*
X64530955Y-122096399D01*
%TO.N,Net-(J1-Pad9)*%
X68688001Y-110598001D02*
X69088000Y-110998000D01*
X66006002Y-109243000D02*
X67361003Y-110598001D01*
X63090000Y-109243000D02*
X66006002Y-109243000D01*
X67361003Y-110598001D02*
X68688001Y-110598001D01*
%TO.N,Net-(J1-Pad15)*%
X67190055Y-113748055D02*
X67190055Y-113795306D01*
X67190055Y-113669234D02*
X67190055Y-113748055D01*
X64668821Y-111148000D02*
X67190055Y-113669234D01*
X63090000Y-111148000D02*
X64668821Y-111148000D01*
X68900134Y-115458134D02*
X69178155Y-115458134D01*
X67190055Y-113748055D02*
X68900134Y-115458134D01*
%TO.N,Net-(J1-Pad23)*%
X64473468Y-113688000D02*
X67365067Y-116579599D01*
X63090000Y-113688000D02*
X64473468Y-113688000D01*
X67365067Y-116579599D02*
X67365067Y-120635069D01*
X67365067Y-120635069D02*
X67830009Y-121100011D01*
X67830009Y-121100011D02*
X68284686Y-121100011D01*
X68284686Y-121100011D02*
X68850675Y-121666000D01*
X68850675Y-121666000D02*
X69088000Y-121666000D01*
D25*
%TO.N,-10V*%
X72732845Y-126380262D02*
X72732845Y-132880155D01*
X72732845Y-132880155D02*
X67183000Y-138430000D01*
D26*
%TO.N,Net-(J1-Pad29)*%
X63090000Y-115593000D02*
X64469235Y-115593000D01*
X66015034Y-122521553D02*
X65880988Y-122655599D01*
X65880988Y-125053668D02*
X66933660Y-126106340D01*
X66015034Y-117138799D02*
X66015034Y-122521553D01*
X65880988Y-122655599D02*
X65880988Y-125053668D01*
X64469235Y-115593000D02*
X66015034Y-117138799D01*
%TO.N,Net-(J1-Pad7)*%
X63090000Y-108608000D02*
X66444004Y-108608000D01*
X66444004Y-108608000D02*
X67246504Y-109410500D01*
X67246504Y-109410500D02*
X69024504Y-109410500D01*
%TO.N,Net-(J1-Pad13)*%
X64918589Y-110513000D02*
X68451589Y-114046000D01*
X63090000Y-110513000D02*
X64918589Y-110513000D01*
X68451589Y-114046000D02*
X69088000Y-114046000D01*
%TO.N,Net-(J1-Pad21)*%
X63090000Y-113053000D02*
X64474879Y-113053000D01*
X64474879Y-113053000D02*
X67815078Y-116393199D01*
X67815078Y-116393199D02*
X67815078Y-118714672D01*
X67815078Y-118714672D02*
X69186280Y-120085874D01*
%TO.N,Net-(J1-Pad5)*%
X67159998Y-107973000D02*
X67246498Y-107886500D01*
X63090000Y-107973000D02*
X67159998Y-107973000D01*
X69074320Y-107973000D02*
X69092660Y-107954660D01*
X67159998Y-107973000D02*
X69074320Y-107973000D01*
%TO.N,Net-(J1-Pad33)*%
X65115012Y-117511599D02*
X65115012Y-122148753D01*
X64980966Y-122282799D02*
X64980966Y-127210966D01*
X63090000Y-116863000D02*
X64466413Y-116863000D01*
X64466413Y-116863000D02*
X65115012Y-117511599D01*
X65115012Y-122148753D02*
X64980966Y-122282799D01*
X64980966Y-127210966D02*
X66802000Y-129032000D01*
%TO.N,Net-(J1-Pad11)*%
X66004592Y-109878000D02*
X67200168Y-111073576D01*
X63090000Y-109878000D02*
X66004592Y-109878000D01*
X67984693Y-111073576D02*
X69036931Y-112125814D01*
X67200168Y-111073576D02*
X67984693Y-111073576D01*
%TO.N,Net-(J1-Pad17)*%
X69088000Y-116393299D02*
X69088000Y-117000244D01*
X64477701Y-111783000D02*
X69088000Y-116393299D01*
X63090000Y-111783000D02*
X64477701Y-111783000D01*
%TO.N,Net-(J1-Pad25)*%
X66915056Y-116765999D02*
X66915056Y-121017056D01*
X66915056Y-121017056D02*
X67818000Y-121920000D01*
X64472057Y-114323000D02*
X66915056Y-116765999D01*
X63090000Y-114323000D02*
X64472057Y-114323000D01*
%TO.N,Net-(J1-Pad31)*%
X65430977Y-125882977D02*
X67056000Y-127508000D01*
X65565023Y-122335153D02*
X65430977Y-122469199D01*
X65565023Y-117325199D02*
X65565023Y-122335153D01*
X64467824Y-116228000D02*
X65565023Y-117325199D01*
X65430977Y-122469199D02*
X65430977Y-125882977D01*
X63090000Y-116228000D02*
X64467824Y-116228000D01*
%TO.N,Net-(J1-Pad8)*%
X54459994Y-108608000D02*
X51307994Y-111760000D01*
X58390000Y-108608000D02*
X54459994Y-108608000D01*
%TO.N,Net-(J1-Pad14)*%
X51816000Y-115570000D02*
X51308000Y-115570000D01*
X56873000Y-110513000D02*
X51816000Y-115570000D01*
X58390000Y-110513000D02*
X56873000Y-110513000D01*
%TO.N,Net-(J1-Pad22)*%
X58390000Y-113053000D02*
X57061234Y-113053000D01*
X57061234Y-113053000D02*
X53129034Y-116985200D01*
X53129034Y-120606966D02*
X51308000Y-122428000D01*
X53129034Y-116985200D02*
X53129034Y-120606966D01*
%TO.N,Net-(J1-Pad28)*%
X57065467Y-114958000D02*
X54479067Y-117544400D01*
X54479067Y-117544400D02*
X54479067Y-123320933D01*
X54479067Y-123320933D02*
X51307990Y-126492010D01*
X58390000Y-114958000D02*
X57065467Y-114958000D01*
X51307990Y-126492010D02*
X51307990Y-127000000D01*
%TO.N,Net-(J1-Pad4)*%
X52681996Y-107338000D02*
X51307996Y-108712000D01*
X58390000Y-107338000D02*
X52681996Y-107338000D01*
%TO.N,Net-(J1-Pad12)*%
X58390000Y-109878000D02*
X56067588Y-109878000D01*
X56067588Y-109878000D02*
X51373456Y-114572132D01*
%TO.N,Net-(J1-Pad20)*%
X52679023Y-119532977D02*
X51308000Y-120904000D01*
X52679023Y-116798800D02*
X52679023Y-119532977D01*
X58390000Y-112418000D02*
X57059823Y-112418000D01*
X57059823Y-112418000D02*
X52679023Y-116798800D01*
%TO.N,Net-(J1-Pad30)*%
X57066878Y-115593000D02*
X54929078Y-117730800D01*
X58390000Y-115593000D02*
X57066878Y-115593000D01*
X54929078Y-117730800D02*
X54929078Y-124902908D01*
X54929078Y-124902908D02*
X51307986Y-128524000D01*
%TO.N,Net-(J1-Pad36)*%
X58390000Y-117498000D02*
X57071111Y-117498000D01*
X57071111Y-117498000D02*
X56279111Y-118290000D01*
X56279111Y-118290000D02*
X56279111Y-128124883D01*
X56279111Y-128124883D02*
X51308000Y-133095994D01*
%TO.N,Net-(J1-Pad6)*%
X53571000Y-107973000D02*
X51308000Y-110236000D01*
X58390000Y-107973000D02*
X53571000Y-107973000D01*
%TO.N,Net-(J1-Pad16)*%
X51779001Y-117384989D02*
X51307990Y-117856000D01*
X56890000Y-111148000D02*
X51779001Y-116258999D01*
X58390000Y-111148000D02*
X56890000Y-111148000D01*
X51779001Y-116258999D02*
X51779001Y-117384989D01*
%TO.N,Net-(J1-Pad24)*%
X53579045Y-117171600D02*
X53579045Y-121680955D01*
X58390000Y-113688000D02*
X57062645Y-113688000D01*
X53579045Y-121680955D02*
X51308000Y-123952000D01*
X57062645Y-113688000D02*
X53579045Y-117171600D01*
%TO.N,Net-(J1-Pad32)*%
X57068289Y-116228000D02*
X55379089Y-117917200D01*
X55379089Y-125976911D02*
X51308000Y-130048000D01*
X55379089Y-117917200D02*
X55379089Y-125976911D01*
X58390000Y-116228000D02*
X57068289Y-116228000D01*
%TO.N,Net-(J1-Pad10)*%
X58390000Y-109243000D02*
X55349008Y-109243000D01*
X55349008Y-109243000D02*
X51308008Y-113284000D01*
%TO.N,Net-(J1-Pad18)*%
X58390000Y-111783000D02*
X57058413Y-111783000D01*
X57058413Y-111783000D02*
X52229012Y-116612401D01*
X52229012Y-116612401D02*
X52229012Y-118458988D01*
X52229012Y-118458988D02*
X51308000Y-119380000D01*
%TO.N,Net-(J1-Pad26)*%
X54029056Y-122745624D02*
X51303340Y-125471340D01*
X58390000Y-114323000D02*
X57064056Y-114323000D01*
X57064056Y-114323000D02*
X54029056Y-117358000D01*
X54029056Y-117358000D02*
X54029056Y-122745624D01*
%TO.N,Net-(J1-Pad34)*%
X55829100Y-118103600D02*
X55829100Y-127050912D01*
X57069700Y-116863000D02*
X55829100Y-118103600D01*
X58390000Y-116863000D02*
X57069700Y-116863000D01*
X55829100Y-127050912D02*
X51308000Y-131572012D01*
D25*
%TO.N,-5V*%
X83360046Y-116791954D02*
X85582248Y-116791954D01*
X83121500Y-117030500D02*
X83360046Y-116791954D01*
X83121500Y-119238500D02*
X83121500Y-117030500D01*
D26*
X84582000Y-140081000D02*
X81661000Y-143002000D01*
X84582000Y-134134040D02*
X84582000Y-140081000D01*
X81661000Y-143002000D02*
X72580500Y-143002000D01*
X72580500Y-143002000D02*
X70929500Y-141351000D01*
X84582000Y-134134040D02*
X89027000Y-129689040D01*
X89027000Y-129689040D02*
X89027000Y-126682496D01*
X89027000Y-126682496D02*
X90169996Y-125539500D01*
%TO.N,~COMM_DTR*%
X90043000Y-110998000D02*
X90424000Y-111379000D01*
X82042000Y-110998000D02*
X90043000Y-110998000D01*
X76073000Y-133350000D02*
X74676000Y-134747000D01*
X82042000Y-110998000D02*
X76073000Y-116967000D01*
X76073000Y-116967000D02*
X76073000Y-133350000D01*
X80606944Y-133974545D02*
X81331945Y-134699546D01*
X80983944Y-132943032D02*
X80606944Y-133320032D01*
X84478148Y-132943032D02*
X80983944Y-132943032D01*
X86931500Y-128538500D02*
X86931500Y-130489680D01*
X80606944Y-133320032D02*
X80606944Y-133974545D01*
X86931500Y-130489680D02*
X84478148Y-132943032D01*
X88832695Y-112970305D02*
X88832695Y-116078000D01*
X90424000Y-111379000D02*
X88832695Y-112970305D01*
%TO.N,COMM_SHDN*%
X82389992Y-132043010D02*
X80611144Y-132043010D01*
X80611144Y-132043010D02*
X79706922Y-132947232D01*
X84391500Y-130041502D02*
X82389992Y-132043010D01*
X79706922Y-136094922D02*
X80518000Y-136906000D01*
X79706922Y-132947232D02*
X79706922Y-136094922D01*
X84391500Y-128538500D02*
X84391500Y-130041502D01*
X86868000Y-123570994D02*
X84328006Y-121031000D01*
X86868000Y-124968000D02*
X86868000Y-123570994D01*
X84391500Y-127444500D02*
X86868000Y-124968000D01*
X84391500Y-128538500D02*
X84391500Y-127444500D01*
%TO.N,COMM_TRXC*%
X80581500Y-125771654D02*
X81973443Y-124379711D01*
X80581500Y-128538500D02*
X80581500Y-125771654D01*
X78806900Y-139639900D02*
X80264000Y-141097000D01*
X80581500Y-128538500D02*
X80581500Y-130799832D01*
X80581500Y-130799832D02*
X78806900Y-132574432D01*
X78806900Y-132574432D02*
X78806900Y-139639900D01*
%TO.N,~COMM_TXD*%
X75110011Y-114099011D02*
X75110011Y-132214667D01*
X75110011Y-132214667D02*
X73750120Y-133574558D01*
X74993500Y-113982500D02*
X75110011Y-114099011D01*
X81591282Y-133408696D02*
X81331945Y-133668033D01*
X88201500Y-129856090D02*
X84648894Y-133408696D01*
X88201500Y-128538500D02*
X88201500Y-129856090D01*
X84648894Y-133408696D02*
X81591282Y-133408696D01*
X76257989Y-109531985D02*
X75692000Y-108965996D01*
X76257989Y-112718011D02*
X76257989Y-109531985D01*
X74993500Y-113982500D02*
X76257989Y-112718011D01*
%TO.N,~COMM_GPIO_L*%
X81851500Y-127305769D02*
X84884457Y-124272812D01*
X81851500Y-128538500D02*
X81851500Y-127305769D01*
X67056000Y-123190000D02*
X72206455Y-123190000D01*
X72206455Y-123190000D02*
X74385010Y-125368555D01*
X84884457Y-124272812D02*
X84055645Y-123444000D01*
X78703010Y-123444000D02*
X76798010Y-125349000D01*
X84055645Y-123444000D02*
X78703010Y-123444000D01*
X79256911Y-138184913D02*
X80200498Y-139128500D01*
X81851500Y-128538500D02*
X81851500Y-130166243D01*
X81851500Y-130166243D02*
X79256911Y-132760832D01*
X79256911Y-132760832D02*
X79256911Y-138184913D01*
%TO.N,~COMM_RTS*%
X77724008Y-112866002D02*
X78867000Y-111723010D01*
X77052002Y-112866002D02*
X77724008Y-112866002D01*
X75560022Y-115954568D02*
X75560022Y-132789976D01*
X73950999Y-135095001D02*
X74440158Y-135584160D01*
X75560022Y-132789976D02*
X73950999Y-134398999D01*
X77052002Y-114462588D02*
X75560022Y-115954568D01*
X77052002Y-112866002D02*
X77052002Y-114462588D01*
X73950999Y-134398999D02*
X73950999Y-135095001D01*
X74440158Y-135584160D02*
X75510142Y-135584160D01*
X85661500Y-128538500D02*
X85661500Y-131123270D01*
X85661500Y-131123270D02*
X84291749Y-132493021D01*
X80156933Y-134766933D02*
X81153000Y-135763000D01*
X80156933Y-133133632D02*
X80156933Y-134766933D01*
X80797544Y-132493021D02*
X80156933Y-133133632D01*
X84291749Y-132493021D02*
X80797544Y-132493021D01*
X77052002Y-109056002D02*
X77052002Y-112866002D01*
X76200000Y-108204000D02*
X77052002Y-109056002D01*
X75184000Y-108204000D02*
X76200000Y-108204000D01*
X75807978Y-110154980D02*
X74930000Y-109277002D01*
X74930000Y-109277002D02*
X74930000Y-108458000D01*
X75807978Y-111370800D02*
X75807978Y-110154980D01*
X74930000Y-108458000D02*
X75184000Y-108204000D01*
X75445280Y-111733498D02*
X75807978Y-111370800D01*
X72242994Y-112866002D02*
X73375498Y-111733498D01*
X68432491Y-112866002D02*
X72242994Y-112866002D01*
X73375498Y-111733498D02*
X75445280Y-111733498D01*
X67365067Y-111798578D02*
X68432491Y-112866002D01*
%TO.N,COMM_RXD*%
X79311500Y-124979500D02*
X78766000Y-124434000D01*
X79311500Y-128538500D02*
X79311500Y-124979500D01*
X68647073Y-120825987D02*
X74385010Y-120825987D01*
X68090077Y-120268991D02*
X68647073Y-120825987D01*
X79311500Y-131433422D02*
X78356889Y-132388032D01*
X78356889Y-132388032D02*
X78356889Y-141512879D01*
X79311500Y-128538500D02*
X79311500Y-131433422D01*
X78356889Y-141512879D02*
X79121000Y-142276990D01*
%TO.N,Net-(R44-Pad1)*%
X83121500Y-130238500D02*
X82042000Y-131318000D01*
X83121500Y-128538500D02*
X83121500Y-130238500D01*
%TO.N,PHY_RXD+*%
X78232000Y-121158000D02*
X78232000Y-120904000D01*
X78041500Y-120713500D02*
X78041500Y-119238500D01*
X78232000Y-120904000D02*
X78041500Y-120713500D01*
X93789500Y-139954000D02*
X95141999Y-138601501D01*
X95141999Y-138601501D02*
X95141999Y-132987999D01*
X95141999Y-132987999D02*
X94361000Y-132207000D01*
%TO.N,PHY_RXD-*%
X79311500Y-119238500D02*
X79311500Y-120840500D01*
X79311500Y-120840500D02*
X79502000Y-121031000D01*
X92145597Y-140391403D02*
X94633999Y-137903001D01*
X94633999Y-137903001D02*
X94633999Y-134035479D01*
X94633999Y-134035479D02*
X94139020Y-133540500D01*
%TO.N,PHY_HSKi*%
X81409871Y-121091871D02*
X82186843Y-121091871D01*
X80581500Y-120263500D02*
X81409871Y-121091871D01*
X80581500Y-119238500D02*
X80581500Y-120263500D01*
X93594065Y-137672379D02*
X91820858Y-139445586D01*
X93594065Y-135282086D02*
X93594065Y-137672379D01*
%TO.N,PHY_GPi*%
X81851500Y-119697500D02*
X83185000Y-121031000D01*
X81851500Y-119238500D02*
X81851500Y-119697500D01*
%TO.N,PHY_HSKo*%
X84455000Y-119914038D02*
X85571962Y-121031000D01*
X84455000Y-119302000D02*
X84455000Y-119914038D01*
X84391500Y-119238500D02*
X84455000Y-119302000D01*
%TO.N,PHY_TXD+*%
X94234000Y-129921000D02*
X94234000Y-126811433D01*
X94234000Y-126811433D02*
X94984570Y-126060863D01*
X91770863Y-126060863D02*
X94984570Y-126060863D01*
X85661500Y-119238500D02*
X85661500Y-119951500D01*
X85661500Y-119951500D02*
X91770863Y-126060863D01*
X86221978Y-116450800D02*
X86221978Y-116196800D01*
X85722178Y-115697000D02*
X82296000Y-115697000D01*
X85661500Y-117976504D02*
X86450002Y-117188002D01*
X86450002Y-117188002D02*
X86450002Y-116678824D01*
X85661500Y-119238500D02*
X85661500Y-117976504D01*
X82296000Y-115697000D02*
X81788000Y-115189000D01*
X86450002Y-116678824D02*
X86221978Y-116450800D01*
X86221978Y-116196800D02*
X85722178Y-115697000D01*
%TO.N,PHY_TXD-*%
X86931500Y-119238500D02*
X86931500Y-119951500D01*
X92202000Y-125222000D02*
X93726000Y-125222000D01*
X86931500Y-119951500D02*
X92202000Y-125222000D01*
X86671989Y-116010400D02*
X85633579Y-114971990D01*
X86671989Y-116264400D02*
X86671989Y-116010400D01*
X86931500Y-119238500D02*
X86931500Y-116523911D01*
X86931500Y-116523911D02*
X86671989Y-116264400D01*
X85633579Y-114971990D02*
X82931000Y-114971990D01*
%TO.N,Net-(J1-Pad1)*%
X58390000Y-106703000D02*
X63090000Y-106703000D01*
X65024000Y-106934000D02*
X64793000Y-106703000D01*
X64793000Y-106703000D02*
X63090000Y-106703000D01*
X64620000Y-107338000D02*
X65024000Y-106934000D01*
X63090000Y-107338000D02*
X64620000Y-107338000D01*
X63090000Y-106703000D02*
X63090000Y-105184996D01*
X63090000Y-105184996D02*
X63246000Y-105028996D01*
%TD*%
D29*
%TO.N,GND*%
X124440000Y-111021491D02*
X124259670Y-110841161D01*
X123631554Y-110421467D01*
X122933628Y-110132377D01*
X122192715Y-109985000D01*
X121437285Y-109985000D01*
X120696372Y-110132377D01*
X119998446Y-110421467D01*
X119370330Y-110841161D01*
X118836161Y-111375330D01*
X118416467Y-112003446D01*
X118127377Y-112701372D01*
X117980000Y-113442285D01*
X117980000Y-114197715D01*
X118127377Y-114938628D01*
X118416467Y-115636554D01*
X118836161Y-116264670D01*
X119370330Y-116798839D01*
X119998446Y-117218533D01*
X120696372Y-117507623D01*
X121437285Y-117655000D01*
X122192715Y-117655000D01*
X122933628Y-117507623D01*
X123631554Y-117218533D01*
X124259670Y-116798839D01*
X124440000Y-116618509D01*
X124440001Y-152910000D01*
X97173509Y-152910000D01*
X97343839Y-152739670D01*
X97763533Y-152111554D01*
X98052623Y-151413628D01*
X98080752Y-151272212D01*
X121293000Y-151272212D01*
X121293000Y-151495788D01*
X121336617Y-151715067D01*
X121422176Y-151921624D01*
X121546388Y-152107520D01*
X121704480Y-152265612D01*
X121890376Y-152389824D01*
X122096933Y-152475383D01*
X122316212Y-152519000D01*
X122539788Y-152519000D01*
X122759067Y-152475383D01*
X122965624Y-152389824D01*
X123151520Y-152265612D01*
X123309612Y-152107520D01*
X123433824Y-151921624D01*
X123519383Y-151715067D01*
X123563000Y-151495788D01*
X123563000Y-151272212D01*
X123519383Y-151052933D01*
X123433824Y-150846376D01*
X123309612Y-150660480D01*
X123151520Y-150502388D01*
X122965624Y-150378176D01*
X122759067Y-150292617D01*
X122539788Y-150249000D01*
X122316212Y-150249000D01*
X122096933Y-150292617D01*
X121890376Y-150378176D01*
X121704480Y-150502388D01*
X121546388Y-150660480D01*
X121422176Y-150846376D01*
X121336617Y-151052933D01*
X121293000Y-151272212D01*
X98080752Y-151272212D01*
X98200000Y-150672715D01*
X98200000Y-149917285D01*
X98052623Y-149176372D01*
X97763533Y-148478446D01*
X97343839Y-147850330D01*
X96809670Y-147316161D01*
X96181554Y-146896467D01*
X95483628Y-146607377D01*
X94742715Y-146460000D01*
X93987285Y-146460000D01*
X93246372Y-146607377D01*
X92548446Y-146896467D01*
X91920330Y-147316161D01*
X91386161Y-147850330D01*
X90966467Y-148478446D01*
X90677377Y-149176372D01*
X90530000Y-149917285D01*
X90530000Y-150672715D01*
X90677377Y-151413628D01*
X90966467Y-152111554D01*
X91386161Y-152739670D01*
X91556491Y-152910000D01*
X54859000Y-152910000D01*
X54859000Y-150764212D01*
X55253000Y-150764212D01*
X55253000Y-150987788D01*
X55296617Y-151207067D01*
X55382176Y-151413624D01*
X55506388Y-151599520D01*
X55664480Y-151757612D01*
X55850376Y-151881824D01*
X56056933Y-151967383D01*
X56276212Y-152011000D01*
X56499788Y-152011000D01*
X56719067Y-151967383D01*
X56925624Y-151881824D01*
X57111520Y-151757612D01*
X57269612Y-151599520D01*
X57393824Y-151413624D01*
X57479383Y-151207067D01*
X57523000Y-150987788D01*
X57523000Y-150764212D01*
X57479383Y-150544933D01*
X57393824Y-150338376D01*
X57269612Y-150152480D01*
X57111520Y-149994388D01*
X56925624Y-149870176D01*
X56719067Y-149784617D01*
X56499788Y-149741000D01*
X56276212Y-149741000D01*
X56056933Y-149784617D01*
X55850376Y-149870176D01*
X55664480Y-149994388D01*
X55506388Y-150152480D01*
X55382176Y-150338376D01*
X55296617Y-150544933D01*
X55253000Y-150764212D01*
X54859000Y-150764212D01*
X54859000Y-150356000D01*
X50660000Y-150356000D01*
X50660000Y-136017000D01*
X63375509Y-136017000D01*
X63397423Y-136239498D01*
X63462324Y-136453446D01*
X63508000Y-136538900D01*
X63508000Y-137104249D01*
X63502509Y-137160000D01*
X63508000Y-137215751D01*
X63524423Y-137382498D01*
X63551007Y-137470133D01*
X63551006Y-149958751D01*
X63567429Y-150125498D01*
X63632330Y-150339446D01*
X63737722Y-150536623D01*
X63879557Y-150709449D01*
X64052383Y-150851284D01*
X64249559Y-150956676D01*
X64463507Y-151021577D01*
X64686006Y-151043491D01*
X64908504Y-151021577D01*
X65122452Y-150956676D01*
X65319629Y-150851284D01*
X65492455Y-150709449D01*
X65634290Y-150536623D01*
X65739682Y-150339447D01*
X65804583Y-150125499D01*
X65821006Y-149958752D01*
X65821006Y-137258758D01*
X65826497Y-137203006D01*
X65810187Y-137037406D01*
X65804583Y-136980507D01*
X65778000Y-136892875D01*
X65778000Y-136199751D01*
X65783491Y-136143999D01*
X65761577Y-135921501D01*
X65750825Y-135886058D01*
X65696676Y-135707553D01*
X65591284Y-135510377D01*
X65449449Y-135337551D01*
X65406135Y-135302004D01*
X65279143Y-135175012D01*
X65149622Y-135068717D01*
X64952446Y-134963324D01*
X64738498Y-134898423D01*
X64516000Y-134876509D01*
X64293502Y-134898423D01*
X64079554Y-134963324D01*
X63882378Y-135068717D01*
X63709552Y-135210552D01*
X63567717Y-135383378D01*
X63462324Y-135580554D01*
X63397423Y-135794502D01*
X63375509Y-136017000D01*
X50660000Y-136017000D01*
X50660000Y-133907798D01*
X50817744Y-134013199D01*
X51006102Y-134091220D01*
X51206061Y-134130994D01*
X51409939Y-134130994D01*
X51609898Y-134091220D01*
X51798256Y-134013199D01*
X51967774Y-133899931D01*
X52111937Y-133755768D01*
X52225205Y-133586250D01*
X52303226Y-133397892D01*
X52343000Y-133197933D01*
X52343000Y-133135795D01*
X56790114Y-128688682D01*
X56819112Y-128664884D01*
X56914085Y-128549159D01*
X56984657Y-128417130D01*
X57028114Y-128273869D01*
X57039111Y-128162216D01*
X57042788Y-128124883D01*
X57039111Y-128087550D01*
X57039111Y-125517455D01*
X57043774Y-125540898D01*
X57121795Y-125729256D01*
X57235063Y-125898774D01*
X57379226Y-126042937D01*
X57548744Y-126156205D01*
X57737102Y-126234226D01*
X57937061Y-126274000D01*
X58140939Y-126274000D01*
X58340898Y-126234226D01*
X58529256Y-126156205D01*
X58698774Y-126042937D01*
X58842937Y-125898774D01*
X58956205Y-125729256D01*
X58979093Y-125674000D01*
X61451354Y-125674000D01*
X62413000Y-126635647D01*
X62413001Y-130613085D01*
X62409444Y-130649200D01*
X62423635Y-130793285D01*
X62447961Y-130873474D01*
X62465664Y-130931833D01*
X62533914Y-131059520D01*
X62625763Y-131171438D01*
X62653808Y-131194454D01*
X66163546Y-134704193D01*
X66186562Y-134732238D01*
X66272487Y-134802755D01*
X66298480Y-134824087D01*
X66426166Y-134892337D01*
X66564715Y-134934365D01*
X66708800Y-134948556D01*
X66744905Y-134945000D01*
X67893907Y-134945000D01*
X67916795Y-135000256D01*
X68030063Y-135169774D01*
X68174226Y-135313937D01*
X68343744Y-135427205D01*
X68532102Y-135505226D01*
X68732061Y-135545000D01*
X68816422Y-135545000D01*
X66937957Y-137423465D01*
X66881102Y-137434774D01*
X66692744Y-137512795D01*
X66523226Y-137626063D01*
X66379063Y-137770226D01*
X66265795Y-137939744D01*
X66187774Y-138128102D01*
X66148000Y-138328061D01*
X66148000Y-138531939D01*
X66187774Y-138731898D01*
X66265795Y-138920256D01*
X66379063Y-139089774D01*
X66523226Y-139233937D01*
X66692744Y-139347205D01*
X66881102Y-139425226D01*
X67081061Y-139465000D01*
X67284939Y-139465000D01*
X67484898Y-139425226D01*
X67673256Y-139347205D01*
X67842774Y-139233937D01*
X67986937Y-139089774D01*
X68100205Y-138920256D01*
X68178226Y-138731898D01*
X68189535Y-138675043D01*
X72823206Y-134041373D01*
X72832915Y-134064814D01*
X72946183Y-134234332D01*
X73090346Y-134378495D01*
X73190999Y-134445749D01*
X73190999Y-135057679D01*
X73187323Y-135095001D01*
X73190999Y-135132323D01*
X73190999Y-135132334D01*
X73201996Y-135243987D01*
X73228466Y-135331246D01*
X73245453Y-135387247D01*
X73316025Y-135519277D01*
X73369273Y-135584159D01*
X73410999Y-135635002D01*
X73439997Y-135658800D01*
X73876354Y-136095157D01*
X73900157Y-136124161D01*
X74015882Y-136219134D01*
X74147911Y-136289706D01*
X74291172Y-136333163D01*
X74402825Y-136344160D01*
X74402834Y-136344160D01*
X74440157Y-136347836D01*
X74477480Y-136344160D01*
X74806431Y-136344160D01*
X74850368Y-136388097D01*
X75019886Y-136501365D01*
X75208244Y-136579386D01*
X75408203Y-136619160D01*
X75612081Y-136619160D01*
X75812040Y-136579386D01*
X76000398Y-136501365D01*
X76169916Y-136388097D01*
X76314079Y-136243934D01*
X76427347Y-136074416D01*
X76505368Y-135886058D01*
X76545142Y-135686099D01*
X76545142Y-135482221D01*
X76505368Y-135282262D01*
X76427347Y-135093904D01*
X76314079Y-134924386D01*
X76169916Y-134780223D01*
X76000398Y-134666955D01*
X75880507Y-134617294D01*
X76584003Y-133913799D01*
X76613001Y-133890001D01*
X76707974Y-133774276D01*
X76778546Y-133642247D01*
X76822003Y-133498986D01*
X76833000Y-133387333D01*
X76833000Y-133387324D01*
X76836676Y-133350001D01*
X76833000Y-133312678D01*
X76833000Y-129563500D01*
X77103428Y-129563500D01*
X77115688Y-129687982D01*
X77151998Y-129807680D01*
X77210963Y-129917994D01*
X77290315Y-130014685D01*
X77387006Y-130094037D01*
X77497320Y-130153002D01*
X77617018Y-130189312D01*
X77741500Y-130201572D01*
X77755750Y-130198500D01*
X77914500Y-130039750D01*
X77914500Y-128665500D01*
X77265250Y-128665500D01*
X77106500Y-128824250D01*
X77103428Y-129563500D01*
X76833000Y-129563500D01*
X76833000Y-127513500D01*
X77103428Y-127513500D01*
X77106500Y-128252750D01*
X77265250Y-128411500D01*
X77914500Y-128411500D01*
X77914500Y-127037250D01*
X77755750Y-126878500D01*
X77741500Y-126875428D01*
X77617018Y-126887688D01*
X77497320Y-126923998D01*
X77387006Y-126982963D01*
X77290315Y-127062315D01*
X77210963Y-127159006D01*
X77151998Y-127269320D01*
X77115688Y-127389018D01*
X77103428Y-127513500D01*
X76833000Y-127513500D01*
X76833000Y-126384000D01*
X76899949Y-126384000D01*
X77099908Y-126344226D01*
X77288266Y-126266205D01*
X77457784Y-126152937D01*
X77601947Y-126008774D01*
X77715215Y-125839256D01*
X77793236Y-125650898D01*
X77833010Y-125450939D01*
X77833010Y-125388801D01*
X78045050Y-125176761D01*
X78106226Y-125237937D01*
X78275744Y-125351205D01*
X78464102Y-125429226D01*
X78551501Y-125446611D01*
X78551500Y-126913630D01*
X78465982Y-126887688D01*
X78341500Y-126875428D01*
X78327250Y-126878500D01*
X78168500Y-127037250D01*
X78168500Y-128411500D01*
X78188500Y-128411500D01*
X78188500Y-128665500D01*
X78168500Y-128665500D01*
X78168500Y-130039750D01*
X78327250Y-130198500D01*
X78341500Y-130201572D01*
X78465982Y-130189312D01*
X78551501Y-130163370D01*
X78551501Y-131118619D01*
X77845886Y-131824233D01*
X77816888Y-131848031D01*
X77793091Y-131877028D01*
X77793090Y-131877029D01*
X77784951Y-131886947D01*
X77721915Y-131963757D01*
X77651343Y-132095786D01*
X77607886Y-132239047D01*
X77596889Y-132350700D01*
X77596889Y-132350709D01*
X77593213Y-132388032D01*
X77596889Y-132425354D01*
X77596890Y-141475547D01*
X77593213Y-141512879D01*
X77607887Y-141661864D01*
X77651343Y-141805125D01*
X77721915Y-141937155D01*
X77785149Y-142014205D01*
X77816889Y-142052880D01*
X77845887Y-142076678D01*
X78011209Y-142242000D01*
X72895302Y-142242000D01*
X71964500Y-141311199D01*
X71964500Y-141249061D01*
X71924726Y-141049102D01*
X71846705Y-140860744D01*
X71733437Y-140691226D01*
X71589274Y-140547063D01*
X71419756Y-140433795D01*
X71231398Y-140355774D01*
X71031439Y-140316000D01*
X70827561Y-140316000D01*
X70627602Y-140355774D01*
X70439244Y-140433795D01*
X70269726Y-140547063D01*
X70125563Y-140691226D01*
X70012295Y-140860744D01*
X69934274Y-141049102D01*
X69894500Y-141249061D01*
X69894500Y-141452939D01*
X69934274Y-141652898D01*
X70012295Y-141841256D01*
X70125563Y-142010774D01*
X70269726Y-142154937D01*
X70439244Y-142268205D01*
X70627602Y-142346226D01*
X70827561Y-142386000D01*
X70889699Y-142386000D01*
X72016701Y-143513003D01*
X72040499Y-143542001D01*
X72069497Y-143565799D01*
X72156224Y-143636974D01*
X72288253Y-143707546D01*
X72431514Y-143751003D01*
X72580500Y-143765677D01*
X72617833Y-143762000D01*
X73494525Y-143762000D01*
X73364226Y-143849063D01*
X73220063Y-143993226D01*
X73106795Y-144162744D01*
X73028774Y-144351102D01*
X72989000Y-144551061D01*
X72989000Y-144754939D01*
X73028774Y-144954898D01*
X73106795Y-145143256D01*
X73220063Y-145312774D01*
X73364226Y-145456937D01*
X73533744Y-145570205D01*
X73722102Y-145648226D01*
X73922061Y-145688000D01*
X74019554Y-145688000D01*
X75354746Y-147023193D01*
X75377762Y-147051238D01*
X75405806Y-147074253D01*
X75489680Y-147143087D01*
X75617366Y-147211337D01*
X75755915Y-147253365D01*
X75900000Y-147267556D01*
X75936105Y-147264000D01*
X91052595Y-147264000D01*
X91088700Y-147267556D01*
X91124805Y-147264000D01*
X91232785Y-147253365D01*
X91371333Y-147211337D01*
X91499020Y-147143087D01*
X91610938Y-147051238D01*
X91633958Y-147023188D01*
X92548847Y-146108300D01*
X99002795Y-146108300D01*
X99038900Y-146111856D01*
X99075005Y-146108300D01*
X99182985Y-146097665D01*
X99321533Y-146055637D01*
X99449220Y-145987387D01*
X99561138Y-145895538D01*
X99584159Y-145867487D01*
X104579793Y-140871854D01*
X104607838Y-140848838D01*
X104699687Y-140736920D01*
X104728161Y-140683649D01*
X104767937Y-140609234D01*
X104809965Y-140470685D01*
X104824156Y-140326600D01*
X104820600Y-140290495D01*
X104820600Y-131616240D01*
X105449000Y-131616240D01*
X105449000Y-131908760D01*
X105506068Y-132195658D01*
X105618010Y-132465911D01*
X105780525Y-132709132D01*
X105987368Y-132915975D01*
X106161760Y-133032500D01*
X105987368Y-133149025D01*
X105780525Y-133355868D01*
X105618010Y-133599089D01*
X105506068Y-133869342D01*
X105449000Y-134156240D01*
X105449000Y-134448760D01*
X105506068Y-134735658D01*
X105618010Y-135005911D01*
X105780525Y-135249132D01*
X105987368Y-135455975D01*
X106161760Y-135572500D01*
X105987368Y-135689025D01*
X105780525Y-135895868D01*
X105618010Y-136139089D01*
X105506068Y-136409342D01*
X105449000Y-136696240D01*
X105449000Y-136988760D01*
X105506068Y-137275658D01*
X105618010Y-137545911D01*
X105780525Y-137789132D01*
X105987368Y-137995975D01*
X106161760Y-138112500D01*
X105987368Y-138229025D01*
X105780525Y-138435868D01*
X105618010Y-138679089D01*
X105506068Y-138949342D01*
X105449000Y-139236240D01*
X105449000Y-139528760D01*
X105506068Y-139815658D01*
X105618010Y-140085911D01*
X105780525Y-140329132D01*
X105987368Y-140535975D01*
X106230589Y-140698490D01*
X106500842Y-140810432D01*
X106787740Y-140867500D01*
X107080260Y-140867500D01*
X107367158Y-140810432D01*
X107444000Y-140778603D01*
X107444001Y-148324068D01*
X107440324Y-148361400D01*
X107454998Y-148510385D01*
X107498454Y-148653646D01*
X107569026Y-148785676D01*
X107640201Y-148872402D01*
X107664000Y-148901401D01*
X107692998Y-148925199D01*
X107753200Y-148985401D01*
X107753200Y-149047539D01*
X107792974Y-149247498D01*
X107870995Y-149435856D01*
X107984263Y-149605374D01*
X108128426Y-149749537D01*
X108297944Y-149862805D01*
X108486302Y-149940826D01*
X108686261Y-149980600D01*
X108890139Y-149980600D01*
X109090098Y-149940826D01*
X109278456Y-149862805D01*
X109447974Y-149749537D01*
X109592137Y-149605374D01*
X109705405Y-149435856D01*
X109783426Y-149247498D01*
X109823200Y-149047539D01*
X109823200Y-148843661D01*
X109783426Y-148643702D01*
X109705405Y-148455344D01*
X109592137Y-148285826D01*
X109447974Y-148141663D01*
X109278456Y-148028395D01*
X109090098Y-147950374D01*
X108964000Y-147925292D01*
X108964000Y-140778603D01*
X109040842Y-140810432D01*
X109327740Y-140867500D01*
X109620260Y-140867500D01*
X109907158Y-140810432D01*
X110177411Y-140698490D01*
X110420632Y-140535975D01*
X110627475Y-140329132D01*
X110789990Y-140085911D01*
X110901932Y-139815658D01*
X110959000Y-139528760D01*
X110959000Y-139236240D01*
X110901932Y-138949342D01*
X110789990Y-138679089D01*
X110627475Y-138435868D01*
X110420632Y-138229025D01*
X110246240Y-138112500D01*
X110420632Y-137995975D01*
X110627475Y-137789132D01*
X110752178Y-137602500D01*
X112886376Y-137602500D01*
X112801533Y-137807328D01*
X112749800Y-138067411D01*
X112749800Y-138332589D01*
X112801533Y-138592672D01*
X112903013Y-138837665D01*
X113050338Y-139058153D01*
X113237847Y-139245662D01*
X113458335Y-139392987D01*
X113703328Y-139494467D01*
X113963411Y-139546200D01*
X114087399Y-139546200D01*
X115043000Y-140501802D01*
X115043000Y-140563939D01*
X115082774Y-140763898D01*
X115160795Y-140952256D01*
X115274063Y-141121774D01*
X115418226Y-141265937D01*
X115587744Y-141379205D01*
X115776102Y-141457226D01*
X115976061Y-141497000D01*
X116179939Y-141497000D01*
X116379898Y-141457226D01*
X116568256Y-141379205D01*
X116588000Y-141366012D01*
X116588001Y-147298480D01*
X116126472Y-147760010D01*
X116064334Y-147760010D01*
X115864375Y-147799784D01*
X115676017Y-147877805D01*
X115506499Y-147991073D01*
X115362336Y-148135236D01*
X115249068Y-148304754D01*
X115171047Y-148493112D01*
X115131273Y-148693071D01*
X115131273Y-148896949D01*
X115171047Y-149096908D01*
X115249068Y-149285266D01*
X115362336Y-149454784D01*
X115506499Y-149598947D01*
X115676017Y-149712215D01*
X115864375Y-149790236D01*
X116064334Y-149830010D01*
X116268212Y-149830010D01*
X116468171Y-149790236D01*
X116656529Y-149712215D01*
X116826047Y-149598947D01*
X116970210Y-149454784D01*
X117083478Y-149285266D01*
X117161499Y-149096908D01*
X117201273Y-148896949D01*
X117201273Y-148834811D01*
X117859003Y-148177082D01*
X117888001Y-148153284D01*
X117982974Y-148037559D01*
X118053546Y-147905530D01*
X118097003Y-147762269D01*
X118108000Y-147650616D01*
X118108000Y-147650607D01*
X118111676Y-147613284D01*
X118108000Y-147575961D01*
X118108000Y-143474165D01*
X118466279Y-143713560D01*
X118900321Y-143893346D01*
X119361098Y-143985000D01*
X119830902Y-143985000D01*
X120291679Y-143893346D01*
X120725721Y-143713560D01*
X121116349Y-143452550D01*
X121448550Y-143120349D01*
X121709560Y-142729721D01*
X121889346Y-142295679D01*
X121981000Y-141834902D01*
X121981000Y-141365098D01*
X121889346Y-140904321D01*
X121709560Y-140470279D01*
X121448550Y-140079651D01*
X121116349Y-139747450D01*
X120725721Y-139486440D01*
X120291679Y-139306654D01*
X119830902Y-139215000D01*
X119361098Y-139215000D01*
X118900321Y-139306654D01*
X118466279Y-139486440D01*
X118213378Y-139655423D01*
X118430502Y-139438300D01*
X118459501Y-139414501D01*
X118514361Y-139347654D01*
X118554474Y-139298777D01*
X118625046Y-139166747D01*
X118641500Y-139112505D01*
X118668503Y-139023486D01*
X118679500Y-138911833D01*
X118679500Y-138911824D01*
X118683176Y-138874501D01*
X118679500Y-138837178D01*
X118679500Y-137460825D01*
X118683176Y-137423500D01*
X118679500Y-137386175D01*
X118679500Y-137386167D01*
X118668503Y-137274514D01*
X118625046Y-137131253D01*
X118554474Y-136999224D01*
X118459501Y-136883499D01*
X118430504Y-136859702D01*
X117919170Y-136348369D01*
X117942200Y-136232589D01*
X117942200Y-135967411D01*
X117890467Y-135707328D01*
X117788987Y-135462335D01*
X117641662Y-135241847D01*
X117454153Y-135054338D01*
X117233665Y-134907013D01*
X117094267Y-134849272D01*
X117307200Y-134849272D01*
X117431682Y-134837012D01*
X117551380Y-134800702D01*
X117661694Y-134741737D01*
X117758385Y-134662385D01*
X117837737Y-134565694D01*
X117838055Y-134565098D01*
X118011000Y-134565098D01*
X118011000Y-135034902D01*
X118102654Y-135495679D01*
X118282440Y-135929721D01*
X118543450Y-136320349D01*
X118875651Y-136652550D01*
X119266279Y-136913560D01*
X119700321Y-137093346D01*
X120161098Y-137185000D01*
X120630902Y-137185000D01*
X121091679Y-137093346D01*
X121525721Y-136913560D01*
X121916349Y-136652550D01*
X122248550Y-136320349D01*
X122509560Y-135929721D01*
X122689346Y-135495679D01*
X122781000Y-135034902D01*
X122781000Y-134565098D01*
X122689346Y-134104321D01*
X122509560Y-133670279D01*
X122248550Y-133279651D01*
X121916349Y-132947450D01*
X121525721Y-132686440D01*
X121091679Y-132506654D01*
X120630902Y-132415000D01*
X120161098Y-132415000D01*
X119700321Y-132506654D01*
X119266279Y-132686440D01*
X118875651Y-132947450D01*
X118543450Y-133279651D01*
X118282440Y-133670279D01*
X118102654Y-134104321D01*
X118011000Y-134565098D01*
X117838055Y-134565098D01*
X117896702Y-134455380D01*
X117933012Y-134335682D01*
X117945272Y-134211200D01*
X117945272Y-132788800D01*
X117933012Y-132664318D01*
X117896702Y-132544620D01*
X117837737Y-132434306D01*
X117758385Y-132337615D01*
X117661694Y-132258263D01*
X117646880Y-132250344D01*
X117707246Y-132160000D01*
X121991182Y-132160000D01*
X122028504Y-132163676D01*
X122065826Y-132160000D01*
X122065837Y-132160000D01*
X122177490Y-132149003D01*
X122320751Y-132105546D01*
X122452780Y-132034974D01*
X122568505Y-131940001D01*
X122592308Y-131910998D01*
X123102802Y-131400504D01*
X123164939Y-131400504D01*
X123364898Y-131360730D01*
X123553256Y-131282709D01*
X123722774Y-131169441D01*
X123866937Y-131025278D01*
X123980205Y-130855760D01*
X124058226Y-130667402D01*
X124098000Y-130467443D01*
X124098000Y-130263565D01*
X124058226Y-130063606D01*
X123980205Y-129875248D01*
X123866937Y-129705730D01*
X123722774Y-129561567D01*
X123553256Y-129448299D01*
X123364898Y-129370278D01*
X123164939Y-129330504D01*
X122961061Y-129330504D01*
X122761102Y-129370278D01*
X122572744Y-129448299D01*
X122403226Y-129561567D01*
X122259063Y-129705730D01*
X122145795Y-129875248D01*
X122067774Y-130063606D01*
X122028000Y-130263565D01*
X122028000Y-130325702D01*
X121713703Y-130640000D01*
X117707246Y-130640000D01*
X117641662Y-130541847D01*
X117454153Y-130354338D01*
X117233665Y-130207013D01*
X116988672Y-130105533D01*
X116728589Y-130053800D01*
X116463411Y-130053800D01*
X116203328Y-130105533D01*
X115958335Y-130207013D01*
X115737847Y-130354338D01*
X115550338Y-130541847D01*
X115403013Y-130762335D01*
X115346000Y-130899976D01*
X115288987Y-130762335D01*
X115141662Y-130541847D01*
X114954153Y-130354338D01*
X114733665Y-130207013D01*
X114488672Y-130105533D01*
X114228589Y-130053800D01*
X113963411Y-130053800D01*
X113703328Y-130105533D01*
X113458335Y-130207013D01*
X113237847Y-130354338D01*
X113050338Y-130541847D01*
X112903013Y-130762335D01*
X112801533Y-131007328D01*
X112749800Y-131267411D01*
X112749800Y-131532589D01*
X112801533Y-131792672D01*
X112903013Y-132037665D01*
X113050338Y-132258153D01*
X113237847Y-132445662D01*
X113357937Y-132525903D01*
X113346332Y-132570727D01*
X114096000Y-133320395D01*
X114845668Y-132570727D01*
X114834063Y-132525903D01*
X114954153Y-132445662D01*
X115141662Y-132258153D01*
X115288987Y-132037665D01*
X115346000Y-131900024D01*
X115403013Y-132037665D01*
X115545120Y-132250344D01*
X115530306Y-132258263D01*
X115433615Y-132337615D01*
X115354263Y-132434306D01*
X115295298Y-132544620D01*
X115258988Y-132664318D01*
X115246728Y-132788800D01*
X115246728Y-132807668D01*
X115025273Y-132750332D01*
X114275605Y-133500000D01*
X114289748Y-133514143D01*
X114110143Y-133693748D01*
X114096000Y-133679605D01*
X114081858Y-133693748D01*
X113902253Y-133514143D01*
X113916395Y-133500000D01*
X113166727Y-132750332D01*
X112931817Y-132811152D01*
X112819798Y-133051509D01*
X112756824Y-133309102D01*
X112745313Y-133574030D01*
X112780752Y-133803950D01*
X111498304Y-132521503D01*
X111474501Y-132492499D01*
X111358776Y-132397526D01*
X111226747Y-132326954D01*
X111083486Y-132283497D01*
X110971833Y-132272500D01*
X110971822Y-132272500D01*
X110934500Y-132268824D01*
X110897178Y-132272500D01*
X110870103Y-132272500D01*
X110901932Y-132195658D01*
X110959000Y-131908760D01*
X110959000Y-131616240D01*
X110901932Y-131329342D01*
X110789990Y-131059089D01*
X110627475Y-130815868D01*
X110495620Y-130684013D01*
X110568180Y-130662002D01*
X110678494Y-130603037D01*
X110775185Y-130523685D01*
X110854537Y-130426994D01*
X110913502Y-130316680D01*
X110949812Y-130196982D01*
X110962072Y-130072500D01*
X110959000Y-129508250D01*
X110800250Y-129349500D01*
X109601000Y-129349500D01*
X109601000Y-129369500D01*
X109347000Y-129369500D01*
X109347000Y-129349500D01*
X107061000Y-129349500D01*
X107061000Y-129369500D01*
X106807000Y-129369500D01*
X106807000Y-129349500D01*
X105613845Y-129349500D01*
X105492524Y-129579390D01*
X105537175Y-129726599D01*
X105662359Y-129989420D01*
X105836412Y-130222769D01*
X106052645Y-130417678D01*
X106169534Y-130487305D01*
X105987368Y-130609025D01*
X105780525Y-130815868D01*
X105618010Y-131059089D01*
X105506068Y-131329342D01*
X105449000Y-131616240D01*
X104820600Y-131616240D01*
X104820600Y-128865610D01*
X105492524Y-128865610D01*
X105613845Y-129095500D01*
X106807000Y-129095500D01*
X106807000Y-127901686D01*
X107061000Y-127901686D01*
X107061000Y-129095500D01*
X109347000Y-129095500D01*
X109347000Y-127896250D01*
X109601000Y-127896250D01*
X109601000Y-129095500D01*
X110800250Y-129095500D01*
X110959000Y-128936750D01*
X110962072Y-128372500D01*
X110949812Y-128248018D01*
X110913502Y-128128320D01*
X110854537Y-128018006D01*
X110775185Y-127921315D01*
X110678494Y-127841963D01*
X110628234Y-127815098D01*
X117211000Y-127815098D01*
X117211000Y-128284902D01*
X117302654Y-128745679D01*
X117482440Y-129179721D01*
X117743450Y-129570349D01*
X118075651Y-129902550D01*
X118466279Y-130163560D01*
X118900321Y-130343346D01*
X119361098Y-130435000D01*
X119830902Y-130435000D01*
X120291679Y-130343346D01*
X120725721Y-130163560D01*
X121116349Y-129902550D01*
X121448550Y-129570349D01*
X121709560Y-129179721D01*
X121889346Y-128745679D01*
X121981000Y-128284902D01*
X121981000Y-127815098D01*
X121889346Y-127354321D01*
X121709560Y-126920279D01*
X121448550Y-126529651D01*
X121116349Y-126197450D01*
X120725721Y-125936440D01*
X120291679Y-125756654D01*
X119830902Y-125665000D01*
X119361098Y-125665000D01*
X118900321Y-125756654D01*
X118466279Y-125936440D01*
X118075651Y-126197450D01*
X117743450Y-126529651D01*
X117482440Y-126920279D01*
X117302654Y-127354321D01*
X117211000Y-127815098D01*
X110628234Y-127815098D01*
X110568180Y-127782998D01*
X110448482Y-127746688D01*
X110324000Y-127734428D01*
X109759750Y-127737500D01*
X109601000Y-127896250D01*
X109347000Y-127896250D01*
X109188250Y-127737500D01*
X108624000Y-127734428D01*
X108499518Y-127746688D01*
X108379820Y-127782998D01*
X108269506Y-127841963D01*
X108172815Y-127921315D01*
X108093463Y-128018006D01*
X108034498Y-128128320D01*
X108011502Y-128204126D01*
X107815355Y-128027322D01*
X107565252Y-127878343D01*
X107290891Y-127781019D01*
X107061000Y-127901686D01*
X106807000Y-127901686D01*
X106577109Y-127781019D01*
X106302748Y-127878343D01*
X106052645Y-128027322D01*
X105836412Y-128222231D01*
X105662359Y-128455580D01*
X105537175Y-128718401D01*
X105492524Y-128865610D01*
X104820600Y-128865610D01*
X104820600Y-123955946D01*
X105621193Y-123155354D01*
X105649238Y-123132338D01*
X105741087Y-123020420D01*
X105809337Y-122892733D01*
X105842696Y-122782763D01*
X105851365Y-122754186D01*
X105865556Y-122610101D01*
X105862000Y-122573996D01*
X105862000Y-117530430D01*
X106025740Y-117563000D01*
X106318260Y-117563000D01*
X106605158Y-117505932D01*
X106875411Y-117393990D01*
X107118632Y-117231475D01*
X107250487Y-117099620D01*
X107272498Y-117172180D01*
X107331463Y-117282494D01*
X107410815Y-117379185D01*
X107507506Y-117458537D01*
X107617820Y-117517502D01*
X107737518Y-117553812D01*
X107862000Y-117566072D01*
X109562000Y-117566072D01*
X109686482Y-117553812D01*
X109806180Y-117517502D01*
X109916494Y-117458537D01*
X110013185Y-117379185D01*
X110092537Y-117282494D01*
X110151502Y-117172180D01*
X110187812Y-117052482D01*
X110200072Y-116928000D01*
X110200072Y-115228000D01*
X110187812Y-115103518D01*
X110151502Y-114983820D01*
X110092537Y-114873506D01*
X110013185Y-114776815D01*
X109916494Y-114697463D01*
X109806180Y-114638498D01*
X109686482Y-114602188D01*
X109562000Y-114589928D01*
X107862000Y-114589928D01*
X107737518Y-114602188D01*
X107617820Y-114638498D01*
X107507506Y-114697463D01*
X107410815Y-114776815D01*
X107331463Y-114873506D01*
X107272498Y-114983820D01*
X107250487Y-115056380D01*
X107118632Y-114924525D01*
X106875411Y-114762010D01*
X106605158Y-114650068D01*
X106318260Y-114593000D01*
X106025740Y-114593000D01*
X105738842Y-114650068D01*
X105468589Y-114762010D01*
X105225368Y-114924525D01*
X105018525Y-115131368D01*
X104902000Y-115305760D01*
X104785475Y-115131368D01*
X104578632Y-114924525D01*
X104335411Y-114762010D01*
X104065158Y-114650068D01*
X103778260Y-114593000D01*
X103485740Y-114593000D01*
X103198842Y-114650068D01*
X102928589Y-114762010D01*
X102685368Y-114924525D01*
X102478525Y-115131368D01*
X102356805Y-115313534D01*
X102287178Y-115196645D01*
X102092269Y-114980412D01*
X101858920Y-114806359D01*
X101596099Y-114681175D01*
X101448890Y-114636524D01*
X101219000Y-114757845D01*
X101219000Y-115951000D01*
X101239000Y-115951000D01*
X101239000Y-116205000D01*
X101219000Y-116205000D01*
X101219000Y-117398155D01*
X101448890Y-117519476D01*
X101596099Y-117474825D01*
X101858920Y-117349641D01*
X102092269Y-117175588D01*
X102287178Y-116959355D01*
X102356805Y-116842466D01*
X102478525Y-117024632D01*
X102685368Y-117231475D01*
X102928589Y-117393990D01*
X103198842Y-117505932D01*
X103485740Y-117563000D01*
X103778260Y-117563000D01*
X103942000Y-117530430D01*
X103942001Y-122119252D01*
X103141408Y-122919846D01*
X103113362Y-122942863D01*
X103021513Y-123054781D01*
X102953263Y-123182468D01*
X102926542Y-123270556D01*
X102911235Y-123321015D01*
X102897044Y-123465100D01*
X102900600Y-123501205D01*
X102900601Y-139835752D01*
X98548054Y-144188300D01*
X92094105Y-144188300D01*
X92058000Y-144184744D01*
X91913915Y-144198935D01*
X91775366Y-144240963D01*
X91647680Y-144309213D01*
X91535762Y-144401062D01*
X91512746Y-144429107D01*
X90597854Y-145344000D01*
X76390844Y-145344000D01*
X76049460Y-145002617D01*
X76069226Y-144954898D01*
X76109000Y-144754939D01*
X76109000Y-144551061D01*
X76069226Y-144351102D01*
X75991205Y-144162744D01*
X75877937Y-143993226D01*
X75733774Y-143849063D01*
X75603475Y-143762000D01*
X81623678Y-143762000D01*
X81661000Y-143765676D01*
X81698322Y-143762000D01*
X81698333Y-143762000D01*
X81809986Y-143751003D01*
X81953247Y-143707546D01*
X82085276Y-143636974D01*
X82201001Y-143542001D01*
X82224804Y-143512997D01*
X85093003Y-140644799D01*
X85122001Y-140621001D01*
X85216974Y-140505276D01*
X85287546Y-140373247D01*
X85331003Y-140229986D01*
X85342000Y-140118333D01*
X85342000Y-140118323D01*
X85345676Y-140081000D01*
X85342000Y-140043677D01*
X85342000Y-139343647D01*
X90785858Y-139343647D01*
X90785858Y-139547525D01*
X90825632Y-139747484D01*
X90903653Y-139935842D01*
X91016921Y-140105360D01*
X91125600Y-140214039D01*
X91110597Y-140289464D01*
X91110597Y-140493342D01*
X91150371Y-140693301D01*
X91228392Y-140881659D01*
X91341660Y-141051177D01*
X91485823Y-141195340D01*
X91655341Y-141308608D01*
X91843699Y-141386629D01*
X92043658Y-141426403D01*
X92247536Y-141426403D01*
X92447495Y-141386629D01*
X92635853Y-141308608D01*
X92805371Y-141195340D01*
X92949534Y-141051177D01*
X93062802Y-140881659D01*
X93118641Y-140746852D01*
X93129726Y-140757937D01*
X93299244Y-140871205D01*
X93487602Y-140949226D01*
X93687561Y-140989000D01*
X93891439Y-140989000D01*
X94091398Y-140949226D01*
X94279756Y-140871205D01*
X94449274Y-140757937D01*
X94593437Y-140613774D01*
X94706705Y-140444256D01*
X94784726Y-140255898D01*
X94824500Y-140055939D01*
X94824500Y-139993802D01*
X95653008Y-139165295D01*
X95682000Y-139141502D01*
X95705794Y-139112509D01*
X95705798Y-139112505D01*
X95767931Y-139036795D01*
X95776973Y-139025777D01*
X95847545Y-138893748D01*
X95891002Y-138750487D01*
X95901999Y-138638834D01*
X95901999Y-138638825D01*
X95905675Y-138601502D01*
X95901999Y-138564179D01*
X95901999Y-133025321D01*
X95905675Y-132987998D01*
X95901999Y-132950675D01*
X95901999Y-132950666D01*
X95891002Y-132839013D01*
X95847545Y-132695752D01*
X95776973Y-132563723D01*
X95755056Y-132537017D01*
X95705798Y-132476995D01*
X95705794Y-132476991D01*
X95682000Y-132447998D01*
X95653007Y-132424204D01*
X95396000Y-132167198D01*
X95396000Y-132105061D01*
X95356226Y-131905102D01*
X95278205Y-131716744D01*
X95164937Y-131547226D01*
X95020774Y-131403063D01*
X94851256Y-131289795D01*
X94662898Y-131211774D01*
X94462939Y-131172000D01*
X94259061Y-131172000D01*
X94059102Y-131211774D01*
X93870744Y-131289795D01*
X93701226Y-131403063D01*
X93557063Y-131547226D01*
X93443795Y-131716744D01*
X93365774Y-131905102D01*
X93326000Y-132105061D01*
X93326000Y-132308939D01*
X93365774Y-132508898D01*
X93443795Y-132697256D01*
X93473739Y-132742070D01*
X93335083Y-132880726D01*
X93221815Y-133050244D01*
X93143794Y-133238602D01*
X93104020Y-133438561D01*
X93104020Y-133642439D01*
X93143794Y-133842398D01*
X93221815Y-134030756D01*
X93335083Y-134200274D01*
X93400183Y-134265374D01*
X93292167Y-134286860D01*
X93103809Y-134364881D01*
X92934291Y-134478149D01*
X92790128Y-134622312D01*
X92676860Y-134791830D01*
X92598839Y-134980188D01*
X92559065Y-135180147D01*
X92559065Y-135384025D01*
X92598839Y-135583984D01*
X92676860Y-135772342D01*
X92790128Y-135941860D01*
X92834065Y-135985797D01*
X92834066Y-137357575D01*
X91781056Y-138410586D01*
X91718919Y-138410586D01*
X91518960Y-138450360D01*
X91330602Y-138528381D01*
X91161084Y-138641649D01*
X91016921Y-138785812D01*
X90903653Y-138955330D01*
X90825632Y-139143688D01*
X90785858Y-139343647D01*
X85342000Y-139343647D01*
X85342000Y-134837751D01*
X85385937Y-134793814D01*
X85499205Y-134624296D01*
X85577226Y-134435938D01*
X85617000Y-134235979D01*
X85617000Y-134173841D01*
X89538004Y-130252838D01*
X89567001Y-130229041D01*
X89661974Y-130113316D01*
X89732546Y-129981287D01*
X89776003Y-129838026D01*
X89787000Y-129726373D01*
X89787000Y-129726364D01*
X89790676Y-129689041D01*
X89787000Y-129651718D01*
X89787000Y-126997297D01*
X90209798Y-126574500D01*
X90271935Y-126574500D01*
X90471894Y-126534726D01*
X90660252Y-126456705D01*
X90829770Y-126343437D01*
X90904203Y-126269004D01*
X91207064Y-126571866D01*
X91230862Y-126600864D01*
X91259860Y-126624662D01*
X91346586Y-126695837D01*
X91477417Y-126765768D01*
X91478616Y-126766409D01*
X91621877Y-126809866D01*
X91733530Y-126820863D01*
X91733540Y-126820863D01*
X91770862Y-126824539D01*
X91808185Y-126820863D01*
X93471253Y-126820863D01*
X93474001Y-126848765D01*
X93474000Y-129217289D01*
X93430063Y-129261226D01*
X93316795Y-129430744D01*
X93238774Y-129619102D01*
X93199000Y-129819061D01*
X93199000Y-130022939D01*
X93238774Y-130222898D01*
X93316795Y-130411256D01*
X93430063Y-130580774D01*
X93574226Y-130724937D01*
X93743744Y-130838205D01*
X93932102Y-130916226D01*
X94132061Y-130956000D01*
X94335939Y-130956000D01*
X94535898Y-130916226D01*
X94724256Y-130838205D01*
X94893774Y-130724937D01*
X95037937Y-130580774D01*
X95151205Y-130411256D01*
X95229226Y-130222898D01*
X95269000Y-130022939D01*
X95269000Y-129819061D01*
X95229226Y-129619102D01*
X95151205Y-129430744D01*
X95037937Y-129261226D01*
X94994000Y-129217289D01*
X94994000Y-127126234D01*
X95024371Y-127095863D01*
X95086509Y-127095863D01*
X95286468Y-127056089D01*
X95474826Y-126978068D01*
X95644344Y-126864800D01*
X95788507Y-126720637D01*
X95901775Y-126551119D01*
X95979796Y-126362761D01*
X96019570Y-126162802D01*
X96019570Y-125958924D01*
X95979796Y-125758965D01*
X95901775Y-125570607D01*
X95788507Y-125401089D01*
X95644344Y-125256926D01*
X95474826Y-125143658D01*
X95286468Y-125065637D01*
X95086509Y-125025863D01*
X94882631Y-125025863D01*
X94747605Y-125052721D01*
X94721226Y-124920102D01*
X94643205Y-124731744D01*
X94529937Y-124562226D01*
X94385774Y-124418063D01*
X94216256Y-124304795D01*
X94027898Y-124226774D01*
X93827939Y-124187000D01*
X93624061Y-124187000D01*
X93424102Y-124226774D01*
X93235744Y-124304795D01*
X93066226Y-124418063D01*
X93022289Y-124462000D01*
X92516802Y-124462000D01*
X88808130Y-120753329D01*
X88908751Y-120670751D01*
X89006758Y-120551329D01*
X89079584Y-120415082D01*
X89124429Y-120267245D01*
X89137159Y-120138000D01*
X89250546Y-120138000D01*
X89298744Y-120170205D01*
X89487102Y-120248226D01*
X89687061Y-120288000D01*
X89890939Y-120288000D01*
X90090898Y-120248226D01*
X90279256Y-120170205D01*
X90327454Y-120138000D01*
X91454422Y-120138000D01*
X93196470Y-121880049D01*
X93224183Y-121913817D01*
X93257951Y-121941530D01*
X93257953Y-121941532D01*
X93307199Y-121981947D01*
X93358941Y-122024411D01*
X93512687Y-122106589D01*
X93608830Y-122135754D01*
X93679509Y-122157195D01*
X93694306Y-122158652D01*
X93809523Y-122170000D01*
X93809531Y-122170000D01*
X93853000Y-122174281D01*
X93896469Y-122170000D01*
X100211001Y-122170000D01*
X100211000Y-139229868D01*
X98208869Y-141232000D01*
X96464248Y-141232000D01*
X96297501Y-141248423D01*
X96083553Y-141313324D01*
X95886377Y-141418716D01*
X95713551Y-141560551D01*
X95571716Y-141733377D01*
X95466324Y-141930553D01*
X95401423Y-142144501D01*
X95379509Y-142367000D01*
X95401423Y-142589499D01*
X95466324Y-142803447D01*
X95571716Y-143000623D01*
X95713551Y-143173449D01*
X95886377Y-143315284D01*
X96083553Y-143420676D01*
X96297501Y-143485577D01*
X96464248Y-143502000D01*
X98623249Y-143502000D01*
X98679000Y-143507491D01*
X98734751Y-143502000D01*
X98734752Y-143502000D01*
X98901499Y-143485577D01*
X99115447Y-143420676D01*
X99312623Y-143315284D01*
X99485449Y-143173449D01*
X99520996Y-143130135D01*
X99647988Y-143003143D01*
X102109141Y-140541991D01*
X102152449Y-140506449D01*
X102294284Y-140333623D01*
X102399676Y-140136447D01*
X102464577Y-139922499D01*
X102481000Y-139755752D01*
X102481000Y-139755743D01*
X102486490Y-139700001D01*
X102481000Y-139644259D01*
X102481000Y-121755132D01*
X103591339Y-120644794D01*
X103697634Y-120515273D01*
X103803026Y-120318097D01*
X103867927Y-120104149D01*
X103889841Y-119881650D01*
X103867927Y-119659151D01*
X103803026Y-119445203D01*
X103697634Y-119248027D01*
X103555799Y-119075201D01*
X103382973Y-118933366D01*
X103185797Y-118827974D01*
X102971849Y-118763073D01*
X102749350Y-118741159D01*
X102526851Y-118763073D01*
X102312903Y-118827974D01*
X102115727Y-118933366D01*
X101986206Y-119039661D01*
X100625869Y-120400000D01*
X96137000Y-120400000D01*
X96137000Y-118931827D01*
X96163774Y-118913937D01*
X96307937Y-118769774D01*
X96421205Y-118600256D01*
X96499226Y-118411898D01*
X96539000Y-118211939D01*
X96539000Y-118008061D01*
X96499226Y-117808102D01*
X96421205Y-117619744D01*
X96307937Y-117450226D01*
X96163774Y-117306063D01*
X95994256Y-117192795D01*
X95805898Y-117114774D01*
X95605939Y-117075000D01*
X95402061Y-117075000D01*
X95202102Y-117114774D01*
X95013744Y-117192795D01*
X94844226Y-117306063D01*
X94700063Y-117450226D01*
X94586795Y-117619744D01*
X94508774Y-117808102D01*
X94469000Y-118008061D01*
X94469000Y-118211939D01*
X94508774Y-118411898D01*
X94586795Y-118600256D01*
X94617001Y-118645462D01*
X94617000Y-120400000D01*
X94219579Y-120400000D01*
X92477534Y-118657956D01*
X92449817Y-118624183D01*
X92315059Y-118513589D01*
X92161313Y-118431411D01*
X91994490Y-118380805D01*
X91864477Y-118368000D01*
X91864469Y-118368000D01*
X91821000Y-118363719D01*
X91777531Y-118368000D01*
X90818219Y-118368000D01*
X90824000Y-118338939D01*
X90824000Y-118135061D01*
X90784226Y-117935102D01*
X90706205Y-117746744D01*
X90592937Y-117577226D01*
X90448774Y-117433063D01*
X90279256Y-117319795D01*
X90090898Y-117241774D01*
X89890939Y-117202000D01*
X89687061Y-117202000D01*
X89487102Y-117241774D01*
X89298744Y-117319795D01*
X89129226Y-117433063D01*
X88985063Y-117577226D01*
X88871795Y-117746744D01*
X88862776Y-117768518D01*
X88789329Y-117708242D01*
X88653082Y-117635416D01*
X88505245Y-117590571D01*
X88351500Y-117575428D01*
X88051500Y-117575428D01*
X87897755Y-117590571D01*
X87749918Y-117635416D01*
X87691500Y-117666641D01*
X87691500Y-116561234D01*
X87695176Y-116523911D01*
X87691500Y-116486588D01*
X87691500Y-116486578D01*
X87680503Y-116374925D01*
X87637046Y-116231664D01*
X87566474Y-116099635D01*
X87471501Y-115983910D01*
X87442497Y-115960107D01*
X87429425Y-115947035D01*
X87420992Y-115861414D01*
X87377535Y-115718153D01*
X87306963Y-115586124D01*
X87287022Y-115561826D01*
X87211990Y-115470399D01*
X87182992Y-115446601D01*
X86197383Y-114460992D01*
X86173580Y-114431989D01*
X86057855Y-114337016D01*
X85925826Y-114266444D01*
X85782565Y-114222987D01*
X85670912Y-114211990D01*
X85670901Y-114211990D01*
X85633579Y-114208314D01*
X85596257Y-114211990D01*
X83634711Y-114211990D01*
X83590774Y-114168053D01*
X83421256Y-114054785D01*
X83232898Y-113976764D01*
X83032939Y-113936990D01*
X82829061Y-113936990D01*
X82629102Y-113976764D01*
X82440744Y-114054785D01*
X82271226Y-114168053D01*
X82199929Y-114239350D01*
X82089898Y-114193774D01*
X81889939Y-114154000D01*
X81686061Y-114154000D01*
X81486102Y-114193774D01*
X81297744Y-114271795D01*
X81128226Y-114385063D01*
X80984063Y-114529226D01*
X80870795Y-114698744D01*
X80792774Y-114887102D01*
X80753000Y-115087061D01*
X80753000Y-115290939D01*
X80792774Y-115490898D01*
X80870795Y-115679256D01*
X80984063Y-115848774D01*
X81128226Y-115992937D01*
X81297744Y-116106205D01*
X81486102Y-116184226D01*
X81686061Y-116224000D01*
X81745329Y-116224000D01*
X81755999Y-116237001D01*
X81871724Y-116331974D01*
X82003753Y-116402546D01*
X82147014Y-116446003D01*
X82258667Y-116457000D01*
X82258676Y-116457000D01*
X82295999Y-116460676D01*
X82333322Y-116457000D01*
X82447286Y-116457000D01*
X82382090Y-116536441D01*
X82299912Y-116690187D01*
X82249305Y-116857010D01*
X82232219Y-117030500D01*
X82236501Y-117073979D01*
X82236501Y-117615219D01*
X82155245Y-117590571D01*
X82001500Y-117575428D01*
X81701500Y-117575428D01*
X81547755Y-117590571D01*
X81399918Y-117635416D01*
X81263671Y-117708242D01*
X81216500Y-117746954D01*
X81169329Y-117708242D01*
X81033082Y-117635416D01*
X80885245Y-117590571D01*
X80731500Y-117575428D01*
X80431500Y-117575428D01*
X80277755Y-117590571D01*
X80129918Y-117635416D01*
X79993671Y-117708242D01*
X79946500Y-117746954D01*
X79899329Y-117708242D01*
X79763082Y-117635416D01*
X79615245Y-117590571D01*
X79461500Y-117575428D01*
X79161500Y-117575428D01*
X79007755Y-117590571D01*
X78859918Y-117635416D01*
X78723671Y-117708242D01*
X78676500Y-117746954D01*
X78629329Y-117708242D01*
X78493082Y-117635416D01*
X78345245Y-117590571D01*
X78191500Y-117575428D01*
X77891500Y-117575428D01*
X77737755Y-117590571D01*
X77589918Y-117635416D01*
X77453671Y-117708242D01*
X77334249Y-117806249D01*
X77236242Y-117925671D01*
X77163416Y-118061918D01*
X77118571Y-118209755D01*
X77103428Y-118363500D01*
X77103428Y-120113500D01*
X77118571Y-120267245D01*
X77163416Y-120415082D01*
X77236242Y-120551329D01*
X77281500Y-120606476D01*
X77281500Y-120676177D01*
X77277824Y-120713500D01*
X77281285Y-120748643D01*
X77236774Y-120856102D01*
X77197000Y-121056061D01*
X77197000Y-121259939D01*
X77236774Y-121459898D01*
X77314795Y-121648256D01*
X77428063Y-121817774D01*
X77572226Y-121961937D01*
X77741744Y-122075205D01*
X77930102Y-122153226D01*
X78130061Y-122193000D01*
X78333939Y-122193000D01*
X78533898Y-122153226D01*
X78722256Y-122075205D01*
X78891774Y-121961937D01*
X78948059Y-121905652D01*
X79011744Y-121948205D01*
X79200102Y-122026226D01*
X79400061Y-122066000D01*
X79603939Y-122066000D01*
X79803898Y-122026226D01*
X79992256Y-121948205D01*
X80161774Y-121834937D01*
X80305937Y-121690774D01*
X80419205Y-121521256D01*
X80497226Y-121332898D01*
X80510311Y-121267113D01*
X80846072Y-121602873D01*
X80869870Y-121631872D01*
X80898868Y-121655670D01*
X80985595Y-121726845D01*
X81117624Y-121797417D01*
X81260885Y-121840874D01*
X81409871Y-121855548D01*
X81447204Y-121851871D01*
X81483132Y-121851871D01*
X81527069Y-121895808D01*
X81696587Y-122009076D01*
X81884945Y-122087097D01*
X82084904Y-122126871D01*
X82288782Y-122126871D01*
X82488741Y-122087097D01*
X82677099Y-122009076D01*
X82740089Y-121966988D01*
X82883102Y-122026226D01*
X83083061Y-122066000D01*
X83286939Y-122066000D01*
X83486898Y-122026226D01*
X83675256Y-121948205D01*
X83756503Y-121893918D01*
X83837750Y-121948205D01*
X84026108Y-122026226D01*
X84226067Y-122066000D01*
X84288205Y-122066000D01*
X86108001Y-123885797D01*
X86108000Y-124653198D01*
X83880498Y-126880701D01*
X83851500Y-126904499D01*
X83827702Y-126933497D01*
X83827701Y-126933498D01*
X83756526Y-127020224D01*
X83746587Y-127038819D01*
X83709329Y-127008242D01*
X83573082Y-126935416D01*
X83425245Y-126890571D01*
X83349008Y-126883062D01*
X84924259Y-125307812D01*
X84986396Y-125307812D01*
X85186355Y-125268038D01*
X85374713Y-125190017D01*
X85544231Y-125076749D01*
X85688394Y-124932586D01*
X85801662Y-124763068D01*
X85879683Y-124574710D01*
X85919457Y-124374751D01*
X85919457Y-124170873D01*
X85879683Y-123970914D01*
X85801662Y-123782556D01*
X85688394Y-123613038D01*
X85544231Y-123468875D01*
X85374713Y-123355607D01*
X85186355Y-123277586D01*
X84986396Y-123237812D01*
X84924258Y-123237812D01*
X84619448Y-122933002D01*
X84595646Y-122903999D01*
X84479921Y-122809026D01*
X84347892Y-122738454D01*
X84204631Y-122694997D01*
X84092978Y-122684000D01*
X84092967Y-122684000D01*
X84055645Y-122680324D01*
X84018323Y-122684000D01*
X78740333Y-122684000D01*
X78703010Y-122680324D01*
X78665687Y-122684000D01*
X78665677Y-122684000D01*
X78554024Y-122694997D01*
X78410763Y-122738454D01*
X78278734Y-122809026D01*
X78163009Y-122903999D01*
X78139211Y-122932997D01*
X76833000Y-124239209D01*
X76833000Y-117281801D01*
X82081802Y-112033000D01*
X82143939Y-112033000D01*
X82343898Y-111993226D01*
X82532256Y-111915205D01*
X82701774Y-111801937D01*
X82745711Y-111758000D01*
X88970199Y-111758000D01*
X88321698Y-112406501D01*
X88292694Y-112430304D01*
X88244359Y-112489201D01*
X88197721Y-112546029D01*
X88147377Y-112640215D01*
X88127149Y-112678059D01*
X88083692Y-112821320D01*
X88072695Y-112932973D01*
X88072695Y-112932983D01*
X88069019Y-112970305D01*
X88072695Y-113007628D01*
X88072696Y-115374288D01*
X88028758Y-115418226D01*
X87915490Y-115587744D01*
X87837469Y-115776102D01*
X87797695Y-115976061D01*
X87797695Y-116179939D01*
X87837469Y-116379898D01*
X87915490Y-116568256D01*
X88028758Y-116737774D01*
X88172921Y-116881937D01*
X88342439Y-116995205D01*
X88530797Y-117073226D01*
X88730756Y-117113000D01*
X88934634Y-117113000D01*
X89134593Y-117073226D01*
X89322951Y-116995205D01*
X89492469Y-116881937D01*
X89636632Y-116737774D01*
X89749900Y-116568256D01*
X89827921Y-116379898D01*
X89867695Y-116179939D01*
X89867695Y-115976061D01*
X89858880Y-115931740D01*
X97067000Y-115931740D01*
X97067000Y-116224260D01*
X97124068Y-116511158D01*
X97236010Y-116781411D01*
X97398525Y-117024632D01*
X97605368Y-117231475D01*
X97848589Y-117393990D01*
X98118842Y-117505932D01*
X98405740Y-117563000D01*
X98698260Y-117563000D01*
X98985158Y-117505932D01*
X99255411Y-117393990D01*
X99498632Y-117231475D01*
X99705475Y-117024632D01*
X99827195Y-116842466D01*
X99896822Y-116959355D01*
X100091731Y-117175588D01*
X100325080Y-117349641D01*
X100587901Y-117474825D01*
X100735110Y-117519476D01*
X100965000Y-117398155D01*
X100965000Y-116205000D01*
X100945000Y-116205000D01*
X100945000Y-115951000D01*
X100965000Y-115951000D01*
X100965000Y-114757845D01*
X100735110Y-114636524D01*
X100587901Y-114681175D01*
X100325080Y-114806359D01*
X100091731Y-114980412D01*
X99896822Y-115196645D01*
X99827195Y-115313534D01*
X99705475Y-115131368D01*
X99498632Y-114924525D01*
X99255411Y-114762010D01*
X98985158Y-114650068D01*
X98698260Y-114593000D01*
X98405740Y-114593000D01*
X98118842Y-114650068D01*
X97848589Y-114762010D01*
X97605368Y-114924525D01*
X97398525Y-115131368D01*
X97236010Y-115374589D01*
X97124068Y-115644842D01*
X97067000Y-115931740D01*
X89858880Y-115931740D01*
X89827921Y-115776102D01*
X89749900Y-115587744D01*
X89636632Y-115418226D01*
X89592695Y-115374289D01*
X89592695Y-113285106D01*
X90463802Y-112414000D01*
X90525939Y-112414000D01*
X90725898Y-112374226D01*
X90914256Y-112296205D01*
X91083774Y-112182937D01*
X91227937Y-112038774D01*
X91341205Y-111869256D01*
X91419226Y-111680898D01*
X91459000Y-111480939D01*
X91459000Y-111277061D01*
X91451746Y-111240588D01*
X103044414Y-111240588D01*
X103072051Y-111357221D01*
X103196564Y-111642983D01*
X103374434Y-111898962D01*
X103598825Y-112115322D01*
X103861114Y-112283748D01*
X104151222Y-112397768D01*
X104458000Y-112453000D01*
X104958000Y-112453000D01*
X104958000Y-110995000D01*
X105212000Y-110995000D01*
X105212000Y-112453000D01*
X105712000Y-112453000D01*
X106018778Y-112397768D01*
X106308886Y-112283748D01*
X106571175Y-112115322D01*
X106795566Y-111898962D01*
X106973436Y-111642983D01*
X107097949Y-111357221D01*
X107125586Y-111240588D01*
X107005584Y-110995000D01*
X105212000Y-110995000D01*
X104958000Y-110995000D01*
X103164416Y-110995000D01*
X103044414Y-111240588D01*
X91451746Y-111240588D01*
X91419226Y-111077102D01*
X91341205Y-110888744D01*
X91227937Y-110719226D01*
X91083774Y-110575063D01*
X90964568Y-110495412D01*
X103044414Y-110495412D01*
X103164416Y-110741000D01*
X104958000Y-110741000D01*
X104958000Y-109283000D01*
X105212000Y-109283000D01*
X105212000Y-110741000D01*
X107005584Y-110741000D01*
X107125586Y-110495412D01*
X107097949Y-110378779D01*
X106973436Y-110093017D01*
X106795566Y-109837038D01*
X106571175Y-109620678D01*
X106308886Y-109452252D01*
X106018778Y-109338232D01*
X105712000Y-109283000D01*
X105212000Y-109283000D01*
X104958000Y-109283000D01*
X104458000Y-109283000D01*
X104151222Y-109338232D01*
X103861114Y-109452252D01*
X103598825Y-109620678D01*
X103374434Y-109837038D01*
X103196564Y-110093017D01*
X103072051Y-110378779D01*
X103044414Y-110495412D01*
X90964568Y-110495412D01*
X90914256Y-110461795D01*
X90725898Y-110383774D01*
X90525939Y-110344000D01*
X90431681Y-110344000D01*
X90335247Y-110292454D01*
X90191986Y-110248997D01*
X90080333Y-110238000D01*
X90080322Y-110238000D01*
X90043000Y-110234324D01*
X90005678Y-110238000D01*
X82745711Y-110238000D01*
X82701774Y-110194063D01*
X82532256Y-110080795D01*
X82343898Y-110002774D01*
X82143939Y-109963000D01*
X81940061Y-109963000D01*
X81740102Y-110002774D01*
X81551744Y-110080795D01*
X81382226Y-110194063D01*
X81238063Y-110338226D01*
X81124795Y-110507744D01*
X81046774Y-110696102D01*
X81007000Y-110896061D01*
X81007000Y-110958198D01*
X79807026Y-112158173D01*
X79862226Y-112024908D01*
X79902000Y-111824949D01*
X79902000Y-111621071D01*
X79862226Y-111421112D01*
X79784205Y-111232754D01*
X79670937Y-111063236D01*
X79526774Y-110919073D01*
X79357256Y-110805805D01*
X79168898Y-110727784D01*
X78968939Y-110688010D01*
X78765061Y-110688010D01*
X78565102Y-110727784D01*
X78376744Y-110805805D01*
X78207226Y-110919073D01*
X78063063Y-111063236D01*
X77949795Y-111232754D01*
X77871774Y-111421112D01*
X77832000Y-111621071D01*
X77832000Y-111683208D01*
X77812002Y-111703206D01*
X77812002Y-109093327D01*
X77815678Y-109056002D01*
X77812002Y-109018677D01*
X77812002Y-109018669D01*
X77801005Y-108907016D01*
X77757548Y-108763755D01*
X77686976Y-108631726D01*
X77592003Y-108516001D01*
X77563006Y-108492204D01*
X76763803Y-107693002D01*
X76740001Y-107663999D01*
X76624276Y-107569026D01*
X76492247Y-107498454D01*
X76348986Y-107454997D01*
X76237333Y-107444000D01*
X76237322Y-107444000D01*
X76200000Y-107440324D01*
X76162678Y-107444000D01*
X75221322Y-107444000D01*
X75183999Y-107440324D01*
X75146676Y-107444000D01*
X75146667Y-107444000D01*
X75035014Y-107454997D01*
X74891753Y-107498454D01*
X74759724Y-107569026D01*
X74643999Y-107663999D01*
X74620196Y-107693003D01*
X74418998Y-107894201D01*
X74390000Y-107917999D01*
X74366202Y-107946997D01*
X74366201Y-107946998D01*
X74295026Y-108033724D01*
X74224454Y-108165754D01*
X74199838Y-108246906D01*
X74180998Y-108309014D01*
X74170000Y-108420667D01*
X74170000Y-108420678D01*
X74166324Y-108458000D01*
X74170000Y-108495322D01*
X74170000Y-109239680D01*
X74166324Y-109277002D01*
X74170000Y-109314324D01*
X74170000Y-109314334D01*
X74180997Y-109425987D01*
X74221493Y-109559486D01*
X74224454Y-109569248D01*
X74295026Y-109701278D01*
X74319175Y-109730703D01*
X74389999Y-109817003D01*
X74419002Y-109840805D01*
X75047979Y-110469783D01*
X75047978Y-110973498D01*
X73412831Y-110973498D01*
X73375498Y-110969821D01*
X73338165Y-110973498D01*
X73226512Y-110984495D01*
X73083251Y-111027952D01*
X72951222Y-111098524D01*
X72835497Y-111193497D01*
X72811699Y-111222495D01*
X71928193Y-112106002D01*
X70071931Y-112106002D01*
X70071931Y-112023875D01*
X70032157Y-111823916D01*
X69954136Y-111635558D01*
X69930459Y-111600122D01*
X70005205Y-111488256D01*
X70083226Y-111299898D01*
X70123000Y-111099939D01*
X70123000Y-110896061D01*
X70083226Y-110696102D01*
X70005205Y-110507744D01*
X69891937Y-110338226D01*
X69747774Y-110194063D01*
X69721924Y-110176791D01*
X69828441Y-110070274D01*
X69941709Y-109900756D01*
X70019730Y-109712398D01*
X70059504Y-109512439D01*
X70059504Y-109308561D01*
X70019730Y-109108602D01*
X69941709Y-108920244D01*
X69828441Y-108750726D01*
X69794373Y-108716658D01*
X69896597Y-108614434D01*
X70009865Y-108444916D01*
X70087886Y-108256558D01*
X70127660Y-108056599D01*
X70127660Y-107852721D01*
X70087886Y-107652762D01*
X70009865Y-107464404D01*
X69896597Y-107294886D01*
X69752434Y-107150723D01*
X69582916Y-107037455D01*
X69394558Y-106959434D01*
X69194599Y-106919660D01*
X68990721Y-106919660D01*
X68790762Y-106959434D01*
X68602404Y-107037455D01*
X68432886Y-107150723D01*
X68370609Y-107213000D01*
X67598695Y-107213000D01*
X67538744Y-107180955D01*
X67395483Y-107137498D01*
X67246497Y-107122824D01*
X67097512Y-107137498D01*
X66954252Y-107180955D01*
X66894300Y-107213000D01*
X65733563Y-107213000D01*
X65773002Y-107082987D01*
X65787676Y-106934001D01*
X65785679Y-106913724D01*
X65775956Y-106815000D01*
X96730000Y-106815000D01*
X96730000Y-107315000D01*
X96789075Y-107660796D01*
X96914476Y-107988423D01*
X97101384Y-108285290D01*
X97342617Y-108539989D01*
X97628904Y-108742731D01*
X97949243Y-108885726D01*
X98111036Y-108926688D01*
X98388000Y-108809283D01*
X98388000Y-106815000D01*
X98642000Y-106815000D01*
X98642000Y-108809283D01*
X98918964Y-108926688D01*
X99080757Y-108885726D01*
X99401096Y-108742731D01*
X99687383Y-108539989D01*
X99928616Y-108285290D01*
X100115524Y-107988423D01*
X100240925Y-107660796D01*
X100300000Y-107315000D01*
X100300000Y-107053565D01*
X100799040Y-107053565D01*
X100866020Y-107293656D01*
X101115048Y-107410756D01*
X101382135Y-107477023D01*
X101657017Y-107489910D01*
X101929133Y-107448922D01*
X102188023Y-107355636D01*
X102303980Y-107293656D01*
X102370960Y-107053565D01*
X101585000Y-106267605D01*
X100799040Y-107053565D01*
X100300000Y-107053565D01*
X100300000Y-106815000D01*
X98642000Y-106815000D01*
X98388000Y-106815000D01*
X96730000Y-106815000D01*
X65775956Y-106815000D01*
X65773002Y-106785013D01*
X65729545Y-106641754D01*
X65658973Y-106509724D01*
X65587799Y-106422998D01*
X65587794Y-106422993D01*
X65564000Y-106394000D01*
X65535007Y-106370206D01*
X65356804Y-106192003D01*
X65333001Y-106162999D01*
X65217276Y-106068026D01*
X65204132Y-106061000D01*
X96730000Y-106061000D01*
X96730000Y-106561000D01*
X98388000Y-106561000D01*
X98388000Y-106541000D01*
X98642000Y-106541000D01*
X98642000Y-106561000D01*
X100270513Y-106561000D01*
X100317364Y-106691023D01*
X100379344Y-106806980D01*
X100619435Y-106873960D01*
X101405395Y-106088000D01*
X101764605Y-106088000D01*
X102550565Y-106873960D01*
X102790656Y-106806980D01*
X102833218Y-106716467D01*
X102846995Y-106749727D01*
X102999880Y-106978535D01*
X103194465Y-107173120D01*
X103423273Y-107326005D01*
X103677510Y-107431314D01*
X103947408Y-107485000D01*
X104222592Y-107485000D01*
X104492490Y-107431314D01*
X104746727Y-107326005D01*
X104975535Y-107173120D01*
X105085000Y-107063655D01*
X105194465Y-107173120D01*
X105423273Y-107326005D01*
X105677510Y-107431314D01*
X105947408Y-107485000D01*
X106222592Y-107485000D01*
X106492490Y-107431314D01*
X106746727Y-107326005D01*
X106975535Y-107173120D01*
X107170120Y-106978535D01*
X107194059Y-106942708D01*
X107197188Y-106974482D01*
X107233498Y-107094180D01*
X107292463Y-107204494D01*
X107371815Y-107301185D01*
X107468506Y-107380537D01*
X107578820Y-107439502D01*
X107698518Y-107475812D01*
X107823000Y-107488072D01*
X109347000Y-107488072D01*
X109471482Y-107475812D01*
X109591180Y-107439502D01*
X109701494Y-107380537D01*
X109798185Y-107301185D01*
X109870000Y-107213678D01*
X109870000Y-107315000D01*
X109929075Y-107660796D01*
X110054476Y-107988423D01*
X110241384Y-108285290D01*
X110482617Y-108539989D01*
X110768904Y-108742731D01*
X111089243Y-108885726D01*
X111251036Y-108926688D01*
X111528000Y-108809283D01*
X111528000Y-106815000D01*
X111782000Y-106815000D01*
X111782000Y-108809283D01*
X112058964Y-108926688D01*
X112220757Y-108885726D01*
X112541096Y-108742731D01*
X112827383Y-108539989D01*
X113068616Y-108285290D01*
X113255524Y-107988423D01*
X113380925Y-107660796D01*
X113440000Y-107315000D01*
X113440000Y-106815000D01*
X111782000Y-106815000D01*
X111528000Y-106815000D01*
X111508000Y-106815000D01*
X111508000Y-106561000D01*
X111528000Y-106561000D01*
X111528000Y-106541000D01*
X111782000Y-106541000D01*
X111782000Y-106561000D01*
X113440000Y-106561000D01*
X113440000Y-106061000D01*
X113380925Y-105715204D01*
X113255524Y-105387577D01*
X113096949Y-105135712D01*
X113145003Y-105047609D01*
X111655000Y-103557605D01*
X110164997Y-105047609D01*
X110213051Y-105135712D01*
X110054476Y-105387577D01*
X109985072Y-105568904D01*
X109985072Y-105326000D01*
X109972812Y-105201518D01*
X109936502Y-105081820D01*
X109877537Y-104971506D01*
X109798185Y-104874815D01*
X109701494Y-104795463D01*
X109591180Y-104736498D01*
X109471482Y-104700188D01*
X109347000Y-104687928D01*
X107823000Y-104687928D01*
X107698518Y-104700188D01*
X107578820Y-104736498D01*
X107468506Y-104795463D01*
X107371815Y-104874815D01*
X107292463Y-104971506D01*
X107233498Y-105081820D01*
X107197188Y-105201518D01*
X107194059Y-105233292D01*
X107170120Y-105197465D01*
X106975535Y-105002880D01*
X106746727Y-104849995D01*
X106492490Y-104744686D01*
X106222592Y-104691000D01*
X105947408Y-104691000D01*
X105677510Y-104744686D01*
X105423273Y-104849995D01*
X105194465Y-105002880D01*
X105085000Y-105112345D01*
X104975535Y-105002880D01*
X104746727Y-104849995D01*
X104492490Y-104744686D01*
X104222592Y-104691000D01*
X103947408Y-104691000D01*
X103677510Y-104744686D01*
X103423273Y-104849995D01*
X103194465Y-105002880D01*
X102999880Y-105197465D01*
X102846995Y-105426273D01*
X102835758Y-105453401D01*
X102790656Y-105369020D01*
X102550565Y-105302040D01*
X101764605Y-106088000D01*
X101405395Y-106088000D01*
X100619435Y-105302040D01*
X100379344Y-105369020D01*
X100262244Y-105618048D01*
X100239234Y-105710787D01*
X100115524Y-105387577D01*
X99956949Y-105135712D01*
X99964190Y-105122435D01*
X100799040Y-105122435D01*
X101585000Y-105908395D01*
X102370960Y-105122435D01*
X102303980Y-104882344D01*
X102054952Y-104765244D01*
X101787865Y-104698977D01*
X101512983Y-104686090D01*
X101240867Y-104727078D01*
X100981977Y-104820364D01*
X100866020Y-104882344D01*
X100799040Y-105122435D01*
X99964190Y-105122435D01*
X100005003Y-105047609D01*
X98515000Y-103557605D01*
X97024997Y-105047609D01*
X97073051Y-105135712D01*
X96914476Y-105387577D01*
X96789075Y-105715204D01*
X96730000Y-106061000D01*
X65204132Y-106061000D01*
X65085247Y-105997454D01*
X64941986Y-105953997D01*
X64830333Y-105943000D01*
X64830322Y-105943000D01*
X64793000Y-105939324D01*
X64755678Y-105943000D01*
X64592603Y-105943000D01*
X64584180Y-105938498D01*
X64464482Y-105902188D01*
X64340000Y-105889928D01*
X63850000Y-105889928D01*
X63850000Y-105870200D01*
X63905774Y-105832933D01*
X64049937Y-105688770D01*
X64163205Y-105519252D01*
X64241226Y-105330894D01*
X64281000Y-105130935D01*
X64281000Y-104927057D01*
X64241226Y-104727098D01*
X64163205Y-104538740D01*
X64049937Y-104369222D01*
X63905774Y-104225059D01*
X63736256Y-104111791D01*
X63547898Y-104033770D01*
X63347939Y-103993996D01*
X63144061Y-103993996D01*
X62944102Y-104033770D01*
X62755744Y-104111791D01*
X62586226Y-104225059D01*
X62442063Y-104369222D01*
X62328795Y-104538740D01*
X62250774Y-104727098D01*
X62211000Y-104927057D01*
X62211000Y-105130935D01*
X62250774Y-105330894D01*
X62328795Y-105519252D01*
X62330001Y-105521057D01*
X62330001Y-105889928D01*
X61840000Y-105889928D01*
X61715518Y-105902188D01*
X61595820Y-105938498D01*
X61587397Y-105943000D01*
X61356480Y-105943000D01*
X61431647Y-105892775D01*
X61582775Y-105741647D01*
X61701515Y-105563940D01*
X61783304Y-105366483D01*
X61825000Y-105156863D01*
X61825000Y-104943137D01*
X61812624Y-104880919D01*
X61864482Y-104875812D01*
X61984180Y-104839502D01*
X62094494Y-104780537D01*
X62191185Y-104701185D01*
X62270537Y-104604494D01*
X62329502Y-104494180D01*
X62365812Y-104374482D01*
X62378072Y-104250000D01*
X62378072Y-103149061D01*
X77324000Y-103149061D01*
X77324000Y-103352939D01*
X77363774Y-103552898D01*
X77441795Y-103741256D01*
X77555063Y-103910774D01*
X77699226Y-104054937D01*
X77868744Y-104168205D01*
X78057102Y-104246226D01*
X78257061Y-104286000D01*
X78460939Y-104286000D01*
X78660898Y-104246226D01*
X78849256Y-104168205D01*
X79018774Y-104054937D01*
X79062711Y-104011000D01*
X80584199Y-104011000D01*
X81515000Y-104941802D01*
X81515000Y-105003939D01*
X81554774Y-105203898D01*
X81632795Y-105392256D01*
X81746063Y-105561774D01*
X81890226Y-105705937D01*
X82059744Y-105819205D01*
X82248102Y-105897226D01*
X82448061Y-105937000D01*
X82651939Y-105937000D01*
X82851898Y-105897226D01*
X83040256Y-105819205D01*
X83209774Y-105705937D01*
X83353937Y-105561774D01*
X83467205Y-105392256D01*
X83545226Y-105203898D01*
X83585000Y-105003939D01*
X83585000Y-104800061D01*
X83545226Y-104600102D01*
X83467205Y-104411744D01*
X83353937Y-104242226D01*
X83209774Y-104098063D01*
X83040256Y-103984795D01*
X82851898Y-103906774D01*
X82651939Y-103867000D01*
X82589802Y-103867000D01*
X82133748Y-103410946D01*
X96118687Y-103410946D01*
X96171158Y-103877811D01*
X96313703Y-104325468D01*
X96504234Y-104681927D01*
X96845391Y-104868003D01*
X98335395Y-103378000D01*
X98694605Y-103378000D01*
X100184609Y-104868003D01*
X100525766Y-104681927D01*
X100741513Y-104264591D01*
X100871696Y-103813185D01*
X100905736Y-103410946D01*
X109258687Y-103410946D01*
X109311158Y-103877811D01*
X109453703Y-104325468D01*
X109644234Y-104681927D01*
X109985391Y-104868003D01*
X111475395Y-103378000D01*
X111834605Y-103378000D01*
X113324609Y-104868003D01*
X113665766Y-104681927D01*
X113881513Y-104264591D01*
X114011696Y-103813185D01*
X114051313Y-103345054D01*
X113998842Y-102878189D01*
X113856297Y-102430532D01*
X113665766Y-102074073D01*
X113523014Y-101996212D01*
X121293000Y-101996212D01*
X121293000Y-102219788D01*
X121336617Y-102439067D01*
X121422176Y-102645624D01*
X121546388Y-102831520D01*
X121704480Y-102989612D01*
X121890376Y-103113824D01*
X122096933Y-103199383D01*
X122316212Y-103243000D01*
X122539788Y-103243000D01*
X122759067Y-103199383D01*
X122965624Y-103113824D01*
X123151520Y-102989612D01*
X123309612Y-102831520D01*
X123433824Y-102645624D01*
X123519383Y-102439067D01*
X123563000Y-102219788D01*
X123563000Y-101996212D01*
X123519383Y-101776933D01*
X123433824Y-101570376D01*
X123309612Y-101384480D01*
X123151520Y-101226388D01*
X122965624Y-101102176D01*
X122759067Y-101016617D01*
X122539788Y-100973000D01*
X122316212Y-100973000D01*
X122096933Y-101016617D01*
X121890376Y-101102176D01*
X121704480Y-101226388D01*
X121546388Y-101384480D01*
X121422176Y-101570376D01*
X121336617Y-101776933D01*
X121293000Y-101996212D01*
X113523014Y-101996212D01*
X113324609Y-101887997D01*
X111834605Y-103378000D01*
X111475395Y-103378000D01*
X109985391Y-101887997D01*
X109644234Y-102074073D01*
X109428487Y-102491409D01*
X109298304Y-102942815D01*
X109258687Y-103410946D01*
X100905736Y-103410946D01*
X100911313Y-103345054D01*
X100858842Y-102878189D01*
X100716297Y-102430532D01*
X100525766Y-102074073D01*
X100184609Y-101887997D01*
X98694605Y-103378000D01*
X98335395Y-103378000D01*
X96845391Y-101887997D01*
X96504234Y-102074073D01*
X96288487Y-102491409D01*
X96158304Y-102942815D01*
X96118687Y-103410946D01*
X82133748Y-103410946D01*
X81462804Y-102740003D01*
X81439001Y-102710999D01*
X81323276Y-102616026D01*
X81191247Y-102545454D01*
X81047986Y-102501997D01*
X80936333Y-102491000D01*
X80936322Y-102491000D01*
X80899000Y-102487324D01*
X80861678Y-102491000D01*
X79062711Y-102491000D01*
X79018774Y-102447063D01*
X78849256Y-102333795D01*
X78660898Y-102255774D01*
X78460939Y-102216000D01*
X78257061Y-102216000D01*
X78057102Y-102255774D01*
X77868744Y-102333795D01*
X77699226Y-102447063D01*
X77555063Y-102591226D01*
X77441795Y-102760744D01*
X77363774Y-102949102D01*
X77324000Y-103149061D01*
X62378072Y-103149061D01*
X62378072Y-101750000D01*
X62373975Y-101708391D01*
X97024997Y-101708391D01*
X98515000Y-103198395D01*
X100005003Y-101708391D01*
X110164997Y-101708391D01*
X111655000Y-103198395D01*
X113145003Y-101708391D01*
X112958927Y-101367234D01*
X112541591Y-101151487D01*
X112090185Y-101021304D01*
X111622054Y-100981687D01*
X111155189Y-101034158D01*
X110707532Y-101176703D01*
X110351073Y-101367234D01*
X110164997Y-101708391D01*
X100005003Y-101708391D01*
X99818927Y-101367234D01*
X99401591Y-101151487D01*
X98950185Y-101021304D01*
X98482054Y-100981687D01*
X98015189Y-101034158D01*
X97567532Y-101176703D01*
X97211073Y-101367234D01*
X97024997Y-101708391D01*
X62373975Y-101708391D01*
X62365812Y-101625518D01*
X62329502Y-101505820D01*
X62270537Y-101395506D01*
X62191185Y-101298815D01*
X62094494Y-101219463D01*
X61984180Y-101160498D01*
X61864482Y-101124188D01*
X61740000Y-101111928D01*
X59740000Y-101111928D01*
X59615518Y-101124188D01*
X59495820Y-101160498D01*
X59385506Y-101219463D01*
X59288815Y-101298815D01*
X59209463Y-101395506D01*
X59150498Y-101505820D01*
X59114188Y-101625518D01*
X59101928Y-101750000D01*
X59101928Y-104250000D01*
X59114188Y-104374482D01*
X59150498Y-104494180D01*
X59209463Y-104604494D01*
X59288815Y-104701185D01*
X59385506Y-104780537D01*
X59495820Y-104839502D01*
X59615518Y-104875812D01*
X59667376Y-104880919D01*
X59655000Y-104943137D01*
X59655000Y-105156863D01*
X59696696Y-105366483D01*
X59778485Y-105563940D01*
X59897225Y-105741647D01*
X60048353Y-105892775D01*
X60123520Y-105943000D01*
X59892603Y-105943000D01*
X59884180Y-105938498D01*
X59764482Y-105902188D01*
X59640000Y-105889928D01*
X57140000Y-105889928D01*
X57015518Y-105902188D01*
X56895820Y-105938498D01*
X56785506Y-105997463D01*
X56688815Y-106076815D01*
X56609463Y-106173506D01*
X56550498Y-106283820D01*
X56514188Y-106403518D01*
X56501928Y-106528000D01*
X56501928Y-106578000D01*
X52719318Y-106578000D01*
X52681995Y-106574324D01*
X52644672Y-106578000D01*
X52644663Y-106578000D01*
X52533010Y-106588997D01*
X52389749Y-106632454D01*
X52257720Y-106703026D01*
X52257718Y-106703027D01*
X52257719Y-106703027D01*
X52170992Y-106774201D01*
X52170988Y-106774205D01*
X52141995Y-106797999D01*
X52118201Y-106826992D01*
X51268194Y-107677000D01*
X51206057Y-107677000D01*
X51006098Y-107716774D01*
X50817740Y-107794795D01*
X50660000Y-107900193D01*
X50660000Y-105927731D01*
X50773446Y-106003533D01*
X51471372Y-106292623D01*
X52212285Y-106440000D01*
X52967715Y-106440000D01*
X53708628Y-106292623D01*
X54406554Y-106003533D01*
X55034670Y-105583839D01*
X55568839Y-105049670D01*
X55988533Y-104421554D01*
X56277623Y-103723628D01*
X56425000Y-102982715D01*
X56425000Y-102227285D01*
X56277623Y-101486372D01*
X55988533Y-100788446D01*
X55902708Y-100660000D01*
X124440000Y-100660000D01*
X124440000Y-111021491D01*
%TA.AperFunction,Conductor*%
D30*
G36*
X124440000Y-111021491D02*
G01*
X124259670Y-110841161D01*
X123631554Y-110421467D01*
X122933628Y-110132377D01*
X122192715Y-109985000D01*
X121437285Y-109985000D01*
X120696372Y-110132377D01*
X119998446Y-110421467D01*
X119370330Y-110841161D01*
X118836161Y-111375330D01*
X118416467Y-112003446D01*
X118127377Y-112701372D01*
X117980000Y-113442285D01*
X117980000Y-114197715D01*
X118127377Y-114938628D01*
X118416467Y-115636554D01*
X118836161Y-116264670D01*
X119370330Y-116798839D01*
X119998446Y-117218533D01*
X120696372Y-117507623D01*
X121437285Y-117655000D01*
X122192715Y-117655000D01*
X122933628Y-117507623D01*
X123631554Y-117218533D01*
X124259670Y-116798839D01*
X124440000Y-116618509D01*
X124440001Y-152910000D01*
X97173509Y-152910000D01*
X97343839Y-152739670D01*
X97763533Y-152111554D01*
X98052623Y-151413628D01*
X98080752Y-151272212D01*
X121293000Y-151272212D01*
X121293000Y-151495788D01*
X121336617Y-151715067D01*
X121422176Y-151921624D01*
X121546388Y-152107520D01*
X121704480Y-152265612D01*
X121890376Y-152389824D01*
X122096933Y-152475383D01*
X122316212Y-152519000D01*
X122539788Y-152519000D01*
X122759067Y-152475383D01*
X122965624Y-152389824D01*
X123151520Y-152265612D01*
X123309612Y-152107520D01*
X123433824Y-151921624D01*
X123519383Y-151715067D01*
X123563000Y-151495788D01*
X123563000Y-151272212D01*
X123519383Y-151052933D01*
X123433824Y-150846376D01*
X123309612Y-150660480D01*
X123151520Y-150502388D01*
X122965624Y-150378176D01*
X122759067Y-150292617D01*
X122539788Y-150249000D01*
X122316212Y-150249000D01*
X122096933Y-150292617D01*
X121890376Y-150378176D01*
X121704480Y-150502388D01*
X121546388Y-150660480D01*
X121422176Y-150846376D01*
X121336617Y-151052933D01*
X121293000Y-151272212D01*
X98080752Y-151272212D01*
X98200000Y-150672715D01*
X98200000Y-149917285D01*
X98052623Y-149176372D01*
X97763533Y-148478446D01*
X97343839Y-147850330D01*
X96809670Y-147316161D01*
X96181554Y-146896467D01*
X95483628Y-146607377D01*
X94742715Y-146460000D01*
X93987285Y-146460000D01*
X93246372Y-146607377D01*
X92548446Y-146896467D01*
X91920330Y-147316161D01*
X91386161Y-147850330D01*
X90966467Y-148478446D01*
X90677377Y-149176372D01*
X90530000Y-149917285D01*
X90530000Y-150672715D01*
X90677377Y-151413628D01*
X90966467Y-152111554D01*
X91386161Y-152739670D01*
X91556491Y-152910000D01*
X54859000Y-152910000D01*
X54859000Y-150764212D01*
X55253000Y-150764212D01*
X55253000Y-150987788D01*
X55296617Y-151207067D01*
X55382176Y-151413624D01*
X55506388Y-151599520D01*
X55664480Y-151757612D01*
X55850376Y-151881824D01*
X56056933Y-151967383D01*
X56276212Y-152011000D01*
X56499788Y-152011000D01*
X56719067Y-151967383D01*
X56925624Y-151881824D01*
X57111520Y-151757612D01*
X57269612Y-151599520D01*
X57393824Y-151413624D01*
X57479383Y-151207067D01*
X57523000Y-150987788D01*
X57523000Y-150764212D01*
X57479383Y-150544933D01*
X57393824Y-150338376D01*
X57269612Y-150152480D01*
X57111520Y-149994388D01*
X56925624Y-149870176D01*
X56719067Y-149784617D01*
X56499788Y-149741000D01*
X56276212Y-149741000D01*
X56056933Y-149784617D01*
X55850376Y-149870176D01*
X55664480Y-149994388D01*
X55506388Y-150152480D01*
X55382176Y-150338376D01*
X55296617Y-150544933D01*
X55253000Y-150764212D01*
X54859000Y-150764212D01*
X54859000Y-150356000D01*
X50660000Y-150356000D01*
X50660000Y-136017000D01*
X63375509Y-136017000D01*
X63397423Y-136239498D01*
X63462324Y-136453446D01*
X63508000Y-136538900D01*
X63508000Y-137104249D01*
X63502509Y-137160000D01*
X63508000Y-137215751D01*
X63524423Y-137382498D01*
X63551007Y-137470133D01*
X63551006Y-149958751D01*
X63567429Y-150125498D01*
X63632330Y-150339446D01*
X63737722Y-150536623D01*
X63879557Y-150709449D01*
X64052383Y-150851284D01*
X64249559Y-150956676D01*
X64463507Y-151021577D01*
X64686006Y-151043491D01*
X64908504Y-151021577D01*
X65122452Y-150956676D01*
X65319629Y-150851284D01*
X65492455Y-150709449D01*
X65634290Y-150536623D01*
X65739682Y-150339447D01*
X65804583Y-150125499D01*
X65821006Y-149958752D01*
X65821006Y-137258758D01*
X65826497Y-137203006D01*
X65810187Y-137037406D01*
X65804583Y-136980507D01*
X65778000Y-136892875D01*
X65778000Y-136199751D01*
X65783491Y-136143999D01*
X65761577Y-135921501D01*
X65750825Y-135886058D01*
X65696676Y-135707553D01*
X65591284Y-135510377D01*
X65449449Y-135337551D01*
X65406135Y-135302004D01*
X65279143Y-135175012D01*
X65149622Y-135068717D01*
X64952446Y-134963324D01*
X64738498Y-134898423D01*
X64516000Y-134876509D01*
X64293502Y-134898423D01*
X64079554Y-134963324D01*
X63882378Y-135068717D01*
X63709552Y-135210552D01*
X63567717Y-135383378D01*
X63462324Y-135580554D01*
X63397423Y-135794502D01*
X63375509Y-136017000D01*
X50660000Y-136017000D01*
X50660000Y-133907798D01*
X50817744Y-134013199D01*
X51006102Y-134091220D01*
X51206061Y-134130994D01*
X51409939Y-134130994D01*
X51609898Y-134091220D01*
X51798256Y-134013199D01*
X51967774Y-133899931D01*
X52111937Y-133755768D01*
X52225205Y-133586250D01*
X52303226Y-133397892D01*
X52343000Y-133197933D01*
X52343000Y-133135795D01*
X56790114Y-128688682D01*
X56819112Y-128664884D01*
X56914085Y-128549159D01*
X56984657Y-128417130D01*
X57028114Y-128273869D01*
X57039111Y-128162216D01*
X57042788Y-128124883D01*
X57039111Y-128087550D01*
X57039111Y-125517455D01*
X57043774Y-125540898D01*
X57121795Y-125729256D01*
X57235063Y-125898774D01*
X57379226Y-126042937D01*
X57548744Y-126156205D01*
X57737102Y-126234226D01*
X57937061Y-126274000D01*
X58140939Y-126274000D01*
X58340898Y-126234226D01*
X58529256Y-126156205D01*
X58698774Y-126042937D01*
X58842937Y-125898774D01*
X58956205Y-125729256D01*
X58979093Y-125674000D01*
X61451354Y-125674000D01*
X62413000Y-126635647D01*
X62413001Y-130613085D01*
X62409444Y-130649200D01*
X62423635Y-130793285D01*
X62447961Y-130873474D01*
X62465664Y-130931833D01*
X62533914Y-131059520D01*
X62625763Y-131171438D01*
X62653808Y-131194454D01*
X66163546Y-134704193D01*
X66186562Y-134732238D01*
X66272487Y-134802755D01*
X66298480Y-134824087D01*
X66426166Y-134892337D01*
X66564715Y-134934365D01*
X66708800Y-134948556D01*
X66744905Y-134945000D01*
X67893907Y-134945000D01*
X67916795Y-135000256D01*
X68030063Y-135169774D01*
X68174226Y-135313937D01*
X68343744Y-135427205D01*
X68532102Y-135505226D01*
X68732061Y-135545000D01*
X68816422Y-135545000D01*
X66937957Y-137423465D01*
X66881102Y-137434774D01*
X66692744Y-137512795D01*
X66523226Y-137626063D01*
X66379063Y-137770226D01*
X66265795Y-137939744D01*
X66187774Y-138128102D01*
X66148000Y-138328061D01*
X66148000Y-138531939D01*
X66187774Y-138731898D01*
X66265795Y-138920256D01*
X66379063Y-139089774D01*
X66523226Y-139233937D01*
X66692744Y-139347205D01*
X66881102Y-139425226D01*
X67081061Y-139465000D01*
X67284939Y-139465000D01*
X67484898Y-139425226D01*
X67673256Y-139347205D01*
X67842774Y-139233937D01*
X67986937Y-139089774D01*
X68100205Y-138920256D01*
X68178226Y-138731898D01*
X68189535Y-138675043D01*
X72823206Y-134041373D01*
X72832915Y-134064814D01*
X72946183Y-134234332D01*
X73090346Y-134378495D01*
X73190999Y-134445749D01*
X73190999Y-135057679D01*
X73187323Y-135095001D01*
X73190999Y-135132323D01*
X73190999Y-135132334D01*
X73201996Y-135243987D01*
X73228466Y-135331246D01*
X73245453Y-135387247D01*
X73316025Y-135519277D01*
X73369273Y-135584159D01*
X73410999Y-135635002D01*
X73439997Y-135658800D01*
X73876354Y-136095157D01*
X73900157Y-136124161D01*
X74015882Y-136219134D01*
X74147911Y-136289706D01*
X74291172Y-136333163D01*
X74402825Y-136344160D01*
X74402834Y-136344160D01*
X74440157Y-136347836D01*
X74477480Y-136344160D01*
X74806431Y-136344160D01*
X74850368Y-136388097D01*
X75019886Y-136501365D01*
X75208244Y-136579386D01*
X75408203Y-136619160D01*
X75612081Y-136619160D01*
X75812040Y-136579386D01*
X76000398Y-136501365D01*
X76169916Y-136388097D01*
X76314079Y-136243934D01*
X76427347Y-136074416D01*
X76505368Y-135886058D01*
X76545142Y-135686099D01*
X76545142Y-135482221D01*
X76505368Y-135282262D01*
X76427347Y-135093904D01*
X76314079Y-134924386D01*
X76169916Y-134780223D01*
X76000398Y-134666955D01*
X75880507Y-134617294D01*
X76584003Y-133913799D01*
X76613001Y-133890001D01*
X76707974Y-133774276D01*
X76778546Y-133642247D01*
X76822003Y-133498986D01*
X76833000Y-133387333D01*
X76833000Y-133387324D01*
X76836676Y-133350001D01*
X76833000Y-133312678D01*
X76833000Y-129563500D01*
X77103428Y-129563500D01*
X77115688Y-129687982D01*
X77151998Y-129807680D01*
X77210963Y-129917994D01*
X77290315Y-130014685D01*
X77387006Y-130094037D01*
X77497320Y-130153002D01*
X77617018Y-130189312D01*
X77741500Y-130201572D01*
X77755750Y-130198500D01*
X77914500Y-130039750D01*
X77914500Y-128665500D01*
X77265250Y-128665500D01*
X77106500Y-128824250D01*
X77103428Y-129563500D01*
X76833000Y-129563500D01*
X76833000Y-127513500D01*
X77103428Y-127513500D01*
X77106500Y-128252750D01*
X77265250Y-128411500D01*
X77914500Y-128411500D01*
X77914500Y-127037250D01*
X77755750Y-126878500D01*
X77741500Y-126875428D01*
X77617018Y-126887688D01*
X77497320Y-126923998D01*
X77387006Y-126982963D01*
X77290315Y-127062315D01*
X77210963Y-127159006D01*
X77151998Y-127269320D01*
X77115688Y-127389018D01*
X77103428Y-127513500D01*
X76833000Y-127513500D01*
X76833000Y-126384000D01*
X76899949Y-126384000D01*
X77099908Y-126344226D01*
X77288266Y-126266205D01*
X77457784Y-126152937D01*
X77601947Y-126008774D01*
X77715215Y-125839256D01*
X77793236Y-125650898D01*
X77833010Y-125450939D01*
X77833010Y-125388801D01*
X78045050Y-125176761D01*
X78106226Y-125237937D01*
X78275744Y-125351205D01*
X78464102Y-125429226D01*
X78551501Y-125446611D01*
X78551500Y-126913630D01*
X78465982Y-126887688D01*
X78341500Y-126875428D01*
X78327250Y-126878500D01*
X78168500Y-127037250D01*
X78168500Y-128411500D01*
X78188500Y-128411500D01*
X78188500Y-128665500D01*
X78168500Y-128665500D01*
X78168500Y-130039750D01*
X78327250Y-130198500D01*
X78341500Y-130201572D01*
X78465982Y-130189312D01*
X78551501Y-130163370D01*
X78551501Y-131118619D01*
X77845886Y-131824233D01*
X77816888Y-131848031D01*
X77793091Y-131877028D01*
X77793090Y-131877029D01*
X77784951Y-131886947D01*
X77721915Y-131963757D01*
X77651343Y-132095786D01*
X77607886Y-132239047D01*
X77596889Y-132350700D01*
X77596889Y-132350709D01*
X77593213Y-132388032D01*
X77596889Y-132425354D01*
X77596890Y-141475547D01*
X77593213Y-141512879D01*
X77607887Y-141661864D01*
X77651343Y-141805125D01*
X77721915Y-141937155D01*
X77785149Y-142014205D01*
X77816889Y-142052880D01*
X77845887Y-142076678D01*
X78011209Y-142242000D01*
X72895302Y-142242000D01*
X71964500Y-141311199D01*
X71964500Y-141249061D01*
X71924726Y-141049102D01*
X71846705Y-140860744D01*
X71733437Y-140691226D01*
X71589274Y-140547063D01*
X71419756Y-140433795D01*
X71231398Y-140355774D01*
X71031439Y-140316000D01*
X70827561Y-140316000D01*
X70627602Y-140355774D01*
X70439244Y-140433795D01*
X70269726Y-140547063D01*
X70125563Y-140691226D01*
X70012295Y-140860744D01*
X69934274Y-141049102D01*
X69894500Y-141249061D01*
X69894500Y-141452939D01*
X69934274Y-141652898D01*
X70012295Y-141841256D01*
X70125563Y-142010774D01*
X70269726Y-142154937D01*
X70439244Y-142268205D01*
X70627602Y-142346226D01*
X70827561Y-142386000D01*
X70889699Y-142386000D01*
X72016701Y-143513003D01*
X72040499Y-143542001D01*
X72069497Y-143565799D01*
X72156224Y-143636974D01*
X72288253Y-143707546D01*
X72431514Y-143751003D01*
X72580500Y-143765677D01*
X72617833Y-143762000D01*
X73494525Y-143762000D01*
X73364226Y-143849063D01*
X73220063Y-143993226D01*
X73106795Y-144162744D01*
X73028774Y-144351102D01*
X72989000Y-144551061D01*
X72989000Y-144754939D01*
X73028774Y-144954898D01*
X73106795Y-145143256D01*
X73220063Y-145312774D01*
X73364226Y-145456937D01*
X73533744Y-145570205D01*
X73722102Y-145648226D01*
X73922061Y-145688000D01*
X74019554Y-145688000D01*
X75354746Y-147023193D01*
X75377762Y-147051238D01*
X75405806Y-147074253D01*
X75489680Y-147143087D01*
X75617366Y-147211337D01*
X75755915Y-147253365D01*
X75900000Y-147267556D01*
X75936105Y-147264000D01*
X91052595Y-147264000D01*
X91088700Y-147267556D01*
X91124805Y-147264000D01*
X91232785Y-147253365D01*
X91371333Y-147211337D01*
X91499020Y-147143087D01*
X91610938Y-147051238D01*
X91633958Y-147023188D01*
X92548847Y-146108300D01*
X99002795Y-146108300D01*
X99038900Y-146111856D01*
X99075005Y-146108300D01*
X99182985Y-146097665D01*
X99321533Y-146055637D01*
X99449220Y-145987387D01*
X99561138Y-145895538D01*
X99584159Y-145867487D01*
X104579793Y-140871854D01*
X104607838Y-140848838D01*
X104699687Y-140736920D01*
X104728161Y-140683649D01*
X104767937Y-140609234D01*
X104809965Y-140470685D01*
X104824156Y-140326600D01*
X104820600Y-140290495D01*
X104820600Y-131616240D01*
X105449000Y-131616240D01*
X105449000Y-131908760D01*
X105506068Y-132195658D01*
X105618010Y-132465911D01*
X105780525Y-132709132D01*
X105987368Y-132915975D01*
X106161760Y-133032500D01*
X105987368Y-133149025D01*
X105780525Y-133355868D01*
X105618010Y-133599089D01*
X105506068Y-133869342D01*
X105449000Y-134156240D01*
X105449000Y-134448760D01*
X105506068Y-134735658D01*
X105618010Y-135005911D01*
X105780525Y-135249132D01*
X105987368Y-135455975D01*
X106161760Y-135572500D01*
X105987368Y-135689025D01*
X105780525Y-135895868D01*
X105618010Y-136139089D01*
X105506068Y-136409342D01*
X105449000Y-136696240D01*
X105449000Y-136988760D01*
X105506068Y-137275658D01*
X105618010Y-137545911D01*
X105780525Y-137789132D01*
X105987368Y-137995975D01*
X106161760Y-138112500D01*
X105987368Y-138229025D01*
X105780525Y-138435868D01*
X105618010Y-138679089D01*
X105506068Y-138949342D01*
X105449000Y-139236240D01*
X105449000Y-139528760D01*
X105506068Y-139815658D01*
X105618010Y-140085911D01*
X105780525Y-140329132D01*
X105987368Y-140535975D01*
X106230589Y-140698490D01*
X106500842Y-140810432D01*
X106787740Y-140867500D01*
X107080260Y-140867500D01*
X107367158Y-140810432D01*
X107444000Y-140778603D01*
X107444001Y-148324068D01*
X107440324Y-148361400D01*
X107454998Y-148510385D01*
X107498454Y-148653646D01*
X107569026Y-148785676D01*
X107640201Y-148872402D01*
X107664000Y-148901401D01*
X107692998Y-148925199D01*
X107753200Y-148985401D01*
X107753200Y-149047539D01*
X107792974Y-149247498D01*
X107870995Y-149435856D01*
X107984263Y-149605374D01*
X108128426Y-149749537D01*
X108297944Y-149862805D01*
X108486302Y-149940826D01*
X108686261Y-149980600D01*
X108890139Y-149980600D01*
X109090098Y-149940826D01*
X109278456Y-149862805D01*
X109447974Y-149749537D01*
X109592137Y-149605374D01*
X109705405Y-149435856D01*
X109783426Y-149247498D01*
X109823200Y-149047539D01*
X109823200Y-148843661D01*
X109783426Y-148643702D01*
X109705405Y-148455344D01*
X109592137Y-148285826D01*
X109447974Y-148141663D01*
X109278456Y-148028395D01*
X109090098Y-147950374D01*
X108964000Y-147925292D01*
X108964000Y-140778603D01*
X109040842Y-140810432D01*
X109327740Y-140867500D01*
X109620260Y-140867500D01*
X109907158Y-140810432D01*
X110177411Y-140698490D01*
X110420632Y-140535975D01*
X110627475Y-140329132D01*
X110789990Y-140085911D01*
X110901932Y-139815658D01*
X110959000Y-139528760D01*
X110959000Y-139236240D01*
X110901932Y-138949342D01*
X110789990Y-138679089D01*
X110627475Y-138435868D01*
X110420632Y-138229025D01*
X110246240Y-138112500D01*
X110420632Y-137995975D01*
X110627475Y-137789132D01*
X110752178Y-137602500D01*
X112886376Y-137602500D01*
X112801533Y-137807328D01*
X112749800Y-138067411D01*
X112749800Y-138332589D01*
X112801533Y-138592672D01*
X112903013Y-138837665D01*
X113050338Y-139058153D01*
X113237847Y-139245662D01*
X113458335Y-139392987D01*
X113703328Y-139494467D01*
X113963411Y-139546200D01*
X114087399Y-139546200D01*
X115043000Y-140501802D01*
X115043000Y-140563939D01*
X115082774Y-140763898D01*
X115160795Y-140952256D01*
X115274063Y-141121774D01*
X115418226Y-141265937D01*
X115587744Y-141379205D01*
X115776102Y-141457226D01*
X115976061Y-141497000D01*
X116179939Y-141497000D01*
X116379898Y-141457226D01*
X116568256Y-141379205D01*
X116588000Y-141366012D01*
X116588001Y-147298480D01*
X116126472Y-147760010D01*
X116064334Y-147760010D01*
X115864375Y-147799784D01*
X115676017Y-147877805D01*
X115506499Y-147991073D01*
X115362336Y-148135236D01*
X115249068Y-148304754D01*
X115171047Y-148493112D01*
X115131273Y-148693071D01*
X115131273Y-148896949D01*
X115171047Y-149096908D01*
X115249068Y-149285266D01*
X115362336Y-149454784D01*
X115506499Y-149598947D01*
X115676017Y-149712215D01*
X115864375Y-149790236D01*
X116064334Y-149830010D01*
X116268212Y-149830010D01*
X116468171Y-149790236D01*
X116656529Y-149712215D01*
X116826047Y-149598947D01*
X116970210Y-149454784D01*
X117083478Y-149285266D01*
X117161499Y-149096908D01*
X117201273Y-148896949D01*
X117201273Y-148834811D01*
X117859003Y-148177082D01*
X117888001Y-148153284D01*
X117982974Y-148037559D01*
X118053546Y-147905530D01*
X118097003Y-147762269D01*
X118108000Y-147650616D01*
X118108000Y-147650607D01*
X118111676Y-147613284D01*
X118108000Y-147575961D01*
X118108000Y-143474165D01*
X118466279Y-143713560D01*
X118900321Y-143893346D01*
X119361098Y-143985000D01*
X119830902Y-143985000D01*
X120291679Y-143893346D01*
X120725721Y-143713560D01*
X121116349Y-143452550D01*
X121448550Y-143120349D01*
X121709560Y-142729721D01*
X121889346Y-142295679D01*
X121981000Y-141834902D01*
X121981000Y-141365098D01*
X121889346Y-140904321D01*
X121709560Y-140470279D01*
X121448550Y-140079651D01*
X121116349Y-139747450D01*
X120725721Y-139486440D01*
X120291679Y-139306654D01*
X119830902Y-139215000D01*
X119361098Y-139215000D01*
X118900321Y-139306654D01*
X118466279Y-139486440D01*
X118213378Y-139655423D01*
X118430502Y-139438300D01*
X118459501Y-139414501D01*
X118514361Y-139347654D01*
X118554474Y-139298777D01*
X118625046Y-139166747D01*
X118641500Y-139112505D01*
X118668503Y-139023486D01*
X118679500Y-138911833D01*
X118679500Y-138911824D01*
X118683176Y-138874501D01*
X118679500Y-138837178D01*
X118679500Y-137460825D01*
X118683176Y-137423500D01*
X118679500Y-137386175D01*
X118679500Y-137386167D01*
X118668503Y-137274514D01*
X118625046Y-137131253D01*
X118554474Y-136999224D01*
X118459501Y-136883499D01*
X118430504Y-136859702D01*
X117919170Y-136348369D01*
X117942200Y-136232589D01*
X117942200Y-135967411D01*
X117890467Y-135707328D01*
X117788987Y-135462335D01*
X117641662Y-135241847D01*
X117454153Y-135054338D01*
X117233665Y-134907013D01*
X117094267Y-134849272D01*
X117307200Y-134849272D01*
X117431682Y-134837012D01*
X117551380Y-134800702D01*
X117661694Y-134741737D01*
X117758385Y-134662385D01*
X117837737Y-134565694D01*
X117838055Y-134565098D01*
X118011000Y-134565098D01*
X118011000Y-135034902D01*
X118102654Y-135495679D01*
X118282440Y-135929721D01*
X118543450Y-136320349D01*
X118875651Y-136652550D01*
X119266279Y-136913560D01*
X119700321Y-137093346D01*
X120161098Y-137185000D01*
X120630902Y-137185000D01*
X121091679Y-137093346D01*
X121525721Y-136913560D01*
X121916349Y-136652550D01*
X122248550Y-136320349D01*
X122509560Y-135929721D01*
X122689346Y-135495679D01*
X122781000Y-135034902D01*
X122781000Y-134565098D01*
X122689346Y-134104321D01*
X122509560Y-133670279D01*
X122248550Y-133279651D01*
X121916349Y-132947450D01*
X121525721Y-132686440D01*
X121091679Y-132506654D01*
X120630902Y-132415000D01*
X120161098Y-132415000D01*
X119700321Y-132506654D01*
X119266279Y-132686440D01*
X118875651Y-132947450D01*
X118543450Y-133279651D01*
X118282440Y-133670279D01*
X118102654Y-134104321D01*
X118011000Y-134565098D01*
X117838055Y-134565098D01*
X117896702Y-134455380D01*
X117933012Y-134335682D01*
X117945272Y-134211200D01*
X117945272Y-132788800D01*
X117933012Y-132664318D01*
X117896702Y-132544620D01*
X117837737Y-132434306D01*
X117758385Y-132337615D01*
X117661694Y-132258263D01*
X117646880Y-132250344D01*
X117707246Y-132160000D01*
X121991182Y-132160000D01*
X122028504Y-132163676D01*
X122065826Y-132160000D01*
X122065837Y-132160000D01*
X122177490Y-132149003D01*
X122320751Y-132105546D01*
X122452780Y-132034974D01*
X122568505Y-131940001D01*
X122592308Y-131910998D01*
X123102802Y-131400504D01*
X123164939Y-131400504D01*
X123364898Y-131360730D01*
X123553256Y-131282709D01*
X123722774Y-131169441D01*
X123866937Y-131025278D01*
X123980205Y-130855760D01*
X124058226Y-130667402D01*
X124098000Y-130467443D01*
X124098000Y-130263565D01*
X124058226Y-130063606D01*
X123980205Y-129875248D01*
X123866937Y-129705730D01*
X123722774Y-129561567D01*
X123553256Y-129448299D01*
X123364898Y-129370278D01*
X123164939Y-129330504D01*
X122961061Y-129330504D01*
X122761102Y-129370278D01*
X122572744Y-129448299D01*
X122403226Y-129561567D01*
X122259063Y-129705730D01*
X122145795Y-129875248D01*
X122067774Y-130063606D01*
X122028000Y-130263565D01*
X122028000Y-130325702D01*
X121713703Y-130640000D01*
X117707246Y-130640000D01*
X117641662Y-130541847D01*
X117454153Y-130354338D01*
X117233665Y-130207013D01*
X116988672Y-130105533D01*
X116728589Y-130053800D01*
X116463411Y-130053800D01*
X116203328Y-130105533D01*
X115958335Y-130207013D01*
X115737847Y-130354338D01*
X115550338Y-130541847D01*
X115403013Y-130762335D01*
X115346000Y-130899976D01*
X115288987Y-130762335D01*
X115141662Y-130541847D01*
X114954153Y-130354338D01*
X114733665Y-130207013D01*
X114488672Y-130105533D01*
X114228589Y-130053800D01*
X113963411Y-130053800D01*
X113703328Y-130105533D01*
X113458335Y-130207013D01*
X113237847Y-130354338D01*
X113050338Y-130541847D01*
X112903013Y-130762335D01*
X112801533Y-131007328D01*
X112749800Y-131267411D01*
X112749800Y-131532589D01*
X112801533Y-131792672D01*
X112903013Y-132037665D01*
X113050338Y-132258153D01*
X113237847Y-132445662D01*
X113357937Y-132525903D01*
X113346332Y-132570727D01*
X114096000Y-133320395D01*
X114845668Y-132570727D01*
X114834063Y-132525903D01*
X114954153Y-132445662D01*
X115141662Y-132258153D01*
X115288987Y-132037665D01*
X115346000Y-131900024D01*
X115403013Y-132037665D01*
X115545120Y-132250344D01*
X115530306Y-132258263D01*
X115433615Y-132337615D01*
X115354263Y-132434306D01*
X115295298Y-132544620D01*
X115258988Y-132664318D01*
X115246728Y-132788800D01*
X115246728Y-132807668D01*
X115025273Y-132750332D01*
X114275605Y-133500000D01*
X114289748Y-133514143D01*
X114110143Y-133693748D01*
X114096000Y-133679605D01*
X114081858Y-133693748D01*
X113902253Y-133514143D01*
X113916395Y-133500000D01*
X113166727Y-132750332D01*
X112931817Y-132811152D01*
X112819798Y-133051509D01*
X112756824Y-133309102D01*
X112745313Y-133574030D01*
X112780752Y-133803950D01*
X111498304Y-132521503D01*
X111474501Y-132492499D01*
X111358776Y-132397526D01*
X111226747Y-132326954D01*
X111083486Y-132283497D01*
X110971833Y-132272500D01*
X110971822Y-132272500D01*
X110934500Y-132268824D01*
X110897178Y-132272500D01*
X110870103Y-132272500D01*
X110901932Y-132195658D01*
X110959000Y-131908760D01*
X110959000Y-131616240D01*
X110901932Y-131329342D01*
X110789990Y-131059089D01*
X110627475Y-130815868D01*
X110495620Y-130684013D01*
X110568180Y-130662002D01*
X110678494Y-130603037D01*
X110775185Y-130523685D01*
X110854537Y-130426994D01*
X110913502Y-130316680D01*
X110949812Y-130196982D01*
X110962072Y-130072500D01*
X110959000Y-129508250D01*
X110800250Y-129349500D01*
X109601000Y-129349500D01*
X109601000Y-129369500D01*
X109347000Y-129369500D01*
X109347000Y-129349500D01*
X107061000Y-129349500D01*
X107061000Y-129369500D01*
X106807000Y-129369500D01*
X106807000Y-129349500D01*
X105613845Y-129349500D01*
X105492524Y-129579390D01*
X105537175Y-129726599D01*
X105662359Y-129989420D01*
X105836412Y-130222769D01*
X106052645Y-130417678D01*
X106169534Y-130487305D01*
X105987368Y-130609025D01*
X105780525Y-130815868D01*
X105618010Y-131059089D01*
X105506068Y-131329342D01*
X105449000Y-131616240D01*
X104820600Y-131616240D01*
X104820600Y-128865610D01*
X105492524Y-128865610D01*
X105613845Y-129095500D01*
X106807000Y-129095500D01*
X106807000Y-127901686D01*
X107061000Y-127901686D01*
X107061000Y-129095500D01*
X109347000Y-129095500D01*
X109347000Y-127896250D01*
X109601000Y-127896250D01*
X109601000Y-129095500D01*
X110800250Y-129095500D01*
X110959000Y-128936750D01*
X110962072Y-128372500D01*
X110949812Y-128248018D01*
X110913502Y-128128320D01*
X110854537Y-128018006D01*
X110775185Y-127921315D01*
X110678494Y-127841963D01*
X110628234Y-127815098D01*
X117211000Y-127815098D01*
X117211000Y-128284902D01*
X117302654Y-128745679D01*
X117482440Y-129179721D01*
X117743450Y-129570349D01*
X118075651Y-129902550D01*
X118466279Y-130163560D01*
X118900321Y-130343346D01*
X119361098Y-130435000D01*
X119830902Y-130435000D01*
X120291679Y-130343346D01*
X120725721Y-130163560D01*
X121116349Y-129902550D01*
X121448550Y-129570349D01*
X121709560Y-129179721D01*
X121889346Y-128745679D01*
X121981000Y-128284902D01*
X121981000Y-127815098D01*
X121889346Y-127354321D01*
X121709560Y-126920279D01*
X121448550Y-126529651D01*
X121116349Y-126197450D01*
X120725721Y-125936440D01*
X120291679Y-125756654D01*
X119830902Y-125665000D01*
X119361098Y-125665000D01*
X118900321Y-125756654D01*
X118466279Y-125936440D01*
X118075651Y-126197450D01*
X117743450Y-126529651D01*
X117482440Y-126920279D01*
X117302654Y-127354321D01*
X117211000Y-127815098D01*
X110628234Y-127815098D01*
X110568180Y-127782998D01*
X110448482Y-127746688D01*
X110324000Y-127734428D01*
X109759750Y-127737500D01*
X109601000Y-127896250D01*
X109347000Y-127896250D01*
X109188250Y-127737500D01*
X108624000Y-127734428D01*
X108499518Y-127746688D01*
X108379820Y-127782998D01*
X108269506Y-127841963D01*
X108172815Y-127921315D01*
X108093463Y-128018006D01*
X108034498Y-128128320D01*
X108011502Y-128204126D01*
X107815355Y-128027322D01*
X107565252Y-127878343D01*
X107290891Y-127781019D01*
X107061000Y-127901686D01*
X106807000Y-127901686D01*
X106577109Y-127781019D01*
X106302748Y-127878343D01*
X106052645Y-128027322D01*
X105836412Y-128222231D01*
X105662359Y-128455580D01*
X105537175Y-128718401D01*
X105492524Y-128865610D01*
X104820600Y-128865610D01*
X104820600Y-123955946D01*
X105621193Y-123155354D01*
X105649238Y-123132338D01*
X105741087Y-123020420D01*
X105809337Y-122892733D01*
X105842696Y-122782763D01*
X105851365Y-122754186D01*
X105865556Y-122610101D01*
X105862000Y-122573996D01*
X105862000Y-117530430D01*
X106025740Y-117563000D01*
X106318260Y-117563000D01*
X106605158Y-117505932D01*
X106875411Y-117393990D01*
X107118632Y-117231475D01*
X107250487Y-117099620D01*
X107272498Y-117172180D01*
X107331463Y-117282494D01*
X107410815Y-117379185D01*
X107507506Y-117458537D01*
X107617820Y-117517502D01*
X107737518Y-117553812D01*
X107862000Y-117566072D01*
X109562000Y-117566072D01*
X109686482Y-117553812D01*
X109806180Y-117517502D01*
X109916494Y-117458537D01*
X110013185Y-117379185D01*
X110092537Y-117282494D01*
X110151502Y-117172180D01*
X110187812Y-117052482D01*
X110200072Y-116928000D01*
X110200072Y-115228000D01*
X110187812Y-115103518D01*
X110151502Y-114983820D01*
X110092537Y-114873506D01*
X110013185Y-114776815D01*
X109916494Y-114697463D01*
X109806180Y-114638498D01*
X109686482Y-114602188D01*
X109562000Y-114589928D01*
X107862000Y-114589928D01*
X107737518Y-114602188D01*
X107617820Y-114638498D01*
X107507506Y-114697463D01*
X107410815Y-114776815D01*
X107331463Y-114873506D01*
X107272498Y-114983820D01*
X107250487Y-115056380D01*
X107118632Y-114924525D01*
X106875411Y-114762010D01*
X106605158Y-114650068D01*
X106318260Y-114593000D01*
X106025740Y-114593000D01*
X105738842Y-114650068D01*
X105468589Y-114762010D01*
X105225368Y-114924525D01*
X105018525Y-115131368D01*
X104902000Y-115305760D01*
X104785475Y-115131368D01*
X104578632Y-114924525D01*
X104335411Y-114762010D01*
X104065158Y-114650068D01*
X103778260Y-114593000D01*
X103485740Y-114593000D01*
X103198842Y-114650068D01*
X102928589Y-114762010D01*
X102685368Y-114924525D01*
X102478525Y-115131368D01*
X102356805Y-115313534D01*
X102287178Y-115196645D01*
X102092269Y-114980412D01*
X101858920Y-114806359D01*
X101596099Y-114681175D01*
X101448890Y-114636524D01*
X101219000Y-114757845D01*
X101219000Y-115951000D01*
X101239000Y-115951000D01*
X101239000Y-116205000D01*
X101219000Y-116205000D01*
X101219000Y-117398155D01*
X101448890Y-117519476D01*
X101596099Y-117474825D01*
X101858920Y-117349641D01*
X102092269Y-117175588D01*
X102287178Y-116959355D01*
X102356805Y-116842466D01*
X102478525Y-117024632D01*
X102685368Y-117231475D01*
X102928589Y-117393990D01*
X103198842Y-117505932D01*
X103485740Y-117563000D01*
X103778260Y-117563000D01*
X103942000Y-117530430D01*
X103942001Y-122119252D01*
X103141408Y-122919846D01*
X103113362Y-122942863D01*
X103021513Y-123054781D01*
X102953263Y-123182468D01*
X102926542Y-123270556D01*
X102911235Y-123321015D01*
X102897044Y-123465100D01*
X102900600Y-123501205D01*
X102900601Y-139835752D01*
X98548054Y-144188300D01*
X92094105Y-144188300D01*
X92058000Y-144184744D01*
X91913915Y-144198935D01*
X91775366Y-144240963D01*
X91647680Y-144309213D01*
X91535762Y-144401062D01*
X91512746Y-144429107D01*
X90597854Y-145344000D01*
X76390844Y-145344000D01*
X76049460Y-145002617D01*
X76069226Y-144954898D01*
X76109000Y-144754939D01*
X76109000Y-144551061D01*
X76069226Y-144351102D01*
X75991205Y-144162744D01*
X75877937Y-143993226D01*
X75733774Y-143849063D01*
X75603475Y-143762000D01*
X81623678Y-143762000D01*
X81661000Y-143765676D01*
X81698322Y-143762000D01*
X81698333Y-143762000D01*
X81809986Y-143751003D01*
X81953247Y-143707546D01*
X82085276Y-143636974D01*
X82201001Y-143542001D01*
X82224804Y-143512997D01*
X85093003Y-140644799D01*
X85122001Y-140621001D01*
X85216974Y-140505276D01*
X85287546Y-140373247D01*
X85331003Y-140229986D01*
X85342000Y-140118333D01*
X85342000Y-140118323D01*
X85345676Y-140081000D01*
X85342000Y-140043677D01*
X85342000Y-139343647D01*
X90785858Y-139343647D01*
X90785858Y-139547525D01*
X90825632Y-139747484D01*
X90903653Y-139935842D01*
X91016921Y-140105360D01*
X91125600Y-140214039D01*
X91110597Y-140289464D01*
X91110597Y-140493342D01*
X91150371Y-140693301D01*
X91228392Y-140881659D01*
X91341660Y-141051177D01*
X91485823Y-141195340D01*
X91655341Y-141308608D01*
X91843699Y-141386629D01*
X92043658Y-141426403D01*
X92247536Y-141426403D01*
X92447495Y-141386629D01*
X92635853Y-141308608D01*
X92805371Y-141195340D01*
X92949534Y-141051177D01*
X93062802Y-140881659D01*
X93118641Y-140746852D01*
X93129726Y-140757937D01*
X93299244Y-140871205D01*
X93487602Y-140949226D01*
X93687561Y-140989000D01*
X93891439Y-140989000D01*
X94091398Y-140949226D01*
X94279756Y-140871205D01*
X94449274Y-140757937D01*
X94593437Y-140613774D01*
X94706705Y-140444256D01*
X94784726Y-140255898D01*
X94824500Y-140055939D01*
X94824500Y-139993802D01*
X95653008Y-139165295D01*
X95682000Y-139141502D01*
X95705794Y-139112509D01*
X95705798Y-139112505D01*
X95767931Y-139036795D01*
X95776973Y-139025777D01*
X95847545Y-138893748D01*
X95891002Y-138750487D01*
X95901999Y-138638834D01*
X95901999Y-138638825D01*
X95905675Y-138601502D01*
X95901999Y-138564179D01*
X95901999Y-133025321D01*
X95905675Y-132987998D01*
X95901999Y-132950675D01*
X95901999Y-132950666D01*
X95891002Y-132839013D01*
X95847545Y-132695752D01*
X95776973Y-132563723D01*
X95755056Y-132537017D01*
X95705798Y-132476995D01*
X95705794Y-132476991D01*
X95682000Y-132447998D01*
X95653007Y-132424204D01*
X95396000Y-132167198D01*
X95396000Y-132105061D01*
X95356226Y-131905102D01*
X95278205Y-131716744D01*
X95164937Y-131547226D01*
X95020774Y-131403063D01*
X94851256Y-131289795D01*
X94662898Y-131211774D01*
X94462939Y-131172000D01*
X94259061Y-131172000D01*
X94059102Y-131211774D01*
X93870744Y-131289795D01*
X93701226Y-131403063D01*
X93557063Y-131547226D01*
X93443795Y-131716744D01*
X93365774Y-131905102D01*
X93326000Y-132105061D01*
X93326000Y-132308939D01*
X93365774Y-132508898D01*
X93443795Y-132697256D01*
X93473739Y-132742070D01*
X93335083Y-132880726D01*
X93221815Y-133050244D01*
X93143794Y-133238602D01*
X93104020Y-133438561D01*
X93104020Y-133642439D01*
X93143794Y-133842398D01*
X93221815Y-134030756D01*
X93335083Y-134200274D01*
X93400183Y-134265374D01*
X93292167Y-134286860D01*
X93103809Y-134364881D01*
X92934291Y-134478149D01*
X92790128Y-134622312D01*
X92676860Y-134791830D01*
X92598839Y-134980188D01*
X92559065Y-135180147D01*
X92559065Y-135384025D01*
X92598839Y-135583984D01*
X92676860Y-135772342D01*
X92790128Y-135941860D01*
X92834065Y-135985797D01*
X92834066Y-137357575D01*
X91781056Y-138410586D01*
X91718919Y-138410586D01*
X91518960Y-138450360D01*
X91330602Y-138528381D01*
X91161084Y-138641649D01*
X91016921Y-138785812D01*
X90903653Y-138955330D01*
X90825632Y-139143688D01*
X90785858Y-139343647D01*
X85342000Y-139343647D01*
X85342000Y-134837751D01*
X85385937Y-134793814D01*
X85499205Y-134624296D01*
X85577226Y-134435938D01*
X85617000Y-134235979D01*
X85617000Y-134173841D01*
X89538004Y-130252838D01*
X89567001Y-130229041D01*
X89661974Y-130113316D01*
X89732546Y-129981287D01*
X89776003Y-129838026D01*
X89787000Y-129726373D01*
X89787000Y-129726364D01*
X89790676Y-129689041D01*
X89787000Y-129651718D01*
X89787000Y-126997297D01*
X90209798Y-126574500D01*
X90271935Y-126574500D01*
X90471894Y-126534726D01*
X90660252Y-126456705D01*
X90829770Y-126343437D01*
X90904203Y-126269004D01*
X91207064Y-126571866D01*
X91230862Y-126600864D01*
X91259860Y-126624662D01*
X91346586Y-126695837D01*
X91477417Y-126765768D01*
X91478616Y-126766409D01*
X91621877Y-126809866D01*
X91733530Y-126820863D01*
X91733540Y-126820863D01*
X91770862Y-126824539D01*
X91808185Y-126820863D01*
X93471253Y-126820863D01*
X93474001Y-126848765D01*
X93474000Y-129217289D01*
X93430063Y-129261226D01*
X93316795Y-129430744D01*
X93238774Y-129619102D01*
X93199000Y-129819061D01*
X93199000Y-130022939D01*
X93238774Y-130222898D01*
X93316795Y-130411256D01*
X93430063Y-130580774D01*
X93574226Y-130724937D01*
X93743744Y-130838205D01*
X93932102Y-130916226D01*
X94132061Y-130956000D01*
X94335939Y-130956000D01*
X94535898Y-130916226D01*
X94724256Y-130838205D01*
X94893774Y-130724937D01*
X95037937Y-130580774D01*
X95151205Y-130411256D01*
X95229226Y-130222898D01*
X95269000Y-130022939D01*
X95269000Y-129819061D01*
X95229226Y-129619102D01*
X95151205Y-129430744D01*
X95037937Y-129261226D01*
X94994000Y-129217289D01*
X94994000Y-127126234D01*
X95024371Y-127095863D01*
X95086509Y-127095863D01*
X95286468Y-127056089D01*
X95474826Y-126978068D01*
X95644344Y-126864800D01*
X95788507Y-126720637D01*
X95901775Y-126551119D01*
X95979796Y-126362761D01*
X96019570Y-126162802D01*
X96019570Y-125958924D01*
X95979796Y-125758965D01*
X95901775Y-125570607D01*
X95788507Y-125401089D01*
X95644344Y-125256926D01*
X95474826Y-125143658D01*
X95286468Y-125065637D01*
X95086509Y-125025863D01*
X94882631Y-125025863D01*
X94747605Y-125052721D01*
X94721226Y-124920102D01*
X94643205Y-124731744D01*
X94529937Y-124562226D01*
X94385774Y-124418063D01*
X94216256Y-124304795D01*
X94027898Y-124226774D01*
X93827939Y-124187000D01*
X93624061Y-124187000D01*
X93424102Y-124226774D01*
X93235744Y-124304795D01*
X93066226Y-124418063D01*
X93022289Y-124462000D01*
X92516802Y-124462000D01*
X88808130Y-120753329D01*
X88908751Y-120670751D01*
X89006758Y-120551329D01*
X89079584Y-120415082D01*
X89124429Y-120267245D01*
X89137159Y-120138000D01*
X89250546Y-120138000D01*
X89298744Y-120170205D01*
X89487102Y-120248226D01*
X89687061Y-120288000D01*
X89890939Y-120288000D01*
X90090898Y-120248226D01*
X90279256Y-120170205D01*
X90327454Y-120138000D01*
X91454422Y-120138000D01*
X93196470Y-121880049D01*
X93224183Y-121913817D01*
X93257951Y-121941530D01*
X93257953Y-121941532D01*
X93307199Y-121981947D01*
X93358941Y-122024411D01*
X93512687Y-122106589D01*
X93608830Y-122135754D01*
X93679509Y-122157195D01*
X93694306Y-122158652D01*
X93809523Y-122170000D01*
X93809531Y-122170000D01*
X93853000Y-122174281D01*
X93896469Y-122170000D01*
X100211001Y-122170000D01*
X100211000Y-139229868D01*
X98208869Y-141232000D01*
X96464248Y-141232000D01*
X96297501Y-141248423D01*
X96083553Y-141313324D01*
X95886377Y-141418716D01*
X95713551Y-141560551D01*
X95571716Y-141733377D01*
X95466324Y-141930553D01*
X95401423Y-142144501D01*
X95379509Y-142367000D01*
X95401423Y-142589499D01*
X95466324Y-142803447D01*
X95571716Y-143000623D01*
X95713551Y-143173449D01*
X95886377Y-143315284D01*
X96083553Y-143420676D01*
X96297501Y-143485577D01*
X96464248Y-143502000D01*
X98623249Y-143502000D01*
X98679000Y-143507491D01*
X98734751Y-143502000D01*
X98734752Y-143502000D01*
X98901499Y-143485577D01*
X99115447Y-143420676D01*
X99312623Y-143315284D01*
X99485449Y-143173449D01*
X99520996Y-143130135D01*
X99647988Y-143003143D01*
X102109141Y-140541991D01*
X102152449Y-140506449D01*
X102294284Y-140333623D01*
X102399676Y-140136447D01*
X102464577Y-139922499D01*
X102481000Y-139755752D01*
X102481000Y-139755743D01*
X102486490Y-139700001D01*
X102481000Y-139644259D01*
X102481000Y-121755132D01*
X103591339Y-120644794D01*
X103697634Y-120515273D01*
X103803026Y-120318097D01*
X103867927Y-120104149D01*
X103889841Y-119881650D01*
X103867927Y-119659151D01*
X103803026Y-119445203D01*
X103697634Y-119248027D01*
X103555799Y-119075201D01*
X103382973Y-118933366D01*
X103185797Y-118827974D01*
X102971849Y-118763073D01*
X102749350Y-118741159D01*
X102526851Y-118763073D01*
X102312903Y-118827974D01*
X102115727Y-118933366D01*
X101986206Y-119039661D01*
X100625869Y-120400000D01*
X96137000Y-120400000D01*
X96137000Y-118931827D01*
X96163774Y-118913937D01*
X96307937Y-118769774D01*
X96421205Y-118600256D01*
X96499226Y-118411898D01*
X96539000Y-118211939D01*
X96539000Y-118008061D01*
X96499226Y-117808102D01*
X96421205Y-117619744D01*
X96307937Y-117450226D01*
X96163774Y-117306063D01*
X95994256Y-117192795D01*
X95805898Y-117114774D01*
X95605939Y-117075000D01*
X95402061Y-117075000D01*
X95202102Y-117114774D01*
X95013744Y-117192795D01*
X94844226Y-117306063D01*
X94700063Y-117450226D01*
X94586795Y-117619744D01*
X94508774Y-117808102D01*
X94469000Y-118008061D01*
X94469000Y-118211939D01*
X94508774Y-118411898D01*
X94586795Y-118600256D01*
X94617001Y-118645462D01*
X94617000Y-120400000D01*
X94219579Y-120400000D01*
X92477534Y-118657956D01*
X92449817Y-118624183D01*
X92315059Y-118513589D01*
X92161313Y-118431411D01*
X91994490Y-118380805D01*
X91864477Y-118368000D01*
X91864469Y-118368000D01*
X91821000Y-118363719D01*
X91777531Y-118368000D01*
X90818219Y-118368000D01*
X90824000Y-118338939D01*
X90824000Y-118135061D01*
X90784226Y-117935102D01*
X90706205Y-117746744D01*
X90592937Y-117577226D01*
X90448774Y-117433063D01*
X90279256Y-117319795D01*
X90090898Y-117241774D01*
X89890939Y-117202000D01*
X89687061Y-117202000D01*
X89487102Y-117241774D01*
X89298744Y-117319795D01*
X89129226Y-117433063D01*
X88985063Y-117577226D01*
X88871795Y-117746744D01*
X88862776Y-117768518D01*
X88789329Y-117708242D01*
X88653082Y-117635416D01*
X88505245Y-117590571D01*
X88351500Y-117575428D01*
X88051500Y-117575428D01*
X87897755Y-117590571D01*
X87749918Y-117635416D01*
X87691500Y-117666641D01*
X87691500Y-116561234D01*
X87695176Y-116523911D01*
X87691500Y-116486588D01*
X87691500Y-116486578D01*
X87680503Y-116374925D01*
X87637046Y-116231664D01*
X87566474Y-116099635D01*
X87471501Y-115983910D01*
X87442497Y-115960107D01*
X87429425Y-115947035D01*
X87420992Y-115861414D01*
X87377535Y-115718153D01*
X87306963Y-115586124D01*
X87287022Y-115561826D01*
X87211990Y-115470399D01*
X87182992Y-115446601D01*
X86197383Y-114460992D01*
X86173580Y-114431989D01*
X86057855Y-114337016D01*
X85925826Y-114266444D01*
X85782565Y-114222987D01*
X85670912Y-114211990D01*
X85670901Y-114211990D01*
X85633579Y-114208314D01*
X85596257Y-114211990D01*
X83634711Y-114211990D01*
X83590774Y-114168053D01*
X83421256Y-114054785D01*
X83232898Y-113976764D01*
X83032939Y-113936990D01*
X82829061Y-113936990D01*
X82629102Y-113976764D01*
X82440744Y-114054785D01*
X82271226Y-114168053D01*
X82199929Y-114239350D01*
X82089898Y-114193774D01*
X81889939Y-114154000D01*
X81686061Y-114154000D01*
X81486102Y-114193774D01*
X81297744Y-114271795D01*
X81128226Y-114385063D01*
X80984063Y-114529226D01*
X80870795Y-114698744D01*
X80792774Y-114887102D01*
X80753000Y-115087061D01*
X80753000Y-115290939D01*
X80792774Y-115490898D01*
X80870795Y-115679256D01*
X80984063Y-115848774D01*
X81128226Y-115992937D01*
X81297744Y-116106205D01*
X81486102Y-116184226D01*
X81686061Y-116224000D01*
X81745329Y-116224000D01*
X81755999Y-116237001D01*
X81871724Y-116331974D01*
X82003753Y-116402546D01*
X82147014Y-116446003D01*
X82258667Y-116457000D01*
X82258676Y-116457000D01*
X82295999Y-116460676D01*
X82333322Y-116457000D01*
X82447286Y-116457000D01*
X82382090Y-116536441D01*
X82299912Y-116690187D01*
X82249305Y-116857010D01*
X82232219Y-117030500D01*
X82236501Y-117073979D01*
X82236501Y-117615219D01*
X82155245Y-117590571D01*
X82001500Y-117575428D01*
X81701500Y-117575428D01*
X81547755Y-117590571D01*
X81399918Y-117635416D01*
X81263671Y-117708242D01*
X81216500Y-117746954D01*
X81169329Y-117708242D01*
X81033082Y-117635416D01*
X80885245Y-117590571D01*
X80731500Y-117575428D01*
X80431500Y-117575428D01*
X80277755Y-117590571D01*
X80129918Y-117635416D01*
X79993671Y-117708242D01*
X79946500Y-117746954D01*
X79899329Y-117708242D01*
X79763082Y-117635416D01*
X79615245Y-117590571D01*
X79461500Y-117575428D01*
X79161500Y-117575428D01*
X79007755Y-117590571D01*
X78859918Y-117635416D01*
X78723671Y-117708242D01*
X78676500Y-117746954D01*
X78629329Y-117708242D01*
X78493082Y-117635416D01*
X78345245Y-117590571D01*
X78191500Y-117575428D01*
X77891500Y-117575428D01*
X77737755Y-117590571D01*
X77589918Y-117635416D01*
X77453671Y-117708242D01*
X77334249Y-117806249D01*
X77236242Y-117925671D01*
X77163416Y-118061918D01*
X77118571Y-118209755D01*
X77103428Y-118363500D01*
X77103428Y-120113500D01*
X77118571Y-120267245D01*
X77163416Y-120415082D01*
X77236242Y-120551329D01*
X77281500Y-120606476D01*
X77281500Y-120676177D01*
X77277824Y-120713500D01*
X77281285Y-120748643D01*
X77236774Y-120856102D01*
X77197000Y-121056061D01*
X77197000Y-121259939D01*
X77236774Y-121459898D01*
X77314795Y-121648256D01*
X77428063Y-121817774D01*
X77572226Y-121961937D01*
X77741744Y-122075205D01*
X77930102Y-122153226D01*
X78130061Y-122193000D01*
X78333939Y-122193000D01*
X78533898Y-122153226D01*
X78722256Y-122075205D01*
X78891774Y-121961937D01*
X78948059Y-121905652D01*
X79011744Y-121948205D01*
X79200102Y-122026226D01*
X79400061Y-122066000D01*
X79603939Y-122066000D01*
X79803898Y-122026226D01*
X79992256Y-121948205D01*
X80161774Y-121834937D01*
X80305937Y-121690774D01*
X80419205Y-121521256D01*
X80497226Y-121332898D01*
X80510311Y-121267113D01*
X80846072Y-121602873D01*
X80869870Y-121631872D01*
X80898868Y-121655670D01*
X80985595Y-121726845D01*
X81117624Y-121797417D01*
X81260885Y-121840874D01*
X81409871Y-121855548D01*
X81447204Y-121851871D01*
X81483132Y-121851871D01*
X81527069Y-121895808D01*
X81696587Y-122009076D01*
X81884945Y-122087097D01*
X82084904Y-122126871D01*
X82288782Y-122126871D01*
X82488741Y-122087097D01*
X82677099Y-122009076D01*
X82740089Y-121966988D01*
X82883102Y-122026226D01*
X83083061Y-122066000D01*
X83286939Y-122066000D01*
X83486898Y-122026226D01*
X83675256Y-121948205D01*
X83756503Y-121893918D01*
X83837750Y-121948205D01*
X84026108Y-122026226D01*
X84226067Y-122066000D01*
X84288205Y-122066000D01*
X86108001Y-123885797D01*
X86108000Y-124653198D01*
X83880498Y-126880701D01*
X83851500Y-126904499D01*
X83827702Y-126933497D01*
X83827701Y-126933498D01*
X83756526Y-127020224D01*
X83746587Y-127038819D01*
X83709329Y-127008242D01*
X83573082Y-126935416D01*
X83425245Y-126890571D01*
X83349008Y-126883062D01*
X84924259Y-125307812D01*
X84986396Y-125307812D01*
X85186355Y-125268038D01*
X85374713Y-125190017D01*
X85544231Y-125076749D01*
X85688394Y-124932586D01*
X85801662Y-124763068D01*
X85879683Y-124574710D01*
X85919457Y-124374751D01*
X85919457Y-124170873D01*
X85879683Y-123970914D01*
X85801662Y-123782556D01*
X85688394Y-123613038D01*
X85544231Y-123468875D01*
X85374713Y-123355607D01*
X85186355Y-123277586D01*
X84986396Y-123237812D01*
X84924258Y-123237812D01*
X84619448Y-122933002D01*
X84595646Y-122903999D01*
X84479921Y-122809026D01*
X84347892Y-122738454D01*
X84204631Y-122694997D01*
X84092978Y-122684000D01*
X84092967Y-122684000D01*
X84055645Y-122680324D01*
X84018323Y-122684000D01*
X78740333Y-122684000D01*
X78703010Y-122680324D01*
X78665687Y-122684000D01*
X78665677Y-122684000D01*
X78554024Y-122694997D01*
X78410763Y-122738454D01*
X78278734Y-122809026D01*
X78163009Y-122903999D01*
X78139211Y-122932997D01*
X76833000Y-124239209D01*
X76833000Y-117281801D01*
X82081802Y-112033000D01*
X82143939Y-112033000D01*
X82343898Y-111993226D01*
X82532256Y-111915205D01*
X82701774Y-111801937D01*
X82745711Y-111758000D01*
X88970199Y-111758000D01*
X88321698Y-112406501D01*
X88292694Y-112430304D01*
X88244359Y-112489201D01*
X88197721Y-112546029D01*
X88147377Y-112640215D01*
X88127149Y-112678059D01*
X88083692Y-112821320D01*
X88072695Y-112932973D01*
X88072695Y-112932983D01*
X88069019Y-112970305D01*
X88072695Y-113007628D01*
X88072696Y-115374288D01*
X88028758Y-115418226D01*
X87915490Y-115587744D01*
X87837469Y-115776102D01*
X87797695Y-115976061D01*
X87797695Y-116179939D01*
X87837469Y-116379898D01*
X87915490Y-116568256D01*
X88028758Y-116737774D01*
X88172921Y-116881937D01*
X88342439Y-116995205D01*
X88530797Y-117073226D01*
X88730756Y-117113000D01*
X88934634Y-117113000D01*
X89134593Y-117073226D01*
X89322951Y-116995205D01*
X89492469Y-116881937D01*
X89636632Y-116737774D01*
X89749900Y-116568256D01*
X89827921Y-116379898D01*
X89867695Y-116179939D01*
X89867695Y-115976061D01*
X89858880Y-115931740D01*
X97067000Y-115931740D01*
X97067000Y-116224260D01*
X97124068Y-116511158D01*
X97236010Y-116781411D01*
X97398525Y-117024632D01*
X97605368Y-117231475D01*
X97848589Y-117393990D01*
X98118842Y-117505932D01*
X98405740Y-117563000D01*
X98698260Y-117563000D01*
X98985158Y-117505932D01*
X99255411Y-117393990D01*
X99498632Y-117231475D01*
X99705475Y-117024632D01*
X99827195Y-116842466D01*
X99896822Y-116959355D01*
X100091731Y-117175588D01*
X100325080Y-117349641D01*
X100587901Y-117474825D01*
X100735110Y-117519476D01*
X100965000Y-117398155D01*
X100965000Y-116205000D01*
X100945000Y-116205000D01*
X100945000Y-115951000D01*
X100965000Y-115951000D01*
X100965000Y-114757845D01*
X100735110Y-114636524D01*
X100587901Y-114681175D01*
X100325080Y-114806359D01*
X100091731Y-114980412D01*
X99896822Y-115196645D01*
X99827195Y-115313534D01*
X99705475Y-115131368D01*
X99498632Y-114924525D01*
X99255411Y-114762010D01*
X98985158Y-114650068D01*
X98698260Y-114593000D01*
X98405740Y-114593000D01*
X98118842Y-114650068D01*
X97848589Y-114762010D01*
X97605368Y-114924525D01*
X97398525Y-115131368D01*
X97236010Y-115374589D01*
X97124068Y-115644842D01*
X97067000Y-115931740D01*
X89858880Y-115931740D01*
X89827921Y-115776102D01*
X89749900Y-115587744D01*
X89636632Y-115418226D01*
X89592695Y-115374289D01*
X89592695Y-113285106D01*
X90463802Y-112414000D01*
X90525939Y-112414000D01*
X90725898Y-112374226D01*
X90914256Y-112296205D01*
X91083774Y-112182937D01*
X91227937Y-112038774D01*
X91341205Y-111869256D01*
X91419226Y-111680898D01*
X91459000Y-111480939D01*
X91459000Y-111277061D01*
X91451746Y-111240588D01*
X103044414Y-111240588D01*
X103072051Y-111357221D01*
X103196564Y-111642983D01*
X103374434Y-111898962D01*
X103598825Y-112115322D01*
X103861114Y-112283748D01*
X104151222Y-112397768D01*
X104458000Y-112453000D01*
X104958000Y-112453000D01*
X104958000Y-110995000D01*
X105212000Y-110995000D01*
X105212000Y-112453000D01*
X105712000Y-112453000D01*
X106018778Y-112397768D01*
X106308886Y-112283748D01*
X106571175Y-112115322D01*
X106795566Y-111898962D01*
X106973436Y-111642983D01*
X107097949Y-111357221D01*
X107125586Y-111240588D01*
X107005584Y-110995000D01*
X105212000Y-110995000D01*
X104958000Y-110995000D01*
X103164416Y-110995000D01*
X103044414Y-111240588D01*
X91451746Y-111240588D01*
X91419226Y-111077102D01*
X91341205Y-110888744D01*
X91227937Y-110719226D01*
X91083774Y-110575063D01*
X90964568Y-110495412D01*
X103044414Y-110495412D01*
X103164416Y-110741000D01*
X104958000Y-110741000D01*
X104958000Y-109283000D01*
X105212000Y-109283000D01*
X105212000Y-110741000D01*
X107005584Y-110741000D01*
X107125586Y-110495412D01*
X107097949Y-110378779D01*
X106973436Y-110093017D01*
X106795566Y-109837038D01*
X106571175Y-109620678D01*
X106308886Y-109452252D01*
X106018778Y-109338232D01*
X105712000Y-109283000D01*
X105212000Y-109283000D01*
X104958000Y-109283000D01*
X104458000Y-109283000D01*
X104151222Y-109338232D01*
X103861114Y-109452252D01*
X103598825Y-109620678D01*
X103374434Y-109837038D01*
X103196564Y-110093017D01*
X103072051Y-110378779D01*
X103044414Y-110495412D01*
X90964568Y-110495412D01*
X90914256Y-110461795D01*
X90725898Y-110383774D01*
X90525939Y-110344000D01*
X90431681Y-110344000D01*
X90335247Y-110292454D01*
X90191986Y-110248997D01*
X90080333Y-110238000D01*
X90080322Y-110238000D01*
X90043000Y-110234324D01*
X90005678Y-110238000D01*
X82745711Y-110238000D01*
X82701774Y-110194063D01*
X82532256Y-110080795D01*
X82343898Y-110002774D01*
X82143939Y-109963000D01*
X81940061Y-109963000D01*
X81740102Y-110002774D01*
X81551744Y-110080795D01*
X81382226Y-110194063D01*
X81238063Y-110338226D01*
X81124795Y-110507744D01*
X81046774Y-110696102D01*
X81007000Y-110896061D01*
X81007000Y-110958198D01*
X79807026Y-112158173D01*
X79862226Y-112024908D01*
X79902000Y-111824949D01*
X79902000Y-111621071D01*
X79862226Y-111421112D01*
X79784205Y-111232754D01*
X79670937Y-111063236D01*
X79526774Y-110919073D01*
X79357256Y-110805805D01*
X79168898Y-110727784D01*
X78968939Y-110688010D01*
X78765061Y-110688010D01*
X78565102Y-110727784D01*
X78376744Y-110805805D01*
X78207226Y-110919073D01*
X78063063Y-111063236D01*
X77949795Y-111232754D01*
X77871774Y-111421112D01*
X77832000Y-111621071D01*
X77832000Y-111683208D01*
X77812002Y-111703206D01*
X77812002Y-109093327D01*
X77815678Y-109056002D01*
X77812002Y-109018677D01*
X77812002Y-109018669D01*
X77801005Y-108907016D01*
X77757548Y-108763755D01*
X77686976Y-108631726D01*
X77592003Y-108516001D01*
X77563006Y-108492204D01*
X76763803Y-107693002D01*
X76740001Y-107663999D01*
X76624276Y-107569026D01*
X76492247Y-107498454D01*
X76348986Y-107454997D01*
X76237333Y-107444000D01*
X76237322Y-107444000D01*
X76200000Y-107440324D01*
X76162678Y-107444000D01*
X75221322Y-107444000D01*
X75183999Y-107440324D01*
X75146676Y-107444000D01*
X75146667Y-107444000D01*
X75035014Y-107454997D01*
X74891753Y-107498454D01*
X74759724Y-107569026D01*
X74643999Y-107663999D01*
X74620196Y-107693003D01*
X74418998Y-107894201D01*
X74390000Y-107917999D01*
X74366202Y-107946997D01*
X74366201Y-107946998D01*
X74295026Y-108033724D01*
X74224454Y-108165754D01*
X74199838Y-108246906D01*
X74180998Y-108309014D01*
X74170000Y-108420667D01*
X74170000Y-108420678D01*
X74166324Y-108458000D01*
X74170000Y-108495322D01*
X74170000Y-109239680D01*
X74166324Y-109277002D01*
X74170000Y-109314324D01*
X74170000Y-109314334D01*
X74180997Y-109425987D01*
X74221493Y-109559486D01*
X74224454Y-109569248D01*
X74295026Y-109701278D01*
X74319175Y-109730703D01*
X74389999Y-109817003D01*
X74419002Y-109840805D01*
X75047979Y-110469783D01*
X75047978Y-110973498D01*
X73412831Y-110973498D01*
X73375498Y-110969821D01*
X73338165Y-110973498D01*
X73226512Y-110984495D01*
X73083251Y-111027952D01*
X72951222Y-111098524D01*
X72835497Y-111193497D01*
X72811699Y-111222495D01*
X71928193Y-112106002D01*
X70071931Y-112106002D01*
X70071931Y-112023875D01*
X70032157Y-111823916D01*
X69954136Y-111635558D01*
X69930459Y-111600122D01*
X70005205Y-111488256D01*
X70083226Y-111299898D01*
X70123000Y-111099939D01*
X70123000Y-110896061D01*
X70083226Y-110696102D01*
X70005205Y-110507744D01*
X69891937Y-110338226D01*
X69747774Y-110194063D01*
X69721924Y-110176791D01*
X69828441Y-110070274D01*
X69941709Y-109900756D01*
X70019730Y-109712398D01*
X70059504Y-109512439D01*
X70059504Y-109308561D01*
X70019730Y-109108602D01*
X69941709Y-108920244D01*
X69828441Y-108750726D01*
X69794373Y-108716658D01*
X69896597Y-108614434D01*
X70009865Y-108444916D01*
X70087886Y-108256558D01*
X70127660Y-108056599D01*
X70127660Y-107852721D01*
X70087886Y-107652762D01*
X70009865Y-107464404D01*
X69896597Y-107294886D01*
X69752434Y-107150723D01*
X69582916Y-107037455D01*
X69394558Y-106959434D01*
X69194599Y-106919660D01*
X68990721Y-106919660D01*
X68790762Y-106959434D01*
X68602404Y-107037455D01*
X68432886Y-107150723D01*
X68370609Y-107213000D01*
X67598695Y-107213000D01*
X67538744Y-107180955D01*
X67395483Y-107137498D01*
X67246497Y-107122824D01*
X67097512Y-107137498D01*
X66954252Y-107180955D01*
X66894300Y-107213000D01*
X65733563Y-107213000D01*
X65773002Y-107082987D01*
X65787676Y-106934001D01*
X65785679Y-106913724D01*
X65775956Y-106815000D01*
X96730000Y-106815000D01*
X96730000Y-107315000D01*
X96789075Y-107660796D01*
X96914476Y-107988423D01*
X97101384Y-108285290D01*
X97342617Y-108539989D01*
X97628904Y-108742731D01*
X97949243Y-108885726D01*
X98111036Y-108926688D01*
X98388000Y-108809283D01*
X98388000Y-106815000D01*
X98642000Y-106815000D01*
X98642000Y-108809283D01*
X98918964Y-108926688D01*
X99080757Y-108885726D01*
X99401096Y-108742731D01*
X99687383Y-108539989D01*
X99928616Y-108285290D01*
X100115524Y-107988423D01*
X100240925Y-107660796D01*
X100300000Y-107315000D01*
X100300000Y-107053565D01*
X100799040Y-107053565D01*
X100866020Y-107293656D01*
X101115048Y-107410756D01*
X101382135Y-107477023D01*
X101657017Y-107489910D01*
X101929133Y-107448922D01*
X102188023Y-107355636D01*
X102303980Y-107293656D01*
X102370960Y-107053565D01*
X101585000Y-106267605D01*
X100799040Y-107053565D01*
X100300000Y-107053565D01*
X100300000Y-106815000D01*
X98642000Y-106815000D01*
X98388000Y-106815000D01*
X96730000Y-106815000D01*
X65775956Y-106815000D01*
X65773002Y-106785013D01*
X65729545Y-106641754D01*
X65658973Y-106509724D01*
X65587799Y-106422998D01*
X65587794Y-106422993D01*
X65564000Y-106394000D01*
X65535007Y-106370206D01*
X65356804Y-106192003D01*
X65333001Y-106162999D01*
X65217276Y-106068026D01*
X65204132Y-106061000D01*
X96730000Y-106061000D01*
X96730000Y-106561000D01*
X98388000Y-106561000D01*
X98388000Y-106541000D01*
X98642000Y-106541000D01*
X98642000Y-106561000D01*
X100270513Y-106561000D01*
X100317364Y-106691023D01*
X100379344Y-106806980D01*
X100619435Y-106873960D01*
X101405395Y-106088000D01*
X101764605Y-106088000D01*
X102550565Y-106873960D01*
X102790656Y-106806980D01*
X102833218Y-106716467D01*
X102846995Y-106749727D01*
X102999880Y-106978535D01*
X103194465Y-107173120D01*
X103423273Y-107326005D01*
X103677510Y-107431314D01*
X103947408Y-107485000D01*
X104222592Y-107485000D01*
X104492490Y-107431314D01*
X104746727Y-107326005D01*
X104975535Y-107173120D01*
X105085000Y-107063655D01*
X105194465Y-107173120D01*
X105423273Y-107326005D01*
X105677510Y-107431314D01*
X105947408Y-107485000D01*
X106222592Y-107485000D01*
X106492490Y-107431314D01*
X106746727Y-107326005D01*
X106975535Y-107173120D01*
X107170120Y-106978535D01*
X107194059Y-106942708D01*
X107197188Y-106974482D01*
X107233498Y-107094180D01*
X107292463Y-107204494D01*
X107371815Y-107301185D01*
X107468506Y-107380537D01*
X107578820Y-107439502D01*
X107698518Y-107475812D01*
X107823000Y-107488072D01*
X109347000Y-107488072D01*
X109471482Y-107475812D01*
X109591180Y-107439502D01*
X109701494Y-107380537D01*
X109798185Y-107301185D01*
X109870000Y-107213678D01*
X109870000Y-107315000D01*
X109929075Y-107660796D01*
X110054476Y-107988423D01*
X110241384Y-108285290D01*
X110482617Y-108539989D01*
X110768904Y-108742731D01*
X111089243Y-108885726D01*
X111251036Y-108926688D01*
X111528000Y-108809283D01*
X111528000Y-106815000D01*
X111782000Y-106815000D01*
X111782000Y-108809283D01*
X112058964Y-108926688D01*
X112220757Y-108885726D01*
X112541096Y-108742731D01*
X112827383Y-108539989D01*
X113068616Y-108285290D01*
X113255524Y-107988423D01*
X113380925Y-107660796D01*
X113440000Y-107315000D01*
X113440000Y-106815000D01*
X111782000Y-106815000D01*
X111528000Y-106815000D01*
X111508000Y-106815000D01*
X111508000Y-106561000D01*
X111528000Y-106561000D01*
X111528000Y-106541000D01*
X111782000Y-106541000D01*
X111782000Y-106561000D01*
X113440000Y-106561000D01*
X113440000Y-106061000D01*
X113380925Y-105715204D01*
X113255524Y-105387577D01*
X113096949Y-105135712D01*
X113145003Y-105047609D01*
X111655000Y-103557605D01*
X110164997Y-105047609D01*
X110213051Y-105135712D01*
X110054476Y-105387577D01*
X109985072Y-105568904D01*
X109985072Y-105326000D01*
X109972812Y-105201518D01*
X109936502Y-105081820D01*
X109877537Y-104971506D01*
X109798185Y-104874815D01*
X109701494Y-104795463D01*
X109591180Y-104736498D01*
X109471482Y-104700188D01*
X109347000Y-104687928D01*
X107823000Y-104687928D01*
X107698518Y-104700188D01*
X107578820Y-104736498D01*
X107468506Y-104795463D01*
X107371815Y-104874815D01*
X107292463Y-104971506D01*
X107233498Y-105081820D01*
X107197188Y-105201518D01*
X107194059Y-105233292D01*
X107170120Y-105197465D01*
X106975535Y-105002880D01*
X106746727Y-104849995D01*
X106492490Y-104744686D01*
X106222592Y-104691000D01*
X105947408Y-104691000D01*
X105677510Y-104744686D01*
X105423273Y-104849995D01*
X105194465Y-105002880D01*
X105085000Y-105112345D01*
X104975535Y-105002880D01*
X104746727Y-104849995D01*
X104492490Y-104744686D01*
X104222592Y-104691000D01*
X103947408Y-104691000D01*
X103677510Y-104744686D01*
X103423273Y-104849995D01*
X103194465Y-105002880D01*
X102999880Y-105197465D01*
X102846995Y-105426273D01*
X102835758Y-105453401D01*
X102790656Y-105369020D01*
X102550565Y-105302040D01*
X101764605Y-106088000D01*
X101405395Y-106088000D01*
X100619435Y-105302040D01*
X100379344Y-105369020D01*
X100262244Y-105618048D01*
X100239234Y-105710787D01*
X100115524Y-105387577D01*
X99956949Y-105135712D01*
X99964190Y-105122435D01*
X100799040Y-105122435D01*
X101585000Y-105908395D01*
X102370960Y-105122435D01*
X102303980Y-104882344D01*
X102054952Y-104765244D01*
X101787865Y-104698977D01*
X101512983Y-104686090D01*
X101240867Y-104727078D01*
X100981977Y-104820364D01*
X100866020Y-104882344D01*
X100799040Y-105122435D01*
X99964190Y-105122435D01*
X100005003Y-105047609D01*
X98515000Y-103557605D01*
X97024997Y-105047609D01*
X97073051Y-105135712D01*
X96914476Y-105387577D01*
X96789075Y-105715204D01*
X96730000Y-106061000D01*
X65204132Y-106061000D01*
X65085247Y-105997454D01*
X64941986Y-105953997D01*
X64830333Y-105943000D01*
X64830322Y-105943000D01*
X64793000Y-105939324D01*
X64755678Y-105943000D01*
X64592603Y-105943000D01*
X64584180Y-105938498D01*
X64464482Y-105902188D01*
X64340000Y-105889928D01*
X63850000Y-105889928D01*
X63850000Y-105870200D01*
X63905774Y-105832933D01*
X64049937Y-105688770D01*
X64163205Y-105519252D01*
X64241226Y-105330894D01*
X64281000Y-105130935D01*
X64281000Y-104927057D01*
X64241226Y-104727098D01*
X64163205Y-104538740D01*
X64049937Y-104369222D01*
X63905774Y-104225059D01*
X63736256Y-104111791D01*
X63547898Y-104033770D01*
X63347939Y-103993996D01*
X63144061Y-103993996D01*
X62944102Y-104033770D01*
X62755744Y-104111791D01*
X62586226Y-104225059D01*
X62442063Y-104369222D01*
X62328795Y-104538740D01*
X62250774Y-104727098D01*
X62211000Y-104927057D01*
X62211000Y-105130935D01*
X62250774Y-105330894D01*
X62328795Y-105519252D01*
X62330001Y-105521057D01*
X62330001Y-105889928D01*
X61840000Y-105889928D01*
X61715518Y-105902188D01*
X61595820Y-105938498D01*
X61587397Y-105943000D01*
X61356480Y-105943000D01*
X61431647Y-105892775D01*
X61582775Y-105741647D01*
X61701515Y-105563940D01*
X61783304Y-105366483D01*
X61825000Y-105156863D01*
X61825000Y-104943137D01*
X61812624Y-104880919D01*
X61864482Y-104875812D01*
X61984180Y-104839502D01*
X62094494Y-104780537D01*
X62191185Y-104701185D01*
X62270537Y-104604494D01*
X62329502Y-104494180D01*
X62365812Y-104374482D01*
X62378072Y-104250000D01*
X62378072Y-103149061D01*
X77324000Y-103149061D01*
X77324000Y-103352939D01*
X77363774Y-103552898D01*
X77441795Y-103741256D01*
X77555063Y-103910774D01*
X77699226Y-104054937D01*
X77868744Y-104168205D01*
X78057102Y-104246226D01*
X78257061Y-104286000D01*
X78460939Y-104286000D01*
X78660898Y-104246226D01*
X78849256Y-104168205D01*
X79018774Y-104054937D01*
X79062711Y-104011000D01*
X80584199Y-104011000D01*
X81515000Y-104941802D01*
X81515000Y-105003939D01*
X81554774Y-105203898D01*
X81632795Y-105392256D01*
X81746063Y-105561774D01*
X81890226Y-105705937D01*
X82059744Y-105819205D01*
X82248102Y-105897226D01*
X82448061Y-105937000D01*
X82651939Y-105937000D01*
X82851898Y-105897226D01*
X83040256Y-105819205D01*
X83209774Y-105705937D01*
X83353937Y-105561774D01*
X83467205Y-105392256D01*
X83545226Y-105203898D01*
X83585000Y-105003939D01*
X83585000Y-104800061D01*
X83545226Y-104600102D01*
X83467205Y-104411744D01*
X83353937Y-104242226D01*
X83209774Y-104098063D01*
X83040256Y-103984795D01*
X82851898Y-103906774D01*
X82651939Y-103867000D01*
X82589802Y-103867000D01*
X82133748Y-103410946D01*
X96118687Y-103410946D01*
X96171158Y-103877811D01*
X96313703Y-104325468D01*
X96504234Y-104681927D01*
X96845391Y-104868003D01*
X98335395Y-103378000D01*
X98694605Y-103378000D01*
X100184609Y-104868003D01*
X100525766Y-104681927D01*
X100741513Y-104264591D01*
X100871696Y-103813185D01*
X100905736Y-103410946D01*
X109258687Y-103410946D01*
X109311158Y-103877811D01*
X109453703Y-104325468D01*
X109644234Y-104681927D01*
X109985391Y-104868003D01*
X111475395Y-103378000D01*
X111834605Y-103378000D01*
X113324609Y-104868003D01*
X113665766Y-104681927D01*
X113881513Y-104264591D01*
X114011696Y-103813185D01*
X114051313Y-103345054D01*
X113998842Y-102878189D01*
X113856297Y-102430532D01*
X113665766Y-102074073D01*
X113523014Y-101996212D01*
X121293000Y-101996212D01*
X121293000Y-102219788D01*
X121336617Y-102439067D01*
X121422176Y-102645624D01*
X121546388Y-102831520D01*
X121704480Y-102989612D01*
X121890376Y-103113824D01*
X122096933Y-103199383D01*
X122316212Y-103243000D01*
X122539788Y-103243000D01*
X122759067Y-103199383D01*
X122965624Y-103113824D01*
X123151520Y-102989612D01*
X123309612Y-102831520D01*
X123433824Y-102645624D01*
X123519383Y-102439067D01*
X123563000Y-102219788D01*
X123563000Y-101996212D01*
X123519383Y-101776933D01*
X123433824Y-101570376D01*
X123309612Y-101384480D01*
X123151520Y-101226388D01*
X122965624Y-101102176D01*
X122759067Y-101016617D01*
X122539788Y-100973000D01*
X122316212Y-100973000D01*
X122096933Y-101016617D01*
X121890376Y-101102176D01*
X121704480Y-101226388D01*
X121546388Y-101384480D01*
X121422176Y-101570376D01*
X121336617Y-101776933D01*
X121293000Y-101996212D01*
X113523014Y-101996212D01*
X113324609Y-101887997D01*
X111834605Y-103378000D01*
X111475395Y-103378000D01*
X109985391Y-101887997D01*
X109644234Y-102074073D01*
X109428487Y-102491409D01*
X109298304Y-102942815D01*
X109258687Y-103410946D01*
X100905736Y-103410946D01*
X100911313Y-103345054D01*
X100858842Y-102878189D01*
X100716297Y-102430532D01*
X100525766Y-102074073D01*
X100184609Y-101887997D01*
X98694605Y-103378000D01*
X98335395Y-103378000D01*
X96845391Y-101887997D01*
X96504234Y-102074073D01*
X96288487Y-102491409D01*
X96158304Y-102942815D01*
X96118687Y-103410946D01*
X82133748Y-103410946D01*
X81462804Y-102740003D01*
X81439001Y-102710999D01*
X81323276Y-102616026D01*
X81191247Y-102545454D01*
X81047986Y-102501997D01*
X80936333Y-102491000D01*
X80936322Y-102491000D01*
X80899000Y-102487324D01*
X80861678Y-102491000D01*
X79062711Y-102491000D01*
X79018774Y-102447063D01*
X78849256Y-102333795D01*
X78660898Y-102255774D01*
X78460939Y-102216000D01*
X78257061Y-102216000D01*
X78057102Y-102255774D01*
X77868744Y-102333795D01*
X77699226Y-102447063D01*
X77555063Y-102591226D01*
X77441795Y-102760744D01*
X77363774Y-102949102D01*
X77324000Y-103149061D01*
X62378072Y-103149061D01*
X62378072Y-101750000D01*
X62373975Y-101708391D01*
X97024997Y-101708391D01*
X98515000Y-103198395D01*
X100005003Y-101708391D01*
X110164997Y-101708391D01*
X111655000Y-103198395D01*
X113145003Y-101708391D01*
X112958927Y-101367234D01*
X112541591Y-101151487D01*
X112090185Y-101021304D01*
X111622054Y-100981687D01*
X111155189Y-101034158D01*
X110707532Y-101176703D01*
X110351073Y-101367234D01*
X110164997Y-101708391D01*
X100005003Y-101708391D01*
X99818927Y-101367234D01*
X99401591Y-101151487D01*
X98950185Y-101021304D01*
X98482054Y-100981687D01*
X98015189Y-101034158D01*
X97567532Y-101176703D01*
X97211073Y-101367234D01*
X97024997Y-101708391D01*
X62373975Y-101708391D01*
X62365812Y-101625518D01*
X62329502Y-101505820D01*
X62270537Y-101395506D01*
X62191185Y-101298815D01*
X62094494Y-101219463D01*
X61984180Y-101160498D01*
X61864482Y-101124188D01*
X61740000Y-101111928D01*
X59740000Y-101111928D01*
X59615518Y-101124188D01*
X59495820Y-101160498D01*
X59385506Y-101219463D01*
X59288815Y-101298815D01*
X59209463Y-101395506D01*
X59150498Y-101505820D01*
X59114188Y-101625518D01*
X59101928Y-101750000D01*
X59101928Y-104250000D01*
X59114188Y-104374482D01*
X59150498Y-104494180D01*
X59209463Y-104604494D01*
X59288815Y-104701185D01*
X59385506Y-104780537D01*
X59495820Y-104839502D01*
X59615518Y-104875812D01*
X59667376Y-104880919D01*
X59655000Y-104943137D01*
X59655000Y-105156863D01*
X59696696Y-105366483D01*
X59778485Y-105563940D01*
X59897225Y-105741647D01*
X60048353Y-105892775D01*
X60123520Y-105943000D01*
X59892603Y-105943000D01*
X59884180Y-105938498D01*
X59764482Y-105902188D01*
X59640000Y-105889928D01*
X57140000Y-105889928D01*
X57015518Y-105902188D01*
X56895820Y-105938498D01*
X56785506Y-105997463D01*
X56688815Y-106076815D01*
X56609463Y-106173506D01*
X56550498Y-106283820D01*
X56514188Y-106403518D01*
X56501928Y-106528000D01*
X56501928Y-106578000D01*
X52719318Y-106578000D01*
X52681995Y-106574324D01*
X52644672Y-106578000D01*
X52644663Y-106578000D01*
X52533010Y-106588997D01*
X52389749Y-106632454D01*
X52257720Y-106703026D01*
X52257718Y-106703027D01*
X52257719Y-106703027D01*
X52170992Y-106774201D01*
X52170988Y-106774205D01*
X52141995Y-106797999D01*
X52118201Y-106826992D01*
X51268194Y-107677000D01*
X51206057Y-107677000D01*
X51006098Y-107716774D01*
X50817740Y-107794795D01*
X50660000Y-107900193D01*
X50660000Y-105927731D01*
X50773446Y-106003533D01*
X51471372Y-106292623D01*
X52212285Y-106440000D01*
X52967715Y-106440000D01*
X53708628Y-106292623D01*
X54406554Y-106003533D01*
X55034670Y-105583839D01*
X55568839Y-105049670D01*
X55988533Y-104421554D01*
X56277623Y-103723628D01*
X56425000Y-102982715D01*
X56425000Y-102227285D01*
X56277623Y-101486372D01*
X55988533Y-100788446D01*
X55902708Y-100660000D01*
X124440000Y-100660000D01*
X124440000Y-111021491D01*
G37*
%TD.AperFunction*%
D29*
X60111808Y-119529057D02*
X60180749Y-119528000D01*
X60319549Y-119528000D01*
X60273428Y-119547104D01*
X60112099Y-119654901D01*
X59974901Y-119792099D01*
X59867104Y-119953428D01*
X59792853Y-120132686D01*
X59755000Y-120322986D01*
X59755000Y-120517014D01*
X59767912Y-120581928D01*
X59740000Y-120581928D01*
X59615518Y-120594188D01*
X59495820Y-120630498D01*
X59385506Y-120689463D01*
X59288815Y-120768815D01*
X59209463Y-120865506D01*
X59150498Y-120975820D01*
X59114188Y-121095518D01*
X59101928Y-121220000D01*
X59101928Y-123720000D01*
X59105277Y-123754000D01*
X58979093Y-123754000D01*
X58956205Y-123698744D01*
X58842937Y-123529226D01*
X58698774Y-123385063D01*
X58529256Y-123271795D01*
X58340898Y-123193774D01*
X58140939Y-123154000D01*
X57937061Y-123154000D01*
X57737102Y-123193774D01*
X57548744Y-123271795D01*
X57379226Y-123385063D01*
X57235063Y-123529226D01*
X57121795Y-123698744D01*
X57043774Y-123887102D01*
X57039111Y-123910545D01*
X57039111Y-119571136D01*
X57140000Y-119581072D01*
X59640000Y-119581072D01*
X59764482Y-119568812D01*
X59884180Y-119532502D01*
X59892603Y-119528000D01*
X60106033Y-119528000D01*
X60111808Y-119529057D01*
%TA.AperFunction,Conductor*%
D30*
G36*
X60111808Y-119529057D02*
G01*
X60180749Y-119528000D01*
X60319549Y-119528000D01*
X60273428Y-119547104D01*
X60112099Y-119654901D01*
X59974901Y-119792099D01*
X59867104Y-119953428D01*
X59792853Y-120132686D01*
X59755000Y-120322986D01*
X59755000Y-120517014D01*
X59767912Y-120581928D01*
X59740000Y-120581928D01*
X59615518Y-120594188D01*
X59495820Y-120630498D01*
X59385506Y-120689463D01*
X59288815Y-120768815D01*
X59209463Y-120865506D01*
X59150498Y-120975820D01*
X59114188Y-121095518D01*
X59101928Y-121220000D01*
X59101928Y-123720000D01*
X59105277Y-123754000D01*
X58979093Y-123754000D01*
X58956205Y-123698744D01*
X58842937Y-123529226D01*
X58698774Y-123385063D01*
X58529256Y-123271795D01*
X58340898Y-123193774D01*
X58140939Y-123154000D01*
X57937061Y-123154000D01*
X57737102Y-123193774D01*
X57548744Y-123271795D01*
X57379226Y-123385063D01*
X57235063Y-123529226D01*
X57121795Y-123698744D01*
X57043774Y-123887102D01*
X57039111Y-123910545D01*
X57039111Y-119571136D01*
X57140000Y-119581072D01*
X59640000Y-119581072D01*
X59764482Y-119568812D01*
X59884180Y-119532502D01*
X59892603Y-119528000D01*
X60106033Y-119528000D01*
X60111808Y-119529057D01*
G37*
%TD.AperFunction*%
D29*
X74953698Y-112947500D02*
X74891561Y-112947500D01*
X74691602Y-112987274D01*
X74503244Y-113065295D01*
X74333726Y-113178563D01*
X74189563Y-113322726D01*
X74076295Y-113492244D01*
X73998274Y-113680602D01*
X73958500Y-113880561D01*
X73958500Y-114084439D01*
X73998274Y-114284398D01*
X74076295Y-114472756D01*
X74189563Y-114642274D01*
X74333726Y-114786437D01*
X74350011Y-114797318D01*
X74350011Y-119790987D01*
X74283071Y-119790987D01*
X74083112Y-119830761D01*
X73894754Y-119908782D01*
X73725236Y-120022050D01*
X73681299Y-120065987D01*
X70221280Y-120065987D01*
X70221280Y-119983935D01*
X70181506Y-119783976D01*
X70103485Y-119595618D01*
X69990217Y-119426100D01*
X69848419Y-119284302D01*
X69854947Y-119277774D01*
X69968215Y-119108256D01*
X70046236Y-118919898D01*
X70086010Y-118719939D01*
X70086010Y-118516061D01*
X70046236Y-118316102D01*
X69968215Y-118127744D01*
X69854947Y-117958226D01*
X69719676Y-117822955D01*
X69747774Y-117804181D01*
X69891937Y-117660018D01*
X70005205Y-117490500D01*
X70083226Y-117302142D01*
X70123000Y-117102183D01*
X70123000Y-116898305D01*
X70083226Y-116698346D01*
X70005205Y-116509988D01*
X69891937Y-116340470D01*
X69841507Y-116290040D01*
X69838678Y-116261322D01*
X69982092Y-116117908D01*
X70095360Y-115948390D01*
X70173381Y-115760032D01*
X70213155Y-115560073D01*
X70213155Y-115356195D01*
X70173381Y-115156236D01*
X70095360Y-114967878D01*
X69982092Y-114798360D01*
X69890722Y-114706990D01*
X69891937Y-114705774D01*
X70005205Y-114536256D01*
X70083226Y-114347898D01*
X70123000Y-114147939D01*
X70123000Y-113944061D01*
X70083226Y-113744102D01*
X70034307Y-113626002D01*
X72205672Y-113626002D01*
X72242994Y-113629678D01*
X72280316Y-113626002D01*
X72280327Y-113626002D01*
X72391980Y-113615005D01*
X72535241Y-113571548D01*
X72667270Y-113500976D01*
X72782995Y-113406003D01*
X72806798Y-113377000D01*
X73690300Y-112493498D01*
X75407700Y-112493498D01*
X74953698Y-112947500D01*
%TA.AperFunction,Conductor*%
D30*
G36*
X74953698Y-112947500D02*
G01*
X74891561Y-112947500D01*
X74691602Y-112987274D01*
X74503244Y-113065295D01*
X74333726Y-113178563D01*
X74189563Y-113322726D01*
X74076295Y-113492244D01*
X73998274Y-113680602D01*
X73958500Y-113880561D01*
X73958500Y-114084439D01*
X73998274Y-114284398D01*
X74076295Y-114472756D01*
X74189563Y-114642274D01*
X74333726Y-114786437D01*
X74350011Y-114797318D01*
X74350011Y-119790987D01*
X74283071Y-119790987D01*
X74083112Y-119830761D01*
X73894754Y-119908782D01*
X73725236Y-120022050D01*
X73681299Y-120065987D01*
X70221280Y-120065987D01*
X70221280Y-119983935D01*
X70181506Y-119783976D01*
X70103485Y-119595618D01*
X69990217Y-119426100D01*
X69848419Y-119284302D01*
X69854947Y-119277774D01*
X69968215Y-119108256D01*
X70046236Y-118919898D01*
X70086010Y-118719939D01*
X70086010Y-118516061D01*
X70046236Y-118316102D01*
X69968215Y-118127744D01*
X69854947Y-117958226D01*
X69719676Y-117822955D01*
X69747774Y-117804181D01*
X69891937Y-117660018D01*
X70005205Y-117490500D01*
X70083226Y-117302142D01*
X70123000Y-117102183D01*
X70123000Y-116898305D01*
X70083226Y-116698346D01*
X70005205Y-116509988D01*
X69891937Y-116340470D01*
X69841507Y-116290040D01*
X69838678Y-116261322D01*
X69982092Y-116117908D01*
X70095360Y-115948390D01*
X70173381Y-115760032D01*
X70213155Y-115560073D01*
X70213155Y-115356195D01*
X70173381Y-115156236D01*
X70095360Y-114967878D01*
X69982092Y-114798360D01*
X69890722Y-114706990D01*
X69891937Y-114705774D01*
X70005205Y-114536256D01*
X70083226Y-114347898D01*
X70123000Y-114147939D01*
X70123000Y-113944061D01*
X70083226Y-113744102D01*
X70034307Y-113626002D01*
X72205672Y-113626002D01*
X72242994Y-113629678D01*
X72280316Y-113626002D01*
X72280327Y-113626002D01*
X72391980Y-113615005D01*
X72535241Y-113571548D01*
X72667270Y-113500976D01*
X72782995Y-113406003D01*
X72806798Y-113377000D01*
X73690300Y-112493498D01*
X75407700Y-112493498D01*
X74953698Y-112947500D01*
G37*
%TD.AperFunction*%
D29*
X61201928Y-107513000D02*
X61214188Y-107637482D01*
X61219654Y-107655500D01*
X61214188Y-107673518D01*
X61201928Y-107798000D01*
X61201928Y-108148000D01*
X61214188Y-108272482D01*
X61219654Y-108290500D01*
X61214188Y-108308518D01*
X61201928Y-108433000D01*
X61201928Y-108783000D01*
X61214188Y-108907482D01*
X61219654Y-108925500D01*
X61214188Y-108943518D01*
X61201928Y-109068000D01*
X61201928Y-109418000D01*
X61214188Y-109542482D01*
X61219654Y-109560500D01*
X61214188Y-109578518D01*
X61201928Y-109703000D01*
X61201928Y-110053000D01*
X61214188Y-110177482D01*
X61219654Y-110195500D01*
X61214188Y-110213518D01*
X61201928Y-110338000D01*
X61201928Y-110688000D01*
X61214188Y-110812482D01*
X61219654Y-110830500D01*
X61214188Y-110848518D01*
X61201928Y-110973000D01*
X61201928Y-111323000D01*
X61214188Y-111447482D01*
X61219654Y-111465500D01*
X61214188Y-111483518D01*
X61201928Y-111608000D01*
X61201928Y-111958000D01*
X61214188Y-112082482D01*
X61219654Y-112100500D01*
X61214188Y-112118518D01*
X61201928Y-112243000D01*
X61201928Y-112593000D01*
X61214188Y-112717482D01*
X61219654Y-112735500D01*
X61214188Y-112753518D01*
X61201928Y-112878000D01*
X61201928Y-113228000D01*
X61214188Y-113352482D01*
X61219654Y-113370500D01*
X61214188Y-113388518D01*
X61201928Y-113513000D01*
X61201928Y-113863000D01*
X61214188Y-113987482D01*
X61219654Y-114005500D01*
X61214188Y-114023518D01*
X61201928Y-114148000D01*
X61201928Y-114498000D01*
X61214188Y-114622482D01*
X61219654Y-114640500D01*
X61214188Y-114658518D01*
X61201928Y-114783000D01*
X61201928Y-115133000D01*
X61214188Y-115257482D01*
X61219654Y-115275500D01*
X61214188Y-115293518D01*
X61201928Y-115418000D01*
X61201928Y-115768000D01*
X61214188Y-115892482D01*
X61219654Y-115910500D01*
X61214188Y-115928518D01*
X61201928Y-116053000D01*
X61201928Y-116403000D01*
X61214188Y-116527482D01*
X61219654Y-116545500D01*
X61214188Y-116563518D01*
X61201928Y-116688000D01*
X61201928Y-117038000D01*
X61214188Y-117162482D01*
X61219654Y-117180500D01*
X61214188Y-117198518D01*
X61201928Y-117323000D01*
X61201928Y-117372778D01*
X61199678Y-117373000D01*
X60278072Y-117373000D01*
X60278072Y-117323000D01*
X60265812Y-117198518D01*
X60260346Y-117180500D01*
X60265812Y-117162482D01*
X60278072Y-117038000D01*
X60278072Y-116688000D01*
X60265812Y-116563518D01*
X60260346Y-116545500D01*
X60265812Y-116527482D01*
X60278072Y-116403000D01*
X60278072Y-116053000D01*
X60265812Y-115928518D01*
X60260346Y-115910500D01*
X60265812Y-115892482D01*
X60278072Y-115768000D01*
X60278072Y-115418000D01*
X60265812Y-115293518D01*
X60260346Y-115275500D01*
X60265812Y-115257482D01*
X60278072Y-115133000D01*
X60278072Y-114783000D01*
X60265812Y-114658518D01*
X60260346Y-114640500D01*
X60265812Y-114622482D01*
X60278072Y-114498000D01*
X60278072Y-114148000D01*
X60265812Y-114023518D01*
X60260346Y-114005500D01*
X60265812Y-113987482D01*
X60278072Y-113863000D01*
X60278072Y-113513000D01*
X60265812Y-113388518D01*
X60260346Y-113370500D01*
X60265812Y-113352482D01*
X60278072Y-113228000D01*
X60278072Y-112878000D01*
X60265812Y-112753518D01*
X60260346Y-112735500D01*
X60265812Y-112717482D01*
X60278072Y-112593000D01*
X60278072Y-112243000D01*
X60265812Y-112118518D01*
X60260346Y-112100500D01*
X60265812Y-112082482D01*
X60278072Y-111958000D01*
X60278072Y-111608000D01*
X60265812Y-111483518D01*
X60260346Y-111465500D01*
X60265812Y-111447482D01*
X60278072Y-111323000D01*
X60278072Y-110973000D01*
X60265812Y-110848518D01*
X60260346Y-110830500D01*
X60265812Y-110812482D01*
X60278072Y-110688000D01*
X60278072Y-110338000D01*
X60265812Y-110213518D01*
X60260346Y-110195500D01*
X60265812Y-110177482D01*
X60278072Y-110053000D01*
X60278072Y-109703000D01*
X60265812Y-109578518D01*
X60260346Y-109560500D01*
X60265812Y-109542482D01*
X60278072Y-109418000D01*
X60278072Y-109068000D01*
X60265812Y-108943518D01*
X60260346Y-108925500D01*
X60265812Y-108907482D01*
X60278072Y-108783000D01*
X60278072Y-108433000D01*
X60265812Y-108308518D01*
X60260346Y-108290500D01*
X60265812Y-108272482D01*
X60278072Y-108148000D01*
X60278072Y-107798000D01*
X60265812Y-107673518D01*
X60260346Y-107655500D01*
X60265812Y-107637482D01*
X60278072Y-107513000D01*
X60278072Y-107463000D01*
X61201928Y-107463000D01*
X61201928Y-107513000D01*
%TA.AperFunction,Conductor*%
D30*
G36*
X61201928Y-107513000D02*
G01*
X61214188Y-107637482D01*
X61219654Y-107655500D01*
X61214188Y-107673518D01*
X61201928Y-107798000D01*
X61201928Y-108148000D01*
X61214188Y-108272482D01*
X61219654Y-108290500D01*
X61214188Y-108308518D01*
X61201928Y-108433000D01*
X61201928Y-108783000D01*
X61214188Y-108907482D01*
X61219654Y-108925500D01*
X61214188Y-108943518D01*
X61201928Y-109068000D01*
X61201928Y-109418000D01*
X61214188Y-109542482D01*
X61219654Y-109560500D01*
X61214188Y-109578518D01*
X61201928Y-109703000D01*
X61201928Y-110053000D01*
X61214188Y-110177482D01*
X61219654Y-110195500D01*
X61214188Y-110213518D01*
X61201928Y-110338000D01*
X61201928Y-110688000D01*
X61214188Y-110812482D01*
X61219654Y-110830500D01*
X61214188Y-110848518D01*
X61201928Y-110973000D01*
X61201928Y-111323000D01*
X61214188Y-111447482D01*
X61219654Y-111465500D01*
X61214188Y-111483518D01*
X61201928Y-111608000D01*
X61201928Y-111958000D01*
X61214188Y-112082482D01*
X61219654Y-112100500D01*
X61214188Y-112118518D01*
X61201928Y-112243000D01*
X61201928Y-112593000D01*
X61214188Y-112717482D01*
X61219654Y-112735500D01*
X61214188Y-112753518D01*
X61201928Y-112878000D01*
X61201928Y-113228000D01*
X61214188Y-113352482D01*
X61219654Y-113370500D01*
X61214188Y-113388518D01*
X61201928Y-113513000D01*
X61201928Y-113863000D01*
X61214188Y-113987482D01*
X61219654Y-114005500D01*
X61214188Y-114023518D01*
X61201928Y-114148000D01*
X61201928Y-114498000D01*
X61214188Y-114622482D01*
X61219654Y-114640500D01*
X61214188Y-114658518D01*
X61201928Y-114783000D01*
X61201928Y-115133000D01*
X61214188Y-115257482D01*
X61219654Y-115275500D01*
X61214188Y-115293518D01*
X61201928Y-115418000D01*
X61201928Y-115768000D01*
X61214188Y-115892482D01*
X61219654Y-115910500D01*
X61214188Y-115928518D01*
X61201928Y-116053000D01*
X61201928Y-116403000D01*
X61214188Y-116527482D01*
X61219654Y-116545500D01*
X61214188Y-116563518D01*
X61201928Y-116688000D01*
X61201928Y-117038000D01*
X61214188Y-117162482D01*
X61219654Y-117180500D01*
X61214188Y-117198518D01*
X61201928Y-117323000D01*
X61201928Y-117372778D01*
X61199678Y-117373000D01*
X60278072Y-117373000D01*
X60278072Y-117323000D01*
X60265812Y-117198518D01*
X60260346Y-117180500D01*
X60265812Y-117162482D01*
X60278072Y-117038000D01*
X60278072Y-116688000D01*
X60265812Y-116563518D01*
X60260346Y-116545500D01*
X60265812Y-116527482D01*
X60278072Y-116403000D01*
X60278072Y-116053000D01*
X60265812Y-115928518D01*
X60260346Y-115910500D01*
X60265812Y-115892482D01*
X60278072Y-115768000D01*
X60278072Y-115418000D01*
X60265812Y-115293518D01*
X60260346Y-115275500D01*
X60265812Y-115257482D01*
X60278072Y-115133000D01*
X60278072Y-114783000D01*
X60265812Y-114658518D01*
X60260346Y-114640500D01*
X60265812Y-114622482D01*
X60278072Y-114498000D01*
X60278072Y-114148000D01*
X60265812Y-114023518D01*
X60260346Y-114005500D01*
X60265812Y-113987482D01*
X60278072Y-113863000D01*
X60278072Y-113513000D01*
X60265812Y-113388518D01*
X60260346Y-113370500D01*
X60265812Y-113352482D01*
X60278072Y-113228000D01*
X60278072Y-112878000D01*
X60265812Y-112753518D01*
X60260346Y-112735500D01*
X60265812Y-112717482D01*
X60278072Y-112593000D01*
X60278072Y-112243000D01*
X60265812Y-112118518D01*
X60260346Y-112100500D01*
X60265812Y-112082482D01*
X60278072Y-111958000D01*
X60278072Y-111608000D01*
X60265812Y-111483518D01*
X60260346Y-111465500D01*
X60265812Y-111447482D01*
X60278072Y-111323000D01*
X60278072Y-110973000D01*
X60265812Y-110848518D01*
X60260346Y-110830500D01*
X60265812Y-110812482D01*
X60278072Y-110688000D01*
X60278072Y-110338000D01*
X60265812Y-110213518D01*
X60260346Y-110195500D01*
X60265812Y-110177482D01*
X60278072Y-110053000D01*
X60278072Y-109703000D01*
X60265812Y-109578518D01*
X60260346Y-109560500D01*
X60265812Y-109542482D01*
X60278072Y-109418000D01*
X60278072Y-109068000D01*
X60265812Y-108943518D01*
X60260346Y-108925500D01*
X60265812Y-108907482D01*
X60278072Y-108783000D01*
X60278072Y-108433000D01*
X60265812Y-108308518D01*
X60260346Y-108290500D01*
X60265812Y-108272482D01*
X60278072Y-108148000D01*
X60278072Y-107798000D01*
X60265812Y-107673518D01*
X60260346Y-107655500D01*
X60265812Y-107637482D01*
X60278072Y-107513000D01*
X60278072Y-107463000D01*
X61201928Y-107463000D01*
X61201928Y-107513000D01*
G37*
%TD.AperFunction*%
%TD*%
M02*
