%TF.GenerationSoftware,KiCad,Pcbnew,5.1.10-88a1d61d58~89~ubuntu20.04.1*%
%TF.CreationDate,2021-10-06T22:40:21-05:00*%
%TF.ProjectId,serial_rewind_d2,73657269-616c-45f7-9265-77696e645f64,rev?*%
%TF.SameCoordinates,Original*%
%TF.FileFunction,Legend,Top*%
%TF.FilePolarity,Positive*%
%FSLAX46Y46*%
G04 Gerber Fmt 4.6, Leading zero omitted, Abs format (unit mm)*
G04 Created by KiCad (PCBNEW 5.1.10-88a1d61d58~89~ubuntu20.04.1) date 2021-10-06 22:40:21*
%MOMM*%
%LPD*%
G01*
G04 APERTURE LIST*
%ADD10C,0.150000*%
%ADD11C,0.300000*%
%ADD12C,0.250000*%
%ADD13C,0.120000*%
%ADD14C,0.010000*%
%ADD15C,0.127000*%
%ADD16C,0.065024*%
G04 APERTURE END LIST*
D10*
X83885738Y-107529380D02*
X84457166Y-107529380D01*
X84171452Y-108529380D02*
X84171452Y-107529380D01*
X84695261Y-107529380D02*
X85361928Y-108529380D01*
X85361928Y-107529380D02*
X84695261Y-108529380D01*
X85742880Y-108529380D02*
X85742880Y-107529380D01*
X85980976Y-107529380D01*
X86123833Y-107577000D01*
X86219071Y-107672238D01*
X86266690Y-107767476D01*
X86314309Y-107957952D01*
X86314309Y-108100809D01*
X86266690Y-108291285D01*
X86219071Y-108386523D01*
X86123833Y-108481761D01*
X85980976Y-108529380D01*
X85742880Y-108529380D01*
X84473023Y-106751380D02*
X84139690Y-106275190D01*
X83901595Y-106751380D02*
X83901595Y-105751380D01*
X84282547Y-105751380D01*
X84377785Y-105799000D01*
X84425404Y-105846619D01*
X84473023Y-105941857D01*
X84473023Y-106084714D01*
X84425404Y-106179952D01*
X84377785Y-106227571D01*
X84282547Y-106275190D01*
X83901595Y-106275190D01*
X84806357Y-105751380D02*
X85473023Y-106751380D01*
X85473023Y-105751380D02*
X84806357Y-106751380D01*
X85853976Y-106751380D02*
X85853976Y-105751380D01*
X86092071Y-105751380D01*
X86234928Y-105799000D01*
X86330166Y-105894238D01*
X86377785Y-105989476D01*
X86425404Y-106179952D01*
X86425404Y-106322809D01*
X86377785Y-106513285D01*
X86330166Y-106608523D01*
X86234928Y-106703761D01*
X86092071Y-106751380D01*
X85853976Y-106751380D01*
X77343761Y-117435261D02*
X77486619Y-117482880D01*
X77724714Y-117482880D01*
X77819952Y-117435261D01*
X77867571Y-117387642D01*
X77915190Y-117292404D01*
X77915190Y-117197166D01*
X77867571Y-117101928D01*
X77819952Y-117054309D01*
X77724714Y-117006690D01*
X77534238Y-116959071D01*
X77439000Y-116911452D01*
X77391380Y-116863833D01*
X77343761Y-116768595D01*
X77343761Y-116673357D01*
X77391380Y-116578119D01*
X77439000Y-116530500D01*
X77534238Y-116482880D01*
X77772333Y-116482880D01*
X77915190Y-116530500D01*
X78343761Y-117482880D02*
X78343761Y-116482880D01*
X78915190Y-117482880D01*
X78915190Y-116482880D01*
X79296142Y-116482880D02*
X79962809Y-116482880D01*
X79534238Y-117482880D01*
X80819952Y-116482880D02*
X80343761Y-116482880D01*
X80296142Y-116959071D01*
X80343761Y-116911452D01*
X80439000Y-116863833D01*
X80677095Y-116863833D01*
X80772333Y-116911452D01*
X80819952Y-116959071D01*
X80867571Y-117054309D01*
X80867571Y-117292404D01*
X80819952Y-117387642D01*
X80772333Y-117435261D01*
X80677095Y-117482880D01*
X80439000Y-117482880D01*
X80343761Y-117435261D01*
X80296142Y-117387642D01*
X81772333Y-117482880D02*
X81296142Y-117482880D01*
X81296142Y-116482880D01*
X82439000Y-116959071D02*
X82581857Y-117006690D01*
X82629476Y-117054309D01*
X82677095Y-117149547D01*
X82677095Y-117292404D01*
X82629476Y-117387642D01*
X82581857Y-117435261D01*
X82486619Y-117482880D01*
X82105666Y-117482880D01*
X82105666Y-116482880D01*
X82439000Y-116482880D01*
X82534238Y-116530500D01*
X82581857Y-116578119D01*
X82629476Y-116673357D01*
X82629476Y-116768595D01*
X82581857Y-116863833D01*
X82534238Y-116911452D01*
X82439000Y-116959071D01*
X82105666Y-116959071D01*
X83677095Y-117387642D02*
X83629476Y-117435261D01*
X83486619Y-117482880D01*
X83391380Y-117482880D01*
X83248523Y-117435261D01*
X83153285Y-117340023D01*
X83105666Y-117244785D01*
X83058047Y-117054309D01*
X83058047Y-116911452D01*
X83105666Y-116720976D01*
X83153285Y-116625738D01*
X83248523Y-116530500D01*
X83391380Y-116482880D01*
X83486619Y-116482880D01*
X83629476Y-116530500D01*
X83677095Y-116578119D01*
X84010428Y-116482880D02*
X84677095Y-116482880D01*
X84248523Y-117482880D01*
X84962809Y-116482880D02*
X85629476Y-116482880D01*
X85200904Y-117482880D01*
X86439000Y-116482880D02*
X86248523Y-116482880D01*
X86153285Y-116530500D01*
X86105666Y-116578119D01*
X86010428Y-116720976D01*
X85962809Y-116911452D01*
X85962809Y-117292404D01*
X86010428Y-117387642D01*
X86058047Y-117435261D01*
X86153285Y-117482880D01*
X86343761Y-117482880D01*
X86439000Y-117435261D01*
X86486619Y-117387642D01*
X86534238Y-117292404D01*
X86534238Y-117054309D01*
X86486619Y-116959071D01*
X86439000Y-116911452D01*
X86343761Y-116863833D01*
X86153285Y-116863833D01*
X86058047Y-116911452D01*
X86010428Y-116959071D01*
X85962809Y-117054309D01*
X86962809Y-117482880D02*
X86962809Y-116482880D01*
X87200904Y-116482880D01*
X87343761Y-116530500D01*
X87439000Y-116625738D01*
X87486619Y-116720976D01*
X87534238Y-116911452D01*
X87534238Y-117054309D01*
X87486619Y-117244785D01*
X87439000Y-117340023D01*
X87343761Y-117435261D01*
X87200904Y-117482880D01*
X86962809Y-117482880D01*
X88296142Y-116959071D02*
X88439000Y-117006690D01*
X88486619Y-117054309D01*
X88534238Y-117149547D01*
X88534238Y-117292404D01*
X88486619Y-117387642D01*
X88439000Y-117435261D01*
X88343761Y-117482880D01*
X87962809Y-117482880D01*
X87962809Y-116482880D01*
X88296142Y-116482880D01*
X88391380Y-116530500D01*
X88439000Y-116578119D01*
X88486619Y-116673357D01*
X88486619Y-116768595D01*
X88439000Y-116863833D01*
X88391380Y-116911452D01*
X88296142Y-116959071D01*
X87962809Y-116959071D01*
X89534238Y-117482880D02*
X89200904Y-117006690D01*
X88962809Y-117482880D02*
X88962809Y-116482880D01*
X89343761Y-116482880D01*
X89439000Y-116530500D01*
X89486619Y-116578119D01*
X89534238Y-116673357D01*
X89534238Y-116816214D01*
X89486619Y-116911452D01*
X89439000Y-116959071D01*
X89343761Y-117006690D01*
X88962809Y-117006690D01*
X76350761Y-123268666D02*
X76398380Y-123125809D01*
X76398380Y-122887714D01*
X76350761Y-122792476D01*
X76303142Y-122744857D01*
X76207904Y-122697238D01*
X76112666Y-122697238D01*
X76017428Y-122744857D01*
X75969809Y-122792476D01*
X75922190Y-122887714D01*
X75874571Y-123078190D01*
X75826952Y-123173428D01*
X75779333Y-123221047D01*
X75684095Y-123268666D01*
X75588857Y-123268666D01*
X75493619Y-123221047D01*
X75446000Y-123173428D01*
X75398380Y-123078190D01*
X75398380Y-122840095D01*
X75446000Y-122697238D01*
X76398380Y-122268666D02*
X75398380Y-122268666D01*
X76398380Y-121697238D01*
X75398380Y-121697238D01*
X75398380Y-121316285D02*
X75398380Y-120649619D01*
X76398380Y-121078190D01*
X75398380Y-119792476D02*
X75398380Y-120268666D01*
X75874571Y-120316285D01*
X75826952Y-120268666D01*
X75779333Y-120173428D01*
X75779333Y-119935333D01*
X75826952Y-119840095D01*
X75874571Y-119792476D01*
X75969809Y-119744857D01*
X76207904Y-119744857D01*
X76303142Y-119792476D01*
X76350761Y-119840095D01*
X76398380Y-119935333D01*
X76398380Y-120173428D01*
X76350761Y-120268666D01*
X76303142Y-120316285D01*
X76398380Y-118840095D02*
X76398380Y-119316285D01*
X75398380Y-119316285D01*
X75874571Y-118173428D02*
X75922190Y-118030571D01*
X75969809Y-117982952D01*
X76065047Y-117935333D01*
X76207904Y-117935333D01*
X76303142Y-117982952D01*
X76350761Y-118030571D01*
X76398380Y-118125809D01*
X76398380Y-118506761D01*
X75398380Y-118506761D01*
X75398380Y-118173428D01*
X75446000Y-118078190D01*
X75493619Y-118030571D01*
X75588857Y-117982952D01*
X75684095Y-117982952D01*
X75779333Y-118030571D01*
X75826952Y-118078190D01*
X75874571Y-118173428D01*
X75874571Y-118506761D01*
X76303142Y-116935333D02*
X76350761Y-116982952D01*
X76398380Y-117125809D01*
X76398380Y-117221047D01*
X76350761Y-117363904D01*
X76255523Y-117459142D01*
X76160285Y-117506761D01*
X75969809Y-117554380D01*
X75826952Y-117554380D01*
X75636476Y-117506761D01*
X75541238Y-117459142D01*
X75446000Y-117363904D01*
X75398380Y-117221047D01*
X75398380Y-117125809D01*
X75446000Y-116982952D01*
X75493619Y-116935333D01*
X75398380Y-116602000D02*
X75398380Y-115935333D01*
X76398380Y-116363904D01*
X75398380Y-115649619D02*
X75398380Y-114982952D01*
X76398380Y-115411523D01*
X76398380Y-114078190D02*
X76398380Y-114649619D01*
X76398380Y-114363904D02*
X75398380Y-114363904D01*
X75541238Y-114459142D01*
X75636476Y-114554380D01*
X75684095Y-114649619D01*
X76398380Y-113649619D02*
X75398380Y-113649619D01*
X75398380Y-113411523D01*
X75446000Y-113268666D01*
X75541238Y-113173428D01*
X75636476Y-113125809D01*
X75826952Y-113078190D01*
X75969809Y-113078190D01*
X76160285Y-113125809D01*
X76255523Y-113173428D01*
X76350761Y-113268666D01*
X76398380Y-113411523D01*
X76398380Y-113649619D01*
X75398380Y-112744857D02*
X76398380Y-112506761D01*
X75684095Y-112316285D01*
X76398380Y-112125809D01*
X75398380Y-111887714D01*
X95234285Y-125293428D02*
X95996190Y-125293428D01*
X96948571Y-124674380D02*
X96472380Y-124674380D01*
X96424761Y-125150571D01*
X96472380Y-125102952D01*
X96567619Y-125055333D01*
X96805714Y-125055333D01*
X96900952Y-125102952D01*
X96948571Y-125150571D01*
X96996190Y-125245809D01*
X96996190Y-125483904D01*
X96948571Y-125579142D01*
X96900952Y-125626761D01*
X96805714Y-125674380D01*
X96567619Y-125674380D01*
X96472380Y-125626761D01*
X96424761Y-125579142D01*
X97281904Y-124674380D02*
X97615238Y-125674380D01*
X97948571Y-124674380D01*
X69580285Y-101163428D02*
X70342190Y-101163428D01*
X69961238Y-101544380D02*
X69961238Y-100782476D01*
X71294571Y-100544380D02*
X70818380Y-100544380D01*
X70770761Y-101020571D01*
X70818380Y-100972952D01*
X70913619Y-100925333D01*
X71151714Y-100925333D01*
X71246952Y-100972952D01*
X71294571Y-101020571D01*
X71342190Y-101115809D01*
X71342190Y-101353904D01*
X71294571Y-101449142D01*
X71246952Y-101496761D01*
X71151714Y-101544380D01*
X70913619Y-101544380D01*
X70818380Y-101496761D01*
X70770761Y-101449142D01*
X71627904Y-100544380D02*
X71961238Y-101544380D01*
X72294571Y-100544380D01*
X62654571Y-130594285D02*
X61868857Y-130594285D01*
X61726000Y-130665714D01*
X61654571Y-130808571D01*
X61654571Y-131094285D01*
X61726000Y-131237142D01*
X62583142Y-130594285D02*
X62654571Y-130737142D01*
X62654571Y-131094285D01*
X62583142Y-131237142D01*
X62440285Y-131308571D01*
X62297428Y-131308571D01*
X62154571Y-131237142D01*
X62083142Y-131094285D01*
X62083142Y-130737142D01*
X62011714Y-130594285D01*
X62654571Y-129880000D02*
X61654571Y-129880000D01*
X61940285Y-129880000D02*
X61797428Y-129808571D01*
X61726000Y-129737142D01*
X61654571Y-129594285D01*
X61654571Y-129451428D01*
X62654571Y-128951428D02*
X61654571Y-128951428D01*
X61940285Y-128951428D02*
X61797428Y-128880000D01*
X61726000Y-128808571D01*
X61654571Y-128665714D01*
X61654571Y-128522857D01*
X62583142Y-127451428D02*
X62654571Y-127594285D01*
X62654571Y-127880000D01*
X62583142Y-128022857D01*
X62440285Y-128094285D01*
X61868857Y-128094285D01*
X61726000Y-128022857D01*
X61654571Y-127880000D01*
X61654571Y-127594285D01*
X61726000Y-127451428D01*
X61868857Y-127380000D01*
X62011714Y-127380000D01*
X62154571Y-128094285D01*
X62583142Y-126808571D02*
X62654571Y-126665714D01*
X62654571Y-126380000D01*
X62583142Y-126237142D01*
X62440285Y-126165714D01*
X62368857Y-126165714D01*
X62226000Y-126237142D01*
X62154571Y-126380000D01*
X62154571Y-126594285D01*
X62083142Y-126737142D01*
X61940285Y-126808571D01*
X61868857Y-126808571D01*
X61726000Y-126737142D01*
X61654571Y-126594285D01*
X61654571Y-126380000D01*
X61726000Y-126237142D01*
X61654571Y-125737142D02*
X61654571Y-125165714D01*
X61154571Y-125522857D02*
X62440285Y-125522857D01*
X62583142Y-125451428D01*
X62654571Y-125308571D01*
X62654571Y-125165714D01*
X62583142Y-124094285D02*
X62654571Y-124237142D01*
X62654571Y-124522857D01*
X62583142Y-124665714D01*
X62440285Y-124737142D01*
X61868857Y-124737142D01*
X61726000Y-124665714D01*
X61654571Y-124522857D01*
X61654571Y-124237142D01*
X61726000Y-124094285D01*
X61868857Y-124022857D01*
X62011714Y-124022857D01*
X62154571Y-124737142D01*
X62654571Y-122737142D02*
X61154571Y-122737142D01*
X62583142Y-122737142D02*
X62654571Y-122880000D01*
X62654571Y-123165714D01*
X62583142Y-123308571D01*
X62511714Y-123380000D01*
X62368857Y-123451428D01*
X61940285Y-123451428D01*
X61797428Y-123380000D01*
X61726000Y-123308571D01*
X61654571Y-123165714D01*
X61654571Y-122880000D01*
X61726000Y-122737142D01*
X62654571Y-121808571D02*
X62583142Y-121951428D01*
X62440285Y-122022857D01*
X61154571Y-122022857D01*
X62654571Y-121237142D02*
X61654571Y-121237142D01*
X61154571Y-121237142D02*
X61226000Y-121308571D01*
X61297428Y-121237142D01*
X61226000Y-121165714D01*
X61154571Y-121237142D01*
X61297428Y-121237142D01*
X61654571Y-119880000D02*
X62868857Y-119880000D01*
X63011714Y-119951428D01*
X63083142Y-120022857D01*
X63154571Y-120165714D01*
X63154571Y-120380000D01*
X63083142Y-120522857D01*
X62583142Y-119880000D02*
X62654571Y-120022857D01*
X62654571Y-120308571D01*
X62583142Y-120451428D01*
X62511714Y-120522857D01*
X62368857Y-120594285D01*
X61940285Y-120594285D01*
X61797428Y-120522857D01*
X61726000Y-120451428D01*
X61654571Y-120308571D01*
X61654571Y-120022857D01*
X61726000Y-119880000D01*
X62654571Y-119165714D02*
X61154571Y-119165714D01*
X62654571Y-118522857D02*
X61868857Y-118522857D01*
X61726000Y-118594285D01*
X61654571Y-118737142D01*
X61654571Y-118951428D01*
X61726000Y-119094285D01*
X61797428Y-119165714D01*
X61654571Y-118022857D02*
X61654571Y-117451428D01*
X61154571Y-117808571D02*
X62440285Y-117808571D01*
X62583142Y-117737142D01*
X62654571Y-117594285D01*
X62654571Y-117451428D01*
X61654571Y-116951428D02*
X62654571Y-116951428D01*
X61797428Y-116951428D02*
X61726000Y-116880000D01*
X61654571Y-116737142D01*
X61654571Y-116522857D01*
X61726000Y-116380000D01*
X61868857Y-116308571D01*
X62654571Y-116308571D01*
X62654571Y-115594285D02*
X61654571Y-115594285D01*
X61154571Y-115594285D02*
X61226000Y-115665714D01*
X61297428Y-115594285D01*
X61226000Y-115522857D01*
X61154571Y-115594285D01*
X61297428Y-115594285D01*
X61654571Y-114880000D02*
X62654571Y-114880000D01*
X61797428Y-114880000D02*
X61726000Y-114808571D01*
X61654571Y-114665714D01*
X61654571Y-114451428D01*
X61726000Y-114308571D01*
X61868857Y-114237142D01*
X62654571Y-114237142D01*
X61654571Y-112880000D02*
X62868857Y-112880000D01*
X63011714Y-112951428D01*
X63083142Y-113022857D01*
X63154571Y-113165714D01*
X63154571Y-113380000D01*
X63083142Y-113522857D01*
X62583142Y-112880000D02*
X62654571Y-113022857D01*
X62654571Y-113308571D01*
X62583142Y-113451428D01*
X62511714Y-113522857D01*
X62368857Y-113594285D01*
X61940285Y-113594285D01*
X61797428Y-113522857D01*
X61726000Y-113451428D01*
X61654571Y-113308571D01*
X61654571Y-113022857D01*
X61726000Y-112880000D01*
X62511714Y-112165714D02*
X62583142Y-112094285D01*
X62654571Y-112165714D01*
X62583142Y-112237142D01*
X62511714Y-112165714D01*
X62654571Y-112165714D01*
X62583142Y-110808571D02*
X62654571Y-110951428D01*
X62654571Y-111237142D01*
X62583142Y-111380000D01*
X62511714Y-111451428D01*
X62368857Y-111522857D01*
X61940285Y-111522857D01*
X61797428Y-111451428D01*
X61726000Y-111380000D01*
X61654571Y-111237142D01*
X61654571Y-110951428D01*
X61726000Y-110808571D01*
X62654571Y-109951428D02*
X62583142Y-110094285D01*
X62511714Y-110165714D01*
X62368857Y-110237142D01*
X61940285Y-110237142D01*
X61797428Y-110165714D01*
X61726000Y-110094285D01*
X61654571Y-109951428D01*
X61654571Y-109737142D01*
X61726000Y-109594285D01*
X61797428Y-109522857D01*
X61940285Y-109451428D01*
X62368857Y-109451428D01*
X62511714Y-109522857D01*
X62583142Y-109594285D01*
X62654571Y-109737142D01*
X62654571Y-109951428D01*
X62654571Y-108808571D02*
X61654571Y-108808571D01*
X61797428Y-108808571D02*
X61726000Y-108737142D01*
X61654571Y-108594285D01*
X61654571Y-108380000D01*
X61726000Y-108237142D01*
X61868857Y-108165714D01*
X62654571Y-108165714D01*
X61868857Y-108165714D02*
X61726000Y-108094285D01*
X61654571Y-107951428D01*
X61654571Y-107737142D01*
X61726000Y-107594285D01*
X61868857Y-107522857D01*
X62654571Y-107522857D01*
X100854285Y-151439619D02*
X100901904Y-151392000D01*
X100997142Y-151344380D01*
X101235238Y-151344380D01*
X101330476Y-151392000D01*
X101378095Y-151439619D01*
X101425714Y-151534857D01*
X101425714Y-151630095D01*
X101378095Y-151772952D01*
X100806666Y-152344380D01*
X101425714Y-152344380D01*
X102044761Y-151344380D02*
X102140000Y-151344380D01*
X102235238Y-151392000D01*
X102282857Y-151439619D01*
X102330476Y-151534857D01*
X102378095Y-151725333D01*
X102378095Y-151963428D01*
X102330476Y-152153904D01*
X102282857Y-152249142D01*
X102235238Y-152296761D01*
X102140000Y-152344380D01*
X102044761Y-152344380D01*
X101949523Y-152296761D01*
X101901904Y-152249142D01*
X101854285Y-152153904D01*
X101806666Y-151963428D01*
X101806666Y-151725333D01*
X101854285Y-151534857D01*
X101901904Y-151439619D01*
X101949523Y-151392000D01*
X102044761Y-151344380D01*
X102759047Y-151439619D02*
X102806666Y-151392000D01*
X102901904Y-151344380D01*
X103140000Y-151344380D01*
X103235238Y-151392000D01*
X103282857Y-151439619D01*
X103330476Y-151534857D01*
X103330476Y-151630095D01*
X103282857Y-151772952D01*
X102711428Y-152344380D01*
X103330476Y-152344380D01*
X104282857Y-152344380D02*
X103711428Y-152344380D01*
X103997142Y-152344380D02*
X103997142Y-151344380D01*
X103901904Y-151487238D01*
X103806666Y-151582476D01*
X103711428Y-151630095D01*
X104711428Y-151963428D02*
X105473333Y-151963428D01*
X106473333Y-152344380D02*
X105901904Y-152344380D01*
X106187619Y-152344380D02*
X106187619Y-151344380D01*
X106092380Y-151487238D01*
X105997142Y-151582476D01*
X105901904Y-151630095D01*
X107092380Y-151344380D02*
X107187619Y-151344380D01*
X107282857Y-151392000D01*
X107330476Y-151439619D01*
X107378095Y-151534857D01*
X107425714Y-151725333D01*
X107425714Y-151963428D01*
X107378095Y-152153904D01*
X107330476Y-152249142D01*
X107282857Y-152296761D01*
X107187619Y-152344380D01*
X107092380Y-152344380D01*
X106997142Y-152296761D01*
X106949523Y-152249142D01*
X106901904Y-152153904D01*
X106854285Y-151963428D01*
X106854285Y-151725333D01*
X106901904Y-151534857D01*
X106949523Y-151439619D01*
X106997142Y-151392000D01*
X107092380Y-151344380D01*
D11*
X115141690Y-101520761D02*
X115141690Y-103139809D01*
X115236928Y-103330285D01*
X115332166Y-103425523D01*
X115522642Y-103520761D01*
X115903595Y-103520761D01*
X116094071Y-103425523D01*
X116189309Y-103330285D01*
X116284547Y-103139809D01*
X116284547Y-101520761D01*
X117141690Y-103425523D02*
X117427404Y-103520761D01*
X117903595Y-103520761D01*
X118094071Y-103425523D01*
X118189309Y-103330285D01*
X118284547Y-103139809D01*
X118284547Y-102949333D01*
X118189309Y-102758857D01*
X118094071Y-102663619D01*
X117903595Y-102568380D01*
X117522642Y-102473142D01*
X117332166Y-102377904D01*
X117236928Y-102282666D01*
X117141690Y-102092190D01*
X117141690Y-101901714D01*
X117236928Y-101711238D01*
X117332166Y-101616000D01*
X117522642Y-101520761D01*
X117998833Y-101520761D01*
X118284547Y-101616000D01*
X119808357Y-102473142D02*
X120094071Y-102568380D01*
X120189309Y-102663619D01*
X120284547Y-102854095D01*
X120284547Y-103139809D01*
X120189309Y-103330285D01*
X120094071Y-103425523D01*
X119903595Y-103520761D01*
X119141690Y-103520761D01*
X119141690Y-101520761D01*
X119808357Y-101520761D01*
X119998833Y-101616000D01*
X120094071Y-101711238D01*
X120189309Y-101901714D01*
X120189309Y-102092190D01*
X120094071Y-102282666D01*
X119998833Y-102377904D01*
X119808357Y-102473142D01*
X119141690Y-102473142D01*
D12*
X88573214Y-145427142D02*
X88787500Y-145498571D01*
X89144642Y-145498571D01*
X89287500Y-145427142D01*
X89358928Y-145355714D01*
X89430357Y-145212857D01*
X89430357Y-145070000D01*
X89358928Y-144927142D01*
X89287500Y-144855714D01*
X89144642Y-144784285D01*
X88858928Y-144712857D01*
X88716071Y-144641428D01*
X88644642Y-144570000D01*
X88573214Y-144427142D01*
X88573214Y-144284285D01*
X88644642Y-144141428D01*
X88716071Y-144070000D01*
X88858928Y-143998571D01*
X89216071Y-143998571D01*
X89430357Y-144070000D01*
X90644642Y-145427142D02*
X90501785Y-145498571D01*
X90216071Y-145498571D01*
X90073214Y-145427142D01*
X90001785Y-145284285D01*
X90001785Y-144712857D01*
X90073214Y-144570000D01*
X90216071Y-144498571D01*
X90501785Y-144498571D01*
X90644642Y-144570000D01*
X90716071Y-144712857D01*
X90716071Y-144855714D01*
X90001785Y-144998571D01*
X91358928Y-145498571D02*
X91358928Y-144498571D01*
X91358928Y-144784285D02*
X91430357Y-144641428D01*
X91501785Y-144570000D01*
X91644642Y-144498571D01*
X91787500Y-144498571D01*
X92287500Y-145498571D02*
X92287500Y-144498571D01*
X92287500Y-143998571D02*
X92216071Y-144070000D01*
X92287500Y-144141428D01*
X92358928Y-144070000D01*
X92287500Y-143998571D01*
X92287500Y-144141428D01*
X93644642Y-145498571D02*
X93644642Y-144712857D01*
X93573214Y-144570000D01*
X93430357Y-144498571D01*
X93144642Y-144498571D01*
X93001785Y-144570000D01*
X93644642Y-145427142D02*
X93501785Y-145498571D01*
X93144642Y-145498571D01*
X93001785Y-145427142D01*
X92930357Y-145284285D01*
X92930357Y-145141428D01*
X93001785Y-144998571D01*
X93144642Y-144927142D01*
X93501785Y-144927142D01*
X93644642Y-144855714D01*
X94573214Y-145498571D02*
X94430357Y-145427142D01*
X94358928Y-145284285D01*
X94358928Y-143998571D01*
X97144642Y-145498571D02*
X96644642Y-144784285D01*
X96287500Y-145498571D02*
X96287500Y-143998571D01*
X96858928Y-143998571D01*
X97001785Y-144070000D01*
X97073214Y-144141428D01*
X97144642Y-144284285D01*
X97144642Y-144498571D01*
X97073214Y-144641428D01*
X97001785Y-144712857D01*
X96858928Y-144784285D01*
X96287500Y-144784285D01*
X98358928Y-145427142D02*
X98216071Y-145498571D01*
X97930357Y-145498571D01*
X97787500Y-145427142D01*
X97716071Y-145284285D01*
X97716071Y-144712857D01*
X97787500Y-144570000D01*
X97930357Y-144498571D01*
X98216071Y-144498571D01*
X98358928Y-144570000D01*
X98430357Y-144712857D01*
X98430357Y-144855714D01*
X97716071Y-144998571D01*
X98930357Y-144498571D02*
X99216071Y-145498571D01*
X99501785Y-144784285D01*
X99787500Y-145498571D01*
X100073214Y-144498571D01*
X100644642Y-145498571D02*
X100644642Y-144498571D01*
X100644642Y-143998571D02*
X100573214Y-144070000D01*
X100644642Y-144141428D01*
X100716071Y-144070000D01*
X100644642Y-143998571D01*
X100644642Y-144141428D01*
X101358928Y-144498571D02*
X101358928Y-145498571D01*
X101358928Y-144641428D02*
X101430357Y-144570000D01*
X101573214Y-144498571D01*
X101787500Y-144498571D01*
X101930357Y-144570000D01*
X102001785Y-144712857D01*
X102001785Y-145498571D01*
X103358928Y-145498571D02*
X103358928Y-143998571D01*
X103358928Y-145427142D02*
X103216071Y-145498571D01*
X102930357Y-145498571D01*
X102787500Y-145427142D01*
X102716071Y-145355714D01*
X102644642Y-145212857D01*
X102644642Y-144784285D01*
X102716071Y-144641428D01*
X102787500Y-144570000D01*
X102930357Y-144498571D01*
X103216071Y-144498571D01*
X103358928Y-144570000D01*
X105216071Y-145498571D02*
X105216071Y-143998571D01*
X105573214Y-143998571D01*
X105787500Y-144070000D01*
X105930357Y-144212857D01*
X106001785Y-144355714D01*
X106073214Y-144641428D01*
X106073214Y-144855714D01*
X106001785Y-145141428D01*
X105930357Y-145284285D01*
X105787500Y-145427142D01*
X105573214Y-145498571D01*
X105216071Y-145498571D01*
X106644642Y-144141428D02*
X106716071Y-144070000D01*
X106858928Y-143998571D01*
X107216071Y-143998571D01*
X107358928Y-144070000D01*
X107430357Y-144141428D01*
X107501785Y-144284285D01*
X107501785Y-144427142D01*
X107430357Y-144641428D01*
X106573214Y-145498571D01*
X107501785Y-145498571D01*
X99858928Y-147570000D02*
X100573214Y-147570000D01*
X99716071Y-147998571D02*
X100216071Y-146498571D01*
X100716071Y-147998571D01*
X101930357Y-147998571D02*
X101216071Y-147998571D01*
X101216071Y-146498571D01*
X103216071Y-147998571D02*
X102358928Y-147998571D01*
X102787500Y-147998571D02*
X102787500Y-146498571D01*
X102644642Y-146712857D01*
X102501785Y-146855714D01*
X102358928Y-146927142D01*
X104144642Y-146498571D02*
X104287500Y-146498571D01*
X104430357Y-146570000D01*
X104501785Y-146641428D01*
X104573214Y-146784285D01*
X104644642Y-147070000D01*
X104644642Y-147427142D01*
X104573214Y-147712857D01*
X104501785Y-147855714D01*
X104430357Y-147927142D01*
X104287500Y-147998571D01*
X104144642Y-147998571D01*
X104001785Y-147927142D01*
X103930357Y-147855714D01*
X103858928Y-147712857D01*
X103787500Y-147427142D01*
X103787500Y-147070000D01*
X103858928Y-146784285D01*
X103930357Y-146641428D01*
X104001785Y-146570000D01*
X104144642Y-146498571D01*
X106073214Y-147998571D02*
X105216071Y-147998571D01*
X105644642Y-147998571D02*
X105644642Y-146498571D01*
X105501785Y-146712857D01*
X105358928Y-146855714D01*
X105216071Y-146927142D01*
X106573214Y-146498571D02*
X107573214Y-146498571D01*
X106930357Y-147998571D01*
X103216071Y-150498571D02*
X102716071Y-149784285D01*
X102358928Y-150498571D02*
X102358928Y-148998571D01*
X102930357Y-148998571D01*
X103073214Y-149070000D01*
X103144642Y-149141428D01*
X103216071Y-149284285D01*
X103216071Y-149498571D01*
X103144642Y-149641428D01*
X103073214Y-149712857D01*
X102930357Y-149784285D01*
X102358928Y-149784285D01*
X104430357Y-150427142D02*
X104287500Y-150498571D01*
X104001785Y-150498571D01*
X103858928Y-150427142D01*
X103787500Y-150284285D01*
X103787500Y-149712857D01*
X103858928Y-149570000D01*
X104001785Y-149498571D01*
X104287500Y-149498571D01*
X104430357Y-149570000D01*
X104501785Y-149712857D01*
X104501785Y-149855714D01*
X103787500Y-149998571D01*
X105001785Y-149498571D02*
X105358928Y-150498571D01*
X105716071Y-149498571D01*
X106287500Y-149927142D02*
X107430357Y-149927142D01*
D10*
X79375309Y-145994380D02*
X78899119Y-145994380D01*
X78899119Y-144994380D01*
X79565785Y-144994380D02*
X80137214Y-144994380D01*
X79851500Y-145994380D02*
X79851500Y-144994380D01*
X81041976Y-145899142D02*
X80994357Y-145946761D01*
X80851500Y-145994380D01*
X80756261Y-145994380D01*
X80613404Y-145946761D01*
X80518166Y-145851523D01*
X80470547Y-145756285D01*
X80422928Y-145565809D01*
X80422928Y-145422952D01*
X80470547Y-145232476D01*
X80518166Y-145137238D01*
X80613404Y-145042000D01*
X80756261Y-144994380D01*
X80851500Y-144994380D01*
X80994357Y-145042000D01*
X81041976Y-145089619D01*
X81994357Y-145994380D02*
X81422928Y-145994380D01*
X81708642Y-145994380D02*
X81708642Y-144994380D01*
X81613404Y-145137238D01*
X81518166Y-145232476D01*
X81422928Y-145280095D01*
X82327690Y-144994380D02*
X82946738Y-144994380D01*
X82613404Y-145375333D01*
X82756261Y-145375333D01*
X82851500Y-145422952D01*
X82899119Y-145470571D01*
X82946738Y-145565809D01*
X82946738Y-145803904D01*
X82899119Y-145899142D01*
X82851500Y-145946761D01*
X82756261Y-145994380D01*
X82470547Y-145994380D01*
X82375309Y-145946761D01*
X82327690Y-145899142D01*
X83327690Y-145089619D02*
X83375309Y-145042000D01*
X83470547Y-144994380D01*
X83708642Y-144994380D01*
X83803880Y-145042000D01*
X83851500Y-145089619D01*
X83899119Y-145184857D01*
X83899119Y-145280095D01*
X83851500Y-145422952D01*
X83280071Y-145994380D01*
X83899119Y-145994380D01*
X84232452Y-144994380D02*
X84851500Y-144994380D01*
X84518166Y-145375333D01*
X84661023Y-145375333D01*
X84756261Y-145422952D01*
X84803880Y-145470571D01*
X84851500Y-145565809D01*
X84851500Y-145803904D01*
X84803880Y-145899142D01*
X84756261Y-145946761D01*
X84661023Y-145994380D01*
X84375309Y-145994380D01*
X84280071Y-145946761D01*
X84232452Y-145899142D01*
X62119095Y-138755428D02*
X62881000Y-138755428D01*
X63881000Y-139136380D02*
X63309571Y-139136380D01*
X63595285Y-139136380D02*
X63595285Y-138136380D01*
X63500047Y-138279238D01*
X63404809Y-138374476D01*
X63309571Y-138422095D01*
X64500047Y-138136380D02*
X64595285Y-138136380D01*
X64690523Y-138184000D01*
X64738142Y-138231619D01*
X64785761Y-138326857D01*
X64833380Y-138517333D01*
X64833380Y-138755428D01*
X64785761Y-138945904D01*
X64738142Y-139041142D01*
X64690523Y-139088761D01*
X64595285Y-139136380D01*
X64500047Y-139136380D01*
X64404809Y-139088761D01*
X64357190Y-139041142D01*
X64309571Y-138945904D01*
X64261952Y-138755428D01*
X64261952Y-138517333D01*
X64309571Y-138326857D01*
X64357190Y-138231619D01*
X64404809Y-138184000D01*
X64500047Y-138136380D01*
X65119095Y-138136380D02*
X65452428Y-139136380D01*
X65785761Y-138136380D01*
X60468095Y-137231428D02*
X61230000Y-137231428D01*
X62230000Y-137612380D02*
X61658571Y-137612380D01*
X61944285Y-137612380D02*
X61944285Y-136612380D01*
X61849047Y-136755238D01*
X61753809Y-136850476D01*
X61658571Y-136898095D01*
X62610952Y-136707619D02*
X62658571Y-136660000D01*
X62753809Y-136612380D01*
X62991904Y-136612380D01*
X63087142Y-136660000D01*
X63134761Y-136707619D01*
X63182380Y-136802857D01*
X63182380Y-136898095D01*
X63134761Y-137040952D01*
X62563333Y-137612380D01*
X63182380Y-137612380D01*
X63468095Y-136612380D02*
X63801428Y-137612380D01*
X64134761Y-136612380D01*
X110458214Y-127388880D02*
X109886785Y-127388880D01*
X110172500Y-127388880D02*
X110172500Y-126388880D01*
X110077261Y-126531738D01*
X109982023Y-126626976D01*
X109886785Y-126674595D01*
X108418380Y-119062476D02*
X108418380Y-119538666D01*
X108894571Y-119586285D01*
X108846952Y-119538666D01*
X108799333Y-119443428D01*
X108799333Y-119205333D01*
X108846952Y-119110095D01*
X108894571Y-119062476D01*
X108989809Y-119014857D01*
X109227904Y-119014857D01*
X109323142Y-119062476D01*
X109370761Y-119110095D01*
X109418380Y-119205333D01*
X109418380Y-119443428D01*
X109370761Y-119538666D01*
X109323142Y-119586285D01*
X108418380Y-118729142D02*
X109418380Y-118395809D01*
X108418380Y-118062476D01*
X106624380Y-119752952D02*
X105624380Y-119752952D01*
X105624380Y-119514857D01*
X105672000Y-119372000D01*
X105767238Y-119276761D01*
X105862476Y-119229142D01*
X106052952Y-119181523D01*
X106195809Y-119181523D01*
X106386285Y-119229142D01*
X106481523Y-119276761D01*
X106576761Y-119372000D01*
X106624380Y-119514857D01*
X106624380Y-119752952D01*
X106243428Y-118752952D02*
X106243428Y-117991047D01*
X104084380Y-119752952D02*
X103084380Y-119752952D01*
X103084380Y-119514857D01*
X103132000Y-119372000D01*
X103227238Y-119276761D01*
X103322476Y-119229142D01*
X103512952Y-119181523D01*
X103655809Y-119181523D01*
X103846285Y-119229142D01*
X103941523Y-119276761D01*
X104036761Y-119372000D01*
X104084380Y-119514857D01*
X104084380Y-119752952D01*
X103703428Y-118752952D02*
X103703428Y-117991047D01*
X104084380Y-118372000D02*
X103322476Y-118372000D01*
X100592000Y-120141904D02*
X100544380Y-120237142D01*
X100544380Y-120380000D01*
X100592000Y-120522857D01*
X100687238Y-120618095D01*
X100782476Y-120665714D01*
X100972952Y-120713333D01*
X101115809Y-120713333D01*
X101306285Y-120665714D01*
X101401523Y-120618095D01*
X101496761Y-120522857D01*
X101544380Y-120380000D01*
X101544380Y-120284761D01*
X101496761Y-120141904D01*
X101449142Y-120094285D01*
X101115809Y-120094285D01*
X101115809Y-120284761D01*
X101544380Y-119665714D02*
X100544380Y-119665714D01*
X101544380Y-119094285D01*
X100544380Y-119094285D01*
X101544380Y-118618095D02*
X100544380Y-118618095D01*
X100544380Y-118380000D01*
X100592000Y-118237142D01*
X100687238Y-118141904D01*
X100782476Y-118094285D01*
X100972952Y-118046666D01*
X101115809Y-118046666D01*
X101306285Y-118094285D01*
X101401523Y-118141904D01*
X101496761Y-118237142D01*
X101544380Y-118380000D01*
X101544380Y-118618095D01*
D13*
%TO.C,R56*%
X77723276Y-106948500D02*
X78232724Y-106948500D01*
X77723276Y-105903500D02*
X78232724Y-105903500D01*
%TO.C,R55*%
X77723276Y-108726500D02*
X78232724Y-108726500D01*
X77723276Y-107681500D02*
X78232724Y-107681500D01*
%TO.C,D4*%
X79849000Y-107081200D02*
X82534000Y-107081200D01*
X79849000Y-105161200D02*
X79849000Y-107081200D01*
X82534000Y-105161200D02*
X79849000Y-105161200D01*
%TO.C,D3*%
X79849000Y-109087800D02*
X82534000Y-109087800D01*
X79849000Y-107167800D02*
X79849000Y-109087800D01*
X82534000Y-107167800D02*
X79849000Y-107167800D01*
D14*
%TO.C,G\u002A\u002A\u002A*%
G36*
X116769926Y-119573711D02*
G01*
X116844172Y-119600224D01*
X116912678Y-119641484D01*
X116972991Y-119697503D01*
X117022659Y-119768297D01*
X117036668Y-119795699D01*
X117065560Y-119880185D01*
X117075113Y-119966346D01*
X117065850Y-120051563D01*
X117038294Y-120133212D01*
X116992966Y-120208672D01*
X116943482Y-120263552D01*
X116885066Y-120310626D01*
X116824910Y-120342193D01*
X116757464Y-120360442D01*
X116679980Y-120367486D01*
X116614151Y-120367102D01*
X116566114Y-120361675D01*
X116547344Y-120356432D01*
X116460502Y-120314857D01*
X116390169Y-120262665D01*
X116334734Y-120198436D01*
X116300866Y-120139203D01*
X116286079Y-120106413D01*
X116276631Y-120079146D01*
X116271341Y-120051005D01*
X116269025Y-120015597D01*
X116268500Y-119966526D01*
X116268500Y-119964200D01*
X116269092Y-119913325D01*
X116271540Y-119876620D01*
X116276854Y-119847954D01*
X116286041Y-119821194D01*
X116295529Y-119799860D01*
X116341274Y-119723534D01*
X116398449Y-119661859D01*
X116464601Y-119614847D01*
X116537278Y-119582512D01*
X116614026Y-119564869D01*
X116692393Y-119561931D01*
X116769926Y-119573711D01*
G37*
X116769926Y-119573711D02*
X116844172Y-119600224D01*
X116912678Y-119641484D01*
X116972991Y-119697503D01*
X117022659Y-119768297D01*
X117036668Y-119795699D01*
X117065560Y-119880185D01*
X117075113Y-119966346D01*
X117065850Y-120051563D01*
X117038294Y-120133212D01*
X116992966Y-120208672D01*
X116943482Y-120263552D01*
X116885066Y-120310626D01*
X116824910Y-120342193D01*
X116757464Y-120360442D01*
X116679980Y-120367486D01*
X116614151Y-120367102D01*
X116566114Y-120361675D01*
X116547344Y-120356432D01*
X116460502Y-120314857D01*
X116390169Y-120262665D01*
X116334734Y-120198436D01*
X116300866Y-120139203D01*
X116286079Y-120106413D01*
X116276631Y-120079146D01*
X116271341Y-120051005D01*
X116269025Y-120015597D01*
X116268500Y-119966526D01*
X116268500Y-119964200D01*
X116269092Y-119913325D01*
X116271540Y-119876620D01*
X116276854Y-119847954D01*
X116286041Y-119821194D01*
X116295529Y-119799860D01*
X116341274Y-119723534D01*
X116398449Y-119661859D01*
X116464601Y-119614847D01*
X116537278Y-119582512D01*
X116614026Y-119564869D01*
X116692393Y-119561931D01*
X116769926Y-119573711D01*
G36*
X115204536Y-119565326D02*
G01*
X115285154Y-119588365D01*
X115358533Y-119627503D01*
X115422519Y-119681335D01*
X115474959Y-119748461D01*
X115513700Y-119827477D01*
X115533938Y-119901241D01*
X115539256Y-119983294D01*
X115526191Y-120065108D01*
X115496462Y-120143470D01*
X115451786Y-120215166D01*
X115393883Y-120276984D01*
X115324470Y-120325711D01*
X115300435Y-120337863D01*
X115239834Y-120357757D01*
X115169396Y-120368201D01*
X115096661Y-120368925D01*
X115029172Y-120359661D01*
X114993420Y-120348840D01*
X114911048Y-120308014D01*
X114844394Y-120255403D01*
X114791469Y-120189194D01*
X114764395Y-120139923D01*
X114736007Y-120058036D01*
X114726268Y-119974525D01*
X114733955Y-119892002D01*
X114757844Y-119813077D01*
X114796709Y-119740359D01*
X114849328Y-119676461D01*
X114914475Y-119623991D01*
X114990927Y-119585562D01*
X115030195Y-119573150D01*
X115118832Y-119559786D01*
X115204536Y-119565326D01*
G37*
X115204536Y-119565326D02*
X115285154Y-119588365D01*
X115358533Y-119627503D01*
X115422519Y-119681335D01*
X115474959Y-119748461D01*
X115513700Y-119827477D01*
X115533938Y-119901241D01*
X115539256Y-119983294D01*
X115526191Y-120065108D01*
X115496462Y-120143470D01*
X115451786Y-120215166D01*
X115393883Y-120276984D01*
X115324470Y-120325711D01*
X115300435Y-120337863D01*
X115239834Y-120357757D01*
X115169396Y-120368201D01*
X115096661Y-120368925D01*
X115029172Y-120359661D01*
X114993420Y-120348840D01*
X114911048Y-120308014D01*
X114844394Y-120255403D01*
X114791469Y-120189194D01*
X114764395Y-120139923D01*
X114736007Y-120058036D01*
X114726268Y-119974525D01*
X114733955Y-119892002D01*
X114757844Y-119813077D01*
X114796709Y-119740359D01*
X114849328Y-119676461D01*
X114914475Y-119623991D01*
X114990927Y-119585562D01*
X115030195Y-119573150D01*
X115118832Y-119559786D01*
X115204536Y-119565326D01*
G36*
X113680724Y-119567202D02*
G01*
X113759479Y-119593880D01*
X113830686Y-119635540D01*
X113892350Y-119689885D01*
X113942475Y-119754624D01*
X113979064Y-119827460D01*
X114000123Y-119906099D01*
X114003654Y-119988248D01*
X113999740Y-120021411D01*
X113975444Y-120109882D01*
X113934262Y-120189689D01*
X113878035Y-120258329D01*
X113808602Y-120313299D01*
X113769140Y-120335054D01*
X113709032Y-120355874D01*
X113639016Y-120367545D01*
X113566586Y-120369662D01*
X113499238Y-120361825D01*
X113462601Y-120351523D01*
X113381551Y-120311385D01*
X113313151Y-120257129D01*
X113258618Y-120191231D01*
X113219172Y-120116168D01*
X113196030Y-120034417D01*
X113190413Y-119948454D01*
X113203538Y-119860756D01*
X113210063Y-119838310D01*
X113244581Y-119762673D01*
X113295257Y-119695463D01*
X113358860Y-119639025D01*
X113432160Y-119595705D01*
X113511926Y-119567849D01*
X113594928Y-119557803D01*
X113596420Y-119557800D01*
X113680724Y-119567202D01*
G37*
X113680724Y-119567202D02*
X113759479Y-119593880D01*
X113830686Y-119635540D01*
X113892350Y-119689885D01*
X113942475Y-119754624D01*
X113979064Y-119827460D01*
X114000123Y-119906099D01*
X114003654Y-119988248D01*
X113999740Y-120021411D01*
X113975444Y-120109882D01*
X113934262Y-120189689D01*
X113878035Y-120258329D01*
X113808602Y-120313299D01*
X113769140Y-120335054D01*
X113709032Y-120355874D01*
X113639016Y-120367545D01*
X113566586Y-120369662D01*
X113499238Y-120361825D01*
X113462601Y-120351523D01*
X113381551Y-120311385D01*
X113313151Y-120257129D01*
X113258618Y-120191231D01*
X113219172Y-120116168D01*
X113196030Y-120034417D01*
X113190413Y-119948454D01*
X113203538Y-119860756D01*
X113210063Y-119838310D01*
X113244581Y-119762673D01*
X113295257Y-119695463D01*
X113358860Y-119639025D01*
X113432160Y-119595705D01*
X113511926Y-119567849D01*
X113594928Y-119557803D01*
X113596420Y-119557800D01*
X113680724Y-119567202D01*
G36*
X117139828Y-121087431D02*
G01*
X117175056Y-121089920D01*
X117203259Y-121095602D01*
X117231078Y-121105731D01*
X117259100Y-121118637D01*
X117339583Y-121166713D01*
X117403105Y-121225731D01*
X117450345Y-121296545D01*
X117481983Y-121380012D01*
X117488512Y-121407546D01*
X117497063Y-121495851D01*
X117486619Y-121581649D01*
X117458506Y-121662296D01*
X117414048Y-121735148D01*
X117354571Y-121797560D01*
X117281400Y-121846890D01*
X117264025Y-121855523D01*
X117220752Y-121873518D01*
X117180552Y-121884001D01*
X117133494Y-121889271D01*
X117113909Y-121890296D01*
X117069054Y-121890811D01*
X117026987Y-121888911D01*
X116995798Y-121885001D01*
X116992358Y-121884216D01*
X116912485Y-121854255D01*
X116841628Y-121808537D01*
X116781616Y-121749818D01*
X116734276Y-121680854D01*
X116701435Y-121604400D01*
X116684923Y-121523212D01*
X116686565Y-121440045D01*
X116688694Y-121426398D01*
X116713748Y-121335770D01*
X116754757Y-121257720D01*
X116811706Y-121192270D01*
X116884577Y-121139442D01*
X116911256Y-121125207D01*
X116948105Y-121107567D01*
X116976815Y-121096378D01*
X117004245Y-121090177D01*
X117037256Y-121087500D01*
X117082706Y-121086884D01*
X117090933Y-121086880D01*
X117139828Y-121087431D01*
G37*
X117139828Y-121087431D02*
X117175056Y-121089920D01*
X117203259Y-121095602D01*
X117231078Y-121105731D01*
X117259100Y-121118637D01*
X117339583Y-121166713D01*
X117403105Y-121225731D01*
X117450345Y-121296545D01*
X117481983Y-121380012D01*
X117488512Y-121407546D01*
X117497063Y-121495851D01*
X117486619Y-121581649D01*
X117458506Y-121662296D01*
X117414048Y-121735148D01*
X117354571Y-121797560D01*
X117281400Y-121846890D01*
X117264025Y-121855523D01*
X117220752Y-121873518D01*
X117180552Y-121884001D01*
X117133494Y-121889271D01*
X117113909Y-121890296D01*
X117069054Y-121890811D01*
X117026987Y-121888911D01*
X116995798Y-121885001D01*
X116992358Y-121884216D01*
X116912485Y-121854255D01*
X116841628Y-121808537D01*
X116781616Y-121749818D01*
X116734276Y-121680854D01*
X116701435Y-121604400D01*
X116684923Y-121523212D01*
X116686565Y-121440045D01*
X116688694Y-121426398D01*
X116713748Y-121335770D01*
X116754757Y-121257720D01*
X116811706Y-121192270D01*
X116884577Y-121139442D01*
X116911256Y-121125207D01*
X116948105Y-121107567D01*
X116976815Y-121096378D01*
X117004245Y-121090177D01*
X117037256Y-121087500D01*
X117082706Y-121086884D01*
X117090933Y-121086880D01*
X117139828Y-121087431D01*
G36*
X115668229Y-121098068D02*
G01*
X115749774Y-121130365D01*
X115821445Y-121179954D01*
X115881970Y-121246005D01*
X115919902Y-121307024D01*
X115934741Y-121336632D01*
X115944408Y-121361055D01*
X115950010Y-121386096D01*
X115952653Y-121417558D01*
X115953444Y-121461244D01*
X115953490Y-121483120D01*
X115953088Y-121533977D01*
X115951126Y-121570527D01*
X115946547Y-121598776D01*
X115938297Y-121624729D01*
X115925318Y-121654394D01*
X115922228Y-121660949D01*
X115875297Y-121736762D01*
X115812799Y-121801021D01*
X115737499Y-121850940D01*
X115729967Y-121854743D01*
X115691947Y-121871817D01*
X115657768Y-121882257D01*
X115619002Y-121888026D01*
X115575353Y-121890756D01*
X115512917Y-121890886D01*
X115464124Y-121885693D01*
X115445540Y-121881010D01*
X115361026Y-121843390D01*
X115288629Y-121792060D01*
X115229752Y-121729237D01*
X115185794Y-121657137D01*
X115158157Y-121577977D01*
X115148243Y-121493973D01*
X115154699Y-121420947D01*
X115180560Y-121331951D01*
X115222231Y-121254256D01*
X115277893Y-121189310D01*
X115345730Y-121138560D01*
X115423923Y-121103452D01*
X115510655Y-121085434D01*
X115578081Y-121083892D01*
X115668229Y-121098068D01*
G37*
X115668229Y-121098068D02*
X115749774Y-121130365D01*
X115821445Y-121179954D01*
X115881970Y-121246005D01*
X115919902Y-121307024D01*
X115934741Y-121336632D01*
X115944408Y-121361055D01*
X115950010Y-121386096D01*
X115952653Y-121417558D01*
X115953444Y-121461244D01*
X115953490Y-121483120D01*
X115953088Y-121533977D01*
X115951126Y-121570527D01*
X115946547Y-121598776D01*
X115938297Y-121624729D01*
X115925318Y-121654394D01*
X115922228Y-121660949D01*
X115875297Y-121736762D01*
X115812799Y-121801021D01*
X115737499Y-121850940D01*
X115729967Y-121854743D01*
X115691947Y-121871817D01*
X115657768Y-121882257D01*
X115619002Y-121888026D01*
X115575353Y-121890756D01*
X115512917Y-121890886D01*
X115464124Y-121885693D01*
X115445540Y-121881010D01*
X115361026Y-121843390D01*
X115288629Y-121792060D01*
X115229752Y-121729237D01*
X115185794Y-121657137D01*
X115158157Y-121577977D01*
X115148243Y-121493973D01*
X115154699Y-121420947D01*
X115180560Y-121331951D01*
X115222231Y-121254256D01*
X115277893Y-121189310D01*
X115345730Y-121138560D01*
X115423923Y-121103452D01*
X115510655Y-121085434D01*
X115578081Y-121083892D01*
X115668229Y-121098068D01*
G36*
X113214069Y-121087326D02*
G01*
X113249508Y-121089460D01*
X113277238Y-121094479D01*
X113303563Y-121103575D01*
X113334786Y-121117945D01*
X113338780Y-121119894D01*
X113414259Y-121167447D01*
X113476230Y-121228227D01*
X113523506Y-121299530D01*
X113554904Y-121378655D01*
X113569237Y-121462899D01*
X113565322Y-121549558D01*
X113552204Y-121606638D01*
X113517553Y-121686898D01*
X113467826Y-121756068D01*
X113405676Y-121812753D01*
X113333758Y-121855555D01*
X113254726Y-121883077D01*
X113171234Y-121893921D01*
X113085936Y-121886690D01*
X113041774Y-121875332D01*
X112962616Y-121839726D01*
X112891451Y-121787484D01*
X112831890Y-121721812D01*
X112790325Y-121652030D01*
X112777906Y-121622894D01*
X112770017Y-121595897D01*
X112765656Y-121564911D01*
X112763820Y-121523811D01*
X112763505Y-121487986D01*
X112763844Y-121438570D01*
X112765869Y-121403223D01*
X112770755Y-121375700D01*
X112779675Y-121349755D01*
X112793804Y-121319144D01*
X112796153Y-121314357D01*
X112839281Y-121246345D01*
X112896732Y-121184440D01*
X112962803Y-121134256D01*
X112999493Y-121114270D01*
X113028907Y-121101550D01*
X113055607Y-121093475D01*
X113085750Y-121089023D01*
X113125491Y-121087174D01*
X113164620Y-121086880D01*
X113214069Y-121087326D01*
G37*
X113214069Y-121087326D02*
X113249508Y-121089460D01*
X113277238Y-121094479D01*
X113303563Y-121103575D01*
X113334786Y-121117945D01*
X113338780Y-121119894D01*
X113414259Y-121167447D01*
X113476230Y-121228227D01*
X113523506Y-121299530D01*
X113554904Y-121378655D01*
X113569237Y-121462899D01*
X113565322Y-121549558D01*
X113552204Y-121606638D01*
X113517553Y-121686898D01*
X113467826Y-121756068D01*
X113405676Y-121812753D01*
X113333758Y-121855555D01*
X113254726Y-121883077D01*
X113171234Y-121893921D01*
X113085936Y-121886690D01*
X113041774Y-121875332D01*
X112962616Y-121839726D01*
X112891451Y-121787484D01*
X112831890Y-121721812D01*
X112790325Y-121652030D01*
X112777906Y-121622894D01*
X112770017Y-121595897D01*
X112765656Y-121564911D01*
X112763820Y-121523811D01*
X112763505Y-121487986D01*
X112763844Y-121438570D01*
X112765869Y-121403223D01*
X112770755Y-121375700D01*
X112779675Y-121349755D01*
X112793804Y-121319144D01*
X112796153Y-121314357D01*
X112839281Y-121246345D01*
X112896732Y-121184440D01*
X112962803Y-121134256D01*
X112999493Y-121114270D01*
X113028907Y-121101550D01*
X113055607Y-121093475D01*
X113085750Y-121089023D01*
X113125491Y-121087174D01*
X113164620Y-121086880D01*
X113214069Y-121087326D01*
G36*
X115954416Y-122611401D02*
G01*
X115991627Y-122613537D01*
X116020218Y-122618254D01*
X116046032Y-122626493D01*
X116072946Y-122638270D01*
X116149682Y-122684680D01*
X116212643Y-122744078D01*
X116260897Y-122813841D01*
X116293510Y-122891346D01*
X116309550Y-122973969D01*
X116308083Y-123059089D01*
X116288176Y-123144083D01*
X116269107Y-123189667D01*
X116222427Y-123263047D01*
X116161872Y-123323865D01*
X116090450Y-123370689D01*
X116011167Y-123402086D01*
X115927029Y-123416622D01*
X115841045Y-123412863D01*
X115812496Y-123407298D01*
X115739634Y-123380732D01*
X115669560Y-123337698D01*
X115606841Y-123281971D01*
X115556047Y-123217326D01*
X115533729Y-123176975D01*
X115521392Y-123148558D01*
X115513436Y-123122737D01*
X115508926Y-123093676D01*
X115506926Y-123055542D01*
X115506500Y-123007120D01*
X115506931Y-122956208D01*
X115508898Y-122919777D01*
X115513409Y-122891994D01*
X115521471Y-122867026D01*
X115534094Y-122839040D01*
X115536355Y-122834400D01*
X115578906Y-122767224D01*
X115635826Y-122706003D01*
X115701189Y-122656661D01*
X115730020Y-122640765D01*
X115758942Y-122627409D01*
X115784022Y-122618755D01*
X115811093Y-122613794D01*
X115845993Y-122611518D01*
X115894557Y-122610917D01*
X115902740Y-122610909D01*
X115954416Y-122611401D01*
G37*
X115954416Y-122611401D02*
X115991627Y-122613537D01*
X116020218Y-122618254D01*
X116046032Y-122626493D01*
X116072946Y-122638270D01*
X116149682Y-122684680D01*
X116212643Y-122744078D01*
X116260897Y-122813841D01*
X116293510Y-122891346D01*
X116309550Y-122973969D01*
X116308083Y-123059089D01*
X116288176Y-123144083D01*
X116269107Y-123189667D01*
X116222427Y-123263047D01*
X116161872Y-123323865D01*
X116090450Y-123370689D01*
X116011167Y-123402086D01*
X115927029Y-123416622D01*
X115841045Y-123412863D01*
X115812496Y-123407298D01*
X115739634Y-123380732D01*
X115669560Y-123337698D01*
X115606841Y-123281971D01*
X115556047Y-123217326D01*
X115533729Y-123176975D01*
X115521392Y-123148558D01*
X115513436Y-123122737D01*
X115508926Y-123093676D01*
X115506926Y-123055542D01*
X115506500Y-123007120D01*
X115506931Y-122956208D01*
X115508898Y-122919777D01*
X115513409Y-122891994D01*
X115521471Y-122867026D01*
X115534094Y-122839040D01*
X115536355Y-122834400D01*
X115578906Y-122767224D01*
X115635826Y-122706003D01*
X115701189Y-122656661D01*
X115730020Y-122640765D01*
X115758942Y-122627409D01*
X115784022Y-122618755D01*
X115811093Y-122613794D01*
X115845993Y-122611518D01*
X115894557Y-122610917D01*
X115902740Y-122610909D01*
X115954416Y-122611401D01*
G36*
X114410144Y-122611390D02*
G01*
X114447397Y-122613546D01*
X114476012Y-122618282D01*
X114501825Y-122626533D01*
X114528275Y-122638109D01*
X114602302Y-122683258D01*
X114664600Y-122742293D01*
X114713538Y-122812164D01*
X114747484Y-122889823D01*
X114764806Y-122972219D01*
X114763872Y-123056303D01*
X114761275Y-123073485D01*
X114736579Y-123159890D01*
X114696044Y-123236287D01*
X114641962Y-123301191D01*
X114576622Y-123353116D01*
X114502316Y-123390577D01*
X114421335Y-123412089D01*
X114335967Y-123416164D01*
X114253613Y-123402728D01*
X114173081Y-123371017D01*
X114102400Y-123323354D01*
X114043345Y-123262436D01*
X113997689Y-123190958D01*
X113967208Y-123111616D01*
X113953674Y-123027104D01*
X113956976Y-122952110D01*
X113978866Y-122867682D01*
X114018550Y-122789730D01*
X114073795Y-122721294D01*
X114142368Y-122665413D01*
X114185700Y-122640766D01*
X114214594Y-122627389D01*
X114239618Y-122618722D01*
X114266602Y-122613755D01*
X114301377Y-122611479D01*
X114349774Y-122610886D01*
X114358420Y-122610880D01*
X114410144Y-122611390D01*
G37*
X114410144Y-122611390D02*
X114447397Y-122613546D01*
X114476012Y-122618282D01*
X114501825Y-122626533D01*
X114528275Y-122638109D01*
X114602302Y-122683258D01*
X114664600Y-122742293D01*
X114713538Y-122812164D01*
X114747484Y-122889823D01*
X114764806Y-122972219D01*
X114763872Y-123056303D01*
X114761275Y-123073485D01*
X114736579Y-123159890D01*
X114696044Y-123236287D01*
X114641962Y-123301191D01*
X114576622Y-123353116D01*
X114502316Y-123390577D01*
X114421335Y-123412089D01*
X114335967Y-123416164D01*
X114253613Y-123402728D01*
X114173081Y-123371017D01*
X114102400Y-123323354D01*
X114043345Y-123262436D01*
X113997689Y-123190958D01*
X113967208Y-123111616D01*
X113953674Y-123027104D01*
X113956976Y-122952110D01*
X113978866Y-122867682D01*
X114018550Y-122789730D01*
X114073795Y-122721294D01*
X114142368Y-122665413D01*
X114185700Y-122640766D01*
X114214594Y-122627389D01*
X114239618Y-122618722D01*
X114266602Y-122613755D01*
X114301377Y-122611479D01*
X114349774Y-122610886D01*
X114358420Y-122610880D01*
X114410144Y-122611390D01*
G36*
X115773200Y-118253132D02*
G01*
X116020263Y-118319384D01*
X116257868Y-118403317D01*
X116485406Y-118504497D01*
X116702270Y-118622494D01*
X116907850Y-118756874D01*
X117101540Y-118907206D01*
X117282730Y-119073058D01*
X117450812Y-119253997D01*
X117605179Y-119449591D01*
X117739731Y-119650469D01*
X117860602Y-119865636D01*
X117962646Y-120088270D01*
X118045710Y-120317835D01*
X118109643Y-120553797D01*
X118154296Y-120795617D01*
X118179517Y-121042762D01*
X118185597Y-121234200D01*
X118178742Y-121463303D01*
X118156809Y-121683368D01*
X118119139Y-121896800D01*
X118065069Y-122106004D01*
X117993937Y-122313386D01*
X117905083Y-122521352D01*
X117797846Y-122732308D01*
X117750526Y-122816555D01*
X117731540Y-122849511D01*
X117271800Y-122849575D01*
X116812060Y-122849640D01*
X116812060Y-123800113D01*
X116706343Y-123863626D01*
X116484956Y-123985113D01*
X116257374Y-124087444D01*
X116024269Y-124170452D01*
X115786318Y-124233967D01*
X115544193Y-124277822D01*
X115298568Y-124301847D01*
X115050119Y-124305874D01*
X114952780Y-124301998D01*
X114706796Y-124278259D01*
X114463817Y-124234742D01*
X114225283Y-124171891D01*
X113992633Y-124090150D01*
X113767307Y-123989965D01*
X113550747Y-123871779D01*
X113542565Y-123866852D01*
X113444020Y-123807288D01*
X113441380Y-123328464D01*
X113438741Y-122849640D01*
X112515851Y-122849640D01*
X112481122Y-122791220D01*
X112372334Y-122589583D01*
X112278069Y-122376035D01*
X112199540Y-122154022D01*
X112137961Y-121926987D01*
X112094546Y-121698376D01*
X112093518Y-121691400D01*
X112073661Y-121512031D01*
X112064327Y-121322748D01*
X112180315Y-121322748D01*
X112182726Y-121424109D01*
X112188259Y-121511355D01*
X112188556Y-121514559D01*
X112219959Y-121751140D01*
X112269266Y-121980160D01*
X112337135Y-122203904D01*
X112424223Y-122424660D01*
X112491482Y-122567700D01*
X112576538Y-122737880D01*
X113560860Y-122737880D01*
X113560860Y-123743465D01*
X113604040Y-123770865D01*
X113654658Y-123800787D01*
X113719378Y-123835727D01*
X113793369Y-123873321D01*
X113871802Y-123911205D01*
X113949845Y-123947017D01*
X114022670Y-123978390D01*
X114053620Y-123990891D01*
X114245766Y-124058113D01*
X114448382Y-124113476D01*
X114654323Y-124155250D01*
X114830860Y-124179215D01*
X114888438Y-124183554D01*
X114960941Y-124186658D01*
X115043112Y-124188518D01*
X115129693Y-124189123D01*
X115215425Y-124188462D01*
X115295050Y-124186527D01*
X115363310Y-124183307D01*
X115401283Y-124180306D01*
X115642285Y-124146195D01*
X115880027Y-124092239D01*
X116113389Y-124018798D01*
X116341246Y-123926235D01*
X116562479Y-123814913D01*
X116599573Y-123794020D01*
X116690140Y-123742192D01*
X116690140Y-122738075D01*
X117180360Y-122735437D01*
X117670580Y-122732800D01*
X117757647Y-122560080D01*
X117858058Y-122340649D01*
X117938789Y-122119146D01*
X118000478Y-121893357D01*
X118043764Y-121661069D01*
X118062455Y-121504279D01*
X118068165Y-121416632D01*
X118070629Y-121314748D01*
X118070021Y-121204422D01*
X118066510Y-121091448D01*
X118060268Y-120981619D01*
X118051468Y-120880730D01*
X118041711Y-120803731D01*
X118001486Y-120594433D01*
X117945067Y-120384671D01*
X117874064Y-120179215D01*
X117790088Y-119982836D01*
X117715104Y-119836296D01*
X117586428Y-119624557D01*
X117442564Y-119426014D01*
X117284236Y-119241263D01*
X117112171Y-119070900D01*
X116927093Y-118915523D01*
X116729729Y-118775726D01*
X116520802Y-118652108D01*
X116301040Y-118545263D01*
X116071166Y-118455789D01*
X116012147Y-118436187D01*
X115965919Y-118421752D01*
X115925882Y-118409996D01*
X115896500Y-118402183D01*
X115882607Y-118399560D01*
X115877837Y-118401749D01*
X115874143Y-118409799D01*
X115871396Y-118425933D01*
X115869461Y-118452372D01*
X115868206Y-118491340D01*
X115867500Y-118545058D01*
X115867210Y-118615749D01*
X115867180Y-118658640D01*
X115867180Y-118917720D01*
X114383820Y-118917720D01*
X114383820Y-118397298D01*
X114348057Y-118404007D01*
X114297414Y-118416301D01*
X114232501Y-118436355D01*
X114157149Y-118462695D01*
X114075190Y-118493846D01*
X113990453Y-118528333D01*
X113906770Y-118564682D01*
X113827972Y-118601419D01*
X113802417Y-118614016D01*
X113590395Y-118731391D01*
X113390285Y-118864733D01*
X113202799Y-119013064D01*
X113028650Y-119175402D01*
X112868552Y-119350768D01*
X112723215Y-119538183D01*
X112593354Y-119736668D01*
X112479681Y-119945242D01*
X112382908Y-120162926D01*
X112303749Y-120388740D01*
X112242916Y-120621705D01*
X112209257Y-120803731D01*
X112198555Y-120890160D01*
X112190144Y-120990976D01*
X112184190Y-121100480D01*
X112180858Y-121212971D01*
X112180315Y-121322748D01*
X112064327Y-121322748D01*
X112064317Y-121322548D01*
X112065500Y-121130234D01*
X112077221Y-120942372D01*
X112091931Y-120815814D01*
X112136409Y-120572988D01*
X112199964Y-120336103D01*
X112281963Y-120106161D01*
X112381770Y-119884167D01*
X112498752Y-119671126D01*
X112632275Y-119468041D01*
X112781704Y-119275917D01*
X112946404Y-119095758D01*
X113125743Y-118928569D01*
X113319086Y-118775352D01*
X113428780Y-118698986D01*
X113624092Y-118578501D01*
X113821622Y-118475697D01*
X114025584Y-118388685D01*
X114240193Y-118315575D01*
X114358420Y-118282154D01*
X114407599Y-118269288D01*
X114449645Y-118258552D01*
X114480696Y-118250913D01*
X114496888Y-118247338D01*
X114498120Y-118247192D01*
X114500110Y-118256911D01*
X114501906Y-118284356D01*
X114503437Y-118326934D01*
X114504634Y-118382051D01*
X114505424Y-118447115D01*
X114505737Y-118519531D01*
X114505740Y-118526560D01*
X114505740Y-118805960D01*
X115745260Y-118805960D01*
X115745260Y-118246772D01*
X115773200Y-118253132D01*
G37*
X115773200Y-118253132D02*
X116020263Y-118319384D01*
X116257868Y-118403317D01*
X116485406Y-118504497D01*
X116702270Y-118622494D01*
X116907850Y-118756874D01*
X117101540Y-118907206D01*
X117282730Y-119073058D01*
X117450812Y-119253997D01*
X117605179Y-119449591D01*
X117739731Y-119650469D01*
X117860602Y-119865636D01*
X117962646Y-120088270D01*
X118045710Y-120317835D01*
X118109643Y-120553797D01*
X118154296Y-120795617D01*
X118179517Y-121042762D01*
X118185597Y-121234200D01*
X118178742Y-121463303D01*
X118156809Y-121683368D01*
X118119139Y-121896800D01*
X118065069Y-122106004D01*
X117993937Y-122313386D01*
X117905083Y-122521352D01*
X117797846Y-122732308D01*
X117750526Y-122816555D01*
X117731540Y-122849511D01*
X117271800Y-122849575D01*
X116812060Y-122849640D01*
X116812060Y-123800113D01*
X116706343Y-123863626D01*
X116484956Y-123985113D01*
X116257374Y-124087444D01*
X116024269Y-124170452D01*
X115786318Y-124233967D01*
X115544193Y-124277822D01*
X115298568Y-124301847D01*
X115050119Y-124305874D01*
X114952780Y-124301998D01*
X114706796Y-124278259D01*
X114463817Y-124234742D01*
X114225283Y-124171891D01*
X113992633Y-124090150D01*
X113767307Y-123989965D01*
X113550747Y-123871779D01*
X113542565Y-123866852D01*
X113444020Y-123807288D01*
X113441380Y-123328464D01*
X113438741Y-122849640D01*
X112515851Y-122849640D01*
X112481122Y-122791220D01*
X112372334Y-122589583D01*
X112278069Y-122376035D01*
X112199540Y-122154022D01*
X112137961Y-121926987D01*
X112094546Y-121698376D01*
X112093518Y-121691400D01*
X112073661Y-121512031D01*
X112064327Y-121322748D01*
X112180315Y-121322748D01*
X112182726Y-121424109D01*
X112188259Y-121511355D01*
X112188556Y-121514559D01*
X112219959Y-121751140D01*
X112269266Y-121980160D01*
X112337135Y-122203904D01*
X112424223Y-122424660D01*
X112491482Y-122567700D01*
X112576538Y-122737880D01*
X113560860Y-122737880D01*
X113560860Y-123743465D01*
X113604040Y-123770865D01*
X113654658Y-123800787D01*
X113719378Y-123835727D01*
X113793369Y-123873321D01*
X113871802Y-123911205D01*
X113949845Y-123947017D01*
X114022670Y-123978390D01*
X114053620Y-123990891D01*
X114245766Y-124058113D01*
X114448382Y-124113476D01*
X114654323Y-124155250D01*
X114830860Y-124179215D01*
X114888438Y-124183554D01*
X114960941Y-124186658D01*
X115043112Y-124188518D01*
X115129693Y-124189123D01*
X115215425Y-124188462D01*
X115295050Y-124186527D01*
X115363310Y-124183307D01*
X115401283Y-124180306D01*
X115642285Y-124146195D01*
X115880027Y-124092239D01*
X116113389Y-124018798D01*
X116341246Y-123926235D01*
X116562479Y-123814913D01*
X116599573Y-123794020D01*
X116690140Y-123742192D01*
X116690140Y-122738075D01*
X117180360Y-122735437D01*
X117670580Y-122732800D01*
X117757647Y-122560080D01*
X117858058Y-122340649D01*
X117938789Y-122119146D01*
X118000478Y-121893357D01*
X118043764Y-121661069D01*
X118062455Y-121504279D01*
X118068165Y-121416632D01*
X118070629Y-121314748D01*
X118070021Y-121204422D01*
X118066510Y-121091448D01*
X118060268Y-120981619D01*
X118051468Y-120880730D01*
X118041711Y-120803731D01*
X118001486Y-120594433D01*
X117945067Y-120384671D01*
X117874064Y-120179215D01*
X117790088Y-119982836D01*
X117715104Y-119836296D01*
X117586428Y-119624557D01*
X117442564Y-119426014D01*
X117284236Y-119241263D01*
X117112171Y-119070900D01*
X116927093Y-118915523D01*
X116729729Y-118775726D01*
X116520802Y-118652108D01*
X116301040Y-118545263D01*
X116071166Y-118455789D01*
X116012147Y-118436187D01*
X115965919Y-118421752D01*
X115925882Y-118409996D01*
X115896500Y-118402183D01*
X115882607Y-118399560D01*
X115877837Y-118401749D01*
X115874143Y-118409799D01*
X115871396Y-118425933D01*
X115869461Y-118452372D01*
X115868206Y-118491340D01*
X115867500Y-118545058D01*
X115867210Y-118615749D01*
X115867180Y-118658640D01*
X115867180Y-118917720D01*
X114383820Y-118917720D01*
X114383820Y-118397298D01*
X114348057Y-118404007D01*
X114297414Y-118416301D01*
X114232501Y-118436355D01*
X114157149Y-118462695D01*
X114075190Y-118493846D01*
X113990453Y-118528333D01*
X113906770Y-118564682D01*
X113827972Y-118601419D01*
X113802417Y-118614016D01*
X113590395Y-118731391D01*
X113390285Y-118864733D01*
X113202799Y-119013064D01*
X113028650Y-119175402D01*
X112868552Y-119350768D01*
X112723215Y-119538183D01*
X112593354Y-119736668D01*
X112479681Y-119945242D01*
X112382908Y-120162926D01*
X112303749Y-120388740D01*
X112242916Y-120621705D01*
X112209257Y-120803731D01*
X112198555Y-120890160D01*
X112190144Y-120990976D01*
X112184190Y-121100480D01*
X112180858Y-121212971D01*
X112180315Y-121322748D01*
X112064327Y-121322748D01*
X112064317Y-121322548D01*
X112065500Y-121130234D01*
X112077221Y-120942372D01*
X112091931Y-120815814D01*
X112136409Y-120572988D01*
X112199964Y-120336103D01*
X112281963Y-120106161D01*
X112381770Y-119884167D01*
X112498752Y-119671126D01*
X112632275Y-119468041D01*
X112781704Y-119275917D01*
X112946404Y-119095758D01*
X113125743Y-118928569D01*
X113319086Y-118775352D01*
X113428780Y-118698986D01*
X113624092Y-118578501D01*
X113821622Y-118475697D01*
X114025584Y-118388685D01*
X114240193Y-118315575D01*
X114358420Y-118282154D01*
X114407599Y-118269288D01*
X114449645Y-118258552D01*
X114480696Y-118250913D01*
X114496888Y-118247338D01*
X114498120Y-118247192D01*
X114500110Y-118256911D01*
X114501906Y-118284356D01*
X114503437Y-118326934D01*
X114504634Y-118382051D01*
X114505424Y-118447115D01*
X114505737Y-118519531D01*
X114505740Y-118526560D01*
X114505740Y-118805960D01*
X115745260Y-118805960D01*
X115745260Y-118246772D01*
X115773200Y-118253132D01*
G36*
X115252500Y-116208207D02*
G01*
X115574758Y-116225329D01*
X115892136Y-116262141D01*
X116204351Y-116318544D01*
X116511122Y-116394435D01*
X116812167Y-116489713D01*
X117107203Y-116604278D01*
X117395951Y-116738026D01*
X117678126Y-116890858D01*
X117953448Y-117062672D01*
X118221636Y-117253366D01*
X118278127Y-117296658D01*
X118514524Y-117492946D01*
X118738106Y-117704442D01*
X118948254Y-117930099D01*
X119144346Y-118168871D01*
X119325764Y-118419713D01*
X119491887Y-118681576D01*
X119642096Y-118953416D01*
X119775769Y-119234186D01*
X119892287Y-119522840D01*
X119991031Y-119818331D01*
X120071379Y-120119613D01*
X120132713Y-120425640D01*
X120132853Y-120426480D01*
X120151399Y-120541385D01*
X120166344Y-120644589D01*
X120178040Y-120740594D01*
X120186840Y-120833901D01*
X120193097Y-120929009D01*
X120197164Y-121030420D01*
X120199393Y-121142635D01*
X120200138Y-121270154D01*
X120200144Y-121285000D01*
X120199527Y-121415014D01*
X120197445Y-121529208D01*
X120193548Y-121632052D01*
X120187489Y-121728014D01*
X120178919Y-121821563D01*
X120167491Y-121917168D01*
X120152857Y-122019299D01*
X120134668Y-122132424D01*
X120133660Y-122138440D01*
X120071690Y-122446881D01*
X119990335Y-122750455D01*
X119890150Y-123048205D01*
X119771691Y-123339174D01*
X119635512Y-123622407D01*
X119482169Y-123896947D01*
X119312217Y-124161838D01*
X119126210Y-124416124D01*
X118924705Y-124658848D01*
X118708256Y-124889053D01*
X118477419Y-125105785D01*
X118346220Y-125217505D01*
X118095559Y-125410546D01*
X117833628Y-125586888D01*
X117561167Y-125746225D01*
X117278915Y-125888248D01*
X116987613Y-126012652D01*
X116688000Y-126119128D01*
X116380816Y-126207369D01*
X116066802Y-126277068D01*
X115746696Y-126327918D01*
X115643660Y-126340097D01*
X115583180Y-126345343D01*
X115506771Y-126349924D01*
X115418310Y-126353780D01*
X115321677Y-126356849D01*
X115220750Y-126359069D01*
X115119407Y-126360378D01*
X115021526Y-126360715D01*
X114930987Y-126360017D01*
X114851667Y-126358224D01*
X114787445Y-126355272D01*
X114769900Y-126354007D01*
X114721774Y-126350567D01*
X114679956Y-126348448D01*
X114649280Y-126347841D01*
X114635328Y-126348711D01*
X114622947Y-126348085D01*
X114622373Y-126334299D01*
X114623582Y-126329063D01*
X114625830Y-126314096D01*
X114629791Y-126281135D01*
X114635228Y-126232414D01*
X114641904Y-126170167D01*
X114649581Y-126096626D01*
X114658020Y-126014025D01*
X114666986Y-125924596D01*
X114671852Y-125875367D01*
X114714137Y-125445520D01*
X114815678Y-125450600D01*
X114884156Y-125453130D01*
X114964925Y-125454654D01*
X115053909Y-125455223D01*
X115147031Y-125454890D01*
X115240215Y-125453707D01*
X115329382Y-125451724D01*
X115410458Y-125448993D01*
X115479364Y-125445567D01*
X115531900Y-125441510D01*
X115824026Y-125402018D01*
X116110263Y-125343420D01*
X116389862Y-125266074D01*
X116662071Y-125170341D01*
X116926142Y-125056578D01*
X117181325Y-124925146D01*
X117426871Y-124776404D01*
X117662031Y-124610711D01*
X117886053Y-124428427D01*
X118098190Y-124229910D01*
X118132894Y-124194701D01*
X118326840Y-123981293D01*
X118504192Y-123756721D01*
X118664678Y-123521919D01*
X118808030Y-123277822D01*
X118933978Y-123025363D01*
X119042254Y-122765477D01*
X119132588Y-122499097D01*
X119204710Y-122227156D01*
X119258352Y-121950590D01*
X119293245Y-121670332D01*
X119309119Y-121387315D01*
X119305704Y-121102475D01*
X119282733Y-120816744D01*
X119239934Y-120531057D01*
X119219216Y-120426480D01*
X119150203Y-120147892D01*
X119062443Y-119875504D01*
X118956569Y-119610380D01*
X118833215Y-119353583D01*
X118693013Y-119106176D01*
X118536595Y-118869224D01*
X118364596Y-118643788D01*
X118177646Y-118430933D01*
X117976380Y-118231722D01*
X117843211Y-118114288D01*
X117613828Y-117933973D01*
X117374690Y-117771097D01*
X117126705Y-117625893D01*
X116870783Y-117498591D01*
X116607835Y-117389423D01*
X116338770Y-117298620D01*
X116064497Y-117226412D01*
X115785927Y-117173031D01*
X115503968Y-117138709D01*
X115219532Y-117123676D01*
X114933527Y-117128163D01*
X114646864Y-117152402D01*
X114360451Y-117196623D01*
X114288217Y-117210990D01*
X114005012Y-117280102D01*
X113729458Y-117367852D01*
X113462248Y-117473786D01*
X113204073Y-117597450D01*
X112955624Y-117738391D01*
X112717593Y-117896155D01*
X112490672Y-118070289D01*
X112275552Y-118260340D01*
X112072925Y-118465854D01*
X111883482Y-118686377D01*
X111731950Y-118887240D01*
X111572529Y-119129320D01*
X111430833Y-119380989D01*
X111307206Y-119641303D01*
X111201997Y-119909317D01*
X111115551Y-120184088D01*
X111048215Y-120464670D01*
X111000336Y-120750121D01*
X110980031Y-120935315D01*
X110975722Y-121002598D01*
X110972928Y-121084925D01*
X110971580Y-121178224D01*
X110971608Y-121278420D01*
X110972942Y-121381441D01*
X110975513Y-121483213D01*
X110979251Y-121579663D01*
X110984087Y-121666717D01*
X110989950Y-121740301D01*
X110994467Y-121780397D01*
X111043209Y-122079117D01*
X111108835Y-122366702D01*
X111191573Y-122643657D01*
X111291653Y-122910488D01*
X111409303Y-123167701D01*
X111544753Y-123415801D01*
X111698230Y-123655295D01*
X111869965Y-123886688D01*
X112037408Y-124085172D01*
X112083168Y-124134667D01*
X112138518Y-124191858D01*
X112197784Y-124251031D01*
X112255292Y-124306470D01*
X112280700Y-124330164D01*
X112417860Y-124456341D01*
X112420485Y-123885038D01*
X112423110Y-123313736D01*
X112704965Y-123320428D01*
X112786342Y-123322253D01*
X112867972Y-123323890D01*
X112945593Y-123325268D01*
X113014943Y-123326315D01*
X113071760Y-123326961D01*
X113106200Y-123327140D01*
X113225580Y-123327160D01*
X113225580Y-125928120D01*
X110624386Y-125928120D01*
X110629700Y-125120400D01*
X111206280Y-125124460D01*
X111312410Y-125125102D01*
X111412219Y-125125500D01*
X111503901Y-125125661D01*
X111585652Y-125125593D01*
X111655666Y-125125301D01*
X111712136Y-125124792D01*
X111753258Y-125124074D01*
X111777227Y-125123152D01*
X111782860Y-125122327D01*
X111775886Y-125112937D01*
X111757534Y-125094045D01*
X111731656Y-125069599D01*
X111729520Y-125067652D01*
X111493206Y-124839578D01*
X111273980Y-124600584D01*
X111072011Y-124351000D01*
X110887466Y-124091156D01*
X110720511Y-123821383D01*
X110571316Y-123542013D01*
X110440047Y-123253374D01*
X110326872Y-122955798D01*
X110231958Y-122649615D01*
X110155473Y-122335155D01*
X110097585Y-122012750D01*
X110069346Y-121793000D01*
X110063415Y-121724325D01*
X110058557Y-121639855D01*
X110054793Y-121543377D01*
X110052144Y-121438676D01*
X110050632Y-121329539D01*
X110050279Y-121219752D01*
X110051107Y-121113102D01*
X110053136Y-121013375D01*
X110056389Y-120924356D01*
X110060888Y-120849834D01*
X110063771Y-120817640D01*
X110098696Y-120539831D01*
X110144590Y-120275822D01*
X110202243Y-120021825D01*
X110272447Y-119774055D01*
X110298758Y-119692241D01*
X110408697Y-119391929D01*
X110536280Y-119100936D01*
X110680885Y-118819921D01*
X110841892Y-118549547D01*
X111018681Y-118290473D01*
X111210631Y-118043362D01*
X111417123Y-117808874D01*
X111637535Y-117587670D01*
X111871247Y-117380411D01*
X112117640Y-117187758D01*
X112376091Y-117010372D01*
X112645982Y-116848914D01*
X112926691Y-116704046D01*
X113217598Y-116576427D01*
X113226723Y-116572773D01*
X113528804Y-116462407D01*
X113832467Y-116372046D01*
X114138736Y-116301508D01*
X114448633Y-116250608D01*
X114763184Y-116219162D01*
X115083410Y-116206985D01*
X115252500Y-116208207D01*
G37*
X115252500Y-116208207D02*
X115574758Y-116225329D01*
X115892136Y-116262141D01*
X116204351Y-116318544D01*
X116511122Y-116394435D01*
X116812167Y-116489713D01*
X117107203Y-116604278D01*
X117395951Y-116738026D01*
X117678126Y-116890858D01*
X117953448Y-117062672D01*
X118221636Y-117253366D01*
X118278127Y-117296658D01*
X118514524Y-117492946D01*
X118738106Y-117704442D01*
X118948254Y-117930099D01*
X119144346Y-118168871D01*
X119325764Y-118419713D01*
X119491887Y-118681576D01*
X119642096Y-118953416D01*
X119775769Y-119234186D01*
X119892287Y-119522840D01*
X119991031Y-119818331D01*
X120071379Y-120119613D01*
X120132713Y-120425640D01*
X120132853Y-120426480D01*
X120151399Y-120541385D01*
X120166344Y-120644589D01*
X120178040Y-120740594D01*
X120186840Y-120833901D01*
X120193097Y-120929009D01*
X120197164Y-121030420D01*
X120199393Y-121142635D01*
X120200138Y-121270154D01*
X120200144Y-121285000D01*
X120199527Y-121415014D01*
X120197445Y-121529208D01*
X120193548Y-121632052D01*
X120187489Y-121728014D01*
X120178919Y-121821563D01*
X120167491Y-121917168D01*
X120152857Y-122019299D01*
X120134668Y-122132424D01*
X120133660Y-122138440D01*
X120071690Y-122446881D01*
X119990335Y-122750455D01*
X119890150Y-123048205D01*
X119771691Y-123339174D01*
X119635512Y-123622407D01*
X119482169Y-123896947D01*
X119312217Y-124161838D01*
X119126210Y-124416124D01*
X118924705Y-124658848D01*
X118708256Y-124889053D01*
X118477419Y-125105785D01*
X118346220Y-125217505D01*
X118095559Y-125410546D01*
X117833628Y-125586888D01*
X117561167Y-125746225D01*
X117278915Y-125888248D01*
X116987613Y-126012652D01*
X116688000Y-126119128D01*
X116380816Y-126207369D01*
X116066802Y-126277068D01*
X115746696Y-126327918D01*
X115643660Y-126340097D01*
X115583180Y-126345343D01*
X115506771Y-126349924D01*
X115418310Y-126353780D01*
X115321677Y-126356849D01*
X115220750Y-126359069D01*
X115119407Y-126360378D01*
X115021526Y-126360715D01*
X114930987Y-126360017D01*
X114851667Y-126358224D01*
X114787445Y-126355272D01*
X114769900Y-126354007D01*
X114721774Y-126350567D01*
X114679956Y-126348448D01*
X114649280Y-126347841D01*
X114635328Y-126348711D01*
X114622947Y-126348085D01*
X114622373Y-126334299D01*
X114623582Y-126329063D01*
X114625830Y-126314096D01*
X114629791Y-126281135D01*
X114635228Y-126232414D01*
X114641904Y-126170167D01*
X114649581Y-126096626D01*
X114658020Y-126014025D01*
X114666986Y-125924596D01*
X114671852Y-125875367D01*
X114714137Y-125445520D01*
X114815678Y-125450600D01*
X114884156Y-125453130D01*
X114964925Y-125454654D01*
X115053909Y-125455223D01*
X115147031Y-125454890D01*
X115240215Y-125453707D01*
X115329382Y-125451724D01*
X115410458Y-125448993D01*
X115479364Y-125445567D01*
X115531900Y-125441510D01*
X115824026Y-125402018D01*
X116110263Y-125343420D01*
X116389862Y-125266074D01*
X116662071Y-125170341D01*
X116926142Y-125056578D01*
X117181325Y-124925146D01*
X117426871Y-124776404D01*
X117662031Y-124610711D01*
X117886053Y-124428427D01*
X118098190Y-124229910D01*
X118132894Y-124194701D01*
X118326840Y-123981293D01*
X118504192Y-123756721D01*
X118664678Y-123521919D01*
X118808030Y-123277822D01*
X118933978Y-123025363D01*
X119042254Y-122765477D01*
X119132588Y-122499097D01*
X119204710Y-122227156D01*
X119258352Y-121950590D01*
X119293245Y-121670332D01*
X119309119Y-121387315D01*
X119305704Y-121102475D01*
X119282733Y-120816744D01*
X119239934Y-120531057D01*
X119219216Y-120426480D01*
X119150203Y-120147892D01*
X119062443Y-119875504D01*
X118956569Y-119610380D01*
X118833215Y-119353583D01*
X118693013Y-119106176D01*
X118536595Y-118869224D01*
X118364596Y-118643788D01*
X118177646Y-118430933D01*
X117976380Y-118231722D01*
X117843211Y-118114288D01*
X117613828Y-117933973D01*
X117374690Y-117771097D01*
X117126705Y-117625893D01*
X116870783Y-117498591D01*
X116607835Y-117389423D01*
X116338770Y-117298620D01*
X116064497Y-117226412D01*
X115785927Y-117173031D01*
X115503968Y-117138709D01*
X115219532Y-117123676D01*
X114933527Y-117128163D01*
X114646864Y-117152402D01*
X114360451Y-117196623D01*
X114288217Y-117210990D01*
X114005012Y-117280102D01*
X113729458Y-117367852D01*
X113462248Y-117473786D01*
X113204073Y-117597450D01*
X112955624Y-117738391D01*
X112717593Y-117896155D01*
X112490672Y-118070289D01*
X112275552Y-118260340D01*
X112072925Y-118465854D01*
X111883482Y-118686377D01*
X111731950Y-118887240D01*
X111572529Y-119129320D01*
X111430833Y-119380989D01*
X111307206Y-119641303D01*
X111201997Y-119909317D01*
X111115551Y-120184088D01*
X111048215Y-120464670D01*
X111000336Y-120750121D01*
X110980031Y-120935315D01*
X110975722Y-121002598D01*
X110972928Y-121084925D01*
X110971580Y-121178224D01*
X110971608Y-121278420D01*
X110972942Y-121381441D01*
X110975513Y-121483213D01*
X110979251Y-121579663D01*
X110984087Y-121666717D01*
X110989950Y-121740301D01*
X110994467Y-121780397D01*
X111043209Y-122079117D01*
X111108835Y-122366702D01*
X111191573Y-122643657D01*
X111291653Y-122910488D01*
X111409303Y-123167701D01*
X111544753Y-123415801D01*
X111698230Y-123655295D01*
X111869965Y-123886688D01*
X112037408Y-124085172D01*
X112083168Y-124134667D01*
X112138518Y-124191858D01*
X112197784Y-124251031D01*
X112255292Y-124306470D01*
X112280700Y-124330164D01*
X112417860Y-124456341D01*
X112420485Y-123885038D01*
X112423110Y-123313736D01*
X112704965Y-123320428D01*
X112786342Y-123322253D01*
X112867972Y-123323890D01*
X112945593Y-123325268D01*
X113014943Y-123326315D01*
X113071760Y-123326961D01*
X113106200Y-123327140D01*
X113225580Y-123327160D01*
X113225580Y-125928120D01*
X110624386Y-125928120D01*
X110629700Y-125120400D01*
X111206280Y-125124460D01*
X111312410Y-125125102D01*
X111412219Y-125125500D01*
X111503901Y-125125661D01*
X111585652Y-125125593D01*
X111655666Y-125125301D01*
X111712136Y-125124792D01*
X111753258Y-125124074D01*
X111777227Y-125123152D01*
X111782860Y-125122327D01*
X111775886Y-125112937D01*
X111757534Y-125094045D01*
X111731656Y-125069599D01*
X111729520Y-125067652D01*
X111493206Y-124839578D01*
X111273980Y-124600584D01*
X111072011Y-124351000D01*
X110887466Y-124091156D01*
X110720511Y-123821383D01*
X110571316Y-123542013D01*
X110440047Y-123253374D01*
X110326872Y-122955798D01*
X110231958Y-122649615D01*
X110155473Y-122335155D01*
X110097585Y-122012750D01*
X110069346Y-121793000D01*
X110063415Y-121724325D01*
X110058557Y-121639855D01*
X110054793Y-121543377D01*
X110052144Y-121438676D01*
X110050632Y-121329539D01*
X110050279Y-121219752D01*
X110051107Y-121113102D01*
X110053136Y-121013375D01*
X110056389Y-120924356D01*
X110060888Y-120849834D01*
X110063771Y-120817640D01*
X110098696Y-120539831D01*
X110144590Y-120275822D01*
X110202243Y-120021825D01*
X110272447Y-119774055D01*
X110298758Y-119692241D01*
X110408697Y-119391929D01*
X110536280Y-119100936D01*
X110680885Y-118819921D01*
X110841892Y-118549547D01*
X111018681Y-118290473D01*
X111210631Y-118043362D01*
X111417123Y-117808874D01*
X111637535Y-117587670D01*
X111871247Y-117380411D01*
X112117640Y-117187758D01*
X112376091Y-117010372D01*
X112645982Y-116848914D01*
X112926691Y-116704046D01*
X113217598Y-116576427D01*
X113226723Y-116572773D01*
X113528804Y-116462407D01*
X113832467Y-116372046D01*
X114138736Y-116301508D01*
X114448633Y-116250608D01*
X114763184Y-116219162D01*
X115083410Y-116206985D01*
X115252500Y-116208207D01*
D13*
%TO.C,C1*%
X91547733Y-114806000D02*
X91840267Y-114806000D01*
X91547733Y-115826000D02*
X91840267Y-115826000D01*
%TO.C,C3*%
X101226233Y-138174000D02*
X101518767Y-138174000D01*
X101226233Y-139194000D02*
X101518767Y-139194000D01*
%TO.C,C4*%
X101518767Y-137289000D02*
X101226233Y-137289000D01*
X101518767Y-136269000D02*
X101226233Y-136269000D01*
%TO.C,C5*%
X101226233Y-135384000D02*
X101518767Y-135384000D01*
X101226233Y-134364000D02*
X101518767Y-134364000D01*
%TO.C,C6*%
X101518767Y-126744000D02*
X101226233Y-126744000D01*
X101518767Y-127764000D02*
X101226233Y-127764000D01*
%TO.C,C7*%
X101226233Y-130554000D02*
X101518767Y-130554000D01*
X101226233Y-131574000D02*
X101518767Y-131574000D01*
%TO.C,C8*%
X101518767Y-129669000D02*
X101226233Y-129669000D01*
X101518767Y-128649000D02*
X101226233Y-128649000D01*
%TO.C,C9*%
X101226233Y-133479000D02*
X101518767Y-133479000D01*
X101226233Y-132459000D02*
X101518767Y-132459000D01*
%TO.C,D1*%
X69435000Y-104084000D02*
X72120000Y-104084000D01*
X69435000Y-102164000D02*
X69435000Y-104084000D01*
X72120000Y-102164000D02*
X69435000Y-102164000D01*
%TO.C,F1*%
X101598252Y-141426000D02*
X101075748Y-141426000D01*
X101598252Y-140006000D02*
X101075748Y-140006000D01*
%TO.C,F2*%
X111050000Y-114038748D02*
X111050000Y-114561252D01*
X112470000Y-114038748D02*
X112470000Y-114561252D01*
%TO.C,J4*%
X109474000Y-127892500D02*
X110804000Y-127892500D01*
X110804000Y-127892500D02*
X110804000Y-129222500D01*
X108204000Y-127892500D02*
X108204000Y-130492500D01*
X108204000Y-130492500D02*
X110804000Y-130492500D01*
X110804000Y-130492500D02*
X110804000Y-140712500D01*
X105604000Y-140712500D02*
X110804000Y-140712500D01*
X105604000Y-127892500D02*
X105604000Y-140712500D01*
X105604000Y-127892500D02*
X108204000Y-127892500D01*
%TO.C,J6*%
X110042000Y-116078000D02*
X110042000Y-117408000D01*
X110042000Y-117408000D02*
X108712000Y-117408000D01*
X107442000Y-117408000D02*
X97222000Y-117408000D01*
X97222000Y-114748000D02*
X97222000Y-117408000D01*
X107442000Y-114748000D02*
X97222000Y-114748000D01*
X107442000Y-114748000D02*
X107442000Y-117408000D01*
%TO.C,R1*%
X71055776Y-119077000D02*
X71565224Y-119077000D01*
X71055776Y-118032000D02*
X71565224Y-118032000D01*
%TO.C,R2*%
X69023776Y-124128000D02*
X69533224Y-124128000D01*
X69023776Y-125173000D02*
X69533224Y-125173000D01*
%TO.C,R3*%
X69023776Y-131269000D02*
X69533224Y-131269000D01*
X69023776Y-130224000D02*
X69533224Y-130224000D01*
%TO.C,R4*%
X71055776Y-110412000D02*
X71565224Y-110412000D01*
X71055776Y-111457000D02*
X71565224Y-111457000D01*
%TO.C,R5*%
X80899724Y-102982500D02*
X80390276Y-102982500D01*
X80899724Y-104027500D02*
X80390276Y-104027500D01*
%TO.C,R6*%
X84709724Y-104027500D02*
X84200276Y-104027500D01*
X84709724Y-102982500D02*
X84200276Y-102982500D01*
%TO.C,R7*%
X71055776Y-114984000D02*
X71565224Y-114984000D01*
X71055776Y-116029000D02*
X71565224Y-116029000D01*
%TO.C,R8*%
X71055776Y-122125000D02*
X71565224Y-122125000D01*
X71055776Y-121080000D02*
X71565224Y-121080000D01*
%TO.C,R9*%
X69023776Y-125652000D02*
X69533224Y-125652000D01*
X69023776Y-126697000D02*
X69533224Y-126697000D01*
%TO.C,R10*%
X71055776Y-109933000D02*
X71565224Y-109933000D01*
X71055776Y-108888000D02*
X71565224Y-108888000D01*
%TO.C,R11*%
X71055776Y-114505000D02*
X71565224Y-114505000D01*
X71055776Y-113460000D02*
X71565224Y-113460000D01*
%TO.C,R12*%
X71055776Y-119556000D02*
X71565224Y-119556000D01*
X71055776Y-120601000D02*
X71565224Y-120601000D01*
%TO.C,R13*%
X71055776Y-107364000D02*
X71565224Y-107364000D01*
X71055776Y-108409000D02*
X71565224Y-108409000D01*
%TO.C,R14*%
X69023776Y-129745000D02*
X69533224Y-129745000D01*
X69023776Y-128700000D02*
X69533224Y-128700000D01*
%TO.C,R15*%
X71055776Y-112981000D02*
X71565224Y-112981000D01*
X71055776Y-111936000D02*
X71565224Y-111936000D01*
%TO.C,R16*%
X71055776Y-116508000D02*
X71565224Y-116508000D01*
X71055776Y-117553000D02*
X71565224Y-117553000D01*
%TO.C,R17*%
X69023776Y-123649000D02*
X69533224Y-123649000D01*
X69023776Y-122604000D02*
X69533224Y-122604000D01*
%TO.C,R18*%
X69023776Y-127176000D02*
X69533224Y-127176000D01*
X69023776Y-128221000D02*
X69533224Y-128221000D01*
%TO.C,R19*%
X53698224Y-111237500D02*
X53188776Y-111237500D01*
X53698224Y-112282500D02*
X53188776Y-112282500D01*
%TO.C,R20*%
X53698224Y-116854500D02*
X53188776Y-116854500D01*
X53698224Y-115809500D02*
X53188776Y-115809500D01*
%TO.C,R21*%
X53698224Y-121905500D02*
X53188776Y-121905500D01*
X53698224Y-122950500D02*
X53188776Y-122950500D01*
%TO.C,R22*%
X53698224Y-127522500D02*
X53188776Y-127522500D01*
X53698224Y-126477500D02*
X53188776Y-126477500D01*
%TO.C,R23*%
X53698224Y-109234500D02*
X53188776Y-109234500D01*
X53698224Y-108189500D02*
X53188776Y-108189500D01*
%TO.C,R24*%
X53698224Y-114285500D02*
X53188776Y-114285500D01*
X53698224Y-115330500D02*
X53188776Y-115330500D01*
%TO.C,R25*%
X53698224Y-121426500D02*
X53188776Y-121426500D01*
X53698224Y-120381500D02*
X53188776Y-120381500D01*
%TO.C,R26*%
X53698224Y-128001500D02*
X53188776Y-128001500D01*
X53698224Y-129046500D02*
X53188776Y-129046500D01*
%TO.C,R27*%
X53698224Y-132573500D02*
X53188776Y-132573500D01*
X53698224Y-133618500D02*
X53188776Y-133618500D01*
%TO.C,R28*%
X53698224Y-109713500D02*
X53188776Y-109713500D01*
X53698224Y-110758500D02*
X53188776Y-110758500D01*
%TO.C,R29*%
X53698224Y-118378500D02*
X53188776Y-118378500D01*
X53698224Y-117333500D02*
X53188776Y-117333500D01*
%TO.C,R30*%
X53698224Y-123429500D02*
X53188776Y-123429500D01*
X53698224Y-124474500D02*
X53188776Y-124474500D01*
%TO.C,R31*%
X53698224Y-129525500D02*
X53188776Y-129525500D01*
X53698224Y-130570500D02*
X53188776Y-130570500D01*
%TO.C,R32*%
X53698224Y-113806500D02*
X53188776Y-113806500D01*
X53698224Y-112761500D02*
X53188776Y-112761500D01*
%TO.C,R33*%
X53698224Y-118857500D02*
X53188776Y-118857500D01*
X53698224Y-119902500D02*
X53188776Y-119902500D01*
%TO.C,R34*%
X53698224Y-125998500D02*
X53188776Y-125998500D01*
X53698224Y-124953500D02*
X53188776Y-124953500D01*
%TO.C,R35*%
X53698224Y-132094500D02*
X53188776Y-132094500D01*
X53698224Y-131049500D02*
X53188776Y-131049500D01*
%TO.C,R36*%
X97282724Y-136256500D02*
X96773276Y-136256500D01*
X97282724Y-137301500D02*
X96773276Y-137301500D01*
%TO.C,R37*%
X97282724Y-134351500D02*
X96773276Y-134351500D01*
X97282724Y-135396500D02*
X96773276Y-135396500D01*
%TO.C,R38*%
X97282724Y-128636500D02*
X96773276Y-128636500D01*
X97282724Y-129681500D02*
X96773276Y-129681500D01*
%TO.C,R39*%
X97282724Y-127776500D02*
X96773276Y-127776500D01*
X97282724Y-126731500D02*
X96773276Y-126731500D01*
%TO.C,R40*%
X97282724Y-138161500D02*
X96773276Y-138161500D01*
X97282724Y-139206500D02*
X96773276Y-139206500D01*
%TO.C,R41*%
X97282724Y-133491500D02*
X96773276Y-133491500D01*
X97282724Y-132446500D02*
X96773276Y-132446500D01*
%TO.C,R42*%
X97282724Y-131586500D02*
X96773276Y-131586500D01*
X97282724Y-130541500D02*
X96773276Y-130541500D01*
%TO.C,R43*%
X76050224Y-103646500D02*
X75540776Y-103646500D01*
X76050224Y-102601500D02*
X75540776Y-102601500D01*
%TO.C,U2*%
X61605500Y-143935000D02*
X61375500Y-143935000D01*
X56885500Y-143935000D02*
X57115500Y-143935000D01*
X56885500Y-143935000D02*
X56885500Y-141215000D01*
X56885500Y-141215000D02*
X58195500Y-141215000D01*
X57115500Y-145075000D02*
X57115500Y-143935000D01*
X61605500Y-141215000D02*
X61605500Y-143935000D01*
X60295500Y-141215000D02*
X61605500Y-141215000D01*
%TO.C,C10*%
X91547733Y-116457000D02*
X91840267Y-116457000D01*
X91547733Y-117477000D02*
X91840267Y-117477000D01*
%TO.C,C12*%
X88199500Y-109657267D02*
X88199500Y-109364733D01*
X89219500Y-109657267D02*
X89219500Y-109364733D01*
%TO.C,C13*%
X88394000Y-125393233D02*
X88394000Y-125685767D01*
X87374000Y-125393233D02*
X87374000Y-125685767D01*
%TO.C,C14*%
X89198233Y-128970500D02*
X89490767Y-128970500D01*
X89198233Y-127950500D02*
X89490767Y-127950500D01*
%TO.C,C15*%
X89870233Y-133856000D02*
X90162767Y-133856000D01*
X89870233Y-134876000D02*
X90162767Y-134876000D01*
%TO.C,R44*%
X74153500Y-138327224D02*
X74153500Y-137817776D01*
X75198500Y-138327224D02*
X75198500Y-137817776D01*
%TO.C,R45*%
X73978224Y-131811500D02*
X73468776Y-131811500D01*
X73978224Y-132856500D02*
X73468776Y-132856500D01*
%TO.C,R46*%
X59919776Y-139333500D02*
X60429224Y-139333500D01*
X59919776Y-138288500D02*
X60429224Y-138288500D01*
%TO.C,R47*%
X58587724Y-137555500D02*
X58078276Y-137555500D01*
X58587724Y-136510500D02*
X58078276Y-136510500D01*
%TO.C,U3*%
X76865500Y-118046500D02*
X76865500Y-121906500D01*
X76865500Y-121906500D02*
X77100500Y-121906500D01*
X76865500Y-118046500D02*
X76865500Y-114186500D01*
X76865500Y-114186500D02*
X77100500Y-114186500D01*
X89885500Y-118046500D02*
X89885500Y-121906500D01*
X89885500Y-121906500D02*
X89650500Y-121906500D01*
X89885500Y-118046500D02*
X89885500Y-114186500D01*
X89885500Y-114186500D02*
X89650500Y-114186500D01*
X89650500Y-114186500D02*
X89650500Y-112496500D01*
%TO.C,U4*%
X79665500Y-122618500D02*
X79665500Y-125378500D01*
X79665500Y-125378500D02*
X79940500Y-125378500D01*
X79665500Y-122618500D02*
X79665500Y-119858500D01*
X79665500Y-119858500D02*
X79940500Y-119858500D01*
X87085500Y-122618500D02*
X87085500Y-125378500D01*
X87085500Y-125378500D02*
X86810500Y-125378500D01*
X87085500Y-122618500D02*
X87085500Y-119858500D01*
X87085500Y-119858500D02*
X86810500Y-119858500D01*
X86810500Y-119858500D02*
X86810500Y-118168500D01*
%TO.C,U5*%
X81851500Y-144462000D02*
X85711500Y-144462000D01*
X85711500Y-144462000D02*
X85711500Y-144172000D01*
X81851500Y-144462000D02*
X77991500Y-144462000D01*
X77991500Y-144462000D02*
X77991500Y-144172000D01*
X81851500Y-128842000D02*
X85711500Y-128842000D01*
X85711500Y-128842000D02*
X85711500Y-129132000D01*
X81851500Y-128842000D02*
X77991500Y-128842000D01*
X77991500Y-128842000D02*
X77991500Y-129132000D01*
X77991500Y-129132000D02*
X76201500Y-129132000D01*
%TO.C,J7*%
X111222000Y-149480000D02*
X111222000Y-150970000D01*
X111222000Y-150970000D02*
X112562000Y-150970000D01*
X111222000Y-145160000D02*
X111222000Y-143670000D01*
X111222000Y-143670000D02*
X112562000Y-143670000D01*
X115282000Y-150970000D02*
X117022000Y-150970000D01*
X117022000Y-150970000D02*
X117022000Y-143670000D01*
X117022000Y-143670000D02*
X115282000Y-143670000D01*
X111222000Y-149480000D02*
X110022000Y-149480000D01*
D15*
%TO.C,J5*%
X118646000Y-128100000D02*
X118646000Y-127850000D01*
X120646000Y-128100000D02*
X118646000Y-128100000D01*
X120646000Y-127800000D02*
X120646000Y-128100000D01*
X118646000Y-141500000D02*
X118646000Y-141800000D01*
X120646000Y-141500000D02*
X118646000Y-141500000D01*
X120646000Y-141800000D02*
X120646000Y-141500000D01*
X120646000Y-141800000D02*
X125096000Y-141800000D01*
X118646000Y-141800000D02*
X120646000Y-141800000D01*
X112196000Y-141800000D02*
X118646000Y-141800000D01*
X112196000Y-127800000D02*
X112196000Y-141800000D01*
X120646000Y-127800000D02*
X112196000Y-127800000D01*
X125096000Y-127800000D02*
X120646000Y-127800000D01*
X125096000Y-141800000D02*
X125096000Y-127800000D01*
D13*
%TO.C,C16*%
X85632748Y-109247000D02*
X86155252Y-109247000D01*
X85632748Y-110717000D02*
X86155252Y-110717000D01*
%TO.C,C17*%
X73687000Y-128749248D02*
X73687000Y-129271752D01*
X75157000Y-128749248D02*
X75157000Y-129271752D01*
%TO.C,C18*%
X88673000Y-131289248D02*
X88673000Y-131811752D01*
X90143000Y-131289248D02*
X90143000Y-131811752D01*
%TO.C,C19*%
X55916500Y-143143248D02*
X55916500Y-143665752D01*
X54446500Y-143143248D02*
X54446500Y-143665752D01*
%TO.C,C20*%
X59528252Y-146458000D02*
X59005748Y-146458000D01*
X59528252Y-147928000D02*
X59005748Y-147928000D01*
%TO.C,U6*%
X68696000Y-149692000D02*
X70496000Y-149692000D01*
X70496000Y-146472000D02*
X68046000Y-146472000D01*
%TO.C,J2*%
X111785000Y-110988000D02*
X106835000Y-110988000D01*
X98385000Y-104988000D02*
X111785000Y-104988000D01*
X98385000Y-110988000D02*
X98385000Y-108388000D01*
X111785000Y-110988000D02*
X111785000Y-108388000D01*
X98385000Y-110988000D02*
X103335000Y-110988000D01*
X112445000Y-101528000D02*
X112445000Y-92988000D01*
X112445000Y-92988000D02*
X97725000Y-92988000D01*
X97725000Y-101528000D02*
X97725000Y-92988000D01*
X112445000Y-107208000D02*
X97725000Y-107208000D01*
X112445000Y-107208000D02*
X112445000Y-105228000D01*
X97725000Y-105228000D02*
X97725000Y-107208000D01*
X109085000Y-108088000D02*
X108585000Y-107588000D01*
X108585000Y-107588000D02*
X108085000Y-108088000D01*
X108085000Y-108088000D02*
X109085000Y-108088000D01*
%TO.C,C2*%
X73887000Y-147799248D02*
X73887000Y-148321752D01*
X72417000Y-147799248D02*
X72417000Y-148321752D01*
%TO.C,C11*%
X66775000Y-149126752D02*
X66775000Y-148604248D01*
X65305000Y-149126752D02*
X65305000Y-148604248D01*
%TO.C,C21*%
X67338752Y-145769000D02*
X66816248Y-145769000D01*
X67338752Y-144299000D02*
X66816248Y-144299000D01*
%TO.C,R48*%
X62723500Y-143661224D02*
X62723500Y-143151776D01*
X63768500Y-143661224D02*
X63768500Y-143151776D01*
%TO.C,R49*%
X68594500Y-142137224D02*
X68594500Y-141627776D01*
X67549500Y-142137224D02*
X67549500Y-141627776D01*
%TO.C,R50*%
X74065224Y-151398500D02*
X73555776Y-151398500D01*
X74065224Y-150353500D02*
X73555776Y-150353500D01*
%TO.C,R51*%
X69850724Y-150353500D02*
X69341276Y-150353500D01*
X69850724Y-151398500D02*
X69341276Y-151398500D01*
%TO.C,R52*%
X76097224Y-105424500D02*
X75587776Y-105424500D01*
X76097224Y-104379500D02*
X75587776Y-104379500D01*
%TO.C,D2*%
X97441500Y-122484000D02*
X94756500Y-122484000D01*
X94756500Y-122484000D02*
X94756500Y-124404000D01*
X94756500Y-124404000D02*
X97441500Y-124404000D01*
%TO.C,R53*%
X94727500Y-120928224D02*
X94727500Y-120418776D01*
X95772500Y-120928224D02*
X95772500Y-120418776D01*
%TO.C,R54*%
X64897724Y-102630500D02*
X64388276Y-102630500D01*
X64897724Y-101585500D02*
X64388276Y-101585500D01*
%TO.C,R56*%
D10*
X76954142Y-110180380D02*
X76620809Y-109704190D01*
X76382714Y-110180380D02*
X76382714Y-109180380D01*
X76763666Y-109180380D01*
X76858904Y-109228000D01*
X76906523Y-109275619D01*
X76954142Y-109370857D01*
X76954142Y-109513714D01*
X76906523Y-109608952D01*
X76858904Y-109656571D01*
X76763666Y-109704190D01*
X76382714Y-109704190D01*
X77858904Y-109180380D02*
X77382714Y-109180380D01*
X77335095Y-109656571D01*
X77382714Y-109608952D01*
X77477952Y-109561333D01*
X77716047Y-109561333D01*
X77811285Y-109608952D01*
X77858904Y-109656571D01*
X77906523Y-109751809D01*
X77906523Y-109989904D01*
X77858904Y-110085142D01*
X77811285Y-110132761D01*
X77716047Y-110180380D01*
X77477952Y-110180380D01*
X77382714Y-110132761D01*
X77335095Y-110085142D01*
X78763666Y-109180380D02*
X78573190Y-109180380D01*
X78477952Y-109228000D01*
X78430333Y-109275619D01*
X78335095Y-109418476D01*
X78287476Y-109608952D01*
X78287476Y-109989904D01*
X78335095Y-110085142D01*
X78382714Y-110132761D01*
X78477952Y-110180380D01*
X78668428Y-110180380D01*
X78763666Y-110132761D01*
X78811285Y-110085142D01*
X78858904Y-109989904D01*
X78858904Y-109751809D01*
X78811285Y-109656571D01*
X78763666Y-109608952D01*
X78668428Y-109561333D01*
X78477952Y-109561333D01*
X78382714Y-109608952D01*
X78335095Y-109656571D01*
X78287476Y-109751809D01*
%TO.C,R55*%
X76954142Y-111450380D02*
X76620809Y-110974190D01*
X76382714Y-111450380D02*
X76382714Y-110450380D01*
X76763666Y-110450380D01*
X76858904Y-110498000D01*
X76906523Y-110545619D01*
X76954142Y-110640857D01*
X76954142Y-110783714D01*
X76906523Y-110878952D01*
X76858904Y-110926571D01*
X76763666Y-110974190D01*
X76382714Y-110974190D01*
X77858904Y-110450380D02*
X77382714Y-110450380D01*
X77335095Y-110926571D01*
X77382714Y-110878952D01*
X77477952Y-110831333D01*
X77716047Y-110831333D01*
X77811285Y-110878952D01*
X77858904Y-110926571D01*
X77906523Y-111021809D01*
X77906523Y-111259904D01*
X77858904Y-111355142D01*
X77811285Y-111402761D01*
X77716047Y-111450380D01*
X77477952Y-111450380D01*
X77382714Y-111402761D01*
X77335095Y-111355142D01*
X78811285Y-110450380D02*
X78335095Y-110450380D01*
X78287476Y-110926571D01*
X78335095Y-110878952D01*
X78430333Y-110831333D01*
X78668428Y-110831333D01*
X78763666Y-110878952D01*
X78811285Y-110926571D01*
X78858904Y-111021809D01*
X78858904Y-111259904D01*
X78811285Y-111355142D01*
X78763666Y-111402761D01*
X78668428Y-111450380D01*
X78430333Y-111450380D01*
X78335095Y-111402761D01*
X78287476Y-111355142D01*
%TO.C,D4*%
X78001904Y-105481380D02*
X78001904Y-104481380D01*
X78240000Y-104481380D01*
X78382857Y-104529000D01*
X78478095Y-104624238D01*
X78525714Y-104719476D01*
X78573333Y-104909952D01*
X78573333Y-105052809D01*
X78525714Y-105243285D01*
X78478095Y-105338523D01*
X78382857Y-105433761D01*
X78240000Y-105481380D01*
X78001904Y-105481380D01*
X79430476Y-104814714D02*
X79430476Y-105481380D01*
X79192380Y-104433761D02*
X78954285Y-105148047D01*
X79573333Y-105148047D01*
%TO.C,D3*%
X80160904Y-110434380D02*
X80160904Y-109434380D01*
X80399000Y-109434380D01*
X80541857Y-109482000D01*
X80637095Y-109577238D01*
X80684714Y-109672476D01*
X80732333Y-109862952D01*
X80732333Y-110005809D01*
X80684714Y-110196285D01*
X80637095Y-110291523D01*
X80541857Y-110386761D01*
X80399000Y-110434380D01*
X80160904Y-110434380D01*
X81065666Y-109434380D02*
X81684714Y-109434380D01*
X81351380Y-109815333D01*
X81494238Y-109815333D01*
X81589476Y-109862952D01*
X81637095Y-109910571D01*
X81684714Y-110005809D01*
X81684714Y-110243904D01*
X81637095Y-110339142D01*
X81589476Y-110386761D01*
X81494238Y-110434380D01*
X81208523Y-110434380D01*
X81113285Y-110386761D01*
X81065666Y-110339142D01*
%TO.C,C1*%
X91527333Y-114243142D02*
X91479714Y-114290761D01*
X91336857Y-114338380D01*
X91241619Y-114338380D01*
X91098761Y-114290761D01*
X91003523Y-114195523D01*
X90955904Y-114100285D01*
X90908285Y-113909809D01*
X90908285Y-113766952D01*
X90955904Y-113576476D01*
X91003523Y-113481238D01*
X91098761Y-113386000D01*
X91241619Y-113338380D01*
X91336857Y-113338380D01*
X91479714Y-113386000D01*
X91527333Y-113433619D01*
X92479714Y-114338380D02*
X91908285Y-114338380D01*
X92194000Y-114338380D02*
X92194000Y-113338380D01*
X92098761Y-113481238D01*
X92003523Y-113576476D01*
X91908285Y-113624095D01*
%TO.C,C3*%
X103973333Y-139041142D02*
X103925714Y-139088761D01*
X103782857Y-139136380D01*
X103687619Y-139136380D01*
X103544761Y-139088761D01*
X103449523Y-138993523D01*
X103401904Y-138898285D01*
X103354285Y-138707809D01*
X103354285Y-138564952D01*
X103401904Y-138374476D01*
X103449523Y-138279238D01*
X103544761Y-138184000D01*
X103687619Y-138136380D01*
X103782857Y-138136380D01*
X103925714Y-138184000D01*
X103973333Y-138231619D01*
X104306666Y-138136380D02*
X104925714Y-138136380D01*
X104592380Y-138517333D01*
X104735238Y-138517333D01*
X104830476Y-138564952D01*
X104878095Y-138612571D01*
X104925714Y-138707809D01*
X104925714Y-138945904D01*
X104878095Y-139041142D01*
X104830476Y-139088761D01*
X104735238Y-139136380D01*
X104449523Y-139136380D01*
X104354285Y-139088761D01*
X104306666Y-139041142D01*
%TO.C,C4*%
X103973333Y-137136142D02*
X103925714Y-137183761D01*
X103782857Y-137231380D01*
X103687619Y-137231380D01*
X103544761Y-137183761D01*
X103449523Y-137088523D01*
X103401904Y-136993285D01*
X103354285Y-136802809D01*
X103354285Y-136659952D01*
X103401904Y-136469476D01*
X103449523Y-136374238D01*
X103544761Y-136279000D01*
X103687619Y-136231380D01*
X103782857Y-136231380D01*
X103925714Y-136279000D01*
X103973333Y-136326619D01*
X104830476Y-136564714D02*
X104830476Y-137231380D01*
X104592380Y-136183761D02*
X104354285Y-136898047D01*
X104973333Y-136898047D01*
%TO.C,C5*%
X103973333Y-135231142D02*
X103925714Y-135278761D01*
X103782857Y-135326380D01*
X103687619Y-135326380D01*
X103544761Y-135278761D01*
X103449523Y-135183523D01*
X103401904Y-135088285D01*
X103354285Y-134897809D01*
X103354285Y-134754952D01*
X103401904Y-134564476D01*
X103449523Y-134469238D01*
X103544761Y-134374000D01*
X103687619Y-134326380D01*
X103782857Y-134326380D01*
X103925714Y-134374000D01*
X103973333Y-134421619D01*
X104878095Y-134326380D02*
X104401904Y-134326380D01*
X104354285Y-134802571D01*
X104401904Y-134754952D01*
X104497142Y-134707333D01*
X104735238Y-134707333D01*
X104830476Y-134754952D01*
X104878095Y-134802571D01*
X104925714Y-134897809D01*
X104925714Y-135135904D01*
X104878095Y-135231142D01*
X104830476Y-135278761D01*
X104735238Y-135326380D01*
X104497142Y-135326380D01*
X104401904Y-135278761D01*
X104354285Y-135231142D01*
%TO.C,C6*%
X103973333Y-127611142D02*
X103925714Y-127658761D01*
X103782857Y-127706380D01*
X103687619Y-127706380D01*
X103544761Y-127658761D01*
X103449523Y-127563523D01*
X103401904Y-127468285D01*
X103354285Y-127277809D01*
X103354285Y-127134952D01*
X103401904Y-126944476D01*
X103449523Y-126849238D01*
X103544761Y-126754000D01*
X103687619Y-126706380D01*
X103782857Y-126706380D01*
X103925714Y-126754000D01*
X103973333Y-126801619D01*
X104830476Y-126706380D02*
X104640000Y-126706380D01*
X104544761Y-126754000D01*
X104497142Y-126801619D01*
X104401904Y-126944476D01*
X104354285Y-127134952D01*
X104354285Y-127515904D01*
X104401904Y-127611142D01*
X104449523Y-127658761D01*
X104544761Y-127706380D01*
X104735238Y-127706380D01*
X104830476Y-127658761D01*
X104878095Y-127611142D01*
X104925714Y-127515904D01*
X104925714Y-127277809D01*
X104878095Y-127182571D01*
X104830476Y-127134952D01*
X104735238Y-127087333D01*
X104544761Y-127087333D01*
X104449523Y-127134952D01*
X104401904Y-127182571D01*
X104354285Y-127277809D01*
%TO.C,C7*%
X103973333Y-131421142D02*
X103925714Y-131468761D01*
X103782857Y-131516380D01*
X103687619Y-131516380D01*
X103544761Y-131468761D01*
X103449523Y-131373523D01*
X103401904Y-131278285D01*
X103354285Y-131087809D01*
X103354285Y-130944952D01*
X103401904Y-130754476D01*
X103449523Y-130659238D01*
X103544761Y-130564000D01*
X103687619Y-130516380D01*
X103782857Y-130516380D01*
X103925714Y-130564000D01*
X103973333Y-130611619D01*
X104306666Y-130516380D02*
X104973333Y-130516380D01*
X104544761Y-131516380D01*
%TO.C,C8*%
X103973333Y-129643142D02*
X103925714Y-129690761D01*
X103782857Y-129738380D01*
X103687619Y-129738380D01*
X103544761Y-129690761D01*
X103449523Y-129595523D01*
X103401904Y-129500285D01*
X103354285Y-129309809D01*
X103354285Y-129166952D01*
X103401904Y-128976476D01*
X103449523Y-128881238D01*
X103544761Y-128786000D01*
X103687619Y-128738380D01*
X103782857Y-128738380D01*
X103925714Y-128786000D01*
X103973333Y-128833619D01*
X104544761Y-129166952D02*
X104449523Y-129119333D01*
X104401904Y-129071714D01*
X104354285Y-128976476D01*
X104354285Y-128928857D01*
X104401904Y-128833619D01*
X104449523Y-128786000D01*
X104544761Y-128738380D01*
X104735238Y-128738380D01*
X104830476Y-128786000D01*
X104878095Y-128833619D01*
X104925714Y-128928857D01*
X104925714Y-128976476D01*
X104878095Y-129071714D01*
X104830476Y-129119333D01*
X104735238Y-129166952D01*
X104544761Y-129166952D01*
X104449523Y-129214571D01*
X104401904Y-129262190D01*
X104354285Y-129357428D01*
X104354285Y-129547904D01*
X104401904Y-129643142D01*
X104449523Y-129690761D01*
X104544761Y-129738380D01*
X104735238Y-129738380D01*
X104830476Y-129690761D01*
X104878095Y-129643142D01*
X104925714Y-129547904D01*
X104925714Y-129357428D01*
X104878095Y-129262190D01*
X104830476Y-129214571D01*
X104735238Y-129166952D01*
%TO.C,C9*%
X103973333Y-133326142D02*
X103925714Y-133373761D01*
X103782857Y-133421380D01*
X103687619Y-133421380D01*
X103544761Y-133373761D01*
X103449523Y-133278523D01*
X103401904Y-133183285D01*
X103354285Y-132992809D01*
X103354285Y-132849952D01*
X103401904Y-132659476D01*
X103449523Y-132564238D01*
X103544761Y-132469000D01*
X103687619Y-132421380D01*
X103782857Y-132421380D01*
X103925714Y-132469000D01*
X103973333Y-132516619D01*
X104449523Y-133421380D02*
X104640000Y-133421380D01*
X104735238Y-133373761D01*
X104782857Y-133326142D01*
X104878095Y-133183285D01*
X104925714Y-132992809D01*
X104925714Y-132611857D01*
X104878095Y-132516619D01*
X104830476Y-132469000D01*
X104735238Y-132421380D01*
X104544761Y-132421380D01*
X104449523Y-132469000D01*
X104401904Y-132516619D01*
X104354285Y-132611857D01*
X104354285Y-132849952D01*
X104401904Y-132945190D01*
X104449523Y-132992809D01*
X104544761Y-133040428D01*
X104735238Y-133040428D01*
X104830476Y-132992809D01*
X104878095Y-132945190D01*
X104925714Y-132849952D01*
%TO.C,D1*%
X71143904Y-105608380D02*
X71143904Y-104608380D01*
X71382000Y-104608380D01*
X71524857Y-104656000D01*
X71620095Y-104751238D01*
X71667714Y-104846476D01*
X71715333Y-105036952D01*
X71715333Y-105179809D01*
X71667714Y-105370285D01*
X71620095Y-105465523D01*
X71524857Y-105560761D01*
X71382000Y-105608380D01*
X71143904Y-105608380D01*
X72667714Y-105608380D02*
X72096285Y-105608380D01*
X72382000Y-105608380D02*
X72382000Y-104608380D01*
X72286761Y-104751238D01*
X72191523Y-104846476D01*
X72096285Y-104894095D01*
%TO.C,F1*%
X101003666Y-142294571D02*
X100670333Y-142294571D01*
X100670333Y-142818380D02*
X100670333Y-141818380D01*
X101146523Y-141818380D01*
X102051285Y-142818380D02*
X101479857Y-142818380D01*
X101765571Y-142818380D02*
X101765571Y-141818380D01*
X101670333Y-141961238D01*
X101575095Y-142056476D01*
X101479857Y-142104095D01*
%TO.C,F2*%
X113338571Y-114633333D02*
X113338571Y-114966666D01*
X113862380Y-114966666D02*
X112862380Y-114966666D01*
X112862380Y-114490476D01*
X112957619Y-114157142D02*
X112910000Y-114109523D01*
X112862380Y-114014285D01*
X112862380Y-113776190D01*
X112910000Y-113680952D01*
X112957619Y-113633333D01*
X113052857Y-113585714D01*
X113148095Y-113585714D01*
X113290952Y-113633333D01*
X113862380Y-114204761D01*
X113862380Y-113585714D01*
%TO.C,J4*%
X107553166Y-141184380D02*
X107553166Y-141898666D01*
X107505547Y-142041523D01*
X107410309Y-142136761D01*
X107267452Y-142184380D01*
X107172214Y-142184380D01*
X108457928Y-141517714D02*
X108457928Y-142184380D01*
X108219833Y-141136761D02*
X107981738Y-141851047D01*
X108600785Y-141851047D01*
%TO.C,J6*%
X95464380Y-116411333D02*
X96178666Y-116411333D01*
X96321523Y-116458952D01*
X96416761Y-116554190D01*
X96464380Y-116697047D01*
X96464380Y-116792285D01*
X95464380Y-115506571D02*
X95464380Y-115697047D01*
X95512000Y-115792285D01*
X95559619Y-115839904D01*
X95702476Y-115935142D01*
X95892952Y-115982761D01*
X96273904Y-115982761D01*
X96369142Y-115935142D01*
X96416761Y-115887523D01*
X96464380Y-115792285D01*
X96464380Y-115601809D01*
X96416761Y-115506571D01*
X96369142Y-115458952D01*
X96273904Y-115411333D01*
X96035809Y-115411333D01*
X95940571Y-115458952D01*
X95892952Y-115506571D01*
X95845333Y-115601809D01*
X95845333Y-115792285D01*
X95892952Y-115887523D01*
X95940571Y-115935142D01*
X96035809Y-115982761D01*
%TO.C,R1*%
X66127333Y-119070380D02*
X65794000Y-118594190D01*
X65555904Y-119070380D02*
X65555904Y-118070380D01*
X65936857Y-118070380D01*
X66032095Y-118118000D01*
X66079714Y-118165619D01*
X66127333Y-118260857D01*
X66127333Y-118403714D01*
X66079714Y-118498952D01*
X66032095Y-118546571D01*
X65936857Y-118594190D01*
X65555904Y-118594190D01*
X67079714Y-119070380D02*
X66508285Y-119070380D01*
X66794000Y-119070380D02*
X66794000Y-118070380D01*
X66698761Y-118213238D01*
X66603523Y-118308476D01*
X66508285Y-118356095D01*
%TO.C,R2*%
X64603333Y-125166380D02*
X64270000Y-124690190D01*
X64031904Y-125166380D02*
X64031904Y-124166380D01*
X64412857Y-124166380D01*
X64508095Y-124214000D01*
X64555714Y-124261619D01*
X64603333Y-124356857D01*
X64603333Y-124499714D01*
X64555714Y-124594952D01*
X64508095Y-124642571D01*
X64412857Y-124690190D01*
X64031904Y-124690190D01*
X64984285Y-124261619D02*
X65031904Y-124214000D01*
X65127142Y-124166380D01*
X65365238Y-124166380D01*
X65460476Y-124214000D01*
X65508095Y-124261619D01*
X65555714Y-124356857D01*
X65555714Y-124452095D01*
X65508095Y-124594952D01*
X64936666Y-125166380D01*
X65555714Y-125166380D01*
%TO.C,R3*%
X64603333Y-131262380D02*
X64270000Y-130786190D01*
X64031904Y-131262380D02*
X64031904Y-130262380D01*
X64412857Y-130262380D01*
X64508095Y-130310000D01*
X64555714Y-130357619D01*
X64603333Y-130452857D01*
X64603333Y-130595714D01*
X64555714Y-130690952D01*
X64508095Y-130738571D01*
X64412857Y-130786190D01*
X64031904Y-130786190D01*
X64936666Y-130262380D02*
X65555714Y-130262380D01*
X65222380Y-130643333D01*
X65365238Y-130643333D01*
X65460476Y-130690952D01*
X65508095Y-130738571D01*
X65555714Y-130833809D01*
X65555714Y-131071904D01*
X65508095Y-131167142D01*
X65460476Y-131214761D01*
X65365238Y-131262380D01*
X65079523Y-131262380D01*
X64984285Y-131214761D01*
X64936666Y-131167142D01*
%TO.C,R4*%
X66127333Y-111450380D02*
X65794000Y-110974190D01*
X65555904Y-111450380D02*
X65555904Y-110450380D01*
X65936857Y-110450380D01*
X66032095Y-110498000D01*
X66079714Y-110545619D01*
X66127333Y-110640857D01*
X66127333Y-110783714D01*
X66079714Y-110878952D01*
X66032095Y-110926571D01*
X65936857Y-110974190D01*
X65555904Y-110974190D01*
X66984476Y-110783714D02*
X66984476Y-111450380D01*
X66746380Y-110402761D02*
X66508285Y-111117047D01*
X67127333Y-111117047D01*
%TO.C,R5*%
X80478333Y-102306380D02*
X80145000Y-101830190D01*
X79906904Y-102306380D02*
X79906904Y-101306380D01*
X80287857Y-101306380D01*
X80383095Y-101354000D01*
X80430714Y-101401619D01*
X80478333Y-101496857D01*
X80478333Y-101639714D01*
X80430714Y-101734952D01*
X80383095Y-101782571D01*
X80287857Y-101830190D01*
X79906904Y-101830190D01*
X81383095Y-101306380D02*
X80906904Y-101306380D01*
X80859285Y-101782571D01*
X80906904Y-101734952D01*
X81002142Y-101687333D01*
X81240238Y-101687333D01*
X81335476Y-101734952D01*
X81383095Y-101782571D01*
X81430714Y-101877809D01*
X81430714Y-102115904D01*
X81383095Y-102211142D01*
X81335476Y-102258761D01*
X81240238Y-102306380D01*
X81002142Y-102306380D01*
X80906904Y-102258761D01*
X80859285Y-102211142D01*
%TO.C,R6*%
X84288333Y-102306380D02*
X83955000Y-101830190D01*
X83716904Y-102306380D02*
X83716904Y-101306380D01*
X84097857Y-101306380D01*
X84193095Y-101354000D01*
X84240714Y-101401619D01*
X84288333Y-101496857D01*
X84288333Y-101639714D01*
X84240714Y-101734952D01*
X84193095Y-101782571D01*
X84097857Y-101830190D01*
X83716904Y-101830190D01*
X85145476Y-101306380D02*
X84955000Y-101306380D01*
X84859761Y-101354000D01*
X84812142Y-101401619D01*
X84716904Y-101544476D01*
X84669285Y-101734952D01*
X84669285Y-102115904D01*
X84716904Y-102211142D01*
X84764523Y-102258761D01*
X84859761Y-102306380D01*
X85050238Y-102306380D01*
X85145476Y-102258761D01*
X85193095Y-102211142D01*
X85240714Y-102115904D01*
X85240714Y-101877809D01*
X85193095Y-101782571D01*
X85145476Y-101734952D01*
X85050238Y-101687333D01*
X84859761Y-101687333D01*
X84764523Y-101734952D01*
X84716904Y-101782571D01*
X84669285Y-101877809D01*
%TO.C,R7*%
X66127333Y-116022380D02*
X65794000Y-115546190D01*
X65555904Y-116022380D02*
X65555904Y-115022380D01*
X65936857Y-115022380D01*
X66032095Y-115070000D01*
X66079714Y-115117619D01*
X66127333Y-115212857D01*
X66127333Y-115355714D01*
X66079714Y-115450952D01*
X66032095Y-115498571D01*
X65936857Y-115546190D01*
X65555904Y-115546190D01*
X66460666Y-115022380D02*
X67127333Y-115022380D01*
X66698761Y-116022380D01*
%TO.C,R8*%
X66127333Y-122118380D02*
X65794000Y-121642190D01*
X65555904Y-122118380D02*
X65555904Y-121118380D01*
X65936857Y-121118380D01*
X66032095Y-121166000D01*
X66079714Y-121213619D01*
X66127333Y-121308857D01*
X66127333Y-121451714D01*
X66079714Y-121546952D01*
X66032095Y-121594571D01*
X65936857Y-121642190D01*
X65555904Y-121642190D01*
X66698761Y-121546952D02*
X66603523Y-121499333D01*
X66555904Y-121451714D01*
X66508285Y-121356476D01*
X66508285Y-121308857D01*
X66555904Y-121213619D01*
X66603523Y-121166000D01*
X66698761Y-121118380D01*
X66889238Y-121118380D01*
X66984476Y-121166000D01*
X67032095Y-121213619D01*
X67079714Y-121308857D01*
X67079714Y-121356476D01*
X67032095Y-121451714D01*
X66984476Y-121499333D01*
X66889238Y-121546952D01*
X66698761Y-121546952D01*
X66603523Y-121594571D01*
X66555904Y-121642190D01*
X66508285Y-121737428D01*
X66508285Y-121927904D01*
X66555904Y-122023142D01*
X66603523Y-122070761D01*
X66698761Y-122118380D01*
X66889238Y-122118380D01*
X66984476Y-122070761D01*
X67032095Y-122023142D01*
X67079714Y-121927904D01*
X67079714Y-121737428D01*
X67032095Y-121642190D01*
X66984476Y-121594571D01*
X66889238Y-121546952D01*
%TO.C,R9*%
X64603333Y-126690380D02*
X64270000Y-126214190D01*
X64031904Y-126690380D02*
X64031904Y-125690380D01*
X64412857Y-125690380D01*
X64508095Y-125738000D01*
X64555714Y-125785619D01*
X64603333Y-125880857D01*
X64603333Y-126023714D01*
X64555714Y-126118952D01*
X64508095Y-126166571D01*
X64412857Y-126214190D01*
X64031904Y-126214190D01*
X65079523Y-126690380D02*
X65270000Y-126690380D01*
X65365238Y-126642761D01*
X65412857Y-126595142D01*
X65508095Y-126452285D01*
X65555714Y-126261809D01*
X65555714Y-125880857D01*
X65508095Y-125785619D01*
X65460476Y-125738000D01*
X65365238Y-125690380D01*
X65174761Y-125690380D01*
X65079523Y-125738000D01*
X65031904Y-125785619D01*
X64984285Y-125880857D01*
X64984285Y-126118952D01*
X65031904Y-126214190D01*
X65079523Y-126261809D01*
X65174761Y-126309428D01*
X65365238Y-126309428D01*
X65460476Y-126261809D01*
X65508095Y-126214190D01*
X65555714Y-126118952D01*
%TO.C,R10*%
X66159142Y-109926380D02*
X65825809Y-109450190D01*
X65587714Y-109926380D02*
X65587714Y-108926380D01*
X65968666Y-108926380D01*
X66063904Y-108974000D01*
X66111523Y-109021619D01*
X66159142Y-109116857D01*
X66159142Y-109259714D01*
X66111523Y-109354952D01*
X66063904Y-109402571D01*
X65968666Y-109450190D01*
X65587714Y-109450190D01*
X67111523Y-109926380D02*
X66540095Y-109926380D01*
X66825809Y-109926380D02*
X66825809Y-108926380D01*
X66730571Y-109069238D01*
X66635333Y-109164476D01*
X66540095Y-109212095D01*
X67730571Y-108926380D02*
X67825809Y-108926380D01*
X67921047Y-108974000D01*
X67968666Y-109021619D01*
X68016285Y-109116857D01*
X68063904Y-109307333D01*
X68063904Y-109545428D01*
X68016285Y-109735904D01*
X67968666Y-109831142D01*
X67921047Y-109878761D01*
X67825809Y-109926380D01*
X67730571Y-109926380D01*
X67635333Y-109878761D01*
X67587714Y-109831142D01*
X67540095Y-109735904D01*
X67492476Y-109545428D01*
X67492476Y-109307333D01*
X67540095Y-109116857D01*
X67587714Y-109021619D01*
X67635333Y-108974000D01*
X67730571Y-108926380D01*
%TO.C,R11*%
X66159142Y-114498380D02*
X65825809Y-114022190D01*
X65587714Y-114498380D02*
X65587714Y-113498380D01*
X65968666Y-113498380D01*
X66063904Y-113546000D01*
X66111523Y-113593619D01*
X66159142Y-113688857D01*
X66159142Y-113831714D01*
X66111523Y-113926952D01*
X66063904Y-113974571D01*
X65968666Y-114022190D01*
X65587714Y-114022190D01*
X67111523Y-114498380D02*
X66540095Y-114498380D01*
X66825809Y-114498380D02*
X66825809Y-113498380D01*
X66730571Y-113641238D01*
X66635333Y-113736476D01*
X66540095Y-113784095D01*
X68063904Y-114498380D02*
X67492476Y-114498380D01*
X67778190Y-114498380D02*
X67778190Y-113498380D01*
X67682952Y-113641238D01*
X67587714Y-113736476D01*
X67492476Y-113784095D01*
%TO.C,R12*%
X66159142Y-120594380D02*
X65825809Y-120118190D01*
X65587714Y-120594380D02*
X65587714Y-119594380D01*
X65968666Y-119594380D01*
X66063904Y-119642000D01*
X66111523Y-119689619D01*
X66159142Y-119784857D01*
X66159142Y-119927714D01*
X66111523Y-120022952D01*
X66063904Y-120070571D01*
X65968666Y-120118190D01*
X65587714Y-120118190D01*
X67111523Y-120594380D02*
X66540095Y-120594380D01*
X66825809Y-120594380D02*
X66825809Y-119594380D01*
X66730571Y-119737238D01*
X66635333Y-119832476D01*
X66540095Y-119880095D01*
X67492476Y-119689619D02*
X67540095Y-119642000D01*
X67635333Y-119594380D01*
X67873428Y-119594380D01*
X67968666Y-119642000D01*
X68016285Y-119689619D01*
X68063904Y-119784857D01*
X68063904Y-119880095D01*
X68016285Y-120022952D01*
X67444857Y-120594380D01*
X68063904Y-120594380D01*
%TO.C,R13*%
X66159142Y-108402380D02*
X65825809Y-107926190D01*
X65587714Y-108402380D02*
X65587714Y-107402380D01*
X65968666Y-107402380D01*
X66063904Y-107450000D01*
X66111523Y-107497619D01*
X66159142Y-107592857D01*
X66159142Y-107735714D01*
X66111523Y-107830952D01*
X66063904Y-107878571D01*
X65968666Y-107926190D01*
X65587714Y-107926190D01*
X67111523Y-108402380D02*
X66540095Y-108402380D01*
X66825809Y-108402380D02*
X66825809Y-107402380D01*
X66730571Y-107545238D01*
X66635333Y-107640476D01*
X66540095Y-107688095D01*
X67444857Y-107402380D02*
X68063904Y-107402380D01*
X67730571Y-107783333D01*
X67873428Y-107783333D01*
X67968666Y-107830952D01*
X68016285Y-107878571D01*
X68063904Y-107973809D01*
X68063904Y-108211904D01*
X68016285Y-108307142D01*
X67968666Y-108354761D01*
X67873428Y-108402380D01*
X67587714Y-108402380D01*
X67492476Y-108354761D01*
X67444857Y-108307142D01*
%TO.C,R14*%
X64635142Y-129738380D02*
X64301809Y-129262190D01*
X64063714Y-129738380D02*
X64063714Y-128738380D01*
X64444666Y-128738380D01*
X64539904Y-128786000D01*
X64587523Y-128833619D01*
X64635142Y-128928857D01*
X64635142Y-129071714D01*
X64587523Y-129166952D01*
X64539904Y-129214571D01*
X64444666Y-129262190D01*
X64063714Y-129262190D01*
X65587523Y-129738380D02*
X65016095Y-129738380D01*
X65301809Y-129738380D02*
X65301809Y-128738380D01*
X65206571Y-128881238D01*
X65111333Y-128976476D01*
X65016095Y-129024095D01*
X66444666Y-129071714D02*
X66444666Y-129738380D01*
X66206571Y-128690761D02*
X65968476Y-129405047D01*
X66587523Y-129405047D01*
%TO.C,R15*%
X66159142Y-112974380D02*
X65825809Y-112498190D01*
X65587714Y-112974380D02*
X65587714Y-111974380D01*
X65968666Y-111974380D01*
X66063904Y-112022000D01*
X66111523Y-112069619D01*
X66159142Y-112164857D01*
X66159142Y-112307714D01*
X66111523Y-112402952D01*
X66063904Y-112450571D01*
X65968666Y-112498190D01*
X65587714Y-112498190D01*
X67111523Y-112974380D02*
X66540095Y-112974380D01*
X66825809Y-112974380D02*
X66825809Y-111974380D01*
X66730571Y-112117238D01*
X66635333Y-112212476D01*
X66540095Y-112260095D01*
X68016285Y-111974380D02*
X67540095Y-111974380D01*
X67492476Y-112450571D01*
X67540095Y-112402952D01*
X67635333Y-112355333D01*
X67873428Y-112355333D01*
X67968666Y-112402952D01*
X68016285Y-112450571D01*
X68063904Y-112545809D01*
X68063904Y-112783904D01*
X68016285Y-112879142D01*
X67968666Y-112926761D01*
X67873428Y-112974380D01*
X67635333Y-112974380D01*
X67540095Y-112926761D01*
X67492476Y-112879142D01*
%TO.C,R16*%
X66159142Y-117546380D02*
X65825809Y-117070190D01*
X65587714Y-117546380D02*
X65587714Y-116546380D01*
X65968666Y-116546380D01*
X66063904Y-116594000D01*
X66111523Y-116641619D01*
X66159142Y-116736857D01*
X66159142Y-116879714D01*
X66111523Y-116974952D01*
X66063904Y-117022571D01*
X65968666Y-117070190D01*
X65587714Y-117070190D01*
X67111523Y-117546380D02*
X66540095Y-117546380D01*
X66825809Y-117546380D02*
X66825809Y-116546380D01*
X66730571Y-116689238D01*
X66635333Y-116784476D01*
X66540095Y-116832095D01*
X67968666Y-116546380D02*
X67778190Y-116546380D01*
X67682952Y-116594000D01*
X67635333Y-116641619D01*
X67540095Y-116784476D01*
X67492476Y-116974952D01*
X67492476Y-117355904D01*
X67540095Y-117451142D01*
X67587714Y-117498761D01*
X67682952Y-117546380D01*
X67873428Y-117546380D01*
X67968666Y-117498761D01*
X68016285Y-117451142D01*
X68063904Y-117355904D01*
X68063904Y-117117809D01*
X68016285Y-117022571D01*
X67968666Y-116974952D01*
X67873428Y-116927333D01*
X67682952Y-116927333D01*
X67587714Y-116974952D01*
X67540095Y-117022571D01*
X67492476Y-117117809D01*
%TO.C,R17*%
X64635142Y-123642380D02*
X64301809Y-123166190D01*
X64063714Y-123642380D02*
X64063714Y-122642380D01*
X64444666Y-122642380D01*
X64539904Y-122690000D01*
X64587523Y-122737619D01*
X64635142Y-122832857D01*
X64635142Y-122975714D01*
X64587523Y-123070952D01*
X64539904Y-123118571D01*
X64444666Y-123166190D01*
X64063714Y-123166190D01*
X65587523Y-123642380D02*
X65016095Y-123642380D01*
X65301809Y-123642380D02*
X65301809Y-122642380D01*
X65206571Y-122785238D01*
X65111333Y-122880476D01*
X65016095Y-122928095D01*
X65920857Y-122642380D02*
X66587523Y-122642380D01*
X66158952Y-123642380D01*
%TO.C,R18*%
X64635142Y-128214380D02*
X64301809Y-127738190D01*
X64063714Y-128214380D02*
X64063714Y-127214380D01*
X64444666Y-127214380D01*
X64539904Y-127262000D01*
X64587523Y-127309619D01*
X64635142Y-127404857D01*
X64635142Y-127547714D01*
X64587523Y-127642952D01*
X64539904Y-127690571D01*
X64444666Y-127738190D01*
X64063714Y-127738190D01*
X65587523Y-128214380D02*
X65016095Y-128214380D01*
X65301809Y-128214380D02*
X65301809Y-127214380D01*
X65206571Y-127357238D01*
X65111333Y-127452476D01*
X65016095Y-127500095D01*
X66158952Y-127642952D02*
X66063714Y-127595333D01*
X66016095Y-127547714D01*
X65968476Y-127452476D01*
X65968476Y-127404857D01*
X66016095Y-127309619D01*
X66063714Y-127262000D01*
X66158952Y-127214380D01*
X66349428Y-127214380D01*
X66444666Y-127262000D01*
X66492285Y-127309619D01*
X66539904Y-127404857D01*
X66539904Y-127452476D01*
X66492285Y-127547714D01*
X66444666Y-127595333D01*
X66349428Y-127642952D01*
X66158952Y-127642952D01*
X66063714Y-127690571D01*
X66016095Y-127738190D01*
X65968476Y-127833428D01*
X65968476Y-128023904D01*
X66016095Y-128119142D01*
X66063714Y-128166761D01*
X66158952Y-128214380D01*
X66349428Y-128214380D01*
X66444666Y-128166761D01*
X66492285Y-128119142D01*
X66539904Y-128023904D01*
X66539904Y-127833428D01*
X66492285Y-127738190D01*
X66444666Y-127690571D01*
X66349428Y-127642952D01*
%TO.C,R19*%
X56206142Y-112212380D02*
X55872809Y-111736190D01*
X55634714Y-112212380D02*
X55634714Y-111212380D01*
X56015666Y-111212380D01*
X56110904Y-111260000D01*
X56158523Y-111307619D01*
X56206142Y-111402857D01*
X56206142Y-111545714D01*
X56158523Y-111640952D01*
X56110904Y-111688571D01*
X56015666Y-111736190D01*
X55634714Y-111736190D01*
X57158523Y-112212380D02*
X56587095Y-112212380D01*
X56872809Y-112212380D02*
X56872809Y-111212380D01*
X56777571Y-111355238D01*
X56682333Y-111450476D01*
X56587095Y-111498095D01*
X57634714Y-112212380D02*
X57825190Y-112212380D01*
X57920428Y-112164761D01*
X57968047Y-112117142D01*
X58063285Y-111974285D01*
X58110904Y-111783809D01*
X58110904Y-111402857D01*
X58063285Y-111307619D01*
X58015666Y-111260000D01*
X57920428Y-111212380D01*
X57729952Y-111212380D01*
X57634714Y-111260000D01*
X57587095Y-111307619D01*
X57539476Y-111402857D01*
X57539476Y-111640952D01*
X57587095Y-111736190D01*
X57634714Y-111783809D01*
X57729952Y-111831428D01*
X57920428Y-111831428D01*
X58015666Y-111783809D01*
X58063285Y-111736190D01*
X58110904Y-111640952D01*
%TO.C,R20*%
X56206142Y-116784380D02*
X55872809Y-116308190D01*
X55634714Y-116784380D02*
X55634714Y-115784380D01*
X56015666Y-115784380D01*
X56110904Y-115832000D01*
X56158523Y-115879619D01*
X56206142Y-115974857D01*
X56206142Y-116117714D01*
X56158523Y-116212952D01*
X56110904Y-116260571D01*
X56015666Y-116308190D01*
X55634714Y-116308190D01*
X56587095Y-115879619D02*
X56634714Y-115832000D01*
X56729952Y-115784380D01*
X56968047Y-115784380D01*
X57063285Y-115832000D01*
X57110904Y-115879619D01*
X57158523Y-115974857D01*
X57158523Y-116070095D01*
X57110904Y-116212952D01*
X56539476Y-116784380D01*
X57158523Y-116784380D01*
X57777571Y-115784380D02*
X57872809Y-115784380D01*
X57968047Y-115832000D01*
X58015666Y-115879619D01*
X58063285Y-115974857D01*
X58110904Y-116165333D01*
X58110904Y-116403428D01*
X58063285Y-116593904D01*
X58015666Y-116689142D01*
X57968047Y-116736761D01*
X57872809Y-116784380D01*
X57777571Y-116784380D01*
X57682333Y-116736761D01*
X57634714Y-116689142D01*
X57587095Y-116593904D01*
X57539476Y-116403428D01*
X57539476Y-116165333D01*
X57587095Y-115974857D01*
X57634714Y-115879619D01*
X57682333Y-115832000D01*
X57777571Y-115784380D01*
%TO.C,R21*%
X56206142Y-122880380D02*
X55872809Y-122404190D01*
X55634714Y-122880380D02*
X55634714Y-121880380D01*
X56015666Y-121880380D01*
X56110904Y-121928000D01*
X56158523Y-121975619D01*
X56206142Y-122070857D01*
X56206142Y-122213714D01*
X56158523Y-122308952D01*
X56110904Y-122356571D01*
X56015666Y-122404190D01*
X55634714Y-122404190D01*
X56587095Y-121975619D02*
X56634714Y-121928000D01*
X56729952Y-121880380D01*
X56968047Y-121880380D01*
X57063285Y-121928000D01*
X57110904Y-121975619D01*
X57158523Y-122070857D01*
X57158523Y-122166095D01*
X57110904Y-122308952D01*
X56539476Y-122880380D01*
X57158523Y-122880380D01*
X58110904Y-122880380D02*
X57539476Y-122880380D01*
X57825190Y-122880380D02*
X57825190Y-121880380D01*
X57729952Y-122023238D01*
X57634714Y-122118476D01*
X57539476Y-122166095D01*
%TO.C,R22*%
X56206142Y-127452380D02*
X55872809Y-126976190D01*
X55634714Y-127452380D02*
X55634714Y-126452380D01*
X56015666Y-126452380D01*
X56110904Y-126500000D01*
X56158523Y-126547619D01*
X56206142Y-126642857D01*
X56206142Y-126785714D01*
X56158523Y-126880952D01*
X56110904Y-126928571D01*
X56015666Y-126976190D01*
X55634714Y-126976190D01*
X56587095Y-126547619D02*
X56634714Y-126500000D01*
X56729952Y-126452380D01*
X56968047Y-126452380D01*
X57063285Y-126500000D01*
X57110904Y-126547619D01*
X57158523Y-126642857D01*
X57158523Y-126738095D01*
X57110904Y-126880952D01*
X56539476Y-127452380D01*
X57158523Y-127452380D01*
X57539476Y-126547619D02*
X57587095Y-126500000D01*
X57682333Y-126452380D01*
X57920428Y-126452380D01*
X58015666Y-126500000D01*
X58063285Y-126547619D01*
X58110904Y-126642857D01*
X58110904Y-126738095D01*
X58063285Y-126880952D01*
X57491857Y-127452380D01*
X58110904Y-127452380D01*
%TO.C,R23*%
X56206142Y-109164380D02*
X55872809Y-108688190D01*
X55634714Y-109164380D02*
X55634714Y-108164380D01*
X56015666Y-108164380D01*
X56110904Y-108212000D01*
X56158523Y-108259619D01*
X56206142Y-108354857D01*
X56206142Y-108497714D01*
X56158523Y-108592952D01*
X56110904Y-108640571D01*
X56015666Y-108688190D01*
X55634714Y-108688190D01*
X56587095Y-108259619D02*
X56634714Y-108212000D01*
X56729952Y-108164380D01*
X56968047Y-108164380D01*
X57063285Y-108212000D01*
X57110904Y-108259619D01*
X57158523Y-108354857D01*
X57158523Y-108450095D01*
X57110904Y-108592952D01*
X56539476Y-109164380D01*
X57158523Y-109164380D01*
X57491857Y-108164380D02*
X58110904Y-108164380D01*
X57777571Y-108545333D01*
X57920428Y-108545333D01*
X58015666Y-108592952D01*
X58063285Y-108640571D01*
X58110904Y-108735809D01*
X58110904Y-108973904D01*
X58063285Y-109069142D01*
X58015666Y-109116761D01*
X57920428Y-109164380D01*
X57634714Y-109164380D01*
X57539476Y-109116761D01*
X57491857Y-109069142D01*
%TO.C,R24*%
X56206142Y-115260380D02*
X55872809Y-114784190D01*
X55634714Y-115260380D02*
X55634714Y-114260380D01*
X56015666Y-114260380D01*
X56110904Y-114308000D01*
X56158523Y-114355619D01*
X56206142Y-114450857D01*
X56206142Y-114593714D01*
X56158523Y-114688952D01*
X56110904Y-114736571D01*
X56015666Y-114784190D01*
X55634714Y-114784190D01*
X56587095Y-114355619D02*
X56634714Y-114308000D01*
X56729952Y-114260380D01*
X56968047Y-114260380D01*
X57063285Y-114308000D01*
X57110904Y-114355619D01*
X57158523Y-114450857D01*
X57158523Y-114546095D01*
X57110904Y-114688952D01*
X56539476Y-115260380D01*
X57158523Y-115260380D01*
X58015666Y-114593714D02*
X58015666Y-115260380D01*
X57777571Y-114212761D02*
X57539476Y-114927047D01*
X58158523Y-114927047D01*
%TO.C,R25*%
X56206142Y-121356380D02*
X55872809Y-120880190D01*
X55634714Y-121356380D02*
X55634714Y-120356380D01*
X56015666Y-120356380D01*
X56110904Y-120404000D01*
X56158523Y-120451619D01*
X56206142Y-120546857D01*
X56206142Y-120689714D01*
X56158523Y-120784952D01*
X56110904Y-120832571D01*
X56015666Y-120880190D01*
X55634714Y-120880190D01*
X56587095Y-120451619D02*
X56634714Y-120404000D01*
X56729952Y-120356380D01*
X56968047Y-120356380D01*
X57063285Y-120404000D01*
X57110904Y-120451619D01*
X57158523Y-120546857D01*
X57158523Y-120642095D01*
X57110904Y-120784952D01*
X56539476Y-121356380D01*
X57158523Y-121356380D01*
X58063285Y-120356380D02*
X57587095Y-120356380D01*
X57539476Y-120832571D01*
X57587095Y-120784952D01*
X57682333Y-120737333D01*
X57920428Y-120737333D01*
X58015666Y-120784952D01*
X58063285Y-120832571D01*
X58110904Y-120927809D01*
X58110904Y-121165904D01*
X58063285Y-121261142D01*
X58015666Y-121308761D01*
X57920428Y-121356380D01*
X57682333Y-121356380D01*
X57587095Y-121308761D01*
X57539476Y-121261142D01*
%TO.C,R26*%
X56206142Y-128976380D02*
X55872809Y-128500190D01*
X55634714Y-128976380D02*
X55634714Y-127976380D01*
X56015666Y-127976380D01*
X56110904Y-128024000D01*
X56158523Y-128071619D01*
X56206142Y-128166857D01*
X56206142Y-128309714D01*
X56158523Y-128404952D01*
X56110904Y-128452571D01*
X56015666Y-128500190D01*
X55634714Y-128500190D01*
X56587095Y-128071619D02*
X56634714Y-128024000D01*
X56729952Y-127976380D01*
X56968047Y-127976380D01*
X57063285Y-128024000D01*
X57110904Y-128071619D01*
X57158523Y-128166857D01*
X57158523Y-128262095D01*
X57110904Y-128404952D01*
X56539476Y-128976380D01*
X57158523Y-128976380D01*
X58015666Y-127976380D02*
X57825190Y-127976380D01*
X57729952Y-128024000D01*
X57682333Y-128071619D01*
X57587095Y-128214476D01*
X57539476Y-128404952D01*
X57539476Y-128785904D01*
X57587095Y-128881142D01*
X57634714Y-128928761D01*
X57729952Y-128976380D01*
X57920428Y-128976380D01*
X58015666Y-128928761D01*
X58063285Y-128881142D01*
X58110904Y-128785904D01*
X58110904Y-128547809D01*
X58063285Y-128452571D01*
X58015666Y-128404952D01*
X57920428Y-128357333D01*
X57729952Y-128357333D01*
X57634714Y-128404952D01*
X57587095Y-128452571D01*
X57539476Y-128547809D01*
%TO.C,R27*%
X56206142Y-133548380D02*
X55872809Y-133072190D01*
X55634714Y-133548380D02*
X55634714Y-132548380D01*
X56015666Y-132548380D01*
X56110904Y-132596000D01*
X56158523Y-132643619D01*
X56206142Y-132738857D01*
X56206142Y-132881714D01*
X56158523Y-132976952D01*
X56110904Y-133024571D01*
X56015666Y-133072190D01*
X55634714Y-133072190D01*
X56587095Y-132643619D02*
X56634714Y-132596000D01*
X56729952Y-132548380D01*
X56968047Y-132548380D01*
X57063285Y-132596000D01*
X57110904Y-132643619D01*
X57158523Y-132738857D01*
X57158523Y-132834095D01*
X57110904Y-132976952D01*
X56539476Y-133548380D01*
X57158523Y-133548380D01*
X57491857Y-132548380D02*
X58158523Y-132548380D01*
X57729952Y-133548380D01*
%TO.C,R28*%
X56206142Y-110688380D02*
X55872809Y-110212190D01*
X55634714Y-110688380D02*
X55634714Y-109688380D01*
X56015666Y-109688380D01*
X56110904Y-109736000D01*
X56158523Y-109783619D01*
X56206142Y-109878857D01*
X56206142Y-110021714D01*
X56158523Y-110116952D01*
X56110904Y-110164571D01*
X56015666Y-110212190D01*
X55634714Y-110212190D01*
X56587095Y-109783619D02*
X56634714Y-109736000D01*
X56729952Y-109688380D01*
X56968047Y-109688380D01*
X57063285Y-109736000D01*
X57110904Y-109783619D01*
X57158523Y-109878857D01*
X57158523Y-109974095D01*
X57110904Y-110116952D01*
X56539476Y-110688380D01*
X57158523Y-110688380D01*
X57729952Y-110116952D02*
X57634714Y-110069333D01*
X57587095Y-110021714D01*
X57539476Y-109926476D01*
X57539476Y-109878857D01*
X57587095Y-109783619D01*
X57634714Y-109736000D01*
X57729952Y-109688380D01*
X57920428Y-109688380D01*
X58015666Y-109736000D01*
X58063285Y-109783619D01*
X58110904Y-109878857D01*
X58110904Y-109926476D01*
X58063285Y-110021714D01*
X58015666Y-110069333D01*
X57920428Y-110116952D01*
X57729952Y-110116952D01*
X57634714Y-110164571D01*
X57587095Y-110212190D01*
X57539476Y-110307428D01*
X57539476Y-110497904D01*
X57587095Y-110593142D01*
X57634714Y-110640761D01*
X57729952Y-110688380D01*
X57920428Y-110688380D01*
X58015666Y-110640761D01*
X58063285Y-110593142D01*
X58110904Y-110497904D01*
X58110904Y-110307428D01*
X58063285Y-110212190D01*
X58015666Y-110164571D01*
X57920428Y-110116952D01*
%TO.C,R29*%
X56206142Y-118308380D02*
X55872809Y-117832190D01*
X55634714Y-118308380D02*
X55634714Y-117308380D01*
X56015666Y-117308380D01*
X56110904Y-117356000D01*
X56158523Y-117403619D01*
X56206142Y-117498857D01*
X56206142Y-117641714D01*
X56158523Y-117736952D01*
X56110904Y-117784571D01*
X56015666Y-117832190D01*
X55634714Y-117832190D01*
X56587095Y-117403619D02*
X56634714Y-117356000D01*
X56729952Y-117308380D01*
X56968047Y-117308380D01*
X57063285Y-117356000D01*
X57110904Y-117403619D01*
X57158523Y-117498857D01*
X57158523Y-117594095D01*
X57110904Y-117736952D01*
X56539476Y-118308380D01*
X57158523Y-118308380D01*
X57634714Y-118308380D02*
X57825190Y-118308380D01*
X57920428Y-118260761D01*
X57968047Y-118213142D01*
X58063285Y-118070285D01*
X58110904Y-117879809D01*
X58110904Y-117498857D01*
X58063285Y-117403619D01*
X58015666Y-117356000D01*
X57920428Y-117308380D01*
X57729952Y-117308380D01*
X57634714Y-117356000D01*
X57587095Y-117403619D01*
X57539476Y-117498857D01*
X57539476Y-117736952D01*
X57587095Y-117832190D01*
X57634714Y-117879809D01*
X57729952Y-117927428D01*
X57920428Y-117927428D01*
X58015666Y-117879809D01*
X58063285Y-117832190D01*
X58110904Y-117736952D01*
%TO.C,R30*%
X56206142Y-124404380D02*
X55872809Y-123928190D01*
X55634714Y-124404380D02*
X55634714Y-123404380D01*
X56015666Y-123404380D01*
X56110904Y-123452000D01*
X56158523Y-123499619D01*
X56206142Y-123594857D01*
X56206142Y-123737714D01*
X56158523Y-123832952D01*
X56110904Y-123880571D01*
X56015666Y-123928190D01*
X55634714Y-123928190D01*
X56539476Y-123404380D02*
X57158523Y-123404380D01*
X56825190Y-123785333D01*
X56968047Y-123785333D01*
X57063285Y-123832952D01*
X57110904Y-123880571D01*
X57158523Y-123975809D01*
X57158523Y-124213904D01*
X57110904Y-124309142D01*
X57063285Y-124356761D01*
X56968047Y-124404380D01*
X56682333Y-124404380D01*
X56587095Y-124356761D01*
X56539476Y-124309142D01*
X57777571Y-123404380D02*
X57872809Y-123404380D01*
X57968047Y-123452000D01*
X58015666Y-123499619D01*
X58063285Y-123594857D01*
X58110904Y-123785333D01*
X58110904Y-124023428D01*
X58063285Y-124213904D01*
X58015666Y-124309142D01*
X57968047Y-124356761D01*
X57872809Y-124404380D01*
X57777571Y-124404380D01*
X57682333Y-124356761D01*
X57634714Y-124309142D01*
X57587095Y-124213904D01*
X57539476Y-124023428D01*
X57539476Y-123785333D01*
X57587095Y-123594857D01*
X57634714Y-123499619D01*
X57682333Y-123452000D01*
X57777571Y-123404380D01*
%TO.C,R31*%
X56206142Y-130500380D02*
X55872809Y-130024190D01*
X55634714Y-130500380D02*
X55634714Y-129500380D01*
X56015666Y-129500380D01*
X56110904Y-129548000D01*
X56158523Y-129595619D01*
X56206142Y-129690857D01*
X56206142Y-129833714D01*
X56158523Y-129928952D01*
X56110904Y-129976571D01*
X56015666Y-130024190D01*
X55634714Y-130024190D01*
X56539476Y-129500380D02*
X57158523Y-129500380D01*
X56825190Y-129881333D01*
X56968047Y-129881333D01*
X57063285Y-129928952D01*
X57110904Y-129976571D01*
X57158523Y-130071809D01*
X57158523Y-130309904D01*
X57110904Y-130405142D01*
X57063285Y-130452761D01*
X56968047Y-130500380D01*
X56682333Y-130500380D01*
X56587095Y-130452761D01*
X56539476Y-130405142D01*
X58110904Y-130500380D02*
X57539476Y-130500380D01*
X57825190Y-130500380D02*
X57825190Y-129500380D01*
X57729952Y-129643238D01*
X57634714Y-129738476D01*
X57539476Y-129786095D01*
%TO.C,R32*%
X56206142Y-113736380D02*
X55872809Y-113260190D01*
X55634714Y-113736380D02*
X55634714Y-112736380D01*
X56015666Y-112736380D01*
X56110904Y-112784000D01*
X56158523Y-112831619D01*
X56206142Y-112926857D01*
X56206142Y-113069714D01*
X56158523Y-113164952D01*
X56110904Y-113212571D01*
X56015666Y-113260190D01*
X55634714Y-113260190D01*
X56539476Y-112736380D02*
X57158523Y-112736380D01*
X56825190Y-113117333D01*
X56968047Y-113117333D01*
X57063285Y-113164952D01*
X57110904Y-113212571D01*
X57158523Y-113307809D01*
X57158523Y-113545904D01*
X57110904Y-113641142D01*
X57063285Y-113688761D01*
X56968047Y-113736380D01*
X56682333Y-113736380D01*
X56587095Y-113688761D01*
X56539476Y-113641142D01*
X57539476Y-112831619D02*
X57587095Y-112784000D01*
X57682333Y-112736380D01*
X57920428Y-112736380D01*
X58015666Y-112784000D01*
X58063285Y-112831619D01*
X58110904Y-112926857D01*
X58110904Y-113022095D01*
X58063285Y-113164952D01*
X57491857Y-113736380D01*
X58110904Y-113736380D01*
%TO.C,R33*%
X56206142Y-119832380D02*
X55872809Y-119356190D01*
X55634714Y-119832380D02*
X55634714Y-118832380D01*
X56015666Y-118832380D01*
X56110904Y-118880000D01*
X56158523Y-118927619D01*
X56206142Y-119022857D01*
X56206142Y-119165714D01*
X56158523Y-119260952D01*
X56110904Y-119308571D01*
X56015666Y-119356190D01*
X55634714Y-119356190D01*
X56539476Y-118832380D02*
X57158523Y-118832380D01*
X56825190Y-119213333D01*
X56968047Y-119213333D01*
X57063285Y-119260952D01*
X57110904Y-119308571D01*
X57158523Y-119403809D01*
X57158523Y-119641904D01*
X57110904Y-119737142D01*
X57063285Y-119784761D01*
X56968047Y-119832380D01*
X56682333Y-119832380D01*
X56587095Y-119784761D01*
X56539476Y-119737142D01*
X57491857Y-118832380D02*
X58110904Y-118832380D01*
X57777571Y-119213333D01*
X57920428Y-119213333D01*
X58015666Y-119260952D01*
X58063285Y-119308571D01*
X58110904Y-119403809D01*
X58110904Y-119641904D01*
X58063285Y-119737142D01*
X58015666Y-119784761D01*
X57920428Y-119832380D01*
X57634714Y-119832380D01*
X57539476Y-119784761D01*
X57491857Y-119737142D01*
%TO.C,R34*%
X56206142Y-125928380D02*
X55872809Y-125452190D01*
X55634714Y-125928380D02*
X55634714Y-124928380D01*
X56015666Y-124928380D01*
X56110904Y-124976000D01*
X56158523Y-125023619D01*
X56206142Y-125118857D01*
X56206142Y-125261714D01*
X56158523Y-125356952D01*
X56110904Y-125404571D01*
X56015666Y-125452190D01*
X55634714Y-125452190D01*
X56539476Y-124928380D02*
X57158523Y-124928380D01*
X56825190Y-125309333D01*
X56968047Y-125309333D01*
X57063285Y-125356952D01*
X57110904Y-125404571D01*
X57158523Y-125499809D01*
X57158523Y-125737904D01*
X57110904Y-125833142D01*
X57063285Y-125880761D01*
X56968047Y-125928380D01*
X56682333Y-125928380D01*
X56587095Y-125880761D01*
X56539476Y-125833142D01*
X58015666Y-125261714D02*
X58015666Y-125928380D01*
X57777571Y-124880761D02*
X57539476Y-125595047D01*
X58158523Y-125595047D01*
%TO.C,R35*%
X56206142Y-132024380D02*
X55872809Y-131548190D01*
X55634714Y-132024380D02*
X55634714Y-131024380D01*
X56015666Y-131024380D01*
X56110904Y-131072000D01*
X56158523Y-131119619D01*
X56206142Y-131214857D01*
X56206142Y-131357714D01*
X56158523Y-131452952D01*
X56110904Y-131500571D01*
X56015666Y-131548190D01*
X55634714Y-131548190D01*
X56539476Y-131024380D02*
X57158523Y-131024380D01*
X56825190Y-131405333D01*
X56968047Y-131405333D01*
X57063285Y-131452952D01*
X57110904Y-131500571D01*
X57158523Y-131595809D01*
X57158523Y-131833904D01*
X57110904Y-131929142D01*
X57063285Y-131976761D01*
X56968047Y-132024380D01*
X56682333Y-132024380D01*
X56587095Y-131976761D01*
X56539476Y-131929142D01*
X58063285Y-131024380D02*
X57587095Y-131024380D01*
X57539476Y-131500571D01*
X57587095Y-131452952D01*
X57682333Y-131405333D01*
X57920428Y-131405333D01*
X58015666Y-131452952D01*
X58063285Y-131500571D01*
X58110904Y-131595809D01*
X58110904Y-131833904D01*
X58063285Y-131929142D01*
X58015666Y-131976761D01*
X57920428Y-132024380D01*
X57682333Y-132024380D01*
X57587095Y-131976761D01*
X57539476Y-131929142D01*
%TO.C,R36*%
X93083142Y-137358380D02*
X92749809Y-136882190D01*
X92511714Y-137358380D02*
X92511714Y-136358380D01*
X92892666Y-136358380D01*
X92987904Y-136406000D01*
X93035523Y-136453619D01*
X93083142Y-136548857D01*
X93083142Y-136691714D01*
X93035523Y-136786952D01*
X92987904Y-136834571D01*
X92892666Y-136882190D01*
X92511714Y-136882190D01*
X93416476Y-136358380D02*
X94035523Y-136358380D01*
X93702190Y-136739333D01*
X93845047Y-136739333D01*
X93940285Y-136786952D01*
X93987904Y-136834571D01*
X94035523Y-136929809D01*
X94035523Y-137167904D01*
X93987904Y-137263142D01*
X93940285Y-137310761D01*
X93845047Y-137358380D01*
X93559333Y-137358380D01*
X93464095Y-137310761D01*
X93416476Y-137263142D01*
X94892666Y-136358380D02*
X94702190Y-136358380D01*
X94606952Y-136406000D01*
X94559333Y-136453619D01*
X94464095Y-136596476D01*
X94416476Y-136786952D01*
X94416476Y-137167904D01*
X94464095Y-137263142D01*
X94511714Y-137310761D01*
X94606952Y-137358380D01*
X94797428Y-137358380D01*
X94892666Y-137310761D01*
X94940285Y-137263142D01*
X94987904Y-137167904D01*
X94987904Y-136929809D01*
X94940285Y-136834571D01*
X94892666Y-136786952D01*
X94797428Y-136739333D01*
X94606952Y-136739333D01*
X94511714Y-136786952D01*
X94464095Y-136834571D01*
X94416476Y-136929809D01*
%TO.C,R37*%
X93083142Y-135580380D02*
X92749809Y-135104190D01*
X92511714Y-135580380D02*
X92511714Y-134580380D01*
X92892666Y-134580380D01*
X92987904Y-134628000D01*
X93035523Y-134675619D01*
X93083142Y-134770857D01*
X93083142Y-134913714D01*
X93035523Y-135008952D01*
X92987904Y-135056571D01*
X92892666Y-135104190D01*
X92511714Y-135104190D01*
X93416476Y-134580380D02*
X94035523Y-134580380D01*
X93702190Y-134961333D01*
X93845047Y-134961333D01*
X93940285Y-135008952D01*
X93987904Y-135056571D01*
X94035523Y-135151809D01*
X94035523Y-135389904D01*
X93987904Y-135485142D01*
X93940285Y-135532761D01*
X93845047Y-135580380D01*
X93559333Y-135580380D01*
X93464095Y-135532761D01*
X93416476Y-135485142D01*
X94368857Y-134580380D02*
X95035523Y-134580380D01*
X94606952Y-135580380D01*
%TO.C,R38*%
X93083142Y-129484380D02*
X92749809Y-129008190D01*
X92511714Y-129484380D02*
X92511714Y-128484380D01*
X92892666Y-128484380D01*
X92987904Y-128532000D01*
X93035523Y-128579619D01*
X93083142Y-128674857D01*
X93083142Y-128817714D01*
X93035523Y-128912952D01*
X92987904Y-128960571D01*
X92892666Y-129008190D01*
X92511714Y-129008190D01*
X93416476Y-128484380D02*
X94035523Y-128484380D01*
X93702190Y-128865333D01*
X93845047Y-128865333D01*
X93940285Y-128912952D01*
X93987904Y-128960571D01*
X94035523Y-129055809D01*
X94035523Y-129293904D01*
X93987904Y-129389142D01*
X93940285Y-129436761D01*
X93845047Y-129484380D01*
X93559333Y-129484380D01*
X93464095Y-129436761D01*
X93416476Y-129389142D01*
X94606952Y-128912952D02*
X94511714Y-128865333D01*
X94464095Y-128817714D01*
X94416476Y-128722476D01*
X94416476Y-128674857D01*
X94464095Y-128579619D01*
X94511714Y-128532000D01*
X94606952Y-128484380D01*
X94797428Y-128484380D01*
X94892666Y-128532000D01*
X94940285Y-128579619D01*
X94987904Y-128674857D01*
X94987904Y-128722476D01*
X94940285Y-128817714D01*
X94892666Y-128865333D01*
X94797428Y-128912952D01*
X94606952Y-128912952D01*
X94511714Y-128960571D01*
X94464095Y-129008190D01*
X94416476Y-129103428D01*
X94416476Y-129293904D01*
X94464095Y-129389142D01*
X94511714Y-129436761D01*
X94606952Y-129484380D01*
X94797428Y-129484380D01*
X94892666Y-129436761D01*
X94940285Y-129389142D01*
X94987904Y-129293904D01*
X94987904Y-129103428D01*
X94940285Y-129008190D01*
X94892666Y-128960571D01*
X94797428Y-128912952D01*
%TO.C,R39*%
X93083142Y-127706380D02*
X92749809Y-127230190D01*
X92511714Y-127706380D02*
X92511714Y-126706380D01*
X92892666Y-126706380D01*
X92987904Y-126754000D01*
X93035523Y-126801619D01*
X93083142Y-126896857D01*
X93083142Y-127039714D01*
X93035523Y-127134952D01*
X92987904Y-127182571D01*
X92892666Y-127230190D01*
X92511714Y-127230190D01*
X93416476Y-126706380D02*
X94035523Y-126706380D01*
X93702190Y-127087333D01*
X93845047Y-127087333D01*
X93940285Y-127134952D01*
X93987904Y-127182571D01*
X94035523Y-127277809D01*
X94035523Y-127515904D01*
X93987904Y-127611142D01*
X93940285Y-127658761D01*
X93845047Y-127706380D01*
X93559333Y-127706380D01*
X93464095Y-127658761D01*
X93416476Y-127611142D01*
X94511714Y-127706380D02*
X94702190Y-127706380D01*
X94797428Y-127658761D01*
X94845047Y-127611142D01*
X94940285Y-127468285D01*
X94987904Y-127277809D01*
X94987904Y-126896857D01*
X94940285Y-126801619D01*
X94892666Y-126754000D01*
X94797428Y-126706380D01*
X94606952Y-126706380D01*
X94511714Y-126754000D01*
X94464095Y-126801619D01*
X94416476Y-126896857D01*
X94416476Y-127134952D01*
X94464095Y-127230190D01*
X94511714Y-127277809D01*
X94606952Y-127325428D01*
X94797428Y-127325428D01*
X94892666Y-127277809D01*
X94940285Y-127230190D01*
X94987904Y-127134952D01*
%TO.C,R40*%
X93083142Y-139136380D02*
X92749809Y-138660190D01*
X92511714Y-139136380D02*
X92511714Y-138136380D01*
X92892666Y-138136380D01*
X92987904Y-138184000D01*
X93035523Y-138231619D01*
X93083142Y-138326857D01*
X93083142Y-138469714D01*
X93035523Y-138564952D01*
X92987904Y-138612571D01*
X92892666Y-138660190D01*
X92511714Y-138660190D01*
X93940285Y-138469714D02*
X93940285Y-139136380D01*
X93702190Y-138088761D02*
X93464095Y-138803047D01*
X94083142Y-138803047D01*
X94654571Y-138136380D02*
X94749809Y-138136380D01*
X94845047Y-138184000D01*
X94892666Y-138231619D01*
X94940285Y-138326857D01*
X94987904Y-138517333D01*
X94987904Y-138755428D01*
X94940285Y-138945904D01*
X94892666Y-139041142D01*
X94845047Y-139088761D01*
X94749809Y-139136380D01*
X94654571Y-139136380D01*
X94559333Y-139088761D01*
X94511714Y-139041142D01*
X94464095Y-138945904D01*
X94416476Y-138755428D01*
X94416476Y-138517333D01*
X94464095Y-138326857D01*
X94511714Y-138231619D01*
X94559333Y-138184000D01*
X94654571Y-138136380D01*
%TO.C,R41*%
X93083142Y-133548380D02*
X92749809Y-133072190D01*
X92511714Y-133548380D02*
X92511714Y-132548380D01*
X92892666Y-132548380D01*
X92987904Y-132596000D01*
X93035523Y-132643619D01*
X93083142Y-132738857D01*
X93083142Y-132881714D01*
X93035523Y-132976952D01*
X92987904Y-133024571D01*
X92892666Y-133072190D01*
X92511714Y-133072190D01*
X93940285Y-132881714D02*
X93940285Y-133548380D01*
X93702190Y-132500761D02*
X93464095Y-133215047D01*
X94083142Y-133215047D01*
X94987904Y-133548380D02*
X94416476Y-133548380D01*
X94702190Y-133548380D02*
X94702190Y-132548380D01*
X94606952Y-132691238D01*
X94511714Y-132786476D01*
X94416476Y-132834095D01*
%TO.C,R42*%
X93083142Y-131516380D02*
X92749809Y-131040190D01*
X92511714Y-131516380D02*
X92511714Y-130516380D01*
X92892666Y-130516380D01*
X92987904Y-130564000D01*
X93035523Y-130611619D01*
X93083142Y-130706857D01*
X93083142Y-130849714D01*
X93035523Y-130944952D01*
X92987904Y-130992571D01*
X92892666Y-131040190D01*
X92511714Y-131040190D01*
X93940285Y-130849714D02*
X93940285Y-131516380D01*
X93702190Y-130468761D02*
X93464095Y-131183047D01*
X94083142Y-131183047D01*
X94416476Y-130611619D02*
X94464095Y-130564000D01*
X94559333Y-130516380D01*
X94797428Y-130516380D01*
X94892666Y-130564000D01*
X94940285Y-130611619D01*
X94987904Y-130706857D01*
X94987904Y-130802095D01*
X94940285Y-130944952D01*
X94368857Y-131516380D01*
X94987904Y-131516380D01*
%TO.C,R43*%
X75152642Y-102052380D02*
X74819309Y-101576190D01*
X74581214Y-102052380D02*
X74581214Y-101052380D01*
X74962166Y-101052380D01*
X75057404Y-101100000D01*
X75105023Y-101147619D01*
X75152642Y-101242857D01*
X75152642Y-101385714D01*
X75105023Y-101480952D01*
X75057404Y-101528571D01*
X74962166Y-101576190D01*
X74581214Y-101576190D01*
X76009785Y-101385714D02*
X76009785Y-102052380D01*
X75771690Y-101004761D02*
X75533595Y-101719047D01*
X76152642Y-101719047D01*
X76438357Y-101052380D02*
X77057404Y-101052380D01*
X76724071Y-101433333D01*
X76866928Y-101433333D01*
X76962166Y-101480952D01*
X77009785Y-101528571D01*
X77057404Y-101623809D01*
X77057404Y-101861904D01*
X77009785Y-101957142D01*
X76962166Y-102004761D01*
X76866928Y-102052380D01*
X76581214Y-102052380D01*
X76485976Y-102004761D01*
X76438357Y-101957142D01*
%TO.C,U2*%
X61976095Y-139914380D02*
X61976095Y-140723904D01*
X62023714Y-140819142D01*
X62071333Y-140866761D01*
X62166571Y-140914380D01*
X62357047Y-140914380D01*
X62452285Y-140866761D01*
X62499904Y-140819142D01*
X62547523Y-140723904D01*
X62547523Y-139914380D01*
X62976095Y-140009619D02*
X63023714Y-139962000D01*
X63118952Y-139914380D01*
X63357047Y-139914380D01*
X63452285Y-139962000D01*
X63499904Y-140009619D01*
X63547523Y-140104857D01*
X63547523Y-140200095D01*
X63499904Y-140342952D01*
X62928476Y-140914380D01*
X63547523Y-140914380D01*
%TO.C,C10*%
X90797142Y-118848142D02*
X90749523Y-118895761D01*
X90606666Y-118943380D01*
X90511428Y-118943380D01*
X90368571Y-118895761D01*
X90273333Y-118800523D01*
X90225714Y-118705285D01*
X90178095Y-118514809D01*
X90178095Y-118371952D01*
X90225714Y-118181476D01*
X90273333Y-118086238D01*
X90368571Y-117991000D01*
X90511428Y-117943380D01*
X90606666Y-117943380D01*
X90749523Y-117991000D01*
X90797142Y-118038619D01*
X91749523Y-118943380D02*
X91178095Y-118943380D01*
X91463809Y-118943380D02*
X91463809Y-117943380D01*
X91368571Y-118086238D01*
X91273333Y-118181476D01*
X91178095Y-118229095D01*
X92368571Y-117943380D02*
X92463809Y-117943380D01*
X92559047Y-117991000D01*
X92606666Y-118038619D01*
X92654285Y-118133857D01*
X92701904Y-118324333D01*
X92701904Y-118562428D01*
X92654285Y-118752904D01*
X92606666Y-118848142D01*
X92559047Y-118895761D01*
X92463809Y-118943380D01*
X92368571Y-118943380D01*
X92273333Y-118895761D01*
X92225714Y-118848142D01*
X92178095Y-118752904D01*
X92130476Y-118562428D01*
X92130476Y-118324333D01*
X92178095Y-118133857D01*
X92225714Y-118038619D01*
X92273333Y-117991000D01*
X92368571Y-117943380D01*
%TO.C,C12*%
X90527142Y-110153857D02*
X90574761Y-110201476D01*
X90622380Y-110344333D01*
X90622380Y-110439571D01*
X90574761Y-110582428D01*
X90479523Y-110677666D01*
X90384285Y-110725285D01*
X90193809Y-110772904D01*
X90050952Y-110772904D01*
X89860476Y-110725285D01*
X89765238Y-110677666D01*
X89670000Y-110582428D01*
X89622380Y-110439571D01*
X89622380Y-110344333D01*
X89670000Y-110201476D01*
X89717619Y-110153857D01*
X90622380Y-109201476D02*
X90622380Y-109772904D01*
X90622380Y-109487190D02*
X89622380Y-109487190D01*
X89765238Y-109582428D01*
X89860476Y-109677666D01*
X89908095Y-109772904D01*
X89717619Y-108820523D02*
X89670000Y-108772904D01*
X89622380Y-108677666D01*
X89622380Y-108439571D01*
X89670000Y-108344333D01*
X89717619Y-108296714D01*
X89812857Y-108249095D01*
X89908095Y-108249095D01*
X90050952Y-108296714D01*
X90622380Y-108868142D01*
X90622380Y-108249095D01*
%TO.C,C13*%
X89671142Y-126182357D02*
X89718761Y-126229976D01*
X89766380Y-126372833D01*
X89766380Y-126468071D01*
X89718761Y-126610928D01*
X89623523Y-126706166D01*
X89528285Y-126753785D01*
X89337809Y-126801404D01*
X89194952Y-126801404D01*
X89004476Y-126753785D01*
X88909238Y-126706166D01*
X88814000Y-126610928D01*
X88766380Y-126468071D01*
X88766380Y-126372833D01*
X88814000Y-126229976D01*
X88861619Y-126182357D01*
X89766380Y-125229976D02*
X89766380Y-125801404D01*
X89766380Y-125515690D02*
X88766380Y-125515690D01*
X88909238Y-125610928D01*
X89004476Y-125706166D01*
X89052095Y-125801404D01*
X88766380Y-124896642D02*
X88766380Y-124277595D01*
X89147333Y-124610928D01*
X89147333Y-124468071D01*
X89194952Y-124372833D01*
X89242571Y-124325214D01*
X89337809Y-124277595D01*
X89575904Y-124277595D01*
X89671142Y-124325214D01*
X89718761Y-124372833D01*
X89766380Y-124468071D01*
X89766380Y-124753785D01*
X89718761Y-124849023D01*
X89671142Y-124896642D01*
%TO.C,C14*%
X91289142Y-126626857D02*
X91336761Y-126674476D01*
X91384380Y-126817333D01*
X91384380Y-126912571D01*
X91336761Y-127055428D01*
X91241523Y-127150666D01*
X91146285Y-127198285D01*
X90955809Y-127245904D01*
X90812952Y-127245904D01*
X90622476Y-127198285D01*
X90527238Y-127150666D01*
X90432000Y-127055428D01*
X90384380Y-126912571D01*
X90384380Y-126817333D01*
X90432000Y-126674476D01*
X90479619Y-126626857D01*
X91384380Y-125674476D02*
X91384380Y-126245904D01*
X91384380Y-125960190D02*
X90384380Y-125960190D01*
X90527238Y-126055428D01*
X90622476Y-126150666D01*
X90670095Y-126245904D01*
X90717714Y-124817333D02*
X91384380Y-124817333D01*
X90336761Y-125055428D02*
X91051047Y-125293523D01*
X91051047Y-124674476D01*
%TO.C,C15*%
X89410642Y-136247142D02*
X89363023Y-136294761D01*
X89220166Y-136342380D01*
X89124928Y-136342380D01*
X88982071Y-136294761D01*
X88886833Y-136199523D01*
X88839214Y-136104285D01*
X88791595Y-135913809D01*
X88791595Y-135770952D01*
X88839214Y-135580476D01*
X88886833Y-135485238D01*
X88982071Y-135390000D01*
X89124928Y-135342380D01*
X89220166Y-135342380D01*
X89363023Y-135390000D01*
X89410642Y-135437619D01*
X90363023Y-136342380D02*
X89791595Y-136342380D01*
X90077309Y-136342380D02*
X90077309Y-135342380D01*
X89982071Y-135485238D01*
X89886833Y-135580476D01*
X89791595Y-135628095D01*
X91267785Y-135342380D02*
X90791595Y-135342380D01*
X90743976Y-135818571D01*
X90791595Y-135770952D01*
X90886833Y-135723333D01*
X91124928Y-135723333D01*
X91220166Y-135770952D01*
X91267785Y-135818571D01*
X91315404Y-135913809D01*
X91315404Y-136151904D01*
X91267785Y-136247142D01*
X91220166Y-136294761D01*
X91124928Y-136342380D01*
X90886833Y-136342380D01*
X90791595Y-136294761D01*
X90743976Y-136247142D01*
%TO.C,R44*%
X73698380Y-138715357D02*
X73222190Y-139048690D01*
X73698380Y-139286785D02*
X72698380Y-139286785D01*
X72698380Y-138905833D01*
X72746000Y-138810595D01*
X72793619Y-138762976D01*
X72888857Y-138715357D01*
X73031714Y-138715357D01*
X73126952Y-138762976D01*
X73174571Y-138810595D01*
X73222190Y-138905833D01*
X73222190Y-139286785D01*
X73031714Y-137858214D02*
X73698380Y-137858214D01*
X72650761Y-138096309D02*
X73365047Y-138334404D01*
X73365047Y-137715357D01*
X73031714Y-136905833D02*
X73698380Y-136905833D01*
X72650761Y-137143928D02*
X73365047Y-137382023D01*
X73365047Y-136762976D01*
%TO.C,R45*%
X71239142Y-134216380D02*
X70905809Y-133740190D01*
X70667714Y-134216380D02*
X70667714Y-133216380D01*
X71048666Y-133216380D01*
X71143904Y-133264000D01*
X71191523Y-133311619D01*
X71239142Y-133406857D01*
X71239142Y-133549714D01*
X71191523Y-133644952D01*
X71143904Y-133692571D01*
X71048666Y-133740190D01*
X70667714Y-133740190D01*
X72096285Y-133549714D02*
X72096285Y-134216380D01*
X71858190Y-133168761D02*
X71620095Y-133883047D01*
X72239142Y-133883047D01*
X73096285Y-133216380D02*
X72620095Y-133216380D01*
X72572476Y-133692571D01*
X72620095Y-133644952D01*
X72715333Y-133597333D01*
X72953428Y-133597333D01*
X73048666Y-133644952D01*
X73096285Y-133692571D01*
X73143904Y-133787809D01*
X73143904Y-134025904D01*
X73096285Y-134121142D01*
X73048666Y-134168761D01*
X72953428Y-134216380D01*
X72715333Y-134216380D01*
X72620095Y-134168761D01*
X72572476Y-134121142D01*
%TO.C,R46*%
X56380142Y-139263380D02*
X56046809Y-138787190D01*
X55808714Y-139263380D02*
X55808714Y-138263380D01*
X56189666Y-138263380D01*
X56284904Y-138311000D01*
X56332523Y-138358619D01*
X56380142Y-138453857D01*
X56380142Y-138596714D01*
X56332523Y-138691952D01*
X56284904Y-138739571D01*
X56189666Y-138787190D01*
X55808714Y-138787190D01*
X57237285Y-138596714D02*
X57237285Y-139263380D01*
X56999190Y-138215761D02*
X56761095Y-138930047D01*
X57380142Y-138930047D01*
X58189666Y-138263380D02*
X57999190Y-138263380D01*
X57903952Y-138311000D01*
X57856333Y-138358619D01*
X57761095Y-138501476D01*
X57713476Y-138691952D01*
X57713476Y-139072904D01*
X57761095Y-139168142D01*
X57808714Y-139215761D01*
X57903952Y-139263380D01*
X58094428Y-139263380D01*
X58189666Y-139215761D01*
X58237285Y-139168142D01*
X58284904Y-139072904D01*
X58284904Y-138834809D01*
X58237285Y-138739571D01*
X58189666Y-138691952D01*
X58094428Y-138644333D01*
X57903952Y-138644333D01*
X57808714Y-138691952D01*
X57761095Y-138739571D01*
X57713476Y-138834809D01*
%TO.C,R47*%
X54475142Y-137612380D02*
X54141809Y-137136190D01*
X53903714Y-137612380D02*
X53903714Y-136612380D01*
X54284666Y-136612380D01*
X54379904Y-136660000D01*
X54427523Y-136707619D01*
X54475142Y-136802857D01*
X54475142Y-136945714D01*
X54427523Y-137040952D01*
X54379904Y-137088571D01*
X54284666Y-137136190D01*
X53903714Y-137136190D01*
X55332285Y-136945714D02*
X55332285Y-137612380D01*
X55094190Y-136564761D02*
X54856095Y-137279047D01*
X55475142Y-137279047D01*
X55760857Y-136612380D02*
X56427523Y-136612380D01*
X55998952Y-137612380D01*
%TO.C,U3*%
X90574880Y-121475404D02*
X91384404Y-121475404D01*
X91479642Y-121427785D01*
X91527261Y-121380166D01*
X91574880Y-121284928D01*
X91574880Y-121094452D01*
X91527261Y-120999214D01*
X91479642Y-120951595D01*
X91384404Y-120903976D01*
X90574880Y-120903976D01*
X90574880Y-120523023D02*
X90574880Y-119903976D01*
X90955833Y-120237309D01*
X90955833Y-120094452D01*
X91003452Y-119999214D01*
X91051071Y-119951595D01*
X91146309Y-119903976D01*
X91384404Y-119903976D01*
X91479642Y-119951595D01*
X91527261Y-119999214D01*
X91574880Y-120094452D01*
X91574880Y-120380166D01*
X91527261Y-120475404D01*
X91479642Y-120523023D01*
%TO.C,U4*%
X78319380Y-126428404D02*
X79128904Y-126428404D01*
X79224142Y-126380785D01*
X79271761Y-126333166D01*
X79319380Y-126237928D01*
X79319380Y-126047452D01*
X79271761Y-125952214D01*
X79224142Y-125904595D01*
X79128904Y-125856976D01*
X78319380Y-125856976D01*
X78652714Y-124952214D02*
X79319380Y-124952214D01*
X78271761Y-125190309D02*
X78986047Y-125428404D01*
X78986047Y-124809357D01*
%TO.C,U5*%
X81089595Y-127454380D02*
X81089595Y-128263904D01*
X81137214Y-128359142D01*
X81184833Y-128406761D01*
X81280071Y-128454380D01*
X81470547Y-128454380D01*
X81565785Y-128406761D01*
X81613404Y-128359142D01*
X81661023Y-128263904D01*
X81661023Y-127454380D01*
X82613404Y-127454380D02*
X82137214Y-127454380D01*
X82089595Y-127930571D01*
X82137214Y-127882952D01*
X82232452Y-127835333D01*
X82470547Y-127835333D01*
X82565785Y-127882952D01*
X82613404Y-127930571D01*
X82661023Y-128025809D01*
X82661023Y-128263904D01*
X82613404Y-128359142D01*
X82565785Y-128406761D01*
X82470547Y-128454380D01*
X82232452Y-128454380D01*
X82137214Y-128406761D01*
X82089595Y-128359142D01*
%TO.C,J7*%
X109648666Y-150328380D02*
X109648666Y-151042666D01*
X109601047Y-151185523D01*
X109505809Y-151280761D01*
X109362952Y-151328380D01*
X109267714Y-151328380D01*
X110029619Y-150328380D02*
X110696285Y-150328380D01*
X110267714Y-151328380D01*
%TO.C,J5*%
X123049309Y-126079380D02*
X123049309Y-126793666D01*
X123001690Y-126936523D01*
X122906452Y-127031761D01*
X122763595Y-127079380D01*
X122668357Y-127079380D01*
X124001690Y-126079380D02*
X123525500Y-126079380D01*
X123477880Y-126555571D01*
X123525500Y-126507952D01*
X123620738Y-126460333D01*
X123858833Y-126460333D01*
X123954071Y-126507952D01*
X124001690Y-126555571D01*
X124049309Y-126650809D01*
X124049309Y-126888904D01*
X124001690Y-126984142D01*
X123954071Y-127031761D01*
X123858833Y-127079380D01*
X123620738Y-127079380D01*
X123525500Y-127031761D01*
X123477880Y-126984142D01*
D16*
X118581230Y-132465422D02*
X118581230Y-132906656D01*
X118581230Y-132686039D02*
X117809070Y-132686039D01*
X117919379Y-132759578D01*
X117992918Y-132833117D01*
X118029687Y-132906656D01*
X117819109Y-136843656D02*
X117782340Y-136806886D01*
X117745570Y-136733347D01*
X117745570Y-136549500D01*
X117782340Y-136475961D01*
X117819109Y-136439191D01*
X117892648Y-136402422D01*
X117966187Y-136402422D01*
X118076496Y-136439191D01*
X118517730Y-136880425D01*
X118517730Y-136402422D01*
X115523070Y-130202425D02*
X115523070Y-129724422D01*
X115817226Y-129981808D01*
X115817226Y-129871500D01*
X115853996Y-129797961D01*
X115890765Y-129761191D01*
X115964304Y-129724422D01*
X116148152Y-129724422D01*
X116221691Y-129761191D01*
X116258460Y-129797961D01*
X116295230Y-129871500D01*
X116295230Y-130092117D01*
X116258460Y-130165656D01*
X116221691Y-130202425D01*
X116666070Y-139360191D02*
X116666070Y-139727886D01*
X117033765Y-139764656D01*
X116996996Y-139727886D01*
X116960226Y-139654347D01*
X116960226Y-139470500D01*
X116996996Y-139396961D01*
X117033765Y-139360191D01*
X117107304Y-139323422D01*
X117291152Y-139323422D01*
X117364691Y-139360191D01*
X117401460Y-139396961D01*
X117438230Y-139470500D01*
X117438230Y-139654347D01*
X117401460Y-139727886D01*
X117364691Y-139764656D01*
X112856070Y-129670961D02*
X112856070Y-129818039D01*
X112892840Y-129891578D01*
X112929609Y-129928347D01*
X113039918Y-130001886D01*
X113186996Y-130038656D01*
X113481152Y-130038656D01*
X113554691Y-130001886D01*
X113591460Y-129965117D01*
X113628230Y-129891578D01*
X113628230Y-129744500D01*
X113591460Y-129670961D01*
X113554691Y-129634191D01*
X113481152Y-129597422D01*
X113297304Y-129597422D01*
X113223765Y-129634191D01*
X113186996Y-129670961D01*
X113150226Y-129744500D01*
X113150226Y-129891578D01*
X113186996Y-129965117D01*
X113223765Y-130001886D01*
X113297304Y-130038656D01*
X113186996Y-139797578D02*
X113150226Y-139871117D01*
X113113457Y-139907886D01*
X113039918Y-139944656D01*
X113003148Y-139944656D01*
X112929609Y-139907886D01*
X112892840Y-139871117D01*
X112856070Y-139797578D01*
X112856070Y-139650500D01*
X112892840Y-139576961D01*
X112929609Y-139540191D01*
X113003148Y-139503422D01*
X113039918Y-139503422D01*
X113113457Y-139540191D01*
X113150226Y-139576961D01*
X113186996Y-139650500D01*
X113186996Y-139797578D01*
X113223765Y-139871117D01*
X113260535Y-139907886D01*
X113334074Y-139944656D01*
X113481152Y-139944656D01*
X113554691Y-139907886D01*
X113591460Y-139871117D01*
X113628230Y-139797578D01*
X113628230Y-139650500D01*
X113591460Y-139576961D01*
X113554691Y-139540191D01*
X113481152Y-139503422D01*
X113334074Y-139503422D01*
X113260535Y-139540191D01*
X113223765Y-139576961D01*
X113186996Y-139650500D01*
X113186996Y-139797578D02*
X113150226Y-139871117D01*
X113113457Y-139907886D01*
X113039918Y-139944656D01*
X113003148Y-139944656D01*
X112929609Y-139907886D01*
X112892840Y-139871117D01*
X112856070Y-139797578D01*
X112856070Y-139650500D01*
X112892840Y-139576961D01*
X112929609Y-139540191D01*
X113003148Y-139503422D01*
X113039918Y-139503422D01*
X113113457Y-139540191D01*
X113150226Y-139576961D01*
X113186996Y-139650500D01*
X113186996Y-139797578D01*
X113223765Y-139871117D01*
X113260535Y-139907886D01*
X113334074Y-139944656D01*
X113481152Y-139944656D01*
X113554691Y-139907886D01*
X113591460Y-139871117D01*
X113628230Y-139797578D01*
X113628230Y-139650500D01*
X113591460Y-139576961D01*
X113554691Y-139540191D01*
X113481152Y-139503422D01*
X113334074Y-139503422D01*
X113260535Y-139540191D01*
X113223765Y-139576961D01*
X113186996Y-139650500D01*
X115523070Y-130202425D02*
X115523070Y-129724422D01*
X115817226Y-129981808D01*
X115817226Y-129871500D01*
X115853996Y-129797961D01*
X115890765Y-129761191D01*
X115964304Y-129724422D01*
X116148152Y-129724422D01*
X116221691Y-129761191D01*
X116258460Y-129797961D01*
X116295230Y-129871500D01*
X116295230Y-130092117D01*
X116258460Y-130165656D01*
X116221691Y-130202425D01*
X118581230Y-132465422D02*
X118581230Y-132906656D01*
X118581230Y-132686039D02*
X117809070Y-132686039D01*
X117919379Y-132759578D01*
X117992918Y-132833117D01*
X118029687Y-132906656D01*
X112856070Y-129670961D02*
X112856070Y-129818039D01*
X112892840Y-129891578D01*
X112929609Y-129928347D01*
X113039918Y-130001886D01*
X113186996Y-130038656D01*
X113481152Y-130038656D01*
X113554691Y-130001886D01*
X113591460Y-129965117D01*
X113628230Y-129891578D01*
X113628230Y-129744500D01*
X113591460Y-129670961D01*
X113554691Y-129634191D01*
X113481152Y-129597422D01*
X113297304Y-129597422D01*
X113223765Y-129634191D01*
X113186996Y-129670961D01*
X113150226Y-129744500D01*
X113150226Y-129891578D01*
X113186996Y-129965117D01*
X113223765Y-130001886D01*
X113297304Y-130038656D01*
X116666070Y-139360191D02*
X116666070Y-139727886D01*
X117033765Y-139764656D01*
X116996996Y-139727886D01*
X116960226Y-139654347D01*
X116960226Y-139470500D01*
X116996996Y-139396961D01*
X117033765Y-139360191D01*
X117107304Y-139323422D01*
X117291152Y-139323422D01*
X117364691Y-139360191D01*
X117401460Y-139396961D01*
X117438230Y-139470500D01*
X117438230Y-139654347D01*
X117401460Y-139727886D01*
X117364691Y-139764656D01*
X117819109Y-136843656D02*
X117782340Y-136806886D01*
X117745570Y-136733347D01*
X117745570Y-136549500D01*
X117782340Y-136475961D01*
X117819109Y-136439191D01*
X117892648Y-136402422D01*
X117966187Y-136402422D01*
X118076496Y-136439191D01*
X118517730Y-136880425D01*
X118517730Y-136402422D01*
X112792570Y-136943925D02*
X112792570Y-136429152D01*
X113564730Y-136760078D01*
X112792570Y-136943925D02*
X112792570Y-136429152D01*
X113564730Y-136760078D01*
X113049957Y-132348461D02*
X113564730Y-132348461D01*
X112755800Y-132532308D02*
X113307343Y-132716156D01*
X113307343Y-132238152D01*
X113049957Y-132348461D02*
X113564730Y-132348461D01*
X112755800Y-132532308D02*
X113307343Y-132716156D01*
X113307343Y-132238152D01*
%TO.C,C16*%
D10*
X85209142Y-111990142D02*
X85161523Y-112037761D01*
X85018666Y-112085380D01*
X84923428Y-112085380D01*
X84780571Y-112037761D01*
X84685333Y-111942523D01*
X84637714Y-111847285D01*
X84590095Y-111656809D01*
X84590095Y-111513952D01*
X84637714Y-111323476D01*
X84685333Y-111228238D01*
X84780571Y-111133000D01*
X84923428Y-111085380D01*
X85018666Y-111085380D01*
X85161523Y-111133000D01*
X85209142Y-111180619D01*
X86161523Y-112085380D02*
X85590095Y-112085380D01*
X85875809Y-112085380D02*
X85875809Y-111085380D01*
X85780571Y-111228238D01*
X85685333Y-111323476D01*
X85590095Y-111371095D01*
X87018666Y-111085380D02*
X86828190Y-111085380D01*
X86732952Y-111133000D01*
X86685333Y-111180619D01*
X86590095Y-111323476D01*
X86542476Y-111513952D01*
X86542476Y-111894904D01*
X86590095Y-111990142D01*
X86637714Y-112037761D01*
X86732952Y-112085380D01*
X86923428Y-112085380D01*
X87018666Y-112037761D01*
X87066285Y-111990142D01*
X87113904Y-111894904D01*
X87113904Y-111656809D01*
X87066285Y-111561571D01*
X87018666Y-111513952D01*
X86923428Y-111466333D01*
X86732952Y-111466333D01*
X86637714Y-111513952D01*
X86590095Y-111561571D01*
X86542476Y-111656809D01*
%TO.C,C17*%
X73001142Y-129420857D02*
X73048761Y-129468476D01*
X73096380Y-129611333D01*
X73096380Y-129706571D01*
X73048761Y-129849428D01*
X72953523Y-129944666D01*
X72858285Y-129992285D01*
X72667809Y-130039904D01*
X72524952Y-130039904D01*
X72334476Y-129992285D01*
X72239238Y-129944666D01*
X72144000Y-129849428D01*
X72096380Y-129706571D01*
X72096380Y-129611333D01*
X72144000Y-129468476D01*
X72191619Y-129420857D01*
X73096380Y-128468476D02*
X73096380Y-129039904D01*
X73096380Y-128754190D02*
X72096380Y-128754190D01*
X72239238Y-128849428D01*
X72334476Y-128944666D01*
X72382095Y-129039904D01*
X72096380Y-128135142D02*
X72096380Y-127468476D01*
X73096380Y-127897047D01*
%TO.C,C18*%
X91445142Y-132193357D02*
X91492761Y-132240976D01*
X91540380Y-132383833D01*
X91540380Y-132479071D01*
X91492761Y-132621928D01*
X91397523Y-132717166D01*
X91302285Y-132764785D01*
X91111809Y-132812404D01*
X90968952Y-132812404D01*
X90778476Y-132764785D01*
X90683238Y-132717166D01*
X90588000Y-132621928D01*
X90540380Y-132479071D01*
X90540380Y-132383833D01*
X90588000Y-132240976D01*
X90635619Y-132193357D01*
X91540380Y-131240976D02*
X91540380Y-131812404D01*
X91540380Y-131526690D02*
X90540380Y-131526690D01*
X90683238Y-131621928D01*
X90778476Y-131717166D01*
X90826095Y-131812404D01*
X90968952Y-130669547D02*
X90921333Y-130764785D01*
X90873714Y-130812404D01*
X90778476Y-130860023D01*
X90730857Y-130860023D01*
X90635619Y-130812404D01*
X90588000Y-130764785D01*
X90540380Y-130669547D01*
X90540380Y-130479071D01*
X90588000Y-130383833D01*
X90635619Y-130336214D01*
X90730857Y-130288595D01*
X90778476Y-130288595D01*
X90873714Y-130336214D01*
X90921333Y-130383833D01*
X90968952Y-130479071D01*
X90968952Y-130669547D01*
X91016571Y-130764785D01*
X91064190Y-130812404D01*
X91159428Y-130860023D01*
X91349904Y-130860023D01*
X91445142Y-130812404D01*
X91492761Y-130764785D01*
X91540380Y-130669547D01*
X91540380Y-130479071D01*
X91492761Y-130383833D01*
X91445142Y-130336214D01*
X91349904Y-130288595D01*
X91159428Y-130288595D01*
X91064190Y-130336214D01*
X91016571Y-130383833D01*
X90968952Y-130479071D01*
%TO.C,C19*%
X53760642Y-144406857D02*
X53808261Y-144454476D01*
X53855880Y-144597333D01*
X53855880Y-144692571D01*
X53808261Y-144835428D01*
X53713023Y-144930666D01*
X53617785Y-144978285D01*
X53427309Y-145025904D01*
X53284452Y-145025904D01*
X53093976Y-144978285D01*
X52998738Y-144930666D01*
X52903500Y-144835428D01*
X52855880Y-144692571D01*
X52855880Y-144597333D01*
X52903500Y-144454476D01*
X52951119Y-144406857D01*
X53855880Y-143454476D02*
X53855880Y-144025904D01*
X53855880Y-143740190D02*
X52855880Y-143740190D01*
X52998738Y-143835428D01*
X53093976Y-143930666D01*
X53141595Y-144025904D01*
X53855880Y-142978285D02*
X53855880Y-142787809D01*
X53808261Y-142692571D01*
X53760642Y-142644952D01*
X53617785Y-142549714D01*
X53427309Y-142502095D01*
X53046357Y-142502095D01*
X52951119Y-142549714D01*
X52903500Y-142597333D01*
X52855880Y-142692571D01*
X52855880Y-142883047D01*
X52903500Y-142978285D01*
X52951119Y-143025904D01*
X53046357Y-143073523D01*
X53284452Y-143073523D01*
X53379690Y-143025904D01*
X53427309Y-142978285D01*
X53474928Y-142883047D01*
X53474928Y-142692571D01*
X53427309Y-142597333D01*
X53379690Y-142549714D01*
X53284452Y-142502095D01*
%TO.C,C20*%
X58624142Y-149230142D02*
X58576523Y-149277761D01*
X58433666Y-149325380D01*
X58338428Y-149325380D01*
X58195571Y-149277761D01*
X58100333Y-149182523D01*
X58052714Y-149087285D01*
X58005095Y-148896809D01*
X58005095Y-148753952D01*
X58052714Y-148563476D01*
X58100333Y-148468238D01*
X58195571Y-148373000D01*
X58338428Y-148325380D01*
X58433666Y-148325380D01*
X58576523Y-148373000D01*
X58624142Y-148420619D01*
X59005095Y-148420619D02*
X59052714Y-148373000D01*
X59147952Y-148325380D01*
X59386047Y-148325380D01*
X59481285Y-148373000D01*
X59528904Y-148420619D01*
X59576523Y-148515857D01*
X59576523Y-148611095D01*
X59528904Y-148753952D01*
X58957476Y-149325380D01*
X59576523Y-149325380D01*
X60195571Y-148325380D02*
X60290809Y-148325380D01*
X60386047Y-148373000D01*
X60433666Y-148420619D01*
X60481285Y-148515857D01*
X60528904Y-148706333D01*
X60528904Y-148944428D01*
X60481285Y-149134904D01*
X60433666Y-149230142D01*
X60386047Y-149277761D01*
X60290809Y-149325380D01*
X60195571Y-149325380D01*
X60100333Y-149277761D01*
X60052714Y-149230142D01*
X60005095Y-149134904D01*
X59957476Y-148944428D01*
X59957476Y-148706333D01*
X60005095Y-148515857D01*
X60052714Y-148420619D01*
X60100333Y-148373000D01*
X60195571Y-148325380D01*
%TO.C,U6*%
X69596095Y-144740380D02*
X69596095Y-145549904D01*
X69643714Y-145645142D01*
X69691333Y-145692761D01*
X69786571Y-145740380D01*
X69977047Y-145740380D01*
X70072285Y-145692761D01*
X70119904Y-145645142D01*
X70167523Y-145549904D01*
X70167523Y-144740380D01*
X71072285Y-144740380D02*
X70881809Y-144740380D01*
X70786571Y-144788000D01*
X70738952Y-144835619D01*
X70643714Y-144978476D01*
X70596095Y-145168952D01*
X70596095Y-145549904D01*
X70643714Y-145645142D01*
X70691333Y-145692761D01*
X70786571Y-145740380D01*
X70977047Y-145740380D01*
X71072285Y-145692761D01*
X71119904Y-145645142D01*
X71167523Y-145549904D01*
X71167523Y-145311809D01*
X71119904Y-145216571D01*
X71072285Y-145168952D01*
X70977047Y-145121333D01*
X70786571Y-145121333D01*
X70691333Y-145168952D01*
X70643714Y-145216571D01*
X70596095Y-145311809D01*
%TO.C,J2*%
X95170666Y-105857880D02*
X95170666Y-106572166D01*
X95123047Y-106715023D01*
X95027809Y-106810261D01*
X94884952Y-106857880D01*
X94789714Y-106857880D01*
X95599238Y-105953119D02*
X95646857Y-105905500D01*
X95742095Y-105857880D01*
X95980190Y-105857880D01*
X96075428Y-105905500D01*
X96123047Y-105953119D01*
X96170666Y-106048357D01*
X96170666Y-106143595D01*
X96123047Y-106286452D01*
X95551619Y-106857880D01*
X96170666Y-106857880D01*
%TO.C,C2*%
X75189142Y-148227166D02*
X75236761Y-148274785D01*
X75284380Y-148417642D01*
X75284380Y-148512880D01*
X75236761Y-148655738D01*
X75141523Y-148750976D01*
X75046285Y-148798595D01*
X74855809Y-148846214D01*
X74712952Y-148846214D01*
X74522476Y-148798595D01*
X74427238Y-148750976D01*
X74332000Y-148655738D01*
X74284380Y-148512880D01*
X74284380Y-148417642D01*
X74332000Y-148274785D01*
X74379619Y-148227166D01*
X74379619Y-147846214D02*
X74332000Y-147798595D01*
X74284380Y-147703357D01*
X74284380Y-147465261D01*
X74332000Y-147370023D01*
X74379619Y-147322404D01*
X74474857Y-147274785D01*
X74570095Y-147274785D01*
X74712952Y-147322404D01*
X75284380Y-147893833D01*
X75284380Y-147274785D01*
%TO.C,C11*%
X65000142Y-150058357D02*
X65047761Y-150105976D01*
X65095380Y-150248833D01*
X65095380Y-150344071D01*
X65047761Y-150486928D01*
X64952523Y-150582166D01*
X64857285Y-150629785D01*
X64666809Y-150677404D01*
X64523952Y-150677404D01*
X64333476Y-150629785D01*
X64238238Y-150582166D01*
X64143000Y-150486928D01*
X64095380Y-150344071D01*
X64095380Y-150248833D01*
X64143000Y-150105976D01*
X64190619Y-150058357D01*
X65095380Y-149105976D02*
X65095380Y-149677404D01*
X65095380Y-149391690D02*
X64095380Y-149391690D01*
X64238238Y-149486928D01*
X64333476Y-149582166D01*
X64381095Y-149677404D01*
X65095380Y-148153595D02*
X65095380Y-148725023D01*
X65095380Y-148439309D02*
X64095380Y-148439309D01*
X64238238Y-148534547D01*
X64333476Y-148629785D01*
X64381095Y-148725023D01*
%TO.C,C21*%
X65143142Y-146915142D02*
X65095523Y-146962761D01*
X64952666Y-147010380D01*
X64857428Y-147010380D01*
X64714571Y-146962761D01*
X64619333Y-146867523D01*
X64571714Y-146772285D01*
X64524095Y-146581809D01*
X64524095Y-146438952D01*
X64571714Y-146248476D01*
X64619333Y-146153238D01*
X64714571Y-146058000D01*
X64857428Y-146010380D01*
X64952666Y-146010380D01*
X65095523Y-146058000D01*
X65143142Y-146105619D01*
X65524095Y-146105619D02*
X65571714Y-146058000D01*
X65666952Y-146010380D01*
X65905047Y-146010380D01*
X66000285Y-146058000D01*
X66047904Y-146105619D01*
X66095523Y-146200857D01*
X66095523Y-146296095D01*
X66047904Y-146438952D01*
X65476476Y-147010380D01*
X66095523Y-147010380D01*
X67047904Y-147010380D02*
X66476476Y-147010380D01*
X66762190Y-147010380D02*
X66762190Y-146010380D01*
X66666952Y-146153238D01*
X66571714Y-146248476D01*
X66476476Y-146296095D01*
%TO.C,R48*%
X63190380Y-147200857D02*
X62714190Y-147534190D01*
X63190380Y-147772285D02*
X62190380Y-147772285D01*
X62190380Y-147391333D01*
X62238000Y-147296095D01*
X62285619Y-147248476D01*
X62380857Y-147200857D01*
X62523714Y-147200857D01*
X62618952Y-147248476D01*
X62666571Y-147296095D01*
X62714190Y-147391333D01*
X62714190Y-147772285D01*
X62523714Y-146343714D02*
X63190380Y-146343714D01*
X62142761Y-146581809D02*
X62857047Y-146819904D01*
X62857047Y-146200857D01*
X62618952Y-145677047D02*
X62571333Y-145772285D01*
X62523714Y-145819904D01*
X62428476Y-145867523D01*
X62380857Y-145867523D01*
X62285619Y-145819904D01*
X62238000Y-145772285D01*
X62190380Y-145677047D01*
X62190380Y-145486571D01*
X62238000Y-145391333D01*
X62285619Y-145343714D01*
X62380857Y-145296095D01*
X62428476Y-145296095D01*
X62523714Y-145343714D01*
X62571333Y-145391333D01*
X62618952Y-145486571D01*
X62618952Y-145677047D01*
X62666571Y-145772285D01*
X62714190Y-145819904D01*
X62809428Y-145867523D01*
X62999904Y-145867523D01*
X63095142Y-145819904D01*
X63142761Y-145772285D01*
X63190380Y-145677047D01*
X63190380Y-145486571D01*
X63142761Y-145391333D01*
X63095142Y-145343714D01*
X62999904Y-145296095D01*
X62809428Y-145296095D01*
X62714190Y-145343714D01*
X62666571Y-145391333D01*
X62618952Y-145486571D01*
%TO.C,R49*%
X67094380Y-142525357D02*
X66618190Y-142858690D01*
X67094380Y-143096785D02*
X66094380Y-143096785D01*
X66094380Y-142715833D01*
X66142000Y-142620595D01*
X66189619Y-142572976D01*
X66284857Y-142525357D01*
X66427714Y-142525357D01*
X66522952Y-142572976D01*
X66570571Y-142620595D01*
X66618190Y-142715833D01*
X66618190Y-143096785D01*
X66427714Y-141668214D02*
X67094380Y-141668214D01*
X66046761Y-141906309D02*
X66761047Y-142144404D01*
X66761047Y-141525357D01*
X67094380Y-141096785D02*
X67094380Y-140906309D01*
X67046761Y-140811071D01*
X66999142Y-140763452D01*
X66856285Y-140668214D01*
X66665809Y-140620595D01*
X66284857Y-140620595D01*
X66189619Y-140668214D01*
X66142000Y-140715833D01*
X66094380Y-140811071D01*
X66094380Y-141001547D01*
X66142000Y-141096785D01*
X66189619Y-141144404D01*
X66284857Y-141192023D01*
X66522952Y-141192023D01*
X66618190Y-141144404D01*
X66665809Y-141096785D01*
X66713428Y-141001547D01*
X66713428Y-140811071D01*
X66665809Y-140715833D01*
X66618190Y-140668214D01*
X66522952Y-140620595D01*
%TO.C,R50*%
X73167642Y-152758380D02*
X72834309Y-152282190D01*
X72596214Y-152758380D02*
X72596214Y-151758380D01*
X72977166Y-151758380D01*
X73072404Y-151806000D01*
X73120023Y-151853619D01*
X73167642Y-151948857D01*
X73167642Y-152091714D01*
X73120023Y-152186952D01*
X73072404Y-152234571D01*
X72977166Y-152282190D01*
X72596214Y-152282190D01*
X74072404Y-151758380D02*
X73596214Y-151758380D01*
X73548595Y-152234571D01*
X73596214Y-152186952D01*
X73691452Y-152139333D01*
X73929547Y-152139333D01*
X74024785Y-152186952D01*
X74072404Y-152234571D01*
X74120023Y-152329809D01*
X74120023Y-152567904D01*
X74072404Y-152663142D01*
X74024785Y-152710761D01*
X73929547Y-152758380D01*
X73691452Y-152758380D01*
X73596214Y-152710761D01*
X73548595Y-152663142D01*
X74739071Y-151758380D02*
X74834309Y-151758380D01*
X74929547Y-151806000D01*
X74977166Y-151853619D01*
X75024785Y-151948857D01*
X75072404Y-152139333D01*
X75072404Y-152377428D01*
X75024785Y-152567904D01*
X74977166Y-152663142D01*
X74929547Y-152710761D01*
X74834309Y-152758380D01*
X74739071Y-152758380D01*
X74643833Y-152710761D01*
X74596214Y-152663142D01*
X74548595Y-152567904D01*
X74500976Y-152377428D01*
X74500976Y-152139333D01*
X74548595Y-151948857D01*
X74596214Y-151853619D01*
X74643833Y-151806000D01*
X74739071Y-151758380D01*
%TO.C,R51*%
X68953142Y-152758380D02*
X68619809Y-152282190D01*
X68381714Y-152758380D02*
X68381714Y-151758380D01*
X68762666Y-151758380D01*
X68857904Y-151806000D01*
X68905523Y-151853619D01*
X68953142Y-151948857D01*
X68953142Y-152091714D01*
X68905523Y-152186952D01*
X68857904Y-152234571D01*
X68762666Y-152282190D01*
X68381714Y-152282190D01*
X69857904Y-151758380D02*
X69381714Y-151758380D01*
X69334095Y-152234571D01*
X69381714Y-152186952D01*
X69476952Y-152139333D01*
X69715047Y-152139333D01*
X69810285Y-152186952D01*
X69857904Y-152234571D01*
X69905523Y-152329809D01*
X69905523Y-152567904D01*
X69857904Y-152663142D01*
X69810285Y-152710761D01*
X69715047Y-152758380D01*
X69476952Y-152758380D01*
X69381714Y-152710761D01*
X69334095Y-152663142D01*
X70857904Y-152758380D02*
X70286476Y-152758380D01*
X70572190Y-152758380D02*
X70572190Y-151758380D01*
X70476952Y-151901238D01*
X70381714Y-151996476D01*
X70286476Y-152044095D01*
%TO.C,R52*%
X74033142Y-106784380D02*
X73699809Y-106308190D01*
X73461714Y-106784380D02*
X73461714Y-105784380D01*
X73842666Y-105784380D01*
X73937904Y-105832000D01*
X73985523Y-105879619D01*
X74033142Y-105974857D01*
X74033142Y-106117714D01*
X73985523Y-106212952D01*
X73937904Y-106260571D01*
X73842666Y-106308190D01*
X73461714Y-106308190D01*
X74937904Y-105784380D02*
X74461714Y-105784380D01*
X74414095Y-106260571D01*
X74461714Y-106212952D01*
X74556952Y-106165333D01*
X74795047Y-106165333D01*
X74890285Y-106212952D01*
X74937904Y-106260571D01*
X74985523Y-106355809D01*
X74985523Y-106593904D01*
X74937904Y-106689142D01*
X74890285Y-106736761D01*
X74795047Y-106784380D01*
X74556952Y-106784380D01*
X74461714Y-106736761D01*
X74414095Y-106689142D01*
X75366476Y-105879619D02*
X75414095Y-105832000D01*
X75509333Y-105784380D01*
X75747428Y-105784380D01*
X75842666Y-105832000D01*
X75890285Y-105879619D01*
X75937904Y-105974857D01*
X75937904Y-106070095D01*
X75890285Y-106212952D01*
X75318857Y-106784380D01*
X75937904Y-106784380D01*
%TO.C,D2*%
X96543904Y-122118380D02*
X96543904Y-121118380D01*
X96782000Y-121118380D01*
X96924857Y-121166000D01*
X97020095Y-121261238D01*
X97067714Y-121356476D01*
X97115333Y-121546952D01*
X97115333Y-121689809D01*
X97067714Y-121880285D01*
X97020095Y-121975523D01*
X96924857Y-122070761D01*
X96782000Y-122118380D01*
X96543904Y-122118380D01*
X97496285Y-121213619D02*
X97543904Y-121166000D01*
X97639142Y-121118380D01*
X97877238Y-121118380D01*
X97972476Y-121166000D01*
X98020095Y-121213619D01*
X98067714Y-121308857D01*
X98067714Y-121404095D01*
X98020095Y-121546952D01*
X97448666Y-122118380D01*
X98067714Y-122118380D01*
%TO.C,R53*%
X94178380Y-121345358D02*
X93702190Y-121678691D01*
X94178380Y-121916786D02*
X93178380Y-121916786D01*
X93178380Y-121535834D01*
X93226000Y-121440596D01*
X93273619Y-121392977D01*
X93368857Y-121345358D01*
X93511714Y-121345358D01*
X93606952Y-121392977D01*
X93654571Y-121440596D01*
X93702190Y-121535834D01*
X93702190Y-121916786D01*
X93178380Y-120440596D02*
X93178380Y-120916786D01*
X93654571Y-120964405D01*
X93606952Y-120916786D01*
X93559333Y-120821548D01*
X93559333Y-120583453D01*
X93606952Y-120488215D01*
X93654571Y-120440596D01*
X93749809Y-120392977D01*
X93987904Y-120392977D01*
X94083142Y-120440596D01*
X94130761Y-120488215D01*
X94178380Y-120583453D01*
X94178380Y-120821548D01*
X94130761Y-120916786D01*
X94083142Y-120964405D01*
X93178380Y-120059643D02*
X93178380Y-119440596D01*
X93559333Y-119773929D01*
X93559333Y-119631072D01*
X93606952Y-119535834D01*
X93654571Y-119488215D01*
X93749809Y-119440596D01*
X93987904Y-119440596D01*
X94083142Y-119488215D01*
X94130761Y-119535834D01*
X94178380Y-119631072D01*
X94178380Y-119916786D01*
X94130761Y-120012024D01*
X94083142Y-120059643D01*
%TO.C,R54*%
X64000142Y-103990380D02*
X63666809Y-103514190D01*
X63428714Y-103990380D02*
X63428714Y-102990380D01*
X63809666Y-102990380D01*
X63904904Y-103038000D01*
X63952523Y-103085619D01*
X64000142Y-103180857D01*
X64000142Y-103323714D01*
X63952523Y-103418952D01*
X63904904Y-103466571D01*
X63809666Y-103514190D01*
X63428714Y-103514190D01*
X64904904Y-102990380D02*
X64428714Y-102990380D01*
X64381095Y-103466571D01*
X64428714Y-103418952D01*
X64523952Y-103371333D01*
X64762047Y-103371333D01*
X64857285Y-103418952D01*
X64904904Y-103466571D01*
X64952523Y-103561809D01*
X64952523Y-103799904D01*
X64904904Y-103895142D01*
X64857285Y-103942761D01*
X64762047Y-103990380D01*
X64523952Y-103990380D01*
X64428714Y-103942761D01*
X64381095Y-103895142D01*
X65809666Y-103323714D02*
X65809666Y-103990380D01*
X65571571Y-102942761D02*
X65333476Y-103657047D01*
X65952523Y-103657047D01*
%TD*%
M02*
