%TF.GenerationSoftware,KiCad,Pcbnew,5.1.10-88a1d61d58~89~ubuntu20.04.1*%
%TF.CreationDate,2021-10-06T22:40:21-05:00*%
%TF.ProjectId,serial_rewind_d2,73657269-616c-45f7-9265-77696e645f64,rev?*%
%TF.SameCoordinates,Original*%
%TF.FileFunction,Soldermask,Bot*%
%TF.FilePolarity,Negative*%
%FSLAX46Y46*%
G04 Gerber Fmt 4.6, Leading zero omitted, Abs format (unit mm)*
G04 Created by KiCad (PCBNEW 5.1.10-88a1d61d58~89~ubuntu20.04.1) date 2021-10-06 22:40:21*
%MOMM*%
%LPD*%
G01*
G04 APERTURE LIST*
%ADD10C,2.000000*%
%ADD11R,2.500000X0.350000*%
%ADD12R,2.000000X2.500000*%
%ADD13R,1.700000X1.700000*%
%ADD14O,1.700000X1.700000*%
%ADD15C,6.400000*%
%ADD16C,3.601600*%
%ADD17C,1.524000*%
%ADD18C,3.500000*%
%ADD19R,1.524000X1.524000*%
%ADD20O,2.300000X3.300000*%
%ADD21O,2.900000X1.900000*%
G04 APERTURE END LIST*
D10*
%TO.C,FID6*%
X122428000Y-102108000D03*
%TD*%
%TO.C,FID4*%
X56388000Y-150876000D03*
%TD*%
%TO.C,FID2*%
X122428000Y-151384000D03*
%TD*%
D11*
%TO.C,J1*%
X63090000Y-106703000D03*
X58390000Y-106703000D03*
X63090000Y-107338000D03*
X58390000Y-107338000D03*
X63090000Y-107973000D03*
X58390000Y-107973000D03*
X63090000Y-108608000D03*
X58390000Y-108608000D03*
X63090000Y-109243000D03*
X58390000Y-109243000D03*
X63090000Y-109878000D03*
X58390000Y-109878000D03*
X63090000Y-110513000D03*
X58390000Y-110513000D03*
X63090000Y-111148000D03*
X58390000Y-111148000D03*
X63090000Y-111783000D03*
X58390000Y-111783000D03*
X63090000Y-112418000D03*
X58390000Y-112418000D03*
X63090000Y-113053000D03*
X58390000Y-113053000D03*
X63090000Y-113688000D03*
X58390000Y-113688000D03*
X63090000Y-114323000D03*
X58390000Y-114323000D03*
X63090000Y-114958000D03*
X58390000Y-114958000D03*
X63090000Y-115593000D03*
X58390000Y-115593000D03*
X63090000Y-116228000D03*
X58390000Y-116228000D03*
X63090000Y-116863000D03*
X58390000Y-116863000D03*
X63090000Y-117498000D03*
X58390000Y-117498000D03*
X63090000Y-118133000D03*
X58390000Y-118133000D03*
X63090000Y-118768000D03*
X58390000Y-118768000D03*
D12*
X60740000Y-103000000D03*
X60740000Y-122470000D03*
%TD*%
D13*
%TO.C,J4*%
X109474000Y-129222500D03*
D14*
X106934000Y-129222500D03*
X109474000Y-131762500D03*
X106934000Y-131762500D03*
X109474000Y-134302500D03*
X106934000Y-134302500D03*
X109474000Y-136842500D03*
X106934000Y-136842500D03*
X109474000Y-139382500D03*
X106934000Y-139382500D03*
%TD*%
D13*
%TO.C,J6*%
X108712000Y-116078000D03*
D14*
X106172000Y-116078000D03*
X103632000Y-116078000D03*
X101092000Y-116078000D03*
X98552000Y-116078000D03*
%TD*%
%TO.C,U1*%
G36*
G01*
X88351500Y-129563500D02*
X88051500Y-129563500D01*
G75*
G02*
X87901500Y-129413500I0J150000D01*
G01*
X87901500Y-127663500D01*
G75*
G02*
X88051500Y-127513500I150000J0D01*
G01*
X88351500Y-127513500D01*
G75*
G02*
X88501500Y-127663500I0J-150000D01*
G01*
X88501500Y-129413500D01*
G75*
G02*
X88351500Y-129563500I-150000J0D01*
G01*
G37*
G36*
G01*
X87081500Y-129563500D02*
X86781500Y-129563500D01*
G75*
G02*
X86631500Y-129413500I0J150000D01*
G01*
X86631500Y-127663500D01*
G75*
G02*
X86781500Y-127513500I150000J0D01*
G01*
X87081500Y-127513500D01*
G75*
G02*
X87231500Y-127663500I0J-150000D01*
G01*
X87231500Y-129413500D01*
G75*
G02*
X87081500Y-129563500I-150000J0D01*
G01*
G37*
G36*
G01*
X85811500Y-129563500D02*
X85511500Y-129563500D01*
G75*
G02*
X85361500Y-129413500I0J150000D01*
G01*
X85361500Y-127663500D01*
G75*
G02*
X85511500Y-127513500I150000J0D01*
G01*
X85811500Y-127513500D01*
G75*
G02*
X85961500Y-127663500I0J-150000D01*
G01*
X85961500Y-129413500D01*
G75*
G02*
X85811500Y-129563500I-150000J0D01*
G01*
G37*
G36*
G01*
X84541500Y-129563500D02*
X84241500Y-129563500D01*
G75*
G02*
X84091500Y-129413500I0J150000D01*
G01*
X84091500Y-127663500D01*
G75*
G02*
X84241500Y-127513500I150000J0D01*
G01*
X84541500Y-127513500D01*
G75*
G02*
X84691500Y-127663500I0J-150000D01*
G01*
X84691500Y-129413500D01*
G75*
G02*
X84541500Y-129563500I-150000J0D01*
G01*
G37*
G36*
G01*
X83271500Y-129563500D02*
X82971500Y-129563500D01*
G75*
G02*
X82821500Y-129413500I0J150000D01*
G01*
X82821500Y-127663500D01*
G75*
G02*
X82971500Y-127513500I150000J0D01*
G01*
X83271500Y-127513500D01*
G75*
G02*
X83421500Y-127663500I0J-150000D01*
G01*
X83421500Y-129413500D01*
G75*
G02*
X83271500Y-129563500I-150000J0D01*
G01*
G37*
G36*
G01*
X82001500Y-129563500D02*
X81701500Y-129563500D01*
G75*
G02*
X81551500Y-129413500I0J150000D01*
G01*
X81551500Y-127663500D01*
G75*
G02*
X81701500Y-127513500I150000J0D01*
G01*
X82001500Y-127513500D01*
G75*
G02*
X82151500Y-127663500I0J-150000D01*
G01*
X82151500Y-129413500D01*
G75*
G02*
X82001500Y-129563500I-150000J0D01*
G01*
G37*
G36*
G01*
X80731500Y-129563500D02*
X80431500Y-129563500D01*
G75*
G02*
X80281500Y-129413500I0J150000D01*
G01*
X80281500Y-127663500D01*
G75*
G02*
X80431500Y-127513500I150000J0D01*
G01*
X80731500Y-127513500D01*
G75*
G02*
X80881500Y-127663500I0J-150000D01*
G01*
X80881500Y-129413500D01*
G75*
G02*
X80731500Y-129563500I-150000J0D01*
G01*
G37*
G36*
G01*
X79461500Y-129563500D02*
X79161500Y-129563500D01*
G75*
G02*
X79011500Y-129413500I0J150000D01*
G01*
X79011500Y-127663500D01*
G75*
G02*
X79161500Y-127513500I150000J0D01*
G01*
X79461500Y-127513500D01*
G75*
G02*
X79611500Y-127663500I0J-150000D01*
G01*
X79611500Y-129413500D01*
G75*
G02*
X79461500Y-129563500I-150000J0D01*
G01*
G37*
G36*
G01*
X78191500Y-129563500D02*
X77891500Y-129563500D01*
G75*
G02*
X77741500Y-129413500I0J150000D01*
G01*
X77741500Y-127663500D01*
G75*
G02*
X77891500Y-127513500I150000J0D01*
G01*
X78191500Y-127513500D01*
G75*
G02*
X78341500Y-127663500I0J-150000D01*
G01*
X78341500Y-129413500D01*
G75*
G02*
X78191500Y-129563500I-150000J0D01*
G01*
G37*
G36*
G01*
X78191500Y-120263500D02*
X77891500Y-120263500D01*
G75*
G02*
X77741500Y-120113500I0J150000D01*
G01*
X77741500Y-118363500D01*
G75*
G02*
X77891500Y-118213500I150000J0D01*
G01*
X78191500Y-118213500D01*
G75*
G02*
X78341500Y-118363500I0J-150000D01*
G01*
X78341500Y-120113500D01*
G75*
G02*
X78191500Y-120263500I-150000J0D01*
G01*
G37*
G36*
G01*
X79461500Y-120263500D02*
X79161500Y-120263500D01*
G75*
G02*
X79011500Y-120113500I0J150000D01*
G01*
X79011500Y-118363500D01*
G75*
G02*
X79161500Y-118213500I150000J0D01*
G01*
X79461500Y-118213500D01*
G75*
G02*
X79611500Y-118363500I0J-150000D01*
G01*
X79611500Y-120113500D01*
G75*
G02*
X79461500Y-120263500I-150000J0D01*
G01*
G37*
G36*
G01*
X80731500Y-120263500D02*
X80431500Y-120263500D01*
G75*
G02*
X80281500Y-120113500I0J150000D01*
G01*
X80281500Y-118363500D01*
G75*
G02*
X80431500Y-118213500I150000J0D01*
G01*
X80731500Y-118213500D01*
G75*
G02*
X80881500Y-118363500I0J-150000D01*
G01*
X80881500Y-120113500D01*
G75*
G02*
X80731500Y-120263500I-150000J0D01*
G01*
G37*
G36*
G01*
X82001500Y-120263500D02*
X81701500Y-120263500D01*
G75*
G02*
X81551500Y-120113500I0J150000D01*
G01*
X81551500Y-118363500D01*
G75*
G02*
X81701500Y-118213500I150000J0D01*
G01*
X82001500Y-118213500D01*
G75*
G02*
X82151500Y-118363500I0J-150000D01*
G01*
X82151500Y-120113500D01*
G75*
G02*
X82001500Y-120263500I-150000J0D01*
G01*
G37*
G36*
G01*
X83271500Y-120263500D02*
X82971500Y-120263500D01*
G75*
G02*
X82821500Y-120113500I0J150000D01*
G01*
X82821500Y-118363500D01*
G75*
G02*
X82971500Y-118213500I150000J0D01*
G01*
X83271500Y-118213500D01*
G75*
G02*
X83421500Y-118363500I0J-150000D01*
G01*
X83421500Y-120113500D01*
G75*
G02*
X83271500Y-120263500I-150000J0D01*
G01*
G37*
G36*
G01*
X84541500Y-120263500D02*
X84241500Y-120263500D01*
G75*
G02*
X84091500Y-120113500I0J150000D01*
G01*
X84091500Y-118363500D01*
G75*
G02*
X84241500Y-118213500I150000J0D01*
G01*
X84541500Y-118213500D01*
G75*
G02*
X84691500Y-118363500I0J-150000D01*
G01*
X84691500Y-120113500D01*
G75*
G02*
X84541500Y-120263500I-150000J0D01*
G01*
G37*
G36*
G01*
X85811500Y-120263500D02*
X85511500Y-120263500D01*
G75*
G02*
X85361500Y-120113500I0J150000D01*
G01*
X85361500Y-118363500D01*
G75*
G02*
X85511500Y-118213500I150000J0D01*
G01*
X85811500Y-118213500D01*
G75*
G02*
X85961500Y-118363500I0J-150000D01*
G01*
X85961500Y-120113500D01*
G75*
G02*
X85811500Y-120263500I-150000J0D01*
G01*
G37*
G36*
G01*
X87081500Y-120263500D02*
X86781500Y-120263500D01*
G75*
G02*
X86631500Y-120113500I0J150000D01*
G01*
X86631500Y-118363500D01*
G75*
G02*
X86781500Y-118213500I150000J0D01*
G01*
X87081500Y-118213500D01*
G75*
G02*
X87231500Y-118363500I0J-150000D01*
G01*
X87231500Y-120113500D01*
G75*
G02*
X87081500Y-120263500I-150000J0D01*
G01*
G37*
G36*
G01*
X88351500Y-120263500D02*
X88051500Y-120263500D01*
G75*
G02*
X87901500Y-120113500I0J150000D01*
G01*
X87901500Y-118363500D01*
G75*
G02*
X88051500Y-118213500I150000J0D01*
G01*
X88351500Y-118213500D01*
G75*
G02*
X88501500Y-118363500I0J-150000D01*
G01*
X88501500Y-120113500D01*
G75*
G02*
X88351500Y-120263500I-150000J0D01*
G01*
G37*
%TD*%
D15*
%TO.C,H1*%
X52590000Y-102605000D03*
%TD*%
%TO.C,H2*%
X94365000Y-150295000D03*
%TD*%
%TO.C,H3*%
X121815000Y-113820000D03*
%TD*%
D16*
%TO.C,J5*%
X119596000Y-141600000D03*
X119596000Y-128050000D03*
X120396000Y-134800000D03*
D17*
X116596000Y-136100000D03*
G36*
G01*
X115884800Y-132738000D02*
X117307200Y-132738000D01*
G75*
G02*
X117358000Y-132788800I0J-50800D01*
G01*
X117358000Y-134211200D01*
G75*
G02*
X117307200Y-134262000I-50800J0D01*
G01*
X115884800Y-134262000D01*
G75*
G02*
X115834000Y-134211200I0J50800D01*
G01*
X115834000Y-132788800D01*
G75*
G02*
X115884800Y-132738000I50800J0D01*
G01*
G37*
X116596000Y-131400000D03*
X116596000Y-138200000D03*
X114096000Y-138200000D03*
X114096000Y-131400000D03*
X114096000Y-133500000D03*
X114096000Y-135700000D03*
%TD*%
D18*
%TO.C,J2*%
X98515000Y-103378000D03*
X111655000Y-103378000D03*
D19*
X108585000Y-106088000D03*
D17*
X106085000Y-106088000D03*
X104085000Y-106088000D03*
X101585000Y-106088000D03*
D20*
X111655000Y-106688000D03*
X98515000Y-106688000D03*
D21*
X105085000Y-110868000D03*
%TD*%
M02*
