M48
; DRILL file {KiCad 5.1.12-84ad8e8a86~92~ubuntu20.04.1} date Tue Dec  7 00:05:09 2021
; FORMAT={-:-/ absolute / metric / decimal}
; #@! TF.CreationDate,2021-12-07T00:05:09-06:00
; #@! TF.GenerationSoftware,Kicad,Pcbnew,5.1.12-84ad8e8a86~92~ubuntu20.04.1
FMAT,2
METRIC
T1C0.400
T2C0.900
T3C1.000
T4C2.250
T5C4.000
%
G90
G05
T1
X64.981Y-41.381
X66.017Y-40.656
X67.373Y-38.163
X67.501Y-41.338
T2
X58.181Y-29.2
X58.181Y-31.7
X60.281Y-29.2
X60.681Y-31.7
X62.881Y-29.2
X62.881Y-31.7
X64.981Y-29.2
X64.981Y-31.7
T3
X59.69Y-38.354
X59.69Y-40.894
X59.69Y-43.434
X59.69Y-45.974
X59.69Y-48.514
X62.23Y-38.354
X62.23Y-40.894
X62.23Y-43.434
X62.23Y-45.974
X62.23Y-48.514
T4
X54.831Y-26.2
X61.581Y-25.4
X68.331Y-26.2
T5
X48.142Y-47.434
X86.17Y-32.434
T0
M30
