%TF.GenerationSoftware,KiCad,Pcbnew,5.1.12-84ad8e8a86~92~ubuntu20.04.1*%
%TF.CreationDate,2021-12-07T00:05:06-06:00*%
%TF.ProjectId,portboard_mdd,706f7274-626f-4617-9264-5f726962626f,rev?*%
%TF.SameCoordinates,Original*%
%TF.FileFunction,Copper,L1,Top*%
%TF.FilePolarity,Positive*%
%FSLAX46Y46*%
G04 Gerber Fmt 4.6, Leading zero omitted, Abs format (unit mm)*
G04 Created by KiCad (PCBNEW 5.1.12-84ad8e8a86~92~ubuntu20.04.1) date 2021-12-07 00:05:06*
%MOMM*%
%LPD*%
G01*
G04 APERTURE LIST*
%TA.AperFunction,SMDPad,CuDef*%
%ADD10R,1.300000X0.300000*%
%TD*%
%TA.AperFunction,SMDPad,CuDef*%
%ADD11R,2.200000X1.800000*%
%TD*%
%TA.AperFunction,ComponentPad*%
%ADD12C,8.000000*%
%TD*%
%TA.AperFunction,ComponentPad*%
%ADD13O,1.700000X1.700000*%
%TD*%
%TA.AperFunction,ComponentPad*%
%ADD14R,1.700000X1.700000*%
%TD*%
%TA.AperFunction,ComponentPad*%
%ADD15C,1.422400*%
%TD*%
%TA.AperFunction,ComponentPad*%
%ADD16R,1.422400X1.422400*%
%TD*%
%TA.AperFunction,ComponentPad*%
%ADD17C,3.500000*%
%TD*%
%TA.AperFunction,ViaPad*%
%ADD18C,0.800000*%
%TD*%
%TA.AperFunction,Conductor*%
%ADD19C,0.250000*%
%TD*%
%TA.AperFunction,Conductor*%
%ADD20C,0.254000*%
%TD*%
%TA.AperFunction,Conductor*%
%ADD21C,0.150000*%
%TD*%
G04 APERTURE END LIST*
D10*
%TO.P,J3,12*%
%TO.N,+5V*%
X69841500Y-39350500D03*
%TO.P,J3,11*%
%TO.N,/HSKo*%
X69841500Y-39850500D03*
%TO.P,J3,10*%
%TO.N,/HSKi*%
X69841500Y-40350500D03*
%TO.P,J3,9*%
%TO.N,GND*%
X69841500Y-40850500D03*
%TO.P,J3,8*%
%TO.N,/GPi*%
X69841500Y-41350500D03*
%TO.P,J3,7*%
%TO.N,GND*%
X69841500Y-41850500D03*
%TO.P,J3,6*%
%TO.N,/TXD-*%
X69841500Y-42350500D03*
%TO.P,J3,5*%
%TO.N,/TXD+*%
X69841500Y-42850500D03*
%TO.P,J3,4*%
%TO.N,GND*%
X69841500Y-43350500D03*
%TO.P,J3,3*%
%TO.N,/RXD-*%
X69841500Y-43850500D03*
%TO.P,J3,2*%
%TO.N,/RXD+*%
X69841500Y-44350500D03*
%TO.P,J3,1*%
%TO.N,GND*%
X69841500Y-44850500D03*
D11*
%TO.P,J3,MP*%
%TO.N,N/C*%
X73091500Y-46750500D03*
X73091500Y-37450500D03*
%TD*%
D12*
%TO.P,H2,1*%
%TO.N,N/C*%
X86170300Y-32434000D03*
%TD*%
%TO.P,H1,1*%
%TO.N,N/C*%
X48141700Y-47434000D03*
%TD*%
D13*
%TO.P,J1,10*%
%TO.N,/GPi*%
X62230000Y-38354000D03*
%TO.P,J1,9*%
%TO.N,+5V*%
X59690000Y-38354000D03*
%TO.P,J1,8*%
%TO.N,/HSKi*%
X62230000Y-40894000D03*
%TO.P,J1,7*%
%TO.N,/HSKo*%
X59690000Y-40894000D03*
%TO.P,J1,6*%
%TO.N,/RXD+*%
X62230000Y-43434000D03*
%TO.P,J1,5*%
%TO.N,/RXD-*%
X59690000Y-43434000D03*
%TO.P,J1,4*%
%TO.N,/TXD+*%
X62230000Y-45974000D03*
%TO.P,J1,3*%
%TO.N,/TXD-*%
X59690000Y-45974000D03*
%TO.P,J1,2*%
%TO.N,GND*%
X62230000Y-48514000D03*
D14*
%TO.P,J1,1*%
X59690000Y-48514000D03*
%TD*%
D15*
%TO.P,J2,7*%
%TO.N,/GPi*%
X60681000Y-31700000D03*
%TO.P,J2,4*%
%TO.N,GND*%
X62881000Y-31700000D03*
%TO.P,J2,6*%
%TO.N,/TXD+*%
X64981000Y-31700000D03*
%TO.P,J2,8*%
%TO.N,/RXD+*%
X58181000Y-31700000D03*
%TO.P,J2,5*%
%TO.N,/RXD-*%
X58181000Y-29200000D03*
%TO.P,J2,3*%
%TO.N,/TXD-*%
X64981000Y-29200000D03*
D16*
%TO.P,J2,1*%
%TO.N,/HSKo*%
X62881000Y-29200000D03*
D15*
%TO.P,J2,2*%
%TO.N,/HSKi*%
X60281000Y-29200000D03*
D17*
%TO.P,J2,SH2*%
%TO.N,N/C*%
X61581000Y-25400000D03*
%TO.P,J2,SH3*%
X68331000Y-26200000D03*
%TO.P,J2,SH1*%
X54831000Y-26200000D03*
%TD*%
D18*
%TO.N,/GPi*%
X67500500Y-41338500D03*
X67373500Y-38163500D03*
%TO.N,/TXD-*%
X66017201Y-40656490D03*
%TO.N,/TXD+*%
X64981000Y-41381500D03*
%TD*%
D19*
%TO.N,+5V*%
X59690000Y-37338000D02*
X59690000Y-38354000D01*
X60261500Y-36766500D02*
X59690000Y-37338000D01*
X67691000Y-36766500D02*
X60261500Y-36766500D01*
X68326000Y-38862000D02*
X68326000Y-37401500D01*
X68814500Y-39350500D02*
X68326000Y-38862000D01*
X68326000Y-37401500D02*
X67691000Y-36766500D01*
X69841500Y-39350500D02*
X68814500Y-39350500D01*
%TO.N,/GPi*%
X67512500Y-41350500D02*
X67500500Y-41338500D01*
X69841500Y-41350500D02*
X67512500Y-41350500D01*
X62420500Y-38163500D02*
X62230000Y-38354000D01*
X67373500Y-38163500D02*
X62420500Y-38163500D01*
%TO.N,/HSKo*%
X60960000Y-39624000D02*
X59690000Y-40894000D01*
X63916500Y-39334500D02*
X63627000Y-39624000D01*
X63627000Y-39624000D02*
X60960000Y-39624000D01*
X69841500Y-39850500D02*
X67790500Y-39850500D01*
X67274500Y-39334500D02*
X63916500Y-39334500D01*
X67790500Y-39850500D02*
X67274500Y-39334500D01*
%TO.N,/HSKi*%
X64491581Y-39834500D02*
X67138090Y-39834500D01*
X62230000Y-40894000D02*
X63432081Y-40894000D01*
X63432081Y-40894000D02*
X64491581Y-39834500D01*
X67138090Y-39834500D02*
X67654090Y-40350500D01*
X67654090Y-40350500D02*
X69841500Y-40350500D01*
%TO.N,/RXD-*%
X66647000Y-43850500D02*
X69841500Y-43850500D01*
X65722500Y-42926000D02*
X66647000Y-43850500D01*
X63754000Y-42926000D02*
X65722500Y-42926000D01*
X63086999Y-42258999D02*
X63754000Y-42926000D01*
X60865001Y-42258999D02*
X63086999Y-42258999D01*
X59690000Y-43434000D02*
X60865001Y-42258999D01*
%TO.N,/RXD+*%
X64637915Y-43434000D02*
X62230000Y-43434000D01*
X65532000Y-43434000D02*
X64637915Y-43434000D01*
X66448500Y-44350500D02*
X65532000Y-43434000D01*
X69841500Y-44350500D02*
X66448500Y-44350500D01*
%TO.N,/TXD-*%
X67242500Y-42350500D02*
X69841500Y-42350500D01*
X66017201Y-41125201D02*
X67242500Y-42350500D01*
X66017201Y-40656490D02*
X66017201Y-41125201D01*
%TO.N,/TXD+*%
X69841500Y-42850500D02*
X66917000Y-42850500D01*
X65448000Y-41381500D02*
X64981000Y-41381500D01*
X66917000Y-42850500D02*
X65448000Y-41381500D01*
%TO.N,GND*%
X62881000Y-31766000D02*
X62881000Y-31700000D01*
X59690000Y-48514000D02*
X57404000Y-48514000D01*
X57404000Y-48514000D02*
X55753000Y-46863000D01*
X55753000Y-46863000D02*
X55753000Y-36957000D01*
X55753000Y-36957000D02*
X57975500Y-34734500D01*
X57975500Y-34734500D02*
X62166500Y-34734500D01*
X62881000Y-34020000D02*
X62881000Y-31700000D01*
X62166500Y-34734500D02*
X62881000Y-34020000D01*
X71521000Y-40850500D02*
X69841500Y-40850500D01*
X72326500Y-41656000D02*
X71521000Y-40850500D01*
X71608500Y-44850500D02*
X72326500Y-44132500D01*
X69841500Y-44850500D02*
X71608500Y-44850500D01*
X72267000Y-41850500D02*
X72326500Y-41910000D01*
X69841500Y-41850500D02*
X72267000Y-41850500D01*
X72326500Y-41910000D02*
X72326500Y-41656000D01*
X69841500Y-43350500D02*
X72283000Y-43350500D01*
X72283000Y-43350500D02*
X72326500Y-43307000D01*
X72326500Y-43307000D02*
X72326500Y-41910000D01*
X72326500Y-44132500D02*
X72326500Y-43307000D01*
X66167000Y-47180500D02*
X68497000Y-44850500D01*
X68497000Y-44850500D02*
X69841500Y-44850500D01*
X66167000Y-47561500D02*
X66167000Y-47180500D01*
X65214500Y-48514000D02*
X66167000Y-47561500D01*
X62230000Y-48514000D02*
X65214500Y-48514000D01*
%TD*%
D20*
%TO.N,GND*%
X81246000Y-28401581D02*
X81242807Y-28434000D01*
X81255550Y-28563383D01*
X81293290Y-28687793D01*
X81354575Y-28802450D01*
X81380271Y-28833760D01*
X81437052Y-28902948D01*
X81537550Y-28985425D01*
X81652207Y-29046710D01*
X81776617Y-29084450D01*
X81906000Y-29097193D01*
X81938419Y-29094000D01*
X82955420Y-29094000D01*
X82570060Y-29479360D01*
X82062816Y-30238504D01*
X81713420Y-31082020D01*
X81535300Y-31977492D01*
X81535300Y-32890508D01*
X81713420Y-33785980D01*
X82062816Y-34629496D01*
X82570060Y-35388640D01*
X82955420Y-35774000D01*
X81938419Y-35774000D01*
X81906000Y-35770807D01*
X81873581Y-35774000D01*
X81776617Y-35783550D01*
X81652207Y-35821290D01*
X81537550Y-35882575D01*
X81437052Y-35965052D01*
X81354575Y-36065550D01*
X81293290Y-36180207D01*
X81255550Y-36304617D01*
X81242807Y-36434000D01*
X81246001Y-36466429D01*
X81246000Y-58524000D01*
X53066000Y-58524000D01*
X53066000Y-51466419D01*
X53069193Y-51434000D01*
X53056450Y-51304617D01*
X53018710Y-51180207D01*
X52957425Y-51065550D01*
X52874948Y-50965052D01*
X52774450Y-50882575D01*
X52659793Y-50821290D01*
X52535383Y-50783550D01*
X52438419Y-50774000D01*
X52406000Y-50770807D01*
X52373581Y-50774000D01*
X51356580Y-50774000D01*
X51741940Y-50388640D01*
X52249184Y-49629496D01*
X52359156Y-49364000D01*
X58201928Y-49364000D01*
X58214188Y-49488482D01*
X58250498Y-49608180D01*
X58309463Y-49718494D01*
X58388815Y-49815185D01*
X58485506Y-49894537D01*
X58595820Y-49953502D01*
X58715518Y-49989812D01*
X58840000Y-50002072D01*
X59404250Y-49999000D01*
X59563000Y-49840250D01*
X59563000Y-48641000D01*
X59817000Y-48641000D01*
X59817000Y-49840250D01*
X59975750Y-49999000D01*
X60540000Y-50002072D01*
X60664482Y-49989812D01*
X60784180Y-49953502D01*
X60894494Y-49894537D01*
X60991185Y-49815185D01*
X61070537Y-49718494D01*
X61129502Y-49608180D01*
X61152498Y-49532374D01*
X61348645Y-49709178D01*
X61598748Y-49858157D01*
X61873109Y-49955481D01*
X62103000Y-49834814D01*
X62103000Y-48641000D01*
X62357000Y-48641000D01*
X62357000Y-49834814D01*
X62586891Y-49955481D01*
X62861252Y-49858157D01*
X63111355Y-49709178D01*
X63327588Y-49514269D01*
X63501641Y-49280920D01*
X63626825Y-49018099D01*
X63671476Y-48870890D01*
X63550155Y-48641000D01*
X62357000Y-48641000D01*
X62103000Y-48641000D01*
X59817000Y-48641000D01*
X59563000Y-48641000D01*
X58363750Y-48641000D01*
X58205000Y-48799750D01*
X58201928Y-49364000D01*
X52359156Y-49364000D01*
X52598580Y-48785980D01*
X52776700Y-47890508D01*
X52776700Y-47664000D01*
X58201928Y-47664000D01*
X58205000Y-48228250D01*
X58363750Y-48387000D01*
X59563000Y-48387000D01*
X59563000Y-48367000D01*
X59817000Y-48367000D01*
X59817000Y-48387000D01*
X62103000Y-48387000D01*
X62103000Y-48367000D01*
X62357000Y-48367000D01*
X62357000Y-48387000D01*
X63550155Y-48387000D01*
X63671476Y-48157110D01*
X63626825Y-48009901D01*
X63501641Y-47747080D01*
X63327588Y-47513731D01*
X63111355Y-47318822D01*
X62994466Y-47249195D01*
X63176632Y-47127475D01*
X63383475Y-46920632D01*
X63545990Y-46677411D01*
X63657932Y-46407158D01*
X63715000Y-46120260D01*
X63715000Y-45850500D01*
X71353428Y-45850500D01*
X71353428Y-47650500D01*
X71365688Y-47774982D01*
X71401998Y-47894680D01*
X71460963Y-48004994D01*
X71540315Y-48101685D01*
X71637006Y-48181037D01*
X71747320Y-48240002D01*
X71867018Y-48276312D01*
X71991500Y-48288572D01*
X74191500Y-48288572D01*
X74315982Y-48276312D01*
X74435680Y-48240002D01*
X74545994Y-48181037D01*
X74642685Y-48101685D01*
X74722037Y-48004994D01*
X74781002Y-47894680D01*
X74817312Y-47774982D01*
X74829572Y-47650500D01*
X74829572Y-45850500D01*
X74817312Y-45726018D01*
X74781002Y-45606320D01*
X74722037Y-45496006D01*
X74642685Y-45399315D01*
X74545994Y-45319963D01*
X74435680Y-45260998D01*
X74315982Y-45224688D01*
X74191500Y-45212428D01*
X71991500Y-45212428D01*
X71867018Y-45224688D01*
X71747320Y-45260998D01*
X71637006Y-45319963D01*
X71540315Y-45399315D01*
X71460963Y-45496006D01*
X71401998Y-45606320D01*
X71365688Y-45726018D01*
X71353428Y-45850500D01*
X63715000Y-45850500D01*
X63715000Y-45827740D01*
X63657932Y-45540842D01*
X63545990Y-45270589D01*
X63383475Y-45027368D01*
X63176632Y-44820525D01*
X63002240Y-44704000D01*
X63176632Y-44587475D01*
X63383475Y-44380632D01*
X63508178Y-44194000D01*
X65217199Y-44194000D01*
X65884701Y-44861503D01*
X65908499Y-44890501D01*
X66024224Y-44985474D01*
X66156253Y-45056046D01*
X66299514Y-45099503D01*
X66411167Y-45110500D01*
X66411175Y-45110500D01*
X66448500Y-45114176D01*
X66485825Y-45110500D01*
X68565098Y-45110500D01*
X68567815Y-45135232D01*
X68606084Y-45254318D01*
X68666850Y-45363650D01*
X68747778Y-45459026D01*
X68845758Y-45536782D01*
X68957025Y-45593928D01*
X69077302Y-45628270D01*
X69201968Y-45638486D01*
X69555750Y-45635500D01*
X69714500Y-45476750D01*
X69714500Y-45138572D01*
X69968500Y-45138572D01*
X69968500Y-45476750D01*
X70127250Y-45635500D01*
X70481032Y-45638486D01*
X70605698Y-45628270D01*
X70725975Y-45593928D01*
X70837242Y-45536782D01*
X70935222Y-45459026D01*
X71016150Y-45363650D01*
X71076916Y-45254318D01*
X71115185Y-45135232D01*
X71126500Y-45032250D01*
X70989225Y-44894975D01*
X71022037Y-44854994D01*
X71081002Y-44744680D01*
X71094253Y-44700997D01*
X71126500Y-44668750D01*
X71119382Y-44603965D01*
X71129572Y-44500500D01*
X71129572Y-44200500D01*
X71119723Y-44100500D01*
X71129572Y-44000500D01*
X71129572Y-43700500D01*
X71119382Y-43597035D01*
X71126500Y-43532250D01*
X71094253Y-43500003D01*
X71081002Y-43456320D01*
X71024439Y-43350500D01*
X71081002Y-43244680D01*
X71094253Y-43200997D01*
X71126500Y-43168750D01*
X71119382Y-43103965D01*
X71129572Y-43000500D01*
X71129572Y-42700500D01*
X71119723Y-42600500D01*
X71129572Y-42500500D01*
X71129572Y-42200500D01*
X71119382Y-42097035D01*
X71126500Y-42032250D01*
X71094253Y-42000003D01*
X71081002Y-41956320D01*
X71024439Y-41850500D01*
X71081002Y-41744680D01*
X71094253Y-41700997D01*
X71126500Y-41668750D01*
X71119382Y-41603965D01*
X71129572Y-41500500D01*
X71129572Y-41200500D01*
X71119382Y-41097035D01*
X71126500Y-41032250D01*
X71094253Y-41000003D01*
X71081002Y-40956320D01*
X71024439Y-40850500D01*
X71081002Y-40744680D01*
X71094253Y-40700997D01*
X71126500Y-40668750D01*
X71119382Y-40603965D01*
X71129572Y-40500500D01*
X71129572Y-40200500D01*
X71119723Y-40100500D01*
X71129572Y-40000500D01*
X71129572Y-39700500D01*
X71119723Y-39600500D01*
X71129572Y-39500500D01*
X71129572Y-39200500D01*
X71117312Y-39076018D01*
X71081002Y-38956320D01*
X71022037Y-38846006D01*
X70942685Y-38749315D01*
X70845994Y-38669963D01*
X70735680Y-38610998D01*
X70615982Y-38574688D01*
X70491500Y-38562428D01*
X69191500Y-38562428D01*
X69109323Y-38570522D01*
X69086000Y-38547199D01*
X69086000Y-37438833D01*
X69089677Y-37401500D01*
X69075003Y-37252514D01*
X69031546Y-37109253D01*
X68960974Y-36977224D01*
X68889799Y-36890497D01*
X68866001Y-36861499D01*
X68837002Y-36837700D01*
X68549802Y-36550500D01*
X71353428Y-36550500D01*
X71353428Y-38350500D01*
X71365688Y-38474982D01*
X71401998Y-38594680D01*
X71460963Y-38704994D01*
X71540315Y-38801685D01*
X71637006Y-38881037D01*
X71747320Y-38940002D01*
X71867018Y-38976312D01*
X71991500Y-38988572D01*
X74191500Y-38988572D01*
X74315982Y-38976312D01*
X74435680Y-38940002D01*
X74545994Y-38881037D01*
X74642685Y-38801685D01*
X74722037Y-38704994D01*
X74781002Y-38594680D01*
X74817312Y-38474982D01*
X74829572Y-38350500D01*
X74829572Y-36550500D01*
X74817312Y-36426018D01*
X74781002Y-36306320D01*
X74722037Y-36196006D01*
X74642685Y-36099315D01*
X74545994Y-36019963D01*
X74435680Y-35960998D01*
X74315982Y-35924688D01*
X74191500Y-35912428D01*
X71991500Y-35912428D01*
X71867018Y-35924688D01*
X71747320Y-35960998D01*
X71637006Y-36019963D01*
X71540315Y-36099315D01*
X71460963Y-36196006D01*
X71401998Y-36306320D01*
X71365688Y-36426018D01*
X71353428Y-36550500D01*
X68549802Y-36550500D01*
X68254803Y-36255502D01*
X68231001Y-36226499D01*
X68115276Y-36131526D01*
X67983247Y-36060954D01*
X67839986Y-36017497D01*
X67728333Y-36006500D01*
X67728322Y-36006500D01*
X67691000Y-36002824D01*
X67653678Y-36006500D01*
X60298822Y-36006500D01*
X60261499Y-36002824D01*
X60224176Y-36006500D01*
X60224167Y-36006500D01*
X60112514Y-36017497D01*
X59969253Y-36060954D01*
X59837223Y-36131526D01*
X59777906Y-36180207D01*
X59721499Y-36226499D01*
X59697700Y-36255498D01*
X59179002Y-36774197D01*
X59149999Y-36797999D01*
X59097886Y-36861499D01*
X59055026Y-36913724D01*
X59016701Y-36985425D01*
X58989163Y-37036944D01*
X58986589Y-37038010D01*
X58743368Y-37200525D01*
X58536525Y-37407368D01*
X58374010Y-37650589D01*
X58262068Y-37920842D01*
X58205000Y-38207740D01*
X58205000Y-38500260D01*
X58262068Y-38787158D01*
X58374010Y-39057411D01*
X58536525Y-39300632D01*
X58743368Y-39507475D01*
X58917760Y-39624000D01*
X58743368Y-39740525D01*
X58536525Y-39947368D01*
X58374010Y-40190589D01*
X58262068Y-40460842D01*
X58205000Y-40747740D01*
X58205000Y-41040260D01*
X58262068Y-41327158D01*
X58374010Y-41597411D01*
X58536525Y-41840632D01*
X58743368Y-42047475D01*
X58917760Y-42164000D01*
X58743368Y-42280525D01*
X58536525Y-42487368D01*
X58374010Y-42730589D01*
X58262068Y-43000842D01*
X58205000Y-43287740D01*
X58205000Y-43580260D01*
X58262068Y-43867158D01*
X58374010Y-44137411D01*
X58536525Y-44380632D01*
X58743368Y-44587475D01*
X58917760Y-44704000D01*
X58743368Y-44820525D01*
X58536525Y-45027368D01*
X58374010Y-45270589D01*
X58262068Y-45540842D01*
X58205000Y-45827740D01*
X58205000Y-46120260D01*
X58262068Y-46407158D01*
X58374010Y-46677411D01*
X58536525Y-46920632D01*
X58668380Y-47052487D01*
X58595820Y-47074498D01*
X58485506Y-47133463D01*
X58388815Y-47212815D01*
X58309463Y-47309506D01*
X58250498Y-47419820D01*
X58214188Y-47539518D01*
X58201928Y-47664000D01*
X52776700Y-47664000D01*
X52776700Y-46977492D01*
X52598580Y-46082020D01*
X52249184Y-45238504D01*
X51741940Y-44479360D01*
X51356580Y-44094000D01*
X52373581Y-44094000D01*
X52406000Y-44097193D01*
X52438419Y-44094000D01*
X52535383Y-44084450D01*
X52659793Y-44046710D01*
X52774450Y-43985425D01*
X52874948Y-43902948D01*
X52957425Y-43802450D01*
X53018710Y-43687793D01*
X53056450Y-43563383D01*
X53069193Y-43434000D01*
X53066000Y-43401581D01*
X53066000Y-29067411D01*
X56834800Y-29067411D01*
X56834800Y-29332589D01*
X56886533Y-29592672D01*
X56988013Y-29837665D01*
X57135338Y-30058153D01*
X57322847Y-30245662D01*
X57543335Y-30392987D01*
X57680976Y-30450000D01*
X57543335Y-30507013D01*
X57322847Y-30654338D01*
X57135338Y-30841847D01*
X56988013Y-31062335D01*
X56886533Y-31307328D01*
X56834800Y-31567411D01*
X56834800Y-31832589D01*
X56886533Y-32092672D01*
X56988013Y-32337665D01*
X57135338Y-32558153D01*
X57322847Y-32745662D01*
X57543335Y-32892987D01*
X57788328Y-32994467D01*
X58048411Y-33046200D01*
X58313589Y-33046200D01*
X58573672Y-32994467D01*
X58818665Y-32892987D01*
X59039153Y-32745662D01*
X59226662Y-32558153D01*
X59373987Y-32337665D01*
X59431000Y-32200024D01*
X59488013Y-32337665D01*
X59635338Y-32558153D01*
X59822847Y-32745662D01*
X60043335Y-32892987D01*
X60288328Y-32994467D01*
X60548411Y-33046200D01*
X60813589Y-33046200D01*
X61073672Y-32994467D01*
X61318665Y-32892987D01*
X61539153Y-32745662D01*
X61655542Y-32629273D01*
X62131332Y-32629273D01*
X62192152Y-32864183D01*
X62432509Y-32976202D01*
X62690102Y-33039176D01*
X62955030Y-33050687D01*
X63217113Y-33010291D01*
X63466280Y-32919542D01*
X63569848Y-32864183D01*
X63630668Y-32629273D01*
X62881000Y-31879605D01*
X62131332Y-32629273D01*
X61655542Y-32629273D01*
X61726662Y-32558153D01*
X61821652Y-32415991D01*
X61951727Y-32449668D01*
X62701395Y-31700000D01*
X61951727Y-30950332D01*
X61821652Y-30984009D01*
X61726662Y-30841847D01*
X61539153Y-30654338D01*
X61318665Y-30507013D01*
X61073672Y-30405533D01*
X60939754Y-30378896D01*
X61139153Y-30245662D01*
X61326662Y-30058153D01*
X61473987Y-29837665D01*
X61531728Y-29698267D01*
X61531728Y-29911200D01*
X61543988Y-30035682D01*
X61580298Y-30155380D01*
X61639263Y-30265694D01*
X61718615Y-30362385D01*
X61815306Y-30441737D01*
X61925620Y-30500702D01*
X62045318Y-30537012D01*
X62169800Y-30549272D01*
X62188668Y-30549272D01*
X62131332Y-30770727D01*
X62881000Y-31520395D01*
X63630668Y-30770727D01*
X63573332Y-30549272D01*
X63592200Y-30549272D01*
X63716682Y-30537012D01*
X63836380Y-30500702D01*
X63946694Y-30441737D01*
X64043385Y-30362385D01*
X64122737Y-30265694D01*
X64130656Y-30250880D01*
X64343335Y-30392987D01*
X64480976Y-30450000D01*
X64343335Y-30507013D01*
X64122847Y-30654338D01*
X63935338Y-30841847D01*
X63855097Y-30961937D01*
X63810273Y-30950332D01*
X63060605Y-31700000D01*
X63810273Y-32449668D01*
X63855097Y-32438063D01*
X63935338Y-32558153D01*
X64122847Y-32745662D01*
X64343335Y-32892987D01*
X64588328Y-32994467D01*
X64848411Y-33046200D01*
X65113589Y-33046200D01*
X65373672Y-32994467D01*
X65618665Y-32892987D01*
X65839153Y-32745662D01*
X66026662Y-32558153D01*
X66173987Y-32337665D01*
X66275467Y-32092672D01*
X66327200Y-31832589D01*
X66327200Y-31567411D01*
X66275467Y-31307328D01*
X66173987Y-31062335D01*
X66026662Y-30841847D01*
X65839153Y-30654338D01*
X65618665Y-30507013D01*
X65481024Y-30450000D01*
X65618665Y-30392987D01*
X65839153Y-30245662D01*
X66026662Y-30058153D01*
X66173987Y-29837665D01*
X66275467Y-29592672D01*
X66327200Y-29332589D01*
X66327200Y-29067411D01*
X66275467Y-28807328D01*
X66173987Y-28562335D01*
X66026662Y-28341847D01*
X65839153Y-28154338D01*
X65618665Y-28007013D01*
X65373672Y-27905533D01*
X65113589Y-27853800D01*
X64848411Y-27853800D01*
X64588328Y-27905533D01*
X64343335Y-28007013D01*
X64130656Y-28149120D01*
X64122737Y-28134306D01*
X64043385Y-28037615D01*
X63946694Y-27958263D01*
X63836380Y-27899298D01*
X63716682Y-27862988D01*
X63592200Y-27850728D01*
X62169800Y-27850728D01*
X62045318Y-27862988D01*
X61925620Y-27899298D01*
X61815306Y-27958263D01*
X61718615Y-28037615D01*
X61639263Y-28134306D01*
X61580298Y-28244620D01*
X61543988Y-28364318D01*
X61531728Y-28488800D01*
X61531728Y-28701733D01*
X61473987Y-28562335D01*
X61326662Y-28341847D01*
X61139153Y-28154338D01*
X60918665Y-28007013D01*
X60673672Y-27905533D01*
X60413589Y-27853800D01*
X60148411Y-27853800D01*
X59888328Y-27905533D01*
X59643335Y-28007013D01*
X59422847Y-28154338D01*
X59235338Y-28341847D01*
X59231000Y-28348339D01*
X59226662Y-28341847D01*
X59039153Y-28154338D01*
X58818665Y-28007013D01*
X58573672Y-27905533D01*
X58313589Y-27853800D01*
X58048411Y-27853800D01*
X57788328Y-27905533D01*
X57543335Y-28007013D01*
X57322847Y-28154338D01*
X57135338Y-28341847D01*
X56988013Y-28562335D01*
X56886533Y-28807328D01*
X56834800Y-29067411D01*
X53066000Y-29067411D01*
X53066000Y-27807899D01*
X53310651Y-28052550D01*
X53701279Y-28313560D01*
X54135321Y-28493346D01*
X54596098Y-28585000D01*
X55065902Y-28585000D01*
X55526679Y-28493346D01*
X55960721Y-28313560D01*
X56351349Y-28052550D01*
X56683550Y-27720349D01*
X56944560Y-27329721D01*
X57124346Y-26895679D01*
X57216000Y-26434902D01*
X57216000Y-25965098D01*
X57124346Y-25504321D01*
X56983836Y-25165098D01*
X59196000Y-25165098D01*
X59196000Y-25634902D01*
X59287654Y-26095679D01*
X59467440Y-26529721D01*
X59728450Y-26920349D01*
X60060651Y-27252550D01*
X60451279Y-27513560D01*
X60885321Y-27693346D01*
X61346098Y-27785000D01*
X61815902Y-27785000D01*
X62276679Y-27693346D01*
X62710721Y-27513560D01*
X63101349Y-27252550D01*
X63433550Y-26920349D01*
X63694560Y-26529721D01*
X63874346Y-26095679D01*
X63900320Y-25965098D01*
X65946000Y-25965098D01*
X65946000Y-26434902D01*
X66037654Y-26895679D01*
X66217440Y-27329721D01*
X66478450Y-27720349D01*
X66810651Y-28052550D01*
X67201279Y-28313560D01*
X67635321Y-28493346D01*
X68096098Y-28585000D01*
X68565902Y-28585000D01*
X69026679Y-28493346D01*
X69460721Y-28313560D01*
X69851349Y-28052550D01*
X70183550Y-27720349D01*
X70444560Y-27329721D01*
X70624346Y-26895679D01*
X70716000Y-26434902D01*
X70716000Y-25965098D01*
X70624346Y-25504321D01*
X70444560Y-25070279D01*
X70183550Y-24679651D01*
X69851349Y-24347450D01*
X69460721Y-24086440D01*
X69026679Y-23906654D01*
X68565902Y-23815000D01*
X68096098Y-23815000D01*
X67635321Y-23906654D01*
X67201279Y-24086440D01*
X66810651Y-24347450D01*
X66478450Y-24679651D01*
X66217440Y-25070279D01*
X66037654Y-25504321D01*
X65946000Y-25965098D01*
X63900320Y-25965098D01*
X63966000Y-25634902D01*
X63966000Y-25165098D01*
X63874346Y-24704321D01*
X63694560Y-24270279D01*
X63433550Y-23879651D01*
X63101349Y-23547450D01*
X62710721Y-23286440D01*
X62276679Y-23106654D01*
X61815902Y-23015000D01*
X61346098Y-23015000D01*
X60885321Y-23106654D01*
X60451279Y-23286440D01*
X60060651Y-23547450D01*
X59728450Y-23879651D01*
X59467440Y-24270279D01*
X59287654Y-24704321D01*
X59196000Y-25165098D01*
X56983836Y-25165098D01*
X56944560Y-25070279D01*
X56683550Y-24679651D01*
X56351349Y-24347450D01*
X55960721Y-24086440D01*
X55526679Y-23906654D01*
X55065902Y-23815000D01*
X54596098Y-23815000D01*
X54135321Y-23906654D01*
X53701279Y-24086440D01*
X53310651Y-24347450D01*
X53066000Y-24592101D01*
X53066000Y-21344000D01*
X81246001Y-21344000D01*
X81246000Y-28401581D01*
%TA.AperFunction,Conductor*%
D21*
G36*
X81246000Y-28401581D02*
G01*
X81242807Y-28434000D01*
X81255550Y-28563383D01*
X81293290Y-28687793D01*
X81354575Y-28802450D01*
X81380271Y-28833760D01*
X81437052Y-28902948D01*
X81537550Y-28985425D01*
X81652207Y-29046710D01*
X81776617Y-29084450D01*
X81906000Y-29097193D01*
X81938419Y-29094000D01*
X82955420Y-29094000D01*
X82570060Y-29479360D01*
X82062816Y-30238504D01*
X81713420Y-31082020D01*
X81535300Y-31977492D01*
X81535300Y-32890508D01*
X81713420Y-33785980D01*
X82062816Y-34629496D01*
X82570060Y-35388640D01*
X82955420Y-35774000D01*
X81938419Y-35774000D01*
X81906000Y-35770807D01*
X81873581Y-35774000D01*
X81776617Y-35783550D01*
X81652207Y-35821290D01*
X81537550Y-35882575D01*
X81437052Y-35965052D01*
X81354575Y-36065550D01*
X81293290Y-36180207D01*
X81255550Y-36304617D01*
X81242807Y-36434000D01*
X81246001Y-36466429D01*
X81246000Y-58524000D01*
X53066000Y-58524000D01*
X53066000Y-51466419D01*
X53069193Y-51434000D01*
X53056450Y-51304617D01*
X53018710Y-51180207D01*
X52957425Y-51065550D01*
X52874948Y-50965052D01*
X52774450Y-50882575D01*
X52659793Y-50821290D01*
X52535383Y-50783550D01*
X52438419Y-50774000D01*
X52406000Y-50770807D01*
X52373581Y-50774000D01*
X51356580Y-50774000D01*
X51741940Y-50388640D01*
X52249184Y-49629496D01*
X52359156Y-49364000D01*
X58201928Y-49364000D01*
X58214188Y-49488482D01*
X58250498Y-49608180D01*
X58309463Y-49718494D01*
X58388815Y-49815185D01*
X58485506Y-49894537D01*
X58595820Y-49953502D01*
X58715518Y-49989812D01*
X58840000Y-50002072D01*
X59404250Y-49999000D01*
X59563000Y-49840250D01*
X59563000Y-48641000D01*
X59817000Y-48641000D01*
X59817000Y-49840250D01*
X59975750Y-49999000D01*
X60540000Y-50002072D01*
X60664482Y-49989812D01*
X60784180Y-49953502D01*
X60894494Y-49894537D01*
X60991185Y-49815185D01*
X61070537Y-49718494D01*
X61129502Y-49608180D01*
X61152498Y-49532374D01*
X61348645Y-49709178D01*
X61598748Y-49858157D01*
X61873109Y-49955481D01*
X62103000Y-49834814D01*
X62103000Y-48641000D01*
X62357000Y-48641000D01*
X62357000Y-49834814D01*
X62586891Y-49955481D01*
X62861252Y-49858157D01*
X63111355Y-49709178D01*
X63327588Y-49514269D01*
X63501641Y-49280920D01*
X63626825Y-49018099D01*
X63671476Y-48870890D01*
X63550155Y-48641000D01*
X62357000Y-48641000D01*
X62103000Y-48641000D01*
X59817000Y-48641000D01*
X59563000Y-48641000D01*
X58363750Y-48641000D01*
X58205000Y-48799750D01*
X58201928Y-49364000D01*
X52359156Y-49364000D01*
X52598580Y-48785980D01*
X52776700Y-47890508D01*
X52776700Y-47664000D01*
X58201928Y-47664000D01*
X58205000Y-48228250D01*
X58363750Y-48387000D01*
X59563000Y-48387000D01*
X59563000Y-48367000D01*
X59817000Y-48367000D01*
X59817000Y-48387000D01*
X62103000Y-48387000D01*
X62103000Y-48367000D01*
X62357000Y-48367000D01*
X62357000Y-48387000D01*
X63550155Y-48387000D01*
X63671476Y-48157110D01*
X63626825Y-48009901D01*
X63501641Y-47747080D01*
X63327588Y-47513731D01*
X63111355Y-47318822D01*
X62994466Y-47249195D01*
X63176632Y-47127475D01*
X63383475Y-46920632D01*
X63545990Y-46677411D01*
X63657932Y-46407158D01*
X63715000Y-46120260D01*
X63715000Y-45850500D01*
X71353428Y-45850500D01*
X71353428Y-47650500D01*
X71365688Y-47774982D01*
X71401998Y-47894680D01*
X71460963Y-48004994D01*
X71540315Y-48101685D01*
X71637006Y-48181037D01*
X71747320Y-48240002D01*
X71867018Y-48276312D01*
X71991500Y-48288572D01*
X74191500Y-48288572D01*
X74315982Y-48276312D01*
X74435680Y-48240002D01*
X74545994Y-48181037D01*
X74642685Y-48101685D01*
X74722037Y-48004994D01*
X74781002Y-47894680D01*
X74817312Y-47774982D01*
X74829572Y-47650500D01*
X74829572Y-45850500D01*
X74817312Y-45726018D01*
X74781002Y-45606320D01*
X74722037Y-45496006D01*
X74642685Y-45399315D01*
X74545994Y-45319963D01*
X74435680Y-45260998D01*
X74315982Y-45224688D01*
X74191500Y-45212428D01*
X71991500Y-45212428D01*
X71867018Y-45224688D01*
X71747320Y-45260998D01*
X71637006Y-45319963D01*
X71540315Y-45399315D01*
X71460963Y-45496006D01*
X71401998Y-45606320D01*
X71365688Y-45726018D01*
X71353428Y-45850500D01*
X63715000Y-45850500D01*
X63715000Y-45827740D01*
X63657932Y-45540842D01*
X63545990Y-45270589D01*
X63383475Y-45027368D01*
X63176632Y-44820525D01*
X63002240Y-44704000D01*
X63176632Y-44587475D01*
X63383475Y-44380632D01*
X63508178Y-44194000D01*
X65217199Y-44194000D01*
X65884701Y-44861503D01*
X65908499Y-44890501D01*
X66024224Y-44985474D01*
X66156253Y-45056046D01*
X66299514Y-45099503D01*
X66411167Y-45110500D01*
X66411175Y-45110500D01*
X66448500Y-45114176D01*
X66485825Y-45110500D01*
X68565098Y-45110500D01*
X68567815Y-45135232D01*
X68606084Y-45254318D01*
X68666850Y-45363650D01*
X68747778Y-45459026D01*
X68845758Y-45536782D01*
X68957025Y-45593928D01*
X69077302Y-45628270D01*
X69201968Y-45638486D01*
X69555750Y-45635500D01*
X69714500Y-45476750D01*
X69714500Y-45138572D01*
X69968500Y-45138572D01*
X69968500Y-45476750D01*
X70127250Y-45635500D01*
X70481032Y-45638486D01*
X70605698Y-45628270D01*
X70725975Y-45593928D01*
X70837242Y-45536782D01*
X70935222Y-45459026D01*
X71016150Y-45363650D01*
X71076916Y-45254318D01*
X71115185Y-45135232D01*
X71126500Y-45032250D01*
X70989225Y-44894975D01*
X71022037Y-44854994D01*
X71081002Y-44744680D01*
X71094253Y-44700997D01*
X71126500Y-44668750D01*
X71119382Y-44603965D01*
X71129572Y-44500500D01*
X71129572Y-44200500D01*
X71119723Y-44100500D01*
X71129572Y-44000500D01*
X71129572Y-43700500D01*
X71119382Y-43597035D01*
X71126500Y-43532250D01*
X71094253Y-43500003D01*
X71081002Y-43456320D01*
X71024439Y-43350500D01*
X71081002Y-43244680D01*
X71094253Y-43200997D01*
X71126500Y-43168750D01*
X71119382Y-43103965D01*
X71129572Y-43000500D01*
X71129572Y-42700500D01*
X71119723Y-42600500D01*
X71129572Y-42500500D01*
X71129572Y-42200500D01*
X71119382Y-42097035D01*
X71126500Y-42032250D01*
X71094253Y-42000003D01*
X71081002Y-41956320D01*
X71024439Y-41850500D01*
X71081002Y-41744680D01*
X71094253Y-41700997D01*
X71126500Y-41668750D01*
X71119382Y-41603965D01*
X71129572Y-41500500D01*
X71129572Y-41200500D01*
X71119382Y-41097035D01*
X71126500Y-41032250D01*
X71094253Y-41000003D01*
X71081002Y-40956320D01*
X71024439Y-40850500D01*
X71081002Y-40744680D01*
X71094253Y-40700997D01*
X71126500Y-40668750D01*
X71119382Y-40603965D01*
X71129572Y-40500500D01*
X71129572Y-40200500D01*
X71119723Y-40100500D01*
X71129572Y-40000500D01*
X71129572Y-39700500D01*
X71119723Y-39600500D01*
X71129572Y-39500500D01*
X71129572Y-39200500D01*
X71117312Y-39076018D01*
X71081002Y-38956320D01*
X71022037Y-38846006D01*
X70942685Y-38749315D01*
X70845994Y-38669963D01*
X70735680Y-38610998D01*
X70615982Y-38574688D01*
X70491500Y-38562428D01*
X69191500Y-38562428D01*
X69109323Y-38570522D01*
X69086000Y-38547199D01*
X69086000Y-37438833D01*
X69089677Y-37401500D01*
X69075003Y-37252514D01*
X69031546Y-37109253D01*
X68960974Y-36977224D01*
X68889799Y-36890497D01*
X68866001Y-36861499D01*
X68837002Y-36837700D01*
X68549802Y-36550500D01*
X71353428Y-36550500D01*
X71353428Y-38350500D01*
X71365688Y-38474982D01*
X71401998Y-38594680D01*
X71460963Y-38704994D01*
X71540315Y-38801685D01*
X71637006Y-38881037D01*
X71747320Y-38940002D01*
X71867018Y-38976312D01*
X71991500Y-38988572D01*
X74191500Y-38988572D01*
X74315982Y-38976312D01*
X74435680Y-38940002D01*
X74545994Y-38881037D01*
X74642685Y-38801685D01*
X74722037Y-38704994D01*
X74781002Y-38594680D01*
X74817312Y-38474982D01*
X74829572Y-38350500D01*
X74829572Y-36550500D01*
X74817312Y-36426018D01*
X74781002Y-36306320D01*
X74722037Y-36196006D01*
X74642685Y-36099315D01*
X74545994Y-36019963D01*
X74435680Y-35960998D01*
X74315982Y-35924688D01*
X74191500Y-35912428D01*
X71991500Y-35912428D01*
X71867018Y-35924688D01*
X71747320Y-35960998D01*
X71637006Y-36019963D01*
X71540315Y-36099315D01*
X71460963Y-36196006D01*
X71401998Y-36306320D01*
X71365688Y-36426018D01*
X71353428Y-36550500D01*
X68549802Y-36550500D01*
X68254803Y-36255502D01*
X68231001Y-36226499D01*
X68115276Y-36131526D01*
X67983247Y-36060954D01*
X67839986Y-36017497D01*
X67728333Y-36006500D01*
X67728322Y-36006500D01*
X67691000Y-36002824D01*
X67653678Y-36006500D01*
X60298822Y-36006500D01*
X60261499Y-36002824D01*
X60224176Y-36006500D01*
X60224167Y-36006500D01*
X60112514Y-36017497D01*
X59969253Y-36060954D01*
X59837223Y-36131526D01*
X59777906Y-36180207D01*
X59721499Y-36226499D01*
X59697700Y-36255498D01*
X59179002Y-36774197D01*
X59149999Y-36797999D01*
X59097886Y-36861499D01*
X59055026Y-36913724D01*
X59016701Y-36985425D01*
X58989163Y-37036944D01*
X58986589Y-37038010D01*
X58743368Y-37200525D01*
X58536525Y-37407368D01*
X58374010Y-37650589D01*
X58262068Y-37920842D01*
X58205000Y-38207740D01*
X58205000Y-38500260D01*
X58262068Y-38787158D01*
X58374010Y-39057411D01*
X58536525Y-39300632D01*
X58743368Y-39507475D01*
X58917760Y-39624000D01*
X58743368Y-39740525D01*
X58536525Y-39947368D01*
X58374010Y-40190589D01*
X58262068Y-40460842D01*
X58205000Y-40747740D01*
X58205000Y-41040260D01*
X58262068Y-41327158D01*
X58374010Y-41597411D01*
X58536525Y-41840632D01*
X58743368Y-42047475D01*
X58917760Y-42164000D01*
X58743368Y-42280525D01*
X58536525Y-42487368D01*
X58374010Y-42730589D01*
X58262068Y-43000842D01*
X58205000Y-43287740D01*
X58205000Y-43580260D01*
X58262068Y-43867158D01*
X58374010Y-44137411D01*
X58536525Y-44380632D01*
X58743368Y-44587475D01*
X58917760Y-44704000D01*
X58743368Y-44820525D01*
X58536525Y-45027368D01*
X58374010Y-45270589D01*
X58262068Y-45540842D01*
X58205000Y-45827740D01*
X58205000Y-46120260D01*
X58262068Y-46407158D01*
X58374010Y-46677411D01*
X58536525Y-46920632D01*
X58668380Y-47052487D01*
X58595820Y-47074498D01*
X58485506Y-47133463D01*
X58388815Y-47212815D01*
X58309463Y-47309506D01*
X58250498Y-47419820D01*
X58214188Y-47539518D01*
X58201928Y-47664000D01*
X52776700Y-47664000D01*
X52776700Y-46977492D01*
X52598580Y-46082020D01*
X52249184Y-45238504D01*
X51741940Y-44479360D01*
X51356580Y-44094000D01*
X52373581Y-44094000D01*
X52406000Y-44097193D01*
X52438419Y-44094000D01*
X52535383Y-44084450D01*
X52659793Y-44046710D01*
X52774450Y-43985425D01*
X52874948Y-43902948D01*
X52957425Y-43802450D01*
X53018710Y-43687793D01*
X53056450Y-43563383D01*
X53069193Y-43434000D01*
X53066000Y-43401581D01*
X53066000Y-29067411D01*
X56834800Y-29067411D01*
X56834800Y-29332589D01*
X56886533Y-29592672D01*
X56988013Y-29837665D01*
X57135338Y-30058153D01*
X57322847Y-30245662D01*
X57543335Y-30392987D01*
X57680976Y-30450000D01*
X57543335Y-30507013D01*
X57322847Y-30654338D01*
X57135338Y-30841847D01*
X56988013Y-31062335D01*
X56886533Y-31307328D01*
X56834800Y-31567411D01*
X56834800Y-31832589D01*
X56886533Y-32092672D01*
X56988013Y-32337665D01*
X57135338Y-32558153D01*
X57322847Y-32745662D01*
X57543335Y-32892987D01*
X57788328Y-32994467D01*
X58048411Y-33046200D01*
X58313589Y-33046200D01*
X58573672Y-32994467D01*
X58818665Y-32892987D01*
X59039153Y-32745662D01*
X59226662Y-32558153D01*
X59373987Y-32337665D01*
X59431000Y-32200024D01*
X59488013Y-32337665D01*
X59635338Y-32558153D01*
X59822847Y-32745662D01*
X60043335Y-32892987D01*
X60288328Y-32994467D01*
X60548411Y-33046200D01*
X60813589Y-33046200D01*
X61073672Y-32994467D01*
X61318665Y-32892987D01*
X61539153Y-32745662D01*
X61655542Y-32629273D01*
X62131332Y-32629273D01*
X62192152Y-32864183D01*
X62432509Y-32976202D01*
X62690102Y-33039176D01*
X62955030Y-33050687D01*
X63217113Y-33010291D01*
X63466280Y-32919542D01*
X63569848Y-32864183D01*
X63630668Y-32629273D01*
X62881000Y-31879605D01*
X62131332Y-32629273D01*
X61655542Y-32629273D01*
X61726662Y-32558153D01*
X61821652Y-32415991D01*
X61951727Y-32449668D01*
X62701395Y-31700000D01*
X61951727Y-30950332D01*
X61821652Y-30984009D01*
X61726662Y-30841847D01*
X61539153Y-30654338D01*
X61318665Y-30507013D01*
X61073672Y-30405533D01*
X60939754Y-30378896D01*
X61139153Y-30245662D01*
X61326662Y-30058153D01*
X61473987Y-29837665D01*
X61531728Y-29698267D01*
X61531728Y-29911200D01*
X61543988Y-30035682D01*
X61580298Y-30155380D01*
X61639263Y-30265694D01*
X61718615Y-30362385D01*
X61815306Y-30441737D01*
X61925620Y-30500702D01*
X62045318Y-30537012D01*
X62169800Y-30549272D01*
X62188668Y-30549272D01*
X62131332Y-30770727D01*
X62881000Y-31520395D01*
X63630668Y-30770727D01*
X63573332Y-30549272D01*
X63592200Y-30549272D01*
X63716682Y-30537012D01*
X63836380Y-30500702D01*
X63946694Y-30441737D01*
X64043385Y-30362385D01*
X64122737Y-30265694D01*
X64130656Y-30250880D01*
X64343335Y-30392987D01*
X64480976Y-30450000D01*
X64343335Y-30507013D01*
X64122847Y-30654338D01*
X63935338Y-30841847D01*
X63855097Y-30961937D01*
X63810273Y-30950332D01*
X63060605Y-31700000D01*
X63810273Y-32449668D01*
X63855097Y-32438063D01*
X63935338Y-32558153D01*
X64122847Y-32745662D01*
X64343335Y-32892987D01*
X64588328Y-32994467D01*
X64848411Y-33046200D01*
X65113589Y-33046200D01*
X65373672Y-32994467D01*
X65618665Y-32892987D01*
X65839153Y-32745662D01*
X66026662Y-32558153D01*
X66173987Y-32337665D01*
X66275467Y-32092672D01*
X66327200Y-31832589D01*
X66327200Y-31567411D01*
X66275467Y-31307328D01*
X66173987Y-31062335D01*
X66026662Y-30841847D01*
X65839153Y-30654338D01*
X65618665Y-30507013D01*
X65481024Y-30450000D01*
X65618665Y-30392987D01*
X65839153Y-30245662D01*
X66026662Y-30058153D01*
X66173987Y-29837665D01*
X66275467Y-29592672D01*
X66327200Y-29332589D01*
X66327200Y-29067411D01*
X66275467Y-28807328D01*
X66173987Y-28562335D01*
X66026662Y-28341847D01*
X65839153Y-28154338D01*
X65618665Y-28007013D01*
X65373672Y-27905533D01*
X65113589Y-27853800D01*
X64848411Y-27853800D01*
X64588328Y-27905533D01*
X64343335Y-28007013D01*
X64130656Y-28149120D01*
X64122737Y-28134306D01*
X64043385Y-28037615D01*
X63946694Y-27958263D01*
X63836380Y-27899298D01*
X63716682Y-27862988D01*
X63592200Y-27850728D01*
X62169800Y-27850728D01*
X62045318Y-27862988D01*
X61925620Y-27899298D01*
X61815306Y-27958263D01*
X61718615Y-28037615D01*
X61639263Y-28134306D01*
X61580298Y-28244620D01*
X61543988Y-28364318D01*
X61531728Y-28488800D01*
X61531728Y-28701733D01*
X61473987Y-28562335D01*
X61326662Y-28341847D01*
X61139153Y-28154338D01*
X60918665Y-28007013D01*
X60673672Y-27905533D01*
X60413589Y-27853800D01*
X60148411Y-27853800D01*
X59888328Y-27905533D01*
X59643335Y-28007013D01*
X59422847Y-28154338D01*
X59235338Y-28341847D01*
X59231000Y-28348339D01*
X59226662Y-28341847D01*
X59039153Y-28154338D01*
X58818665Y-28007013D01*
X58573672Y-27905533D01*
X58313589Y-27853800D01*
X58048411Y-27853800D01*
X57788328Y-27905533D01*
X57543335Y-28007013D01*
X57322847Y-28154338D01*
X57135338Y-28341847D01*
X56988013Y-28562335D01*
X56886533Y-28807328D01*
X56834800Y-29067411D01*
X53066000Y-29067411D01*
X53066000Y-27807899D01*
X53310651Y-28052550D01*
X53701279Y-28313560D01*
X54135321Y-28493346D01*
X54596098Y-28585000D01*
X55065902Y-28585000D01*
X55526679Y-28493346D01*
X55960721Y-28313560D01*
X56351349Y-28052550D01*
X56683550Y-27720349D01*
X56944560Y-27329721D01*
X57124346Y-26895679D01*
X57216000Y-26434902D01*
X57216000Y-25965098D01*
X57124346Y-25504321D01*
X56983836Y-25165098D01*
X59196000Y-25165098D01*
X59196000Y-25634902D01*
X59287654Y-26095679D01*
X59467440Y-26529721D01*
X59728450Y-26920349D01*
X60060651Y-27252550D01*
X60451279Y-27513560D01*
X60885321Y-27693346D01*
X61346098Y-27785000D01*
X61815902Y-27785000D01*
X62276679Y-27693346D01*
X62710721Y-27513560D01*
X63101349Y-27252550D01*
X63433550Y-26920349D01*
X63694560Y-26529721D01*
X63874346Y-26095679D01*
X63900320Y-25965098D01*
X65946000Y-25965098D01*
X65946000Y-26434902D01*
X66037654Y-26895679D01*
X66217440Y-27329721D01*
X66478450Y-27720349D01*
X66810651Y-28052550D01*
X67201279Y-28313560D01*
X67635321Y-28493346D01*
X68096098Y-28585000D01*
X68565902Y-28585000D01*
X69026679Y-28493346D01*
X69460721Y-28313560D01*
X69851349Y-28052550D01*
X70183550Y-27720349D01*
X70444560Y-27329721D01*
X70624346Y-26895679D01*
X70716000Y-26434902D01*
X70716000Y-25965098D01*
X70624346Y-25504321D01*
X70444560Y-25070279D01*
X70183550Y-24679651D01*
X69851349Y-24347450D01*
X69460721Y-24086440D01*
X69026679Y-23906654D01*
X68565902Y-23815000D01*
X68096098Y-23815000D01*
X67635321Y-23906654D01*
X67201279Y-24086440D01*
X66810651Y-24347450D01*
X66478450Y-24679651D01*
X66217440Y-25070279D01*
X66037654Y-25504321D01*
X65946000Y-25965098D01*
X63900320Y-25965098D01*
X63966000Y-25634902D01*
X63966000Y-25165098D01*
X63874346Y-24704321D01*
X63694560Y-24270279D01*
X63433550Y-23879651D01*
X63101349Y-23547450D01*
X62710721Y-23286440D01*
X62276679Y-23106654D01*
X61815902Y-23015000D01*
X61346098Y-23015000D01*
X60885321Y-23106654D01*
X60451279Y-23286440D01*
X60060651Y-23547450D01*
X59728450Y-23879651D01*
X59467440Y-24270279D01*
X59287654Y-24704321D01*
X59196000Y-25165098D01*
X56983836Y-25165098D01*
X56944560Y-25070279D01*
X56683550Y-24679651D01*
X56351349Y-24347450D01*
X55960721Y-24086440D01*
X55526679Y-23906654D01*
X55065902Y-23815000D01*
X54596098Y-23815000D01*
X54135321Y-23906654D01*
X53701279Y-24086440D01*
X53310651Y-24347450D01*
X53066000Y-24592101D01*
X53066000Y-21344000D01*
X81246001Y-21344000D01*
X81246000Y-28401581D01*
G37*
%TD.AperFunction*%
%TD*%
M02*
