%TF.GenerationSoftware,KiCad,Pcbnew,5.1.12-84ad8e8a86~92~ubuntu20.04.1*%
%TF.CreationDate,2021-12-07T00:05:06-06:00*%
%TF.ProjectId,portboard_mdd,706f7274-626f-4617-9264-5f726962626f,rev?*%
%TF.SameCoordinates,Original*%
%TF.FileFunction,Legend,Bot*%
%TF.FilePolarity,Positive*%
%FSLAX46Y46*%
G04 Gerber Fmt 4.6, Leading zero omitted, Abs format (unit mm)*
G04 Created by KiCad (PCBNEW 5.1.12-84ad8e8a86~92~ubuntu20.04.1) date 2021-12-07 00:05:06*
%MOMM*%
%LPD*%
G01*
G04 APERTURE LIST*
%ADD10C,0.120000*%
%ADD11C,0.127000*%
%ADD12C,0.150000*%
%ADD13C,0.065024*%
G04 APERTURE END LIST*
D10*
%TO.C,J1*%
X58360000Y-37024000D02*
X63560000Y-37024000D01*
X58360000Y-47244000D02*
X58360000Y-37024000D01*
X63560000Y-49844000D02*
X63560000Y-37024000D01*
X58360000Y-47244000D02*
X60960000Y-47244000D01*
X60960000Y-47244000D02*
X60960000Y-49844000D01*
X60960000Y-49844000D02*
X63560000Y-49844000D01*
X58360000Y-48514000D02*
X58360000Y-49844000D01*
X58360000Y-49844000D02*
X59690000Y-49844000D01*
D11*
%TO.C,J2*%
X68281000Y-27150000D02*
X68531000Y-27150000D01*
X68281000Y-25150000D02*
X68281000Y-27150000D01*
X68581000Y-25150000D02*
X68281000Y-25150000D01*
X54881000Y-27150000D02*
X54581000Y-27150000D01*
X54881000Y-25150000D02*
X54881000Y-27150000D01*
X54581000Y-25150000D02*
X54881000Y-25150000D01*
X54581000Y-25150000D02*
X54581000Y-20700000D01*
X54581000Y-27150000D02*
X54581000Y-25150000D01*
X54581000Y-33600000D02*
X54581000Y-27150000D01*
X68581000Y-33600000D02*
X54581000Y-33600000D01*
X68581000Y-25150000D02*
X68581000Y-33600000D01*
X68581000Y-20700000D02*
X68581000Y-25150000D01*
X54581000Y-20700000D02*
X68581000Y-20700000D01*
%TO.C,J1*%
D12*
X59967880Y-50466666D02*
X60682166Y-50466666D01*
X60825023Y-50419047D01*
X60920261Y-50323809D01*
X60967880Y-50180952D01*
X60967880Y-50085714D01*
X60967880Y-51466666D02*
X60967880Y-50895238D01*
X60967880Y-51180952D02*
X59967880Y-51180952D01*
X60110738Y-51085714D01*
X60205976Y-50990476D01*
X60253595Y-50895238D01*
%TO.C,J2*%
X68008190Y-33922380D02*
X68008190Y-34636666D01*
X68055809Y-34779523D01*
X68151047Y-34874761D01*
X68293904Y-34922380D01*
X68389142Y-34922380D01*
X67579619Y-34017619D02*
X67532000Y-33970000D01*
X67436761Y-33922380D01*
X67198666Y-33922380D01*
X67103428Y-33970000D01*
X67055809Y-34017619D01*
X67008190Y-34112857D01*
X67008190Y-34208095D01*
X67055809Y-34350952D01*
X67627238Y-34922380D01*
X67008190Y-34922380D01*
D13*
X63815882Y-32579457D02*
X63815882Y-33094230D01*
X63999730Y-32285300D02*
X64183577Y-32836843D01*
X63705574Y-32836843D01*
X63815882Y-32579457D02*
X63815882Y-33094230D01*
X63999730Y-32285300D02*
X64183577Y-32836843D01*
X63705574Y-32836843D01*
X59914347Y-32322070D02*
X59399574Y-32322070D01*
X59730499Y-33094230D01*
X59914347Y-32322070D02*
X59399574Y-32322070D01*
X59730499Y-33094230D01*
X60211577Y-27364609D02*
X60174808Y-27327840D01*
X60101269Y-27291070D01*
X59917421Y-27291070D01*
X59843882Y-27327840D01*
X59807113Y-27364609D01*
X59770343Y-27438148D01*
X59770343Y-27511687D01*
X59807113Y-27621996D01*
X60248347Y-28063230D01*
X59770343Y-28063230D01*
X56473113Y-28655070D02*
X56840808Y-28655070D01*
X56877577Y-29022765D01*
X56840808Y-28985996D01*
X56767269Y-28949226D01*
X56583421Y-28949226D01*
X56509882Y-28985996D01*
X56473113Y-29022765D01*
X56436343Y-29096304D01*
X56436343Y-29280152D01*
X56473113Y-29353691D01*
X56509882Y-29390460D01*
X56583421Y-29427230D01*
X56767269Y-29427230D01*
X56840808Y-29390460D01*
X56877577Y-29353691D01*
X66415882Y-31322070D02*
X66562960Y-31322070D01*
X66636499Y-31358840D01*
X66673269Y-31395609D01*
X66746808Y-31505918D01*
X66783577Y-31652996D01*
X66783577Y-31947152D01*
X66746808Y-32020691D01*
X66710038Y-32057460D01*
X66636499Y-32094230D01*
X66489421Y-32094230D01*
X66415882Y-32057460D01*
X66379113Y-32020691D01*
X66342343Y-31947152D01*
X66342343Y-31763304D01*
X66379113Y-31689765D01*
X66415882Y-31652996D01*
X66489421Y-31616226D01*
X66636499Y-31616226D01*
X66710038Y-31652996D01*
X66746808Y-31689765D01*
X66783577Y-31763304D01*
X62970343Y-28063230D02*
X63411577Y-28063230D01*
X63190960Y-28063230D02*
X63190960Y-27291070D01*
X63264499Y-27401379D01*
X63338038Y-27474918D01*
X63411577Y-27511687D01*
X66693347Y-28655070D02*
X66215343Y-28655070D01*
X66472730Y-28949226D01*
X66362421Y-28949226D01*
X66288882Y-28985996D01*
X66252113Y-29022765D01*
X66215343Y-29096304D01*
X66215343Y-29280152D01*
X66252113Y-29353691D01*
X66288882Y-29390460D01*
X66362421Y-29427230D01*
X66583038Y-29427230D01*
X66656577Y-29390460D01*
X66693347Y-29353691D01*
X56730499Y-31652996D02*
X56804038Y-31616226D01*
X56840808Y-31579457D01*
X56877577Y-31505918D01*
X56877577Y-31469148D01*
X56840808Y-31395609D01*
X56804038Y-31358840D01*
X56730499Y-31322070D01*
X56583421Y-31322070D01*
X56509882Y-31358840D01*
X56473113Y-31395609D01*
X56436343Y-31469148D01*
X56436343Y-31505918D01*
X56473113Y-31579457D01*
X56509882Y-31616226D01*
X56583421Y-31652996D01*
X56730499Y-31652996D01*
X56804038Y-31689765D01*
X56840808Y-31726535D01*
X56877577Y-31800074D01*
X56877577Y-31947152D01*
X56840808Y-32020691D01*
X56804038Y-32057460D01*
X56730499Y-32094230D01*
X56583421Y-32094230D01*
X56509882Y-32057460D01*
X56473113Y-32020691D01*
X56436343Y-31947152D01*
X56436343Y-31800074D01*
X56473113Y-31726535D01*
X56509882Y-31689765D01*
X56583421Y-31652996D01*
X56730499Y-31652996D02*
X56804038Y-31616226D01*
X56840808Y-31579457D01*
X56877577Y-31505918D01*
X56877577Y-31469148D01*
X56840808Y-31395609D01*
X56804038Y-31358840D01*
X56730499Y-31322070D01*
X56583421Y-31322070D01*
X56509882Y-31358840D01*
X56473113Y-31395609D01*
X56436343Y-31469148D01*
X56436343Y-31505918D01*
X56473113Y-31579457D01*
X56509882Y-31616226D01*
X56583421Y-31652996D01*
X56730499Y-31652996D01*
X56804038Y-31689765D01*
X56840808Y-31726535D01*
X56877577Y-31800074D01*
X56877577Y-31947152D01*
X56840808Y-32020691D01*
X56804038Y-32057460D01*
X56730499Y-32094230D01*
X56583421Y-32094230D01*
X56509882Y-32057460D01*
X56473113Y-32020691D01*
X56436343Y-31947152D01*
X56436343Y-31800074D01*
X56473113Y-31726535D01*
X56509882Y-31689765D01*
X56583421Y-31652996D01*
X66415882Y-31322070D02*
X66562960Y-31322070D01*
X66636499Y-31358840D01*
X66673269Y-31395609D01*
X66746808Y-31505918D01*
X66783577Y-31652996D01*
X66783577Y-31947152D01*
X66746808Y-32020691D01*
X66710038Y-32057460D01*
X66636499Y-32094230D01*
X66489421Y-32094230D01*
X66415882Y-32057460D01*
X66379113Y-32020691D01*
X66342343Y-31947152D01*
X66342343Y-31763304D01*
X66379113Y-31689765D01*
X66415882Y-31652996D01*
X66489421Y-31616226D01*
X66636499Y-31616226D01*
X66710038Y-31652996D01*
X66746808Y-31689765D01*
X66783577Y-31763304D01*
X56473113Y-28655070D02*
X56840808Y-28655070D01*
X56877577Y-29022765D01*
X56840808Y-28985996D01*
X56767269Y-28949226D01*
X56583421Y-28949226D01*
X56509882Y-28985996D01*
X56473113Y-29022765D01*
X56436343Y-29096304D01*
X56436343Y-29280152D01*
X56473113Y-29353691D01*
X56509882Y-29390460D01*
X56583421Y-29427230D01*
X56767269Y-29427230D01*
X56840808Y-29390460D01*
X56877577Y-29353691D01*
X66693347Y-28655070D02*
X66215343Y-28655070D01*
X66472730Y-28949226D01*
X66362421Y-28949226D01*
X66288882Y-28985996D01*
X66252113Y-29022765D01*
X66215343Y-29096304D01*
X66215343Y-29280152D01*
X66252113Y-29353691D01*
X66288882Y-29390460D01*
X66362421Y-29427230D01*
X66583038Y-29427230D01*
X66656577Y-29390460D01*
X66693347Y-29353691D01*
X60211577Y-27364609D02*
X60174808Y-27327840D01*
X60101269Y-27291070D01*
X59917421Y-27291070D01*
X59843882Y-27327840D01*
X59807113Y-27364609D01*
X59770343Y-27438148D01*
X59770343Y-27511687D01*
X59807113Y-27621996D01*
X60248347Y-28063230D01*
X59770343Y-28063230D01*
X62970343Y-28063230D02*
X63411577Y-28063230D01*
X63190960Y-28063230D02*
X63190960Y-27291070D01*
X63264499Y-27401379D01*
X63338038Y-27474918D01*
X63411577Y-27511687D01*
%TD*%
M02*
