%TF.GenerationSoftware,KiCad,Pcbnew,5.1.12-84ad8e8a86~92~ubuntu20.04.1*%
%TF.CreationDate,2021-12-07T00:05:06-06:00*%
%TF.ProjectId,portboard_mdd,706f7274-626f-4617-9264-5f726962626f,rev?*%
%TF.SameCoordinates,Original*%
%TF.FileFunction,Soldermask,Top*%
%TF.FilePolarity,Negative*%
%FSLAX46Y46*%
G04 Gerber Fmt 4.6, Leading zero omitted, Abs format (unit mm)*
G04 Created by KiCad (PCBNEW 5.1.12-84ad8e8a86~92~ubuntu20.04.1) date 2021-12-07 00:05:06*
%MOMM*%
%LPD*%
G01*
G04 APERTURE LIST*
%ADD10R,1.300000X0.300000*%
%ADD11R,2.200000X1.800000*%
%ADD12C,8.000000*%
%ADD13O,1.700000X1.700000*%
%ADD14R,1.700000X1.700000*%
%ADD15C,1.524000*%
%ADD16C,3.601600*%
G04 APERTURE END LIST*
D10*
%TO.C,J3*%
X69841500Y-39350500D03*
X69841500Y-39850500D03*
X69841500Y-40350500D03*
X69841500Y-40850500D03*
X69841500Y-41350500D03*
X69841500Y-41850500D03*
X69841500Y-42350500D03*
X69841500Y-42850500D03*
X69841500Y-43350500D03*
X69841500Y-43850500D03*
X69841500Y-44350500D03*
X69841500Y-44850500D03*
D11*
X73091500Y-46750500D03*
X73091500Y-37450500D03*
%TD*%
D12*
%TO.C,H2*%
X86170300Y-32434000D03*
%TD*%
%TO.C,H1*%
X48141700Y-47434000D03*
%TD*%
D13*
%TO.C,J1*%
X62230000Y-38354000D03*
X59690000Y-38354000D03*
X62230000Y-40894000D03*
X59690000Y-40894000D03*
X62230000Y-43434000D03*
X59690000Y-43434000D03*
X62230000Y-45974000D03*
X59690000Y-45974000D03*
X62230000Y-48514000D03*
D14*
X59690000Y-48514000D03*
%TD*%
D15*
%TO.C,J2*%
X60681000Y-31700000D03*
X62881000Y-31700000D03*
X64981000Y-31700000D03*
X58181000Y-31700000D03*
X58181000Y-29200000D03*
X64981000Y-29200000D03*
G36*
G01*
X63643000Y-28488800D02*
X63643000Y-29911200D01*
G75*
G02*
X63592200Y-29962000I-50800J0D01*
G01*
X62169800Y-29962000D01*
G75*
G02*
X62119000Y-29911200I0J50800D01*
G01*
X62119000Y-28488800D01*
G75*
G02*
X62169800Y-28438000I50800J0D01*
G01*
X63592200Y-28438000D01*
G75*
G02*
X63643000Y-28488800I0J-50800D01*
G01*
G37*
X60281000Y-29200000D03*
D16*
X61581000Y-25400000D03*
X68331000Y-26200000D03*
X54831000Y-26200000D03*
%TD*%
M02*
