%TF.GenerationSoftware,KiCad,Pcbnew,5.1.12-84ad8e8a86~92~ubuntu20.04.1*%
%TF.CreationDate,2021-12-06T23:57:06-06:00*%
%TF.ProjectId,portboard_img4,706f7274-626f-4617-9264-5f696d67342e,rev?*%
%TF.SameCoordinates,Original*%
%TF.FileFunction,Legend,Top*%
%TF.FilePolarity,Positive*%
%FSLAX46Y46*%
G04 Gerber Fmt 4.6, Leading zero omitted, Abs format (unit mm)*
G04 Created by KiCad (PCBNEW 5.1.12-84ad8e8a86~92~ubuntu20.04.1) date 2021-12-06 23:57:06*
%MOMM*%
%LPD*%
G01*
G04 APERTURE LIST*
%ADD10C,0.150000*%
%ADD11C,0.125000*%
%ADD12C,0.127000*%
%ADD13C,0.120000*%
%ADD14C,0.065024*%
G04 APERTURE END LIST*
D10*
X102471071Y-99031357D02*
X102471071Y-98402785D01*
X102413928Y-98288500D01*
X102299642Y-98231357D01*
X102071071Y-98231357D01*
X101956785Y-98288500D01*
X102471071Y-98974214D02*
X102356785Y-99031357D01*
X102071071Y-99031357D01*
X101956785Y-98974214D01*
X101899642Y-98859928D01*
X101899642Y-98745642D01*
X101956785Y-98631357D01*
X102071071Y-98574214D01*
X102356785Y-98574214D01*
X102471071Y-98517071D01*
X103042500Y-99031357D02*
X103042500Y-98231357D01*
X103042500Y-98459928D02*
X103099642Y-98345642D01*
X103156785Y-98288500D01*
X103271071Y-98231357D01*
X103385357Y-98231357D01*
X103785357Y-99031357D02*
X103785357Y-98231357D01*
X103785357Y-98459928D02*
X103842500Y-98345642D01*
X103899642Y-98288500D01*
X104013928Y-98231357D01*
X104128214Y-98231357D01*
X104985357Y-98974214D02*
X104871071Y-99031357D01*
X104642500Y-99031357D01*
X104528214Y-98974214D01*
X104471071Y-98859928D01*
X104471071Y-98402785D01*
X104528214Y-98288500D01*
X104642500Y-98231357D01*
X104871071Y-98231357D01*
X104985357Y-98288500D01*
X105042500Y-98402785D01*
X105042500Y-98517071D01*
X104471071Y-98631357D01*
X105499642Y-98974214D02*
X105613928Y-99031357D01*
X105842500Y-99031357D01*
X105956785Y-98974214D01*
X106013928Y-98859928D01*
X106013928Y-98802785D01*
X105956785Y-98688500D01*
X105842500Y-98631357D01*
X105671071Y-98631357D01*
X105556785Y-98574214D01*
X105499642Y-98459928D01*
X105499642Y-98402785D01*
X105556785Y-98288500D01*
X105671071Y-98231357D01*
X105842500Y-98231357D01*
X105956785Y-98288500D01*
X106356785Y-98231357D02*
X106813928Y-98231357D01*
X106528214Y-97831357D02*
X106528214Y-98859928D01*
X106585357Y-98974214D01*
X106699642Y-99031357D01*
X106813928Y-99031357D01*
X107671071Y-98974214D02*
X107556785Y-99031357D01*
X107328214Y-99031357D01*
X107213928Y-98974214D01*
X107156785Y-98859928D01*
X107156785Y-98402785D01*
X107213928Y-98288500D01*
X107328214Y-98231357D01*
X107556785Y-98231357D01*
X107671071Y-98288500D01*
X107728214Y-98402785D01*
X107728214Y-98517071D01*
X107156785Y-98631357D01*
X108756785Y-99031357D02*
X108756785Y-97831357D01*
X108756785Y-98974214D02*
X108642500Y-99031357D01*
X108413928Y-99031357D01*
X108299642Y-98974214D01*
X108242500Y-98917071D01*
X108185357Y-98802785D01*
X108185357Y-98459928D01*
X108242500Y-98345642D01*
X108299642Y-98288500D01*
X108413928Y-98231357D01*
X108642500Y-98231357D01*
X108756785Y-98288500D01*
X109499642Y-99031357D02*
X109385357Y-98974214D01*
X109328214Y-98859928D01*
X109328214Y-97831357D01*
X109956785Y-99031357D02*
X109956785Y-98231357D01*
X109956785Y-97831357D02*
X109899642Y-97888500D01*
X109956785Y-97945642D01*
X110013928Y-97888500D01*
X109956785Y-97831357D01*
X109956785Y-97945642D01*
X111042500Y-98231357D02*
X111042500Y-99202785D01*
X110985357Y-99317071D01*
X110928214Y-99374214D01*
X110813928Y-99431357D01*
X110642500Y-99431357D01*
X110528214Y-99374214D01*
X111042500Y-98974214D02*
X110928214Y-99031357D01*
X110699642Y-99031357D01*
X110585357Y-98974214D01*
X110528214Y-98917071D01*
X110471071Y-98802785D01*
X110471071Y-98459928D01*
X110528214Y-98345642D01*
X110585357Y-98288500D01*
X110699642Y-98231357D01*
X110928214Y-98231357D01*
X111042500Y-98288500D01*
X111613928Y-99031357D02*
X111613928Y-97831357D01*
X112128214Y-99031357D02*
X112128214Y-98402785D01*
X112071071Y-98288500D01*
X111956785Y-98231357D01*
X111785357Y-98231357D01*
X111671071Y-98288500D01*
X111613928Y-98345642D01*
X112528214Y-98231357D02*
X112985357Y-98231357D01*
X112699642Y-97831357D02*
X112699642Y-98859928D01*
X112756785Y-98974214D01*
X112871071Y-99031357D01*
X112985357Y-99031357D01*
X113385357Y-98231357D02*
X113385357Y-99031357D01*
X113385357Y-98345642D02*
X113442500Y-98288500D01*
X113556785Y-98231357D01*
X113728214Y-98231357D01*
X113842500Y-98288500D01*
X113899642Y-98402785D01*
X113899642Y-99031357D01*
X114471071Y-99031357D02*
X114471071Y-98231357D01*
X114471071Y-97831357D02*
X114413928Y-97888500D01*
X114471071Y-97945642D01*
X114528214Y-97888500D01*
X114471071Y-97831357D01*
X114471071Y-97945642D01*
X115042500Y-98231357D02*
X115042500Y-99031357D01*
X115042500Y-98345642D02*
X115099642Y-98288500D01*
X115213928Y-98231357D01*
X115385357Y-98231357D01*
X115499642Y-98288500D01*
X115556785Y-98402785D01*
X115556785Y-99031357D01*
X116642500Y-98231357D02*
X116642500Y-99202785D01*
X116585357Y-99317071D01*
X116528214Y-99374214D01*
X116413928Y-99431357D01*
X116242500Y-99431357D01*
X116128214Y-99374214D01*
X116642500Y-98974214D02*
X116528214Y-99031357D01*
X116299642Y-99031357D01*
X116185357Y-98974214D01*
X116128214Y-98917071D01*
X116071071Y-98802785D01*
X116071071Y-98459928D01*
X116128214Y-98345642D01*
X116185357Y-98288500D01*
X116299642Y-98231357D01*
X116528214Y-98231357D01*
X116642500Y-98288500D01*
X117213928Y-98917071D02*
X117271071Y-98974214D01*
X117213928Y-99031357D01*
X117156785Y-98974214D01*
X117213928Y-98917071D01*
X117213928Y-99031357D01*
X118299642Y-98974214D02*
X118185357Y-99031357D01*
X117956785Y-99031357D01*
X117842500Y-98974214D01*
X117785357Y-98917071D01*
X117728214Y-98802785D01*
X117728214Y-98459928D01*
X117785357Y-98345642D01*
X117842500Y-98288500D01*
X117956785Y-98231357D01*
X118185357Y-98231357D01*
X118299642Y-98288500D01*
X118985357Y-99031357D02*
X118871071Y-98974214D01*
X118813928Y-98917071D01*
X118756785Y-98802785D01*
X118756785Y-98459928D01*
X118813928Y-98345642D01*
X118871071Y-98288500D01*
X118985357Y-98231357D01*
X119156785Y-98231357D01*
X119271071Y-98288500D01*
X119328214Y-98345642D01*
X119385357Y-98459928D01*
X119385357Y-98802785D01*
X119328214Y-98917071D01*
X119271071Y-98974214D01*
X119156785Y-99031357D01*
X118985357Y-99031357D01*
X119899642Y-99031357D02*
X119899642Y-98231357D01*
X119899642Y-98345642D02*
X119956785Y-98288500D01*
X120071071Y-98231357D01*
X120242500Y-98231357D01*
X120356785Y-98288500D01*
X120413928Y-98402785D01*
X120413928Y-99031357D01*
X120413928Y-98402785D02*
X120471071Y-98288500D01*
X120585357Y-98231357D01*
X120756785Y-98231357D01*
X120871071Y-98288500D01*
X120928214Y-98402785D01*
X120928214Y-99031357D01*
D11*
X100903345Y-96664833D02*
X101498583Y-96664833D01*
X100784297Y-97021976D02*
X101200964Y-95771976D01*
X101617630Y-97021976D01*
X102629535Y-97021976D02*
X102034297Y-97021976D01*
X102034297Y-95771976D01*
X103700964Y-97021976D02*
X102986678Y-97021976D01*
X103343821Y-97021976D02*
X103343821Y-95771976D01*
X103224773Y-95950547D01*
X103105726Y-96069595D01*
X102986678Y-96129119D01*
X104474773Y-95771976D02*
X104593821Y-95771976D01*
X104712869Y-95831500D01*
X104772392Y-95891023D01*
X104831916Y-96010071D01*
X104891440Y-96248166D01*
X104891440Y-96545785D01*
X104831916Y-96783880D01*
X104772392Y-96902928D01*
X104712869Y-96962452D01*
X104593821Y-97021976D01*
X104474773Y-97021976D01*
X104355726Y-96962452D01*
X104296202Y-96902928D01*
X104236678Y-96783880D01*
X104177154Y-96545785D01*
X104177154Y-96248166D01*
X104236678Y-96010071D01*
X104296202Y-95891023D01*
X104355726Y-95831500D01*
X104474773Y-95771976D01*
X105367630Y-95891023D02*
X105427154Y-95831500D01*
X105546202Y-95771976D01*
X105843821Y-95771976D01*
X105962869Y-95831500D01*
X106022392Y-95891023D01*
X106081916Y-96010071D01*
X106081916Y-96129119D01*
X106022392Y-96307690D01*
X105308107Y-97021976D01*
X106081916Y-97021976D01*
X107153345Y-95771976D02*
X106915250Y-95771976D01*
X106796202Y-95831500D01*
X106736678Y-95891023D01*
X106617630Y-96069595D01*
X106558107Y-96307690D01*
X106558107Y-96783880D01*
X106617630Y-96902928D01*
X106677154Y-96962452D01*
X106796202Y-97021976D01*
X107034297Y-97021976D01*
X107153345Y-96962452D01*
X107212869Y-96902928D01*
X107272392Y-96783880D01*
X107272392Y-96486261D01*
X107212869Y-96367214D01*
X107153345Y-96307690D01*
X107034297Y-96248166D01*
X106796202Y-96248166D01*
X106677154Y-96307690D01*
X106617630Y-96367214D01*
X106558107Y-96486261D01*
X109474773Y-97021976D02*
X109058107Y-96426738D01*
X108760488Y-97021976D02*
X108760488Y-95771976D01*
X109236678Y-95771976D01*
X109355726Y-95831500D01*
X109415250Y-95891023D01*
X109474773Y-96010071D01*
X109474773Y-96188642D01*
X109415250Y-96307690D01*
X109355726Y-96367214D01*
X109236678Y-96426738D01*
X108760488Y-96426738D01*
X110486678Y-96962452D02*
X110367630Y-97021976D01*
X110129535Y-97021976D01*
X110010488Y-96962452D01*
X109950964Y-96843404D01*
X109950964Y-96367214D01*
X110010488Y-96248166D01*
X110129535Y-96188642D01*
X110367630Y-96188642D01*
X110486678Y-96248166D01*
X110546202Y-96367214D01*
X110546202Y-96486261D01*
X109950964Y-96605309D01*
X110962869Y-96188642D02*
X111260488Y-97021976D01*
X111558107Y-96188642D01*
X112034297Y-96545785D02*
X112986678Y-96545785D01*
X115189059Y-97021976D02*
X114474773Y-97021976D01*
X114831916Y-97021976D02*
X114831916Y-95771976D01*
X114712869Y-95950547D01*
X114593821Y-96069595D01*
X114474773Y-96129119D01*
X116379535Y-97021976D02*
X115665250Y-97021976D01*
X116022392Y-97021976D02*
X116022392Y-95771976D01*
X115903345Y-95950547D01*
X115784297Y-96069595D01*
X115665250Y-96129119D01*
X116915250Y-96545785D02*
X117867630Y-96545785D01*
X118403345Y-95891023D02*
X118462869Y-95831500D01*
X118581916Y-95771976D01*
X118879535Y-95771976D01*
X118998583Y-95831500D01*
X119058107Y-95891023D01*
X119117630Y-96010071D01*
X119117630Y-96129119D01*
X119058107Y-96307690D01*
X118343821Y-97021976D01*
X119117630Y-97021976D01*
X119891440Y-95771976D02*
X120010488Y-95771976D01*
X120129535Y-95831500D01*
X120189059Y-95891023D01*
X120248583Y-96010071D01*
X120308107Y-96248166D01*
X120308107Y-96545785D01*
X120248583Y-96783880D01*
X120189059Y-96902928D01*
X120129535Y-96962452D01*
X120010488Y-97021976D01*
X119891440Y-97021976D01*
X119772392Y-96962452D01*
X119712869Y-96902928D01*
X119653345Y-96783880D01*
X119593821Y-96545785D01*
X119593821Y-96248166D01*
X119653345Y-96010071D01*
X119712869Y-95891023D01*
X119772392Y-95831500D01*
X119891440Y-95771976D01*
X120784297Y-95891023D02*
X120843821Y-95831500D01*
X120962869Y-95771976D01*
X121260488Y-95771976D01*
X121379535Y-95831500D01*
X121439059Y-95891023D01*
X121498583Y-96010071D01*
X121498583Y-96129119D01*
X121439059Y-96307690D01*
X120724773Y-97021976D01*
X121498583Y-97021976D01*
X122689059Y-97021976D02*
X121974773Y-97021976D01*
X122331916Y-97021976D02*
X122331916Y-95771976D01*
X122212869Y-95950547D01*
X122093821Y-96069595D01*
X121974773Y-96129119D01*
D12*
%TO.C,J2*%
X99200709Y-71262886D02*
X98956922Y-71318273D01*
X98757612Y-69312588D02*
X99200709Y-71262886D01*
X98465067Y-69379052D02*
X98757612Y-69312588D01*
X112267711Y-68294136D02*
X112560255Y-68227672D01*
X111824614Y-66343838D02*
X112267711Y-68294136D01*
X112117158Y-66277373D02*
X111824614Y-66343838D01*
X112117158Y-66277373D02*
X111131268Y-61937959D01*
X112560255Y-68227672D02*
X112117158Y-66277373D01*
X113989243Y-74517385D02*
X112560255Y-68227672D01*
X100337152Y-77619064D02*
X113989243Y-74517385D01*
X98465067Y-69379052D02*
X100337152Y-77619064D01*
X97479177Y-65039638D02*
X98465067Y-69379052D01*
X111131268Y-61937959D02*
X97479177Y-65039638D01*
D13*
%TO.C,J1*%
X106822000Y-88997000D02*
X105332000Y-88997000D01*
X105332000Y-88997000D02*
X105332000Y-90337000D01*
X113142000Y-88997000D02*
X114632000Y-88997000D01*
X114632000Y-88997000D02*
X114632000Y-90337000D01*
X105332000Y-93057000D02*
X105332000Y-94797000D01*
X105332000Y-94797000D02*
X114632000Y-94797000D01*
X114632000Y-94797000D02*
X114632000Y-93057000D01*
X106822000Y-88997000D02*
X106822000Y-87797000D01*
%TO.C,J2*%
D10*
X101719771Y-77834764D02*
X101878020Y-78531300D01*
X101863234Y-78681157D01*
X101791462Y-78795128D01*
X101662705Y-78873213D01*
X101569834Y-78894313D01*
X102158792Y-77832686D02*
X102194677Y-77775701D01*
X102276999Y-77708165D01*
X102509177Y-77655415D01*
X102612599Y-77680751D01*
X102669584Y-77716637D01*
X102737120Y-77798959D01*
X102758220Y-77891830D01*
X102743434Y-78041687D01*
X102312805Y-78725514D01*
X102916469Y-78588365D01*
D14*
X104581717Y-70976854D02*
X104151448Y-71074608D01*
X104366582Y-71025731D02*
X104195511Y-70272760D01*
X104148238Y-70396619D01*
X104092819Y-70484623D01*
X104029254Y-70536772D01*
X107117147Y-69684394D02*
X107144857Y-69640392D01*
X107208422Y-69588243D01*
X107387701Y-69547512D01*
X107467559Y-69567075D01*
X107511561Y-69594785D01*
X107563709Y-69658350D01*
X107580001Y-69730062D01*
X107568584Y-69845775D01*
X107236070Y-70373800D01*
X107702195Y-70267899D01*
X101082353Y-72378812D02*
X101548478Y-72272911D01*
X101362657Y-72616781D01*
X101470225Y-72592342D01*
X101550083Y-72611906D01*
X101594085Y-72639615D01*
X101646233Y-72703181D01*
X101686964Y-72882459D01*
X101667401Y-72962317D01*
X101639691Y-73006319D01*
X101576126Y-73058467D01*
X101360991Y-73107345D01*
X101281133Y-73087782D01*
X101237131Y-73060072D01*
X111048608Y-70114534D02*
X110690050Y-70195997D01*
X110735657Y-70562701D01*
X110763367Y-70518699D01*
X110826932Y-70466551D01*
X111006211Y-70425819D01*
X111086069Y-70445383D01*
X111130071Y-70473092D01*
X111182219Y-70536658D01*
X111222950Y-70715936D01*
X111203387Y-70795794D01*
X111175677Y-70839796D01*
X111112112Y-70891944D01*
X110932833Y-70932676D01*
X110852975Y-70913112D01*
X110808973Y-70885403D01*
X101943792Y-74918064D02*
X101800369Y-74950649D01*
X101736804Y-75002797D01*
X101709094Y-75046799D01*
X101661822Y-75170659D01*
X101658551Y-75322228D01*
X101723721Y-75609074D01*
X101775869Y-75672640D01*
X101819871Y-75700349D01*
X101899729Y-75719912D01*
X102043152Y-75687327D01*
X102106717Y-75635179D01*
X102134427Y-75591177D01*
X102153990Y-75511319D01*
X102113259Y-75332041D01*
X102061111Y-75268475D01*
X102017109Y-75240766D01*
X101937251Y-75221202D01*
X101793828Y-75253787D01*
X101730262Y-75305936D01*
X101702553Y-75349938D01*
X101682989Y-75429795D01*
X111461804Y-73094984D02*
X111381946Y-73075421D01*
X111337944Y-73047711D01*
X111285796Y-72984146D01*
X111277650Y-72948290D01*
X111297213Y-72868432D01*
X111324922Y-72824430D01*
X111388488Y-72772282D01*
X111531911Y-72739697D01*
X111611769Y-72759260D01*
X111655771Y-72786970D01*
X111707919Y-72850535D01*
X111716065Y-72886391D01*
X111696502Y-72966249D01*
X111668792Y-73010251D01*
X111605227Y-73062399D01*
X111461804Y-73094984D01*
X111398239Y-73147132D01*
X111370529Y-73191134D01*
X111350966Y-73270992D01*
X111383551Y-73414415D01*
X111435699Y-73477981D01*
X111479701Y-73505690D01*
X111559559Y-73525253D01*
X111702982Y-73492668D01*
X111766547Y-73440520D01*
X111794257Y-73396518D01*
X111813820Y-73316660D01*
X111781235Y-73173237D01*
X111729087Y-73109672D01*
X111685085Y-73081962D01*
X111605227Y-73062399D01*
X111461804Y-73094984D02*
X111381946Y-73075421D01*
X111337944Y-73047711D01*
X111285796Y-72984146D01*
X111277650Y-72948290D01*
X111297213Y-72868432D01*
X111324922Y-72824430D01*
X111388488Y-72772282D01*
X111531911Y-72739697D01*
X111611769Y-72759260D01*
X111655771Y-72786970D01*
X111707919Y-72850535D01*
X111716065Y-72886391D01*
X111696502Y-72966249D01*
X111668792Y-73010251D01*
X111605227Y-73062399D01*
X111461804Y-73094984D01*
X111398239Y-73147132D01*
X111370529Y-73191134D01*
X111350966Y-73270992D01*
X111383551Y-73414415D01*
X111435699Y-73477981D01*
X111479701Y-73505690D01*
X111559559Y-73525253D01*
X111702982Y-73492668D01*
X111766547Y-73440520D01*
X111794257Y-73396518D01*
X111813820Y-73316660D01*
X111781235Y-73173237D01*
X111729087Y-73109672D01*
X111685085Y-73081962D01*
X111605227Y-73062399D01*
X101082353Y-72378812D02*
X101548478Y-72272911D01*
X101362657Y-72616781D01*
X101470225Y-72592342D01*
X101550083Y-72611906D01*
X101594085Y-72639615D01*
X101646233Y-72703181D01*
X101686964Y-72882459D01*
X101667401Y-72962317D01*
X101639691Y-73006319D01*
X101576126Y-73058467D01*
X101360991Y-73107345D01*
X101281133Y-73087782D01*
X101237131Y-73060072D01*
X104581717Y-70976854D02*
X104151448Y-71074608D01*
X104366582Y-71025731D02*
X104195511Y-70272760D01*
X104148238Y-70396619D01*
X104092819Y-70484623D01*
X104029254Y-70536772D01*
X101943792Y-74918064D02*
X101800369Y-74950649D01*
X101736804Y-75002797D01*
X101709094Y-75046799D01*
X101661822Y-75170659D01*
X101658551Y-75322228D01*
X101723721Y-75609074D01*
X101775869Y-75672640D01*
X101819871Y-75700349D01*
X101899729Y-75719912D01*
X102043152Y-75687327D01*
X102106717Y-75635179D01*
X102134427Y-75591177D01*
X102153990Y-75511319D01*
X102113259Y-75332041D01*
X102061111Y-75268475D01*
X102017109Y-75240766D01*
X101937251Y-75221202D01*
X101793828Y-75253787D01*
X101730262Y-75305936D01*
X101702553Y-75349938D01*
X101682989Y-75429795D01*
X111048608Y-70114534D02*
X110690050Y-70195997D01*
X110735657Y-70562701D01*
X110763367Y-70518699D01*
X110826932Y-70466551D01*
X111006211Y-70425819D01*
X111086069Y-70445383D01*
X111130071Y-70473092D01*
X111182219Y-70536658D01*
X111222950Y-70715936D01*
X111203387Y-70795794D01*
X111175677Y-70839796D01*
X111112112Y-70891944D01*
X110932833Y-70932676D01*
X110852975Y-70913112D01*
X110808973Y-70885403D01*
X107117147Y-69684394D02*
X107144857Y-69640392D01*
X107208422Y-69588243D01*
X107387701Y-69547512D01*
X107467559Y-69567075D01*
X107511561Y-69594785D01*
X107563709Y-69658350D01*
X107580001Y-69730062D01*
X107568584Y-69845775D01*
X107236070Y-70373800D01*
X107702195Y-70267899D01*
X108505309Y-74452807D02*
X109007290Y-74338760D01*
X108855659Y-75165047D01*
X108505309Y-74452807D02*
X109007290Y-74338760D01*
X108855659Y-75165047D01*
X104757753Y-75568177D02*
X104871800Y-76070158D01*
X104513304Y-75322062D02*
X104456219Y-75900630D01*
X104922344Y-75794729D01*
X104757753Y-75568177D02*
X104871800Y-76070158D01*
X104513304Y-75322062D02*
X104456219Y-75900630D01*
X104922344Y-75794729D01*
%TO.C,J1*%
D10*
X111363166Y-85558380D02*
X111363166Y-86272666D01*
X111315547Y-86415523D01*
X111220309Y-86510761D01*
X111077452Y-86558380D01*
X110982214Y-86558380D01*
X112363166Y-86558380D02*
X111791738Y-86558380D01*
X112077452Y-86558380D02*
X112077452Y-85558380D01*
X111982214Y-85701238D01*
X111886976Y-85796476D01*
X111791738Y-85844095D01*
%TD*%
M02*
