<?xml version="1.0" encoding="UTF-8" standalone="no"?>
<!-- Created with Inkscape (http://www.inkscape.org/) -->

<svg
   xmlns:dc="http://purl.org/dc/elements/1.1/"
   xmlns:cc="http://creativecommons.org/ns#"
   xmlns:rdf="http://www.w3.org/1999/02/22-rdf-syntax-ns#"
   xmlns:svg="http://www.w3.org/2000/svg"
   xmlns="http://www.w3.org/2000/svg"
   xmlns:sodipodi="http://sodipodi.sourceforge.net/DTD/sodipodi-0.dtd"
   xmlns:inkscape="http://www.inkscape.org/namespaces/inkscape"
   width="23.104946mm"
   height="23.100502mm"
   viewBox="0 0 23.104946 23.100502"
   version="1.1"
   id="svg8"
   inkscape:version="0.92.5 (2060ec1f9f, 2020-04-08)"
   sodipodi:docname="Logo2.svg"
   inkscape:export-filename="/home/jjlange/Nextcloud/Projects/serial_rewind/docs/logo2.png"
   inkscape:export-xdpi="1429.02"
   inkscape:export-ydpi="1429.02">
  <defs
     id="defs2" />
  <sodipodi:namedview
     id="base"
     pagecolor="#ffffff"
     bordercolor="#666666"
     borderopacity="1.0"
     inkscape:pageopacity="0.0"
     inkscape:pageshadow="2"
     inkscape:zoom="4"
     inkscape:cx="34.570052"
     inkscape:cy="-1.5547602"
     inkscape:document-units="mm"
     inkscape:current-layer="layer10"
     showgrid="false"
     inkscape:snap-object-midpoints="true"
     inkscape:snap-bbox="true"
     inkscape:object-paths="true"
     inkscape:snap-intersection-paths="true"
     inkscape:snap-smooth-nodes="true"
     inkscape:snap-center="true"
     inkscape:snap-nodes="true"
     inkscape:window-width="2560"
     inkscape:window-height="1027"
     inkscape:window-x="1920"
     inkscape:window-y="0"
     inkscape:window-maximized="1"
     inkscape:object-nodes="true"
     showguides="true"
     inkscape:guide-bbox="true"
     fit-margin-top="0"
     fit-margin-left="0"
     fit-margin-right="0"
     fit-margin-bottom="0" />
  <metadata
     id="metadata5">
    <rdf:RDF>
      <cc:Work
         rdf:about="">
        <dc:format>image/svg+xml</dc:format>
        <dc:type
           rdf:resource="http://purl.org/dc/dcmitype/StillImage" />
        <dc:title></dc:title>
      </cc:Work>
    </rdf:RDF>
  </metadata>
  <g
     inkscape:label="Layer 1"
     inkscape:groupmode="layer"
     id="layer1"
     style="display:inline"
     transform="translate(-2.9676854,-2.4097836)">
    <path
       id="path3112"
       style="fill:#ffffff;stroke:#000000;stroke-width:0.198;stroke-linecap:square;stroke-miterlimit:4;stroke-dasharray:none"
       inkscape:connector-curvature="0"
       d="m 13.942449,8.5210552 c -2.329524,0.54044 -4.0679692,2.6238498 -4.0679692,5.1180998 0,0.99322 0.2739232,1.9195 0.7524222,2.71198 h 1.661901 v 1.71154 c 0.820314,0.52877 1.795727,0.83508 2.844271,0.83508 1.048543,0 2.024088,-0.31473 2.84427,-0.84336 v -1.70326 h 1.653646 c 0.478896,-0.79163 0.762,-1.71794 0.762,-2.71118 0,-2.49423 -1.738312,-4.5775598 -4.069292,-5.1180998 v 0.95086 h -2.381249 v -0.95086 z"
       inkscape:export-xdpi="1429.02"
       inkscape:export-ydpi="1429.02" />
    <circle
       r="0.71459585"
       cy="11.401835"
       cx="12.45919"
       id="path3911"
       style="fill:#000000;stroke:none;stroke-width:0.19844396;stroke-linecap:square"
       inkscape:export-xdpi="1429.02"
       inkscape:export-ydpi="1429.02" />
    <circle
       r="0.71459585"
       cy="11.401835"
       cx="17.832085"
       id="path3913"
       style="fill:#000000;stroke:none;stroke-width:0.19844396;stroke-linecap:square"
       inkscape:export-xdpi="1429.02"
       inkscape:export-ydpi="1429.02" />
    <circle
       r="0.71459585"
       cy="14.064082"
       cx="11.702484"
       id="path3915"
       style="fill:#000000;stroke:none;stroke-width:0.19844396;stroke-linecap:square"
       inkscape:export-xdpi="1429.02"
       inkscape:export-ydpi="1429.02" />
    <circle
       r="0.71459585"
       cy="14.064082"
       cx="18.572388"
       id="path3917"
       style="fill:#000000;stroke:none;stroke-width:0.19844396;stroke-linecap:square"
       inkscape:export-xdpi="1429.02"
       inkscape:export-ydpi="1429.02" />
    <circle
       r="0.71459585"
       cy="16.726055"
       cx="13.793488"
       id="path3919"
       style="fill:#000000;stroke:none;stroke-width:0.19844396;stroke-linecap:square"
       inkscape:export-xdpi="1429.02"
       inkscape:export-ydpi="1429.02" />
    <circle
       r="0.71459585"
       cy="16.726055"
       cx="16.497528"
       id="path3921"
       style="fill:#000000;stroke:none;stroke-width:0.19844396;stroke-linecap:square"
       inkscape:export-xdpi="1429.02"
       inkscape:export-ydpi="1429.02" />
    <circle
       style="fill:#000000;stroke:none;stroke-width:0.19844396;stroke-linecap:square"
       id="circle898"
       cx="15.145645"
       cy="11.401835"
       r="0.71459585"
       inkscape:export-xdpi="1429.02"
       inkscape:export-ydpi="1429.02" />
    <circle
       style="fill:#000000;stroke:none;stroke-width:0.19844396;stroke-linecap:square"
       id="circle900"
       cx="15.885948"
       cy="14.064082"
       r="0.71459585"
       inkscape:export-xdpi="1429.02"
       inkscape:export-ydpi="1429.02" />
    <path
       sodipodi:nodetypes="ccccccccccc"
       inkscape:connector-curvature="0"
       id="Sketch002_w0000"
       d="m 12.292829,16.345915 v 1.7 c 1.73246,1.11623 3.957628,1.11613 5.68999,-2.5e-4 l 1.1e-5,-1.69975 h 1.649999 c 1.84558,-3.05502 0.171386,-7.0215398 -3.305,-7.8302498 v 0.95025 h -2.38 v -0.95 c -3.476024,0.80882 -5.1501122,4.7748398 -3.305,7.8298698 z"
       style="fill:none;fill-opacity:1;fill-rule:evenodd;stroke:#000000;stroke-width:0.2;stroke-miterlimit:4;stroke-dasharray:none;stroke-opacity:1" />
  </g>
  <g
     inkscape:groupmode="layer"
     id="layer8"
     inkscape:label="New"
     style="display:none"
     transform="translate(-2.9676854,-2.4097836)">
    <path
       inkscape:connector-curvature="0"
       id="Sketch002_w0001"
       d="m 8.8524888,20.275545 h -1.977094 v 1.48781 h 4.5174272 v -4.51743 H 9.9050138 v 1.97709 a 7.6587297,7.6587297 0 1 1 5.2328152,2.06665 v 1.4876 a 9.1465396,9.1465396 0 1 0 -6.2853402,-2.5016"
       style="fill:#000000;fill-opacity:1;fill-rule:evenodd;stroke:#000000;stroke-width:0.34999999;stroke-miterlimit:4;stroke-dasharray:none;stroke-opacity:1" />
  </g>
  <g
     inkscape:groupmode="layer"
     id="layer9"
     inkscape:label="New 2"
     style="display:inline"
     transform="translate(-2.9676854,-2.4097836)">
    <g
       transform="matrix(1,0,0,-1,97.627954,425.63426)"
       id="Sketch003">
      <title
         id="title2125">b'Sketch003'</title>
    </g>
    <path
       style="fill:none;fill-opacity:1;fill-rule:evenodd;stroke:#191919;stroke-width:0.2;stroke-miterlimit:4;stroke-dasharray:none"
       d="m 12.287344,16.351135 v 1.7 c 1.732508,1.11616 3.957685,1.11597 5.690005,-4.8e-4 l -5e-6,-1.69952 h 1.65 c 1.845796,-3.05506 0.171551,-7.0218198 -3.305005,-7.8304798 l 5e-6,0.95048 h -2.38 v -0.95 c -3.47586,0.80886 -5.1499022,4.7746498 -3.305003,7.8297598 z"
       id="Sketch003_w0000"
       inkscape:connector-curvature="0"
       sodipodi:nodetypes="ccccccccccc" />
    <path
       style="fill:#000000;fill-opacity:1;fill-rule:evenodd;stroke:#000000;stroke-width:0.34999999;stroke-miterlimit:4;stroke-dasharray:none;stroke-opacity:1"
       d="m 9.3987458,20.436505 h -2.196776 v 1 h 3.9067662 v -3.90676 h -1 v 2.19677 a 7.89505,7.89505 0 1 1 5.023603,1.80414 l 5e-6,1.00033 a 8.89505,8.89505 0 1 0 -5.7335952,-2.09433"
       id="Sketch003_w0001"
       inkscape:connector-curvature="0" />
  </g>
  <g
     inkscape:groupmode="layer"
     id="layer10"
     inkscape:label="New 3"
     style="display:none"
     transform="translate(-2.9676854,-2.4097836)">
    <g
       transform="matrix(0.99999995,0,0,-0.99999995,101.47186,427.54432)"
       id="Sketch004">
      <title
         id="title2145">b'Sketch004'</title>
    </g>
    <path
       style="fill:#000000;fill-opacity:1;fill-rule:evenodd;stroke:#000000;stroke-width:0.35000002;stroke-miterlimit:4;stroke-dasharray:none;stroke-opacity:1"
       d="m 9.0828948,20.679685 h -2.373844 v 1.25 h 4.5106642 v -4.51066 H 9.9697148 v 2.37384 a 8.0424897,8.0424897 0 1 1 5.1681122,1.8801 l 3e-6,1.25024 a 9.2924896,9.2924896 0 1 0 -6.0549332,-2.24324"
       id="Sketch004_w0001"
       inkscape:connector-curvature="0" />
  </g>
</svg>
