%TF.GenerationSoftware,KiCad,Pcbnew,5.1.12-84ad8e8a86~92~ubuntu20.04.1*%
%TF.CreationDate,2021-12-07T00:18:18-06:00*%
%TF.ProjectId,portboard_ffc,706f7274-626f-4617-9264-5f6666632e6b,rev?*%
%TF.SameCoordinates,Original*%
%TF.FileFunction,Copper,L1,Top*%
%TF.FilePolarity,Positive*%
%FSLAX46Y46*%
G04 Gerber Fmt 4.6, Leading zero omitted, Abs format (unit mm)*
G04 Created by KiCad (PCBNEW 5.1.12-84ad8e8a86~92~ubuntu20.04.1) date 2021-12-07 00:18:18*
%MOMM*%
%LPD*%
G01*
G04 APERTURE LIST*
%TA.AperFunction,SMDPad,CuDef*%
%ADD10R,0.300000X1.300000*%
%TD*%
%TA.AperFunction,SMDPad,CuDef*%
%ADD11R,1.800000X2.200000*%
%TD*%
%TA.AperFunction,ComponentPad*%
%ADD12C,1.422400*%
%TD*%
%TA.AperFunction,ComponentPad*%
%ADD13R,1.422400X1.422400*%
%TD*%
%TA.AperFunction,ComponentPad*%
%ADD14C,3.500000*%
%TD*%
%TA.AperFunction,ComponentPad*%
%ADD15C,6.400000*%
%TD*%
%TA.AperFunction,ViaPad*%
%ADD16C,0.800000*%
%TD*%
%TA.AperFunction,Conductor*%
%ADD17C,0.250000*%
%TD*%
%TA.AperFunction,Conductor*%
%ADD18C,0.254000*%
%TD*%
%TA.AperFunction,Conductor*%
%ADD19C,0.150000*%
%TD*%
G04 APERTURE END LIST*
D10*
%TO.P,J1,12*%
%TO.N,+5V*%
X69806000Y-44886000D03*
%TO.P,J1,11*%
%TO.N,/HSKo*%
X69306000Y-44886000D03*
%TO.P,J1,10*%
%TO.N,/HSKi*%
X68806000Y-44886000D03*
%TO.P,J1,9*%
%TO.N,GND*%
X68306000Y-44886000D03*
%TO.P,J1,8*%
%TO.N,/GPi*%
X67806000Y-44886000D03*
%TO.P,J1,7*%
%TO.N,GND*%
X67306000Y-44886000D03*
%TO.P,J1,6*%
%TO.N,/TXD-*%
X66806000Y-44886000D03*
%TO.P,J1,5*%
%TO.N,/TXD+*%
X66306000Y-44886000D03*
%TO.P,J1,4*%
%TO.N,GND*%
X65806000Y-44886000D03*
%TO.P,J1,3*%
%TO.N,/RXD-*%
X65306000Y-44886000D03*
%TO.P,J1,2*%
%TO.N,/RXD+*%
X64806000Y-44886000D03*
%TO.P,J1,1*%
%TO.N,GND*%
X64306000Y-44886000D03*
D11*
%TO.P,J1,MP*%
%TO.N,N/C*%
X62406000Y-48136000D03*
X71706000Y-48136000D03*
%TD*%
D12*
%TO.P,J2,7*%
%TO.N,/GPi*%
X67829000Y-41053000D03*
%TO.P,J2,4*%
%TO.N,GND*%
X65629000Y-41053000D03*
%TO.P,J2,6*%
%TO.N,/TXD+*%
X63529000Y-41053000D03*
%TO.P,J2,8*%
%TO.N,/RXD+*%
X70329000Y-41053000D03*
%TO.P,J2,5*%
%TO.N,/RXD-*%
X70329000Y-38553000D03*
%TO.P,J2,3*%
%TO.N,/TXD-*%
X63529000Y-38553000D03*
D13*
%TO.P,J2,1*%
%TO.N,/HSKo*%
X65629000Y-38553000D03*
D12*
%TO.P,J2,2*%
%TO.N,/HSKi*%
X68229000Y-38553000D03*
D14*
%TO.P,J2,SH2*%
%TO.N,N/C*%
X66929000Y-34753000D03*
%TO.P,J2,SH3*%
X60179000Y-35553000D03*
%TO.P,J2,SH1*%
X73679000Y-35553000D03*
%TD*%
D15*
%TO.P,H2,1*%
%TO.N,N/C*%
X77724000Y-39624000D03*
%TD*%
%TO.P,H1,1*%
%TO.N,N/C*%
X56134000Y-39624000D03*
%TD*%
D16*
%TO.N,/HSKi*%
X68580000Y-42799000D03*
%TO.N,/RXD+*%
X69659500Y-47942500D03*
%TD*%
D17*
%TO.N,/GPi*%
X67806000Y-41076000D02*
X67829000Y-41053000D01*
X67806000Y-44886000D02*
X67806000Y-41076000D01*
%TO.N,/HSKo*%
X66467211Y-38553000D02*
X65629000Y-38553000D01*
X67601711Y-39687500D02*
X66467211Y-38553000D01*
X69024500Y-40640000D02*
X68072000Y-39687500D01*
X68072000Y-39687500D02*
X67601711Y-39687500D01*
X69024500Y-41465500D02*
X69024500Y-40640000D01*
X69306000Y-41747000D02*
X69024500Y-41465500D01*
X69306000Y-44886000D02*
X69306000Y-41747000D01*
%TO.N,/HSKi*%
X68806000Y-43025000D02*
X68806000Y-44886000D01*
X68580000Y-42799000D02*
X68806000Y-43025000D01*
%TO.N,/RXD-*%
X71628000Y-39852000D02*
X70329000Y-38553000D01*
X71628000Y-45085000D02*
X71628000Y-39852000D01*
X69532500Y-47180500D02*
X71628000Y-45085000D01*
X65659000Y-47180500D02*
X69532500Y-47180500D01*
X65306000Y-46827500D02*
X65659000Y-47180500D01*
X65306000Y-44886000D02*
X65306000Y-46827500D01*
%TO.N,/RXD+*%
X65722500Y-47942500D02*
X69659500Y-47942500D01*
X64806000Y-47026000D02*
X65722500Y-47942500D01*
X64806000Y-44886000D02*
X64806000Y-47026000D01*
%TO.N,/TXD-*%
X66807509Y-42739598D02*
X66289900Y-42221989D01*
X66806000Y-44886000D02*
X66807509Y-44884491D01*
X66807509Y-44884491D02*
X66807509Y-42739598D01*
X66289900Y-42221989D02*
X65273900Y-42221989D01*
X65273900Y-42221989D02*
X64565201Y-41513290D01*
X64565201Y-41513290D02*
X64565201Y-39589201D01*
X64565201Y-39589201D02*
X63529000Y-38553000D01*
%TO.N,/TXD+*%
X63529000Y-41053000D02*
X63529000Y-41367500D01*
X63529000Y-41367500D02*
X64960500Y-42799000D01*
X64960500Y-42799000D02*
X66103500Y-42799000D01*
X66306000Y-43001500D02*
X66306000Y-44886000D01*
X66103500Y-42799000D02*
X66306000Y-43001500D01*
%TO.N,GND*%
X67306000Y-44886000D02*
X67306000Y-42287000D01*
X66072000Y-41053000D02*
X65629000Y-41053000D01*
X67306000Y-42287000D02*
X66072000Y-41053000D01*
X64306000Y-44886000D02*
X64306000Y-43644000D01*
X64306000Y-43644000D02*
X64452500Y-43497500D01*
X64452500Y-43497500D02*
X65659000Y-43497500D01*
X65806000Y-43644500D02*
X65806000Y-44886000D01*
X65659000Y-43497500D02*
X65806000Y-43644500D01*
X65806000Y-44886000D02*
X65806000Y-46184500D01*
X65806000Y-46184500D02*
X65913000Y-46291500D01*
X65913000Y-46291500D02*
X67373500Y-46291500D01*
X67306000Y-46224000D02*
X67306000Y-44886000D01*
X67373500Y-46291500D02*
X67306000Y-46224000D01*
X67373500Y-46291500D02*
X68135500Y-46291500D01*
X68306000Y-46121000D02*
X68306000Y-44886000D01*
X68135500Y-46291500D02*
X68306000Y-46121000D01*
%TD*%
D18*
%TO.N,GND*%
X75032001Y-33588631D02*
X74808721Y-33439440D01*
X74374679Y-33259654D01*
X73913902Y-33168000D01*
X73444098Y-33168000D01*
X72983321Y-33259654D01*
X72549279Y-33439440D01*
X72158651Y-33700450D01*
X71826450Y-34032651D01*
X71565440Y-34423279D01*
X71385654Y-34857321D01*
X71294000Y-35318098D01*
X71294000Y-35787902D01*
X71385654Y-36248679D01*
X71565440Y-36682721D01*
X71826450Y-37073349D01*
X72158651Y-37405550D01*
X72549279Y-37666560D01*
X72983321Y-37846346D01*
X73444098Y-37938000D01*
X73913902Y-37938000D01*
X74303489Y-37860507D01*
X74036377Y-38505372D01*
X73889000Y-39246285D01*
X73889000Y-40001715D01*
X74036377Y-40742628D01*
X74325467Y-41440554D01*
X74745161Y-42068670D01*
X75279330Y-42602839D01*
X75464384Y-42726488D01*
X75394575Y-42811550D01*
X75333290Y-42926207D01*
X75295550Y-43050617D01*
X75282807Y-43180000D01*
X75286000Y-43212418D01*
X75286001Y-50902000D01*
X58826000Y-50902000D01*
X58826000Y-47036000D01*
X60867928Y-47036000D01*
X60867928Y-49236000D01*
X60880188Y-49360482D01*
X60916498Y-49480180D01*
X60975463Y-49590494D01*
X61054815Y-49687185D01*
X61151506Y-49766537D01*
X61261820Y-49825502D01*
X61381518Y-49861812D01*
X61506000Y-49874072D01*
X63306000Y-49874072D01*
X63430482Y-49861812D01*
X63550180Y-49825502D01*
X63660494Y-49766537D01*
X63757185Y-49687185D01*
X63836537Y-49590494D01*
X63895502Y-49480180D01*
X63931812Y-49360482D01*
X63944072Y-49236000D01*
X63944072Y-47036000D01*
X63931812Y-46911518D01*
X63895502Y-46791820D01*
X63836537Y-46681506D01*
X63757185Y-46584815D01*
X63660494Y-46505463D01*
X63550180Y-46446498D01*
X63430482Y-46410188D01*
X63306000Y-46397928D01*
X61506000Y-46397928D01*
X61381518Y-46410188D01*
X61261820Y-46446498D01*
X61151506Y-46505463D01*
X61054815Y-46584815D01*
X60975463Y-46681506D01*
X60916498Y-46791820D01*
X60880188Y-46911518D01*
X60867928Y-47036000D01*
X58826000Y-47036000D01*
X58826000Y-43212418D01*
X58829193Y-43180000D01*
X58816450Y-43050617D01*
X58778710Y-42926207D01*
X58717425Y-42811550D01*
X58634948Y-42711052D01*
X58537010Y-42630676D01*
X58578670Y-42602839D01*
X59112839Y-42068670D01*
X59532533Y-41440554D01*
X59821623Y-40742628D01*
X59969000Y-40001715D01*
X59969000Y-39246285D01*
X59821623Y-38505372D01*
X59786431Y-38420411D01*
X62182800Y-38420411D01*
X62182800Y-38685589D01*
X62234533Y-38945672D01*
X62336013Y-39190665D01*
X62483338Y-39411153D01*
X62670847Y-39598662D01*
X62891335Y-39745987D01*
X63028976Y-39803000D01*
X62891335Y-39860013D01*
X62670847Y-40007338D01*
X62483338Y-40194847D01*
X62336013Y-40415335D01*
X62234533Y-40660328D01*
X62182800Y-40920411D01*
X62182800Y-41185589D01*
X62234533Y-41445672D01*
X62336013Y-41690665D01*
X62483338Y-41911153D01*
X62670847Y-42098662D01*
X62891335Y-42245987D01*
X63136328Y-42347467D01*
X63396411Y-42399200D01*
X63485899Y-42399200D01*
X64396700Y-43310002D01*
X64420499Y-43339001D01*
X64536224Y-43433974D01*
X64668253Y-43504546D01*
X64811514Y-43548003D01*
X64923167Y-43559000D01*
X64923175Y-43559000D01*
X64960500Y-43562676D01*
X64997825Y-43559000D01*
X65546000Y-43559000D01*
X65546000Y-43606792D01*
X65456000Y-43597928D01*
X65156000Y-43597928D01*
X65056000Y-43607777D01*
X64956000Y-43597928D01*
X64656000Y-43597928D01*
X64552535Y-43608118D01*
X64487750Y-43601000D01*
X64455503Y-43633247D01*
X64411820Y-43646498D01*
X64301506Y-43705463D01*
X64261525Y-43738275D01*
X64124250Y-43601000D01*
X64021268Y-43612315D01*
X63902182Y-43650584D01*
X63792850Y-43711350D01*
X63697474Y-43792278D01*
X63619718Y-43890258D01*
X63562572Y-44001525D01*
X63528230Y-44121802D01*
X63518014Y-44246468D01*
X63521000Y-44600250D01*
X63679750Y-44759000D01*
X64017928Y-44759000D01*
X64017928Y-45013000D01*
X63679750Y-45013000D01*
X63521000Y-45171750D01*
X63518014Y-45525532D01*
X63528230Y-45650198D01*
X63562572Y-45770475D01*
X63619718Y-45881742D01*
X63697474Y-45979722D01*
X63792850Y-46060650D01*
X63902182Y-46121416D01*
X64021268Y-46159685D01*
X64046001Y-46162402D01*
X64046001Y-46988668D01*
X64042324Y-47026000D01*
X64046001Y-47063333D01*
X64056998Y-47174986D01*
X64062613Y-47193497D01*
X64100454Y-47318246D01*
X64171026Y-47450276D01*
X64242201Y-47537002D01*
X64266000Y-47566001D01*
X64294998Y-47589799D01*
X65158701Y-48453503D01*
X65182499Y-48482501D01*
X65298224Y-48577474D01*
X65430253Y-48648046D01*
X65573514Y-48691503D01*
X65685167Y-48702500D01*
X65685175Y-48702500D01*
X65722500Y-48706176D01*
X65759825Y-48702500D01*
X68955789Y-48702500D01*
X68999726Y-48746437D01*
X69169244Y-48859705D01*
X69357602Y-48937726D01*
X69557561Y-48977500D01*
X69761439Y-48977500D01*
X69961398Y-48937726D01*
X70149756Y-48859705D01*
X70167928Y-48847563D01*
X70167928Y-49236000D01*
X70180188Y-49360482D01*
X70216498Y-49480180D01*
X70275463Y-49590494D01*
X70354815Y-49687185D01*
X70451506Y-49766537D01*
X70561820Y-49825502D01*
X70681518Y-49861812D01*
X70806000Y-49874072D01*
X72606000Y-49874072D01*
X72730482Y-49861812D01*
X72850180Y-49825502D01*
X72960494Y-49766537D01*
X73057185Y-49687185D01*
X73136537Y-49590494D01*
X73195502Y-49480180D01*
X73231812Y-49360482D01*
X73244072Y-49236000D01*
X73244072Y-47036000D01*
X73231812Y-46911518D01*
X73195502Y-46791820D01*
X73136537Y-46681506D01*
X73057185Y-46584815D01*
X72960494Y-46505463D01*
X72850180Y-46446498D01*
X72730482Y-46410188D01*
X72606000Y-46397928D01*
X71389874Y-46397928D01*
X72139004Y-45648798D01*
X72168001Y-45625001D01*
X72262974Y-45509276D01*
X72333546Y-45377247D01*
X72377003Y-45233986D01*
X72388000Y-45122333D01*
X72388000Y-45122332D01*
X72391677Y-45085000D01*
X72388000Y-45047667D01*
X72388000Y-39889322D01*
X72391676Y-39851999D01*
X72388000Y-39814676D01*
X72388000Y-39814667D01*
X72377003Y-39703014D01*
X72333546Y-39559753D01*
X72262974Y-39427724D01*
X72230933Y-39388682D01*
X72191799Y-39340996D01*
X72191795Y-39340992D01*
X72168001Y-39311999D01*
X72139008Y-39288205D01*
X71652170Y-38801368D01*
X71675200Y-38685589D01*
X71675200Y-38420411D01*
X71623467Y-38160328D01*
X71521987Y-37915335D01*
X71374662Y-37694847D01*
X71187153Y-37507338D01*
X70966665Y-37360013D01*
X70721672Y-37258533D01*
X70461589Y-37206800D01*
X70196411Y-37206800D01*
X69936328Y-37258533D01*
X69691335Y-37360013D01*
X69470847Y-37507338D01*
X69283338Y-37694847D01*
X69279000Y-37701339D01*
X69274662Y-37694847D01*
X69087153Y-37507338D01*
X68866665Y-37360013D01*
X68621672Y-37258533D01*
X68361589Y-37206800D01*
X68096411Y-37206800D01*
X67836328Y-37258533D01*
X67591335Y-37360013D01*
X67370847Y-37507338D01*
X67183338Y-37694847D01*
X67036013Y-37915335D01*
X66998515Y-38005862D01*
X66978272Y-37989249D01*
X66978272Y-37841800D01*
X66966012Y-37717318D01*
X66929702Y-37597620D01*
X66870737Y-37487306D01*
X66791385Y-37390615D01*
X66694694Y-37311263D01*
X66584380Y-37252298D01*
X66464682Y-37215988D01*
X66340200Y-37203728D01*
X64917800Y-37203728D01*
X64793318Y-37215988D01*
X64673620Y-37252298D01*
X64563306Y-37311263D01*
X64466615Y-37390615D01*
X64387263Y-37487306D01*
X64379344Y-37502120D01*
X64166665Y-37360013D01*
X63921672Y-37258533D01*
X63661589Y-37206800D01*
X63396411Y-37206800D01*
X63136328Y-37258533D01*
X62891335Y-37360013D01*
X62670847Y-37507338D01*
X62483338Y-37694847D01*
X62336013Y-37915335D01*
X62234533Y-38160328D01*
X62182800Y-38420411D01*
X59786431Y-38420411D01*
X59554511Y-37860507D01*
X59944098Y-37938000D01*
X60413902Y-37938000D01*
X60874679Y-37846346D01*
X61308721Y-37666560D01*
X61699349Y-37405550D01*
X62031550Y-37073349D01*
X62292560Y-36682721D01*
X62472346Y-36248679D01*
X62564000Y-35787902D01*
X62564000Y-35318098D01*
X62472346Y-34857321D01*
X62331836Y-34518098D01*
X64544000Y-34518098D01*
X64544000Y-34987902D01*
X64635654Y-35448679D01*
X64815440Y-35882721D01*
X65076450Y-36273349D01*
X65408651Y-36605550D01*
X65799279Y-36866560D01*
X66233321Y-37046346D01*
X66694098Y-37138000D01*
X67163902Y-37138000D01*
X67624679Y-37046346D01*
X68058721Y-36866560D01*
X68449349Y-36605550D01*
X68781550Y-36273349D01*
X69042560Y-35882721D01*
X69222346Y-35448679D01*
X69314000Y-34987902D01*
X69314000Y-34518098D01*
X69222346Y-34057321D01*
X69042560Y-33623279D01*
X68781550Y-33232651D01*
X68449349Y-32900450D01*
X68058721Y-32639440D01*
X67624679Y-32459654D01*
X67163902Y-32368000D01*
X66694098Y-32368000D01*
X66233321Y-32459654D01*
X65799279Y-32639440D01*
X65408651Y-32900450D01*
X65076450Y-33232651D01*
X64815440Y-33623279D01*
X64635654Y-34057321D01*
X64544000Y-34518098D01*
X62331836Y-34518098D01*
X62292560Y-34423279D01*
X62031550Y-34032651D01*
X61699349Y-33700450D01*
X61308721Y-33439440D01*
X60874679Y-33259654D01*
X60413902Y-33168000D01*
X59944098Y-33168000D01*
X59483321Y-33259654D01*
X59049279Y-33439440D01*
X58826000Y-33588631D01*
X58826000Y-30822500D01*
X75032000Y-30822500D01*
X75032001Y-33588631D01*
%TA.AperFunction,Conductor*%
D19*
G36*
X75032001Y-33588631D02*
G01*
X74808721Y-33439440D01*
X74374679Y-33259654D01*
X73913902Y-33168000D01*
X73444098Y-33168000D01*
X72983321Y-33259654D01*
X72549279Y-33439440D01*
X72158651Y-33700450D01*
X71826450Y-34032651D01*
X71565440Y-34423279D01*
X71385654Y-34857321D01*
X71294000Y-35318098D01*
X71294000Y-35787902D01*
X71385654Y-36248679D01*
X71565440Y-36682721D01*
X71826450Y-37073349D01*
X72158651Y-37405550D01*
X72549279Y-37666560D01*
X72983321Y-37846346D01*
X73444098Y-37938000D01*
X73913902Y-37938000D01*
X74303489Y-37860507D01*
X74036377Y-38505372D01*
X73889000Y-39246285D01*
X73889000Y-40001715D01*
X74036377Y-40742628D01*
X74325467Y-41440554D01*
X74745161Y-42068670D01*
X75279330Y-42602839D01*
X75464384Y-42726488D01*
X75394575Y-42811550D01*
X75333290Y-42926207D01*
X75295550Y-43050617D01*
X75282807Y-43180000D01*
X75286000Y-43212418D01*
X75286001Y-50902000D01*
X58826000Y-50902000D01*
X58826000Y-47036000D01*
X60867928Y-47036000D01*
X60867928Y-49236000D01*
X60880188Y-49360482D01*
X60916498Y-49480180D01*
X60975463Y-49590494D01*
X61054815Y-49687185D01*
X61151506Y-49766537D01*
X61261820Y-49825502D01*
X61381518Y-49861812D01*
X61506000Y-49874072D01*
X63306000Y-49874072D01*
X63430482Y-49861812D01*
X63550180Y-49825502D01*
X63660494Y-49766537D01*
X63757185Y-49687185D01*
X63836537Y-49590494D01*
X63895502Y-49480180D01*
X63931812Y-49360482D01*
X63944072Y-49236000D01*
X63944072Y-47036000D01*
X63931812Y-46911518D01*
X63895502Y-46791820D01*
X63836537Y-46681506D01*
X63757185Y-46584815D01*
X63660494Y-46505463D01*
X63550180Y-46446498D01*
X63430482Y-46410188D01*
X63306000Y-46397928D01*
X61506000Y-46397928D01*
X61381518Y-46410188D01*
X61261820Y-46446498D01*
X61151506Y-46505463D01*
X61054815Y-46584815D01*
X60975463Y-46681506D01*
X60916498Y-46791820D01*
X60880188Y-46911518D01*
X60867928Y-47036000D01*
X58826000Y-47036000D01*
X58826000Y-43212418D01*
X58829193Y-43180000D01*
X58816450Y-43050617D01*
X58778710Y-42926207D01*
X58717425Y-42811550D01*
X58634948Y-42711052D01*
X58537010Y-42630676D01*
X58578670Y-42602839D01*
X59112839Y-42068670D01*
X59532533Y-41440554D01*
X59821623Y-40742628D01*
X59969000Y-40001715D01*
X59969000Y-39246285D01*
X59821623Y-38505372D01*
X59786431Y-38420411D01*
X62182800Y-38420411D01*
X62182800Y-38685589D01*
X62234533Y-38945672D01*
X62336013Y-39190665D01*
X62483338Y-39411153D01*
X62670847Y-39598662D01*
X62891335Y-39745987D01*
X63028976Y-39803000D01*
X62891335Y-39860013D01*
X62670847Y-40007338D01*
X62483338Y-40194847D01*
X62336013Y-40415335D01*
X62234533Y-40660328D01*
X62182800Y-40920411D01*
X62182800Y-41185589D01*
X62234533Y-41445672D01*
X62336013Y-41690665D01*
X62483338Y-41911153D01*
X62670847Y-42098662D01*
X62891335Y-42245987D01*
X63136328Y-42347467D01*
X63396411Y-42399200D01*
X63485899Y-42399200D01*
X64396700Y-43310002D01*
X64420499Y-43339001D01*
X64536224Y-43433974D01*
X64668253Y-43504546D01*
X64811514Y-43548003D01*
X64923167Y-43559000D01*
X64923175Y-43559000D01*
X64960500Y-43562676D01*
X64997825Y-43559000D01*
X65546000Y-43559000D01*
X65546000Y-43606792D01*
X65456000Y-43597928D01*
X65156000Y-43597928D01*
X65056000Y-43607777D01*
X64956000Y-43597928D01*
X64656000Y-43597928D01*
X64552535Y-43608118D01*
X64487750Y-43601000D01*
X64455503Y-43633247D01*
X64411820Y-43646498D01*
X64301506Y-43705463D01*
X64261525Y-43738275D01*
X64124250Y-43601000D01*
X64021268Y-43612315D01*
X63902182Y-43650584D01*
X63792850Y-43711350D01*
X63697474Y-43792278D01*
X63619718Y-43890258D01*
X63562572Y-44001525D01*
X63528230Y-44121802D01*
X63518014Y-44246468D01*
X63521000Y-44600250D01*
X63679750Y-44759000D01*
X64017928Y-44759000D01*
X64017928Y-45013000D01*
X63679750Y-45013000D01*
X63521000Y-45171750D01*
X63518014Y-45525532D01*
X63528230Y-45650198D01*
X63562572Y-45770475D01*
X63619718Y-45881742D01*
X63697474Y-45979722D01*
X63792850Y-46060650D01*
X63902182Y-46121416D01*
X64021268Y-46159685D01*
X64046001Y-46162402D01*
X64046001Y-46988668D01*
X64042324Y-47026000D01*
X64046001Y-47063333D01*
X64056998Y-47174986D01*
X64062613Y-47193497D01*
X64100454Y-47318246D01*
X64171026Y-47450276D01*
X64242201Y-47537002D01*
X64266000Y-47566001D01*
X64294998Y-47589799D01*
X65158701Y-48453503D01*
X65182499Y-48482501D01*
X65298224Y-48577474D01*
X65430253Y-48648046D01*
X65573514Y-48691503D01*
X65685167Y-48702500D01*
X65685175Y-48702500D01*
X65722500Y-48706176D01*
X65759825Y-48702500D01*
X68955789Y-48702500D01*
X68999726Y-48746437D01*
X69169244Y-48859705D01*
X69357602Y-48937726D01*
X69557561Y-48977500D01*
X69761439Y-48977500D01*
X69961398Y-48937726D01*
X70149756Y-48859705D01*
X70167928Y-48847563D01*
X70167928Y-49236000D01*
X70180188Y-49360482D01*
X70216498Y-49480180D01*
X70275463Y-49590494D01*
X70354815Y-49687185D01*
X70451506Y-49766537D01*
X70561820Y-49825502D01*
X70681518Y-49861812D01*
X70806000Y-49874072D01*
X72606000Y-49874072D01*
X72730482Y-49861812D01*
X72850180Y-49825502D01*
X72960494Y-49766537D01*
X73057185Y-49687185D01*
X73136537Y-49590494D01*
X73195502Y-49480180D01*
X73231812Y-49360482D01*
X73244072Y-49236000D01*
X73244072Y-47036000D01*
X73231812Y-46911518D01*
X73195502Y-46791820D01*
X73136537Y-46681506D01*
X73057185Y-46584815D01*
X72960494Y-46505463D01*
X72850180Y-46446498D01*
X72730482Y-46410188D01*
X72606000Y-46397928D01*
X71389874Y-46397928D01*
X72139004Y-45648798D01*
X72168001Y-45625001D01*
X72262974Y-45509276D01*
X72333546Y-45377247D01*
X72377003Y-45233986D01*
X72388000Y-45122333D01*
X72388000Y-45122332D01*
X72391677Y-45085000D01*
X72388000Y-45047667D01*
X72388000Y-39889322D01*
X72391676Y-39851999D01*
X72388000Y-39814676D01*
X72388000Y-39814667D01*
X72377003Y-39703014D01*
X72333546Y-39559753D01*
X72262974Y-39427724D01*
X72230933Y-39388682D01*
X72191799Y-39340996D01*
X72191795Y-39340992D01*
X72168001Y-39311999D01*
X72139008Y-39288205D01*
X71652170Y-38801368D01*
X71675200Y-38685589D01*
X71675200Y-38420411D01*
X71623467Y-38160328D01*
X71521987Y-37915335D01*
X71374662Y-37694847D01*
X71187153Y-37507338D01*
X70966665Y-37360013D01*
X70721672Y-37258533D01*
X70461589Y-37206800D01*
X70196411Y-37206800D01*
X69936328Y-37258533D01*
X69691335Y-37360013D01*
X69470847Y-37507338D01*
X69283338Y-37694847D01*
X69279000Y-37701339D01*
X69274662Y-37694847D01*
X69087153Y-37507338D01*
X68866665Y-37360013D01*
X68621672Y-37258533D01*
X68361589Y-37206800D01*
X68096411Y-37206800D01*
X67836328Y-37258533D01*
X67591335Y-37360013D01*
X67370847Y-37507338D01*
X67183338Y-37694847D01*
X67036013Y-37915335D01*
X66998515Y-38005862D01*
X66978272Y-37989249D01*
X66978272Y-37841800D01*
X66966012Y-37717318D01*
X66929702Y-37597620D01*
X66870737Y-37487306D01*
X66791385Y-37390615D01*
X66694694Y-37311263D01*
X66584380Y-37252298D01*
X66464682Y-37215988D01*
X66340200Y-37203728D01*
X64917800Y-37203728D01*
X64793318Y-37215988D01*
X64673620Y-37252298D01*
X64563306Y-37311263D01*
X64466615Y-37390615D01*
X64387263Y-37487306D01*
X64379344Y-37502120D01*
X64166665Y-37360013D01*
X63921672Y-37258533D01*
X63661589Y-37206800D01*
X63396411Y-37206800D01*
X63136328Y-37258533D01*
X62891335Y-37360013D01*
X62670847Y-37507338D01*
X62483338Y-37694847D01*
X62336013Y-37915335D01*
X62234533Y-38160328D01*
X62182800Y-38420411D01*
X59786431Y-38420411D01*
X59554511Y-37860507D01*
X59944098Y-37938000D01*
X60413902Y-37938000D01*
X60874679Y-37846346D01*
X61308721Y-37666560D01*
X61699349Y-37405550D01*
X62031550Y-37073349D01*
X62292560Y-36682721D01*
X62472346Y-36248679D01*
X62564000Y-35787902D01*
X62564000Y-35318098D01*
X62472346Y-34857321D01*
X62331836Y-34518098D01*
X64544000Y-34518098D01*
X64544000Y-34987902D01*
X64635654Y-35448679D01*
X64815440Y-35882721D01*
X65076450Y-36273349D01*
X65408651Y-36605550D01*
X65799279Y-36866560D01*
X66233321Y-37046346D01*
X66694098Y-37138000D01*
X67163902Y-37138000D01*
X67624679Y-37046346D01*
X68058721Y-36866560D01*
X68449349Y-36605550D01*
X68781550Y-36273349D01*
X69042560Y-35882721D01*
X69222346Y-35448679D01*
X69314000Y-34987902D01*
X69314000Y-34518098D01*
X69222346Y-34057321D01*
X69042560Y-33623279D01*
X68781550Y-33232651D01*
X68449349Y-32900450D01*
X68058721Y-32639440D01*
X67624679Y-32459654D01*
X67163902Y-32368000D01*
X66694098Y-32368000D01*
X66233321Y-32459654D01*
X65799279Y-32639440D01*
X65408651Y-32900450D01*
X65076450Y-33232651D01*
X64815440Y-33623279D01*
X64635654Y-34057321D01*
X64544000Y-34518098D01*
X62331836Y-34518098D01*
X62292560Y-34423279D01*
X62031550Y-34032651D01*
X61699349Y-33700450D01*
X61308721Y-33439440D01*
X60874679Y-33259654D01*
X60413902Y-33168000D01*
X59944098Y-33168000D01*
X59483321Y-33259654D01*
X59049279Y-33439440D01*
X58826000Y-33588631D01*
X58826000Y-30822500D01*
X75032000Y-30822500D01*
X75032001Y-33588631D01*
G37*
%TD.AperFunction*%
D18*
X68411820Y-46125502D02*
X68455503Y-46138753D01*
X68487750Y-46171000D01*
X68552535Y-46163882D01*
X68656000Y-46174072D01*
X68956000Y-46174072D01*
X69056000Y-46164223D01*
X69156000Y-46174072D01*
X69456000Y-46174072D01*
X69465015Y-46173184D01*
X69217699Y-46420500D01*
X66066000Y-46420500D01*
X66066000Y-46165208D01*
X66156000Y-46174072D01*
X66456000Y-46174072D01*
X66556000Y-46164223D01*
X66656000Y-46174072D01*
X66956000Y-46174072D01*
X67059465Y-46163882D01*
X67124250Y-46171000D01*
X67156497Y-46138753D01*
X67200180Y-46125502D01*
X67306000Y-46068939D01*
X67411820Y-46125502D01*
X67455503Y-46138753D01*
X67487750Y-46171000D01*
X67552535Y-46163882D01*
X67656000Y-46174072D01*
X67956000Y-46174072D01*
X68059465Y-46163882D01*
X68124250Y-46171000D01*
X68156497Y-46138753D01*
X68200180Y-46125502D01*
X68306000Y-46068939D01*
X68411820Y-46125502D01*
%TA.AperFunction,Conductor*%
D19*
G36*
X68411820Y-46125502D02*
G01*
X68455503Y-46138753D01*
X68487750Y-46171000D01*
X68552535Y-46163882D01*
X68656000Y-46174072D01*
X68956000Y-46174072D01*
X69056000Y-46164223D01*
X69156000Y-46174072D01*
X69456000Y-46174072D01*
X69465015Y-46173184D01*
X69217699Y-46420500D01*
X66066000Y-46420500D01*
X66066000Y-46165208D01*
X66156000Y-46174072D01*
X66456000Y-46174072D01*
X66556000Y-46164223D01*
X66656000Y-46174072D01*
X66956000Y-46174072D01*
X67059465Y-46163882D01*
X67124250Y-46171000D01*
X67156497Y-46138753D01*
X67200180Y-46125502D01*
X67306000Y-46068939D01*
X67411820Y-46125502D01*
X67455503Y-46138753D01*
X67487750Y-46171000D01*
X67552535Y-46163882D01*
X67656000Y-46174072D01*
X67956000Y-46174072D01*
X68059465Y-46163882D01*
X68124250Y-46171000D01*
X68156497Y-46138753D01*
X68200180Y-46125502D01*
X68306000Y-46068939D01*
X68411820Y-46125502D01*
G37*
%TD.AperFunction*%
D18*
X66908797Y-40069388D02*
X66783338Y-40194847D01*
X66688348Y-40337009D01*
X66558273Y-40303332D01*
X65808605Y-41053000D01*
X65822748Y-41067143D01*
X65643143Y-41246748D01*
X65629000Y-41232605D01*
X65614858Y-41246748D01*
X65435253Y-41067143D01*
X65449395Y-41053000D01*
X65435253Y-41038858D01*
X65614858Y-40859253D01*
X65629000Y-40873395D01*
X66378668Y-40123727D01*
X66321332Y-39902272D01*
X66340200Y-39902272D01*
X66464682Y-39890012D01*
X66584380Y-39853702D01*
X66655237Y-39815828D01*
X66908797Y-40069388D01*
%TA.AperFunction,Conductor*%
D19*
G36*
X66908797Y-40069388D02*
G01*
X66783338Y-40194847D01*
X66688348Y-40337009D01*
X66558273Y-40303332D01*
X65808605Y-41053000D01*
X65822748Y-41067143D01*
X65643143Y-41246748D01*
X65629000Y-41232605D01*
X65614858Y-41246748D01*
X65435253Y-41067143D01*
X65449395Y-41053000D01*
X65435253Y-41038858D01*
X65614858Y-40859253D01*
X65629000Y-40873395D01*
X66378668Y-40123727D01*
X66321332Y-39902272D01*
X66340200Y-39902272D01*
X66464682Y-39890012D01*
X66584380Y-39853702D01*
X66655237Y-39815828D01*
X66908797Y-40069388D01*
G37*
%TD.AperFunction*%
%TD*%
M02*
