%TF.GenerationSoftware,KiCad,Pcbnew,5.1.12-84ad8e8a86~92~ubuntu20.04.1*%
%TF.CreationDate,2021-12-07T00:18:18-06:00*%
%TF.ProjectId,portboard_ffc,706f7274-626f-4617-9264-5f6666632e6b,rev?*%
%TF.SameCoordinates,Original*%
%TF.FileFunction,Legend,Bot*%
%TF.FilePolarity,Positive*%
%FSLAX46Y46*%
G04 Gerber Fmt 4.6, Leading zero omitted, Abs format (unit mm)*
G04 Created by KiCad (PCBNEW 5.1.12-84ad8e8a86~92~ubuntu20.04.1) date 2021-12-07 00:18:18*
%MOMM*%
%LPD*%
G01*
G04 APERTURE LIST*
%ADD10C,0.150000*%
G04 APERTURE END LIST*
D10*
X71849619Y-44108666D02*
X71373428Y-44108666D01*
X71944857Y-44394380D02*
X71611523Y-43394380D01*
X71278190Y-44394380D01*
X70468666Y-44394380D02*
X70944857Y-44394380D01*
X70944857Y-43394380D01*
X69611523Y-44394380D02*
X70182952Y-44394380D01*
X69897238Y-44394380D02*
X69897238Y-43394380D01*
X69992476Y-43537238D01*
X70087714Y-43632476D01*
X70182952Y-43680095D01*
X68992476Y-43394380D02*
X68897238Y-43394380D01*
X68802000Y-43442000D01*
X68754380Y-43489619D01*
X68706761Y-43584857D01*
X68659142Y-43775333D01*
X68659142Y-44013428D01*
X68706761Y-44203904D01*
X68754380Y-44299142D01*
X68802000Y-44346761D01*
X68897238Y-44394380D01*
X68992476Y-44394380D01*
X69087714Y-44346761D01*
X69135333Y-44299142D01*
X69182952Y-44203904D01*
X69230571Y-44013428D01*
X69230571Y-43775333D01*
X69182952Y-43584857D01*
X69135333Y-43489619D01*
X69087714Y-43442000D01*
X68992476Y-43394380D01*
X67706761Y-44394380D02*
X68278190Y-44394380D01*
X67992476Y-44394380D02*
X67992476Y-43394380D01*
X68087714Y-43537238D01*
X68182952Y-43632476D01*
X68278190Y-43680095D01*
X67230571Y-44394380D02*
X67040095Y-44394380D01*
X66944857Y-44346761D01*
X66897238Y-44299142D01*
X66802000Y-44156285D01*
X66754380Y-43965809D01*
X66754380Y-43584857D01*
X66802000Y-43489619D01*
X66849619Y-43442000D01*
X66944857Y-43394380D01*
X67135333Y-43394380D01*
X67230571Y-43442000D01*
X67278190Y-43489619D01*
X67325809Y-43584857D01*
X67325809Y-43822952D01*
X67278190Y-43918190D01*
X67230571Y-43965809D01*
X67135333Y-44013428D01*
X66944857Y-44013428D01*
X66849619Y-43965809D01*
X66802000Y-43918190D01*
X66754380Y-43822952D01*
X64992476Y-44394380D02*
X65325809Y-43918190D01*
X65563904Y-44394380D02*
X65563904Y-43394380D01*
X65182952Y-43394380D01*
X65087714Y-43442000D01*
X65040095Y-43489619D01*
X64992476Y-43584857D01*
X64992476Y-43727714D01*
X65040095Y-43822952D01*
X65087714Y-43870571D01*
X65182952Y-43918190D01*
X65563904Y-43918190D01*
X64182952Y-44346761D02*
X64278190Y-44394380D01*
X64468666Y-44394380D01*
X64563904Y-44346761D01*
X64611523Y-44251523D01*
X64611523Y-43870571D01*
X64563904Y-43775333D01*
X64468666Y-43727714D01*
X64278190Y-43727714D01*
X64182952Y-43775333D01*
X64135333Y-43870571D01*
X64135333Y-43965809D01*
X64611523Y-44061047D01*
X63802000Y-43727714D02*
X63563904Y-44394380D01*
X63325809Y-43727714D01*
X62230571Y-44108666D02*
X61754380Y-44108666D01*
X62325809Y-44394380D02*
X61992476Y-43394380D01*
X61659142Y-44394380D01*
M02*
