%TF.GenerationSoftware,KiCad,Pcbnew,5.1.12-84ad8e8a86~92~ubuntu20.04.1*%
%TF.CreationDate,2021-12-07T00:18:18-06:00*%
%TF.ProjectId,portboard_ffc,706f7274-626f-4617-9264-5f6666632e6b,rev?*%
%TF.SameCoordinates,Original*%
%TF.FileFunction,Copper,L2,Bot*%
%TF.FilePolarity,Positive*%
%FSLAX46Y46*%
G04 Gerber Fmt 4.6, Leading zero omitted, Abs format (unit mm)*
G04 Created by KiCad (PCBNEW 5.1.12-84ad8e8a86~92~ubuntu20.04.1) date 2021-12-07 00:18:18*
%MOMM*%
%LPD*%
G01*
G04 APERTURE LIST*
%TA.AperFunction,ComponentPad*%
%ADD10C,1.422400*%
%TD*%
%TA.AperFunction,ComponentPad*%
%ADD11R,1.422400X1.422400*%
%TD*%
%TA.AperFunction,ComponentPad*%
%ADD12C,3.500000*%
%TD*%
%TA.AperFunction,ComponentPad*%
%ADD13C,6.400000*%
%TD*%
%TA.AperFunction,ViaPad*%
%ADD14C,0.800000*%
%TD*%
%TA.AperFunction,Conductor*%
%ADD15C,0.250000*%
%TD*%
%TA.AperFunction,Conductor*%
%ADD16C,0.254000*%
%TD*%
%TA.AperFunction,Conductor*%
%ADD17C,0.150000*%
%TD*%
G04 APERTURE END LIST*
D10*
%TO.P,J2,7*%
%TO.N,/GPi*%
X67829000Y-41053000D03*
%TO.P,J2,4*%
%TO.N,GND*%
X65629000Y-41053000D03*
%TO.P,J2,6*%
%TO.N,/TXD+*%
X63529000Y-41053000D03*
%TO.P,J2,8*%
%TO.N,/RXD+*%
X70329000Y-41053000D03*
%TO.P,J2,5*%
%TO.N,/RXD-*%
X70329000Y-38553000D03*
%TO.P,J2,3*%
%TO.N,/TXD-*%
X63529000Y-38553000D03*
D11*
%TO.P,J2,1*%
%TO.N,/HSKo*%
X65629000Y-38553000D03*
D10*
%TO.P,J2,2*%
%TO.N,/HSKi*%
X68229000Y-38553000D03*
D12*
%TO.P,J2,SH2*%
%TO.N,N/C*%
X66929000Y-34753000D03*
%TO.P,J2,SH3*%
X60179000Y-35553000D03*
%TO.P,J2,SH1*%
X73679000Y-35553000D03*
%TD*%
D13*
%TO.P,H2,1*%
%TO.N,N/C*%
X77724000Y-39624000D03*
%TD*%
%TO.P,H1,1*%
%TO.N,N/C*%
X56134000Y-39624000D03*
%TD*%
D14*
%TO.N,/HSKi*%
X68580000Y-42799000D03*
%TO.N,/RXD+*%
X69659500Y-47942500D03*
%TD*%
D15*
%TO.N,/HSKi*%
X68940199Y-39264199D02*
X68940199Y-42438801D01*
X68229000Y-38553000D02*
X68940199Y-39264199D01*
X68940199Y-42438801D02*
X68580000Y-42799000D01*
%TO.N,/RXD+*%
X69659500Y-47942500D02*
X69659500Y-46990000D01*
X69659500Y-46990000D02*
X71628000Y-45021500D01*
X71628000Y-42352000D02*
X70329000Y-41053000D01*
X71628000Y-45021500D02*
X71628000Y-42352000D01*
%TD*%
D16*
%TO.N,GND*%
X75032001Y-33588631D02*
X74808721Y-33439440D01*
X74374679Y-33259654D01*
X73913902Y-33168000D01*
X73444098Y-33168000D01*
X72983321Y-33259654D01*
X72549279Y-33439440D01*
X72158651Y-33700450D01*
X71826450Y-34032651D01*
X71565440Y-34423279D01*
X71385654Y-34857321D01*
X71294000Y-35318098D01*
X71294000Y-35787902D01*
X71385654Y-36248679D01*
X71565440Y-36682721D01*
X71826450Y-37073349D01*
X72158651Y-37405550D01*
X72549279Y-37666560D01*
X72983321Y-37846346D01*
X73444098Y-37938000D01*
X73913902Y-37938000D01*
X74303489Y-37860507D01*
X74036377Y-38505372D01*
X73889000Y-39246285D01*
X73889000Y-40001715D01*
X74036377Y-40742628D01*
X74325467Y-41440554D01*
X74745161Y-42068670D01*
X75279330Y-42602839D01*
X75464384Y-42726488D01*
X75394575Y-42811550D01*
X75333290Y-42926207D01*
X75295550Y-43050617D01*
X75282807Y-43180000D01*
X75286000Y-43212418D01*
X75286001Y-50902000D01*
X58826000Y-50902000D01*
X58826000Y-43212418D01*
X58829193Y-43180000D01*
X58816450Y-43050617D01*
X58778710Y-42926207D01*
X58717425Y-42811550D01*
X58634948Y-42711052D01*
X58537010Y-42630676D01*
X58578670Y-42602839D01*
X59112839Y-42068670D01*
X59532533Y-41440554D01*
X59821623Y-40742628D01*
X59969000Y-40001715D01*
X59969000Y-39246285D01*
X59821623Y-38505372D01*
X59786431Y-38420411D01*
X62182800Y-38420411D01*
X62182800Y-38685589D01*
X62234533Y-38945672D01*
X62336013Y-39190665D01*
X62483338Y-39411153D01*
X62670847Y-39598662D01*
X62891335Y-39745987D01*
X63028976Y-39803000D01*
X62891335Y-39860013D01*
X62670847Y-40007338D01*
X62483338Y-40194847D01*
X62336013Y-40415335D01*
X62234533Y-40660328D01*
X62182800Y-40920411D01*
X62182800Y-41185589D01*
X62234533Y-41445672D01*
X62336013Y-41690665D01*
X62483338Y-41911153D01*
X62670847Y-42098662D01*
X62891335Y-42245987D01*
X63136328Y-42347467D01*
X63396411Y-42399200D01*
X63661589Y-42399200D01*
X63921672Y-42347467D01*
X64166665Y-42245987D01*
X64387153Y-42098662D01*
X64503542Y-41982273D01*
X64879332Y-41982273D01*
X64940152Y-42217183D01*
X65180509Y-42329202D01*
X65438102Y-42392176D01*
X65703030Y-42403687D01*
X65965113Y-42363291D01*
X66214280Y-42272542D01*
X66317848Y-42217183D01*
X66378668Y-41982273D01*
X65629000Y-41232605D01*
X64879332Y-41982273D01*
X64503542Y-41982273D01*
X64574662Y-41911153D01*
X64654903Y-41791063D01*
X64699727Y-41802668D01*
X65449395Y-41053000D01*
X64699727Y-40303332D01*
X64654903Y-40314937D01*
X64574662Y-40194847D01*
X64387153Y-40007338D01*
X64166665Y-39860013D01*
X64029024Y-39803000D01*
X64166665Y-39745987D01*
X64379344Y-39603880D01*
X64387263Y-39618694D01*
X64466615Y-39715385D01*
X64563306Y-39794737D01*
X64673620Y-39853702D01*
X64793318Y-39890012D01*
X64917800Y-39902272D01*
X64936668Y-39902272D01*
X64879332Y-40123727D01*
X65629000Y-40873395D01*
X66378668Y-40123727D01*
X66321332Y-39902272D01*
X66340200Y-39902272D01*
X66464682Y-39890012D01*
X66584380Y-39853702D01*
X66694694Y-39794737D01*
X66791385Y-39715385D01*
X66870737Y-39618694D01*
X66929702Y-39508380D01*
X66966012Y-39388682D01*
X66978272Y-39264200D01*
X66978272Y-39051267D01*
X67036013Y-39190665D01*
X67183338Y-39411153D01*
X67370847Y-39598662D01*
X67570246Y-39731896D01*
X67436328Y-39758533D01*
X67191335Y-39860013D01*
X66970847Y-40007338D01*
X66783338Y-40194847D01*
X66688348Y-40337009D01*
X66558273Y-40303332D01*
X65808605Y-41053000D01*
X66558273Y-41802668D01*
X66688348Y-41768991D01*
X66783338Y-41911153D01*
X66970847Y-42098662D01*
X67191335Y-42245987D01*
X67436328Y-42347467D01*
X67630738Y-42386137D01*
X67584774Y-42497102D01*
X67545000Y-42697061D01*
X67545000Y-42900939D01*
X67584774Y-43100898D01*
X67662795Y-43289256D01*
X67776063Y-43458774D01*
X67920226Y-43602937D01*
X68089744Y-43716205D01*
X68278102Y-43794226D01*
X68478061Y-43834000D01*
X68681939Y-43834000D01*
X68881898Y-43794226D01*
X69070256Y-43716205D01*
X69239774Y-43602937D01*
X69383937Y-43458774D01*
X69497205Y-43289256D01*
X69575226Y-43100898D01*
X69615000Y-42900939D01*
X69615000Y-42788567D01*
X69645745Y-42731048D01*
X69689202Y-42587787D01*
X69700199Y-42476134D01*
X69700199Y-42476125D01*
X69703875Y-42438802D01*
X69700199Y-42401479D01*
X69700199Y-42249659D01*
X69936328Y-42347467D01*
X70196411Y-42399200D01*
X70461589Y-42399200D01*
X70577368Y-42376170D01*
X70868001Y-42666804D01*
X70868000Y-44706697D01*
X69148498Y-46426201D01*
X69119500Y-46449999D01*
X69095702Y-46478997D01*
X69095701Y-46478998D01*
X69024526Y-46565724D01*
X68953954Y-46697754D01*
X68910498Y-46841015D01*
X68895824Y-46990000D01*
X68899501Y-47027332D01*
X68899501Y-47238788D01*
X68855563Y-47282726D01*
X68742295Y-47452244D01*
X68664274Y-47640602D01*
X68624500Y-47840561D01*
X68624500Y-48044439D01*
X68664274Y-48244398D01*
X68742295Y-48432756D01*
X68855563Y-48602274D01*
X68999726Y-48746437D01*
X69169244Y-48859705D01*
X69357602Y-48937726D01*
X69557561Y-48977500D01*
X69761439Y-48977500D01*
X69961398Y-48937726D01*
X70149756Y-48859705D01*
X70319274Y-48746437D01*
X70463437Y-48602274D01*
X70576705Y-48432756D01*
X70654726Y-48244398D01*
X70694500Y-48044439D01*
X70694500Y-47840561D01*
X70654726Y-47640602D01*
X70576705Y-47452244D01*
X70463437Y-47282726D01*
X70452506Y-47271795D01*
X72139009Y-45585294D01*
X72168001Y-45561501D01*
X72191795Y-45532508D01*
X72191799Y-45532504D01*
X72262973Y-45445777D01*
X72262974Y-45445776D01*
X72333546Y-45313747D01*
X72377003Y-45170486D01*
X72388000Y-45058833D01*
X72388000Y-45058824D01*
X72391676Y-45021501D01*
X72388000Y-44984178D01*
X72388000Y-42389322D01*
X72391676Y-42351999D01*
X72388000Y-42314676D01*
X72388000Y-42314667D01*
X72377003Y-42203014D01*
X72333546Y-42059753D01*
X72262974Y-41927724D01*
X72225281Y-41881795D01*
X72191799Y-41840996D01*
X72191795Y-41840992D01*
X72168001Y-41811999D01*
X72139008Y-41788205D01*
X71652170Y-41301368D01*
X71675200Y-41185589D01*
X71675200Y-40920411D01*
X71623467Y-40660328D01*
X71521987Y-40415335D01*
X71374662Y-40194847D01*
X71187153Y-40007338D01*
X70966665Y-39860013D01*
X70829024Y-39803000D01*
X70966665Y-39745987D01*
X71187153Y-39598662D01*
X71374662Y-39411153D01*
X71521987Y-39190665D01*
X71623467Y-38945672D01*
X71675200Y-38685589D01*
X71675200Y-38420411D01*
X71623467Y-38160328D01*
X71521987Y-37915335D01*
X71374662Y-37694847D01*
X71187153Y-37507338D01*
X70966665Y-37360013D01*
X70721672Y-37258533D01*
X70461589Y-37206800D01*
X70196411Y-37206800D01*
X69936328Y-37258533D01*
X69691335Y-37360013D01*
X69470847Y-37507338D01*
X69283338Y-37694847D01*
X69279000Y-37701339D01*
X69274662Y-37694847D01*
X69087153Y-37507338D01*
X68866665Y-37360013D01*
X68621672Y-37258533D01*
X68361589Y-37206800D01*
X68096411Y-37206800D01*
X67836328Y-37258533D01*
X67591335Y-37360013D01*
X67370847Y-37507338D01*
X67183338Y-37694847D01*
X67036013Y-37915335D01*
X66978272Y-38054733D01*
X66978272Y-37841800D01*
X66966012Y-37717318D01*
X66929702Y-37597620D01*
X66870737Y-37487306D01*
X66791385Y-37390615D01*
X66694694Y-37311263D01*
X66584380Y-37252298D01*
X66464682Y-37215988D01*
X66340200Y-37203728D01*
X64917800Y-37203728D01*
X64793318Y-37215988D01*
X64673620Y-37252298D01*
X64563306Y-37311263D01*
X64466615Y-37390615D01*
X64387263Y-37487306D01*
X64379344Y-37502120D01*
X64166665Y-37360013D01*
X63921672Y-37258533D01*
X63661589Y-37206800D01*
X63396411Y-37206800D01*
X63136328Y-37258533D01*
X62891335Y-37360013D01*
X62670847Y-37507338D01*
X62483338Y-37694847D01*
X62336013Y-37915335D01*
X62234533Y-38160328D01*
X62182800Y-38420411D01*
X59786431Y-38420411D01*
X59554511Y-37860507D01*
X59944098Y-37938000D01*
X60413902Y-37938000D01*
X60874679Y-37846346D01*
X61308721Y-37666560D01*
X61699349Y-37405550D01*
X62031550Y-37073349D01*
X62292560Y-36682721D01*
X62472346Y-36248679D01*
X62564000Y-35787902D01*
X62564000Y-35318098D01*
X62472346Y-34857321D01*
X62331836Y-34518098D01*
X64544000Y-34518098D01*
X64544000Y-34987902D01*
X64635654Y-35448679D01*
X64815440Y-35882721D01*
X65076450Y-36273349D01*
X65408651Y-36605550D01*
X65799279Y-36866560D01*
X66233321Y-37046346D01*
X66694098Y-37138000D01*
X67163902Y-37138000D01*
X67624679Y-37046346D01*
X68058721Y-36866560D01*
X68449349Y-36605550D01*
X68781550Y-36273349D01*
X69042560Y-35882721D01*
X69222346Y-35448679D01*
X69314000Y-34987902D01*
X69314000Y-34518098D01*
X69222346Y-34057321D01*
X69042560Y-33623279D01*
X68781550Y-33232651D01*
X68449349Y-32900450D01*
X68058721Y-32639440D01*
X67624679Y-32459654D01*
X67163902Y-32368000D01*
X66694098Y-32368000D01*
X66233321Y-32459654D01*
X65799279Y-32639440D01*
X65408651Y-32900450D01*
X65076450Y-33232651D01*
X64815440Y-33623279D01*
X64635654Y-34057321D01*
X64544000Y-34518098D01*
X62331836Y-34518098D01*
X62292560Y-34423279D01*
X62031550Y-34032651D01*
X61699349Y-33700450D01*
X61308721Y-33439440D01*
X60874679Y-33259654D01*
X60413902Y-33168000D01*
X59944098Y-33168000D01*
X59483321Y-33259654D01*
X59049279Y-33439440D01*
X58826000Y-33588631D01*
X58826000Y-30822500D01*
X75032000Y-30822500D01*
X75032001Y-33588631D01*
%TA.AperFunction,Conductor*%
D17*
G36*
X75032001Y-33588631D02*
G01*
X74808721Y-33439440D01*
X74374679Y-33259654D01*
X73913902Y-33168000D01*
X73444098Y-33168000D01*
X72983321Y-33259654D01*
X72549279Y-33439440D01*
X72158651Y-33700450D01*
X71826450Y-34032651D01*
X71565440Y-34423279D01*
X71385654Y-34857321D01*
X71294000Y-35318098D01*
X71294000Y-35787902D01*
X71385654Y-36248679D01*
X71565440Y-36682721D01*
X71826450Y-37073349D01*
X72158651Y-37405550D01*
X72549279Y-37666560D01*
X72983321Y-37846346D01*
X73444098Y-37938000D01*
X73913902Y-37938000D01*
X74303489Y-37860507D01*
X74036377Y-38505372D01*
X73889000Y-39246285D01*
X73889000Y-40001715D01*
X74036377Y-40742628D01*
X74325467Y-41440554D01*
X74745161Y-42068670D01*
X75279330Y-42602839D01*
X75464384Y-42726488D01*
X75394575Y-42811550D01*
X75333290Y-42926207D01*
X75295550Y-43050617D01*
X75282807Y-43180000D01*
X75286000Y-43212418D01*
X75286001Y-50902000D01*
X58826000Y-50902000D01*
X58826000Y-43212418D01*
X58829193Y-43180000D01*
X58816450Y-43050617D01*
X58778710Y-42926207D01*
X58717425Y-42811550D01*
X58634948Y-42711052D01*
X58537010Y-42630676D01*
X58578670Y-42602839D01*
X59112839Y-42068670D01*
X59532533Y-41440554D01*
X59821623Y-40742628D01*
X59969000Y-40001715D01*
X59969000Y-39246285D01*
X59821623Y-38505372D01*
X59786431Y-38420411D01*
X62182800Y-38420411D01*
X62182800Y-38685589D01*
X62234533Y-38945672D01*
X62336013Y-39190665D01*
X62483338Y-39411153D01*
X62670847Y-39598662D01*
X62891335Y-39745987D01*
X63028976Y-39803000D01*
X62891335Y-39860013D01*
X62670847Y-40007338D01*
X62483338Y-40194847D01*
X62336013Y-40415335D01*
X62234533Y-40660328D01*
X62182800Y-40920411D01*
X62182800Y-41185589D01*
X62234533Y-41445672D01*
X62336013Y-41690665D01*
X62483338Y-41911153D01*
X62670847Y-42098662D01*
X62891335Y-42245987D01*
X63136328Y-42347467D01*
X63396411Y-42399200D01*
X63661589Y-42399200D01*
X63921672Y-42347467D01*
X64166665Y-42245987D01*
X64387153Y-42098662D01*
X64503542Y-41982273D01*
X64879332Y-41982273D01*
X64940152Y-42217183D01*
X65180509Y-42329202D01*
X65438102Y-42392176D01*
X65703030Y-42403687D01*
X65965113Y-42363291D01*
X66214280Y-42272542D01*
X66317848Y-42217183D01*
X66378668Y-41982273D01*
X65629000Y-41232605D01*
X64879332Y-41982273D01*
X64503542Y-41982273D01*
X64574662Y-41911153D01*
X64654903Y-41791063D01*
X64699727Y-41802668D01*
X65449395Y-41053000D01*
X64699727Y-40303332D01*
X64654903Y-40314937D01*
X64574662Y-40194847D01*
X64387153Y-40007338D01*
X64166665Y-39860013D01*
X64029024Y-39803000D01*
X64166665Y-39745987D01*
X64379344Y-39603880D01*
X64387263Y-39618694D01*
X64466615Y-39715385D01*
X64563306Y-39794737D01*
X64673620Y-39853702D01*
X64793318Y-39890012D01*
X64917800Y-39902272D01*
X64936668Y-39902272D01*
X64879332Y-40123727D01*
X65629000Y-40873395D01*
X66378668Y-40123727D01*
X66321332Y-39902272D01*
X66340200Y-39902272D01*
X66464682Y-39890012D01*
X66584380Y-39853702D01*
X66694694Y-39794737D01*
X66791385Y-39715385D01*
X66870737Y-39618694D01*
X66929702Y-39508380D01*
X66966012Y-39388682D01*
X66978272Y-39264200D01*
X66978272Y-39051267D01*
X67036013Y-39190665D01*
X67183338Y-39411153D01*
X67370847Y-39598662D01*
X67570246Y-39731896D01*
X67436328Y-39758533D01*
X67191335Y-39860013D01*
X66970847Y-40007338D01*
X66783338Y-40194847D01*
X66688348Y-40337009D01*
X66558273Y-40303332D01*
X65808605Y-41053000D01*
X66558273Y-41802668D01*
X66688348Y-41768991D01*
X66783338Y-41911153D01*
X66970847Y-42098662D01*
X67191335Y-42245987D01*
X67436328Y-42347467D01*
X67630738Y-42386137D01*
X67584774Y-42497102D01*
X67545000Y-42697061D01*
X67545000Y-42900939D01*
X67584774Y-43100898D01*
X67662795Y-43289256D01*
X67776063Y-43458774D01*
X67920226Y-43602937D01*
X68089744Y-43716205D01*
X68278102Y-43794226D01*
X68478061Y-43834000D01*
X68681939Y-43834000D01*
X68881898Y-43794226D01*
X69070256Y-43716205D01*
X69239774Y-43602937D01*
X69383937Y-43458774D01*
X69497205Y-43289256D01*
X69575226Y-43100898D01*
X69615000Y-42900939D01*
X69615000Y-42788567D01*
X69645745Y-42731048D01*
X69689202Y-42587787D01*
X69700199Y-42476134D01*
X69700199Y-42476125D01*
X69703875Y-42438802D01*
X69700199Y-42401479D01*
X69700199Y-42249659D01*
X69936328Y-42347467D01*
X70196411Y-42399200D01*
X70461589Y-42399200D01*
X70577368Y-42376170D01*
X70868001Y-42666804D01*
X70868000Y-44706697D01*
X69148498Y-46426201D01*
X69119500Y-46449999D01*
X69095702Y-46478997D01*
X69095701Y-46478998D01*
X69024526Y-46565724D01*
X68953954Y-46697754D01*
X68910498Y-46841015D01*
X68895824Y-46990000D01*
X68899501Y-47027332D01*
X68899501Y-47238788D01*
X68855563Y-47282726D01*
X68742295Y-47452244D01*
X68664274Y-47640602D01*
X68624500Y-47840561D01*
X68624500Y-48044439D01*
X68664274Y-48244398D01*
X68742295Y-48432756D01*
X68855563Y-48602274D01*
X68999726Y-48746437D01*
X69169244Y-48859705D01*
X69357602Y-48937726D01*
X69557561Y-48977500D01*
X69761439Y-48977500D01*
X69961398Y-48937726D01*
X70149756Y-48859705D01*
X70319274Y-48746437D01*
X70463437Y-48602274D01*
X70576705Y-48432756D01*
X70654726Y-48244398D01*
X70694500Y-48044439D01*
X70694500Y-47840561D01*
X70654726Y-47640602D01*
X70576705Y-47452244D01*
X70463437Y-47282726D01*
X70452506Y-47271795D01*
X72139009Y-45585294D01*
X72168001Y-45561501D01*
X72191795Y-45532508D01*
X72191799Y-45532504D01*
X72262973Y-45445777D01*
X72262974Y-45445776D01*
X72333546Y-45313747D01*
X72377003Y-45170486D01*
X72388000Y-45058833D01*
X72388000Y-45058824D01*
X72391676Y-45021501D01*
X72388000Y-44984178D01*
X72388000Y-42389322D01*
X72391676Y-42351999D01*
X72388000Y-42314676D01*
X72388000Y-42314667D01*
X72377003Y-42203014D01*
X72333546Y-42059753D01*
X72262974Y-41927724D01*
X72225281Y-41881795D01*
X72191799Y-41840996D01*
X72191795Y-41840992D01*
X72168001Y-41811999D01*
X72139008Y-41788205D01*
X71652170Y-41301368D01*
X71675200Y-41185589D01*
X71675200Y-40920411D01*
X71623467Y-40660328D01*
X71521987Y-40415335D01*
X71374662Y-40194847D01*
X71187153Y-40007338D01*
X70966665Y-39860013D01*
X70829024Y-39803000D01*
X70966665Y-39745987D01*
X71187153Y-39598662D01*
X71374662Y-39411153D01*
X71521987Y-39190665D01*
X71623467Y-38945672D01*
X71675200Y-38685589D01*
X71675200Y-38420411D01*
X71623467Y-38160328D01*
X71521987Y-37915335D01*
X71374662Y-37694847D01*
X71187153Y-37507338D01*
X70966665Y-37360013D01*
X70721672Y-37258533D01*
X70461589Y-37206800D01*
X70196411Y-37206800D01*
X69936328Y-37258533D01*
X69691335Y-37360013D01*
X69470847Y-37507338D01*
X69283338Y-37694847D01*
X69279000Y-37701339D01*
X69274662Y-37694847D01*
X69087153Y-37507338D01*
X68866665Y-37360013D01*
X68621672Y-37258533D01*
X68361589Y-37206800D01*
X68096411Y-37206800D01*
X67836328Y-37258533D01*
X67591335Y-37360013D01*
X67370847Y-37507338D01*
X67183338Y-37694847D01*
X67036013Y-37915335D01*
X66978272Y-38054733D01*
X66978272Y-37841800D01*
X66966012Y-37717318D01*
X66929702Y-37597620D01*
X66870737Y-37487306D01*
X66791385Y-37390615D01*
X66694694Y-37311263D01*
X66584380Y-37252298D01*
X66464682Y-37215988D01*
X66340200Y-37203728D01*
X64917800Y-37203728D01*
X64793318Y-37215988D01*
X64673620Y-37252298D01*
X64563306Y-37311263D01*
X64466615Y-37390615D01*
X64387263Y-37487306D01*
X64379344Y-37502120D01*
X64166665Y-37360013D01*
X63921672Y-37258533D01*
X63661589Y-37206800D01*
X63396411Y-37206800D01*
X63136328Y-37258533D01*
X62891335Y-37360013D01*
X62670847Y-37507338D01*
X62483338Y-37694847D01*
X62336013Y-37915335D01*
X62234533Y-38160328D01*
X62182800Y-38420411D01*
X59786431Y-38420411D01*
X59554511Y-37860507D01*
X59944098Y-37938000D01*
X60413902Y-37938000D01*
X60874679Y-37846346D01*
X61308721Y-37666560D01*
X61699349Y-37405550D01*
X62031550Y-37073349D01*
X62292560Y-36682721D01*
X62472346Y-36248679D01*
X62564000Y-35787902D01*
X62564000Y-35318098D01*
X62472346Y-34857321D01*
X62331836Y-34518098D01*
X64544000Y-34518098D01*
X64544000Y-34987902D01*
X64635654Y-35448679D01*
X64815440Y-35882721D01*
X65076450Y-36273349D01*
X65408651Y-36605550D01*
X65799279Y-36866560D01*
X66233321Y-37046346D01*
X66694098Y-37138000D01*
X67163902Y-37138000D01*
X67624679Y-37046346D01*
X68058721Y-36866560D01*
X68449349Y-36605550D01*
X68781550Y-36273349D01*
X69042560Y-35882721D01*
X69222346Y-35448679D01*
X69314000Y-34987902D01*
X69314000Y-34518098D01*
X69222346Y-34057321D01*
X69042560Y-33623279D01*
X68781550Y-33232651D01*
X68449349Y-32900450D01*
X68058721Y-32639440D01*
X67624679Y-32459654D01*
X67163902Y-32368000D01*
X66694098Y-32368000D01*
X66233321Y-32459654D01*
X65799279Y-32639440D01*
X65408651Y-32900450D01*
X65076450Y-33232651D01*
X64815440Y-33623279D01*
X64635654Y-34057321D01*
X64544000Y-34518098D01*
X62331836Y-34518098D01*
X62292560Y-34423279D01*
X62031550Y-34032651D01*
X61699349Y-33700450D01*
X61308721Y-33439440D01*
X60874679Y-33259654D01*
X60413902Y-33168000D01*
X59944098Y-33168000D01*
X59483321Y-33259654D01*
X59049279Y-33439440D01*
X58826000Y-33588631D01*
X58826000Y-30822500D01*
X75032000Y-30822500D01*
X75032001Y-33588631D01*
G37*
%TD.AperFunction*%
%TD*%
M02*
