%TF.GenerationSoftware,KiCad,Pcbnew,5.1.12-84ad8e8a86~92~ubuntu20.04.1*%
%TF.CreationDate,2021-12-07T00:18:18-06:00*%
%TF.ProjectId,portboard_ffc,706f7274-626f-4617-9264-5f6666632e6b,rev?*%
%TF.SameCoordinates,Original*%
%TF.FileFunction,Legend,Top*%
%TF.FilePolarity,Positive*%
%FSLAX46Y46*%
G04 Gerber Fmt 4.6, Leading zero omitted, Abs format (unit mm)*
G04 Created by KiCad (PCBNEW 5.1.12-84ad8e8a86~92~ubuntu20.04.1) date 2021-12-07 00:18:18*
%MOMM*%
%LPD*%
G01*
G04 APERTURE LIST*
%ADD10C,0.120000*%
%ADD11C,0.127000*%
%ADD12C,0.150000*%
%ADD13C,0.065024*%
G04 APERTURE END LIST*
D10*
%TO.C,J1*%
X63896000Y-45436000D02*
X62406000Y-45436000D01*
X62406000Y-45436000D02*
X62406000Y-46776000D01*
X70216000Y-45436000D02*
X71706000Y-45436000D01*
X71706000Y-45436000D02*
X71706000Y-46776000D01*
X62406000Y-49496000D02*
X62406000Y-51236000D01*
X62406000Y-51236000D02*
X71706000Y-51236000D01*
X71706000Y-51236000D02*
X71706000Y-49496000D01*
X63896000Y-45436000D02*
X63896000Y-44236000D01*
D11*
%TO.C,J2*%
X73929000Y-30053000D02*
X59929000Y-30053000D01*
X59929000Y-30053000D02*
X59929000Y-34503000D01*
X59929000Y-34503000D02*
X59929000Y-42953000D01*
X59929000Y-42953000D02*
X73929000Y-42953000D01*
X73929000Y-42953000D02*
X73929000Y-36503000D01*
X73929000Y-36503000D02*
X73929000Y-34503000D01*
X73929000Y-34503000D02*
X73929000Y-30053000D01*
X73929000Y-34503000D02*
X73629000Y-34503000D01*
X73629000Y-34503000D02*
X73629000Y-36503000D01*
X73629000Y-36503000D02*
X73929000Y-36503000D01*
X59929000Y-34503000D02*
X60229000Y-34503000D01*
X60229000Y-34503000D02*
X60229000Y-36503000D01*
X60229000Y-36503000D02*
X59979000Y-36503000D01*
%TO.C,J1*%
D12*
X66722666Y-42488380D02*
X66722666Y-43202666D01*
X66675047Y-43345523D01*
X66579809Y-43440761D01*
X66436952Y-43488380D01*
X66341714Y-43488380D01*
X67722666Y-43488380D02*
X67151238Y-43488380D01*
X67436952Y-43488380D02*
X67436952Y-42488380D01*
X67341714Y-42631238D01*
X67246476Y-42726476D01*
X67151238Y-42774095D01*
%TO.C,J2*%
X59594619Y-42658309D02*
X58880333Y-42658309D01*
X58737476Y-42610690D01*
X58642238Y-42515452D01*
X58594619Y-42372595D01*
X58594619Y-42277357D01*
X59499380Y-43086880D02*
X59547000Y-43134500D01*
X59594619Y-43229738D01*
X59594619Y-43467833D01*
X59547000Y-43563071D01*
X59499380Y-43610690D01*
X59404142Y-43658309D01*
X59308904Y-43658309D01*
X59166047Y-43610690D01*
X58594619Y-43039261D01*
X58594619Y-43658309D01*
D13*
X64694117Y-41932457D02*
X64694117Y-42447230D01*
X64510269Y-41638300D02*
X64326422Y-42189843D01*
X64804425Y-42189843D01*
X64694117Y-41932457D02*
X64694117Y-42447230D01*
X64510269Y-41638300D02*
X64326422Y-42189843D01*
X64804425Y-42189843D01*
X68595652Y-41675070D02*
X69110425Y-41675070D01*
X68779500Y-42447230D01*
X68595652Y-41675070D02*
X69110425Y-41675070D01*
X68779500Y-42447230D01*
X68298422Y-36717609D02*
X68335191Y-36680840D01*
X68408730Y-36644070D01*
X68592578Y-36644070D01*
X68666117Y-36680840D01*
X68702886Y-36717609D01*
X68739656Y-36791148D01*
X68739656Y-36864687D01*
X68702886Y-36974996D01*
X68261652Y-37416230D01*
X68739656Y-37416230D01*
X72036886Y-38008070D02*
X71669191Y-38008070D01*
X71632422Y-38375765D01*
X71669191Y-38338996D01*
X71742730Y-38302226D01*
X71926578Y-38302226D01*
X72000117Y-38338996D01*
X72036886Y-38375765D01*
X72073656Y-38449304D01*
X72073656Y-38633152D01*
X72036886Y-38706691D01*
X72000117Y-38743460D01*
X71926578Y-38780230D01*
X71742730Y-38780230D01*
X71669191Y-38743460D01*
X71632422Y-38706691D01*
X62094117Y-40675070D02*
X61947039Y-40675070D01*
X61873500Y-40711840D01*
X61836730Y-40748609D01*
X61763191Y-40858918D01*
X61726422Y-41005996D01*
X61726422Y-41300152D01*
X61763191Y-41373691D01*
X61799961Y-41410460D01*
X61873500Y-41447230D01*
X62020578Y-41447230D01*
X62094117Y-41410460D01*
X62130886Y-41373691D01*
X62167656Y-41300152D01*
X62167656Y-41116304D01*
X62130886Y-41042765D01*
X62094117Y-41005996D01*
X62020578Y-40969226D01*
X61873500Y-40969226D01*
X61799961Y-41005996D01*
X61763191Y-41042765D01*
X61726422Y-41116304D01*
X65539656Y-37416230D02*
X65098422Y-37416230D01*
X65319039Y-37416230D02*
X65319039Y-36644070D01*
X65245500Y-36754379D01*
X65171961Y-36827918D01*
X65098422Y-36864687D01*
X61816652Y-38008070D02*
X62294656Y-38008070D01*
X62037269Y-38302226D01*
X62147578Y-38302226D01*
X62221117Y-38338996D01*
X62257886Y-38375765D01*
X62294656Y-38449304D01*
X62294656Y-38633152D01*
X62257886Y-38706691D01*
X62221117Y-38743460D01*
X62147578Y-38780230D01*
X61926961Y-38780230D01*
X61853422Y-38743460D01*
X61816652Y-38706691D01*
X71779500Y-41005996D02*
X71705961Y-40969226D01*
X71669191Y-40932457D01*
X71632422Y-40858918D01*
X71632422Y-40822148D01*
X71669191Y-40748609D01*
X71705961Y-40711840D01*
X71779500Y-40675070D01*
X71926578Y-40675070D01*
X72000117Y-40711840D01*
X72036886Y-40748609D01*
X72073656Y-40822148D01*
X72073656Y-40858918D01*
X72036886Y-40932457D01*
X72000117Y-40969226D01*
X71926578Y-41005996D01*
X71779500Y-41005996D01*
X71705961Y-41042765D01*
X71669191Y-41079535D01*
X71632422Y-41153074D01*
X71632422Y-41300152D01*
X71669191Y-41373691D01*
X71705961Y-41410460D01*
X71779500Y-41447230D01*
X71926578Y-41447230D01*
X72000117Y-41410460D01*
X72036886Y-41373691D01*
X72073656Y-41300152D01*
X72073656Y-41153074D01*
X72036886Y-41079535D01*
X72000117Y-41042765D01*
X71926578Y-41005996D01*
X71779500Y-41005996D02*
X71705961Y-40969226D01*
X71669191Y-40932457D01*
X71632422Y-40858918D01*
X71632422Y-40822148D01*
X71669191Y-40748609D01*
X71705961Y-40711840D01*
X71779500Y-40675070D01*
X71926578Y-40675070D01*
X72000117Y-40711840D01*
X72036886Y-40748609D01*
X72073656Y-40822148D01*
X72073656Y-40858918D01*
X72036886Y-40932457D01*
X72000117Y-40969226D01*
X71926578Y-41005996D01*
X71779500Y-41005996D01*
X71705961Y-41042765D01*
X71669191Y-41079535D01*
X71632422Y-41153074D01*
X71632422Y-41300152D01*
X71669191Y-41373691D01*
X71705961Y-41410460D01*
X71779500Y-41447230D01*
X71926578Y-41447230D01*
X72000117Y-41410460D01*
X72036886Y-41373691D01*
X72073656Y-41300152D01*
X72073656Y-41153074D01*
X72036886Y-41079535D01*
X72000117Y-41042765D01*
X71926578Y-41005996D01*
X62094117Y-40675070D02*
X61947039Y-40675070D01*
X61873500Y-40711840D01*
X61836730Y-40748609D01*
X61763191Y-40858918D01*
X61726422Y-41005996D01*
X61726422Y-41300152D01*
X61763191Y-41373691D01*
X61799961Y-41410460D01*
X61873500Y-41447230D01*
X62020578Y-41447230D01*
X62094117Y-41410460D01*
X62130886Y-41373691D01*
X62167656Y-41300152D01*
X62167656Y-41116304D01*
X62130886Y-41042765D01*
X62094117Y-41005996D01*
X62020578Y-40969226D01*
X61873500Y-40969226D01*
X61799961Y-41005996D01*
X61763191Y-41042765D01*
X61726422Y-41116304D01*
X72036886Y-38008070D02*
X71669191Y-38008070D01*
X71632422Y-38375765D01*
X71669191Y-38338996D01*
X71742730Y-38302226D01*
X71926578Y-38302226D01*
X72000117Y-38338996D01*
X72036886Y-38375765D01*
X72073656Y-38449304D01*
X72073656Y-38633152D01*
X72036886Y-38706691D01*
X72000117Y-38743460D01*
X71926578Y-38780230D01*
X71742730Y-38780230D01*
X71669191Y-38743460D01*
X71632422Y-38706691D01*
X61816652Y-38008070D02*
X62294656Y-38008070D01*
X62037269Y-38302226D01*
X62147578Y-38302226D01*
X62221117Y-38338996D01*
X62257886Y-38375765D01*
X62294656Y-38449304D01*
X62294656Y-38633152D01*
X62257886Y-38706691D01*
X62221117Y-38743460D01*
X62147578Y-38780230D01*
X61926961Y-38780230D01*
X61853422Y-38743460D01*
X61816652Y-38706691D01*
X68298422Y-36717609D02*
X68335191Y-36680840D01*
X68408730Y-36644070D01*
X68592578Y-36644070D01*
X68666117Y-36680840D01*
X68702886Y-36717609D01*
X68739656Y-36791148D01*
X68739656Y-36864687D01*
X68702886Y-36974996D01*
X68261652Y-37416230D01*
X68739656Y-37416230D01*
X65539656Y-37416230D02*
X65098422Y-37416230D01*
X65319039Y-37416230D02*
X65319039Y-36644070D01*
X65245500Y-36754379D01*
X65171961Y-36827918D01*
X65098422Y-36864687D01*
%TD*%
M02*
